<?xml version="1.0" standalone="no"?>
<!DOCTYPE svg PUBLIC "-//W3C//DTD SVG 1.1//EN" "http://www.w3.org/Graphics/SVG/1.1/DTD/svg11.dtd" >
<svg xmlns="http://www.w3.org/2000/svg" xmlns:xlink="http://www.w3.org/1999/xlink" version="1.1">
<metadata>
Created by FontForge 20161003 at Thu Sep  5 05:57:25 2019
 By www-data
Copyright (c) 1992 Adobe Systems Incorporated.  All Rights Reserved.Block Berthold is a registered trademark of H. Berthold AG.
</metadata>
<defs>
<font id="BlockBertholdRegular" horiz-adv-x="646" >
  <font-face 
    font-family="BlockBertholdRegular"
    font-weight="400"
    font-stretch="normal"
    units-per-em="1000"
    panose-1="2 0 5 4 6 0 0 2 0 4"
    ascent="800"
    descent="-200"
    x-height="571"
    cap-height="710"
    bbox="-131 -182 1084 907"
    underline-thickness="50"
    underline-position="-150"
    unicode-range="U+0020-FB02"
  />
<missing-glyph horiz-adv-x="208" 
 />
    <glyph glyph-name=".notdef" horiz-adv-x="208" 
 />
    <glyph glyph-name=".null" horiz-adv-x="0" 
 />
    <glyph glyph-name="nonmarkingreturn" horiz-adv-x="208" 
 />
    <glyph glyph-name="space" unicode=" " horiz-adv-x="208" 
 />
    <glyph glyph-name="space" unicode="&#xa0;" horiz-adv-x="208" 
 />
    <glyph glyph-name="exclam" unicode="!" horiz-adv-x="396" 
d="M220 182q-2 0 -12.5 0.5t-13.5 0.5q-5 0 -11 -0.5t-11 -0.5q-2 0 -12 1t-13 1q-2 0 -7 -0.5t-7 -0.5t-7.5 -1t-7.5 -1q-12 0 -16.5 2t-8.5 5q-10 8 -14.5 16t-5.5 32q-1 29 -2 48.5t-3 35.5q-2 14 -4 30t-4 30q-2 9 -1.5 18.5t-0.5 18.5q-1 8 -1.5 14.5t-1.5 14.5v12
t-1 12q0 7 -0.5 14t-1.5 14q-1 9 -1.5 14.5l-1 11t-1.5 11t-3 14.5q-2 14 -3.5 27.5t-1.5 27.5q0 17 1.5 28.5t3.5 18.5q5 14 9 21.5t9 13.5q3 4 5.5 5.5t10.5 6.5q3 2 5.5 4t6.5 4q2 1 6.5 2.5t16.5 1.5q6 0 12.5 -0.5t12.5 -0.5q11 -1 25 -1.5t27 -1t21.5 -0.5h9.5
q3 0 10 0.5t15 0.5q8 1 15.5 1h10.5q29 0 43 -11.5t25 -28.5q6 -10 11.5 -25.5t5.5 -52.5q0 -48 -10 -92q-5 -19 -9.5 -37.5t-5.5 -37.5q-1 -4 -1 -11v-81q0 -2 -0.5 -13t-1.5 -24.5t-1.5 -25t-0.5 -14.5q-2 -11 -2 -16v-21q0 -5 -1 -6.5t-4 -6.5q-5 -7 -9 -12t-9.5 -8
t-14 -4t-22.5 -1q-4 0 -17.5 1.5t-17.5 1.5h-11zM325 83q1 -4 2 -17.5t1 -14.5v-4t-2 -8q-3 -18 -6.5 -24t-15.5 -11q-10 -4 -15.5 -4.5t-22.5 -0.5q-3 0 -14 0.5t-15 0.5q-3 0 -15 -1t-16 -1t-16 1t-16 1q-2 0 -7 -0.5t-7 -0.5q-1 0 -5 0.5t-6 0.5t-6.5 -0.5t-6.5 -0.5
q-5 0 -11.5 0.5t-12.5 1.5q-3 0 -9.5 1.5t-13 5t-11.5 10t-5 17.5q0 3 0.5 12.5t0.5 11.5q0 5 -1 19.5t-1 19.5q0 16 0.5 21t1.5 9q2 5 9.5 14.5t25.5 9.5q6 0 12 -0.5t12 -1.5h13q5 0 19 -1t19 -1q3 0 10 0.5t15 0.5t15 0.5t10 0.5t15 -0.5t16 -0.5q3 0 14 1t15 1
q10 0 21 -6t11 -26q0 -2 -0.5 -10.5t-0.5 -10.5v-15z" />
    <glyph glyph-name="quotedbl" unicode="&#x22;" horiz-adv-x="604" 
d="M414 408h-31l-55 250q-2 8 -2 15v8q0 19 7.5 32t18.5 21t24 11.5t25 3.5q9 0 21 -3t22.5 -10t17.5 -19.5t7 -31.5v-7t-2 -9zM206 408h-31l-55 250q-2 8 -2 15v8q0 19 7.5 32t18.5 21t24 11.5t25 3.5q9 0 21 -3t22.5 -10t17.5 -19.5t7 -31.5v-7t-2 -9z" />
    <glyph glyph-name="dollar" unicode="$" horiz-adv-x="583" 
d="M248 -85q-2 0 -11.5 -1t-11.5 -1q-5 0 -9.5 2.5t-4.5 15.5q0 2 0.5 8.5t0.5 13.5t0.5 13t0.5 9q0 11 -4 13t-18 4q-2 0 -8.5 0.5t-13.5 1t-13 1t-9 0.5q-10 2 -15 2q-4 1 -12 1q-41 2 -59.5 12t-22.5 18q-1 2 -1.5 9.5t-1 16.5t-1 16.5t-0.5 10.5q0 2 0.5 8.5t0.5 13.5
t0.5 13t0.5 9v11t-1 11q-1 6 -1.5 12t-0.5 11q0 3 1 13t5.5 20.5t14.5 19t27 8.5q2 0 7.5 -1.5t10.5 -2.5l18 -3q4 -1 7.5 -2t7.5 -2q6 -2 12.5 -2.5t13.5 -2.5q5 -1 9.5 -2t9.5 -2q3 -1 13.5 -2t14.5 -2t7 -2t7 -2q1 0 8 -1t14.5 -2t14 -2t7.5 -1q15 0 20 8t5 13q0 8 -9 12
t-22 9q-7 2 -20 7t-28 12l-30 14t-24 13q-7 5 -13 9t-13 9q-14 9 -28.5 20t-22.5 23q-6 8 -8.5 10.5t-7.5 8.5q-11 12 -18 26.5t-17 39.5q-2 5 -3.5 11t-3 15.5t-2.5 23t-1 33.5q0 7 1 19t9 29q2 3 3.5 6.5t3.5 7.5q3 8 5.5 15.5t6.5 15.5q2 5 4 8t4.5 6.5t6.5 8.5t12 13
q14 15 25 24.5t31 20.5q17 8 39 14.5t32 7.5q4 0 8.5 1.5t4.5 9.5q0 2 -0.5 7t-0.5 7q0 5 0.5 10t1.5 10q0 1 -0.5 4t-0.5 5q0 4 2.5 12.5t19.5 8.5q5 0 9 -1t9 -1h20q2 0 11 -0.5t13 -0.5h36q12 0 17.5 -5.5t5.5 -13.5q0 -5 -1 -19.5t-1 -19.5q0 -6 2 -7t7 -1
q34 -1 57.5 -4.5t38.5 -10.5t22.5 -17.5t9.5 -24.5q1 -4 0.5 -18t0.5 -19q0 -4 -0.5 -17.5t-0.5 -18.5q0 -4 1 -18.5t1 -19.5q0 -4 -0.5 -11t-3 -15t-8.5 -16t-17 -13q-4 -2 -16 -6t-17 -4t-13 2t-14.5 4.5t-13.5 4.5q-12 3 -23 3q-3 1 -6 0.5t-5 0.5q-6 0 -11.5 1.5
t-10.5 2.5q-10 2 -15 2q-3 0 -8 -0.5t-10 -2t-8.5 -4.5t-3.5 -9q0 -2 5.5 -10t35.5 -16q12 -4 24 -7.5t23 -8.5q8 -4 14.5 -8t13.5 -9q10 -5 19 -10t19 -10q7 -5 12 -8t10 -7t11.5 -9.5t16.5 -15.5q14 -13 18.5 -18t12.5 -15q6 -10 8.5 -14.5t7.5 -18.5q2 -6 6 -12t6 -13
q3 -6 5 -14t4 -16.5t3 -16.5t1 -13q0 -1 -0.5 -6.5t-1 -12.5t-1.5 -12.5l-1 -5.5q-2 -11 -2 -15v-12q0 -14 -4 -27t-10 -23t-12 -17.5t-9 -11.5q-4 -3 -7.5 -6t-7.5 -7q-4 -3 -7 -6.5t-6 -6.5q-7 -5 -14 -9.5t-15 -9.5q-5 -3 -10 -7t-10 -6q-7 -4 -17 -9.5t-17 -7.5
q-1 0 -6.5 -1.5t-13 -3t-14.5 -3.5t-10 -2q-5 0 -9 -2t-4 -11q0 -3 0.5 -6t0.5 -6v-6.5t-1 -6.5q0 -4 0.5 -15.5t0.5 -13.5q0 -7 -5.5 -9.5t-10.5 -2.5q-1 0 -10.5 0.5t-11.5 0.5q-1 0 -8 0.5t-9 0.5z" />
    <glyph glyph-name="percent" unicode="%" horiz-adv-x="1000" 
d="M420 472q-1 -9 -3.5 -17.5t-4.5 -17.5q-1 -7 -2 -13.5t-3 -12.5q-2 -9 -6.5 -22t-6.5 -16q-1 -2 -5.5 -7.5t-10 -12.5t-10.5 -13.5t-7 -9.5q-4 -5 -10 -10l-12 -10t-10.5 -8.5t-5.5 -4.5q-5 -3 -17 -8t-27 -10.5t-31 -9t-29 -3.5q-11 0 -21.5 0.5t-20.5 3.5q-7 2 -13 4.5
t-13 4.5l-12 4t-11 4q-20 8 -39 26.5t-27 29.5q-3 5 -5.5 11t-4.5 11q-4 6 -7.5 11.5t-6.5 11.5q-2 6 -5.5 18t-4.5 16q-2 6 -3 15.5t-2.5 19.5t-2 17.5t-0.5 9.5v7t0.5 12.5t1 12t0.5 6.5q1 10 5 26.5t9.5 32t9.5 27t5 13.5q5 9 13 20t13 16t9.5 8t9.5 8q10 9 14.5 13
t9.5 7q1 0 9 4t19.5 8.5t24 8.5t21.5 5h42q6 0 15.5 -0.5t23.5 -5.5q15 -6 23.5 -9t13.5 -5.5t9 -5t9 -5.5q12 -8 20 -15t14.5 -14.5t12 -17t12.5 -21.5q7 -13 11.5 -21t7 -14t4 -12.5t3.5 -16.5q1 -7 1.5 -11.5t1 -9.5t1 -11.5t0.5 -17.5q0 -7 0.5 -13t0.5 -12v-9zM265 490
q0 7 -3.5 22.5t-6.5 21.5q-5 11 -17.5 17.5t-17.5 6.5t-10 -2.5t-10 -5.5q-9 -6 -11.5 -10t-8.5 -21q-4 -14 -5 -18t-1 -6q0 -5 1 -11t3 -12q1 -7 3.5 -15t7 -15t12 -11.5t19.5 -4.5q15 0 23 7t12 12q5 10 7.5 27t2.5 18zM579 218q0 20 2.5 36.5t8.5 33.5q2 5 3 9.5t3 9.5
q2 6 3.5 12t3.5 12q5 15 16 30t15 19q5 5 9 8t9 8q4 3 7 6l6 6q6 5 12.5 9.5t11.5 6.5q1 0 7 2.5t13.5 5.5t13.5 5.5t7 2.5q5 2 9.5 3t11.5 1.5t17 0.5h27q15 0 31.5 -5t38.5 -14q13 -5 34 -20.5t33 -32.5l5 -8.5t11 -19.5t11.5 -21.5t7.5 -14.5q2 -6 3.5 -13t3.5 -14
q1 -7 1.5 -11t1 -8.5t0.5 -9.5v-14q0 -3 1.5 -13.5t1.5 -13.5t-1 -13t-3 -18q-1 -5 -2.5 -10.5t-2.5 -11.5q-2 -5 -2 -10.5t-2 -10.5q-2 -8 -7.5 -23.5t-7.5 -17.5q-4 -7 -9 -12.5t-10 -11.5q-4 -5 -7.5 -10.5t-8.5 -10.5q-2 -2 -7 -6.5t-11 -9.5l-12 -10t-8 -6
q-4 -2 -16 -6.5t-27 -9.5t-31 -9t-28 -4q-5 0 -9 0.5t-9 0.5q-7 0 -11.5 0.5t-9 2t-9.5 3.5t-14 5t-17.5 5t-16.5 7q-1 1 -11.5 7.5t-11.5 6.5q-4 3 -16.5 16t-20.5 24q-3 5 -6 11l-6 12q-3 5 -6.5 11t-6.5 12q-2 4 -9.5 33.5t-7.5 69.5zM779 283q-5 0 -17 -5.5t-17 -16.5
q-1 -2 -3 -7.5t-4 -12.5t-3.5 -13t-1.5 -8t1 -8.5t2.5 -15t4.5 -16.5t6 -13q8 -11 17 -13.5t15 -2.5q8 0 17.5 4t16.5 16q6 11 8 25.5t2 17.5q0 8 -3 24t-6 22q-6 11 -18 17t-17 6zM245 14q0 3 1.5 9.5t5.5 12.5q2 3 4 5.5t4 5.5q3 5 5 9.5t4 9.5q3 6 10.5 20t16.5 29.5
t17 30t11 20.5q4 10 11 20q2 5 5.5 8.5t5.5 8.5q0 1 9 17.5t20 37t20 37t9 17.5q10 17 19.5 33.5t19.5 33.5q15 26 30.5 53t25.5 48q1 1 5 9t9 17.5t10 18.5t7 13q1 3 10.5 19.5t20.5 37.5t21.5 40t15.5 26q2 4 6 11t7 13q2 4 4.5 7t4.5 6q6 10 10.5 14.5t15.5 4.5
q2 0 9 -0.5t9 -0.5q3 0 14 1t15 1q2 0 8 -0.5t12.5 -0.5t12 -0.5l5.5 -0.5q17 -2 19.5 -9.5t2.5 -9.5q0 -6 -11 -28.5t-25 -46.5q-2 -2 -6 -8.5t-8.5 -14t-9 -14t-5.5 -9.5q-5 -8 -8.5 -15l-7.5 -15q-10 -16 -13.5 -22t-8.5 -17q-2 -3 -7 -13t-11 -21.5t-11.5 -21.5
t-6.5 -13q-13 -22 -29 -52.5t-28 -52.5q-5 -10 -11 -18.5t-12 -17.5q-7 -12 -13.5 -24.5t-13.5 -24.5q-4 -7 -11.5 -20.5t-16 -28t-15 -26t-7.5 -13.5q-3 -7 -5.5 -11t-4.5 -8t-5 -8.5t-8 -11.5q-4 -6 -10.5 -18.5t-13.5 -25.5t-12 -23.5t-6 -11.5q-8 -16 -18 -29.5
t-30 -13.5q-2 0 -11.5 1t-11.5 1q-4 0 -15.5 -1t-15.5 -1q-11 0 -30 3q-4 0 -9.5 2t-5.5 10z" />
    <glyph glyph-name="ampersand" unicode="&#x26;" horiz-adv-x="771" 
d="M334 716q2 0 11.5 1t11.5 1q7 0 13 -1t13 -2h11.5t11.5 -1q10 -2 19 -6t19 -7q7 -2 14.5 -4t14.5 -5q5 -2 20 -10.5t27 -19.5l15 -15q5 -4 9 -7.5t9 -8.5q5 -6 16.5 -22t11.5 -36q0 -5 -2.5 -15t-16.5 -20q-5 -3 -9.5 -5.5t-9.5 -5.5q-4 -3 -7 -6.5t-7 -6.5
q-7 -8 -13.5 -17t-14.5 -17q-5 -5 -17 -13t-28 -8q-14 0 -19.5 6t-6.5 8q-2 5 -3 10.5t-3 10.5q-5 17 -26 17q-16 0 -26 -9t-10 -25q0 -14 10 -26q2 -2 5 -4.5t5 -4.5q5 -6 7 -13t2 -12v-4q-1 -5 -3 -9l-4 -8q-2 -3 -2 -6t-1 -5l-6 -12q-6 -13 -11.5 -17t-16.5 -5
q-25 -2 -38 -9t-18 -16q-3 -5 -6.5 -15.5t-3.5 -17.5q0 -11 6.5 -21.5t15.5 -19.5t19 -15.5t17 -9.5q6 -2 15.5 -2.5t17.5 -0.5q5 0 9.5 -0.5t9.5 -0.5q7 0 16.5 3t17.5 9t13.5 14t5.5 19q0 7 -3 9.5t-5 3.5t-3.5 1t-3.5 1q-3 2 -9 8t-6 18q0 14 3.5 21.5t11.5 18.5
q1 2 4.5 7.5t7 12.5t7 13t5.5 8q8 8 16 15q7 5 15 10t15 5q6 0 15.5 -3.5t32.5 -16.5q13 -8 25 -14t24 -11.5t26 -10.5t33 -10q8 -2 16.5 -4.5t16.5 -5.5q4 -2 7.5 -3t9 -4.5t13.5 -10t23 -17.5q23 -18 23 -45q0 -4 -1 -8.5t-5 -12.5q-5 -10 -11 -19t-11 -19q-1 -3 -5 -11
q-2 -5 -5 -10.5t-5 -9.5q-8 -16 -20 -18.5t-14 -2.5q-5 0 -9 2t-10 6t-10 4q-7 0 -10 -4t-5 -9q-2 -6 -8.5 -16t-14.5 -19t-15 -16.5t-15 -15.5q-10 -12 -16 -19t-10.5 -11.5t-8.5 -7.5t-9 -6q-23 -14 -30.5 -18t-17.5 -8q-11 -4 -21 -6t-21 -7q-5 -2 -9 -3.5t-9 -2.5
q-1 0 -9.5 -1.5t-18.5 -3t-18.5 -3t-9.5 -1.5h-40q-5 0 -19 -1t-19 -1q-9 0 -17 1.5t-20 5.5q-31 9 -51 17t-33 15t-20.5 13t-13.5 12q-5 5 -10 10.5t-10 10.5t-10 8.5t-10 8.5q-11 9 -16 14.5t-17 20.5q-10 13 -15.5 21t-9.5 15.5t-7.5 16t-8.5 22.5q-5 13 -9.5 31.5
t-4.5 53.5q0 10 1.5 27t9.5 40q3 12 6 18.5t11 18.5q4 7 6.5 11t5 7t6 6.5t8.5 9.5q5 5 8.5 10.5t8.5 10.5q10 10 24.5 18t25.5 12q5 2 10.5 5t5.5 9q0 2 -3 9t-3 9q-7 16 -8.5 26.5t-1.5 18.5q0 5 1 12t3 19q2 9 2.5 19t3.5 18q4 9 10 17l12 16q13 16 21 24.5t25 16.5
q3 1 9.5 3.5t14 5.5t13.5 5.5t8 3.5q7 2 13.5 2t13.5 2q5 1 10.5 2t10.5 2h21z" />
    <glyph glyph-name="quotesingle" unicode="'" horiz-adv-x="313" 
d="M171 408h-31l-55 250q-2 8 -2 15v8q0 19 7.5 32t18.5 21t24 11.5t25 3.5q9 0 21 -3t22.5 -10t17.5 -19.5t7 -31.5v-7t-2 -9z" />
    <glyph glyph-name="parenleft" unicode="(" horiz-adv-x="417" 
d="M388 633q0 -3 -0.5 -11t-0.5 -17.5t-0.5 -18t-0.5 -11.5t0.5 -9.5t1 -13.5t1 -13.5t0.5 -9.5q0 -12 -1 -19t-4 -12t-9 -9t-16 -11q-11 -7 -15.5 -12t-15.5 -21q-9 -12 -15 -20.5t-9.5 -14.5t-5.5 -12t-3 -13q-1 -6 -1 -12t-1 -12q0 -2 -1 -7.5t-2 -12t-1.5 -12t-0.5 -8.5
t0.5 -14t2 -26t3.5 -30.5t6 -25.5q0 -2 2.5 -7t5 -12t5.5 -13t5 -9q5 -8 19.5 -22t31.5 -25q8 -5 13.5 -10.5t5.5 -19.5q0 -5 -0.5 -9.5t-0.5 -9.5q0 -3 0.5 -11.5t0.5 -11.5t-0.5 -12t-0.5 -19t-0.5 -19t-0.5 -13q0 -3 1 -14t1 -15q0 -30 -4 -37.5t-9 -10.5q-9 -6 -24 -7
t-19 -1q-2 0 -8.5 1t-15.5 3t-19 3.5t-17 3.5q-13 3 -25.5 5.5t-24.5 7.5q-9 4 -17 8q-7 3 -13.5 6t-8.5 5q-5 4 -10.5 9.5t-10.5 9.5q-14 10 -24 22q-3 3 -6 7l-6 8q-5 5 -9 8.5t-8 8.5q-14 16 -26.5 32.5t-21.5 36.5q-3 8 -5.5 13t-4 10t-3 11t-4.5 16q-2 9 -5 18t-5 19
q-3 13 -3 28q-1 5 -0.5 10.5t-0.5 10.5q-1 7 -2.5 14t-3.5 15q-1 6 -1 12.5v12.5q0 4 -1 16.5t-1 16.5q0 8 1.5 20l3 24t3 22t2.5 13q1 2 2.5 8t4 12.5t4 12.5t2.5 9q1 4 1 8t1 8t5.5 16l7.5 20l8 16l8 16q2 3 6.5 14t6.5 14q2 5 8 14t14 19.5t16.5 20.5t16.5 16
q5 4 10.5 7.5t10.5 8.5l12 12q11 11 35.5 25.5t54.5 20.5q3 1 11 2t17 2.5t17.5 2.5t11.5 1q11 2 14 2.5t7 0.5q22 0 32.5 -5.5t11.5 -26.5v-48z" />
    <glyph glyph-name="parenright" unicode=")" horiz-adv-x="417" 
d="M30 657q0 15 1 26t6.5 17.5t16 9.5t29.5 3q5 0 10 -0.5t10 -1.5q11 -2 22 -5t22 -5q12 -3 24 -5t23 -6q6 -2 18 -8.5t16 -8.5q4 -3 11.5 -8.5t16 -12.5t16 -14.5l12.5 -12.5q2 -2 7 -8t10.5 -12t10.5 -12t7 -8q13 -14 27 -37t21 -45q2 -6 3 -12.5t3 -12.5q2 -8 5 -16
t5 -16q4 -16 4 -36v-9.5t1 -9.5q1 -7 2.5 -13.5t2.5 -14.5q0 -2 1 -10t1.5 -17t1 -17.5t0.5 -11.5q0 -11 -1.5 -24t-3.5 -25t-3.5 -20t-1.5 -9q-1 -3 -3 -9.5t-4 -13.5t-4 -13.5t-2 -9.5q-3 -17 -4 -22t-5 -13q-1 -3 -4.5 -10t-7 -14.5t-7 -14.5l-5.5 -11q-1 -2 -5 -12.5
t-6 -13.5q-1 -3 -6 -11t-12.5 -17.5t-16 -20t-17.5 -18.5q-5 -5 -11 -8.5t-11 -8.5q-5 -4 -9 -8.5t-9 -8.5q-9 -9 -21.5 -16t-24.5 -13t-22 -9.5t-13 -4.5q-1 0 -12.5 -1.5t-26 -4t-29 -4t-21.5 -1.5q-15 0 -26.5 4.5t-12.5 28.5v47q0 3 0.5 9.5t0.5 13.5t0.5 13.5t0.5 9.5
t-0.5 12t-1 19t-1 19t-0.5 13q0 16 3 23t14 14q4 3 7.5 5.5t7.5 4.5q9 6 14 11.5t14 18.5q12 16 19 25.5t10.5 17.5t4.5 17t3 24q1 11 2.5 20.5t1.5 20.5q0 5 -0.5 10t-0.5 10v13.5t-1 14.5q-1 5 -1.5 11t-1.5 11q-2 8 -3 13t-2.5 9.5t-3.5 9.5t-5 13q-5 10 -8 16.5t-6 10.5
t-6 7.5t-9 9.5q-11 10 -18 15t-19 13q-6 5 -10.5 10t-4.5 18q0 2 0.5 11t0.5 12q0 13 0.5 30t0.5 30q0 2 0.5 10.5t0.5 11.5t-1 14.5t-1 14.5z" />
    <glyph glyph-name="asterisk" unicode="*" horiz-adv-x="375" 
d="M243 708q8 0 12 -5.5t4 -10.5q0 -2 -1.5 -7.5t-3 -12t-3 -12t-1.5 -8.5q0 -2 0.5 -6t5.5 -4q2 0 8 2.5t11 5.5q11 8 16 11t13 3q14 0 21 -12.5t9 -21.5q2 -6 2 -11.5t2 -11.5q2 -8 5 -14.5t5 -14.5q2 -5 3 -11t3 -11q5 -14 5 -17q0 -9 -4.5 -12t-8.5 -4t-13 -3t-20 -3
q-3 0 -9.5 -1.5t-6.5 -6.5t4 -8.5t7 -5.5q15 -10 23.5 -17t8.5 -14q0 -8 -8.5 -16t-36.5 -29q-8 -6 -15 -11.5t-14 -12.5q-8 -6 -14.5 -10.5t-13.5 -4.5q-10 0 -14 5.5t-8 13.5q-2 3 -5 9.5t-6.5 12.5t-7 10.5t-6.5 4.5q-4 0 -9 -7q-2 -4 -4.5 -8.5t-10.5 -22.5
q-2 -5 -7 -12t-13 -7q-9 0 -19 6.5t-16 11.5t-12 9l-12 8q-7 5 -14.5 10t-14.5 10q-11 8 -13.5 11.5t-2.5 6.5q0 4 2.5 7.5t5.5 6.5q2 3 5 5t5 4q6 7 8 9l4 4q8 6 8 12q0 5 -9.5 7.5t-14.5 3.5q-15 0 -25 4q-10 5 -11.5 10.5t-1.5 19.5q0 2 1.5 9t4 15t4.5 15t3 10
q2 5 2 10.5t2 11.5q4 10 6 14q4 13 7.5 19.5t10.5 6.5q8 0 15 -5q8 -5 18.5 -10t15.5 -5q4 0 5.5 4t1.5 9q0 2 -0.5 4t-0.5 4q-5 17 -5 31t10.5 17t16.5 3h18q3 0 14.5 0.5t15.5 0.5h8.5t13.5 -0.5t13.5 -0.5h9.5h13z" />
    <glyph glyph-name="comma" unicode="," horiz-adv-x="313" 
d="M28 181q0 41 12.5 54.5t36.5 13.5q2 0 8.5 -0.5t13.5 -0.5t13.5 -0.5t9.5 -0.5t9.5 0.5t13.5 0.5t13.5 0.5t9.5 0.5q4 0 16 -0.5t15 -0.5q3 -1 13 -0.5t14 0.5q26 0 43 -17q9 -9 11 -18t2 -34q0 -4 -0.5 -15t-0.5 -23t-0.5 -23.5t-0.5 -15.5t0.5 -15t1.5 -23t1.5 -23
t0.5 -15q0 -25 -6 -43q-1 -2 -3.5 -8.5t-6 -14t-6 -14t-3.5 -7.5q-2 -4 -5 -7.5t-5 -8.5q-3 -5 -5.5 -10t-5.5 -10q-4 -6 -12.5 -12t-36.5 -6q-4 0 -16.5 2t-17.5 2q-2 0 -7.5 -1.5t-7.5 -1.5h-14l-12 3q-8 2 -12.5 4t-4.5 13q0 8 0.5 10t0.5 3l2 4l2 4q2 6 2 9q1 5 2 8.5
t3 7.5q3 6 6.5 11.5t4.5 11.5v3q0 1 -0.5 4t-2.5 6.5t-6.5 7t-12.5 4.5h-24q-22 0 -31.5 11t-11.5 17q-1 3 -2 17t-1 20q0 13 2 26t2 27q0 3 -0.5 12t-1.5 19t-1.5 19t-0.5 13z" />
    <glyph glyph-name="hyphen" unicode="-" horiz-adv-x="521" 
d="M413 392q43 0 60.5 -13.5t17.5 -46.5q0 -3 -0.5 -10.5t-0.5 -15.5t-0.5 -15.5t-0.5 -10.5q0 -10 0.5 -22.5t1.5 -25.5q1 -11 2.5 -23t1.5 -24q0 -10 -2 -21t-9 -20t-21 -15t-38 -6q-3 0 -12 0.5t-18.5 1t-18.5 1t-13 0.5t-15.5 -0.5t-24 -1.5t-24 -1.5t-16.5 -0.5
q-4 0 -13.5 0.5t-20 1t-20.5 1t-14 0.5h-43q-4 0 -18.5 0.5t-19.5 0.5q-4 0 -18 -1t-19 -1q-38 0 -50.5 19t-13.5 51v36q0 3 -0.5 12.5t-1 20t-1 20t-0.5 13.5q0 16 2 33t9 30.5t18.5 22.5t31.5 9q4 0 13 -0.5t19.5 -1t19.5 -1t13 -0.5q3 0 9.5 0.5t14 0.5t14 0.5t9.5 0.5
h12t19 -0.5t19 -0.5h13h45q2 0 8 0.5t12.5 1t12.5 1t9 0.5q4 0 16.5 -0.5t17.5 -0.5q2 0 12.5 0.5t13.5 0.5z" />
    <glyph glyph-name="period" unicode="." horiz-adv-x="313" 
d="M30 202q0 14 5.5 24.5t14 17t17.5 10t16 3.5q6 0 12 -1l12 -2t17.5 -1h17.5q3 0 14.5 1t14.5 1t12.5 -1t12.5 -1q2 0 11 1t12 1q21 0 41 -9t24 -40v-10.5v-16t-0.5 -16.5t-0.5 -11t-1 -15.5t-1 -16.5q0 -5 0.5 -9.5t0.5 -9.5v-16q0 -3 1 -12.5t1 -12.5q0 -4 -2 -18.5
t-11 -25.5t-25 -14t-22 -3q-5 0 -17.5 0.5t-26.5 1.5t-27 1.5t-18 0.5t-19 -1t-19 -1q-24 0 -31 0.5t-10 2.5q-14 5 -20 19t-6 30q0 3 0.5 10.5t0.5 15.5t0.5 15.5t0.5 10.5q0 5 -0.5 18.5t-0.5 29t-0.5 29.5t-0.5 20z" />
    <glyph glyph-name="slash" unicode="/" horiz-adv-x="542" 
d="M5 26q0 3 1 9.5t3 10.5q1 2 5 11t9 19t9.5 19.5t6.5 13.5q5 8 9.5 16t8.5 16q7 12 12.5 24t10.5 23q3 5 5.5 9.5t4.5 9.5q2 4 2.5 7.5t2.5 7.5q3 7 6.5 13.5t7.5 14.5q5 10 10 21t9 18q3 6 15 30.5t26 53t25.5 53t14.5 30.5q4 10 8 19t9 18q3 4 7 12q2 6 4.5 12t5.5 11
q5 8 8 16q2 4 3.5 7.5t3.5 7.5q3 8 7 15.5t9 15.5l6 10l6 10q6 12 8.5 16.5t8.5 13.5q2 5 4.5 9t4.5 9t3 8.5t3 8.5q9 20 20.5 28t37.5 8q4 0 17 -1t18 -1h10h5.5t8.5 -1q5 0 9 -0.5t6 -0.5t5 0.5t7 0.5q4 1 7 1h5q3 0 13 -0.5t13 -0.5q20 0 28 -11t8 -19q0 -9 -4.5 -18
t-12.5 -23l-10 -20t-12 -25.5t-12 -26.5t-10 -22q-4 -11 -6.5 -16.5t-9.5 -19.5q-2 -5 -9.5 -23t-12.5 -28q-2 -6 -5 -11.5t-6 -11.5q-2 -4 -3.5 -8t-3.5 -9q-3 -7 -6.5 -13t-7.5 -13q-10 -19 -22.5 -45t-21.5 -44q-4 -8 -8 -16.5t-9 -16.5q-14 -26 -25.5 -51.5t-24.5 -51.5
q-7 -14 -16.5 -32.5t-17.5 -32.5q-2 -5 -5 -8.5t-5 -7.5q0 -1 -3 -6.5t-6 -12t-6 -12.5t-4 -7q-9 -23 -18 -34.5t-35 -11.5q-4 0 -14.5 0.5t-21.5 1t-21.5 1t-14.5 0.5q-3 0 -12 -0.5t-18.5 -0.5t-18.5 -0.5t-13 -0.5q-13 0 -20.5 3t-11.5 7t-5.5 8.5t-1.5 6.5z" />
    <glyph glyph-name="zero" unicode="0" horiz-adv-x="667" 
d="M14 407q0 13 2 28.5t5 30t6.5 27t6.5 18.5q6 14 14.5 27t16.5 27q2 5 4.5 8.5t4.5 8.5q3 6 5.5 10.5t5.5 9t7 9.5t11 13q12 13 26 24.5t27.5 21t24.5 15.5t18 9q6 2 13 4t13 5q5 2 9.5 4t9.5 4q1 0 8 2t15 3.5t15.5 3.5t10.5 2h6.5t12 0.5t12.5 0.5h8q23 0 36.5 -0.5
t24 -2t20 -5t25.5 -9.5q19 -8 31.5 -13t21.5 -9.5t16 -9.5t16 -13q5 -5 8.5 -9t8.5 -8q4 -4 8 -7l8 -6q14 -12 23 -24q5 -6 11 -14.5t12 -18t10.5 -18.5t6.5 -15q4 -10 6.5 -20t5.5 -21q3 -10 8 -22q4 -12 7 -24t6 -25q5 -20 5.5 -31t0.5 -28q0 -3 0.5 -13.5t0.5 -13.5
q0 -1 -1 -10t-2 -20t-2 -20.5l-1 -9.5q0 -1 -1 -8.5t-2.5 -15.5t-3 -15t-1.5 -8q-1 -5 -2.5 -9.5t-3.5 -9.5l-6.5 -19.5t-4 -12.5t-3 -8l-3.5 -7q-3 -5 -7 -10.5t-7 -11.5q-1 -2 -4 -7t-6 -11t-5.5 -11.5t-3.5 -7.5q-5 -7 -13 -16.5t-17.5 -18.5t-18 -17t-12.5 -11
q-2 -2 -8 -5.5t-12.5 -7.5t-12 -7.5t-7.5 -4.5q-3 -1 -10 -3.5t-15 -5.5t-15 -5t-10 -3q-8 -4 -16.5 -7.5t-17.5 -5.5q-10 -2 -19.5 -3t-20.5 -2q-13 -1 -18 -1h-10t-9 0.5t-9.5 1t-14 2.5t-22.5 5q-9 2 -15 3.5t-11.5 3t-11 3.5t-14.5 6q-14 5 -27 9t-25 11q-6 3 -16 10.5
t-20.5 16.5t-20 17.5t-13.5 14.5q-7 8 -12.5 16.5t-12.5 16.5q-8 10 -16 19t-13 20q-3 5 -5 10l-4 10q-7 15 -8.5 20.5t-4.5 18.5q-1 3 -2.5 12t-3.5 19.5t-4 19.5t-3 13q-3 10 -5.5 24t-2.5 32q0 12 1.5 24t2.5 24v17v0zM334 461q-9 0 -16 -4q-7 -3 -12 -7q-2 -2 -4.5 -3.5
t-4.5 -2.5q-3 -2 -4 -2q-5 -5 -11 -13t-9 -16q-2 -5 -2 -10.5t-2 -11.5q-1 -7 -3 -13t-3 -14v-21q0 -1 1 -6.5t1.5 -12.5t1.5 -13t1 -7q2 -8 5 -14.5t7 -12.5q10 -14 23 -22t38 -8q18 0 35 13.5t24 39.5q2 6 2 11.5t2 10.5q5 14 5.5 20t0.5 17v9q0 2 -3 10.5t-6.5 18.5
t-6.5 18.5t-4 10.5q-9 16 -27 25.5t-29 9.5z" />
    <glyph glyph-name="one" unicode="1" horiz-adv-x="625" 
d="M521 199q0 -3 -0.5 -10.5t-1 -15.5l-1 -16t-0.5 -11q0 -14 2 -38t4 -35q1 -8 3 -20.5t2 -16.5q0 -24 -14 -30t-34 -6q-4 0 -18.5 0.5t-19.5 0.5q-3 0 -15 -0.5t-15 -0.5t-9.5 0.5t-13.5 0.5t-13.5 0.5t-9.5 0.5t-11 -0.5t-16.5 -1t-16.5 -1t-11 -0.5q-20 0 -36 9t-16 34
q0 9 2 18l4 18q1 7 1.5 14t0.5 15q0 4 -1 16.5t-1.5 26t-1.5 26t-1 17.5q0 6 1 22.5t1.5 34.5t1.5 34.5t1 23.5q0 3 -0.5 10.5t-0.5 16t-0.5 16t-0.5 10.5t0.5 9t1.5 13.5t1.5 13.5t0.5 9q0 10 -5 18t-18 8q-6 0 -13 -3.5t-13 -8t-10 -8.5l-4 -4q-3 -3 -5.5 -6.5t-5.5 -5.5
q-5 -5 -11 -6.5t-12 -1.5q-17 0 -31 19q-5 5 -8.5 10.5t-8.5 10.5q-5 7 -11 12.5t-12 10.5q-17 15 -28 27t-11 31q0 10 9 20q8 10 13.5 13.5t21.5 11.5q6 3 12.5 6.5t12.5 8.5t12 10.5t12 10.5q7 5 14.5 10.5t14.5 10.5q3 2 8.5 7t10.5 10q6 5 13 12q2 3 5 6t5 6q6 6 17 15
t21.5 18t19.5 15.5t11 7.5q6 2 22.5 3t23.5 1q3 0 11 -0.5t16 -1.5q9 -2 21 -2h17q3 0 11.5 0.5t18 1.5t18 1.5t12.5 0.5q25 0 33 -6t13 -12q10 -13 13 -23t3 -31q0 -1 -0.5 -7t-0.5 -13t-0.5 -13.5t-0.5 -7.5q-1 -11 -3.5 -22.5t-3.5 -22.5v-9v-11t0.5 -17.5t1 -17.5
t0.5 -10q0 -3 0.5 -12t1.5 -19t1.5 -19t0.5 -13q0 -6 -0.5 -12.5t-0.5 -12.5q-1 -11 -2 -22.5t-2 -22.5v-75q0 -4 1 -17.5t1 -18.5q0 -2 -1 -11.5t-1 -12.5v-22z" />
    <glyph glyph-name="two" unicode="2" 
d="M38 103q0 3 -1 14t-1 14q0 10 5 20q5 8 18.5 17t23.5 14q5 2 11 3.5t11 4.5l4 2l9 4.5t9 5t5 2.5l10 8l10 8q3 2 6.5 4t7.5 4q7 4 13 8.5t13 9.5q5 4 8.5 7.5t13.5 14.5q5 5 11 9.5t11 9.5q3 1 9 5.5t13.5 9.5t13.5 10t9 7q18 14 29 30.5t17 31t8.5 25t2.5 13.5
q0 2 -1 11.5t-5 18.5q-8 17 -24.5 25t-33.5 8q-4 0 -8 -1t-15 -4q-14 -5 -19.5 -8t-12.5 -15q-2 -5 -6.5 -13t-5.5 -11q-2 -5 -2.5 -11t-2.5 -12q-1 -4 -6 -12.5t-23 -8.5q-3 0 -9.5 0.5t-14 1.5t-14 1.5t-9.5 0.5q-4 0 -17.5 -0.5t-18.5 -0.5q-3 0 -15.5 -1t-17.5 -1
t-14 2.5t-17.5 8t-15 15.5t-6.5 25q0 10 1 23t2 22q1 11 1.5 17.5t1.5 12t3.5 12t6.5 17.5q4 13 7 20t5 11.5t4.5 7.5t5.5 8l6 6t6 7q4 5 7 10.5t7 10.5q11 14 21 22q1 1 9.5 7t18 12.5t17.5 12t9 5.5q3 2 9 5t12 5.5t10.5 5l4.5 2.5q2 1 12.5 3t22 4.5t21 4.5t10.5 2t9 0.5
t18 1t19 1t11 0.5q4 0 14.5 -0.5t21.5 -1t21 -1.5t12 -1q17 -2 34 -8t24 -9q6 -3 11.5 -6t11.5 -6t12 -5t12 -5q8 -5 18 -11t12 -8t8 -8.5t12.5 -13.5t12 -13t8.5 -9q2 -2 8 -9.5t8 -9.5q2 -3 5.5 -5.5t5.5 -6.5q18 -22 24 -49t7 -42v-20q1 -2 1.5 -8.5t0.5 -8.5t-0.5 -7
t-1 -11t-1 -11t-0.5 -7q-1 -7 -4.5 -17.5t-7 -20t-6.5 -16.5t-3 -8t-4.5 -7t-10 -13.5t-10 -13.5l-4.5 -6q-6 -7 -13 -13q-5 -4 -10.5 -7.5t-10.5 -8.5q-8 -7 -16 -14.5t-16 -13.5q-5 -4 -10.5 -6.5t-11.5 -7.5q-5 -3 -9 -6.5t-4 -8.5q0 -8 6.5 -9t20.5 -1q2 0 10.5 0.5
t10.5 1.5q4 0 16.5 -0.5t17.5 -0.5q4 0 19 1.5t20 1.5q26 0 39.5 -8t17.5 -22q1 -4 2 -15.5t1 -15.5q0 -3 -0.5 -13t-1.5 -21.5t-1.5 -22t-0.5 -14.5q0 -3 0.5 -9.5t1 -14t1 -14t0.5 -9.5q0 -20 -7.5 -30t-14.5 -12q-2 -1 -11.5 -2t-22.5 -1q-5 0 -19.5 0.5t-30.5 1.5
t-31 1.5t-21 0.5q-2 0 -9 -0.5t-15 -0.5q-8 -1 -14.5 -1.5t-9.5 -0.5q-5 0 -11 0.5t-11 0.5q-6 1 -11.5 1h-11.5q-4 0 -13 -0.5t-19.5 -1.5t-19.5 -1.5t-12 -0.5q-1 0 -14 1t-29.5 2.5t-32 2.5t-21.5 1q-3 0 -6.5 -0.5t-6.5 -0.5q-11 -1 -21.5 -2t-21.5 -2q-3 0 -14.5 -0.5
t-24.5 -1t-25 -0.5h-17q-6 0 -14 0.5t-15.5 4t-12.5 10.5t-5 19q0 4 1.5 17.5t1.5 18.5q0 2 -1 11t-1 12v13z" />
    <glyph glyph-name="three" unicode="3" horiz-adv-x="562" 
d="M129 381q0 4 -1 18.5t-1 19.5q0 8 2 16t10 14q5 5 14.5 8.5t14.5 3.5q2 0 4.5 -0.5t4.5 -0.5q7 -1 14 -1t14 -1q6 0 12 -1t12 -1q1 0 7.5 1t14.5 4t14.5 9.5t6.5 17.5q0 14 -11.5 23t-28.5 9q-2 0 -7 -0.5t-7 -0.5l-15 3q-3 1 -7 1h-15h-8t-8 -1l-18 -3q-2 0 -10 0.5
t-10 0.5q-12 0 -24 -3q-10 -2 -21 -4.5t-18 -2.5q-15 0 -23 5.5t-12 14.5t-5 20t-1 22q0 2 0.5 9t0.5 14.5t0.5 14t0.5 9.5q0 4 -1 16.5t-1 16.5q0 25 9 37.5t38 18.5q3 1 10 2t15 2t15.5 1.5t11.5 0.5t19 -0.5t20 -0.5q13 0 25 1t25 1q4 0 13.5 -0.5t20.5 -1.5t21 -2t14 -1
h23q14 0 22 -1t31 -7q12 -3 19.5 -5t13.5 -4.5t12 -5.5t15 -8q16 -10 26 -16t17 -10.5t12 -9.5t12 -13q4 -5 7 -9t5.5 -8t5 -10t6.5 -16q3 -7 6.5 -13.5t5.5 -14.5q3 -9 4 -19t1 -20q0 -20 -0.5 -25.5t-0.5 -9.5q-2 -13 -7.5 -24.5t-11.5 -20.5t-11.5 -15.5t-8.5 -8.5
q-4 -3 -8 -5.5t-9 -5.5l-6 -8t-3 -7q0 -5 5 -9.5t10 -6.5l12 -6q2 -2 8.5 -6.5t8.5 -5.5q2 -2 7.5 -8.5t11.5 -15t11.5 -17.5t8.5 -16q4 -11 5 -21t4 -21q2 -7 3.5 -13t3.5 -13q0 -4 0.5 -7.5t0.5 -7.5t-0.5 -12.5t-2.5 -18.5l-2 -8t-2 -9t-1.5 -10t-2.5 -10q-3 -12 -11 -26
t-18 -26t-19.5 -22t-16.5 -15q-9 -6 -18.5 -11t-19.5 -11q-5 -3 -9.5 -6t-9.5 -6t-13 -7t-17 -7.5t-16.5 -7t-11.5 -4.5q-2 0 -10.5 -1t-18 -2t-17.5 -2t-11 -1q-4 0 -17 0.5t-17 0.5q-13 0 -25.5 -1t-25.5 -1q-4 0 -15.5 0.5t-24.5 1t-24 1t-15 0.5q-3 0 -10.5 1.5t-16 2.5
t-16.5 2.5t-11 1.5l-30 4t-29 8q-4 2 -13.5 8.5t-11.5 21.5q-1 7 -1 13q-1 5 -1 9v5q0 8 1 16t3 16q3 22 3 39q0 10 -1 15q-1 8 -2 19t-1 12q0 2 0.5 8t3 12t8.5 11t17 5q5 0 10.5 -1t11.5 -3q10 -3 19.5 -5.5t20.5 -5.5q8 -2 13 -2.5t19 -1.5q4 0 15 -1t22.5 -1.5t21 -1.5
t11.5 -1q5 0 10.5 0.5t11.5 0.5h10q16 0 22 2.5t16 8.5q8 5 14.5 12t6.5 19q0 14 -10.5 26t-27.5 14q-2 1 -9.5 0.5t-9.5 -0.5t-11.5 1.5t-12.5 1.5q-5 0 -21 -1.5t-21 -1.5q-15 0 -23.5 4t-12.5 9.5t-4.5 12.5t-0.5 13v58z" />
    <glyph glyph-name="four" unicode="4" horiz-adv-x="667" 
d="M506 0h-7t-11 0.5t-11 0.5h-7q-3 0 -14.5 -1t-14.5 -1q-3 -1 -5.5 -1h-10.5q-5 0 -19.5 -0.5t-19.5 -0.5q-24 0 -33.5 10t-11.5 15q-1 2 -1.5 8t-1.5 11q-1 6 -1 14q0 10 2.5 20t2.5 20q0 24 -19 30q-4 2 -9 2t-23 -1h-16q-2 0 -10.5 -0.5t-11.5 -0.5q-4 -1 -18.5 -0.5
t-19.5 0.5q-3 0 -9 -0.5t-13 -0.5t-13 -0.5t-9 -0.5h-1q-5 0 -19.5 1.5t-25.5 3.5q-8 1 -15 1h-15q-2 0 -12 -0.5t-13 -0.5q-15 0 -24 4.5t-14 10t-7 10.5t-2 7q-2 6 -2 15.5v30.5v27q0 3 -0.5 12t-1 19t-1 19t-0.5 13q0 12 0.5 17.5t2.5 8.5q1 2 5.5 9.5t8.5 13.5l12 15
q7 8 12.5 15.5t11.5 15.5q5 5 9 10t9 11q5 8 16 24t16 24l4 8t5 8q4 6 7 10q2 2 2.5 5t2.5 5l12 15q2 2 3 3.5t3 3.5q2 3 7 8q2 2 3 5t3 5q2 3 10 14t10 15q16 23 29 44q6 10 11 19.5t12 18.5l8 10t9 10q14 17 21.5 24t19.5 12q4 2 8 3t10 1.5t16 0.5h26q3 0 10 0.5
t15.5 0.5t15.5 0.5t10 0.5t13 -1t13 -2h22h7t10 -1q5 0 10 -0.5t7 -0.5h7t11 1h18q16 0 25.5 -3t17.5 -12q14 -14 17 -29t3 -33q0 -4 -0.5 -19t-0.5 -20q0 -4 0.5 -14.5t1 -22t1 -22.5t0.5 -15q0 -2 -0.5 -10.5t-0.5 -10.5t0.5 -8.5t0.5 -13.5t0.5 -13t0.5 -9v-9.5t-0.5 -14
t-0.5 -14.5v-10q0 -5 -1.5 -19.5t-1.5 -19.5q0 -35 7.5 -44t15.5 -10q5 -2 10 -1.5t10 -1.5q14 -5 14 -30q0 -4 -1 -17.5t-1 -18.5q0 -4 1 -15.5t1.5 -24t1.5 -24.5t1 -16q0 -27 -9 -33.5t-33 -7.5q-5 0 -10 -2.5t-5 -15.5q0 -2 0.5 -7.5t1 -12t1 -12t0.5 -6.5q1 -5 2 -10.5
t1 -10.5q0 -11 -5 -17.5t-11 -11.5q-7 -6 -11.5 -9t-10.5 -4.5t-15.5 -1.5h-27.5zM352 475q0 5 -3 8t-6 3t-9 -6l-3.5 -6t-8 -13t-8.5 -13.5t-5 -7.5q-5 -7 -8.5 -14t-8.5 -15q-5 -7 -9.5 -13.5t-9.5 -14.5q-8 -10 -14 -20t-6 -21q0 -18 13 -21t34 -2q2 0 7.5 -0.5t7.5 -0.5
q17 0 24 3t9 10q0 1 1 7.5t2 15t1.5 16t0.5 10.5t-0.5 9t-1 13.5t-1 13.5t-0.5 9t1 15t1 16v19z" />
    <glyph glyph-name="five" unicode="5" horiz-adv-x="562" 
d="M28 573v8.5t0.5 13.5t0.5 13v9q0 2 -0.5 8t-1 12.5t-1 12.5t-0.5 9q0 20 10.5 34t36.5 14h8t13 -1q7 0 13 -0.5t8 -0.5q3 0 12 0.5t19 1t19 1t13 0.5h11.5t17.5 -0.5t17.5 -0.5h11.5h10.5t16 0.5t16 0.5h10.5h46q3 0 9.5 -0.5t14.5 -0.5t14.5 -0.5t9.5 -0.5h10.5t10.5 1
q1 0 5.5 0.5t9.5 1t9 1t5 0.5q23 0 32 -8t9 -40v-7t-0.5 -13t-0.5 -13v-7q-1 -8 -1 -12.5v-20.5q0 -2 1 -6.5t1 -6.5q0 -1 -0.5 -6t-2 -11l-3 -12t-2.5 -9q-4 -7 -13.5 -14t-23.5 -7h-24q-9 0 -18 0.5t-12 0.5q-4 0 -19 -1t-20 -1h-10t-14.5 0.5t-14.5 1t-10 0.5h-4.5
t-8.5 1q-5 0 -13 1q-12 0 -16 -3.5t-5 -8.5v-17q0 -4 2.5 -12t18.5 -8q3 0 14 1.5t15 1.5t20 -2t35 -4.5t36 -5.5t25 -6q9 -3 20.5 -9.5t23 -14t21 -14t12.5 -9.5q7 -5 18 -17.5t16 -20.5t12 -26.5t9 -28.5q2 -5 2 -9.5t2 -9.5q1 -8 5 -17q3 -10 3.5 -16t0.5 -10v-8
t-0.5 -12.5l-1 -13t-0.5 -7.5q0 -3 -1.5 -9.5t-3 -13.5t-3 -13.5t-2.5 -9.5q-3 -6 -6.5 -11.5t-6.5 -12.5q-4 -8 -6 -16t-7 -16t-11 -15.5t-12 -14.5q-3 -3 -5.5 -6.5t-5.5 -6.5t-6.5 -5.5t-7.5 -4.5q-4 -3 -8 -5.5t-9 -5.5q-5 -4 -10.5 -8t-10.5 -8q-3 -2 -15 -8t-23 -10
q-5 -2 -16.5 -5t-24 -6t-22.5 -5t-12 -2q-10 -2 -20 -1.5t-20 -0.5q-7 0 -13.5 -0.5t-12.5 -0.5h-17h-4.5t-7.5 -1q-4 0 -7.5 -0.5t-5.5 -0.5q-6 0 -11 1t-8.5 1.5t-4.5 0.5q-11 2 -21.5 1.5t-21.5 1.5q-9 1 -22 5q-8 2 -16.5 2.5t-16.5 2.5q-33 5 -45.5 9.5t-17.5 7.5
q-7 4 -11 7.5t-6 8t-2.5 11.5t-0.5 18q0 5 0.5 18t0.5 27.5t0.5 27.5t0.5 18q0 4 -1 16.5t-1 16.5q0 11 7 25.5t21 14.5q3 0 12 -2.5t19 -4.5q11 -4 26 -7q4 -2 7.5 -3.5t8.5 -2.5q8 -3 15.5 -3t15.5 -2q5 -1 8.5 -2t7.5 -2q10 -3 21 -3q2 0 12 1t12 1t9 -0.5t9 -0.5
q9 0 14.5 2t13.5 6q9 5 19 13.5t10 26.5q0 11 -5.5 20.5t-13.5 14.5t-21.5 8t-20.5 3q-2 0 -10.5 -0.5t-10.5 -0.5q-3 0 -10 0.5t-15.5 1.5t-16 1.5t-10.5 0.5q-4 0 -19 -1.5t-20 -1.5q-13 0 -23 3q-4 0 -12 2q-12 2 -24 7.5t-12 28.5q0 3 0.5 10.5t1.5 16t2 16t1 10.5
q1 8 1 15v15q0 17 -0.5 33.5t-0.5 33.5v32q0 3 -0.5 10.5t-0.5 16.5t-0.5 17t-0.5 11z" />
    <glyph glyph-name="six" unicode="6" 
d="M9 384v9t1 8q1 8 2 15t2 15t2 13.5t2.5 10.5t3.5 11t6 16q4 11 8.5 20.5t9.5 19.5q8 18 12.5 28.5t8 17.5t7.5 12t11 13q10 12 22.5 24t18.5 16q4 3 7.5 5.5t6.5 4.5q8 6 15.5 13.5t15.5 12.5q5 4 10 6.5t10 5.5q3 2 6 3.5l7 3.5q18 11 37 15.5t44 9.5q18 3 29.5 4.5
t21.5 2.5t21.5 1h30.5q4 0 16 -1.5t17 -1.5q8 -1 15 -0.5t14 -1.5q5 -1 8.5 -1.5t7.5 -1.5q7 -2 13.5 -2.5t13.5 -2.5q10 -4 15.5 -5t19.5 -4q29 -5 38.5 -13t12.5 -12q5 -7 5.5 -14t0.5 -30q0 -4 -1 -16.5t-1 -17.5q-1 -4 -0.5 -18t0.5 -19q0 -8 -2.5 -19.5t-16.5 -22.5
q-8 -6 -17 -8t-13 -2q-1 0 -3 1t-5 1t-7 2q-3 2 -14 5t-15 5q-5 2 -8.5 3.5t-8.5 3.5q-6 2 -21 4.5t-25 2.5q-2 0 -11 -1t-11 -1q-6 0 -12 1t-12 1q-22 0 -44 -5.5t-30 -10.5q-12 -5 -20.5 -15t-8.5 -17q0 -6 5 -9.5t10 -3.5q2 0 13.5 3t20.5 5q10 2 27.5 3.5t36.5 1.5
q1 0 8 -0.5t9 -0.5q9 -2 18.5 -1.5t18.5 -1.5q5 -2 9.5 -3.5t9.5 -3.5q3 -1 7 -1t8 -1q8 -1 16 -4.5t35 -17.5q5 -3 10 -5.5t10 -5.5q1 -1 6 -4t10.5 -7t10 -7l4.5 -3q4 -4 7 -8t6 -9q5 -7 8 -11t5 -8l4.5 -9t5.5 -13l15 -27q10 -22 12.5 -42t2.5 -29q0 -11 -1 -16l-3 -24
q-1 -10 -0.5 -19.5t-1.5 -19.5q-3 -17 -11 -33.5t-14 -23.5q-3 -5 -7 -8.5t-7 -8.5q-5 -6 -7 -11q-8 -15 -24 -32t-27 -24q-5 -3 -11 -5.5t-11 -5.5q-4 -2 -7 -4.5t-7 -4.5q-5 -3 -11 -6.5t-13 -5.5t-24.5 -6.5t-28.5 -6.5q-6 -1 -12 -1t-12 -1q-9 -2 -17.5 -4t-17.5 -4
t-20 -2h-42q-23 0 -44 4.5t-28 6.5q-9 3 -17.5 8t-18.5 8q-14 5 -23 9t-20 11q-3 2 -6 3.5t-6 3.5q-8 5 -16 8.5t-16 9.5q-6 5 -11 11.5t-11 12.5q-3 4 -6.5 7t-6.5 7q-11 12 -19.5 29t-11.5 26q-1 3 -3.5 9.5t-5 14.5t-5 14.5t-3.5 9.5q-3 5 -6 10.5t-5 10.5
q-5 14 -9.5 37.5t-4.5 64.5q0 4 1 16.5t1 16.5v28zM338 305q-2 0 -9 -1.5t-14.5 -3t-14 -3t-7.5 -1.5q-14 -5 -21.5 -18t-7.5 -26q0 -4 4.5 -13.5t5.5 -11.5q6 -6 16 -10.5t20 -7.5t18.5 -4.5t10.5 -1.5q7 0 23 3.5t25 8.5q8 4 17.5 13t9.5 26q0 15 -9.5 26t-20.5 15
q-3 1 -7 1.5t-7 1.5q-4 1 -12 5q-2 1 -10 1.5t-10 0.5z" />
    <glyph glyph-name="seven" unicode="7" horiz-adv-x="562" 
d="M290 702l18 2t18 3q8 1 17 1.5t18 0.5q4 0 16 -0.5t25.5 -1.5t26 -1.5t17.5 -0.5h10t10 1q3 0 15 2t16 2q17 0 26.5 -4.5t14 -11.5t6 -15.5t1.5 -15.5v-11t-0.5 -16.5t-0.5 -16.5v-11q0 -6 0.5 -12t0.5 -11q0 -20 -4.5 -33.5t-16.5 -40.5q-4 -7 -7 -14t-7 -15
q-4 -7 -8.5 -13.5t-7.5 -14.5l-4 -10l-4 -10q-2 -7 -6 -13.5t-6 -13.5q-2 -6 -4 -12.5t-4 -12.5q-3 -9 -8.5 -17t-10.5 -17q-3 -5 -8.5 -17t-11.5 -26t-11 -27.5t-7 -20.5q-5 -14 -9 -27.5t-9 -27.5q-2 -6 -4.5 -12t-4.5 -11q-6 -14 -10 -28.5t-9 -28.5q-3 -11 -4.5 -17.5
t-2.5 -12t-1 -13v-19.5t-6 -26t-7 -16q-10 -14 -21 -17t-37 -3q-10 0 -19.5 1t-20.5 2h-64q-4 0 -18 -1t-19 -1q-23 0 -36 2t-21 7q-25 15 -25 58q0 5 0.5 8.5t3.5 9.5t9 15.5t17 26.5q11 16 19.5 34t15.5 33q8 18 14 34q2 8 4 15.5t5 15.5q4 13 10.5 24.5t11.5 23.5
q3 8 6 14.5t6 14.5l4 8t7 13t7 13.5t4 9.5q3 8 4.5 15.5t4.5 15.5q1 3 5 9.5t8 14t7 14.5t3 10q0 12 -7.5 14t-12.5 2q-3 0 -11 -0.5t-17.5 -1t-18 -1t-11.5 -0.5t-12 0.5t-12 0.5q-2 0 -9.5 -0.5t-9.5 -1.5h-23q-2 0 -10.5 -0.5t-11.5 -0.5q-9 0 -19 6q-6 5 -8.5 8t-9.5 15
q-2 3 -4.5 6.5t-4.5 6.5q-4 11 -4 24v9.5t1 9.5q0 10 0.5 23.5t0.5 24.5q0 5 -0.5 11t-0.5 11q-1 4 -2 17t-1 17v9t2 8q1 3 2.5 6t3.5 6l3 6q3 6 10.5 11.5t26.5 5.5q2 0 8 -0.5t12.5 -1t12.5 -1t9 -0.5q4 0 15 0.5t24 1t24 1t16 0.5q20 0 41 -3q10 -1 20 -2.5t20 -2.5h21z
" />
    <glyph glyph-name="eight" unicode="8" horiz-adv-x="667" 
d="M283 -11q-21 0 -41.5 4t-31.5 8t-31 11.5t-32 14.5q-1 0 -6.5 3.5t-12 8t-12 8l-5.5 3.5q-5 4 -9 8t-8 9q-5 5 -11.5 10t-11.5 10q-11 12 -20 24t-15 22.5t-9.5 18t-3.5 8.5q-2 5 -2.5 11t-2.5 11q-1 5 -2.5 10.5t-2.5 10.5q-1 6 -1.5 11.5t-0.5 11.5t0.5 12t1.5 11
l3.5 14t6 20.5t6.5 19t4 10.5q7 16 17.5 28t21 20t19 12.5t11.5 5.5q9 3 16 6.5t7 9.5q0 4 -3 8t-6 7q-4 3 -7.5 5t-6.5 5q-5 3 -14.5 14t-14.5 24l-4 10l-4 10q-8 18 -9.5 24t-1.5 20q0 17 0.5 28t2 18.5t5 14t8.5 14.5q3 4 6 7.5t5 8.5q5 7 9 14.5t9 14.5q2 2 4.5 5t5.5 5
q8 6 11 10q5 4 8 8.5t7 9.5q5 5 11 9t12 7q15 7 38 12.5t45.5 9.5t40.5 6t22 2t8 -0.5t9 -0.5q20 0 28 -0.5t17 -2.5q8 -2 10.5 -2t10.5 -1q3 0 11.5 -1t17.5 -2t17 -2t9 -1q8 -2 16.5 -5.5t16.5 -6.5q12 -5 23.5 -9t21.5 -11q2 -2 7 -6t11 -8.5t11.5 -9.5t8.5 -8
q5 -6 9.5 -12.5t9.5 -12.5q13 -17 16.5 -22t5.5 -13q0 -1 1.5 -10t3.5 -20t3.5 -21t1.5 -11q0 -2 -0.5 -6.5t-1.5 -6.5v-10q-1 -6 -5 -17t-10.5 -23t-14.5 -23t-16 -18q-6 -4 -9 -7q-9 -7 -9 -15q0 -2 1.5 -6t12.5 -9q11 -6 14.5 -8t8.5 -6q10 -8 14 -11.5t13 -15.5
q3 -4 6.5 -7t6.5 -7q13 -15 19.5 -35t7.5 -24q0 -2 1 -8.5t1.5 -14t1.5 -14.5t1 -9q0 -3 -0.5 -12t-2.5 -19q-2 -5 -3.5 -11t-3.5 -11q-1 -5 -1.5 -9t-2.5 -9q-3 -11 -10 -25.5t-12 -21.5l-5.5 -6t-12 -13.5t-12.5 -14.5t-9 -9q-4 -4 -8 -7t-9 -7l-15 -12q-9 -8 -25 -13
q-7 -3 -13.5 -5.5t-12.5 -4.5q-8 -4 -16.5 -7.5t-16.5 -6.5q-20 -8 -37 -11q-4 0 -15.5 -1t-24.5 -2t-24 -1.5t-13 -0.5t-8.5 0.5t-13.5 1t-13 1t-9 0.5h-20zM311 546q-17 0 -33.5 -13.5t-16.5 -36.5q0 -14 7.5 -24.5t21.5 -14.5q5 -1 10 -1t10 -1q2 -1 11.5 -3.5t12.5 -2.5
q9 0 21 4t20 8q5 2 14 10.5t9 28.5q0 11 -5.5 18.5t-12 12.5t-12.5 7.5t-7 2.5t-8.5 1t-16.5 2t-16.5 1.5t-8.5 0.5zM412 250q0 7 -3.5 16t-6.5 14q-5 9 -20 15t-24 8q-5 1 -9 1t-8 1q-2 0 -9.5 1t-9.5 1q-11 0 -25 -5t-22 -11q-11 -8 -18 -20t-7 -23q0 -12 7.5 -22.5
t12.5 -13.5q3 -2 9 -4q3 -2 5.5 -3.5t5.5 -3.5q0 -1 12 -4.5t22 -3.5q2 0 10 1t18.5 3t20 4t14.5 5q14 8 19.5 21.5t5.5 22.5z" />
    <glyph glyph-name="nine" unicode="9" 
d="M313 717q2 0 7 0.5t7 0.5q4 0 16 -1t16 -1q16 -1 25 -1.5t24 -4.5q9 -2 15 -3.5t12 -4t13 -5.5t19 -9q10 -5 20.5 -9.5t19.5 -11.5q5 -4 9.5 -8t9.5 -9q3 -2 6.5 -5t6.5 -5q13 -11 27 -30q5 -6 12 -20.5t11 -22.5q3 -7 5.5 -14t5.5 -15q5 -12 10.5 -23t9.5 -24l4 -16
l4 -16q3 -11 5.5 -19t3.5 -14.5t1.5 -14t0.5 -18.5q0 -4 -1 -16.5t-1 -16.5t1 -16.5t1 -17.5q0 -7 -1 -21.5t-3 -26.5q0 -1 -2.5 -10t-5 -20t-5 -20t-2.5 -10q-3 -9 -8 -20q-4 -7 -8 -13t-7 -13q-3 -6 -5.5 -12.5t-4.5 -13.5q-4 -8 -8 -14.5t-9 -12.5q-2 -2 -8.5 -9t-8.5 -9
l-4 -6t-4 -5q-3 -4 -7 -7.5t-7 -5.5q-5 -4 -9.5 -7t-9.5 -7q-6 -4 -11.5 -8.5t-10.5 -8.5l-24 -12q-7 -4 -13.5 -8t-13.5 -8q-16 -8 -24 -10.5t-16 -4.5q-7 -2 -13 -4l-12 -4q-11 -3 -28 -4t-36 -2t-38.5 -0.5t-35.5 0.5h-14q-8 0 -13.5 0.5t-11.5 1.5t-14.5 3t-21.5 5
q-7 2 -13.5 3t-14.5 3q-26 5 -42.5 10.5t-16.5 25.5q0 3 0.5 10t0.5 15.5t0.5 16t0.5 10.5v12t-1 12q-1 8 -2 16.5t-1 16.5q0 50 45 50q10 0 23 -4q12 -4 23 -10t24 -9q9 -3 20 -3q3 0 14 1t14 1t9 -0.5t12.5 -1t12.5 -1t9 -0.5q5 0 12.5 1t15.5 2q16 2 21 3t14 6
q14 7 24.5 14t10.5 22q0 13 -6.5 17t-9.5 4q-1 0 -8.5 -2t-15.5 -5t-15 -5l-7 -2q-23 -6 -45 -6q-3 0 -21.5 1.5t-42.5 5t-48 9.5t-37 16q-6 6 -10 8q-5 4 -10.5 6t-10.5 6q-2 2 -4 3.5t-4 3.5t-5 4.5t-5 4.5l-5 5.5t-10.5 12.5t-10.5 12.5t-6 6.5q-5 7 -7.5 14.5t-6.5 15.5
q-3 8 -7 14.5t-7 13.5q-8 19 -9.5 38.5t-1.5 22.5q0 1 1 12t2 23.5t2.5 23t1.5 12.5q2 7 5.5 19t6.5 18q2 5 5.5 10.5t5.5 10.5q2 3 8 12.5t11 17.5q7 10 11 16t7 9.5t7 6.5t10 7q6 5 12.5 8.5t13.5 8.5q11 8 21.5 16t23.5 13q10 4 20.5 5.5t20.5 4.5l12 4l12 4q3 1 11 2.5
t17.5 3t18 2.5t12.5 1q2 1 8 0.5t8 0.5q2 0 9 -0.5t9 -0.5zM310 509q-2 0 -9 -0.5t-9 -0.5q-4 0 -8.5 -2t-9.5 -4l-10 -5q-9 -5 -17 -15t-8 -27q0 -7 3.5 -16t17.5 -19q13 -8 24 -9.5t26 -1.5q11 0 22 0.5t21 5.5q13 5 21.5 16.5t8.5 25.5q0 4 -1 10.5t-9 14.5
q-5 5 -13 10.5t-10 6.5t-7.5 3t-12.5 3.5t-12.5 2.5t-7.5 1z" />
    <glyph glyph-name="colon" unicode=":" horiz-adv-x="354" 
d="M239 573q17 0 32.5 -6.5t21.5 -22.5q1 -3 2 -9.5t1 -20.5v-7.5t-0.5 -12t-0.5 -12v-8.5q0 -2 1 -12.5t1 -14.5q0 -2 -1.5 -12.5t-1.5 -13.5t0.5 -10.5t0.5 -16.5t0.5 -17t0.5 -11q0 -35 -11.5 -44t-35.5 -9q-4 0 -16.5 0.5t-17.5 0.5q-2 0 -12.5 -0.5t-13.5 -0.5
t-15.5 1.5t-17.5 1.5q-3 0 -9.5 -0.5t-14.5 -1t-15 -1t-10 -0.5q-5 0 -14 0.5t-18.5 5t-16.5 14t-7 26.5q0 9 1 18t3 18v15q0 4 -0.5 16t-1 25t-1 25t-0.5 17v21t2 19t5.5 16.5t11.5 12.5q2 2 11 6t13 5h16q3 0 11 -2q3 0 12 -0.5t19.5 -0.5h20h14.5h10.5t10.5 1q8 0 15 1
t15 1zM218 252q23 0 40.5 -3t28.5 -20q4 -6 6 -13.5t3 -19.5t0.5 -31t-0.5 -50v-9.5t0.5 -14t0.5 -14v-9.5q0 -8 -0.5 -14t-2.5 -16t-9 -23t-30 -14q-2 0 -10.5 -0.5t-18.5 -0.5h-19h-12q-4 0 -16.5 1t-16.5 1q-3 0 -10.5 -0.5t-16 -0.5t-16 -0.5t-10.5 -0.5t-10 0.5
t-15 2.5t-15.5 7.5t-11.5 14.5q-1 1 -4 14.5t-3 21.5q0 4 0.5 14.5t1 22.5t1 22.5t0.5 14.5q0 14 -1 28.5t-1 28.5q0 16 1.5 25.5t3.5 14.5t5.5 7.5t8.5 4.5q10 5 19.5 7t25.5 2q3 0 12 -0.5t19.5 -0.5t19.5 -0.5t13 -0.5q10 0 19.5 0.5t19.5 0.5z" />
    <glyph glyph-name="semicolon" unicode=";" horiz-adv-x="354" 
d="M150 568h10.5h15.5t15.5 0.5t10.5 0.5q4 1 17 2t17 1q24 0 37 -5.5t19 -16t7.5 -25t1.5 -31.5q0 -2 -0.5 -8t-0.5 -12.5t-0.5 -12.5t-0.5 -9t0.5 -11t1 -17.5t1 -18t0.5 -11.5q0 -14 -0.5 -28.5t-4.5 -26.5t-13 -19.5t-25 -7.5q-3 0 -13.5 0.5t-13.5 0.5q-4 0 -15 -0.5
t-23.5 -0.5t-24 -0.5t-16.5 -0.5q-4 0 -17.5 1t-18.5 1q-2 0 -11 -0.5t-11 -0.5q-17 0 -26.5 7t-14 16t-5 18t-0.5 13q0 3 0.5 11.5t1 18.5t1 18.5t0.5 12.5t-0.5 16.5t-1 26.5t-1 26.5t-0.5 17.5q0 4 1 13.5t5.5 19.5t15 17t29.5 7q3 0 10 -0.5t15 -1t15 -1t10 -0.5z
M162 -110q-2 0 -10 -1t-10 -1q-12 0 -16 7t-4 13q0 2 2.5 9.5t2.5 9.5q2 5 2 9t1 9q2 5 4.5 10.5t4.5 10.5q1 3 2 7.5t1 5.5q0 7 -5 14q-4 5 -7.5 6.5t-9.5 1.5q-5 0 -10 -0.5t-10 -0.5q-7 0 -22.5 4.5t-21.5 17.5q-2 4 -4.5 16.5t-2.5 24.5q0 3 0.5 10.5t1 16t1 16.5
t0.5 11q0 4 -0.5 14t-1.5 21.5t-1.5 22t-0.5 14.5q0 38 15 49q7 5 21 8t25 3q5 0 20.5 -1t20.5 -1q14 0 27 1t27 1q3 0 15.5 -0.5t16.5 -0.5q11 -1 24 -1.5t20 -5.5q14 -8 18.5 -25t4.5 -26q0 -7 -0.5 -13t-1.5 -12q-1 -13 -1.5 -25t-0.5 -24q0 -5 0.5 -17.5t1.5 -27
t1.5 -27.5t0.5 -18q0 -8 -1 -24t-7 -30q-2 -4 -4.5 -7.5t-4.5 -8.5t-3.5 -10t-3.5 -10q-6 -8 -8 -12q-3 -4 -5.5 -8t-4.5 -9q-7 -11 -15.5 -15.5t-21.5 -4.5q-3 0 -14 1.5t-15 1.5h-33z" />
    <glyph glyph-name="question" unicode="?" horiz-adv-x="604" 
d="M341 710q11 0 21.5 -1t30.5 -5q7 -1 11.5 -2t8.5 -2t8.5 -3.5t12.5 -6.5q7 -3 13 -5.5t13 -5.5q21 -9 32 -16.5t24 -18.5q15 -13 23.5 -22t14.5 -17.5t10.5 -19.5t10.5 -28q5 -15 8 -24.5t4.5 -17.5t1.5 -17v-24v-12t-1 -11q-2 -14 -8 -27.5t-9 -17.5q-2 -4 -4.5 -7
t-4.5 -6q-5 -6 -7.5 -13t-6.5 -13q-1 -1 -12.5 -14.5t-23.5 -24.5q-18 -16 -29.5 -28.5t-17.5 -24t-8 -23t-2 -24.5q-1 -26 -8 -36.5t-34 -10.5q-2 0 -8.5 0.5t-8.5 0.5h-16q-8 0 -15 0.5t-15 0.5q-2 0 -11 -0.5t-11 -0.5q-3 0 -12.5 1.5t-12.5 1.5q-3 1 -13 1h-14t-16.5 -1
t-16.5 -1q-11 0 -17 3.5t-11 7.5q-5 5 -8 10.5t-3 18.5v11t0.5 14t1 13.5t1.5 10.5q1 5 2.5 8.5t2.5 8.5t1 8.5t2 7.5q1 2 5 7.5t8.5 11t8 10t3.5 5.5q2 3 3 6.5t3 6.5q2 2 6.5 8t9.5 11q4 4 8 7t8 7q16 15 25.5 29.5t9.5 29.5q0 5 -4 13t-6 10q-3 4 -10 6t-14 2
q-11 0 -20 -4t-15 -9l-7 -7q-2 -2 -5 -3.5t-5 -3.5q-8 -5 -11 -11t-7 -15q-7 -17 -19.5 -31t-26.5 -14q-5 0 -12.5 3t-14.5 7t-12.5 7.5t-6.5 5.5q-3 3 -5.5 6t-5.5 6q-3 4 -15.5 14t-19.5 15q-5 4 -11 7t-11 8q-4 4 -7 8.5t-8 8.5q-2 2 -4 3.5t-4 3.5q-9 8 -9 21
q0 11 2.5 19t12.5 26q2 5 6 10t7 10q5 7 8.5 14t8.5 13q6 8 13 14t14 13q3 3 6 6.5t6 6.5q13 14 23 23.5t21 15.5q1 1 7 4t13.5 6.5l15 7t11.5 4.5t18.5 3.5t19.5 3.5q9 2 15 3t11 1.5t12.5 0.5h19.5q3 0 10 0.5t15.5 1t16.5 1t11 0.5zM285 153h9.5t14 0.5t14 0.5h9.5l11 -1
q1 0 12 -1t13 -1t8 0.5t13 1t12.5 1l5.5 0.5q3 0 14.5 -3t15.5 -3q6 -1 7.5 -1.5t6.5 -3.5q6 -6 9 -10t3 -13q0 -2 -0.5 -8t-0.5 -8q0 -3 0.5 -10t1 -14.5t1 -14.5t0.5 -10q0 -21 -5.5 -32t-14 -16.5t-17 -6.5t-14.5 -1q-5 0 -10.5 0.5t-10.5 0.5q-12 1 -26 1.5t-26 1
t-20.5 0.5h-8.5q-3 0 -10 -0.5t-14.5 -1t-14.5 -1t-10 -0.5q-26 0 -44 5.5t-18 31.5q0 3 1 13t1 13v46q0 2 -1 7.5t-1 7.5q0 1 1 6t5 10.5t10.5 9.5t17.5 4q2 0 10.5 -0.5t10.5 -0.5h29z" />
    <glyph glyph-name="A" unicode="A" horiz-adv-x="771" 
d="M0 42q0 14 3 23.5t11 30.5q5 11 10 32t16 66q3 16 9 31q5 15 10 29t9 29q5 21 8.5 43t9.5 43q5 17 11.5 33t12.5 33q2 5 3.5 11t3.5 12l4 18l4 18q1 4 6 17t10.5 27.5t10 27t5.5 14.5q3 8 5 17l4 18q3 8 6 17l6 18q5 12 10 23.5t17 19.5q16 11 29 12.5t26 1.5
q4 0 14 -0.5t21.5 -0.5t22 -0.5t14.5 -0.5h14t18.5 0.5t18 1t13.5 0.5q2 0 14 1t14 1q3 0 12.5 -0.5t20 -1.5t19.5 -1.5t13 -0.5t16.5 0.5t16.5 0.5q11 0 27 -2.5t23 -6.5q6 -4 14.5 -13t13.5 -17q1 -3 4 -10.5t6 -16t5 -17t3 -13.5q1 -8 5 -19l4 -18t4 -17q3 -11 9 -30
t12 -35q4 -11 6.5 -18t4 -14t3 -15.5t3.5 -21.5q1 -10 2.5 -17.5t3.5 -15.5t5 -19t8 -28q3 -12 6 -24.5t7 -24.5q4 -17 9 -30q3 -7 5.5 -13.5t4.5 -13.5q2 -8 5.5 -17t5.5 -17t4 -17l4 -18l4 -14l4 -14q1 -2 4 -10.5t4 -10.5q0 -1 1.5 -7.5t4 -14.5t4 -14.5l1.5 -6.5
q2 -10 2 -15q0 -50 -47 -59q-4 0 -7 -0.5t-7.5 -0.5h-11.5h-19q-3 0 -12 -0.5t-19 -1t-19 -1t-13 -0.5q-2 0 -8.5 0.5t-13.5 1.5q-8 0 -14 0.5t-9 0.5q-2 0 -10.5 -0.5t-10.5 -0.5q-13 0 -21 1.5t-13.5 5.5t-9 10.5t-8.5 17.5q-14 31 -24 40.5t-30 9.5q-4 0 -18 -2t-19 -2
q-4 -1 -8 -1h-8t-13.5 0.5t-20 1.5t-20 1.5t-13.5 0.5q-13 0 -25.5 -4.5t-19.5 -14.5q-1 -2 -3.5 -7.5t-5.5 -11.5t-5.5 -12t-3.5 -8q-11 -18 -22 -21.5t-19 -3.5q-3 0 -10.5 0.5t-15.5 0.5t-15.5 0.5t-10.5 0.5h-10t-15 -0.5t-15.5 -0.5h-10.5t-14.5 0.5t-14.5 0.5
q-4 0 -17.5 -1t-17.5 -1q-3 0 -11 1t-16.5 5t-15.5 12.5t-7 23.5zM385 467q-8 0 -13 -5t-11 -21q-4 -9 -6 -16t-7 -31q-1 -3 -3.5 -11.5t-5 -18.5t-4.5 -18.5t-2 -12.5q0 -19 18 -24q5 -1 9.5 -1h23.5q2 0 11.5 -0.5t12.5 -0.5q27 0 27 21q0 4 -2 12q-2 7 -3 13.5t-3 12.5
q-2 8 -3 16t-3 16q-2 5 -3.5 10t-3.5 10q-3 8 -5 16t-5 16q-2 5 -5 11t-14 6z" />
    <glyph glyph-name="B" unicode="B" horiz-adv-x="750" 
d="M39 464q0 9 -1.5 33t-3.5 44q0 10 -0.5 19.5t-0.5 20.5q0 34 2.5 54.5t7.5 31.5t12.5 17t18.5 12q6 4 15.5 7t32.5 3q1 0 5.5 -0.5t9 -0.5t8.5 -0.5t5 -0.5q6 -1 12 -1h12q14 0 29 0.5t29 2.5q10 1 18 1.5t10 0.5q3 0 11 -0.5t17 -1t17.5 -0.5h11.5h44q3 0 10 0.5t15.5 1
t16 1t10.5 0.5q22 0 38 -1t29 -2.5t24 -4t23 -5.5q11 -3 18 -5t13 -4t13 -5t17 -7q6 -3 23.5 -16.5t37.5 -35.5q17 -20 26 -36t14 -30q2 -7 3 -13t2 -11l1 -20v-12v-4l-1 -11q-1 -8 -1.5 -15.5t-3.5 -15.5q-10 -21 -18.5 -32t-14.5 -17q-4 -4 -7.5 -6.5t-8.5 -7.5
q-3 -3 -5.5 -6t-2.5 -6q0 -2 2.5 -4.5t16.5 -10.5q8 -5 12.5 -8t16.5 -14q14 -12 24.5 -30t17.5 -37t10.5 -37t3.5 -31q0 -20 -4 -31.5t-12 -30.5l-12 -30q-8 -17 -17.5 -28.5t-24.5 -25.5q-14 -13 -22 -20t-22 -12q-4 -2 -7.5 -3t-7.5 -3q-5 -2 -10 -5t-10 -5
q-17 -8 -45.5 -11.5t-48.5 -3.5q-4 0 -15 0.5t-23 1t-23.5 1t-15.5 0.5q-5 0 -17.5 -0.5t-27 -1t-27.5 -1t-18 -0.5t-18.5 0.5t-28.5 0.5t-28 0.5t-19 0.5q-3 0 -12 -0.5t-19.5 -0.5t-19.5 -0.5t-13 -0.5t-18 0.5t-19 0.5q-4 0 -17 -1t-18 -1q-35 0 -50.5 16t-15.5 45
q0 5 1.5 17.5t3.5 22.5q2 14 3 28.5t1 29.5q0 3 -0.5 12t-1 19.5t-1 20t-0.5 13.5q0 13 1 25.5t1 25.5v9t-0.5 13.5t-0.5 14v9.5v32q0 11 -0.5 22.5t-0.5 22.5q0 4 0.5 13.5t1 20t1 20.5t0.5 14zM299 471q0 -11 4 -16.5t9.5 -8t11.5 -3t10 -0.5q8 0 15 0.5t15 0.5q4 0 17 -1
t17 -1q18 0 31 9t13 25q0 14 -10 21.5t-21 10.5q-2 0 -8 1t-13.5 2t-15.5 2t-12 1h-6q-6 -1 -14 -2t-14 -3q-22 -8 -25.5 -20t-3.5 -18zM466 248q0 18 -12 26t-18 10q-3 1 -10 2.5t-14.5 2.5t-14.5 1.5t-10 0.5h-3q-5 -1 -11 -2t-8 -2h-26q-21 0 -30 -10t-9 -24
q0 -16 5.5 -24.5t13 -12.5t16.5 -5t15 -1l15 1l12 2l12 2h4q2 0 11 -0.5t12 -0.5q2 0 13 0.5t18 3.5q8 4 13.5 12t5.5 18z" />
    <glyph glyph-name="C" unicode="C" horiz-adv-x="542" 
d="M68 145q-5 7 -12 17t-14 25.5t-13 37.5t-9 54q-1 8 -1.5 17t-2.5 17q-4 29 -5 38.5t-1 17.5t1 21t2.5 26.5t3 25.5t3.5 20q4 13 9.5 24.5t10.5 23.5q5 11 8.5 21.5t8.5 21.5q4 9 9.5 18t11.5 17q7 9 12 15t12 12t17.5 14t27.5 21q16 12 26.5 19.5t21.5 12.5t25.5 9
t40.5 10q27 6 45.5 9t47.5 3h30t34 -1t33 -3.5t27 -6.5q4 -2 15.5 -7.5t15.5 -15.5q1 -3 1 -14v-19q0 -3 -0.5 -12.5t-1.5 -20t-1.5 -20.5t-0.5 -14v-7q0 -5 1.5 -16t2.5 -23t2 -23.5t1 -15.5q0 -20 -4 -31.5t-10.5 -17t-14 -7t-14.5 -1.5q-4 0 -19 1.5t-20 1.5
q-4 0 -17 -1.5t-18 -1.5l-19 1h-9q-24 -2 -35.5 -7t-17.5 -9q-8 -6 -21 -20.5t-13 -46.5q0 -13 4 -24q2 -7 8 -20.5t11 -19.5q7 -9 19 -14.5t24.5 -9t23 -4.5t14.5 -1q10 0 30.5 4t34.5 5h4h3q35 0 47.5 -15t12.5 -53v-10.5t-0.5 -16.5t-0.5 -17v-11q0 -14 0.5 -26.5
t1.5 -26.5q2 -13 2 -19v-13q0 -9 -1.5 -16.5t-6.5 -14.5q-6 -10 -20 -19.5t-28 -11.5q-3 0 -9.5 -0.5t-14 -1t-14.5 -1t-10 -0.5q-11 -2 -22 -2.5t-31 -0.5q-5 0 -21.5 2t-33.5 6q-14 3 -29.5 4t-30.5 4q-12 2 -24 5.5t-24 8.5q-17 7 -40 19.5t-51 47.5q-6 8 -12 15.5
t-12 15.5q-4 6 -8 11.5t-9 10.5z" />
    <glyph glyph-name="D" unicode="D" horiz-adv-x="750" 
d="M40 498v10v15.5t-0.5 16t-0.5 10.5q0 4 -0.5 16.5t-1 26t-1 26t-0.5 17.5q0 11 2 23.5t8.5 23t18.5 17.5t33 7q3 0 10.5 -0.5t16.5 -1t16.5 -1t10.5 -0.5q7 0 11.5 0.5t20.5 2.5q5 1 16 1.5t28 0.5q21 0 42 -1l42 -2h51q40 -1 71.5 -8.5t38.5 -9.5q1 0 8 -3t15.5 -7
t15.5 -7t8 -4q8 -4 15.5 -8.5t15.5 -9.5t15 -8t15 -7q33 -16 52.5 -36t29.5 -35q3 -5 5.5 -9t5.5 -9q5 -8 11 -14t12 -14q12 -17 20 -37.5t12.5 -41t6 -38.5t1.5 -28q0 -1 -0.5 -11.5t-1 -25.5t-2 -31t-4.5 -29t-5.5 -22t-10.5 -30q-7 -20 -11 -31t-9 -19.5t-12 -17
t-19 -21.5q-5 -7 -10.5 -14t-11.5 -13q-16 -16 -33 -26q-3 -2 -11.5 -6t-18.5 -8.5t-18.5 -9t-12.5 -5.5q-11 -6 -22 -11.5t-22 -10.5q-20 -8 -39 -11.5t-52 -8.5q-25 -3 -40 -5t-25 -3t-17.5 -1.5t-16.5 -0.5q-6 0 -20.5 0.5t-31.5 1.5t-32.5 1.5t-21.5 0.5q-5 0 -17.5 -1
t-27 -1.5t-27.5 -1.5t-19 -1q-20 0 -38.5 5t-29.5 22q-7 10 -8 18t-1 27q0 8 0.5 13t2.5 22q2 12 2.5 21t0.5 18q0 11 -1 23t-1 23v10.5t0.5 16.5t0.5 17v11q0 11 -1 24l-2 26q-2 24 -3 48t-1 48q0 25 0.5 41.5t1.5 27.5q2 20 2 25.5v11.5zM343 446q-8 0 -14.5 -4t-10.5 -9
q-4 -6 -6 -14.5t-3 -16.5t-1 -14.5v-8.5q0 -5 1 -20.5t2 -20.5q0 -4 -0.5 -16.5t-0.5 -16.5q0 -13 1.5 -20t2.5 -9q4 -7 11.5 -12t16.5 -5q1 0 14 2.5t17 3.5q13 3 26.5 4.5t25.5 7.5q9 5 19 15q14 14 18 28.5t4 37.5q0 17 -4 27t-12 23q-14 20 -35.5 26t-38.5 8
q-7 1 -16.5 2.5t-16.5 1.5z" />
    <glyph glyph-name="E" unicode="E" horiz-adv-x="604" 
d="M453 447q3 0 10 0.5t15 1t15 1t10 0.5q29 0 40 -7.5t14 -36.5q1 -3 0.5 -15t-0.5 -16q0 -3 0.5 -12t1.5 -19t1.5 -19t0.5 -13q0 -27 -9.5 -33.5t-20.5 -8.5q-3 -1 -12 -0.5t-12 0.5q-2 0 -8 -0.5t-8 -1.5q-1 0 -15.5 -0.5t-31.5 -0.5t-32 -0.5t-16 -0.5q-3 0 -9 0.5
t-13.5 0.5t-13.5 0.5t-9 0.5t-9.5 -0.5t-13 -2.5t-11.5 -6.5t-5 -12.5q0 -12 6.5 -18t15.5 -9t19.5 -3.5t19.5 -0.5q5 0 12.5 0.5t21.5 2.5q7 2 17.5 2h25.5q4 0 18 0.5t19 0.5q14 -1 22.5 -1t22.5 1q19 0 25.5 -3.5t10.5 -8.5q6 -7 12 -17.5t6 -33.5q0 -4 -0.5 -16.5
t-0.5 -16.5q0 -3 0.5 -10.5t0.5 -16.5t0.5 -17t0.5 -11q0 -41 -10 -56t-42 -15q-3 0 -12 0.5t-19.5 1t-19.5 1t-13 0.5q-10 0 -38 -3q-14 -2 -28.5 -2.5t-25.5 -0.5q-5 0 -16 0.5t-24 1.5q-15 1 -28.5 1.5t-27.5 0.5t-31 -1t-39 -2q-3 0 -12 0.5t-20 0.5q-16 2 -30 1.5
t-35 -2.5q-13 -1 -21 -1.5t-13 -0.5q-18 0 -28 4.5t-14.5 12t-5.5 16t-1 16.5q0 3 0.5 9t1 13t1 13t0.5 9q0 6 0.5 22t1 34t1 34t0.5 22q0 3 1 12t1.5 18.5t1 18.5t0.5 13q0 26 -3 52q-2 12 -2 19v29q-1 7 -1 11v11q-1 5 -1 9v14q0 3 -0.5 12t-1 19t-1 19t-0.5 13
q0 15 1.5 30t2.5 31q1 7 1 14v15q0 12 -0.5 24.5t-1.5 24.5q-1 8 -1.5 15t-0.5 15q0 41 19 54t45 13q5 0 20.5 -1.5t20.5 -1.5q13 0 30.5 0.5t30.5 0.5q3 0 11 0.5t17 0.5t17.5 0.5t11.5 0.5h10t10 -1q3 -1 5.5 -1.5t5.5 -0.5q4 0 7 1h6h5.5t8.5 -1q5 0 8.5 -0.5t5.5 -0.5
h4.5t6.5 1h11h5t7 -1q4 0 7 -0.5t5 -0.5h4t10 1q1 0 8.5 1t17 1.5t17 1t8.5 0.5q3 0 13 -0.5t13 -0.5h23q2 0 10.5 -0.5t10.5 -0.5q7 0 15 -0.5t13 -2.5q9 -5 14 -13.5t7 -17.5t2.5 -17t0.5 -12q0 -9 -0.5 -18.5t-0.5 -18.5q0 -3 0.5 -11t1.5 -17t1.5 -17t0.5 -11
q0 -6 -1 -16t-7 -21q-5 -11 -11.5 -14t-16.5 -3q-3 0 -13 0.5t-14 0.5t-18.5 -0.5t-19.5 -0.5q-3 0 -9.5 0.5t-14.5 1.5t-14.5 1.5t-9.5 0.5t-9 -0.5t-12.5 -1t-12.5 -1t-9 -0.5q-4 0 -16.5 1t-16.5 1q-12 0 -25 -3t-13 -20q0 -22 16 -25.5t54 -3.5q5 0 18.5 1.5t18.5 1.5
q2 0 11 -0.5t12 -0.5h21z" />
    <glyph glyph-name="F" unicode="F" horiz-adv-x="562" 
d="M44 523q0 3 -0.5 12t-1 19t-1 19t-0.5 13q-1 4 -0.5 18t0.5 19q0 3 -1.5 14t-1.5 15q0 33 13 44t41 11q2 0 8.5 -0.5t13.5 -0.5t13 -0.5t9 -0.5h8.5t13.5 0.5t13 0.5h9h23.5t23.5 2q3 1 8 1q3 1 16.5 0.5t17.5 -0.5q3 0 9 -0.5t14 -0.5q7 -1 13.5 -1.5t8.5 -0.5h41
q5 0 20.5 -1t20.5 -1q4 0 15 1l22 2q10 1 20 1.5t21 0.5q9 0 21.5 -1t24.5 -6.5t20 -18t8 -34.5v-8.5t-0.5 -13.5t-0.5 -13v-9q0 -1 0.5 -7t0.5 -13t0.5 -13.5t0.5 -8.5q1 -3 1.5 -12t0.5 -12q0 -5 -2 -13.5t-2 -9.5q-5 -13 -20 -18.5t-24 -6.5q-5 -1 -21 -1h-21
q-2 0 -8.5 -0.5t-14 -1t-14 -1t-9.5 -0.5q-4 0 -13.5 1t-20.5 1.5t-21 1.5t-14 1q-12 0 -18 -3.5t-9 -7.5t-3.5 -8.5t-0.5 -5.5q0 -10 4.5 -15t10.5 -7.5t12.5 -3t9.5 -0.5q5 0 20.5 1t20.5 1q14 0 27 -1t27 -1h16q9 1 18 2.5t18 1.5q15 0 22.5 -4.5t11.5 -11t4.5 -13.5
t0.5 -12q0 -3 -0.5 -14.5t-0.5 -15.5t1 -15.5t1 -14.5v-16q0 -5 1.5 -19.5t1.5 -19.5q0 -20 -9.5 -30.5t-11.5 -12.5q-11 -9 -22 -10.5t-36 -1.5q-4 0 -17 -1t-18 -1q-3 0 -12.5 0.5t-12.5 0.5q-21 0 -33.5 -0.5t-20 -2t-11 -3t-6.5 -2.5q-14 -8 -18.5 -24.5t-4.5 -26.5
q0 -8 1 -15t1 -14q2 -12 2 -23.5v-22.5v-32q0 -3 1.5 -14.5t1.5 -14.5q0 -8 -3.5 -16t-4.5 -9q-2 -3 -9.5 -8.5t-16.5 -5.5q-3 0 -14.5 1t-15.5 1q-3 0 -11.5 -0.5t-18 -0.5t-18.5 -0.5t-12 -0.5t-10 0.5t-15.5 0.5t-16 0.5t-10.5 0.5t-9.5 -0.5t-14.5 -1t-15 -1t-10 -0.5
q-17 0 -32 6.5t-20 23.5q-2 5 -2 19v15q0 14 1.5 29t1.5 29q0 3 -0.5 10.5t-0.5 16t-0.5 16t-0.5 10.5q0 4 0.5 15.5t1.5 24t1.5 23.5t0.5 16q0 27 -3 54q-1 15 -1.5 29.5t-0.5 29.5q0 9 1 31.5t2.5 47.5t2.5 47.5t1 31.5z" />
    <glyph glyph-name="G" unicode="G" horiz-adv-x="708" 
d="M10 352q1 11 2.5 21t3.5 21q1 11 1.5 21.5t1.5 21.5q2 11 4 20.5t4 19.5q5 19 14.5 43.5t34.5 51.5q7 8 14 14.5t14 14.5q6 7 12 13.5t13 13.5q14 14 27.5 23t30.5 16q13 6 30 11.5t34 10.5t32 8.5t23 4.5q10 2 26 3.5t33.5 2.5t32.5 1.5t24 0.5h12t19.5 -0.5t19.5 -0.5
h13h69q46 0 64 -8.5t26 -22.5q3 -5 4.5 -9t2.5 -10.5t1 -17.5v-29q0 -5 -1 -19t-1 -19q0 -3 0.5 -12t1 -18.5t1 -18.5t0.5 -13q0 -6 -1 -14.5t-5.5 -16.5t-15.5 -13.5t-30 -5.5h-23.5t-22.5 1q-11 1 -21.5 2t-21.5 1q-5 0 -21.5 -0.5t-21.5 -0.5q-3 0 -11 0.5t-17 1t-17 1
t-11 0.5q-21 0 -33 -5t-29 -15q-9 -5 -20 -12.5t-20.5 -19.5t-15.5 -29.5t-6 -44.5q0 -21 6.5 -35t20.5 -33q23 -28 46 -34.5t46 -6.5q11 0 23 4.5t12 17.5q0 4 -3.5 9.5t-14.5 5.5q-2 0 -9.5 -0.5t-9.5 -0.5t-7 0.5t-10.5 3.5t-10 8.5t-4.5 14.5q0 5 1.5 20t1.5 20t-0.5 20
t-0.5 20q0 16 5 25t11.5 13.5t13.5 5t11 0.5q3 0 12 -0.5t18.5 -1.5t18.5 -1.5t12 -0.5q5 0 9 0.5t9 0.5q5 -1 9 -1q4 -1 7 -1h4q5 0 17.5 -0.5t13.5 -0.5q3 0 11 0.5t17.5 0.5t18 0.5t11.5 0.5q14 0 22.5 -1.5t14 -3.5t9 -5t7.5 -7q9 -11 14 -21t5 -39q0 -4 -0.5 -15
t-1 -23t-1 -23t-0.5 -15q0 -5 0.5 -18t0.5 -28t0.5 -28.5t0.5 -18.5v-11.5t-0.5 -17.5t-0.5 -17.5v-11.5v-33q0 -9 -1 -24.5t-9 -29.5q-10 -17 -24 -22t-30 -5q-3 0 -12 0.5t-20 1.5q-11 0 -20 0.5t-13 0.5q-3 0 -11.5 -0.5t-18 -1t-18 -1t-12.5 -0.5q-3 0 -11 0.5t-17 0.5
q-8 1 -16 1h-12h-7t-11 -1q-5 0 -10.5 -0.5t-7.5 -0.5h-3.5t-5.5 1h-10h-27q-19 0 -48.5 5t-48.5 10q-35 9 -54 21t-37 26q-3 2 -9 6.5t-13 10t-13 9.5t-8 6q-4 3 -13 13.5t-19.5 24t-20 28.5t-15.5 27q-2 5 -4.5 11t-4.5 12q-3 6 -6.5 12.5t-6.5 13.5q-11 25 -14.5 53.5
t-3.5 52.5v11z" />
    <glyph glyph-name="H" unicode="H" horiz-adv-x="771" 
d="M34 250q-1 5 -1 20.5v20.5v7.5t1 8.5q3 28 3 55v7t-0.5 12.5t-0.5 12v6.5v47q0 3 -0.5 12t-0.5 12q0 4 0.5 16.5t0.5 16.5q0 2 0.5 8.5t0.5 13.5t0.5 13.5t0.5 9.5v19t-2 26q-1 11 -2.5 21.5t-1.5 21.5q0 1 0.5 7l1 12t1 11t0.5 6q2 13 12.5 23.5t24.5 10.5q4 0 8 -0.5
t9 -1.5q2 0 7 -0.5t15 -0.5h16.5t16.5 2t10.5 2h5.5q1 0 11 -0.5t22 -1.5t23 -1.5t13 -0.5t7 0.5t11 1.5q6 0 11.5 0.5t7.5 0.5q22 0 30.5 -9t12.5 -16q2 -4 3 -9.5t1 -19.5q0 -2 -1 -8t-2 -12.5t-2 -12.5t-1 -9q0 -2 0.5 -7.5t1 -12t1 -12t0.5 -8.5q0 -4 -0.5 -16.5
t-0.5 -16.5q0 -11 3.5 -18t8.5 -11.5t10 -6.5t7 -3q2 0 12 -1t22 -2t22 -1.5t11 -0.5q5 0 18 2.5t20 5.5q20 8 23.5 21.5t3.5 19.5q0 3 -0.5 10.5t-0.5 16t-0.5 16.5t-0.5 11t0.5 15.5t0.5 16.5q0 2 -0.5 12.5t-0.5 13.5q0 7 2 18t11 21q8 8 16 10t26 2q3 0 15 -1.5t16 -1.5
h4.5t9.5 0.5t9.5 0.5h5.5q3 0 13 1t13 1q4 0 17 -1.5t17 -1.5q2 0 8 0.5t12.5 1t12.5 1t9 0.5q18 0 28.5 -4t16.5 -10.5t7.5 -14.5t1.5 -16q0 -2 -0.5 -8.5t-1.5 -13.5t-1.5 -13.5t-0.5 -9.5q0 -2 0.5 -9t0.5 -9t-0.5 -10t-1.5 -10v-27v-15t1 -15q1 -12 2 -23.5t1 -22.5v-10
t-1 -13q-2 -23 -3 -43.5t-1 -41.5q0 -5 0.5 -17.5t0.5 -26.5t0.5 -27t0.5 -18v-39q0 -3 0.5 -12t1 -19.5t1 -19.5t0.5 -13q0 -3 -0.5 -12t-1.5 -19t-1.5 -19t-0.5 -13q0 -3 1 -10.5t1.5 -16t1.5 -16.5t1 -11q0 -33 -16 -47t-35 -14q-2 0 -7 0.5t-10 0.5q-5 1 -10 1h-7h-9.5
t-9.5 -1q-5 0 -9.5 -0.5t-9.5 -0.5q-2 0 -9 0.5t-15 1.5q-8 0 -15 0.5t-10 0.5t-10 -0.5t-15 -0.5t-15.5 -0.5t-10.5 -0.5q-17 0 -27 4t-15 11.5t-6.5 18t-1.5 22.5q0 8 1 16t1 16q0 4 -2 18t-2 19q0 8 0.5 19t0.5 19v5t-2 10q-2 12 -7 21.5t-17 14.5q-2 1 -8.5 1.5t-13.5 1
t-13.5 0.5h-9.5q-7 0 -12.5 -0.5t-24.5 -3.5q-3 -1 -13.5 -1.5t-13.5 -1.5q-15 -4 -18.5 -16.5t-3.5 -16.5q0 -3 0.5 -12t0.5 -18.5t0.5 -18.5t0.5 -13t-1 -16.5t-1 -17.5q0 -3 1.5 -13.5t1.5 -14.5q0 -5 -1 -14t-5.5 -18t-14.5 -15.5t-28 -6.5q-3 0 -10.5 0.5t-15.5 1.5
q-9 1 -17 1.5t-10 0.5q-3 0 -13.5 -0.5t-14.5 -0.5t-17 0.5t-18 0.5q-3 0 -11 -0.5t-17 -0.5t-17 -0.5t-11 -0.5q-27 0 -40.5 8t-16.5 26v10v15v15.5v10.5v14q0 2 0.5 8.5t1.5 10.5q1 7 1 13v11t-0.5 17t-1 26t-1 26t-0.5 17q0 2 0.5 10.5t0.5 10.5v2z" />
    <glyph glyph-name="I" unicode="I" horiz-adv-x="354" 
d="M39 355q0 14 -1 26.5t-1 26.5q0 12 0.5 23.5t0.5 23.5t-0.5 24t-0.5 23q0 3 0.5 11t1 17t1 17.5t0.5 11.5q0 5 -1 19.5t-1.5 30.5t-1.5 28.5t-1 14.5q0 8 2.5 19.5t7.5 19.5q8 13 21 16t21 3q11 0 23 -2t23 -3q4 0 7 -0.5t7 -0.5q5 0 17 0.5t26 2.5q14 1 26.5 1.5
t17.5 0.5q37 0 50.5 -5.5t21.5 -15.5q9 -11 11 -20.5t2 -17.5q0 -5 -1 -18t-1.5 -27.5t-1.5 -28t-1 -18.5q0 -6 1 -21.5t1.5 -33.5t1.5 -34t1 -23q0 -5 -0.5 -9t-0.5 -8q-1 -16 -2.5 -31t-1.5 -30q-1 -4 -1 -14v-85v-13.5t1 -13.5q0 -5 1 -19.5t1 -18.5q0 -2 0.5 -10
t0.5 -10q0 -1 -0.5 -9.5t-1 -19.5t-1 -21.5t-0.5 -13.5q0 -12 1 -24t3 -24q1 -6 2 -15t1 -10q0 -26 -16.5 -37t-44.5 -11q-4 0 -13.5 0.5t-20 1t-20 1t-13.5 0.5q-5 0 -16.5 -0.5t-25 -1t-25.5 -1t-17 -0.5q-14 0 -27 1t-23.5 6t-17 14t-6.5 26q0 2 0.5 8.5t1 13.5t1 13
t0.5 9v101v16t1 16v8.5t1 14.5q1 9 2 21l-0.5 6.5t-1 15t-1 17.5t-0.5 16v33z" />
    <glyph glyph-name="J" unicode="J" horiz-adv-x="437" 
d="M155 440q0 3 0.5 10.5t0.5 16t0.5 16.5t0.5 11t-0.5 9.5t-0.5 14.5t-0.5 14.5t-0.5 9.5t0.5 11.5t1 18.5t1 18.5t0.5 12.5v9t-1 9q-2 5 -3 10.5t-1 10.5q0 2 -0.5 3t-0.5 2q0 20 4 32t10.5 18t15 8.5t17.5 2.5h10.5t16 -0.5t16 -0.5h10.5q6 0 23 0.5t36 0.5t36 0.5
t24 0.5t10.5 -1t11.5 -3q17 -5 26 -14t9 -35q0 -16 -0.5 -39.5t-1.5 -38.5q-1 -12 -2 -23.5t-1 -22.5q0 -4 0.5 -14.5t1.5 -22t1.5 -22.5t0.5 -15q0 -6 -1 -22.5t-2 -35.5t-2 -35.5t-1 -23.5v-16t1 -16t2 -15.5t2 -15.5q0 -2 -0.5 -10t-0.5 -10q0 -5 0.5 -18.5t0.5 -18.5
v-17.5t-2 -16.5q0 -4 -1 -18t-2 -19q-2 -8 -5.5 -16t-5.5 -16q-2 -9 -3.5 -12l-4.5 -9q-11 -22 -25 -42t-43 -37q-12 -7 -30.5 -13t-60.5 -6q-4 0 -16 0.5t-15 1.5h-24q-4 0 -17.5 0.5t-18.5 0.5q-3 0 -10.5 -0.5t-15.5 -1l-16 -1t-11 -0.5q-20 0 -32.5 5t-16.5 7
q-18 13 -21 32.5t-3 36.5q0 3 0.5 12t0.5 19.5t0.5 19.5t0.5 13q0 3 -0.5 11t-0.5 17t-0.5 17.5t-0.5 11.5q0 14 2 27t4 18q3 8 14 17.5t30 9.5q4 0 18 -1.5t19 -1.5q20 0 31 14t13 31q0 1 0.5 6t1 10.5t1 10.5t0.5 6q0 5 -0.5 10t-1.5 10q-2 16 -2.5 37t-0.5 35z" />
    <glyph glyph-name="K" unicode="K" horiz-adv-x="771" 
d="M37 458q0 3 1 12t1.5 18.5t1 18.5t0.5 13t-1 22t-2 40t-2 42t-1 28q0 26 11 39.5t22 15.5q1 0 7 0.5t13.5 0.5h14h8.5q8 0 16.5 -0.5t16.5 -0.5q3 0 9 0.5t13.5 1t14 1t9.5 0.5h8.5t13.5 -0.5t13.5 -0.5h9.5h26q18 0 28 -4t15 -10t6 -14.5t1 -17.5q0 -1 -1 -9t-2 -13
t-1 -15.5v-19.5q-1 -9 -1.5 -18t-0.5 -18q0 -5 0.5 -19t2.5 -18q3 -5 8.5 -9.5t11.5 -4.5q5 0 11.5 6t13 14.5t12.5 17.5l10 15q6 12 15 24q4 5 8 9.5t7 9.5q1 1 3.5 5t5.5 8.5t5.5 8.5t3.5 6q7 10 10.5 16t12.5 23q6 11 16.5 19.5t39.5 8.5q3 0 10.5 -0.5t16.5 -0.5
t17 -0.5t11 -0.5t9.5 0.5t14.5 0.5t15 0.5t10 0.5q13 0 25.5 -1t25.5 -1q3 0 9.5 0.5t14 0.5t14 0.5t9.5 0.5q14 0 26 -4t12 -28q0 -11 -1.5 -16t-6.5 -17q-6 -14 -8.5 -18l-7.5 -12q-2 -3 -6 -9.5t-9.5 -14.5t-10 -14.5t-6.5 -9.5l-21 -27q-5 -8 -10.5 -16.5t-10.5 -16.5
q-4 -5 -7.5 -10t-6.5 -10q-10 -14 -22 -33t-22 -32q-14 -17 -17 -22t-3 -12q0 -9 5 -17t13 -17q7 -8 14 -18t12 -18l12 -24q9 -17 21 -33q2 -4 9 -13t15.5 -19.5t15.5 -20t10 -13.5q6 -11 11.5 -22t11.5 -22q7 -13 15.5 -25t14.5 -19q14 -18 23 -33.5t9 -33.5q0 -21 -14 -31
t-34 -10q-6 0 -12.5 0.5t-12.5 0.5q-3 1 -15.5 1h-16.5q-3 0 -12 0.5t-19.5 0.5t-19.5 0.5t-13 0.5q-3 0 -9.5 -0.5t-14 -1t-14.5 -1t-10 -0.5h-40q-8 0 -14 1t-15 7q-8 5 -11 9.5l-13 19.5q-2 3 -4.5 6t-4.5 7q-2 3 -7 11.5t-10.5 18.5t-10.5 19t-7 12q-5 8 -11.5 14.5
t-12.5 13.5q-7 8 -12.5 17t-13.5 17q-6 8 -14 14t-18 6q-11 0 -21.5 -10t-13.5 -36q0 -3 -0.5 -10.5t-1 -16t-1 -16t-0.5 -10.5q0 -5 0.5 -9t3.5 -18q1 -5 1.5 -10.5t0.5 -10.5q0 -20 -7.5 -31t-27.5 -15h-70q-3 0 -12.5 1t-20 1.5t-19.5 1.5t-13 1q-3 0 -11.5 -1
t-18.5 -1.5t-18.5 -1.5t-11.5 -1q-29 0 -38.5 16t-9.5 46q0 3 1 13t2 22t2 23t1 15t0.5 15t0.5 13q0 3 -1 14.5t-1 15.5v11t0.5 17t0.5 17.5v11.5q0 5 -0.5 19t-1 29.5t-1 30t-0.5 20.5q0 2 0.5 9t0.5 14.5t0.5 14.5t0.5 10v61z" />
    <glyph glyph-name="L" unicode="L" horiz-adv-x="521" 
d="M37 326v28t0.5 35t1 35t1.5 28q2 23 2.5 29.5t0.5 14.5q0 4 -0.5 15t-1.5 23.5t-1.5 23.5t-0.5 16q0 3 0.5 9.5t1 14t1 14t0.5 9.5q0 2 -0.5 10t-0.5 10q0 10 2.5 21.5t8.5 21.5t16.5 17t27.5 7q4 0 15 -1t23 -1.5t22.5 -1.5t15.5 -1q4 0 13.5 1t20 2t20 2t13.5 1
q24 0 38.5 -5t22 -15t10 -23.5t2.5 -29.5q-1 -11 -0.5 -28t0.5 -31v-16q0 -5 0.5 -19.5t0.5 -19.5v-7q-1 -13 -3 -25t-3 -25v-10q0 -4 0.5 -13.5t0.5 -21t0.5 -21.5t0.5 -14v-9t-0.5 -14.5t-0.5 -14v-9.5q0 -14 2 -28.5t10 -23.5q13 -13 31 -13q3 0 10 0.5t14.5 1.5
t13.5 1.5t8 0.5q8 0 16 -1.5t16 -1.5q2 0 9.5 1t10.5 1q14 0 24 -6.5t16 -15.5t9 -18.5t3 -15.5q0 -5 -1 -10.5t-1 -11.5q-1 -5 -1.5 -15t-0.5 -21.5v-22.5v-17v-15t2 -15q0 -7 1 -13.5t1 -13.5l-1 -10.5t-6 -22.5t-15.5 -22t-28.5 -10q-3 0 -11.5 1t-18.5 1.5t-19 1.5
t-13 1q-14 0 -28.5 -1.5t-28.5 -2.5q-15 -1 -32.5 -1h-22.5q-4 0 -19.5 0.5t-20.5 0.5h-13q-3 0 -14 1t-15 1h-20t-20 -1q-12 -1 -24 -2.5t-25 -1.5q-23 0 -36 6.5t-19 16.5t-7.5 20.5t-1.5 18.5q-1 4 -0.5 18t1.5 19q0 4 -0.5 17t-0.5 17t0.5 13.5t0.5 21t0.5 21.5t0.5 14
v10.5t-1 10.5q0 6 -1 20.5t-1.5 31t-1.5 31.5t-1 21z" />
    <glyph glyph-name="M" unicode="M" horiz-adv-x="833" 
d="M39 404v9.5t-0.5 14t-0.5 14v9.5t0.5 12t0.5 19t0.5 19t0.5 12q0 11 -0.5 22.5t-1.5 22.5q-2 20 -4.5 42.5t-2.5 33.5q0 17 4.5 37t18.5 29q4 2 13.5 5t34.5 3q4 0 15.5 -0.5t24.5 -1.5t24.5 -1.5t16.5 -0.5q4 0 14 0.5t21 0.5q11 1 21 1h14q22 0 33.5 -5t24.5 -22
q5 -8 9.5 -17t10.5 -17q3 -5 6.5 -9t7.5 -9q6 -8 15.5 -20.5t11.5 -14.5q5 -8 8.5 -12.5t17.5 -17.5q8 -8 13.5 -13t12.5 -5q11 0 17 7.5t8 9.5q4 5 5.5 7t6.5 7q2 2 7.5 10t9.5 16l6 15q2 4 5 7.5t5 6.5q3 5 5.5 10t5.5 10q5 8 9.5 15t10.5 13q4 3 10 9q3 3 5.5 6t5.5 5
q5 5 9 5.5t9 0.5q3 0 15.5 1t16.5 1h24q1 0 1.5 -0.5t1.5 -0.5h2h8q11 0 21.5 0.5t21.5 1.5q13 1 26 1h26q36 0 55 -10t19 -42v-12t-1 -11q-2 -17 -3.5 -39t-1.5 -31v-14t0.5 -19.5t1 -20t0.5 -14.5q0 -3 1.5 -15t1.5 -16q0 -2 -1 -17t-2 -34t-2 -37t-1 -25q0 -3 0.5 -12
t0.5 -18.5t0.5 -18.5t0.5 -13v-55q1 -10 2 -19.5t2 -19.5v-48q0 -4 0.5 -14.5t1.5 -22.5t1.5 -23t0.5 -15v-9t-2 -18q0 -5 -1 -11t-4.5 -12.5t-10 -12t-17.5 -8.5q-5 -1 -20 -2t-20 -1t-10 0.5t-10 1.5h-12t-18.5 0.5t-18.5 0.5h-13q-10 0 -15 -1q-5 0 -20.5 -1.5
t-20.5 -1.5q-41 0 -52.5 13t-11.5 39q0 9 1 18t1 17q0 3 -1 9t-1.5 13.5t-1.5 13.5t-1 9q0 2 0.5 10t0.5 10v12q1 2 2 9t1 9q0 3 -1 13.5t-1 13.5v9t0.5 13.5t0.5 14v9.5q0 11 -5 17.5t-9 6.5t-15 -9t-15 -14q-2 -3 -4.5 -5.5t-4.5 -5.5q-4 -3 -7.5 -6t-7.5 -7
q-2 -2 -4 -5.5t-4 -5.5q-7 -9 -18.5 -17.5t-17.5 -8.5q-3 0 -5.5 1t-5.5 2q-6 2 -9 4.5t-12 10.5q-4 3 -7.5 6t-7.5 7q-4 3 -7 6.5t-6 7.5q-17 19 -22.5 22t-9.5 3q-5 0 -11 -2.5t-6 -12.5q0 -2 1.5 -10.5t1.5 -11.5q1 -5 1 -15q0 -8 -0.5 -15.5t-0.5 -15.5q0 -3 0.5 -9.5
t1 -14.5t1 -14.5t0.5 -9.5t-0.5 -10t-1.5 -15.5t-1.5 -15.5t-0.5 -10v-10.5t1 -15.5q0 -10 1 -21q0 -24 -13 -29t-32 -5q-3 0 -10 0.5t-15 1t-15 1t-10 0.5t-15 -1t-16 -1q-10 0 -19.5 1t-20.5 1q-8 0 -17 -1t-18 -1h-25q-10 0 -20 1.5t-20 10.5q-11 11 -13.5 24t-2.5 28v10
q1 11 2.5 22.5t2.5 23.5q1 7 1.5 20.5t1.5 27.5t1.5 26t0.5 17q0 4 -0.5 16.5t-1.5 26t-1.5 26t-0.5 17.5q0 6 0.5 21t1.5 32t1.5 32.5t0.5 21.5z" />
    <glyph glyph-name="N" unicode="N" horiz-adv-x="771" 
d="M469 591v16.5t-1 17.5q0 4 -1 17t-1 18q0 6 2 14t11 18q9 11 19.5 14.5t29.5 3.5h9.5t13.5 -0.5t13 -0.5h6l5 -0.5t10.5 -0.5t10.5 -0.5l5 -0.5q15 0 30.5 1.5t30.5 1.5q17 0 32 -3t19 -5q11 -5 17 -13.5t9 -17.5t3.5 -16.5t0.5 -11.5q-1 -11 -1 -20v-23q0 -3 -1 -11.5
t-2 -17.5t-1.5 -17.5t-0.5 -12.5t0.5 -15t0.5 -23t0.5 -23.5t0.5 -15.5v-34.5t-2 -31.5q-2 -26 -2.5 -33.5t-0.5 -14.5q0 -5 1 -19.5t2 -30.5t2 -30.5t1 -20.5v-28t-0.5 -42.5t-0.5 -43v-28.5v-14t1 -14q1 -8 2.5 -16.5t1.5 -17.5q0 -25 -15.5 -35.5t-36.5 -10.5
q-3 0 -9.5 0.5t-13.5 1.5t-13.5 1.5t-9.5 0.5q-4 0 -21.5 -0.5t-33.5 -2.5q-11 -2 -13.5 -2h-7.5q-21 0 -33 1t-19 3.5t-11.5 6.5t-8.5 9q-3 4 -7 7.5t-7 7.5q-10 9 -20.5 21.5t-17.5 22.5q-8 11 -14 21.5t-14 21.5q-2 3 -8.5 10.5t-13 16t-13 16.5t-8.5 12q-2 3 -4 6.5
t-4 6.5q-3 5 -6.5 9t-6.5 8q-3 5 -5 8.5t-6 8.5q-3 5 -7.5 8.5t-9.5 3.5q-14 0 -16 -12t-2 -22q0 -3 0.5 -16t0.5 -18v-15t-0.5 -23t-0.5 -23v-15v-10q0 -4 2 -18t2 -19q0 -1 -0.5 -8t-1.5 -10q-2 -8 -11.5 -16.5t-26.5 -8.5q-4 0 -17 1.5t-18 1.5q-2 0 -8.5 -0.5
t-13.5 -0.5t-13.5 -0.5t-9.5 -0.5t-11 0.5t-17.5 0.5t-18 0.5t-12.5 0.5q-3 0 -11 -0.5t-17 -1t-17.5 -1t-11.5 -0.5q-14 0 -30 10.5t-16 39.5q0 7 0.5 13.5t1.5 13.5v17.5t1 17.5q1 13 2.5 25t2.5 25q1 6 1 12v13q0 4 -0.5 15t-0.5 23.5t-0.5 23.5t-0.5 16v14.5t-0.5 22.5
t-0.5 22.5v15.5q0 7 0.5 26t1 41.5t1.5 44t2 32.5q1 16 2 31.5t1 31.5q0 9 -0.5 15t-1 12.5t-2 15t-3.5 21.5q-3 21 -3 38t5 30t6 15q8 11 18.5 13t32.5 2h19q3 0 6 -0.5t5 -0.5h8h18h23t23 0.5t17 0.5q10 1 19.5 1.5t18.5 0.5q19 0 33 -4t29 -23q1 -1 4.5 -6t8.5 -13.5
t11 -18.5l12 -20q8 -14 16 -25q10 -12 13 -17t10 -18q3 -7 6 -13.5t8 -12.5q6 -7 11 -14q3 -4 5.5 -7.5t4.5 -7.5q11 -15 16.5 -20.5t15.5 -5.5q4 0 9 3.5t5 13.5l-0.5 6t-0.5 13.5t-0.5 14t-0.5 9.5v46z" />
    <glyph glyph-name="O" unicode="O" horiz-adv-x="812" 
d="M10 342q0 6 0.5 12.5t1.5 12.5q2 11 4.5 21.5t3.5 21.5q2 10 2 20t2 20q1 7 7 22.5t13 31t12.5 27.5t5.5 13q1 1 4 6t7.5 12t8.5 13.5t6 9.5q2 2 7.5 7t12 10.5t12.5 11t8 7.5q11 11 31 28.5t46 29.5q3 1 15.5 6t26.5 10t26 9t14 4q8 2 14.5 3t14.5 3q5 1 11 2t11 2
q2 0 11 0.5t19 1t18 1t10 0.5l15.5 -1t36 -2.5t40.5 -4t29 -5.5q3 -1 12.5 -4.5t21 -8t22 -9t15.5 -6.5q6 -3 11.5 -6.5t11.5 -6.5q9 -5 18.5 -8t17.5 -8q23 -12 32.5 -22t15.5 -18q3 -4 6.5 -7.5t6.5 -7.5q7 -7 11 -12t7.5 -9.5t7 -9.5t8.5 -14q5 -8 9.5 -15.5t9.5 -15.5
t9 -16t6 -13q3 -7 4.5 -14.5t3.5 -15.5q3 -10 6.5 -20t5.5 -20q0 -3 1 -9.5t1.5 -15l1 -17t0.5 -14.5v-8t-1 -9q-1 -8 -2.5 -16.5t-1.5 -16.5v-21v-7t-1 -10q-1 -11 -2 -18t-3 -13t-5.5 -13.5t-8.5 -19.5q-4 -8 -7 -15t-5 -15l-4 -14t-5 -14l-4.5 -8.5t-12.5 -20.5
t-19 -25.5t-25 -23.5q-6 -5 -12.5 -8t-12.5 -8q-5 -3 -9 -6.5t-9 -7.5q-20 -17 -48 -25l-14 -4t-14 -5q-8 -2 -14.5 -5.5t-14.5 -6.5q-7 -2 -13 -3t-13 -3q-10 -2 -16 -3.5t-11.5 -2t-11.5 -1.5t-15 -2q-5 0 -10.5 -1t-11.5 -1h-38q-3 0 -9.5 0.5t-14 1t-14 1t-9.5 0.5h-35
q-14 1 -30.5 3t-29.5 7q-5 2 -11 5t-11 5q-8 3 -15 5t-14 5q-6 2 -11.5 5t-10.5 6q-6 4 -11.5 8t-11.5 9l-18 12q-6 5 -12 9.5t-11 9.5q-12 11 -20.5 21.5t-18.5 22.5q-2 4 -5 7l-6 6q-9 9 -17 18.5t-15 20.5q-2 3 -3.5 6.5t-3 9t-4.5 14t-7 23.5q-4 14 -8 26.5t-6 26.5v27
q0 4 -1 18t-1 19zM400 467q-18 0 -33 -6l-10 -6l-10 -6q-9 -5 -18.5 -8t-17.5 -10q-6 -5 -9 -9.5t-12 -21.5q-8 -16 -12 -25.5t-4 -23.5q0 -8 2.5 -20t8.5 -23q3 -5 7 -9.5t7 -9.5q3 -4 7 -12q3 -4 10 -10t16 -12t19.5 -10t20.5 -4q3 0 13 -0.5t13 -0.5q1 0 7.5 0.5t15 1.5
t15.5 2t8 1q23 5 35 19q5 5 8.5 9.5t8.5 9.5q3 3 9 7q7 7 15.5 24t8.5 36q0 7 -2.5 17.5t-6 20t-6.5 17t-4 9.5q-8 14 -23 23.5t-23 12.5q-4 2 -8 2.5t-8 2.5l-10 4l-10 4q-12 4 -28 4z" />
    <glyph glyph-name="P" unicode="P" horiz-adv-x="708" 
d="M34 151v20.5t1 20.5q0 6 0.5 13.5t1 14.5t1 12.5l0.5 5.5q0 4 -1 15t-1.5 23.5t-1.5 23.5t-1 16q0 9 0.5 18.5t0.5 18.5q0 3 0.5 11.5t1 18.5t1 18.5t0.5 12.5q0 2 -0.5 9t-0.5 14.5t-0.5 14t-0.5 9.5q0 5 0.5 19t1 29.5t1 29t0.5 19.5v18.5t-2 24.5q0 3 -0.5 9.5
t-1.5 14.5t-1.5 15t-0.5 10q0 11 2.5 22t9.5 19q11 12 24 14t19 2h9t14 -1q7 0 13.5 -0.5t9.5 -0.5q11 0 30 0.5t33 2.5q16 1 31 1h31h11t17 0.5t17.5 0.5h12.5q5 0 23.5 -1t42 -3.5t47.5 -6t41 -8.5q4 -2 7.5 -2.5t7.5 -2.5q7 -2 13.5 -3t12.5 -3q17 -5 28 -10t18.5 -8.5
t14.5 -8.5t16 -12t24 -18q25 -20 42 -35.5t26 -35.5q3 -7 7 -16t7 -16q9 -20 12 -41.5t3 -42.5q0 -5 -1 -11.5t-3 -20.5q-1 -9 -1.5 -17.5t-1.5 -16.5q-2 -22 -7 -40q0 -1 -2.5 -8t-8 -17.5t-13 -22.5t-18.5 -22q-6 -6 -12 -11.5t-12 -11.5l-9.5 -9.5l-9.5 -9.5
q-5 -4 -9.5 -7.5t-9.5 -7.5q-5 -3 -9 -6.5t-9 -7.5q-13 -9 -38.5 -19t-44.5 -15q-11 -3 -27.5 -5.5t-34.5 -3.5t-36 -1.5t-32 -0.5q-6 0 -14.5 -0.5t-16.5 -4.5t-13.5 -11.5t-5.5 -22.5q0 -4 0.5 -15.5t2.5 -20.5q4 -15 4.5 -19.5t0.5 -7.5q0 -15 -5 -23.5t-13 -12.5t-17 -5
t-17 -1q-5 0 -19.5 0.5t-19.5 0.5q-3 0 -10 -0.5t-15 -1t-15 -1t-10 -0.5q-2 0 -8 0.5t-13 1.5q-6 0 -12 0.5t-9 0.5t-10.5 -0.5t-16.5 -1t-17 -1t-11 -0.5q-29 0 -39.5 12t-10.5 32q0 3 0.5 12.5t1.5 20t1.5 20.5t0.5 14v42zM342 481q-14 0 -24.5 -8.5t-10.5 -31.5
q0 -7 0.5 -13.5t0.5 -13.5q0 -3 -1.5 -13.5t-1.5 -13.5q0 -10 4 -15.5t9.5 -8t11.5 -3t10 -0.5q10 0 19 3l12 3q5 1 9.5 1t9.5 1q3 0 13 2t12 3q12 5 22 18t10 31q0 12 -4.5 20.5t-12 14.5t-16.5 10t-18 7q-10 3 -15 3.5t-20 2.5q-5 0 -9.5 0.5t-9.5 0.5z" />
    <glyph glyph-name="Q" unicode="Q" horiz-adv-x="833" 
d="M785 459q6 -18 8 -25.5t4 -24.5q3 -26 3 -28v-8t-0.5 -11t-0.5 -11.5v-7.5q-1 -6 -2 -12.5t-2 -12.5q-1 -5 -1 -8.5v-17.5t-1.5 -27.5t-6.5 -26.5q-3 -7 -6.5 -13.5t-6.5 -13.5q-1 -2 -1.5 -4.5t-1.5 -4.5q-1 -3 -3 -6q0 -4 7 -4q2 0 5 0.5t5 0.5h18q6 0 10 -1.5t12 -6.5
q5 -2 7.5 -5.5t3.5 -14.5v-16q0 -2 0.5 -9.5t0.5 -9.5t-1.5 -11.5t-1.5 -12.5q0 -4 1 -18.5t2 -19.5v-13.5t-1 -14.5v-26q0 -14 -11.5 -20t-26.5 -6q-4 0 -18.5 0.5t-19.5 0.5h-44q-2 0 -10 -0.5t-11 -0.5q-15 0 -33 3.5t-43 25.5q-8 6 -12 6l-8 -2q-6 -2 -9 -2
q-5 -2 -10.5 -3.5t-10.5 -3.5q-8 -4 -13.5 -6t-10.5 -4t-10.5 -3.5t-14.5 -3.5q-27 -7 -58 -9t-55 -2h-12.5t-21.5 2q-11 1 -17.5 1h-24.5t-38 4t-27 6q-4 2 -16.5 7t-16.5 6q-10 4 -19.5 7.5t-18.5 8.5q-7 4 -13.5 9.5t-13.5 10.5q-8 5 -16 10.5t-16 11.5q-3 3 -13.5 13
t-14.5 15q-8 10 -13.5 16.5t-9.5 11.5t-8.5 9.5l-10.5 10.5q-14 15 -20 27.5t-11 26.5q-8 26 -12.5 41t-6.5 25.5t-2.5 20t-0.5 25.5q0 4 -0.5 18.5t-0.5 19.5v9t1 9q1 10 3 19t4 19q2 11 2.5 23t2.5 23q3 17 10 31q2 5 5 10t5 10q2 4 2.5 7.5t2.5 6.5q3 8 8.5 18.5t11 20.5
t10.5 18t7 10q1 2 6.5 7t11.5 10.5t11.5 10.5t7.5 7q18 17 37 33.5t42 27.5q3 1 16.5 6t28.5 10.5t27.5 10t13.5 4.5q8 2 14.5 2.5t14.5 2.5q5 1 10.5 2t10.5 2q3 0 12 0.5t19 1t18 1t10 0.5q1 0 17 -1t35.5 -2.5t38 -4t26.5 -4.5q14 -4 31 -11q12 -5 19 -8t13.5 -6
t13.5 -6.5t18 -9.5q2 -1 7.5 -3.5t12.5 -5.5t13 -6l8 -4l5 -3t10.5 -6.5t10.5 -7.5t7 -6q4 -4 6.5 -8t6.5 -9t7.5 -8.5l8.5 -8.5q4 -5 7 -8t5.5 -6.5t6 -9t8.5 -14.5q6 -11 13 -19q7 -10 11 -17t7 -14.5t6.5 -18t8.5 -26.5zM403 467q-10 0 -19.5 -1t-18.5 -6q-5 -3 -9.5 -6
t-9.5 -5t-9.5 -4t-9.5 -4q-10 -4 -17 -10.5t-11 -12.5l-4 -8l-4 -8q-8 -16 -12.5 -26.5t-4.5 -26.5q0 -14 5.5 -27t6.5 -15q2 -4 5.5 -7.5t5.5 -7.5q2 -2 3.5 -5t3.5 -5q5 -8 10 -13.5t19 -13.5q16 -11 24 -12.5t25 -1.5q2 0 9.5 -0.5t10.5 -0.5t12 0.5t9 4.5q0 2 -1.5 4.5
t-8.5 13.5q-5 7 -9 13.5t-4 17.5q0 3 1.5 8.5t11.5 18.5q7 10 15.5 16t17 9.5t14 4.5t6.5 1q14 0 26.5 -9.5t16.5 -14.5q2 -1 6 -6t6 -5t5 11.5t3 19.5q0 7 -2 16.5t-5 18.5t-5.5 16t-3.5 10q-5 10 -13 18t-16 13t-14 7.5t-7 2.5q-5 2 -13 4q-6 2 -11 4.5t-10 4.5
q-11 4 -26 4z" />
    <glyph glyph-name="R" unicode="R" horiz-adv-x="729" 
d="M31 594v9t-0.5 12.5t-0.5 12.5v9q0 22 7 36q8 18 25.5 25.5t38.5 8.5h10t16 2h9h13.5h13.5h9q4 0 16.5 -1t17.5 -1q2 0 11.5 -0.5t12.5 -0.5q4 0 16.5 0.5t25.5 1.5t23.5 1.5t12.5 0.5q16 0 31.5 -2t31.5 -3h10t14.5 0.5t14.5 0.5h10q22 0 39.5 -3t46.5 -9q17 -4 27 -6.5
t26 -10.5q7 -3 12 -5.5t10 -6t12 -9t18 -14.5t14 -12.5t10 -14.5q3 -4 6 -7.5t5 -7.5q3 -5 5.5 -10t5.5 -10q2 -4 5 -7.5t5 -7.5q4 -5 8 -13.5t7 -14.5q4 -9 7.5 -21t6 -23t3.5 -21t1 -14q0 -7 -1 -13t-4 -21q-3 -18 -5.5 -28.5t-5 -18.5t-5.5 -15.5t-9 -18.5
q-10 -18 -18.5 -30.5t-18.5 -21.5t-23.5 -16.5t-32.5 -15.5q-5 -2 -11 -6t-6 -13q0 -5 4.5 -9t9.5 -6q4 -2 14 -4t15 -2q2 0 12 0.5t14 1.5q3 0 13.5 1.5t14.5 1.5q6 0 14.5 -1t16.5 -6t14 -15.5t6 -30.5q0 -3 -0.5 -11t-1.5 -17t-1.5 -17.5t-0.5 -11.5q0 -14 1.5 -28
t1.5 -28q0 -20 -4.5 -32t-11.5 -18t-15.5 -8t-15.5 -2q-2 0 -11 0.5t-11 0.5q-11 0 -22 -0.5t-22 -0.5h-10t-19 0.5t-22 1.5t-18 3q-11 3 -24.5 9.5t-27 15t-26 17t-21.5 15.5q-7 5 -14 9.5t-14 9.5q-2 1 -9.5 7t-16 12.5t-15.5 12l-7 5.5q-2 1 -10 3t-11 2q-11 0 -16 -9
t-5 -19q0 -5 0.5 -13.5t1.5 -13.5q2 -5 3 -8.5t2 -7.5q1 -3 1 -10q0 -20 -10 -31t-31 -11q-5 0 -18.5 1t-18.5 1q-3 0 -10.5 -0.5t-16.5 -0.5t-16.5 -0.5t-10.5 -0.5h-9.5t-9.5 1q-5 0 -19 2t-19 2q-3 0 -10 -0.5t-15 -1.5t-15.5 -1.5t-10.5 -0.5q-27 0 -37 14.5t-10 31.5
q0 5 0.5 10t1.5 10q2 19 3 27.5t1 19.5v14v19t-0.5 19t-0.5 14q-1 1 -1 6.5t-1 11.5q-1 7 -2 15q0 11 1.5 21t2.5 20q0 4 -0.5 16t-0.5 16q0 3 0.5 10.5t1.5 16t1.5 16.5t0.5 11v105q0 2 -0.5 9t-0.5 10v19q0 3 -0.5 12t-1.5 19.5t-2 19.5t-1 13v49zM344 481q-14 0 -22 -3
t-11.5 -9t-4 -14.5t-0.5 -19.5q0 -2 1 -10t1 -10t-0.5 -9.5t-0.5 -9.5q0 -21 10 -27t21 -6q13 0 26 3.5t20 5.5q9 3 14.5 5t9.5 4t7 5l8 8q8 8 10.5 13t2.5 16q0 21 -6 29t-17 15q-9 5 -14.5 6t-22.5 3h-6.5t-6.5 1q-17 4 -19 4z" />
    <glyph glyph-name="S" unicode="S" horiz-adv-x="583" 
d="M79 232q5 -1 9.5 -2t9.5 -2q5 -2 9.5 -2t9.5 -1q4 -1 7 -2t7 -3q7 -2 13 -2t13 -2q5 -1 10.5 -2t11.5 -3q8 -2 16.5 -2.5t17.5 -2.5q13 -3 30.5 -5.5t19.5 -2.5q11 0 17.5 6.5t6.5 11.5q0 6 -5.5 11.5t-11.5 7.5q-5 2 -8.5 2.5t-7.5 1.5q-5 2 -13 6q-2 1 -5 1.5t-5 1.5
q-3 1 -12.5 5.5t-20.5 9.5t-21.5 10.5t-15.5 8.5q-3 2 -14.5 10t-15.5 10q-14 10 -24 16.5t-15 11.5q-5 4 -12 13t-14.5 18t-12.5 16l-5 7q-2 2 -6 11t-9 20.5t-9 24t-5 22.5q-1 8 -1 15t-1 15q0 1 -0.5 4t-0.5 7v9q0 9 2.5 23.5t8.5 27.5q2 4 3.5 7.5t3.5 7.5q3 8 5.5 15.5
t6.5 15.5q6 12 11 18t15 16q5 5 8 9t7 8q19 19 47.5 31.5t61.5 18.5q10 2 15.5 3t11 1.5t11.5 0.5h17q3 0 12 0.5t18.5 1t18.5 1t13 0.5q2 0 17 -0.5t32 -1t31.5 -1.5t15.5 -1t9.5 -1t20 -4.5t23.5 -9.5t19 -15q4 -5 6 -10t3 -12t1 -18.5v-30.5v-62q0 -14 -1.5 -21.5
t-3.5 -12.5q-5 -8 -13.5 -15.5t-9.5 -8.5q-4 -2 -17 -5.5t-17 -3.5q-1 0 -15 4t-25 7q-9 2 -18 2t-19 2q-5 1 -10.5 2t-10.5 2q-4 1 -11 1q-17 0 -24.5 -4.5t-7.5 -9.5q0 -7 9 -14.5t29 -12.5q14 -4 28.5 -8.5t24.5 -9.5q9 -5 17 -10l16 -10q9 -5 18.5 -9.5t17.5 -9.5
q9 -6 20 -14.5t21 -17.5t17.5 -17t9.5 -11q3 -4 9 -12.5t8 -12.5q2 -5 3.5 -9.5t3.5 -9.5q2 -4 4.5 -7.5t4.5 -8.5q1 -3 4 -11t5 -18l4 -20t2 -19q0 -3 -1 -9.5t-1.5 -14.5t-1.5 -14.5t-1 -9.5q-2 -9 -2 -18.5t-2 -18.5q-4 -15 -14 -32t-18 -25q-4 -4 -8 -7t-8 -7
q-5 -5 -10.5 -9.5t-10.5 -9.5l-15 -9q-7 -4 -12.5 -8t-11.5 -8q-18 -11 -31.5 -15t-25.5 -7q-13 -3 -21.5 -4l-17 -2t-19.5 -0.5t-28 0.5h-10.5t-15.5 -0.5t-15.5 -0.5h-10.5q-2 0 -11 0.5t-11 0.5h-10q-2 0 -7.5 0.5t-12 1.5t-12 1.5t-8.5 0.5q-7 1 -14 1t-15 1
q-5 1 -9.5 1.5t-9.5 0.5q-16 2 -31.5 3t-30.5 6q-12 4 -21 9.5t-12 13.5q-1 2 -1.5 11t-1 19t-1 18.5t-0.5 10.5q0 4 1 17t1 17q0 3 -0.5 10t-0.5 14.5t-0.5 14.5t-0.5 10q0 5 1 16.5t8 22.5q7 10 17 15.5t19 5.5h1z" />
    <glyph glyph-name="T" unicode="T" horiz-adv-x="562" 
d="M4 565q0 4 1 17t1 17q0 3 -0.5 11t-1.5 17t-1.5 17.5t-0.5 11.5q0 8 2 17t10 19q6 8 14 12t26 4q7 0 14 -0.5t14 -0.5q12 -1 18.5 -1t23.5 -2q8 -1 21 -1h17h17t18 1q12 1 18.5 1.5t11 0.5h7.5h7q14 0 29 -0.5t30 -1.5q8 0 20.5 -0.5t26 -0.5h26.5h22h10q11 0 22.5 1
t22.5 2q7 1 14 1h14q15 0 29.5 -1t26 -6t18.5 -17t7 -33q0 -5 -0.5 -9t-0.5 -9l-3 -24v-19v-15.5t1 -22.5q0 -4 1 -16t1 -16q0 -43 -38 -43q-2 0 -7.5 0.5t-12 1t-12 1t-8.5 0.5q-23 0 -36.5 -5.5t-20.5 -15t-9 -21.5t-2 -25v-36q0 -3 1 -12.5t1 -12.5q0 -13 -0.5 -25.5
t-1.5 -25.5q0 -2 -0.5 -8t-1 -13t-1 -13t-0.5 -9q0 -4 0.5 -15.5t0.5 -14.5v-102q0 -8 0.5 -15t1.5 -14q2 -11 4 -21.5t2 -21.5q0 -26 -18 -41q-3 -3 -7.5 -5.5t-12.5 -4.5t-23 -3t-39 -1q-3 0 -13 0.5t-21 1.5q-11 0 -20.5 0.5t-14.5 0.5q-3 0 -10.5 -0.5t-16 -0.5
t-16.5 -0.5t-11 -0.5q-22 0 -36 10.5t-15 11.5q-2 4 -5 14t-3 22l3 33q1 8 1 17v17q0 5 -0.5 18t-1 27.5t-1 27.5t-0.5 19q0 5 1 17.5t1.5 26.5t1.5 27t1 19q0 4 -0.5 14.5t-0.5 22.5t-0.5 22.5t-0.5 15.5t0.5 20.5t0.5 20.5q0 7 -1 15.5t-4 16t-8.5 13.5t-15.5 7
q-5 1 -9.5 1h-9.5q-5 1 -10.5 2t-10.5 2q-8 1 -15.5 0.5t-15.5 1.5q-13 3 -20.5 8.5t-11 13t-4.5 16t-1 17.5v29z" />
    <glyph glyph-name="U" unicode="U" horiz-adv-x="771" 
d="M643 705l18 2t18 1q2 0 14.5 -1t19.5 -4q3 -2 10 -7t9 -8q3 -4 5.5 -12t3.5 -16.5t1.5 -17t0.5 -13.5q0 -7 -0.5 -13.5t-0.5 -14.5q0 -2 0.5 -11t0.5 -12v-17.5t-1 -17.5q-1 -8 -2 -16.5t-2 -16.5q0 -2 -1 -9.5t-1.5 -16.5t-1.5 -17t-1 -10q0 -6 0.5 -11.5t1.5 -19.5
q1 -12 1.5 -23.5t0.5 -23.5q0 -18 -1 -36t-1 -37q0 -3 0.5 -14.5t0.5 -15.5q0 -1 -0.5 -11t-1.5 -24t-4 -30t-7 -28q-2 -6 -4.5 -11.5t-4.5 -11.5t-3.5 -12t-3.5 -11q-4 -8 -8.5 -15t-9.5 -15q-4 -8 -7.5 -15.5t-8.5 -14.5q-4 -7 -15 -19.5t-26 -22.5q-3 -2 -6.5 -4.5
t-7.5 -4.5q-5 -3 -9 -6.5t-9 -6.5q-13 -8 -29 -13t-31 -8t-27.5 -4.5t-19.5 -1.5q-3 0 -16 0.5t-18 0.5h-8t-8 -1l-24 -3h-12q-3 0 -12 0.5t-20 1.5t-20 1.5t-13 0.5t-16 -1t-16 -1q-2 0 -10.5 1t-11.5 1q-8 0 -20.5 2.5t-24.5 6t-22 6.5t-13 5q-6 2 -10 5t-18 13q-2 1 -9 5
t-14.5 8.5t-14 8.5t-9.5 6q-4 3 -11.5 8.5t-16.5 14t-17 18.5t-14 21q-2 4 -4 7.5t-4 7.5q-4 7 -8 13t-7 12q0 1 -2.5 8t-5.5 15.5t-5.5 16.5t-2.5 10q-1 4 -1 6.5v12.5v10t-0.5 15.5t-0.5 16v10.5t0.5 11.5t0.5 18.5t0.5 18.5t0.5 12.5q0 3 -0.5 10t-0.5 15.5t-0.5 16
t-0.5 10.5q0 6 0.5 12.5t0.5 12.5q0 2 -0.5 10.5t-0.5 11.5t0.5 10.5t0.5 16.5t0.5 17t0.5 11q0 4 -0.5 15t-1 23.5t-1 24t-0.5 16.5q0 3 0.5 12t1 18.5t1 18.5t0.5 12q0 4 -1 15t-1 14q0 8 2.5 15.5t5.5 14.5q8 13 20 15t24 2q5 0 19 -1t19 -1q4 0 14.5 0.5t22.5 0.5
t22.5 0.5t15.5 0.5q3 0 14.5 -0.5t15.5 -0.5h22q9 0 20 -1t20 -6.5t15.5 -17t6.5 -32.5q0 -3 -2 -15.5t-2 -16.5q-1 -5 -1 -15q0 -3 0.5 -11.5t1.5 -18t1.5 -18t0.5 -11.5q0 -4 -1.5 -16.5t-1.5 -17.5q0 -2 -0.5 -7.5t-0.5 -12v-12.5v-9v-9t-1 -9q-1 -14 -3.5 -27t-2.5 -27
q0 -1 1 -12.5t1 -12.5v-11.5v-18v-18v-12.5q0 -9 1 -18t8 -20q7 -12 14 -19q6 -5 18 -9.5t16 -5.5q5 -1 10.5 -0.5t10.5 -0.5q2 0 9.5 -1t9.5 -1q10 0 15 2q8 2 11.5 4t14.5 11q7 5 12 9t7.5 9t3.5 11.5t1 17.5q1 5 0.5 20t-0.5 20q0 2 0.5 8t1.5 12.5t1.5 12t0.5 8.5
q0 8 -1.5 16t-1.5 16q0 3 1.5 14.5t1.5 14.5q0 4 -1 13.5t-2.5 20t-2.5 20.5t-1 14q0 16 2 32t2 32q0 3 -0.5 15t-0.5 16q0 3 0.5 13t0.5 13q0 4 -2 17.5t-2 18.5q0 6 3 18t18 17q3 2 14.5 4t18.5 2t13.5 -1t13.5 -1h32q2 0 3.5 -0.5t3.5 -0.5h5h57z" />
    <glyph glyph-name="V" unicode="V" horiz-adv-x="729" 
d="M59 438q-6 25 -10.5 50t-10.5 50q-5 17 -9.5 33t-12.5 32q-11 24 -14.5 34.5t-3.5 24.5q0 17 6 26.5t14.5 14t17.5 5t15 0.5q3 0 12 -0.5t18.5 -0.5t18.5 -0.5t13 -0.5t16 0.5t16 0.5q2 0 7.5 -0.5t11.5 -0.5q7 -1 12.5 -1.5t7.5 -0.5t8 0.5t13 1.5q7 0 13.5 0.5t8.5 0.5
q5 0 12.5 -1t15.5 -6q7 -4 12.5 -11t9.5 -14.5t7 -14.5t4 -10q1 -4 4 -17t5 -17q1 -3 2.5 -6.5t2.5 -7.5q1 -2 3 -9.5t4.5 -16.5t4 -18t2.5 -13q2 -8 2 -17t2 -18q1 -5 5 -19t8.5 -29t8 -28t4.5 -16q2 -6 2.5 -12t1.5 -12q3 -22 6 -32.5t9 -10.5q2 0 5 7.5t4 9.5l1.5 7.5
t4 16.5t4 16.5l1.5 7.5q2 4 3.5 7.5t3.5 7.5q1 2 3 8t4 12.5t4 12t3 8.5q4 13 6 25.5t6 25.5q5 16 11.5 31t9.5 31q2 8 2.5 17t2.5 17q0 1 1.5 10t4 20t6.5 22t9 17q9 12 22.5 15.5t21.5 3.5q2 0 8 -0.5t12 -0.5q7 -1 13 -1.5t8 -0.5q5 0 10.5 0.5t10.5 1.5q14 2 18.5 2.5
t8.5 0.5q9 0 17.5 -1t16.5 -1h38q7 0 17 -0.5t19.5 -4.5t16 -12.5t6.5 -23.5q0 -8 -3 -19.5t-6.5 -23t-7 -20l-3.5 -8.5q-5 -13 -8 -21.5t-5 -15t-3 -13t-1 -15.5q0 -5 -0.5 -9t-2 -9.5t-3.5 -14t-6 -21.5q-5 -14 -10.5 -27.5t-10.5 -27.5q-3 -10 -5 -19t-5 -18
q-1 -2 -5.5 -13.5t-10 -25.5t-10.5 -27t-6 -18q-2 -7 -3.5 -14t-3.5 -14q-3 -8 -7 -15.5t-8 -15.5q-5 -10 -9 -22.5t-6 -26.5q-2 -6 -2 -12t-2 -12q-1 -4 -4.5 -16.5t-5.5 -16.5q-5 -17 -12 -33q-3 -8 -6.5 -16.5t-6.5 -17.5q-3 -10 -5.5 -19.5t-6.5 -19.5q-6 -14 -15 -20.5
t-32 -8.5q-4 0 -15.5 0.5t-15.5 0.5q-3 0 -11 -0.5t-17 -1t-17.5 -1t-11.5 -0.5h-18t-17 1t-14.5 1.5t-13.5 1.5q-5 1 -10.5 1h-10.5q-8 0 -16 -0.5t-16 -1.5t-15.5 -1.5t-15.5 -0.5q-26 0 -42 13t-27 51q-2 7 -3.5 12t-3 9.5t-4 10t-5.5 14.5q-2 6 -3.5 12t-3.5 13
q-2 9 -4.5 18t-5.5 17t-6.5 15.5t-5.5 15.5q-3 10 -4.5 19t-3.5 19q-2 13 -5.5 29t-9.5 30q-2 5 -4.5 10.5t-4.5 11.5q-2 5 -5 10t-5 10q-5 11 -15 40.5t-17 58.5z" />
    <glyph glyph-name="W" unicode="W" horiz-adv-x="1083" 
d="M95 359q-2 10 -5 19l-6 18q-3 8 -6.5 15.5t-6.5 15.5q-2 4 -6 17.5t-8.5 30t-8.5 31.5t-5 21q-4 15 -6.5 24.5t-4.5 17t-5 14t-7 17.5q-9 22 -14 36.5t-5 28.5q0 29 21 35t63 6h22q4 0 7 -0.5t6 -0.5h9q2 0 8 0.5t12.5 1t12 1t8.5 0.5q5 0 9 -0.5t8 -0.5q2 0 8 0.5t8 0.5
t6 -1t6 -1q1 0 4 0.5t5 0.5t12.5 -1t13.5 -2q10 -3 17 -12t10.5 -19t5.5 -19t2 -13q2 -15 3.5 -22.5t8.5 -26.5q1 -4 6.5 -18.5t7.5 -19.5q4 -13 4.5 -26.5t4.5 -25.5q2 -8 5 -14.5t5 -13.5q5 -15 8.5 -25t6.5 -19.5t5.5 -20t5.5 -26.5q4 -14 9.5 -28t17.5 -14q6 0 11 9
q1 2 3.5 8t5.5 12.5t5.5 12.5t3.5 9q5 12 8 20t4.5 15t2 15t0.5 20q0 7 -1 10q-1 8 -4 15.5t-5 15.5q-2 6 -2.5 12t-2.5 12q-2 7 -3.5 13.5t-3.5 13.5l-10 24t-9 25q-2 7 -3 14t-3 15q-2 5 -3.5 9.5t-3.5 9.5q-3 8 -5 14t-2 16q0 9 5 14.5t10 7.5q4 2 8.5 2h19.5
q3 0 12.5 0.5t12.5 0.5q2 0 9 -0.5t9 -0.5t6.5 0.5t6.5 0.5t10.5 -1t10.5 -1q4 0 15 0.5t15 0.5h68q19 0 30 -3t17 -9.5t9 -16.5t5 -25q2 -11 4 -27.5t4 -27.5q2 -5 2.5 -11t2.5 -11q2 -6 5 -12t5 -12q2 -5 3.5 -11t3.5 -12q3 -12 4.5 -24t3.5 -23q2 -10 5.5 -20t5.5 -20
t4 -19.5t4 -19.5q2 -8 3.5 -15t5.5 -14q2 -5 6.5 -9.5t9.5 -4.5t9 5t8 23q2 8 2 14q1 3 4.5 17.5t5.5 22.5t5 14.5t5 14.5q3 9 4 18t3 18q1 7 4 19t6 25t6 24t5 15q2 6 4.5 11.5t4.5 11.5q4 10 4 20.5t2 21.5q2 23 8 36.5t27 16.5h7.5h12h12.5h8q3 0 9 0.5t13 0.5t13 0.5
t8 0.5t8 -0.5t13 -1t13 -1t9 -0.5q5 0 19.5 1.5t19.5 1.5h8.5t13.5 -0.5t13 -1t8 -0.5q11 -2 17.5 -6.5t9.5 -11t4 -13.5t1 -12q0 -15 -5 -33t-11.5 -36.5t-12.5 -36t-9 -32.5q-2 -9 -2.5 -14.5t-2 -11t-4 -13l-6.5 -19.5q-4 -11 -8 -21l-8 -20q-2 -8 -4.5 -17t-4.5 -17
q-5 -15 -6.5 -21.5t-4.5 -22.5q-2 -19 -7 -32q-5 -17 -12.5 -34t-13.5 -34q-3 -9 -5 -19t-5 -20q-3 -13 -7.5 -25.5t-9.5 -25.5q-3 -7 -6 -13.5t-6 -14.5q-2 -6 -4.5 -12.5t-5.5 -13.5l-3.5 -10.5t-6 -15.5t-7 -15.5t-4.5 -10.5q-4 -11 -8 -20.5t-11 -17t-18 -12t-27 -4.5
q-3 0 -10 0.5t-15 1.5q-8 0 -15.5 0.5t-10.5 0.5q-2 0 -8.5 -0.5t-13.5 -0.5q-8 -1 -14 -1.5t-9 -0.5q-2 0 -8 0.5t-13 1.5q-6 0 -12 0.5t-9 0.5q-2 0 -9.5 -0.5t-15.5 -0.5q-8 -1 -15 -1.5t-10 -0.5q-30 0 -39 5.5t-12 10.5q-1 1 -5.5 12t-9.5 23t-9 22.5l-4 10.5
q-2 7 -2.5 14t-2.5 14q0 1 -1.5 8.5t-4.5 15.5t-7 15t-8 7q-3 0 -6 -5.5t-6.5 -13t-6 -14.5t-3.5 -11q-5 -14 -8 -28.5t-10 -27.5q-2 -5 -4 -9l-4 -8q-7 -13 -12 -21t-11 -12t-14.5 -5.5t-23.5 -1.5q-4 0 -15 1t-23 1.5t-23.5 1.5t-15.5 1q-17 1 -33.5 -1.5t-33.5 -3.5h-27
q-11 0 -17 1t-15 4q-13 5 -21 10.5t-16 25.5q-2 3 -5 15t-5 16q-2 5 -3 8.5t-2 7.5t-2 10t-2 15q-3 21 -9 42q-8 26 -18 50.5t-18 50.5t-13.5 52t-13.5 52z" />
    <glyph glyph-name="X" unicode="X" horiz-adv-x="729" 
d="M52 156q8 11 16 20.5t15 20.5q2 4 4.5 7.5t4.5 6.5q1 3 5 9t8.5 13t8.5 13.5t6 9.5q2 4 4.5 8t4.5 9l5 7.5l11 16.5t11.5 17.5t7.5 11.5l8 12t9 13q3 5 5.5 11t2.5 12q0 8 -6.5 19t-13.5 21q-5 8 -9.5 14.5t-9.5 13.5t-9.5 12.5t-9.5 11.5q-5 5 -9 11t-7 12q-3 3 -7 9
q-3 5 -7 8.5t-8 8.5q-2 3 -4.5 6t-4.5 7q-5 8 -16 25t-19 31q-7 11 -14 21t-15 21q-9 12 -12 18.5t-3 17.5q0 7 0.5 14.5t4.5 14t11.5 11t22.5 6.5h9.5h14.5h15h10t11 0.5t17 0.5q9 1 17.5 1h11.5h16q2 0 4.5 -0.5t4.5 -0.5h6q4 0 13.5 0.5t20 1t20 1t13.5 0.5q25 0 37.5 -7
t24.5 -35q4 -11 8.5 -20.5t9.5 -19.5q6 -12 14.5 -27t16.5 -15q5 0 8.5 5.5t5.5 8.5q7 16 15 25l18 24q3 5 6 9t5 9q9 15 15 24.5t13 14.5t17.5 6.5t27.5 1.5q5 0 17.5 -0.5t26.5 -0.5t27 -0.5t18 -0.5h15.5t15.5 1q3 0 10 0.5t15 1t15 1t10 0.5q50 0 50 -41q0 -3 -0.5 -6
t-0.5 -6q-4 -20 -15.5 -37t-22.5 -34q-5 -8 -10 -16.5t-10 -17.5l-7.5 -15t-8.5 -15q-4 -5 -8 -10.5t-8 -10.5q-5 -7 -9.5 -13.5t-9.5 -13.5q-5 -8 -10.5 -14.5t-9.5 -14.5q-5 -8 -8 -15.5t-8 -14.5q-2 -4 -6 -10q-17 -26 -20 -36t-3 -14q0 -12 11.5 -33.5t25.5 -38.5
q6 -8 12 -14t12 -14q8 -11 17 -25q7 -12 11 -19.5t8 -13.5t8 -11.5t10 -14.5q4 -5 11.5 -16t15.5 -26q8 -14 11.5 -20t13.5 -20q20 -26 23 -36.5t3 -17.5q0 -26 -19.5 -30t-45.5 -3h-11t-17 -0.5t-17 -0.5h-11q-2 0 -8 0.5t-13 1t-13 1t-9 0.5q-17 0 -32.5 -2t-32.5 -3
q-8 -1 -13.5 -1h-7.5q-11 0 -24 3.5t-25 22.5q-4 7 -7 13.5t-7 12.5t-8 11t-7 10q-4 6 -6.5 12t-5.5 13q-2 5 -6 13t-8.5 15t-9 12t-8.5 5q-1 0 -5 -3t-7 -5q-3 -4 -9.5 -13t-14 -19.5t-14 -19.5t-8.5 -12l-15 -27q-11 -18 -19.5 -28t-15.5 -14.5t-13 -5t-12 -0.5
q-5 0 -20.5 1t-20.5 1q-2 0 -8 -0.5t-13 -0.5t-13 -0.5t-9 -0.5q-5 0 -18.5 0.5t-18.5 0.5q-3 0 -10 -0.5t-15 -1t-15.5 -1t-10.5 -0.5q-13 0 -21 3.5t-10 5.5q-9 8 -14 20.5t-5 23.5q0 5 0.5 9t2.5 10q1 7 2.5 12t3.5 9t5.5 8t8.5 11q2 2 6 8.5t8.5 13.5t8 13t5.5 9z" />
    <glyph glyph-name="Y" unicode="Y" horiz-adv-x="750" 
d="M583 378q-5 -7 -12 -16.5t-12 -17.5q-6 -8 -8 -11t-4 -9q-2 -7 -9 -19.5t-9 -16.5l-7.5 -15t-9.5 -29q-2 -7 -3 -18t-1.5 -22t-1 -20t-0.5 -12v-13t-0.5 -17t-0.5 -16.5v-11.5q0 -5 0.5 -9.5t0.5 -9.5q0 -2 1.5 -9t2.5 -14.5t2 -14t1 -7.5q0 -5 -2 -13.5t-4 -13.5
q-3 -8 -11 -17t-32 -9q-2 0 -9.5 0.5t-15.5 1.5t-15 1.5t-10 0.5t-9.5 -0.5t-14 -0.5t-14 -0.5t-9.5 -0.5q-2 0 -8.5 0.5t-13.5 1t-13 1t-9 0.5t-10 -0.5t-15.5 -0.5t-16 -0.5t-10.5 -0.5q-11 0 -16 1q-12 3 -22.5 15.5t-10.5 26.5q0 1 2 12t4 19q4 19 4 42v61q0 8 -1.5 23
t-2.5 19q0 1 -2.5 9t-6.5 19.5t-8.5 23t-8.5 18.5q-4 8 -8 14.5t-8 14.5q-5 11 -9.5 21.5t-11.5 21.5q-4 8 -8.5 14.5t-9.5 13.5q-4 7 -7 13.5t-6 12.5q-7 12 -14.5 23t-14.5 22q-1 1 -7.5 14.5t-15 30t-15.5 31.5t-9 19q-8 17 -15 32.5t-19 35.5q-5 8 -9.5 16t-8.5 16
q-2 5 -4 11.5t-2 14.5q0 14 9.5 22.5t20.5 8.5q5 0 13 -2q18 -3 29 -3q2 0 7.5 0.5t11.5 0.5q6 1 12 1h8t7 -0.5t11 -0.5q5 -1 10.5 -1.5t7.5 -0.5q4 0 6 1h27q3 0 11 1t11 2h32q23 0 33 -7.5t17 -22.5q5 -10 6.5 -20t5.5 -20q2 -5 4.5 -10t4.5 -10q7 -12 15 -28t10 -21
q5 -9 8.5 -17.5t7.5 -16.5q4 -7 9 -14t11 -7q4 0 10.5 6.5t13.5 15.5t13 18.5t9 15.5q7 12 16 26q5 7 9.5 13t9.5 14q3 3 7.5 11.5t7.5 15.5q3 5 5.5 11t5.5 12q4 6 8.5 11.5t10.5 9.5q7 5 20 9t23 4h5.5t8.5 -1q4 0 7.5 -0.5t5.5 -0.5t7 0.5t10 0.5q5 1 10 1h7q10 0 19 -1
t19 -2t22 -1.5t18 -0.5h9.5t9.5 1q6 2 13.5 3.5t11.5 1.5q3 0 11 -2q4 -1 7 -1q5 -2 10 -9.5t5 -21.5q0 -17 -8 -31q-3 -6 -6.5 -11.5t-6.5 -11.5q-2 -5 -4 -10.5t-5 -10.5q-2 -5 -6 -9t-8 -9t-7.5 -10.5t-6.5 -11.5l-15 -33q-3 -7 -6.5 -13t-8 -13.5t-11 -18t-17.5 -26.5
q-5 -7 -9.5 -13t-9.5 -13q-8 -13 -16 -26.5t-17 -26.5z" />
    <glyph glyph-name="Z" unicode="Z" horiz-adv-x="562" 
d="M423 384q-8 -9 -10.5 -14t-10.5 -19q-3 -6 -6.5 -12t-6.5 -12q-2 -3 -3 -6.5t-3 -6.5q-2 -4 -11.5 -18t-14.5 -22q-7 -9 -7 -16q0 -9 6 -11.5t19 -2.5l31 1q6 0 16 -0.5t22 -1t23.5 -1t19.5 -0.5q12 0 17.5 -2.5t16.5 -11.5q5 -5 8 -9.5t4.5 -11.5t2 -17.5t0.5 -27.5
q0 -3 0.5 -10t1 -15.5t1 -16t0.5 -10.5t-0.5 -13.5t-0.5 -13.5v-24q0 -9 -1 -19.5t-6 -20t-16 -16t-31 -6.5q-4 0 -13 0.5t-20 1.5q-10 1 -18.5 1.5t-10.5 0.5t-14 -1t-15 -2q-5 0 -10.5 -0.5t-10.5 -0.5t-18 1t-28 1.5t-28.5 1.5t-19.5 1h-31.5t-32.5 -1q-7 -1 -13.5 -1.5
t-13.5 -0.5q-2 0 -14 1t-27 1.5t-27.5 1.5t-15.5 1q-4 0 -19 -1.5t-20 -1.5q-12 0 -21 5t-13 12q-2 2 -3 5t-2.5 10.5t-2 20t-0.5 34.5q0 5 0.5 20.5t0.5 20.5v10t-0.5 15t-0.5 15.5v10.5q0 11 3 25.5t22 40.5q4 5 8.5 10t8.5 10q5 7 9.5 14t9.5 14t9.5 13t9.5 12
q11 14 20 30t17 33q5 8 9.5 16.5t9.5 16.5q9 13 13 20t4 15t-4.5 14.5t-15.5 6.5l-13 -2q-4 0 -7.5 -0.5t-5.5 -0.5h-16l-30 -3q-7 -1 -14 -1.5t-14 -1.5q-5 0 -11 1.5t-13 9.5q-4 5 -4.5 8t-1.5 11q-2 10 -2 16q-1 3 -0.5 5.5t0.5 12.5q0 3 0.5 12t0.5 20v21v15
q0 4 -0.5 17.5t-0.5 18.5q0 12 3.5 30.5t14.5 29.5q8 8 21.5 12.5t22.5 4.5q5 0 9 -0.5t8 -0.5q2 0 9 0.5t9 0.5q3 0 12 -1t19 -1.5t19 -1.5t13 -1q8 0 27.5 0.5t40.5 1.5t38.5 1.5t19.5 0.5h4q4 0 13 -0.5t19 -1.5t19.5 -1h13.5q3 0 14 0.5t14 0.5h12.5t17.5 0.5t17.5 0.5
h12.5q10 0 18 -1.5t19 -7.5q10 -6 15.5 -15t5.5 -31l-1 -54l1 -36q0 -6 -0.5 -11.5t-0.5 -11.5q-1 -7 -2 -12.5t-3.5 -11.5t-8 -13t-14.5 -17l-10 -10l-10 -10q-5 -6 -9 -13.5t-8 -15.5q-8 -15 -17 -26.5t-18 -23.5z" />
    <glyph glyph-name="bracketleft" unicode="[" horiz-adv-x="396" 
d="M34 597q0 3 0.5 12.5t0.5 12.5v5.5t-1 10.5q-1 7 -1.5 18t-0.5 19q0 6 1 12t5.5 11t14.5 8.5t29 4.5q3 0 10.5 -0.5t16.5 -0.5t17 -0.5t11 -0.5h4.5t5.5 1h11h6.5t16.5 -2q8 -2 24.5 -2.5t24.5 -0.5q4 0 17 1t17 1h11t17.5 -0.5t18 -0.5h12.5q2 0 9 0.5t9 0.5
q14 0 17.5 -2.5t5.5 -4.5q4 -5 4.5 -11.5t0.5 -13.5v-12q0 -5 -1 -19t-1 -19q0 -4 0.5 -13.5t1 -20.5t1 -20.5t0.5 -13.5q0 -25 -6.5 -36t-31.5 -11q-3 0 -11.5 1t-11.5 1q-19 0 -31 -6.5t-13 -37.5v-12.5t-0.5 -23.5t-0.5 -24.5v-14.5t0.5 -15t0.5 -16q0 -3 -1 -12.5
t-1 -12.5q0 -4 0.5 -8t0.5 -9q1 -9 1 -18v-18q0 -4 0.5 -13.5t1.5 -21t1 -21.5v-14v-29q0 -4 -1.5 -15.5t-1.5 -15.5q0 -23 4 -27.5t8 -6.5q2 -1 9 -3t9 -2t8 0.5t12.5 1t12.5 1t9 0.5t8 -0.5t10.5 -2.5t10 -6.5t5.5 -13.5q1 -2 0.5 -10t-0.5 -10q0 -3 0.5 -14t0.5 -14
v-22.5t-1 -22.5q0 -5 -0.5 -9.5t-0.5 -9.5q0 -2 1 -12t1 -13q0 -17 -7.5 -26t-14.5 -11q-5 -2 -16 -2.5t-16 -0.5q-3 0 -11 0.5t-17 0.5t-17 0.5t-11 0.5q-1 0 -14 -0.5t-30 -1.5t-33 -1.5t-22 -0.5q-3 0 -12.5 0.5t-20 1.5t-20 1.5t-13.5 0.5h-9t-13.5 -0.5t-13.5 -0.5h-9
q-15 0 -17.5 10t-2.5 20q0 4 1 16t1 16q0 5 -0.5 20.5t-0.5 20.5q0 3 0.5 9t0.5 13.5v14v9.5v45q0 3 -0.5 13.5t-0.5 13.5q0 4 0.5 15.5t0.5 15.5q0 14 -1 27t-1 27q0 11 0.5 22.5t1.5 22.5v9.5t0.5 15t0.5 16v11.5q0 5 -1 20.5t-1 20.5q0 3 0.5 11.5t0.5 11.5q0 4 -1 18.5
t-1 19.5v8t1 9q0 8 0.5 18t0.5 23t-0.5 22.5t-0.5 19t0.5 19.5t0.5 24v30z" />
    <glyph glyph-name="bracketright" unicode="]" horiz-adv-x="396" 
d="M22 669q0 10 3 16t7 11q4 4 10 8q5 2 18 2.5t15 0.5h13t13 -1q6 0 12.5 -0.5t12.5 -0.5h10.5t18.5 1q5 0 15.5 0.5t22 1t22 0.5h16.5q4 0 14.5 -0.5t22.5 -1t22.5 -1t15.5 -0.5h7.5t10.5 1h18q11 0 16 -6.5t5 -13.5v-18q0 -2 -1 -8.5t-1 -8.5v-10v-15.5v-15v-7.5v-10.5
t-0.5 -15.5t-0.5 -16v-11q1 -8 0.5 -20t-0.5 -20q0 -3 0.5 -13t0.5 -14q0 -3 -0.5 -14.5t-0.5 -15.5q0 -12 1 -24t1 -24q0 -3 -0.5 -9.5t-0.5 -13.5t-0.5 -13.5t-0.5 -9.5v-20q0 -4 -0.5 -17.5t-0.5 -17.5q0 -10 0.5 -19.5t0.5 -18.5q1 -3 0.5 -14t-0.5 -14q0 -2 0.5 -8
t0.5 -13t0.5 -13t0.5 -9q0 -5 -1.5 -20t-1.5 -20v-10t0.5 -15t0.5 -15v-10v-18.5t-0.5 -28.5t-0.5 -28.5v-19.5q0 -3 0.5 -11t0.5 -17.5t0.5 -18t0.5 -11.5q0 -11 -3.5 -20.5t-14.5 -12.5q-10 -2 -19.5 -3.5t-23.5 -1.5h-17t-17 1h-32q-3 0 -11.5 0.5t-18.5 1.5
q-11 2 -23 2.5t-15 0.5q-5 0 -19.5 -1.5t-19.5 -1.5q-9 0 -18.5 0.5t-18.5 0.5h-31q-20 0 -25 2t-8 11q-2 5 -2 8v11q1 2 0.5 8t-0.5 8q0 4 1 16t1 16v9t-1 15q-1 12 -1.5 25t-0.5 25q0 29 9 35.5t29 6.5q2 0 10.5 -1t10.5 -1t8 0.5t8 0.5q11 0 17 5.5t9 13t3.5 15.5t0.5 12
v17.5t1 16.5v67q0 3 0.5 13.5t0.5 14.5v12t-0.5 19t-1 19t-0.5 12q0 2 -0.5 9t-0.5 14.5t-0.5 14.5t-0.5 10v47q1 3 2 15t1 16q0 2 -1.5 11.5t-3.5 12.5q-3 5 -11 7.5t-13 2.5q-3 0 -6 -0.5t-6 -0.5q-2 -1 -5.5 -0.5t-4.5 0.5q-2 0 -10.5 -1t-10.5 -1t-7 0.5t-10.5 2.5
t-10.5 6.5t-6 13.5v23q0 3 -0.5 12.5t-0.5 12.5v23t1 22q0 5 0.5 9.5t0.5 9.5q0 3 -1 13.5t-1 13.5z" />
    <glyph glyph-name="underscore" unicode="_" horiz-adv-x="500" 
d="M510 -125h-520v50h520v-50z" />
    <glyph glyph-name="grave" unicode="`" horiz-adv-x="208" 
d="M-49 699q0 9 3.5 18t24.5 9q8 0 16 -1t16 -1q3 0 13.5 1t13.5 1q2 0 11 -1t12 -1q2 0 10 0.5t11 0.5q2 0 10.5 -1.5t10.5 -1.5q5 0 8.5 0.5t7.5 1.5q5 1 15 1h15q2 0 9 -0.5t9 -0.5q5 0 9.5 0.5t9.5 0.5q7 0 11 -2q8 -2 14 -10t8 -11q2 -7 3.5 -9t3.5 -5q1 -2 5 -8
t8.5 -13.5t8.5 -14t5 -8.5q5 -7 5 -14q0 -8 -7.5 -11.5t-16.5 -3.5q-2 0 -9.5 1t-9.5 1t-8 -1t-8 -1q-29 0 -39.5 2t-18.5 4q-8 3 -20 8t-21 8q-5 2 -11 2.5t-11 2.5q-4 2 -7.5 2.5t-7.5 2.5t-8 2.5t-8 2.5q-4 1 -7 2.5t-7 2.5q-5 2 -10 3t-10 3q-4 2 -8 3.5t-9 3.5h-4t-4 1
q-2 0 -4 1l-4 2q-12 4 -20.5 8.5t-8.5 16.5z" />
    <glyph glyph-name="a" unicode="a" 
d="M270 420q-4 0 -17 -0.5t-18 -0.5t-11 -1t-21 -4q-8 -2 -16 -2.5t-16 -2.5t-15.5 -3.5t-15.5 -3.5q-3 0 -6 -0.5t-6 -0.5q-2 0 -10 1t-13 4q-2 1 -3.5 3.5t-3.5 4.5q-3 3 -5 6q-4 6 -5 21t-1 22q0 5 0.5 10t0.5 10q0 4 -1.5 18t-1.5 19q0 8 0.5 15.5t5 13.5t14 10t26.5 7
q5 1 8.5 1t8.5 2q4 1 7.5 1.5t8.5 1.5q1 0 11 1t21.5 2t21.5 1.5t12 0.5h13q2 0 8.5 0.5t13.5 1t13 1t9 0.5t13.5 -1t14.5 -1h59q3 0 12 -1t19.5 -2.5t19.5 -3t13 -1.5q23 -2 38.5 -4.5t32.5 -13.5q5 -4 9.5 -7.5t9.5 -6.5q4 -3 7.5 -5t7.5 -4q18 -12 31 -27.5t22 -30.5
t13.5 -29t6.5 -24q0 -3 0.5 -11.5t1 -17.5t1 -16t0.5 -8t-1 -12t-2 -19t-1 -14.5v-14.5q0 -4 0.5 -14t1 -21.5t1 -22.5t0.5 -15q0 -3 -0.5 -14t-0.5 -14q0 -4 -0.5 -14.5t-1 -22t-0.5 -22v-14.5q-1 -4 -2 -17.5t-1 -18.5t0.5 -9t1.5 -9q0 -4 1.5 -15t1.5 -13q0 -12 -3.5 -23
t-16.5 -18q-3 -2 -6 -3t-8 -1.5t-13 0t-21 0.5q-4 0 -17.5 -0.5t-17.5 -0.5h-27q-4 0 -13.5 -0.5t-20 -1t-19.5 -1t-13 -0.5q-18 0 -21 9.5t-3 20.5q0 14 -8 14q-6 0 -14 -7t-23 -15t-26 -13q-15 -8 -40 -12.5t-42 -4.5q-3 0 -12 1t-19.5 2t-20.5 2.5t-14 2.5
q-8 2 -16.5 5.5t-17.5 6.5q-5 2 -11 3t-12 3q-9 3 -21.5 10.5t-21.5 16.5q-3 2 -5.5 5t-5.5 6l-12 12q-9 8 -13 15t-12 24q-12 25 -16 37t-4 29q0 26 5.5 51t22.5 54q10 17 27 38.5t49 34.5q1 1 14 4.5t28 7.5t28 7.5t16 3.5q2 0 10.5 0.5t19.5 1.5q12 1 27 2q2 0 11 -0.5
t12 -0.5q2 0 7.5 0.5t7.5 0.5t10.5 -1.5t19 -4t19.5 -4t13 -1.5q11 0 14 4t3 9t-3 10q-3 7 -6 9.5t-12 7.5q-13 7 -18 8.5t-19 1.5q-2 0 -8.5 0.5t-14 1t-14 1t-9.5 0.5zM314 164q3 0 11 1t17 5t15.5 11.5t6.5 20.5t-9 19t-17 8q-3 1 -7.5 1h-20.5q-2 0 -9.5 0.5t-9.5 0.5
q-9 0 -24.5 -9.5t-15.5 -28.5q0 -2 0.5 -7t3.5 -10t9 -9.5t17 -4.5q6 0 11.5 0.5t11.5 1.5h10z" />
    <glyph glyph-name="b" unicode="b" horiz-adv-x="729" 
d="M423 580q6 0 20 -3q4 -1 18.5 -1.5t19.5 -0.5q7 -2 14 -3t15 -3t16.5 -3t16.5 -4q2 -1 7.5 -3.5t11.5 -6t11.5 -6.5t8.5 -5q5 -5 10.5 -9.5t11.5 -8.5q5 -4 10.5 -6.5t10.5 -7.5q10 -9 19 -19q2 -3 7 -11t10.5 -17t10 -17.5t6.5 -12.5q1 -3 3.5 -11t5.5 -16.5t5.5 -16.5
t4.5 -11q4 -11 8 -21.5t6 -21.5q1 -5 1.5 -12.5t1.5 -15.5q1 -9 2 -19q0 -3 -1 -14t-3 -18q-1 -5 -3 -13q-3 -9 -4.5 -16.5t-3.5 -15.5q-3 -13 -8.5 -27t-12.5 -24q-5 -8 -10 -14t-10 -14q-2 -3 -3.5 -6.5t-3.5 -7.5q-2 -3 -5 -6.5t-5 -7.5l-9 -15q-2 -2 -10 -11.5
t-16 -14.5q-5 -5 -12 -8t-13 -8q-4 -3 -7 -6t-8 -6q-2 -1 -7.5 -3.5t-11.5 -5.5t-11.5 -5.5t-7.5 -3.5q-5 -3 -10.5 -5.5t-10.5 -4.5q-4 -2 -17 -4t-18 -3q-2 0 -8.5 -1.5t-15 -3t-17.5 -3t-15 -1.5q-2 0 -13 1t-23.5 2t-23.5 2.5t-14 1.5q-23 2 -45 11t-39 26q-5 5 -8 5
q-2 0 -6 -2q-2 -2 -3 -10.5t-2 -11.5q-5 -17 -26 -17h-8q-15 2 -25.5 2.5t-27.5 0.5q-5 0 -10 -0.5t-10 -0.5q-4 0 -14.5 -0.5t-22 -0.5t-22.5 -0.5t-15 -0.5q-26 0 -31.5 14.5t-5.5 34.5v7t1 10q2 14 2.5 38t0.5 39q0 2 -0.5 8t-0.5 12.5t-0.5 12.5t-0.5 9q0 5 0.5 10
t0.5 10l3 33q0 3 0.5 14.5t0.5 24t0.5 23t0.5 13.5q0 5 -1 19t-2.5 29.5t-2.5 30t-1 20.5v11t-0.5 17t-0.5 17v11q0 2 0.5 8.5t1.5 13.5t1.5 13.5t0.5 9.5q1 5 1 9.5v9.5q0 23 -0.5 47.5t-2.5 47.5q0 8 -0.5 15.5t-0.5 15.5q0 18 5.5 32.5t23.5 18.5q2 0 7.5 0.5t12 0.5h12
h8.5q5 0 9 -0.5t18 -2.5q9 -1 17.5 -1.5t16.5 -0.5q13 0 22 1t12 1q11 2 14.5 2.5t7.5 0.5q43 0 58 -7.5t15 -34.5q0 -1 -1 -11.5t-1 -12.5q-1 -4 -0.5 -18.5t0.5 -19.5q0 -3 -1 -14t-1 -15q0 -3 1.5 -12t11.5 -9q3 0 7.5 1.5t8.5 3.5q7 3 14 5.5t14 4.5q1 0 6.5 1.5t11.5 3
t11 2.5t7 1q4 1 13 1q5 1 9.5 1.5t9.5 0.5h19zM394 231q11 0 23 3.5t21 11.5q10 7 16.5 22t6.5 22q0 5 -3 14q-3 10 -5 15.5t-5 9.5t-8.5 7t-14.5 8q-5 2 -8.5 4.5t-8.5 3.5q-3 1 -9.5 1h-15.5q-3 0 -14 1.5t-14 1.5q-8 0 -11 -1t-15 -6q-4 -2 -7.5 -2.5t-7.5 -2.5
q-11 -5 -17.5 -11.5t-10 -13.5t-4.5 -12l-1 -5q0 -29 4.5 -39.5t16.5 -18.5q12 -9 20.5 -11.5t19.5 -2.5q8 0 15 0.5t15 0.5h22z" />
    <glyph glyph-name="c" unicode="c" horiz-adv-x="479" 
d="M12 298q0 8 1.5 18l3 20t3.5 17.5t2 9.5q2 6 4.5 11.5t4.5 11.5q4 10 6 16.5t4 10.5l3.5 7l3.5 7q1 2 7.5 11t13.5 19t13.5 19t8.5 11q2 3 8 9.5t14 14.5t16.5 15t16.5 12q2 1 7 4t10.5 6t10 5.5t5.5 3.5q10 4 26 7.5t32.5 6.5t30.5 4.5t20 1.5q3 0 11.5 -0.5t11.5 -0.5
h16q3 0 13 -0.5t14 -0.5q3 0 15.5 0.5t16.5 0.5q35 0 50.5 -11.5t15.5 -38.5q0 -3 -0.5 -13t-0.5 -21t-0.5 -21t-0.5 -14q0 -3 0.5 -11t1 -17t1 -17t0.5 -11q0 -7 -0.5 -12.5t-2.5 -13.5q-2 -7 -5 -15.5t-14 -13.5q-5 -2 -11 -2.5t-28 -0.5q-4 0 -18 -1t-19 -1t-10.5 0.5
t-10.5 0.5q-10 0 -29 -4q-18 -5 -23.5 -11.5t-11.5 -19.5q-2 -7 -3.5 -12.5t-1.5 -19.5q0 -15 9 -28q10 -13 21.5 -16t22.5 -3q5 0 10.5 0.5t10.5 0.5q12 0 29 -3q5 -1 10 -1q3 0 14 1.5t15 1.5q5 0 13 -1.5t15 -5.5t12 -11.5t5 -19.5q0 -9 -1 -14q-2 -20 -2.5 -39t-0.5 -24
v-8t1 -8q0 -2 0.5 -8t1.5 -13t1.5 -13t0.5 -9q0 -7 -1.5 -15t-6.5 -15q-7 -10 -20 -16t-14 -6q-8 -3 -25 -4.5t-56 -1.5q-8 0 -21 0.5t-27 1.5t-27 2.5t-20 2.5q-3 1 -10 3t-14.5 5t-15 5.5t-11.5 4.5q-14 5 -29.5 14.5t-21.5 14.5q-7 6 -13 13t-13 13q-3 3 -6 5.5t-6 4.5
q-18 16 -28.5 26.5t-18.5 25.5l-2 4.5t-4.5 10l-5 11t-3.5 8.5q-2 5 -3.5 10.5t-3.5 10.5q-2 6 -6 22t-5 22q0 3 -0.5 11.5t-1 18.5t-1 19t-0.5 12z" />
    <glyph glyph-name="d" unicode="d" horiz-adv-x="729" 
d="M448 625q-1 8 -2.5 16t-1.5 16q0 20 10 33t18 16q2 1 12.5 2t14.5 1q8 0 15 -1t15 -1q1 0 7 -0.5t12.5 -0.5h12h7.5t8 0.5t12.5 1t12.5 1t9 0.5t13.5 -0.5t13.5 -0.5q2 0 11 0.5t11 0.5q26 0 34 -14t8 -35v-15.5t-1 -15.5q-1 -7 -2 -13.5t-1 -13.5q0 -2 -0.5 -8.5
t-1 -14.5t-0.5 -15.5v-11.5q0 -5 1 -19t2 -30t2 -30.5t1 -20.5q0 -8 -0.5 -27.5t-1 -42t-1 -42.5t-0.5 -29q0 -3 0.5 -11.5t1 -18.5t1 -19t0.5 -12q0 -13 -0.5 -25.5t-0.5 -24.5v-9.5t0.5 -14.5t0.5 -14.5v-9.5t-0.5 -12t-0.5 -19.5t-0.5 -19.5t-0.5 -13t1.5 -16t1.5 -16
q0 -20 -4 -31t-10.5 -16.5t-14 -7t-14.5 -1.5q-5 0 -20 1t-20 1q-2 0 -11 -0.5t-12 -0.5q-4 0 -17.5 0.5t-18.5 0.5q-3 0 -11.5 -0.5t-19.5 -1.5q-10 -1 -18.5 -1.5t-12.5 -0.5q-14 0 -21.5 2.5t-11 6t-4 8t-0.5 8.5q0 11 -1.5 15.5t-7.5 4.5q-5 0 -9.5 -4t-8.5 -8
q-3 -4 -5.5 -6.5t-6.5 -5t-10.5 -5.5t-18.5 -8q-16 -7 -22 -8t-22 -1q-6 0 -12 -1t-22 -4q-5 -1 -9 -1h-9q-13 0 -31 3q-13 1 -19 3t-23 7q-11 5 -23.5 7.5t-23.5 7.5q-17 9 -30 21q-6 5 -11.5 11t-11.5 11q-8 7 -15 13t-15 13q-11 11 -19 23q-5 8 -10 17t-10 17q-5 6 -9 12
l-8 12q-5 6 -7.5 11t-4.5 10.5t-3.5 12.5t-4.5 19q-2 8 -3.5 14.5t-2 13.5t-1 16.5t-0.5 23.5q0 18 3 33q0 1 2 10.5t4.5 20.5t5 20.5t3.5 11.5q2 9 5 18t8 17q5 9 9 16q4 6 6.5 11.5t4.5 7.5q3 4 12 14.5t21.5 23t26.5 24.5t27 21q9 6 13.5 8.5t18.5 7.5q5 2 10 4.5t10 4.5
q10 3 27 6.5t33 4.5q5 1 10 1h10q10 1 19.5 2t19.5 2q11 0 28 -1.5t26 -4.5q8 -3 10.5 -3.5t10.5 -1.5q11 -2 19 -7q10 -5 13 -6t7 -1q11 0 12.5 6t1.5 11q1 4 0.5 17.5t-0.5 18.5v17zM353 352h-6.5t-10.5 -2q-7 -1 -11 -1.5t-7 -2t-7 -4t-10 -7.5q-16 -11 -23.5 -19
t-7.5 -27q0 -15 8 -29q8 -13 17.5 -18.5t18.5 -9.5q10 -4 19 -6t31 -2q5 0 7.5 0.5t12.5 3.5t20.5 5.5t19.5 8.5q16 10 18.5 24.5t2.5 27.5q0 2 -5 15q-5 11 -12.5 21t-27.5 16q-3 1 -9.5 2t-14 2t-14 1.5t-9.5 0.5z" />
    <glyph glyph-name="e" unicode="e" 
d="M519 175q9 2 17 4.5t17 4.5q10 2 15 2q17 0 26 -9t9 -23q0 -2 -0.5 -10.5t-1.5 -18.5t-1.5 -19t-0.5 -13q0 -10 1 -15q1 -8 2 -19t1 -12q0 -12 -3.5 -20t-8.5 -12.5t-10 -6t-8 -2.5q-15 -4 -28 -6.5t-27.5 -4t-32 -2t-41.5 -0.5q-7 -1 -12 -1t-9 -0.5t-5 -0.5
q-5 0 -22 -0.5t-22 -0.5q-1 0 -7.5 0.5t-14 1t-14 1l-6.5 0.5q-4 1 -7.5 2t-8.5 2t-11 1t-12 2q-7 2 -13 4t-13 4q-8 2 -14.5 2.5t-14.5 2.5q-1 0 -7 2t-12.5 4.5t-13 4.5t-7.5 2q-8 3 -15 7t-15 9q-12 6 -20 10.5t-14.5 8.5t-12 8.5t-12.5 10.5q-11 9 -22 23t-21.5 29
t-19 29t-12.5 23q-2 4 -5.5 15t-7.5 24.5t-7 28t-3 25.5v13.5t0.5 18.5t1.5 19t3 15q1 4 2 7t2 7q2 6 2.5 12t2.5 12q0 1 1.5 5.5t3 9.5t3 9.5l1.5 4.5q1 2 4.5 9.5t7.5 16t7.5 15.5t5.5 9q5 7 10.5 12.5t10.5 11.5q4 4 7 8t6 9q5 5 10.5 10t10.5 10q5 3 17.5 11.5
t20.5 12.5q8 3 15.5 5.5t15.5 6.5q7 3 13 6.5t12 5.5q4 2 17 6t24 6q2 0 10 1t17 2t16.5 1.5t10.5 0.5h16.5t28.5 -2q5 0 15.5 -1.5t22.5 -3t22.5 -3t15.5 -2.5l21 -6q7 -2 13.5 -3.5t13.5 -3.5q4 -1 14 -6.5t21 -12t20.5 -12.5t11.5 -8q7 -5 12.5 -11t11.5 -12q4 -5 8 -8.5
t8 -8.5q6 -6 9 -10t11 -18q3 -5 6.5 -10t6.5 -11q2 -4 4.5 -14t5 -21t4.5 -19.5l2 -8.5q1 -6 0.5 -12.5t0.5 -13.5q1 -8 2.5 -15t2.5 -15q1 -4 1 -12q0 -7 -1 -18t-5.5 -22t-12.5 -19.5t-23 -10.5h-67q-3 0 -12.5 -0.5t-20.5 -1.5t-21 -1.5t-14 -0.5q-7 0 -14 0.5t-15 1.5
q-7 1 -13.5 1.5t-12.5 0.5q-4 0 -16 -1t-16 -1t-13.5 0.5t-20 0.5t-20 0.5t-13.5 0.5q-10 0 -23.5 -2.5t-13.5 -17.5q0 -6 6.5 -12t16 -10.5t20.5 -7t21 -2.5q2 0 8.5 0.5t8.5 0.5t11 -0.5t11 -0.5h7t8 -1q8 -2 13 -2.5t10.5 -1t13.5 0t22 0.5h12.5t20 -0.5t20 -0.5h13.5h9z
M327 371l20 2q4 0 16 -1t15 -1q15 0 22 6.5t7 12.5q0 5 -5 12t-19 12q-7 2 -21.5 4t-21.5 2l-10 -2q-4 -1 -10 -1h-23q-14 0 -28.5 -4.5t-14.5 -23.5q0 -12 12 -15.5t20 -3.5q5 0 9 0.5t9 0.5h23z" />
    <glyph glyph-name="f" unicode="f" horiz-adv-x="396" 
d="M398 618q0 -2 0.5 -9.5t0.5 -9.5q0 -1 -1 -11t-2 -17t-3 -15t-6 -14.5t-11.5 -10.5t-20.5 -4q-5 0 -10.5 0.5t-10.5 1.5q-4 1 -17 3.5t-14 2.5q-5 0 -10 -2q-4 -2 -7.5 -5.5t-3.5 -12.5q0 -11 6 -18.5t24 -7.5q3 0 14.5 1t15.5 1t9.5 -0.5t14.5 -3.5q9 -4 12 -7.5
t5 -10.5q0 -3 0.5 -11t1 -17t0.5 -17v-11t1 -10t1.5 -15t1 -15.5t0.5 -10.5q0 -14 -2 -29.5t-9 -25.5q-8 -13 -22.5 -15.5t-16.5 -2.5q-3 0 -13 1t-13 1q-13 0 -20 -3t-10 -9t-3.5 -14.5t-0.5 -18.5q0 -4 1 -17.5t1 -18.5q0 -8 -0.5 -15t-0.5 -14q0 -4 1 -16.5t1 -17.5
q0 -2 -0.5 -9.5t-1.5 -13.5q-1 -5 -1 -12.5v-25.5v-19.5t1 -10.5t2 -11t1 -8q0 -6 -1 -13t-6 -12.5t-14.5 -9.5t-26.5 -4q-2 0 -13.5 0.5t-25.5 1.5q-14 0 -24.5 0.5t-11.5 0.5q-5 0 -16.5 -1t-25 -1.5t-25.5 -1.5t-17 -1q-20 0 -27.5 4.5t-9.5 7.5q-4 4 -6.5 8t-4.5 12.5
t-3 22.5t-1 38q0 3 0.5 13t1.5 21t1.5 21t0.5 14q0 3 -0.5 10t-0.5 15t-0.5 15.5t-0.5 10.5q0 4 1 17t1 17v7.5t0.5 15t0.5 17v12.5v15.5t-0.5 23.5t-1 23t-0.5 14q-1 9 -1 11.5v5.5q0 4 1 18.5t1 19.5q0 8 -0.5 16.5t-0.5 17.5q-3 30 -3 61q0 17 1.5 34.5t6.5 34.5
q5 20 12.5 31t24.5 31q10 11 32 27t47 22q6 1 11.5 1.5t11.5 2.5q6 1 12.5 2.5t13.5 2.5q7 2 13.5 2h13.5q5 0 20.5 -0.5t20.5 -0.5h28q17 0 32.5 -1.5t37.5 -9.5q9 -3 16 -7t11 -10.5t6 -17t2 -28.5v-19z" />
    <glyph glyph-name="g" unicode="g" horiz-adv-x="708" 
d="M681 201q0 -5 -0.5 -16.5t-1 -24.5t-1 -25t-0.5 -17q0 -3 0.5 -14.5t0.5 -15.5v-8t-1 -8q-2 -7 -2 -9.5t-1 -8.5q-2 -8 -7 -22t-15 -29q-9 -13 -15 -21t-11 -13t-10 -9.5t-12 -9.5q-8 -6 -16 -11.5t-23.5 -9.5t-41 -7.5t-66.5 -4.5q-4 0 -14 -1t-22 -2t-22.5 -2t-14.5 -1
q-11 0 -21.5 0.5t-21.5 0.5h-15q-2 0 -7 0.5t-10 0.5q-3 0 -12 0.5t-19 1t-19 1t-12 0.5q-9 1 -17.5 2t-16.5 2q-11 1 -18 2t-13 2t-12.5 3t-16.5 5q-9 3 -17.5 6t-16.5 5q-20 6 -38.5 15.5t-18.5 30.5l0.5 4.5t1 10l1 11t0.5 8.5q2 13 2 26.5v26.5q0 16 11 24t24 8t36 -7
t44 -15q12 -5 19.5 -7.5t13 -4t10.5 -2t13 -0.5q8 -1 16.5 -1t16.5 -1q4 0 18.5 -2t19.5 -2q2 0 6.5 0.5t6.5 0.5t6 -0.5t6 -0.5t4 0.5l10 2.5q2 0 8.5 0.5t13.5 1.5t13.5 1.5t9.5 1.5q16 2 19 9.5t3 8.5q0 6 -5.5 11.5t-12.5 5.5q-1 0 -14 -2t-17 -3q-12 -1 -20 -1h-31
q-2 0 -12 -0.5t-13 -0.5q-1 0 -6 0.5t-11 0.5t-11 0.5t-7 0.5q-5 0 -9.5 0.5t-10.5 2t-16 4.5t-26 8q-18 5 -29 8.5t-18.5 6.5t-14 6.5t-15.5 8.5q-12 6 -17 10t-18 16q-5 5 -9 8t-9 7q-11 9 -20.5 24.5t-17 33.5t-12 37t-4.5 35q0 10 0.5 19t1.5 18q0 3 0.5 11t1 17
t1.5 17.5t2 11.5q14 49 50 84q15 14 23.5 22.5t14.5 13.5t9.5 7.5t8.5 5.5q10 5 20.5 7.5t21.5 6.5q6 2 11.5 5t11.5 5q5 2 20 5t32 3h18q7 -1 13.5 -1h16.5q17 0 39.5 -1t45.5 -9q27 -10 38 -18.5t16 -14.5l6 -6t7 -3q5 0 6.5 3t2.5 6q0 4 1 10.5t5 12t12 9.5t23 4
q4 0 13 -0.5t19.5 -1.5t19.5 -1.5t13 -0.5h9.5t9.5 1q4 0 18.5 2t19.5 2q23 0 36.5 -6t20.5 -14.5t9 -17t2 -12.5t-0.5 -13.5t-1.5 -21t-1.5 -21.5t-0.5 -14t1 -15t1.5 -23t1.5 -23t1 -15t-0.5 -15t-1.5 -23.5t-1.5 -23.5t-0.5 -16t0.5 -18.5t1.5 -29t1.5 -29.5t0.5 -20z
M260 329q0 -15 8 -23.5t18.5 -12.5t20 -4.5t13.5 -0.5h49q14 0 21.5 2.5t18.5 10.5q9 6 13.5 12t4.5 16q0 15 -7 21t-20 13q-5 2 -16.5 7t-24.5 5q-3 0 -12.5 -1t-12.5 -1t-12.5 1t-12.5 1q-4 0 -12 -1.5t-16.5 -6.5t-14.5 -14t-6 -24z" />
    <glyph glyph-name="h" unicode="h" 
d="M28 664q0 17 9 27q3 3 5.5 6t7.5 4.5t13.5 2.5t22.5 1h12t12 -1q3 0 6.5 -0.5t6.5 -0.5q2 0 9 0.5t9 0.5q4 0 17.5 -1.5t18.5 -1.5t15.5 0.5t22.5 2.5q8 1 10 1h5q11 0 23.5 -3.5t18.5 -11.5q5 -6 7 -18.5t2 -17.5q0 -2 -0.5 -11t-0.5 -11t0.5 -8.5t0.5 -8.5
q0 -4 -1 -13.5t-1.5 -20t-1.5 -19.5t-1 -13q0 -14 5 -16t7 -2q5 0 9 3t9 7q3 2 10 6.5t15 7.5q3 1 11 3q5 2 9 4.5t9 4.5q1 0 7.5 1.5t15.5 3t18 2.5t14 1q3 0 14 -1t14 -2q2 0 6.5 0.5t6.5 0.5q9 0 20.5 -3.5t22 -7.5t18.5 -7.5t9 -4.5q2 -1 14.5 -9.5t18.5 -15.5
q7 -8 16 -22.5t17.5 -34.5t14.5 -43t7 -47q1 -3 0.5 -15t-0.5 -16v-9t1 -9t1.5 -8.5t0.5 -8.5q1 -6 1 -12v-12q0 -4 0.5 -7.5t0.5 -7.5v-10t-1 -10q0 -2 0.5 -11t0.5 -11q0 -3 -1 -13.5t-2 -15.5t-1 -10.5v-10.5q0 -3 0.5 -14.5t0.5 -15.5q0 -2 -0.5 -8t-1 -12.5t-1 -12.5
t-0.5 -9q0 -16 3 -29q1 -10 2.5 -19.5t1.5 -18.5q0 -17 -9 -31.5t-37 -14.5q-4 0 -15 0.5t-24 2.5q-12 1 -23 1.5t-16 0.5q-3 0 -11 -0.5t-17 -1.5t-17 -1.5t-12 -0.5q-9 0 -25 2t-24 4q-28 8 -28 34q0 2 2 11t2 12q0 4 -0.5 17.5t-0.5 17.5q0 3 0.5 9.5t1 14t1 14t0.5 9.5
q0 4 -1.5 16.5t-1.5 16.5q-1 5 -1 10v10v8.5t0.5 14t0.5 14v9.5q0 27 -6 41.5t-14 21.5t-15 8.5t-8 1.5q-16 0 -25 -5t-14 -19q-1 -3 -2.5 -11t-2.5 -16.5t-2 -16t-1 -10.5q0 -4 1.5 -16.5t1.5 -17.5v-37v-8t-1 -9q0 -1 -1 -6.5t-2 -9.5q0 -3 -0.5 -6t-0.5 -7t0.5 -7.5
t0.5 -8.5q0 -3 1 -10.5t2 -16t1.5 -16.5t0.5 -11q0 -29 -11 -40t-35 -11q-6 0 -14 0.5t-16 1.5q-8 0 -15.5 0.5t-14.5 0.5q-2 0 -10 -0.5t-11 -0.5q-4 0 -17.5 0.5t-18.5 0.5h-10q-5 -1 -10 -1.5t-10 -1.5q-4 -1 -12 -1t-13.5 1t-8.5 2q-9 5 -15 13t-8 11q-1 3 -2 9.5
t-1.5 14t-0.5 13.5v6q1 10 1 15v14q0 1 1 10.5t1 11.5q0 3 0.5 10t0.5 15v15.5v11.5q0 3 -0.5 10t-1 15t-1 15t-0.5 10t1 13t1 13v14q0 3 0.5 14t0.5 14q0 8 -0.5 14.5t-0.5 13.5v18q0 3 -0.5 11.5t-1.5 18.5t-1.5 18.5t-0.5 12.5q0 3 0.5 9.5t1 14t1.5 14t1 9.5v30
q0 3 0.5 10t0.5 15t0.5 15t0.5 10q0 6 -0.5 21t-0.5 32.5t-0.5 33t-0.5 21.5v34z" />
    <glyph glyph-name="i" unicode="i" horiz-adv-x="313" 
d="M139 590q-3 0 -13.5 0.5t-13.5 0.5q-2 0 -8 -0.5t-13 -0.5t-13 -0.5t-9 -0.5q-20 0 -28 7t-9 23q-1 7 -1 24v31t4.5 20t6.5 8q5 4 11 4.5t23 0.5q3 0 14.5 0.5t15.5 0.5q3 0 9.5 -0.5t14.5 -1t14.5 -1t9.5 -0.5t13 0.5t13 1.5q5 0 8.5 -0.5t8.5 0.5q3 0 14 1t14 1
q21 0 27 -1.5t13 -5.5q5 -4 8 -8.5t5 -21.5q0 -3 0.5 -11.5t0.5 -17.5v-16.5v-8.5q0 -15 -9.5 -22t-24.5 -7q-3 0 -14.5 1t-15.5 1q-5 0 -20.5 -1t-20.5 0h-35zM280 279q0 -3 -0.5 -10.5t-1 -16.5t-1 -17t-0.5 -11t1 -15.5t1 -16.5v-12q-1 -4 -0.5 -17.5t0.5 -18.5
q0 -3 -0.5 -14t-0.5 -15q0 -3 0.5 -11t1.5 -17t1.5 -17t0.5 -11q0 -23 -8 -35t-18.5 -17.5t-20 -6.5t-13.5 -1q-3 0 -11 0.5t-17 1t-17.5 1t-12.5 0.5t-14.5 -0.5t-22.5 -1.5t-23 -1.5t-15 -0.5q-11 0 -23 2.5t-22 9.5q-18 12 -18 57q0 3 0.5 11t1 17t1 17.5t0.5 11.5
l-0.5 5.5t-1 12.5t-1 14.5t-0.5 13.5v35v10.5v9.5t0.5 12t1.5 19q1 11 1.5 29t0.5 30q0 6 -0.5 12t-0.5 12l-2.5 17.5t-0.5 8.5v9.5t0.5 14.5t0.5 15v10v13t0.5 21t0.5 21v14v31q0 5 -1 10t-1 10q0 13 5.5 20.5t14 11.5t18 5t17.5 1q2 0 9.5 -0.5t9.5 -1.5q2 0 9.5 0.5
t9.5 0.5q4 0 17 -1t18 -1l39 1q4 0 18.5 1.5t19.5 1.5q17 0 26.5 -4t14.5 -14t6.5 -25.5t1.5 -39.5q0 -4 -0.5 -15.5t-1 -24t-1 -24.5t-0.5 -16t0.5 -14.5t1 -22t1 -22t0.5 -14.5v-58z" />
    <glyph glyph-name="j" unicode="j" horiz-adv-x="333" 
d="M54 672q0 12 7 20t8 8q3 1 9 2t13 2t14 1h10q4 0 12.5 -0.5t18.5 -0.5q10 -1 18.5 -1.5t12.5 -0.5t15.5 0.5t24.5 1.5t24 1.5t16 0.5q17 0 26.5 -3t14 -7.5t5.5 -8.5t1 -7q1 -6 1 -15v-41q0 -5 -0.5 -10.5t-4 -11t-11.5 -9t-22 -3.5q-3 0 -12 0.5t-12 0.5t-10 -0.5
t-15.5 -1t-16 -1t-10.5 -0.5t-12 0.5t-18.5 0.5t-18.5 0.5t-12 0.5q-4 0 -16.5 -1t-17.5 -1q-27 0 -34.5 8t-7.5 28q0 3 0.5 13t0.5 13q0 2 -0.5 11t-0.5 11zM54 395q1 8 2 15.5t2 15.5q0 4 0.5 7t0.5 7t-1 14.5t-2 22.5t-2 22.5t-1 15.5q0 20 6 32q9 18 23.5 21t38.5 3
q2 0 12 -1t13 -1h7.5t14 -0.5t14 -0.5h8.5q5 0 21.5 1.5t21.5 1.5h34q15 0 23 -6t11.5 -15.5t4.5 -22t1 -24.5v-10t-0.5 -15t-0.5 -15.5v-10.5v-29q0 -3 -0.5 -11.5t-1.5 -18.5t-1.5 -18.5t-0.5 -12.5t0.5 -13.5t1.5 -21t1.5 -21.5t0.5 -14q0 -3 -0.5 -12t-0.5 -19.5
t-0.5 -19.5t-0.5 -13q0 -7 0.5 -26t1.5 -39q1 -24 3 -52q0 -3 -1 -14.5t-1 -15.5q-1 -11 -1 -23t-3 -23q-1 -1 -6.5 -16.5t-12.5 -24.5q-6 -8 -12 -14q-5 -5 -12 -11t-13 -9q-1 0 -6 -2t-11 -4.5t-11.5 -4.5t-6.5 -2q-5 -2 -14 -3.5l-18 -3t-17 -2.5t-12 -1h-8.5t-13.5 0.5
t-13 0.5h-9q-2 0 -18.5 1t-36 6.5t-35.5 17t-16 32.5v13.5t0.5 21t0.5 21.5v14q0 3 -0.5 10.5t-0.5 16t-0.5 16t-0.5 10.5q0 14 0.5 18.5t2.5 14.5q2 6 7 13t18 7q2 0 8 -1.5t8 -1.5q1 0 6.5 2t5.5 10q0 4 -0.5 17.5t-0.5 18.5t0.5 18t0.5 27.5t0.5 27.5t0.5 19l-0.5 5
t-0.5 11t-0.5 11t-0.5 6q-1 4 -1 10.5v25.5v18z" />
    <glyph glyph-name="k" unicode="k" 
d="M29 367q0 4 -0.5 16t-1 25.5t-1 25.5t-0.5 17v12t1 12q0 5 1 18t1.5 28t1.5 28.5t1 19.5v15t-1 14q-2 19 -2.5 24t-0.5 13q0 15 1.5 28.5t7 23.5t15.5 15.5t27 5.5h10t15.5 -0.5t16.5 -0.5h11t10 0.5t15 0.5t15.5 0.5t10.5 0.5q7 0 13.5 -0.5t13.5 -0.5q4 0 18 0.5
t18 0.5q6 0 13 -1.5t14 -10.5q4 -5 6 -13.5t3 -16.5t1.5 -14t0.5 -7q0 -4 -0.5 -13t-1 -19t-1 -18.5t-0.5 -9.5q0 -8 1 -14.5t2 -14.5q0 -7 0.5 -14t0.5 -14q0 -4 -0.5 -14t-0.5 -21t-0.5 -21.5t-0.5 -14.5q0 -17 2 -29t14 -12t21.5 11t17 24t12 24.5t4.5 12.5q1 4 3 18
t4 19l2 6t3 7q2 8 4 12t11 13t29 9h11q3 -1 6 -1h5t7.5 0.5t11.5 0.5q7 1 12.5 1h7.5h9.5t14.5 -0.5t15 -0.5h10t10.5 0.5t16.5 0.5t16.5 0.5t10.5 0.5q14 0 22.5 -3.5t16.5 -13.5q9 -12 9 -26q0 -5 -1 -9.5t-2 -9.5q-2 -8 -4 -13t-9 -22q-2 -3 -5.5 -13t-7 -21.5
t-7.5 -21.5t-5 -14l-8 -20t-9 -19q-2 -2 -6 -8t-9 -14q-5 -9 -12 -19q-14 -19 -17 -25t-3 -15q0 -8 4.5 -15.5t9.5 -15.5q6 -8 14.5 -18t13.5 -18q3 -5 5 -7.5t7 -9.5q3 -3 7 -11q1 -3 4 -9.5t6 -14.5t6 -14.5t5 -9.5q2 -5 6.5 -12t9.5 -14.5l9 -13.5t6 -7q2 -4 5 -6.5
t5 -6.5q1 -1 7 -13t6 -23q0 -27 -17 -38q-2 -2 -13.5 -6.5t-19.5 -4.5q-2 0 -9.5 0.5t-16 1.5t-16.5 1.5t-11 0.5q-2 0 -8.5 -0.5t-8.5 -0.5q-4 0 -18 1.5t-18 1.5t-15 -1t-23 -2t-23 -2t-15 -1q-17 0 -28.5 11t-15.5 16t-7 11t-8 12q-4 5 -8 9.5t-8 9.5q-6 8 -10 16t-9 17
q-4 8 -11 18.5t-21 10.5q-2 0 -9.5 -2.5t-7.5 -16.5v-32v-6.5t1 -7.5q1 -5 1.5 -10.5t0.5 -10.5q0 -8 -4 -18q-2 -4 -3 -8q-4 -7 -10 -10.5t-12.5 -5t-12 -2t-8.5 -0.5q-4 0 -14 0.5t-21.5 1.5t-22.5 1.5t-15 0.5h-10.5t-10.5 -1q-12 -1 -24 -2.5t-24 -1.5q-27 0 -44.5 12
t-17.5 42q0 2 0.5 8t1 12.5t1 12.5t0.5 9l-0.5 6.5t-1 15t-1 17.5t-0.5 16q0 5 0.5 19.5t0.5 19.5q0 3 -0.5 11t-1 17t-1 17.5t-0.5 11.5t0.5 10t1 14.5t1.5 14.5t1 10v71z" />
    <glyph glyph-name="l" unicode="l" horiz-adv-x="313" 
d="M196 703q3 0 9.5 0.5t14.5 1t15 1t10 0.5q8 0 12 -0.5t8 -2.5l3.5 -2t7.5 -7.5t7.5 -14.5t3.5 -22q0 -4 -1 -19.5t-1 -20.5q-1 -11 -0.5 -22t-0.5 -22q-1 -5 -1.5 -10.5t-0.5 -10.5q0 -3 1.5 -13.5t1.5 -14.5q1 -3 0.5 -13.5t-0.5 -13.5q0 -5 0.5 -20.5t0.5 -20.5
q0 -3 -1 -10.5t-1.5 -16t-1.5 -16t-1 -10.5t1 -13.5t1 -13.5q1 -5 1 -18q0 -4 0.5 -16t0.5 -16q0 -2 -0.5 -8t-1 -12.5t-1 -12.5t-0.5 -9t0.5 -10.5t1 -15.5l1 -16t0.5 -11q0 -2 -0.5 -8.5t-0.5 -14t-0.5 -14.5t-0.5 -10q0 -2 0.5 -10t0.5 -10t-0.5 -11.5t-0.5 -12.5v-1
q1 -17 3.5 -32.5t4.5 -32.5v-10q0 -21 -5.5 -33t-7.5 -14q-3 -4 -10 -8.5t-13 -6.5q-3 -1 -15 -1.5t-14 -0.5h-9q-1 0 -9 0.5t-17.5 0.5t-17.5 0.5t-9 0.5q-4 0 -14 -0.5t-21 -1.5t-21.5 -1.5t-14.5 -0.5q-3 0 -9.5 0.5t-14.5 2.5t-16.5 6.5t-15.5 12.5q-5 5 -9 13.5
t-4 31.5q0 1 0.5 10.5t0.5 20t0.5 19t0.5 9.5q1 11 2 23t2 23q0 8 0.5 25t0.5 25q0 2 -0.5 11t-0.5 12q0 2 1 13t1 14t-0.5 11t-1 17.5t-1 18t-0.5 11.5t0.5 12t1.5 18.5t1.5 18.5t0.5 13t-0.5 13.5t-1 20t-1 20.5t-0.5 14v14.5t0.5 22.5t0.5 22.5v15.5q0 4 1 17.5t1 18.5
q0 4 -0.5 7.5t-0.5 7.5q0 3 -1 12.5t-2 19.5t-1.5 18.5t-0.5 11.5q0 5 3 19q3 10 10 23.5t27 16.5q3 1 13.5 0.5t14.5 -0.5q2 0 8.5 0.5t8.5 0.5t7 -0.5t7 -0.5t11 0.5t11 0.5q3 0 9.5 -0.5t14 -1t14.5 -1t10 -0.5z" />
    <glyph glyph-name="m" unicode="m" horiz-adv-x="938" 
d="M29 296v9t1 9q0 4 1.5 17.5t1.5 17.5q0 12 -1 23.5t-2 23.5q-1 13 -1 25q-1 11 -1 21.5v16.5q0 3 0.5 15t0.5 16q0 2 -1 10.5t-1 10.5q0 30 9.5 45.5t40.5 15.5q2 0 13 -0.5t16 -1.5q9 -1 25.5 -1h26.5q3 0 10 0.5t15 1.5t15 1.5t10 0.5q6 0 15.5 -1t17.5 -5
q10 -5 13 -12t3 -14q1 -8 4 -13.5t10 -5.5q4 0 8 7q2 2 4.5 5t4.5 5q9 10 25.5 20t27.5 13q5 1 9 1t8 1l15 3q10 2 15 2q11 0 27.5 -1.5t25.5 -3.5l12 -4l12 -4t12 -3t11 -3q6 -3 17 -9.5t15 -9.5q8 -5 15 -11.5t16 -7.5h2q5 0 7 1.5t9 7.5q10 9 30 22t32 18q2 1 9.5 2.5
t16.5 3t17.5 2.5t11.5 1t12.5 -1t11.5 -1q4 -1 7.5 -0.5t7.5 -0.5q10 0 18 -2.5t24 -8.5q20 -8 28.5 -11t18.5 -10q6 -5 11.5 -10t11.5 -10q5 -4 8.5 -7t7.5 -7q12 -11 20.5 -28.5t13.5 -34.5q2 -5 2.5 -9.5t2.5 -9.5q2 -6 4.5 -11t4.5 -11q2 -5 3.5 -12t3 -14.5t2 -14
t0.5 -8.5q1 -4 0.5 -15.5t-0.5 -15.5q0 -2 1 -7t1 -7t-1.5 -9.5t-1.5 -9.5v-57q0 -3 0.5 -12t0.5 -19t0.5 -19.5t0.5 -13.5q0 -3 -0.5 -11t-1 -17.5t-1 -18t-0.5 -11.5q0 -9 1 -18.5t3 -29.5q3 -15 3 -34q0 -13 -3.5 -20t-9 -10.5t-12 -4.5t-12.5 -1q-2 0 -7.5 0.5
t-11.5 1.5q-7 1 -12.5 1.5t-7.5 0.5q-5 0 -21 -1.5t-21 -1.5q-2 0 -9 0.5t-15 0.5q-8 1 -14.5 1h-9.5q-2 0 -9.5 -0.5t-15.5 -0.5q-8 -1 -15.5 -1.5t-10.5 -0.5q-11 0 -21.5 4t-15.5 13q-4 6 -5 14.5t-1 36.5q0 4 1.5 19t1.5 20v31q-1 8 -2 16.5t-2 16.5q-1 17 -1 30v33
q0 3 0.5 13t0.5 14q0 9 -2 19t-5 15q-4 4 -10.5 8t-12.5 4q-5 0 -11.5 -2.5t-8.5 -4.5q-8 -5 -11 -14.5t-3 -19.5v-7.5t0.5 -12t0.5 -12.5v-9v-45.5t-1 -16.5q0 -2 -1 -8t-2 -12.5t-1.5 -12.5t-0.5 -9q0 -6 0.5 -11.5t1.5 -11.5q0 -4 1 -10.5t1.5 -13.5t1 -13t0.5 -7
q0 -18 -4.5 -29t-12.5 -16t-18.5 -6.5t-22.5 -1.5h-18t-18 2l-16 2t-16 1l-45 -2q-4 -1 -15.5 -2t-15.5 -1q-18 0 -32.5 8.5t-14.5 34.5q0 2 1 8t1 8q0 5 -1.5 11t-1.5 12v7.5t1 8.5q0 3 -0.5 12.5t-0.5 12.5t1 13t1 13v15q0 2 0.5 11t0.5 12q0 4 -1 16.5t-1 17.5
q0 2 1.5 12t1.5 13q0 2 -1 6.5t-1 6.5v8q0 8 -3 18.5t-8 15.5q-2 2 -11.5 7.5t-14.5 5.5q-11 0 -20 -11t-9 -32q0 -4 1 -15.5t1 -15.5v-14q0 -2 0.5 -10.5t0.5 -11.5v-9q0 -2 0.5 -7t0.5 -7q0 -1 -0.5 -9.5t-0.5 -10.5q0 -4 -0.5 -7t-1.5 -7q-1 -3 -2 -17t-1 -21q0 -4 2 -18
t2 -19q0 -3 -1.5 -13.5t-2.5 -13.5q-1 -8 -1.5 -15t-3.5 -13q-5 -10 -13.5 -13.5t-17.5 -3.5q-8 0 -15 1.5t-15 2.5q-5 1 -8.5 1h-8.5h-12.5t-20.5 -0.5t-20.5 -0.5h-12.5q-11 -1 -20.5 -2.5t-20.5 -1.5q-16 0 -29 5q-11 4 -18 11t-7 27q0 2 0.5 9t0.5 14.5t0.5 14t0.5 9.5
t-0.5 10.5t-1 16.5t-1 17t-0.5 11v36v14t-0.5 21.5t-0.5 22v15.5v44z" />
    <glyph glyph-name="n" unicode="n" horiz-adv-x="667" 
d="M324 319q-16 0 -23.5 -9.5t-9.5 -18.5q-2 -7 -2 -14.5t-1 -14.5q0 -2 -1 -8.5t-2 -11.5t-1.5 -9t-0.5 -9q0 -6 0.5 -10t2.5 -21q1 -8 1.5 -16.5t0.5 -16.5q0 -3 -0.5 -11.5t-1 -17.5t-1 -17.5t-0.5 -12.5v-8q0 -3 1.5 -11t2.5 -17t2 -17t1 -11q0 -4 -2.5 -15.5
t-16.5 -18.5q-2 -1 -12 -3.5t-15 -2.5q-3 0 -12 1t-18.5 2.5t-18.5 2.5t-12 1q-2 0 -8 -1t-12.5 -1.5t-12 -1.5t-8.5 -1q-4 0 -17 1t-18 1q-2 0 -7.5 -0.5t-12 -1t-12 -1t-8.5 -0.5q-17 0 -25.5 5.5t-13 13.5t-5 17t-0.5 16q0 4 0.5 16t1.5 25t2 25t1 17q0 6 0.5 16.5
t1 21.5t0.5 20v12t-0.5 12t-1.5 19t-1.5 19t-0.5 13q0 3 0.5 5.5t1.5 11.5q0 6 0.5 17t1 23t1 22.5t0.5 16.5q0 18 -2.5 43t-4.5 43q-3 20 -3.5 25.5t-0.5 12.5q0 24 6 46t17 30q6 5 16.5 8.5t18.5 3.5q6 0 12.5 -1t13.5 -2h8.5t11.5 -0.5t10.5 -0.5h4.5q2 0 7 0.5t11 0.5
q6 1 11.5 1h7.5h12h4q2 -1 4 -1h5q9 0 13 1h13q23 0 28 -10t8 -30q1 -8 3 -10.5t4 -2.5t4.5 2t11.5 13q13 16 31.5 26t36 15t31 7t17.5 2q11 0 22.5 -2t23.5 -3h20t16 -1q20 -2 36 -11.5t26 -17.5t17 -14t12 -12t9.5 -13.5t10.5 -18.5q2 -4 10 -16.5t10 -17.5
q1 -3 2.5 -13.5t2.5 -13.5q2 -8 3 -16l2 -16v-54q1 -14 2.5 -28.5t2.5 -28.5q0 -2 0.5 -14t1.5 -26t1.5 -25.5t0.5 -12.5q0 -20 -3 -39q-2 -14 -3 -22.5t-1.5 -14t-0.5 -9.5v-8q0 -8 0.5 -15.5t1.5 -15.5q1 -7 2 -13.5t2 -14.5q1 -4 1 -11q0 -13 -5 -24t-7 -13
q-5 -6 -14.5 -8.5t-17.5 -2.5q-4 0 -17.5 1t-17.5 1q-3 0 -10 -0.5t-15 -1.5t-15 -1.5t-10 -0.5q-2 0 -8 0.5t-13 1.5q-7 0 -13 0.5t-9 0.5h-7.5t-12.5 -1q-6 0 -12 -0.5t-8 -0.5q-7 0 -17 1.5t-20 9.5q-9 7 -12 16t-3 18q0 3 1 10t2 15.5t2 16t1 10.5t-0.5 16t-0.5 18
q0 2 0.5 8.5t1 13.5t1 13.5t0.5 9.5t-0.5 10.5t-1.5 15.5t-2 15.5t-1 10.5v13q0 15 -3 29.5t-9.5 26t-16 18.5t-21.5 7z" />
    <glyph glyph-name="o" unicode="o" horiz-adv-x="708" 
d="M330 -13q-2 0 -3 -0.5t-2 -0.5h-3l-5.5 0.5t-12 1t-12 1l-5.5 0.5q-5 0 -10 1.5t-10 1.5q-6 2 -12 1.5t-12 1.5q-12 2 -23.5 8t-22.5 12q-8 4 -15 7t-15 7q-10 4 -16.5 8t-13 9.5t-14.5 13.5t-20 21q-4 4 -7 7.5t-7 7.5q-4 3 -8 7.5t-7 8.5q-2 2 -4.5 4t-4.5 4
q-1 1 -4 5.5l-7 10.5t-7 11t-4 7q-5 10 -9.5 24.5t-6.5 19.5q-1 5 -1.5 11t-1.5 11q-2 11 -6 21.5t-6 21.5q-1 5 -1 10.5v10.5q0 2 0.5 18t3.5 28q2 6 3.5 12t3.5 11q2 6 3 12.5t3 11.5l6 15q2 5 3.5 9.5t3.5 9.5q4 8 10 14.5t11 14.5t9.5 16t10.5 15q2 4 5 7l5 5
q33 31 57 48q2 1 8.5 4t13.5 6t13 6t9 4q12 6 19 9t12.5 5.5t11 3.5t13.5 3q16 3 22 4t22 3q6 1 11.5 1.5t10.5 1.5q18 3 44 3h12t13 -1q2 0 11.5 -0.5t12.5 -1.5q2 0 8 -1.5t12.5 -3.5t12.5 -3.5t9 -1.5q18 -3 29 -5t17.5 -3.5t11 -3.5t10.5 -5q32 -16 50.5 -29.5
t36.5 -34.5q1 -1 10.5 -11.5t18.5 -18.5q3 -3 8.5 -9t11.5 -17q4 -8 6.5 -15t5.5 -14q5 -11 10.5 -20.5t8.5 -20.5q2 -6 2.5 -12.5t1.5 -12.5q4 -11 5 -19q1 -4 2 -19t1 -22q0 -5 -1 -18.5t-2 -18.5q-1 -3 -3 -9.5t-4 -13.5t-4 -13.5t-3 -9.5l-3 -15q-1 -3 -4 -9l-6.5 -13
t-6.5 -13.5t-5 -9.5q-5 -7 -11.5 -16t-11.5 -16q-5 -8 -10.5 -15.5t-12.5 -13.5q-2 -2 -7.5 -6t-12 -8.5t-12.5 -8.5t-8 -6q-8 -6 -15.5 -13.5t-15.5 -12.5q-3 -2 -16 -8.5t-21 -8.5q-5 -2 -11 -2.5t-11 -2.5q-5 -1 -10 -2.5t-10 -3.5q-1 0 -7 -1t-13 -2t-13 -2.5t-7 -1.5
h-32q-2 0 -11.5 -0.5t-12.5 -0.5q-1 0 -4.5 0.5t-8.5 0.5q-4 1 -7.5 1h-5.5h-7zM369 353q-2 0 -10 -1.5t-10 -1.5t-7 0.5t-7 0.5h-6.5t-6.5 -1q-5 -2 -8.5 -3.5t-14.5 -9.5l-12 -9q-9 -8 -14.5 -20t-5.5 -24q0 -23 14.5 -36.5t29.5 -18.5q5 -2 9.5 -2.5t9.5 -2.5
q16 -6 23 -6q5 0 9 1t9 1q13 2 17 3t10 3q9 3 15.5 6.5t17.5 14.5q6 6 11.5 16.5t5.5 20.5q0 3 -4 15q-3 8 -5 13t-5 8.5t-9 7t-16 9.5q-18 11 -24 13.5t-16 2.5z" />
    <glyph glyph-name="p" unicode="p" horiz-adv-x="729" 
d="M28 229q0 5 0.5 20t0.5 20q0 2 -0.5 8.5t-0.5 13.5t-0.5 13.5t-0.5 9.5v8.5t0.5 14t0.5 14v9.5t0.5 13.5t0.5 13.5q-1 6 -1 10v10v29v12t-1 13q0 2 -0.5 8.5t-1.5 14t-1.5 14.5t-0.5 10q0 4 0.5 14.5t5 20.5t14 18t27.5 8h30q8 -1 16.5 -1.5t16.5 -0.5q2 0 8 0.5t12.5 1
t12 1t8.5 0.5q5 0 10.5 -0.5t10.5 -0.5q2 0 10.5 0.5t10.5 0.5q17 0 26 -7.5t9 -8.5q3 -3 5 -6.5t4 -7.5l4.5 -4.5t6.5 -2.5q5 0 11 4q5 3 9 6.5t9 5.5q4 2 18.5 8t19.5 8t10.5 4t10.5 3h8t9 1t10 2.5t10 2.5q1 0 6 0.5t11 0.5t11 0.5t6 0.5q10 0 24 -2t26.5 -4.5t22 -5
t12.5 -3.5l24 -9t21 -9q6 -3 11.5 -7t10.5 -8q7 -4 14 -7q4 -2 7 -4.5t14 -12.5q4 -4 7 -8.5t7 -8.5q3 -4 11 -10q12 -12 21 -27t12 -21q2 -3 7 -14.5t11 -23.5t10.5 -22t4.5 -11q1 -5 2.5 -15t3 -21.5t2 -23t0.5 -19.5t-0.5 -15t-1.5 -14q-1 -3 -2.5 -12t-4 -19t-4.5 -18.5
t-3 -11.5q-2 -6 -8.5 -21t-9.5 -21q-4 -7 -8 -12.5t-7 -12.5q-7 -10 -13 -25q-14 -22 -36.5 -41t-40.5 -27l-12 -6q-5 -2 -10 -5.5t-10 -6.5l-6 -2t-12.5 -4.5t-12.5 -5t-7 -2.5q-14 -5 -24.5 -6t-34.5 -1q-4 0 -16.5 -1t-17.5 -1h-33q-11 0 -28.5 2t-43.5 10q-3 1 -12.5 5
t-13.5 4t-8 -4t-4 -10q0 -2 1 -8.5t1.5 -15t1.5 -16t1 -10.5q0 -24 -15.5 -31t-34.5 -7q-3 0 -11.5 0.5t-18.5 1.5q-10 0 -18.5 0.5t-12.5 0.5q-2 0 -8 -0.5t-12.5 -0.5t-12 -0.5t-8.5 -0.5q-9 0 -18 1t-18 1q-3 0 -14 -0.5t-14 -0.5q-21 0 -28 6.5t-7 35.5q0 3 1 9.5
t1.5 13.5t1.5 13.5t1 9.5t-0.5 10.5t-1 15.5l-1 16t-0.5 11q0 2 0.5 8t0.5 12.5t0.5 12.5t0.5 9v14q-1 3 -0.5 13t0.5 13q0 5 -1 20t-1 20q0 10 0.5 19t0.5 18v16zM455 288q0 10 -4 20q-2 4 -3 9q-4 6 -19.5 19t-35.5 13q-7 0 -13 -1.5t-13 -1.5q-2 0 -11.5 1.5t-11.5 1.5
q-17 0 -26 -5.5t-17 -11.5q-10 -9 -16 -17.5t-6 -27.5q0 -24 6.5 -32.5t12.5 -13.5t10.5 -7t10 -3.5t12.5 -1.5h19h8t13 -2q10 -2 13 -2h5q9 0 20 4.5t21.5 12.5t17.5 20t7 26z" />
    <glyph glyph-name="q" unicode="q" horiz-adv-x="729" 
d="M448 -7q0 8 -5.5 16t-15.5 8q-6 0 -12 -2t-14 -6q-20 -9 -33 -11.5t-37 -5.5q-10 -2 -15 -2t-19 1q-2 0 -10.5 -0.5t-11.5 -0.5q-6 0 -9 1q-5 0 -9 1t-9 2l-15 3l-10.5 3.5t-16 6t-15 6t-8.5 3.5q-8 5 -17.5 10.5t-15.5 10.5l-7.5 7.5t-7.5 6.5q-5 5 -11 8t-11 8
q-7 5 -16.5 14.5l-14.5 14.5q-4 5 -7 10.5t-8 10.5q-2 3 -5.5 6t-5.5 7q-4 5 -11 17.5t-12 26.5l-6 24l-4 10l-4 10q-3 8 -5.5 23t-2.5 32v10v15.5t0.5 16.5t1.5 13q2 12 7 23.5t8 23.5q2 7 4 13.5t4 14.5q5 14 12.5 28t12.5 20q2 4 12 14.5t13 14.5l15 18q8 8 21.5 18.5
t18.5 13.5l22 12q8 5 15 8t8 4q16 8 38.5 15t39.5 9q1 0 7.5 0.5t15 1t15.5 1t8 0.5q5 0 9.5 -0.5t9.5 -1.5l12 -2t12 -3q18 -2 35.5 -7t34.5 -21q2 -2 10.5 -9t10.5 -7t4.5 4t4.5 6q1 2 1 4.5t2 4.5q2 5 6.5 11t10.5 9q5 2 22.5 4.5t29.5 2.5q3 0 11 -0.5t17 -0.5
q9 -1 17 -1.5t11 -0.5q4 0 13 0.5t20 1.5q11 0 20 0.5t13 0.5q6 0 15.5 -1t18 -5t15 -12.5t6.5 -24.5q0 -1 -1 -9t-2 -13q-1 -8 -1 -12t-1 -17q0 -4 -1.5 -17t-1.5 -18q0 -1 0.5 -11t1 -22t1 -22.5t0.5 -11.5q1 -5 1.5 -10t0.5 -10q1 -4 0.5 -16t-0.5 -16q0 -12 1 -24.5
t1 -25.5q0 -4 -0.5 -17.5t-0.5 -18.5q0 -16 1.5 -32t1.5 -33q0 -3 -0.5 -9.5t-1 -14t-1.5 -14.5t-1 -10q-1 -9 -1 -18.5v-19.5q-1 -9 -1.5 -15t-0.5 -11v-10.5v-14.5q0 -2 0.5 -11.5t1.5 -11.5q1 -14 1 -18t2 -11q3 -10 4 -14.5t1 -10.5q0 -12 -5 -24.5t-13 -16.5
q-2 -2 -12 -4t-21 -2q-4 0 -18.5 1t-19.5 1q-3 0 -12.5 -0.5t-12.5 -0.5t-14 0.5t-14 0.5q-5 0 -19 -1t-19 -1h-42q-25 0 -32 8t-7 24q0 3 1.5 15t1.5 15v15zM362 342q-1 0 -7 -1.5t-7 -1.5q-3 -1 -10 -1q-14 -1 -23 -4t-15 -6.5t-9.5 -8.5t-6.5 -9q-5 -8 -8 -14.5t-3 -15.5
q0 -17 9 -33.5t31 -24.5q2 -1 14 -4t21 -3q3 0 11.5 1t18 2.5t18 3t11.5 3.5q9 4 24 18t15 37q0 18 -10 30t-21 18q-2 1 -9 3t-15.5 4.5t-16.5 4.5t-12 2z" />
    <glyph glyph-name="r" unicode="r" horiz-adv-x="458" 
d="M24 508q0 24 6 37t14.5 19t18 7t17.5 1h15.5t15.5 -1q8 0 15 -0.5t15 -0.5h5q3 0 11.5 0.5t18 1.5t18 1.5t11.5 0.5q4 0 15 -1t13 -2q4 -2 9.5 -8.5t7.5 -17.5q1 -5 3 -12.5t8 -7.5q3 0 6 2.5t5 4.5l15.5 15.5t7.5 6.5q14 11 31 15t34 5h21q2 1 11.5 1.5t12.5 0.5
q23 0 31 -5.5t13 -13.5q6 -8 7.5 -15t1.5 -33q0 -3 -0.5 -10t-1.5 -15t-1.5 -15t-0.5 -10t0.5 -11t1.5 -16.5t1.5 -16.5t0.5 -11q0 -21 -3.5 -33t-6.5 -19q-6 -16 -17.5 -22t-24.5 -6q-5 0 -19 1.5t-27 5.5q-14 3 -18 3.5t-9 0.5q-18 0 -28 -6t-14.5 -13.5t-5.5 -14.5
t-1 -10t0.5 -13.5t0.5 -13.5q0 -4 -1 -17t-1 -18q0 -4 1.5 -17t1.5 -18q0 -2 -0.5 -8.5t-1 -13.5t-1 -13t-0.5 -9q0 -5 1 -16.5t2.5 -24.5t2.5 -25t1 -17q0 -25 -5.5 -38.5t-13 -20t-15.5 -7.5t-14 -1q-5 0 -16.5 0.5t-24.5 1.5t-25 1.5t-17 0.5h-15t-14 -2q-20 -3 -27.5 -4
t-12.5 -1q-19 0 -36.5 6.5t-24.5 23.5q-2 5 -3 16t-1 16l3 30q1 7 1 14t1 15q2 14 2 23v28q0 1 -0.5 10.5t-0.5 21t-0.5 21t-0.5 11.5q0 3 -0.5 9t-0.5 13t-0.5 13t-0.5 9q0 4 0.5 15.5t1.5 24.5t1.5 25t0.5 17q0 11 -0.5 23t-1.5 23q-1 8 -2 21.5t-2 28.5t-1.5 29t-0.5 24z
" />
    <glyph glyph-name="s" unicode="s" horiz-adv-x="500" 
d="M221 577q5 1 9 1.5t8 1.5h7t13 0.5t13.5 0.5h7.5q4 0 18 -1.5t19 -1.5q8 -1 16.5 -1t16.5 -1q2 0 10.5 -2.5t18 -5t18 -4.5t11.5 -3q30 -9 35 -22.5t5 -32.5q0 -2 -0.5 -10.5t-0.5 -11.5v-35q0 -7 0.5 -14t0.5 -14v-7.5t-2 -10.5q0 -3 -1.5 -8.5t-5.5 -11t-12 -10
t-22 -4.5q-7 0 -16 2.5t-29 8.5q-15 5 -24.5 7.5t-15 4t-8.5 2t-6 0.5q-12 0 -15 -5.5t-3 -7.5q0 -5 7 -10t11 -7q3 -1 11 -4t16.5 -6t16.5 -6.5t11 -4.5q7 -3 13.5 -6.5t13.5 -6.5q11 -5 21.5 -9t20.5 -11q6 -5 11 -10t10 -11q5 -7 13 -17q5 -6 10.5 -11.5t8.5 -13.5
t9 -30.5t6 -41.5q0 -20 -2 -29t-8 -26q-6 -15 -10.5 -24.5t-20.5 -29.5q-8 -9 -13 -15t-10 -9.5t-10.5 -6.5t-13.5 -7q-5 -2 -10 -5t-10 -5q-3 -2 -11 -4.5t-17 -5.5t-16 -5.5t-9 -2.5q-7 -2 -13.5 -2t-12.5 -2q-8 -2 -16.5 -3.5t-16.5 -2.5h-43q-2 0 -4 -0.5t-4 -0.5h-6
h-9.5t-16.5 1q-11 1 -23 2q-6 1 -11.5 2t-11.5 3q-4 0 -8 0.5t-9 1.5q-7 2 -13.5 3.5t-14.5 3.5q-11 4 -23 6t-23 6q-10 3 -17 9q-4 3 -6.5 6t-3.5 8.5t-1 15.5v28q0 5 0.5 19.5t0.5 19.5q0 4 -1 16t-1 17q0 20 3 27.5t8 15.5t11.5 14t22.5 6q5 0 10 -1t10 -3t9.5 -3.5
t9.5 -3.5q7 -2 13.5 -3t13.5 -3q5 -2 9 -3.5t8 -3.5q25 -10 39 -12.5t23 -2.5q8 0 11 5t3 8q0 8 -6 13.5t-14 7.5q-11 2 -16 3.5t-13 4.5q-3 1 -11.5 4.5t-18 8t-18 8t-12.5 5.5q-8 3 -14.5 6.5t-21.5 17.5q-3 3 -5.5 6t-5.5 6l-10.5 10.5t-6.5 9.5q-12 19 -16.5 27t-6.5 20
q0 1 -1 8t-2 15.5t-2 15.5t-1 9q0 9 1 18.5t3 18.5q1 12 2.5 18.5t7.5 17.5q2 4 4.5 7t12.5 16q4 5 7.5 10.5t8.5 9.5q1 2 7 6t8 6t5 4.5t5 5.5q3 2 6.5 4.5t7.5 4.5t8.5 4t8.5 4l7 3.5t6 3.5q12 6 29.5 10t29.5 5h16z" />
    <glyph glyph-name="t" unicode="t" horiz-adv-x="396" 
d="M0 528q0 2 1 13.5t1 13.5q3 13 12.5 19t17.5 9q22 10 34.5 16.5t27.5 19.5q6 5 12 9.5t12 9.5q5 4 9 7t9 7q8 6 18.5 16.5t19.5 20.5l8 8t9 6q3 1 6 1.5t9.5 1t18.5 0.5h32h9.5t9.5 -2q7 -2 11 -4.5t5.5 -9.5t2 -19t0.5 -32q0 -3 -0.5 -14t-0.5 -14q0 -14 3 -22
t7.5 -11.5t9.5 -4t9 -0.5q3 0 13.5 0.5t13.5 0.5h15q17 0 22.5 -9.5t5.5 -16.5q0 -2 -0.5 -8t-1 -12.5t-1 -12t-0.5 -8.5q0 -4 1 -16t1 -16q0 -3 -1.5 -13.5t-1.5 -13.5t1.5 -15t1.5 -16q0 -11 -5 -17.5t-11.5 -9.5t-13 -4t-10.5 -1q-3 0 -14.5 1t-15.5 1q-17 0 -22 -7
t-5 -20q0 -2 0.5 -11t0.5 -12t-1 -14t-1 -15q0 -3 1 -14t1 -15t-1 -18t-1 -19q0 -21 5 -29t16 -8q3 0 12 1t12 1q2 0 6 -0.5t6 -0.5q1 0 4.5 0.5t4.5 0.5q8 0 19.5 -6t11.5 -21q0 -4 -1.5 -17t-1.5 -17v-12t1 -11l2 -12t1 -12q0 -3 -1.5 -14t-1.5 -14q0 -2 1 -9.5t1 -9.5
q0 -5 -3.5 -18.5t-17.5 -21.5q-4 -2 -15 -6t-18 -6q-1 0 -11 -1t-22.5 -2t-24.5 -2t-16 -1h-8t-9 -1q-2 0 -11 -0.5t-12 -0.5q-15 0 -22 0.5t-22 3.5q-6 2 -12.5 2t-13.5 1q-2 0 -9 2t-14.5 4t-14 3.5t-8.5 2.5q-7 2 -11 5q-5 2 -8 4t-4 2l-4 3.5t-8.5 7.5t-8 8t-4.5 5
q-5 7 -8 19t-4.5 25.5t-1.5 25.5v20q0 3 0.5 11t0.5 17t0.5 17t0.5 11t-0.5 12.5t-1 20t-1 20t-0.5 13.5q0 5 0.5 17.5t1.5 26.5t1.5 27t0.5 18q0 29 -5.5 36.5t-10.5 9.5q-4 2 -8 2t-8 2q-3 2 -9.5 7t-6.5 19q0 4 1.5 16t1.5 16q0 3 -1 14.5t-2 15.5q0 3 0.5 13t0.5 13
q0 2 -0.5 8.5t-0.5 8.5z" />
    <glyph glyph-name="u" unicode="u" 
d="M362 473q0 3 -0.5 11t-0.5 17t-0.5 17t-0.5 11q0 20 8 32.5t27 12.5q2 0 7 -0.5t10 -1.5q6 -1 11 -1.5t7 -0.5t8.5 0.5t13.5 1.5q8 0 14.5 0.5t8.5 0.5h8t13 -0.5t13 -0.5h9t10.5 0.5t16 1t16 1t10.5 0.5q16 0 24 -4.5t15 -12.5q10 -13 11.5 -21.5t1.5 -11.5
q0 -11 -2.5 -20.5t-3.5 -20.5q0 -1 -0.5 -6t-0.5 -10.5t-0.5 -10.5l-0.5 -5q0 -2 0.5 -8.5t0.5 -8.5q0 -3 -1 -14t-1 -15v-32q0 -5 0.5 -17.5t1.5 -26t1.5 -24t0.5 -11.5q0 -4 -0.5 -13.5t-1.5 -20t-1.5 -19.5t-0.5 -13q0 -12 0.5 -24t0.5 -24q0 -3 -0.5 -12t-1 -18.5
t-1 -18.5t-0.5 -13q0 -12 1 -23t2 -17q2 -6 3.5 -13.5t1.5 -11.5v-5q0 -14 -4.5 -24.5t-10.5 -15.5q-8 -6 -19 -7.5t-28 -1.5h-10t-15 0.5t-15.5 0.5h-10.5t-11.5 -0.5t-18 -1t-18.5 -1t-12 -0.5h-17q-7 0 -19.5 2.5t-19.5 16.5q-3 5 -4 10t-4 10q-4 10 -10 10q-2 0 -4 -2
t-13 -14q-5 -5 -12 -11t-11 -8q-6 -3 -13 -5l-14 -4q-5 -2 -8.5 -3t-8.5 -3q-13 -4 -32 -5.5t-38 -1.5q-5 0 -10.5 0.5t-10.5 1.5q-2 0 -10.5 1.5t-18.5 4t-18.5 4.5t-10.5 2q-6 2 -11.5 5.5t-11.5 6.5q-9 4 -16 7.5t-13 7.5t-12 10t-13 16l-11 16.5t-9 16t-6.5 20
t-3.5 28.5q-1 11 -0.5 21t-0.5 21q-1 8 -2 17t-2 17q-1 9 -1 20.5v34.5v13t1 12l2 16t1 16q0 11 -0.5 25t-0.5 25v9.5t-0.5 14.5t-0.5 15v10q0 11 0.5 22.5t0.5 22.5q0 4 -0.5 16.5t-0.5 16.5q0 12 2.5 26.5t4.5 19.5q4 9 10.5 13.5t13 6.5t12 2.5t7.5 0.5t10.5 -0.5
t18.5 -1.5t19.5 -1.5t13.5 -0.5q2 0 7.5 0.5t12.5 1.5q6 0 11.5 0.5t7.5 0.5q3 0 13.5 -0.5t13.5 -0.5t14.5 1t15.5 1q13 0 31.5 -8t21.5 -28q1 -2 1 -14v-16q0 -7 -2 -17q0 -4 -0.5 -10t-0.5 -12v-16q0 -4 1 -17.5t1 -17.5q0 -5 -0.5 -10t-2.5 -23q-2 -9 -2 -17.5v-17.5
q0 -42 7.5 -70t31.5 -28q10 0 18 9q11 12 12.5 24.5t2.5 27.5q0 5 0.5 8.5t0.5 7.5q1 5 1.5 8.5t0.5 8.5q0 2 -0.5 11t-1 20t-1 20.5t-0.5 12.5q0 5 1.5 19.5t3.5 25.5v20z" />
    <glyph glyph-name="v" unicode="v" horiz-adv-x="625" 
d="M73 302q-5 11 -8 23t-8 23q-3 10 -7 19t-7 19q-3 8 -5 17t-5 17q-2 4 -2.5 7t-2.5 7q-1 2 -2.5 8.5t-3 13.5t-3 13.5t-2.5 9.5q-3 10 -7 19t-7 20q-3 10 -3 21q0 7 4 17.5t20 14.5q3 1 6.5 1h22.5h5.5t7.5 -1q5 0 8 -0.5t5 -0.5q5 0 20.5 1.5t20.5 1.5q3 0 9.5 -0.5
t14 -1t14.5 -1t10 -0.5q2 0 8 0.5t13 1t13 1t9 0.5q8 0 20 -2t23 -16q5 -6 8.5 -16t6.5 -20.5t4.5 -18.5t1.5 -11q1 -5 1.5 -19.5t1.5 -19.5q2 -8 5 -15t5 -14q3 -11 3 -21.5t2 -21.5q2 -8 4 -15t4 -15q2 -6 2.5 -12.5t2.5 -12.5q1 -5 3 -13q1 -4 1 -7.5t1 -6.5
q1 -10 3.5 -18t7.5 -8q4 0 5 4.5t3 18.5q1 3 0.5 6t0.5 7q1 2 1 3.5t1 3.5q0 2 0.5 13t1.5 15q0 10 2 21t3.5 21t3.5 16.5l2 6.5q2 5 3.5 10.5t3.5 10.5q1 2 2 8.5t2 13.5t2 13.5t1 9.5l4 18l4 18q2 12 4.5 20t11.5 22q5 8 8 10.5t10 6.5q8 3 16.5 5t26.5 2q4 0 18 -1t19 -1
q2 0 10.5 0.5t10.5 0.5q4 0 16.5 -1.5t16.5 -1.5h14t14 1q4 1 10 1.5t8 0.5q3 0 10.5 -1t15.5 -5.5t14 -14t6 -26.5q0 -11 -3 -21q-1 -3 -2 -6.5t-2 -6.5q-1 -4 -1.5 -8t-2.5 -8q-1 -4 -2.5 -7l-3.5 -7q-5 -9 -9.5 -26t-6.5 -31q-2 -8 -3 -15.5t-3 -15.5q-4 -15 -10 -29.5
t-11 -29.5q-2 -8 -3.5 -16.5t-3.5 -16.5t-4 -14.5t-4 -13.5q-3 -11 -5 -17t-8 -22q-3 -8 -5.5 -16.5t-5.5 -16.5q-2 -4 -4.5 -8t-4.5 -8q-4 -8 -7 -17t-6 -17q-1 -3 -3 -11t-5 -16.5t-5.5 -16.5t-3.5 -11q-2 -5 -4 -9.5t-4 -9.5q-2 -8 -4.5 -16t-6.5 -16q-9 -19 -21.5 -23.5
t-14.5 -4.5h-20q-5 0 -10.5 0.5t-10.5 0.5h-15q-2 0 -10 0.5t-10 1.5q-2 0 -10 -0.5t-10 -0.5h-84q-4 0 -16 -0.5t-15 -0.5q-17 0 -28 4.5t-18 12t-11 17t-7 19.5q0 2 -3 10.5t-6 17.5t-6 17t-4 10q-2 8 -5.5 14.5t-5.5 14.5q-2 5 -3 10.5t-2 10.5q0 1 -2 8.5t-4.5 15.5
t-4.5 15t-2 9q-4 10 -10 23.5t-11 23.5q-3 8 -5.5 15.5t-5.5 15.5q-2 5 -3.5 9.5t-3.5 9.5z" />
    <glyph glyph-name="w" unicode="w" horiz-adv-x="875" 
d="M67 361q-6 18 -12 35t-18 38q-3 5 -6.5 11.5t-6.5 12.5q-2 5 -5 10t-5 10t-3 9.5t-3 9.5q-6 19 -7.5 24.5t-1.5 12.5q0 15 5.5 23t13 12t15 4.5t12.5 0.5q4 0 12.5 -0.5t18.5 -0.5q11 -1 19.5 -1.5t12.5 -0.5h17q10 1 19.5 2t18.5 2h31q25 0 34 -13.5t15 -33.5
q2 -8 5 -16l6 -16q4 -7 8 -13.5t6 -13.5q2 -6 3.5 -12.5t3.5 -12.5q3 -8 7.5 -15.5t7.5 -15.5q2 -5 2.5 -11t2.5 -12q3 -14 7.5 -26t8.5 -25q2 -6 6.5 -17.5t15.5 -11.5q5 0 9 5t6.5 12t4 13.5t1.5 9.5q0 10 -3 19q-2 8 -5 16t-5 16q0 2 -2 7.5t-3.5 11.5t-3.5 11.5t-2 8.5
q-2 7 -3 14t-3 14t-5 13l-6 12q-3 9 -5 18t-6 18q-3 8 -4 12t-1 14q0 9 8.5 16t21.5 7q4 0 18.5 -2t19.5 -2h10t15 -0.5t15 -0.5h10q8 0 15 0.5t15 0.5q4 0 17.5 1.5t18.5 1.5q6 0 16.5 -2t15.5 -4q9 -5 16 -17.5t11 -22.5q3 -10 3.5 -20t2.5 -20q2 -5 2.5 -9.5t2.5 -9.5
q1 -5 1.5 -9t2.5 -9q2 -8 5.5 -16.5t5.5 -16.5q0 -1 2.5 -11t5 -22t5 -22.5t3.5 -12.5q9 -19 14 -19q3 0 4.5 3.5t2.5 7.5q1 15 3 27q2 11 3 19t1 10v9.5t1 9.5q0 5 1 10.5t1 10.5v14q0 5 1 7q1 7 2.5 13.5t3.5 13.5q2 10 2.5 19.5t2.5 20.5q4 28 17.5 36.5t33.5 8.5h12
q5 -1 8 -1h5q10 0 20 1.5t20 1.5q3 0 10 -0.5t15 -1l16 -1t11 -0.5h35q6 0 14.5 -0.5t16 -4t13 -11t5.5 -21.5q0 -8 -2 -16.5t-6 -15.5q-2 -5 -5.5 -10.5t-5.5 -10.5q-1 -2 -3.5 -13t-5.5 -24t-5 -23t-2 -11q-1 -5 -1.5 -11t-1.5 -11q-1 -8 -2.5 -17t-8.5 -38q-3 -10 -5 -20
l-4 -20q-2 -6 -7 -21.5t-11 -33t-11 -33t-7 -22.5q-6 -23 -17.5 -53t-17.5 -53l-4 -18l-4 -18q-1 -6 -3.5 -14t-8 -14.5t-15 -11.5t-24.5 -5q-4 0 -15 1t-15 1q-3 0 -14.5 -0.5t-15.5 -0.5t-17 0.5t-18 0.5q-3 0 -10.5 -0.5t-16.5 -0.5t-17 -0.5t-11 -0.5q-13 0 -25.5 2.5
t-24.5 12.5q-8 7 -11 12.5t-9 25.5q-5 16 -9.5 25.5t-11.5 9.5t-8.5 -4t-3.5 -10q-1 -5 -2.5 -10t-3.5 -10q-4 -9 -6.5 -19t-7.5 -18q-4 -7 -10.5 -12t-22.5 -5q-1 0 -12 1t-19 2q-5 1 -10.5 1h-10.5h-14q-6 0 -12 -0.5t-9 -0.5q-5 -1 -10 -1.5t-10 -1.5h-33
q-18 0 -29.5 3.5t-19 10.5t-12 17t-8.5 22q-4 10 -6.5 20t-6.5 20q-3 10 -7.5 20t-8.5 20q-2 5 -2.5 9.5t-2.5 9.5q-2 4 -5.5 15t-8 23.5t-8.5 24t-5 16.5q-2 8 -3.5 16t-3.5 16q-3 13 -9 23q-3 5 -6 9t-5 9q-1 3 -2 6.5t-2 6.5q-1 2 -3 8.5t-4.5 14t-4.5 14t-3 9.5z" />
    <glyph glyph-name="x" unicode="x" horiz-adv-x="625" 
d="M48 122q1 3 5.5 10t9.5 14.5t9 14t6 9.5q3 6 5.5 11.5t5.5 10.5q2 4 4 7l4 6q2 5 4.5 9.5t4.5 9.5q5 8 10 14t10 14q4 5 6.5 11t5.5 11q7 11 8.5 15t1.5 11q0 11 -5.5 20t-12.5 17q-3 5 -6 8.5t-5 8.5q-6 9 -8.5 12.5t-8.5 11.5q-5 5 -8.5 11t-7.5 11q-5 6 -9.5 11
t-9.5 10q-11 13 -18 25.5t-15 29.5q-3 6 -6.5 12t-7.5 12q-11 17 -14 23t-3 16q0 7 2 10t6 8q7 8 11.5 11t18.5 3q3 0 12.5 -1t12.5 -1h8t13 0.5t13 0.5h9q4 0 18 0.5t19 0.5q10 0 19 -1t19 -1q4 0 17 1t17 1q17 0 24 -4.5t12 -10.5q4 -4 6.5 -7.5t9.5 -16.5l9 -15
q5 -6 8 -12.5t6 -12.5q2 -5 5 -11t8 -6q3 0 6 5.5t4 7.5q6 12 12 23t16 24q3 4 6 7.5t5 7.5q7 12 15 17t35 5q3 0 11 -0.5t17 -0.5t17 -0.5t11 -0.5h19q3 0 14 -0.5t15 -0.5q3 0 12 0.5t18.5 1t18.5 1t13 0.5q19 0 26 -4t14 -12q4 -5 7.5 -12t3.5 -15q0 -12 -5.5 -22
t-11.5 -19q-5 -8 -10 -14.5t-10 -14.5q-6 -11 -11.5 -21t-11.5 -20q-11 -22 -29 -45q-2 -2 -6 -8t-9 -12.5t-9.5 -12t-6.5 -8.5q-1 -2 -4 -7.5t-6 -11.5l-6 -12t-4 -7q-5 -9 -7 -13t-2 -6q0 -4 3 -8.5t6 -9.5q9 -11 14.5 -19t10.5 -14.5t9.5 -13.5t10.5 -16q5 -8 11 -14.5
t12 -13.5l8 -10t7 -10q5 -9 9 -19t9 -20q8 -15 21 -31q8 -10 13 -18t5 -20q0 -20 -12.5 -29t-32.5 -9q-4 0 -19.5 1t-20.5 1t-20.5 -1t-20.5 -1t-20 0.5t-20 0.5q-3 0 -10 -0.5t-15.5 -0.5t-15.5 -0.5t-10 -0.5q-17 0 -29 6.5t-24 31.5q-2 5 -4.5 10t-4.5 10q-2 3 -9 15
t-8 16q-2 6 -6.5 15t-10.5 9t-13 -14q-5 -11 -6.5 -14.5t-8.5 -11.5q-5 -8 -10 -15.5t-9 -15.5q-3 -6 -5 -12.5t-5 -12.5t-9.5 -12t-28.5 -6q-2 0 -8 0.5t-13 0.5q-7 1 -13 1h-9h-10t-15.5 -0.5t-16.5 -0.5h-11q-4 0 -18 1t-19 1q-4 0 -18.5 -1t-19.5 -1q-25 0 -34 9.5
t-9 29.5q0 4 2 12q2 9 9 16.5t13 15.5q8 9 13 19.5t11 20.5z" />
    <glyph glyph-name="y" unicode="y" horiz-adv-x="604" 
d="M576 446q-4 -15 -8 -30.5t-9 -30.5q-2 -8 -3.5 -13.5t-3.5 -11.5t-5 -13.5t-7 -19.5q-3 -8 -6 -16.5t-5 -17.5q-2 -6 -9 -21.5t-14.5 -33.5t-14.5 -34.5t-9 -23.5q-4 -13 -7 -26.5t-8 -27.5q-2 -5 -3.5 -10.5t-3.5 -10.5q-4 -12 -7 -24t-7 -24q-3 -8 -4 -11.5t-6 -13.5
q-4 -8 -6.5 -16.5t-7.5 -15.5q-1 -1 -5 -6t-9 -11l-10 -12t-8 -9q-18 -16 -28 -23t-27 -13q-9 -3 -16 -4.5t-15 -2.5t-18.5 -0.5t-26.5 0.5h-51q-5 0 -20.5 -1t-20.5 -1q-10 0 -19.5 0.5t-19.5 0.5q-14 0 -25 2t-23 12q-12 9 -15 19.5t-3 22.5q0 2 0.5 7.5t0.5 12t0.5 12.5
t0.5 9t-0.5 11t-0.5 16.5t-0.5 16.5t-0.5 11t0.5 9t1.5 13.5t3 15t4 12.5q5 9 12.5 15.5t18.5 6.5q2 0 8 -1.5t12.5 -3t12 -3t8.5 -1.5q11 0 13 6.5t2 8.5t-3.5 16.5t-17.5 37.5q-8 13 -11 21t-9 26q-6 21 -15 38q-5 11 -10 21t-10 21q-2 3 -6 12.5t-8.5 21l-9 23t-7.5 19.5
q-2 5 -3.5 10.5t-3.5 10.5q-6 17 -14.5 33t-16.5 33q-3 7 -6 15.5t-3 22.5q0 13 2 17t6 8q5 5 9.5 8.5t12.5 6t20.5 3.5t33.5 1q5 0 21 -1.5t21 -2.5h17q3 0 12 0.5t19.5 1t19.5 1t13 0.5q20 0 28 -6.5t11 -11.5q8 -11 14 -30t11 -34q1 -4 1.5 -8t2.5 -9q3 -11 8 -25
q3 -10 6 -22.5t5 -24t3.5 -20t1.5 -11.5q2 -10 3 -17.5t4 -7.5q2 0 5 5q2 2 2 5t2 17q2 18 7 41t11 40q9 25 14.5 44t6.5 25q2 9 2.5 17.5t5.5 16.5q8 12 19 14t17 2h11t18 -1q1 0 4.5 -0.5t8 -1t8.5 -1t5 -0.5q5 0 17 0.5t25 1.5q15 1 33 3q8 0 16 -1q7 -1 13.5 -1.5
t11.5 -2.5q1 0 5.5 -2t9 -6.5t8.5 -11.5t4 -17q0 -9 -2.5 -17t-4.5 -15q-9 -23 -11.5 -31.5t-5.5 -22.5z" />
    <glyph glyph-name="z" unicode="z" horiz-adv-x="479" 
d="M162 565h9.5t9.5 1q9 1 17.5 2.5t16.5 1.5q3 1 8 1h38q1 0 16 -1t33 -1.5t33 -1.5t18 -1q4 0 18 1.5t19 1.5q2 1 11 0.5t12 -0.5q2 0 11 0.5t12 0.5q9 0 18 -8t9 -30q0 -3 -0.5 -14t-0.5 -14q0 -5 0.5 -16.5t0.5 -24.5t0.5 -24.5t0.5 -16.5t-2 -15t-13 -24q-2 -4 -5 -7
l-6 -6q-5 -8 -12 -18t-13 -20q-2 -4 -4 -7.5t-4 -7.5q-4 -5 -8 -9t-8 -9q-2 -2 -5.5 -7.5t-8 -12.5t-8.5 -13t-5 -8q-8 -12 -10.5 -19t-2.5 -8q0 -5 4 -9t11 -4q2 0 8.5 0.5t8.5 0.5h13q3 0 10 1t15 1.5t15 1.5t10 1q12 0 18.5 -4.5t9.5 -11t3.5 -12.5t0.5 -9t-0.5 -12.5
t-0.5 -20t-0.5 -20.5t-0.5 -14q0 -3 0.5 -11t1 -17t1 -17.5t0.5 -11.5q0 -5 -0.5 -15.5t-4.5 -21t-13 -18.5t-25 -8q-3 0 -13 0.5t-13 0.5h-9.5t-14.5 -0.5t-15 -0.5h-10h-38q-3 0 -10 0.5t-15.5 1t-16 1t-10.5 0.5h-10.5t-16.5 -0.5t-17 -0.5h-11q-2 0 -11 -0.5t-11 -0.5
q-5 0 -10.5 0.5t-11.5 0.5q-4 0 -17 -0.5t-17 -0.5q-3 0 -13 0.5t-13 0.5q-2 0 -8.5 -0.5t-13.5 -0.5t-13 -0.5t-9 -0.5q-23 0 -35 11t-12 29q0 3 0.5 12.5t0.5 12.5q0 4 -1 17t-1 17v37q0 10 2 14q2 6 7.5 14t12 15.5t12.5 13.5l8 8q5 5 11 9.5t11 9.5q3 3 10.5 13.5
t16 22.5t16 22.5t10.5 14.5q19 22 24.5 30t5.5 16q0 13 -14 13q-2 0 -8 -0.5t-8 -0.5q-3 0 -9.5 0.5t-14 1.5t-14.5 1.5t-10 0.5q-2 0 -11.5 -0.5t-11.5 -0.5q-11 0 -17 4t-9.5 9t-4.5 10.5t-1 8.5v11t-0.5 17t-0.5 17v11q0 8 0.5 15.5t0.5 15.5q0 3 -0.5 13.5t-0.5 13.5
q0 32 9 51t41 19q4 0 14.5 -1t22 -1.5t21.5 -1.5t15 -1z" />
    <glyph glyph-name="braceleft" unicode="{" horiz-adv-x="458" 
d="M230 307q20 0 39 -6.5t27 -13.5l5 -4.5t10 -9.5l10 -10l5 -5q3 -5 6.5 -12.5t4.5 -12.5q2 -7 2.5 -9.5t2.5 -7.5t3 -9t2 -9q0 -1 0.5 -14t1.5 -29.5t2.5 -32t3.5 -20.5q1 -2 9 -14t17 -16q6 -2 10 -3q2 -1 4.5 -2t5.5 -3q2 0 4 -0.5t4 -0.5t9 0.5t9 0.5q24 0 28 -16.5
t4 -34.5q0 -5 -1.5 -19.5t-1.5 -19.5q0 -3 1 -13.5t1 -13.5q0 -12 -4 -18t-9.5 -9t-10.5 -3.5t-7 -0.5q-3 0 -12.5 0.5t-12.5 0.5t-9.5 -0.5t-14 -1t-14.5 -1t-10 -0.5h-6q-2 0 -7 0.5t-11 1.5q-5 0 -10.5 0.5t-7.5 0.5t-10.5 -1t-11.5 -1h-24q-4 0 -8 0.5t-9 1.5
q-16 1 -24 2.5t-19 6.5q-5 3 -9.5 6.5t-9.5 5.5q-5 3 -9.5 5t-9.5 5q-14 8 -19 17.5t-10 23.5q-5 10 -10 19.5t-7 20.5q-1 3 -2 11t-2 18t-2 18.5t-1 12.5v8q1 2 2 7.5t1 7.5q0 3 -1.5 12.5t-1.5 12.5q-1 6 -1 9.5v15.5v3q-2 23 -10 34t-20 21q-12 11 -17 13.5t-14 2.5
q-2 0 -7 -0.5t-7 -0.5q-1 0 -4.5 0.5t-7 3t-7 8.5t-3.5 17q0 3 0.5 11.5t0.5 10.5q0 3 -1 12t-1 12q0 2 1 11t1 12q0 2 -0.5 12t-0.5 13q0 16 6 24t11 10h15q3 0 5 0.5t9 2.5q9 3 14.5 5t9 4.5t6 6.5t6.5 10q11 18 14 33.5t4 41.5q0 5 1.5 19.5t1.5 16.5q0 3 -1.5 13
t-1.5 14q0 3 0.5 9t1.5 13l2 14t2 10q1 5 5 13.5t8.5 17.5t9.5 17t10 12q5 3 9 5.5t8 6.5q2 2 4 3l4 2q5 4 16.5 9t16.5 7t10 2t10 1q8 2 14.5 3.5t14.5 2.5q4 1 18 0.5t19 -0.5q3 0 10.5 0.5t16 1.5t16 1.5t10.5 0.5t13.5 -1t13.5 -2q3 0 14.5 0.5t15.5 0.5q22 0 33 -5
t13 -10q1 -2 2 -13t1 -15q0 -5 -0.5 -9.5t-0.5 -9.5v-14q0 -2 -1 -9.5t-1 -10.5q0 -2 0.5 -12t0.5 -14q0 -20 -12 -25.5t-18 -5.5h-14q-8 0 -12 -1q-3 -2 -6 -3.5l-7 -3.5q-5 -2 -10 -3.5t-9 -5.5q-4 -3 -12 -17.5t-8 -34.5q0 -3 0.5 -13.5t0.5 -13.5q0 -2 -2 -12t-2 -13
q-1 -3 -1 -6.5v-6.5q-1 -7 -5.5 -23.5t-15.5 -27.5l-4.5 -4.5l-4.5 -4.5t-4 -5t-4 -5q-3 -5 -11.5 -10.5t-21.5 -9.5q-8 -3 -12 -4t-14 -6q-7 -2 -17 -4z" />
    <glyph glyph-name="braceright" unicode="}" horiz-adv-x="458" 
d="M228 317q-5 1 -13 2t-17.5 3.5t-18.5 6t-16 8.5q-5 4 -8.5 8t-7.5 8q-11 11 -17.5 18.5t-8.5 19.5q-2 7 -3 9.5t-3 8.5q-3 7 -3 15q-2 6 -2 12.5v20.5q0 2 -0.5 11t-1.5 12v12.5t-1 12.5q-1 12 -3 17t-9 15q-4 5 -6.5 7.5t-5 4.5t-5.5 3.5l-9 4.5q-9 4 -12 5t-8 1
q-2 0 -7.5 -0.5t-7.5 -0.5q-24 0 -29.5 13t-5.5 39q0 4 1 16.5t1 16.5q0 8 -0.5 15t-0.5 15q0 3 0.5 8.5t3.5 11t9 10t17 4.5h5t7 -1q4 0 7 -0.5t5 -0.5q3 0 9.5 0.5t14 1t14.5 1t10 0.5q2 0 8.5 -0.5t13.5 -1t13.5 -1t9.5 -0.5q2 0 4.5 0.5t6.5 0.5q3 1 6 1h5t13 -0.5
t14 -0.5q11 0 26.5 -1.5t29.5 -9.5q5 -2 10 -5.5t11 -6.5q5 -3 9.5 -5t8.5 -5q5 -4 11.5 -10.5t9.5 -13.5q4 -6 5.5 -13t5.5 -13q2 -3 3.5 -6t3.5 -5q4 -9 6 -20q0 -2 1.5 -9.5t2.5 -17.5t2 -19t1 -13q0 -3 -1.5 -11.5t-1.5 -10.5q0 -5 1 -10l2 -10v-13q0 -2 1 -13.5
t1 -14.5q0 -9 3 -16q7 -14 16 -25q8 -9 18.5 -16.5t23.5 -7.5q2 0 6 0.5t6 0.5q11 0 16 -8.5t6 -13.5q0 -3 -0.5 -11.5t-0.5 -11.5q0 -7 1.5 -13.5t1.5 -13.5q0 -2 -1 -10.5t-1 -10.5q-1 -3 -0.5 -13.5t0.5 -14.5q0 -8 -1.5 -15t-6.5 -13t-9 -7t-15 -1q-3 0 -5 -0.5t-9 -2.5
q-16 -5 -22 -8.5t-14 -17.5q-6 -11 -9 -18t-5 -14t-2.5 -16t-1.5 -24q0 -8 -1.5 -19.5t-1.5 -19.5q0 -3 1.5 -13.5t1.5 -14.5q0 -5 -2 -21t-4 -24q-2 -6 -5.5 -14.5t-8.5 -18t-11.5 -18t-12.5 -12.5q-3 -2 -6.5 -3.5t-5.5 -3.5l-6 -6q-1 0 -4 -2t-7 -4q-4 -3 -10 -5
q-8 -5 -17 -6t-18 -3q-7 -1 -13.5 -2.5t-12.5 -2.5q-3 -1 -6.5 -1h-6.5q-8 0 -15 0.5t-15 0.5q-3 0 -9.5 -0.5t-14.5 -1.5t-15 -1.5t-10 -0.5h-4q-2 0 -3.5 0.5t-3.5 0.5t-3.5 0.5t-3.5 0.5h-3h-7.5h-12h-12h-8.5q-23 0 -32 6.5t-10 10.5q-1 1 -2 9t-1 14q0 10 0.5 23
t2.5 22q0 4 0.5 7t0.5 6q0 2 -1 10t-1 10q0 20 10 27.5t18 7.5q2 0 7.5 -0.5t7.5 -0.5q9 0 13 2l7 3.5l7 3.5q5 2 9.5 3.5t8.5 4.5q5 5 7 9q8 15 10.5 23t2.5 16q0 4 -0.5 16.5t-0.5 16.5q0 2 2 11.5t3 12.5q1 4 0.5 8t-0.5 8q1 8 5.5 20.5t9.5 19.5q4 5 8 9t8 9q2 2 4.5 5
t4.5 5q4 5 12.5 10.5t17.5 8.5q3 1 5.5 1t5.5 1q5 2 10 4.5t10 4.5q7 1 13 0z" />
    <glyph glyph-name="exclamdown" unicode="&#xa1;" horiz-adv-x="396" 
d="M257 558q-2 0 -8 0.5t-12.5 0.5t-12.5 0.5t-9 0.5h-10.5t-16.5 -0.5t-16.5 -0.5h-10.5q-4 0 -15 0.5t-14 0.5t-15 -1t-15 -1q-15 0 -22.5 10t-7.5 23q0 2 0.5 11t0.5 12q0 2 -0.5 8.5t-0.5 13.5t-0.5 13.5t-0.5 9.5q0 11 2 22.5t12 18.5l10 5q5 2 10.5 3.5t12.5 1.5
q5 0 21 -0.5t21 -0.5q3 0 14 1t14 1q7 0 13 -0.5t13 -1.5q4 0 19 0.5t20 0.5q2 0 8 -0.5t13.5 -1t14.5 -1.5t10 -2q10 -3 18 -12t8 -22q0 -3 -0.5 -12.5t-0.5 -12.5q0 -4 1 -17t1 -18q0 -6 -0.5 -15t-3.5 -18t-10 -15t-19 -6q-2 0 -12 0.5t-12 0.5h-12zM66 380q0 3 1 16.5
t2 30t2 32t1 21.5q0 19 6.5 29t16 14.5t19 5.5t15.5 1q4 0 17.5 -1.5t18.5 -1.5h12q2 0 12 -1t13 -1q2 0 9 1t9 1q4 0 17 -1t17 -1t16 1t16 1q11 0 18 -5t9 -7q9 -11 10.5 -23.5t1.5 -29.5q0 -5 0.5 -14t1 -20t1.5 -21.5t2 -17.5q1 -5 2 -11t2 -11t1 -10.5t1 -11.5
q2 -14 2.5 -18.5t0.5 -12.5q0 -3 0.5 -10.5t1.5 -16t1.5 -16t0.5 -10.5t1 -14.5t2 -24.5q1 -15 2 -33q2 -12 4 -19q0 -4 1.5 -13t2.5 -18.5t2 -18.5t1 -13q0 -13 -2 -25q-2 -11 -4 -22.5t-7 -20.5q-8 -14 -12.5 -18t-15.5 -11q-12 -8 -16 -9.5t-14 -1.5q-6 0 -21.5 0.5
t-33.5 1.5t-34 1.5t-22 0.5q-3 0 -10 -0.5t-15 -0.5t-15 -0.5t-10 -0.5q-31 0 -44.5 11t-17.5 16q-1 0 -3 4t-5 9q-4 5 -7 12q-5 12 -7.5 29.5t-2.5 30.5q0 52 10 98q4 17 8.5 34.5t6.5 35.5v12v19.5t0.5 19.5t0.5 13v35z" />
    <glyph glyph-name="cent" unicode="&#xa2;" horiz-adv-x="479" 
d="M196 620q0 9 3.5 14t8.5 7t10 2.5t8 0.5t10 -0.5t14.5 -0.5t14.5 -0.5t10 -0.5q2 0 9.5 0.5t9.5 0.5q28 0 36 -7t8 -24q0 -4 -0.5 -16.5t-0.5 -16.5q0 -3 2.5 -4.5t17.5 -1.5q3 0 15 0.5t16 0.5q34 0 48.5 -11.5t15.5 -42.5v-12t-0.5 -19.5t-0.5 -19.5v-13
q0 -3 0.5 -10.5t0.5 -16.5t0.5 -17t0.5 -11q0 -36 -10.5 -48.5t-30.5 -12.5q-2 0 -10.5 0.5t-10.5 0.5q-8 0 -16.5 -1t-16.5 -1q-2 0 -10.5 0.5t-11.5 0.5q-11 0 -28 -3t-27 -14q-3 -4 -9.5 -16t-6.5 -26q0 -32 16.5 -43.5t37.5 -11.5h19q4 0 19 -1.5t20 -1.5q3 0 14.5 1
t15.5 1q20 0 32.5 -9t12.5 -29q0 -2 -0.5 -12.5t-0.5 -13.5t-0.5 -9t-1 -13.5t-0.5 -14.5v-11q0 -3 0.5 -12t1.5 -18.5t1.5 -18.5t0.5 -12q0 -17 -7.5 -30t-32.5 -22q-6 -2 -11.5 -3.5t-12.5 -2t-17.5 -0.5h-28.5q-3 0 -4 -2t-1 -15q0 -2 0.5 -11t0.5 -11q0 -8 -4 -20
t-23 -12q-5 0 -9 1t-9 1q-20 2 -39 2h-39q-11 0 -16.5 11t-5.5 21q0 5 0.5 8.5t0.5 8.5v13q0 2 0.5 6.5t0.5 6.5q0 10 -6 13.5t-18 8.5q-11 4 -26.5 15.5t-21.5 16.5q-5 5 -8.5 9t-7.5 9q-3 2 -5.5 4t-5.5 4q-20 17 -33.5 31.5t-24.5 42.5q-1 2 -3.5 8.5t-5 13.5t-5 12.5
t-2.5 7.5q-1 2 -2 8t-3 14l-4 20q0 3 -0.5 11t-1 17t-1 17.5t-0.5 12.5q0 11 3.5 29t9 37.5t13.5 38.5t17 33q8 10 17 23t12 17q16 22 33 37t32 24.5t25.5 14t12.5 5.5q6 2 8 3.5t2 9.5q1 3 0.5 13.5t-0.5 13.5q1 2 0.5 11t-0.5 12z" />
    <glyph glyph-name="sterling" unicode="&#xa3;" horiz-adv-x="562" 
d="M60 428q1 0 6 0.5t5 4.5q0 2 -2 6q0 2 -1 9t-1 9q-2 6 -3 21.5t-1 25.5q0 21 3 43t9.5 43t18 40t28.5 33q26 21 57 32.5t57.5 17.5t45 7t19.5 1q2 0 10 -0.5t10 -0.5q3 0 15 0.5t16 0.5q5 0 17 -0.5t25.5 -2t26 -3t19.5 -3.5q9 -2 18.5 -3t19.5 -3q17 -3 31.5 -9.5
t14.5 -30.5q0 -5 -0.5 -9.5t-1.5 -9.5v-13.5t-1 -12.5q-1 -10 -3 -19.5t-4 -19.5q-1 -11 -1 -21t-1 -21q-1 -7 -2 -15t-4.5 -14.5t-9.5 -10.5t-17 -4q-2 0 -7.5 0.5t-13 1.5t-14 2t-9.5 1q-12 2 -29 3t-29 1q-3 0 -5.5 -0.5l-12.5 -2.5q-6 -2 -13 -4.5t-13 -10.5
q-3 -3 -4 -5.5t-2 -7t-1 -11.5v-20q0 -6 2.5 -11t9.5 -5q2 0 6.5 0.5t6.5 0.5q3 0 15 -0.5t15 -0.5t13.5 1t13.5 1q9 0 14 -4.5t7 -8.5q1 -2 4 -13t3 -25q0 -1 -0.5 -9t-0.5 -18.5t-0.5 -20t-0.5 -13.5q0 -2 0.5 -8t0.5 -8q0 -15 -10 -21.5t-21 -6.5q-5 0 -10 0.5t-10 0.5
q-2 0 -10 -1t-10 -1h-10q-5 0 -5 -8v-34q0 -5 -2.5 -19.5t-2.5 -19.5q0 -6 5.5 -7t13.5 -1l9.5 -0.5t21.5 -1.5t23.5 -1.5t15.5 -0.5t15.5 1t23 2.5t21 2.5t11.5 1q15 0 27 -6t14 -22q1 -4 1.5 -15.5t0.5 -16.5q0 -3 -0.5 -13t-1.5 -13v-47q0 -29 -10 -37t-22 -13
q-14 -5 -21.5 -6t-27.5 -3h-5.5t-9.5 -0.5t-9 -0.5h-4h-14.5t-22 0.5t-21.5 1t-14 0.5q-5 1 -8.5 1.5t-8.5 1.5q-9 1 -18 1t-18 1q-7 1 -14 1.5t-14 1.5q-16 2 -42.5 3.5t-77.5 1.5q-22 0 -43 -3q-13 -2 -25 -4t-25 -4q-3 0 -6.5 -0.5t-6.5 -0.5q-4 0 -13 0.5t-14 5.5
q-3 3 -5 12.5t-3 20.5t-1 21.5v16.5v9.5t0.5 14.5t0.5 15v10q0 2 -0.5 12.5t-0.5 13.5q0 6 2 14.5t15 13.5q4 2 7.5 2.5t7.5 2.5q6 2 11 4.5t10 5.5q8 5 17.5 15t9.5 32q0 2 -0.5 7.5t-1.5 11.5q-1 4 -2.5 8.5t-7.5 4.5h-34q-5 0 -14 2.5t-9 19.5q0 2 1 11.5t1 12.5
q0 5 -1 18t-2 27q-1 17 -2 37q0 18 9.5 23.5t11.5 6.5h10z" />
    <glyph glyph-name="yen" unicode="&#xa5;" horiz-adv-x="750" 
d="M196 295q-1 8 -4.5 13.5t-6.5 11.5q-2 3 -2.5 5.5t-2.5 5.5l-2 4t-3 4q-2 6 -3 8q-6 14 -18 16t-26 2h-17.5t-31.5 -2q-2 0 -10.5 -0.5t-11.5 -0.5q-11 0 -15.5 7.5t-6.5 16.5q0 3 0.5 14.5t0.5 14.5q0 2 -0.5 8t-0.5 12.5t-0.5 12.5t-0.5 9q0 8 3 16t17 8q5 0 9.5 -0.5
t9.5 -0.5q4 0 9.5 1t5.5 9q0 3 -1 5t-4 7q-2 4 -3.5 7.5t-3.5 6.5q-5 12 -13.5 29.5t-17.5 35.5l-17 34t-14 25q-6 8 -8 12q-3 6 -5 14.5t-2 12.5q0 1 1 6.5t4 10.5t8.5 9.5t15.5 4.5q5 0 15 -2t16.5 -2.5t11.5 -0.5q3 0 9 0.5t13 0.5q7 1 13.5 1h8.5h11t17 -1
q9 0 17.5 -0.5t11.5 -0.5q4 0 12 0.5t18 1.5q9 1 17.5 1.5t11.5 0.5q20 0 32.5 -5.5t20.5 -25.5q4 -9 5.5 -18.5t4.5 -17.5q1 -2 6 -12.5t11 -23t11.5 -23t6.5 -13.5q1 -2 3.5 -6.5t5 -10l5 -11t3.5 -7.5q11 -21 20 -21q4 0 10 6.5t12.5 15t12.5 18t9 15.5l10 16l10 16
q6 9 12.5 17.5t11.5 17.5t9.5 19t9.5 19q3 5 7.5 11t9.5 10q8 5 21.5 9t23.5 4q3 0 12.5 -0.5t12.5 -0.5q9 0 18 1t18 1q5 0 20.5 -2t20.5 -2l5 -0.5t11.5 -0.5t12.5 -0.5t8 -0.5q5 0 9.5 0.5t9.5 1.5q6 1 11.5 2.5t11.5 1.5q35 0 35 -32q0 -5 -1 -12.5t-6 -17.5
q-3 -6 -6.5 -12t-7.5 -12q-3 -7 -6 -13.5t-7 -12.5q-5 -8 -10 -14t-10 -14q-5 -7 -8 -14.5t-6 -15.5q-5 -13 -13 -27t-10 -16l-3.5 -3.5t-1.5 -3.5q0 -6 10.5 -7t18.5 -1q2 0 8.5 1t8.5 1t10 -2.5t8 -16.5q0 -3 -0.5 -11t-1.5 -17t-1.5 -17.5t-0.5 -11.5q0 -2 0.5 -12
t0.5 -13q0 -23 -34 -23q-5 0 -17 1t-26 1.5t-27 1.5t-18 1q-8 0 -13.5 -1t-11.5 -5.5t-12.5 -14.5t-14.5 -29q-1 -3 -6 -12t-5 -11t2.5 -6.5t11.5 -4.5h12q6 0 12 -0.5t12 -0.5q4 0 17 1.5t18 1.5q3 0 12.5 -1t12.5 -1t9.5 0.5t14 1.5t14.5 1.5t10 0.5q19 0 22.5 -10.5
t3.5 -17.5q0 -5 -1.5 -21t-1.5 -21q0 -2 0.5 -10.5t0.5 -11.5q0 -4 -1 -9t-4.5 -9t-11.5 -7t-23 -3q-1 0 -9.5 0.5t-18.5 0.5t-18 0.5l-8 0.5q-4 1 -16.5 2.5t-16.5 1.5q-8 0 -15 -0.5t-15 -1.5q-7 -1 -12 -1h-15q-8 0 -13 -1t-7.5 -6t-3.5 -15t-1 -29q0 -15 3 -30
q2 -9 3.5 -20t1.5 -14q0 -11 -4 -25t-11 -21q-11 -9 -32 -9q-3 0 -10.5 0.5t-15.5 1.5q-9 1 -17 1.5t-10 0.5q-3 0 -9 -0.5t-13.5 -0.5t-13.5 -0.5t-9 -0.5t-9.5 0.5t-13.5 1t-13.5 1t-9.5 0.5q-2 0 -7.5 -0.5t-12 -1t-12 -1t-8.5 -0.5q-20 0 -26 1.5t-13 7.5
q-13 10 -16.5 17.5t-3.5 21.5q0 5 0.5 8.5t2.5 9.5q4 11 6 21t2 23q0 3 -1 14.5t-1 14.5q0 2 0.5 7.5t0.5 7.5q0 6 -4 9.5t-9 5t-10.5 2t-8.5 0.5t-11.5 -0.5t-18.5 -1t-18.5 -1t-12.5 -0.5t-16.5 0.5t-16.5 0.5q-5 0 -20.5 -1.5t-20.5 -1.5q-20 0 -25 9.5t-5 19.5q0 8 1 15
t1 15q0 1 -0.5 6.5t-0.5 12t-0.5 12.5t-0.5 8q0 13 9 18t20 5q3 0 10 -1t15.5 -1.5t16 -1.5t10.5 -1q4 0 15 1.5t15 1.5t17.5 -0.5t17.5 -0.5q8 0 11.5 1.5t3.5 7.5v3z" />
    <glyph glyph-name="dieresis" unicode="&#xa8;" horiz-adv-x="208" 
d="M-130 684q0 29 10.5 37t22.5 8q2 0 8 -0.5t8 -0.5t8.5 0.5t8.5 0.5q5 0 11 -0.5t12 -0.5q3 -1 13 -0.5t13 0.5q4 0 16 -0.5t16 -0.5q2 0 11.5 0.5t12.5 0.5q4 0 11.5 -0.5t15 -3t13 -7.5t7.5 -15v-42q0 -4 -0.5 -11t-3 -14.5t-8.5 -13.5t-16 -8q-4 -1 -8 -1h-9
q-4 -1 -12 -1q-2 0 -11 1t-12 1h-19q-3 0 -15.5 1.5t-16.5 1.5t-17.5 -2t-17.5 -2q-28 0 -40.5 6t-12.5 29q0 6 0.5 11.5t0.5 11.5v14zM122 691q0 14 5 21.5t11 11.5t11.5 4.5t7.5 0.5t9 -0.5t14.5 -0.5t14 -0.5t9.5 -0.5h16h9t13.5 -0.5t13.5 -0.5h9q2 0 9.5 1t9.5 1
q1 0 7 -0.5t12.5 -1.5t13.5 -3.5t11 -6.5q8 -7 9.5 -18t1.5 -24v-22q0 -4 -1.5 -15t-2.5 -13q-2 -4 -9.5 -9.5t-23.5 -5.5h-2q-4 0 -15 1.5t-15 1.5h-18q-2 0 -9 0.5t-9 0.5q-7 0 -13.5 -1t-13.5 -1h-38q-17 0 -24.5 1.5t-9.5 2.5q-5 2 -10 9t-5 18q0 3 1 13.5t1 13.5v22z
" />
    <glyph glyph-name="copyright" unicode="&#xa9;" horiz-adv-x="833" 
d="M773 354q0 -74 -27.5 -139t-75.5 -113.5t-113 -76.5t-141 -28q-69 0 -133.5 26t-113.5 73t-78.5 112.5t-29.5 144.5q0 76 28.5 141.5t77.5 113t113.5 74.5t136.5 27q77 0 142 -28.5t112.5 -77t74.5 -113t27 -136.5zM417 29q69 0 128 25.5t102.5 69.5t68.5 103t25 126
q0 66 -24.5 125t-67.5 103.5t-102 70t-128 25.5t-128.5 -25.5t-103.5 -69.5t-69 -103t-25 -126q0 -68 25.5 -127.5t69.5 -103t103 -68.5t126 -25zM621 190q-48 -50 -97 -67t-99 -17q-62 0 -108.5 20t-78 54t-47.5 78.5t-16 94.5q0 51 17 96.5t49 80t78.5 54.5t105.5 20
q41 0 72.5 -9t55 -22t40.5 -27.5t28 -26.5l-87 -84q-23 23 -49 36t-61 13q-33 0 -57 -11.5t-39 -29.5t-22 -41.5t-7 -47.5q0 -58 34 -93.5t93 -35.5q22 0 39.5 5t31 12t22.5 14.5t15 13.5z" />
    <glyph glyph-name="ordfeminine" unicode="&#xaa;" horiz-adv-x="437" 
d="M169 711q3 0 13.5 1t14.5 1q2 0 8.5 -1t8.5 -1q4 0 16 0.5t16 0.5h5q5 -1 20 -3t20 -2q13 -2 23 -3.5t21 -8.5q4 -2 15.5 -10.5t14.5 -10.5q27 -24 33 -48t6 -48q0 -4 -1.5 -18t-1.5 -19q0 -2 0.5 -8.5t0.5 -14t0.5 -14t0.5 -9.5v-6t-0.5 -12.5t-0.5 -12.5v-7
q0 -3 -0.5 -9.5t-0.5 -14t-0.5 -14.5t-0.5 -10t1 -14.5t1 -14.5q0 -7 -1 -11t-2 -6q-5 -9 -13 -10t-26 -1h-39q-2 0 -8.5 -0.5t-13 -0.5t-12.5 -0.5t-7 -0.5q-11 0 -13 6t-2 13q0 8 -5 8q-2 0 -8.5 -4.5t-8.5 -5.5q-10 -6 -28 -14t-46 -8q-2 0 -7.5 0.5t-12 1t-12.5 1.5
t-9 2q-5 2 -10.5 3.5t-10.5 3.5q-6 2 -14 4q-11 4 -19 10.5t-23 20.5q-5 5 -7.5 9.5t-7.5 15.5q-8 16 -10.5 23t-2.5 18q0 14 2 26.5t9 26.5q7 15 20 32.5t34 25.5q1 0 9 2.5t17.5 5t17.5 5t10 2.5q11 2 30 2h30q2 0 7 -1t11 -2q6 -2 12 -3t8 -1q3 0 7 1.5t4 6.5
q0 7 -4.5 11t-8.5 6q-8 5 -11.5 6t-11.5 1q-3 0 -14.5 1t-15.5 1q-5 0 -16 -0.5t-12 -0.5t-9.5 -1.5t-19 -4t-20 -4t-11.5 -1.5q-10 0 -12.5 1.5t-6.5 6.5q-5 6 -5.5 12.5t-0.5 30.5q0 3 -1 12t-1 11q0 8 0.5 11.5t2.5 5.5q4 6 18 10t30 6t30 2.5t18 0.5zM199 495
q-6 0 -15.5 -6t-9.5 -19q0 -4 1 -6q2 -5 5 -9.5t13 -4.5q2 0 10 1t10 1t7.5 0.5t11 3t9.5 7.5t4 13q0 6 -5.5 12t-19.5 6q-3 0 -11 0.5t-10 0.5z" />
    <glyph glyph-name="guillemotleft" unicode="&#xab;" horiz-adv-x="375" 
d="M24 315q0 15 6 29q5 9 13 16t16 15q2 2 7 7.5t10.5 11.5t10.5 11.5t7 7.5q11 11 14.5 15t9.5 12q7 8 14.5 14.5t16.5 6.5q13 0 16 -8q2 -2 2.5 -7t0.5 -25q0 -5 0.5 -20.5t0.5 -20.5q0 -2 -0.5 -8.5t-0.5 -13.5t-0.5 -13.5t-0.5 -9.5q0 -4 1 -18.5t1 -19.5q0 -17 -7 -23
t-17 -11q-20 -10 -25 -14.5t-5 -8.5q0 -6 5 -10t24 -13q14 -7 19.5 -12t5.5 -19q0 -5 -0.5 -10t-0.5 -10q0 -3 0.5 -12t0.5 -12v-10.5t-0.5 -16t-0.5 -16v-10.5q0 -2 0.5 -11t0.5 -11q0 -12 -3.5 -21t-13.5 -9q-5 0 -11.5 4t-13.5 9t-12.5 10t-7.5 8l-20 20t-15 14
q-2 2 -7.5 8t-7.5 8q-7 7 -16 13q-11 9 -12.5 16t-1.5 27q0 2 -0.5 10t-0.5 10q0 3 0.5 13t0.5 13v37t-1 35q-1 5 -1.5 11t-0.5 12zM204 331q0 10 5 20q2 3 12 13.5t13 14.5q15 18 25 27t21 17q8 6 14.5 12.5t14.5 12.5q11 10 15 12t6 2q5 0 12.5 -5.5t7.5 -19.5
q0 -4 -1 -15.5t-1 -15.5q0 -5 1 -18.5t1 -18.5q0 -10 -1 -20t-1 -20q0 -3 1 -14t1 -14q0 -17 -6.5 -23t-22.5 -15q-27 -15 -27 -23q0 -4 4.5 -9t21.5 -11q22 -10 26 -17.5t3 -22.5q-1 -4 -0.5 -17.5t0.5 -17.5t-0.5 -18t-0.5 -18q0 -5 0.5 -10t0.5 -10q1 -6 2 -11.5t1 -11.5
q0 -11 -4 -19.5t-15 -8.5q-8 0 -19 9q-13 10 -23 16q-11 8 -15.5 12.5t-16.5 17.5q-4 4 -13 12.5t-11 9.5q-13 11 -21 21t-8 27q0 3 0.5 13.5t0.5 13.5v21t-1 21q0 6 -0.5 11.5t-0.5 11.5q0 3 0.5 12.5t0.5 12.5v33q-1 5 -1.5 9t-0.5 9z" />
    <glyph glyph-name="registered" unicode="&#xae;" horiz-adv-x="833" 
d="M413 586q29 0 57 -1.5t51 -9.5q44 -14 62.5 -47.5t18.5 -65.5q0 -26 -8.5 -43.5t-20.5 -29.5t-26 -19.5t-25 -12.5q10 -7 18 -13t14 -15t10.5 -23t8.5 -35q7 -47 14.5 -79.5t24.5 -63.5h-126q-11 21 -15.5 45t-9.5 54q-5 34 -9 52.5t-14 27.5t-28 11t-50 2v-192h-110v458
h163zM360 407h48q25 0 39.5 1.5t24.5 7.5q11 6 15.5 17.5t4.5 22.5t-5 23t-19 18q-5 2 -10 3t-12.5 1.5t-20 0.5h-32.5h-33v-95zM773 354q0 -74 -27.5 -139t-75.5 -113.5t-113.5 -76.5t-141.5 -28q-69 0 -133 26t-113 73t-78.5 112.5t-29.5 144.5q0 77 28.5 142t77 112.5
t113 74.5t136.5 27q77 0 142.5 -28.5t113 -77t74.5 -113t27 -136.5zM416 29q69 0 128.5 25.5t103 69.5t68.5 103t25 127q0 66 -24.5 124.5t-68 103t-102.5 70t-128 25.5t-128 -25.5t-103 -69.5t-69 -103t-25 -126q0 -68 25.5 -127.5t69.5 -103t102.5 -68.5t125.5 -25z" />
    <glyph glyph-name="macron" unicode="&#xaf;" horiz-adv-x="208" 
d="M197 614q-2 -1 -7.5 -0.5t-7.5 0.5q-3 0 -13 -1t-13 -1t-10 0.5t-15 0.5t-15.5 0.5t-10.5 0.5q-2 0 -7.5 -0.5t-12 -1t-12.5 -1t-8 -0.5q-3 0 -14.5 1t-15.5 1q-2 0 -8 -0.5t-12.5 -0.5t-12 -0.5t-8.5 -0.5q-16 0 -24.5 3.5t-8.5 20.5q0 6 1 12t1 13v12q0 10 2.5 17.5
t13.5 11.5q2 0 11 1.5t14 1.5q2 0 16 -0.5t16 -0.5q3 0 14 -1.5t14 -1.5q5 0 8.5 0.5t8.5 0.5q4 1 8 1h8h16q2 0 8 0.5t12.5 0.5t12.5 0.5t9 0.5q9 0 17.5 -0.5t17.5 -0.5q4 0 16 1t16 1q20 0 23 -7t3 -11q0 -7 -0.5 -13t-1.5 -12v-17q0 -24 -7 -28.5t-16 -4.5q-2 0 -6.5 1
t-6.5 1h-13z" />
    <glyph glyph-name="twosuperior" unicode="&#xb2;" horiz-adv-x="437" 
d="M19 539q0 3 0.5 10t1 15t1.5 15t2 10q2 9 8 23t11 21l8 8q2 3 4 6.5t4 6.5q5 8 13 14q1 0 6.5 4.5t14 10t18 11t18.5 8.5q1 1 7.5 2.5t13.5 3t13 2.5t7 1t6 0.5t11 1t11.5 0.5h7.5q29 0 47 -3t32 -10q4 -2 7.5 -3.5t6.5 -3.5q4 -2 7.5 -3.5t7.5 -3.5q6 -2 11.5 -6.5
t7.5 -5.5l7.5 -7.5t14 -15t14 -15.5t7.5 -8q11 -14 14.5 -30t4.5 -27v-13q0 -1 0.5 -5t0.5 -6t-0.5 -11t-1.5 -11q-2 -9 -7 -23t-6 -16l-2.5 -4t-6 -8.5t-6.5 -8.5l-3 -4q-1 -2 -7 -7t-13 -11t-13.5 -11.5t-7.5 -6.5q-3 -2 -6.5 -4t-7.5 -5q-8 -4 -8 -9t4 -6t13 -1
q2 0 6.5 0.5t6.5 1.5q2 0 10 -0.5t11 -0.5q2 0 11.5 1t12.5 1q24 0 31 -10t7 -28q0 -2 -0.5 -8t-0.5 -13t-0.5 -13.5t-0.5 -9.5t1 -14.5t1 -15.5q0 -21 -12 -24.5t-23 -3.5q-3 0 -12 0.5t-19 1t-19 1t-13 0.5h-6.5t-9.5 -1q-5 0 -9 -0.5t-6 -0.5q-8 0 -14.5 0.5t-14.5 0.5
q-2 0 -7.5 -0.5t-12 -0.5t-12 -0.5t-8.5 -0.5l-8 0.5t-18.5 1.5t-20 1.5t-13.5 0.5q-3 0 -9.5 -0.5t-14 -1.5t-14.5 -1.5t-10 -0.5h-38q-7 0 -18 2.5t-11 18.5q0 2 1 11t1 11t-0.5 10.5t-0.5 10.5t-1 9.5t-1 9.5q0 11 8.5 18.5t21.5 13.5q3 2 6.5 2.5t6.5 2.5q1 0 8.5 4
t8.5 5q4 2 6.5 5t6.5 5q2 2 4.5 2.5t4.5 2.5q12 7 18 12.5t12 12.5q3 3 6.5 6t7.5 6q3 2 13.5 9.5t13.5 10.5q11 9 18 19t11 19t5.5 16t1.5 9t-0.5 7.5t-3.5 11.5q-5 11 -15 15.5t-21 4.5q-6 0 -15 -3t-10 -4q-5 -3 -10 -11.5t-7 -13.5q-2 -4 -2 -7.5t-1 -7.5t-4 -8.5
t-14 -4.5q-4 0 -16 1.5t-16 1.5q-3 -1 -10 -1h-10q-2 0 -10 -0.5t-10 -0.5q-3 0 -9 1.5t-11.5 5t-9.5 10t-4 15.5z" />
    <glyph glyph-name="threesuperior" unicode="&#xb3;" horiz-adv-x="437" 
d="M232 708q9 0 13.5 -0.5t19.5 -4.5q16 -4 21.5 -6t16.5 -8q20 -12 27 -16.5t15 -14.5q6 -7 8 -10.5t7 -16.5q2 -5 3.5 -8.5t3.5 -8.5q2 -6 2.5 -12t0.5 -13v-21q-3 -17 -12 -29t-12 -14t-5.5 -3.5t-5.5 -3.5q-6 -6 -6 -10q0 -3 3.5 -5.5t5.5 -4.5q6 -2 8 -3
q14 -8 23.5 -23.5t11.5 -20.5q2 -6 3 -12.5t3 -13.5q1 -4 2 -7.5t2 -8.5q0 -2 0.5 -4.5t0.5 -4.5q0 -5 -2.5 -19.5t-4.5 -22.5q-4 -16 -18 -33t-23 -23q-5 -4 -11.5 -7t-12.5 -7q-10 -5 -23 -13t-24 -10q-5 -2 -20 -3t-36 -1q-4 0 -16.5 -0.5t-16.5 -0.5h-10t-15 0.5t-15 1
t-9 0.5q-4 1 -17 3t-18 2q-16 2 -26.5 4.5t-16.5 6.5t-8 11.5t-2 20.5q0 5 0.5 10t1.5 10q2 9 2 15.5v9.5t-1 14t-1 14q0 2 2 12t16 10q3 0 15.5 -3t22.5 -6q5 -1 8 -1t13 -1q3 0 9.5 -0.5t14 -1t13 -1t6.5 -0.5h20q16 0 26.5 8t10.5 19q0 8 -6.5 15.5t-16.5 8.5
q-2 1 -6 0.5t-6 -0.5t-8 1t-8 1t-12.5 -1t-13.5 -1q-4 0 -11.5 1t-11.5 9q-2 3 -2 8.5v26.5q0 2 -0.5 7.5t-0.5 12t-0.5 12t-0.5 8.5t1.5 8.5t6.5 10.5q3 2 9 4.5t9 2.5q4 0 19 -1.5t19 -1.5q1 0 5.5 0.5t9 2.5t8.5 6t4 11q0 8 -7 13.5t-18 5.5q-1 0 -4 -0.5t-5 -0.5
q-1 0 -4.5 1t-4.5 1q-3 1 -14 1q-2 0 -10.5 -1t-10.5 -1h-13q-5 0 -19.5 -3t-19.5 -3q-18 0 -22 12t-4 26q0 4 1 15.5t1 14.5q0 2 -1 10.5t-1 10.5q0 9 1.5 15.5t7 11t16.5 7t29 4.5q4 1 16 0.5t16 -0.5q8 0 16 0.5t16 0.5q2 0 8 -0.5t13 -1t13 -1t9 -0.5h14z" />
    <glyph glyph-name="acute" unicode="&#xb4;" horiz-adv-x="208" 
d="M-50 631q0 5 7 17.5t9 17.5q2 3 5 6t5 6q5 6 8 12.5t7 13.5q11 17 20.5 19.5t23.5 1.5h23q2 0 8 -0.5t12.5 -0.5t12 -0.5t8.5 -0.5t11.5 0.5t18 1t18.5 1t13 0.5t18.5 -1t19.5 -1q3 0 14 0.5t15 0.5q8 0 19.5 -3t11.5 -21q0 -15 -13 -22q-3 -2 -11 -4.5t-17.5 -5
t-18.5 -5t-12 -3.5q-8 -3 -15.5 -6.5t-15.5 -5.5q-3 -1 -6.5 -1.5t-6.5 -1.5q-5 -2 -9.5 -3t-9.5 -3q-4 -1 -7.5 -1t-7.5 -2q-4 -1 -12 -5q-6 -2 -22 -7.5t-23 -6.5q-9 -2 -17.5 -2.5t-37.5 0.5q-3 0 -13.5 -0.5t-13.5 -0.5q-11 0 -15 5t-4 11z" />
    <glyph glyph-name="mu" unicode="&#xb5;" 
d="M619 46q0 -17 -6.5 -26.5t-15.5 -14t-18 -5t-14 -0.5q-16 0 -31 1t-31 1q-2 0 -13.5 -0.5t-25 -0.5t-25 -0.5t-12.5 -0.5q-7 0 -12 4t-9 9.5t-6 10.5t-3 7q-2 4 -5.5 10.5t-10.5 6.5q-3 0 -10 -8q-4 -5 -10.5 -11.5t-16 -13.5t-21.5 -11.5t-26 -4.5q-3 0 -7.5 0.5
t-8.5 2.5q-9 4 -11 4q-7 0 -7 -5q0 -3 2 -9q1 -2 1.5 -9.5t1.5 -16t1.5 -16t0.5 -10.5q0 -20 -12 -23.5t-23 -3.5q-3 0 -11 0.5t-18 1.5q-9 0 -17 0.5t-12 0.5q-3 0 -10 -0.5t-15 -1t-15 -1t-10 -0.5q-2 0 -7.5 0.5t-11.5 0.5q-6 1 -11.5 1h-7.5q-8 0 -16.5 -0.5t-16.5 -0.5
q-14 0 -21.5 5.5t-7.5 30.5q0 3 0.5 9t1 12.5t1 12.5t0.5 9q0 2 -1 11.5t-1 12.5v25q-1 2 -1.5 9t-0.5 9q0 3 0.5 11t1.5 17t1.5 17.5t0.5 11.5q0 15 -1 36t-1 36q0 4 -0.5 13.5t-0.5 20.5t-0.5 21t-0.5 14t0.5 17t0.5 17q0 5 1.5 19.5t1.5 19.5v9.5t-0.5 14.5t-0.5 15v10
v8.5t-0.5 13.5t-0.5 13.5v9.5q0 11 0.5 21t0.5 21q0 4 -0.5 16t-0.5 16q0 33 4 44t9 16t13.5 9.5t20.5 4.5q2 0 11.5 -1t21 -1.5t22 -1.5t13.5 -1q2 0 7.5 0.5t11.5 1.5q7 1 12.5 1.5t7.5 0.5q9 0 13 -1q3 0 6.5 -0.5t6.5 -0.5t14.5 1.5t15.5 1.5q8 0 15 -2.5t14 -6.5
q14 -8 18.5 -17t4.5 -23q0 -4 -0.5 -13.5t-1 -20.5t-1 -21t-0.5 -14q0 -3 1 -16t1 -17q0 -2 -0.5 -10t-0.5 -10v-6q-1 -4 -2 -7.5t-1 -7.5v-12q0 -3 -1 -13.5t-1 -13.5q0 -4 0.5 -12t1.5 -17t2 -16.5t2 -11.5q7 -34 33 -34q13 0 23 13t11 47q0 9 1 13q0 5 1 10.5t1 10.5v4
t-1 7q0 1 -0.5 9t-0.5 16.5t-0.5 16t-0.5 8.5q0 4 1 13.5t2 21t2 21.5t1 14q0 3 -0.5 10.5t-1.5 16.5t-1.5 17t-0.5 11q0 15 4.5 23.5t10 13t11.5 5.5t9 1q2 0 7.5 -0.5t11.5 -1.5t11.5 -1.5t7.5 -0.5q3 0 10 0.5t15 1.5t15 1.5t10 0.5q2 0 6.5 -0.5t9.5 -0.5q5 -1 9.5 -1.5
t6.5 -0.5q7 0 13.5 0.5t14.5 1.5q7 1 13.5 1.5t13.5 0.5q16 0 25 -3.5t17 -13.5q2 -2 7.5 -12.5t5.5 -21.5q0 -10 -2.5 -19.5t-3.5 -20.5q-1 -2 -2 -15t-1 -15t0.5 -9.5t0.5 -9.5q0 -4 -1 -16t-1 -16v-26q0 -3 0.5 -12t0.5 -12q1 -2 0.5 -6t-0.5 -6q0 -5 1.5 -21t1.5 -21
q0 -3 -0.5 -12t-1 -18.5t-1 -18.5t-0.5 -13v-11v-17.5v-18v-11.5q0 -4 -0.5 -13.5t-0.5 -20t-0.5 -20t-0.5 -13.5q0 -10 0.5 -18t1.5 -14q2 -8 3.5 -18t1.5 -14v-2z" />
    <glyph glyph-name="periodcentered" unicode="&#xb7;" horiz-adv-x="313" 
d="M282 214q0 -2 1 -12t1 -13q0 -4 -2 -18.5t-11 -25.5t-25 -13.5t-22 -2.5q-5 0 -17.5 0.5t-26.5 1.5t-27 1.5t-18 0.5t-19 -1.5t-19 -1.5q-22 0 -30 1t-11 2q-14 6 -20 20t-6 30q0 3 0.5 10t0.5 15t0.5 16t0.5 11q0 5 -0.5 18.5t-0.5 29t-0.5 29t-0.5 19.5q0 14 5.5 24.5
t14 17.5t17.5 10.5t16 3.5q6 0 12 -1l12 -2t17.5 -1h17.5q3 0 14.5 0.5t14.5 0.5t12.5 -0.5t12.5 -0.5q2 0 11 0.5t12 0.5q21 0 41 -9t24 -39v-10.5v-16.5t-0.5 -16.5t-0.5 -10.5q0 -4 -1 -16t-1 -16q0 -5 0.5 -9.5t0.5 -9.5v-17z" />
    <glyph glyph-name="cedilla" unicode="&#xb8;" horiz-adv-x="208" 
d="M83 11q0 9 7 10t12 0h7.5t14 0.5t14.5 0.5h10q4 0 5.5 -3t1.5 -5t-1.5 -8t-2.5 -8q-2 -11 -3 -17.5t-1 -17.5q0 -4 1 -6q0 -1 4 -4t9.5 -7t10 -8t6.5 -6q6 -7 11.5 -18t5.5 -21q0 -7 -1.5 -18.5t-4.5 -18.5q-7 -14 -19 -21.5t-26 -11t-29.5 -4t-28.5 -0.5q-5 0 -14 2
l-18 4t-16 4.5t-9 3.5q-17 8 -17 30q0 8 1 15.5t1 15.5v11q0 10 7 22.5t21 12.5q2 0 14 -1.5t16 -1.5q11 0 13 7t2 12q0 9 -0.5 18.5t-1.5 19.5q-2 10 -2 17z" />
    <glyph glyph-name="onesuperior" unicode="&#xb9;" horiz-adv-x="437" 
d="M337 441q0 -3 0.5 -11.5t0.5 -11.5q0 -2 -0.5 -7.5t-0.5 -7.5v-14q0 -4 -1 -16.5t-1 -17.5q0 -8 1 -23t3 -22q1 -5 2 -12.5t1 -9.5q0 -15 -8.5 -19t-21.5 -4h-43q-3 0 -14 0.5t-14 0.5q-4 0 -17 -1t-18 -1q-12 0 -22 6t-10 21q0 1 1 9t2 13t1.5 9t0.5 9q0 3 -0.5 10.5
t-1 16.5t-1 17t-0.5 11q0 4 0.5 14t1 21.5t1 22t0.5 14.5t-0.5 16.5t-0.5 16.5q0 3 1 13.5t1 13.5q0 6 -3 11.5t-11 5.5q-4 0 -8 -2.5t-8 -5.5q-4 -4 -9 -7q-6 -7 -10 -10t-12 -3q-10 0 -19 12q-3 4 -5.5 7t-5.5 6q-2 3 -5.5 6.5l-8.5 8.5q-11 9 -17.5 17t-6.5 19
q0 5 4.5 11t8.5 9q3 2 14.5 8.5t15.5 8.5q4 3 7 6.5t8 6.5q5 4 9 7t9 7q2 2 8 7.5t12.5 11.5t12.5 12t9 8q4 3 9 7.5t10 7.5q7 6 12 7.5t25 1.5q1 0 8 -0.5t9 -1.5q5 -1 13 -1h11q2 0 7.5 0.5t11.5 1.5q6 0 11.5 0.5t7.5 0.5q15 0 20 -3.5t8 -7.5q6 -8 8 -14t2 -20
q0 -1 -0.5 -13t-0.5 -13q-1 -4 -2.5 -16.5t-1.5 -17.5v-17t1 -18q0 -4 1 -19t1 -20q0 -3 -0.5 -10t-1 -15t-1 -15.5t-0.5 -10.5v-39z" />
    <glyph glyph-name="ordmasculine" unicode="&#xba;" horiz-adv-x="458" 
d="M209 338q-5 0 -10.5 0.5t-11.5 1.5q-3 0 -6 1t-6 1q-5 1 -15 1q-8 2 -14.5 5.5t-14.5 7.5q-5 2 -9.5 4.5t-9.5 4.5q-4 2 -10.5 5.5t-11.5 8.5q-6 5 -13 13.5t-13 14.5q-12 11 -23 26.5t-15 36.5q-2 10 -3 14q-2 7 -3.5 13.5t-3.5 13.5q-1 3 -1 6.5v6.5q0 24 8 48t11 31
q2 5 6 9.5t7 9.5t6 9.5t6 9.5q5 6 18.5 18t23.5 19q1 1 8.5 4.5t16.5 7.5t17 7.5t10 4.5q12 3 36 6.5t41 3.5q11 0 21.5 -1t11.5 -1q2 0 12.5 -2.5t13.5 -3.5q12 -2 19 -3t13 -3t12 -5t15 -8q10 -5 14 -8.5t15 -13.5l5 -5l8.5 -8.5t8 -9t5.5 -6.5l5 -5t8 -11q2 -5 3.5 -9
t3.5 -9q3 -7 6.5 -13t5.5 -13q0 -1 1 -6.5t2.5 -13t3 -16.5t1.5 -16q0 -15 -2 -23t-5 -17q-1 -2 -3 -10.5t-3 -10.5q-2 -8 -8 -18t-12.5 -20t-12.5 -18t-9 -11q-2 -2 -12 -9t-13 -9l-10 -8l-10 -8q-2 -2 -4.5 -2.5t-4.5 -2.5q-8 -3 -18.5 -6.5t-21 -5.5t-20 -3.5t-13.5 -1.5
h-53zM217 566q-8 0 -11.5 -2t-10.5 -7q-2 -2 -4 -2.5t-4 -2.5q-12 -12 -12 -28q0 -14 8.5 -22.5t18.5 -11.5q2 -1 13.5 -4t13.5 -3q3 0 13 1.5t15 3.5q16 6 23.5 17t7.5 19q0 4 -2 9q-4 11 -7.5 14t-15.5 10q-13 8 -16 9t-8 1q-2 0 -6.5 -0.5t-6.5 -0.5h-9z" />
    <glyph glyph-name="guillemotright" unicode="&#xbb;" horiz-adv-x="375" 
d="M207 368v12.5t-0.5 20.5t-0.5 21v14q0 15 6 20.5t10 5.5q3 0 8.5 -2.5t25.5 -16.5q5 -5 9 -8.5t16 -16.5q1 -1 7.5 -7t14.5 -13.5t14.5 -14l6.5 -6.5q5 -4 9.5 -7.5t7.5 -8.5q5 -8 6.5 -17.5t1.5 -19.5v-10t-0.5 -15t-0.5 -15.5v-10.5v-8t0.5 -12.5t0.5 -12.5v-9
t0.5 -9.5t0.5 -14t0.5 -14.5t0.5 -10q0 -19 -4.5 -26t-15.5 -18t-25 -26.5t-25 -26.5q-3 -4 -6.5 -7t-7.5 -7t-7 -7.5t-7 -8.5q-5 -7 -12.5 -12.5t-15.5 -5.5q-16 0 -18 16v25q0 5 -0.5 19.5t-0.5 19.5q0 2 0.5 8.5t0.5 13.5t0.5 13.5t0.5 9.5q0 5 -1 19.5t-1 19.5
q0 17 7.5 23.5t16.5 11.5q16 8 23 12t7 11q0 3 -5 8.5t-26 14.5q-8 4 -15.5 9.5t-7.5 16.5q0 3 0.5 12t0.5 12v35zM26 387q0 3 -0.5 9.5t-1 14.5t-1 15t-0.5 10q0 10 4 17q6 8 15 8q8 0 19 -9q6 -5 11 -8.5t11 -7.5q10 -7 12.5 -8.5t7.5 -6.5q4 -4 7 -7.5t6 -6.5l11.5 -11.5
t13.5 -11.5q16 -14 22.5 -23t6.5 -26q0 -3 -1 -14t-1 -14t0.5 -5.5t0.5 -5.5t0.5 -10.5t0.5 -16t0.5 -16.5t0.5 -11q0 -4 -0.5 -17.5t-0.5 -18.5q0 -4 1 -17.5t1 -17.5q0 -5 -1 -11.5t-4 -11.5q-2 -3 -11.5 -13t-12.5 -13q-6 -8 -17 -20t-18 -17q-4 -3 -13 -10.5t-19 -16
t-18.5 -15t-12.5 -6.5q-5 0 -10 4t-7 9q-1 2 -1.5 7t-0.5 17q0 5 0.5 10.5t0.5 10.5v11t-1 11v9.5t0.5 14.5t0.5 14.5v9.5q0 4 -0.5 17t-0.5 17q0 14 5.5 21t21.5 15q21 11 24.5 16t3.5 8q0 10 -16 16q-26 11 -33 18t-6 24v70z" />
    <glyph glyph-name="questiondown" unicode="&#xbf;" horiz-adv-x="604" 
d="M401 603q0 -2 1 -9t1 -9q0 -6 -2 -10.5t-3 -6.5q-4 -6 -9 -10.5t-17 -4.5q-3 0 -13 0.5t-13 0.5h-11t-17.5 -0.5t-18 -0.5h-11.5h-12.5t-13.5 1q-3 0 -14 1t-13 1q-5 0 -18.5 -1t-18.5 -1q-3 0 -14.5 2.5t-15.5 2.5q-5 0 -6.5 0.5t-5.5 3.5q-8 6 -10 8.5t-4 8.5v23
q0 3 -0.5 9.5t-1 14t-1 14.5t-0.5 10t0.5 9.5t2.5 14t6.5 15t12.5 12.5q4 2 10.5 4.5t17.5 2.5q3 0 14.5 -0.5t25 -1.5t25.5 -2t17 -1h27q2 0 8.5 0.5t13.5 1.5q8 0 14.5 0.5t8.5 0.5q26 0 43 -5t17 -30q0 -3 -1 -13.5t-1 -13.5v-42zM14 235q0 15 4 27.5t6 18.5q3 8 5.5 13
t13.5 21q5 9 9.5 18t11.5 17l3.5 4t8 8.5l8 8t3.5 4.5q5 5 9.5 8.5t9.5 7.5q16 15 26 30q12 17 14 30t4 37q1 22 9.5 30t29.5 8q5 0 10.5 -0.5t10.5 -0.5q2 -1 11.5 -0.5t11.5 0.5q3 0 13 -0.5t13 -0.5q2 0 10.5 0.5t10.5 0.5q3 0 6 -0.5t14 -2.5q5 -1 9.5 -1h9.5t20 1.5
t20 1.5q13 0 21.5 -5t13 -11t6 -12.5t1.5 -9.5q0 -2 -0.5 -7.5t-0.5 -7.5t0.5 -6.5t0.5 -6.5q0 -8 -2 -18.5t-4.5 -19.5t-5 -16l-2.5 -7q0 -1 -3.5 -5.5t-8 -10t-8 -10t-3.5 -5.5q-2 -3 -3.5 -6.5t-3.5 -6.5q-2 -5 -7.5 -11t-9.5 -10q-4 -3 -8 -6.5t-8 -7.5
q-20 -18 -26 -31.5t-6 -25.5q0 -15 10.5 -22.5t21.5 -7.5q4 0 13 1.5t16 6.5q4 2 7 5.5t6 5.5l6 4t5 4q8 5 10 9t6 15q0 1 2.5 5t5 8.5t5 8.5t3.5 5q5 5 14.5 12t17.5 7q11 0 25 -7.5t22 -15.5q4 -4 8 -8.5t8 -8.5q4 -3 7 -6t7 -5q2 -2 7 -5.5t11 -7.5t11.5 -8t7.5 -6
q4 -3 6.5 -6.5t5.5 -6.5q5 -5 9.5 -8.5t7.5 -8.5q4 -8 4 -16q0 -7 -2.5 -15.5t-6 -15.5t-6.5 -12t-4 -6q-6 -11 -15 -24.5l-11 -16.5l-22 -22q-17 -17 -26.5 -27.5t-16.5 -16.5t-11.5 -9.5t-10.5 -6.5q-2 -1 -17.5 -8.5t-27.5 -11.5q-3 -1 -13 -3t-22 -4t-22.5 -4t-13.5 -2
q-2 0 -10 0.5t-11 0.5q-2 0 -10 -0.5t-17 -0.5q-8 -1 -16 -1.5t-12 -0.5q-11 0 -21 1t-20 3q-4 0 -15 2t-13 3q-7 2 -13 5.5t-13 6.5q-4 2 -8 3t-8 3q-5 2 -12.5 6t-13.5 6q-17 8 -35 24q-12 10 -20 17.5t-12.5 13t-8 10.5t-6.5 11q-2 4 -6 14t-8 21t-7.5 20.5t-4.5 11.5
q-2 9 -2.5 14t-0.5 22q0 2 -1 10t-1 10z" />
    <glyph glyph-name="Agrave" unicode="&#xc0;" horiz-adv-x="771" 
d="M0 42q0 14 3 23.5t11 30.5q5 11 10 32t16 66q3 16 9 31q5 15 10 29t9 29q5 21 8.5 43t9.5 43q5 17 11.5 33t12.5 33q2 5 3.5 11t3.5 12l4 18l4 18q1 4 6 17t10.5 27.5t10 27t5.5 14.5q3 8 5 17l4 18q3 8 6 17l6 18q5 12 10 23.5t17 19.5q16 11 29 12.5t26 1.5h14t22 -1
q11 0 21.5 -0.5t14.5 -0.5h14t18.5 0.5t18 1t13.5 0.5q2 0 14 1t14 1q3 0 12.5 -0.5t20 -1.5t19.5 -1.5t13 -0.5t16.5 0.5t16.5 0.5q11 0 27 -2.5t23 -6.5q6 -4 14.5 -13t13.5 -17q1 -3 4 -10.5t6 -16t5 -17t3 -13.5q1 -8 5 -19l4 -18t4 -17q3 -11 9 -30t12 -35
q4 -11 6.5 -18t4 -14t3 -15.5t3.5 -21.5q1 -10 2.5 -17.5t3.5 -15.5t5 -19t8 -28q3 -12 6 -24.5t7 -24.5q4 -17 9 -30q3 -7 5.5 -13.5t4.5 -13.5q2 -8 5.5 -17t5.5 -17t4 -17l4 -18l4 -14l4 -14q1 -2 4 -10.5t4 -10.5q0 -1 1.5 -7.5t4 -14.5t4 -14.5l1.5 -6.5q2 -10 2 -15
q0 -50 -47 -59q-4 0 -7 -0.5t-7.5 -0.5h-11.5h-19q-3 0 -12 -0.5t-19 -1t-19 -1t-13 -0.5q-2 0 -8.5 0.5t-13.5 1.5q-8 0 -14 0.5t-9 0.5q-2 0 -10.5 -0.5t-10.5 -0.5q-13 0 -21 1.5t-13.5 5.5t-9 10.5t-8.5 17.5q-14 31 -24 40.5t-30 9.5q-4 0 -18 -2t-19 -2q-4 -1 -8 -1
h-8t-13.5 0.5t-20 1.5t-20 1.5t-13.5 0.5q-13 0 -25.5 -4.5t-19.5 -14.5q-1 -2 -3.5 -7.5t-5.5 -11.5t-5.5 -12t-3.5 -8q-11 -18 -22 -21.5t-19 -3.5q-3 0 -10.5 0.5t-15.5 0.5t-15.5 0.5t-10.5 0.5h-10t-15 -0.5t-15.5 -0.5h-10.5t-14.5 0.5t-14.5 0.5q-4 0 -17.5 -1
t-17.5 -1q-3 0 -11 1t-16.5 5t-15.5 12.5t-7 23.5zM385 467q-8 0 -13 -5t-11 -21q-4 -9 -6 -16t-7 -31q-1 -3 -3.5 -11.5t-5 -18.5t-4.5 -18.5t-2 -12.5q0 -19 18 -24q5 -1 9.5 -1h23.5q2 0 11.5 -0.5t12.5 -0.5q27 0 27 21q0 4 -2 12q-2 7 -3 13.5t-3 12.5q-2 8 -3 16
t-3 16q-2 5 -3.5 10t-3.5 10q-3 8 -5 16t-5 16q-2 5 -5 11t-14 6zM446 867q14 0 22 -8t10 -13l3.5 -7l3.5 -7t5.5 -7.5t6.5 -8.5l6 -12q2 -5 5 -9t6 -9q6 -8 6 -13q0 -1 -3 -8.5t-18 -7.5q-5 0 -11 1t-11 1q-3 0 -12 -1.5t-12 -1.5q-14 0 -30.5 2t-30.5 8q-6 4 -10 5
q-2 1 -5 1.5t-5 1.5l-4 2l-4 2q-7 2 -19 4q-14 3 -31.5 10t-31.5 11l-12 3q-8 4 -11 4.5t-8 1.5q-3 1 -9.5 2.5t-13 5t-11.5 8.5t-5 12q0 11 4 19.5t24 8.5q3 0 14 -1t14 -1q8 0 15.5 0.5t15.5 0.5q2 0 11.5 -0.5t12.5 -0.5h19q2 0 12 -1t13 -1t15 1.5t16 1.5q3 0 13.5 -0.5
t13.5 -0.5q2 0 10 0.5t11 0.5z" />
    <glyph glyph-name="Aacute" unicode="&#xc1;" horiz-adv-x="771" 
d="M0 42q0 14 3 23.5t11 30.5q5 11 10 32t16 66q3 16 9 31q5 15 10 29t9 29q5 21 8.5 43t9.5 43q5 17 11.5 33t12.5 33q2 5 3.5 11t3.5 12l4 18l4 18q1 4 6 17t10.5 27.5t10 27t5.5 14.5q3 8 5 17l4 18q3 8 6 17l6 18q5 12 10 23.5t17 19.5q16 11 29 12.5t26 1.5h14t22 -1
q11 0 21.5 -0.5t14.5 -0.5h14t18.5 0.5t18 1t13.5 0.5q2 0 14 1t14 1q3 0 12.5 -0.5t20 -1.5t19.5 -1.5t13 -0.5t16.5 0.5t16.5 0.5q11 0 27 -2.5t23 -6.5q6 -4 14.5 -13t13.5 -17q1 -3 4 -10.5t6 -16t5 -17t3 -13.5q1 -8 5 -19l4 -18t4 -17q3 -11 9 -30t12 -35
q4 -11 6.5 -18t4 -14t3 -15.5t3.5 -21.5q1 -10 2.5 -17.5t3.5 -15.5t5 -19t8 -28q3 -12 6 -24.5t7 -24.5q4 -17 9 -30q3 -7 5.5 -13.5t4.5 -13.5q2 -8 5.5 -17t5.5 -17t4 -17l4 -18l4 -14l4 -14q1 -2 4 -10.5t4 -10.5q0 -1 1.5 -7.5t4 -14.5t4 -14.5l1.5 -6.5q2 -10 2 -15
q0 -50 -47 -59q-4 0 -7 -0.5t-7.5 -0.5h-11.5h-19q-3 0 -12 -0.5t-19 -1t-19 -1t-13 -0.5q-2 0 -8.5 0.5t-13.5 1.5q-8 0 -14 0.5t-9 0.5q-2 0 -10.5 -0.5t-10.5 -0.5q-13 0 -21 1.5t-13.5 5.5t-9 10.5t-8.5 17.5q-14 31 -24 40.5t-30 9.5q-4 0 -18 -2t-19 -2q-4 -1 -8 -1
h-8t-13.5 0.5t-20 1.5t-20 1.5t-13.5 0.5q-13 0 -25.5 -4.5t-19.5 -14.5q-1 -2 -3.5 -7.5t-5.5 -11.5t-5.5 -12t-3.5 -8q-11 -18 -22 -21.5t-19 -3.5q-3 0 -10.5 0.5t-15.5 0.5t-15.5 0.5t-10.5 0.5h-10t-15 -0.5t-15.5 -0.5h-10.5t-14.5 0.5t-14.5 0.5q-4 0 -17.5 -1
t-17.5 -1q-3 0 -11 1t-16.5 5t-15.5 12.5t-7 23.5zM385 467q-8 0 -13 -5t-11 -21q-4 -9 -6 -16t-7 -31q-1 -3 -3.5 -11.5t-5 -18.5t-4.5 -18.5t-2 -12.5q0 -19 18 -24q5 -1 9.5 -1h23.5q2 0 11.5 -0.5t12.5 -0.5q27 0 27 21q0 4 -2 12q-2 7 -3 13.5t-3 12.5q-2 8 -3 16
t-3 16q-2 5 -3.5 10t-3.5 10q-3 8 -5 16t-5 16q-2 5 -5 11t-14 6zM251 773q0 2 3 7.5t6.5 12.5t7 12.5t4.5 7.5q2 3 4.5 5.5t4.5 6.5q3 5 5.5 10t5.5 10q11 17 21 19.5t25 1.5q3 -1 12.5 -0.5t12.5 0.5q4 0 18.5 -1t19.5 -1q3 0 11.5 0.5t18 0.5t18 0.5t11.5 0.5
q5 0 20 -0.5t20 -0.5q4 0 15.5 0.5t15.5 0.5q18 0 23 -8t5 -17q0 -14 -13 -20q-3 -2 -11 -4.5t-18 -5.5t-18.5 -5.5t-12.5 -3.5q-8 -3 -15.5 -6.5t-15.5 -5.5q-5 -1 -16 -4t-14 -4q-10 -2 -16 -4q-4 -1 -12 -5q-14 -5 -32.5 -11t-33.5 -6h-9t-13.5 0.5t-14 0.5h-9.5
q-2 0 -8 -0.5t-8 -0.5q-10 0 -14 5t-4 11v1z" />
    <glyph glyph-name="Acircumflex" unicode="&#xc2;" horiz-adv-x="771" 
d="M0 42q0 14 3 23.5t11 30.5q5 11 10 32t16 66q3 16 9 31q5 15 10 29t9 29q5 21 8.5 43t9.5 43q5 17 11.5 33t12.5 33q2 5 3.5 11t3.5 12l4 18l4 18q1 4 6 17t10.5 27.5t10 27t5.5 14.5q3 8 5 17l4 18q3 8 6 17l6 18q5 12 10 23.5t17 19.5q16 11 29 12.5t26 1.5h14t22 -1
q11 0 21.5 -0.5t14.5 -0.5h14t18.5 0.5t18 1t13.5 0.5q2 0 14 1t14 1q3 0 12.5 -0.5t20 -1.5t19.5 -1.5t13 -0.5t16.5 0.5t16.5 0.5q11 0 27 -2.5t23 -6.5q6 -4 14.5 -13t13.5 -17q1 -3 4 -10.5t6 -16t5 -17t3 -13.5q1 -8 5 -19l4 -18t4 -17q3 -11 9 -30t12 -35
q4 -11 6.5 -18t4 -14t3 -15.5t3.5 -21.5q1 -10 2.5 -17.5t3.5 -15.5t5 -19t8 -28q3 -12 6 -24.5t7 -24.5q4 -17 9 -30q3 -7 5.5 -13.5t4.5 -13.5q2 -8 5.5 -17t5.5 -17t4 -17l4 -18l4 -14l4 -14q1 -2 4 -10.5t4 -10.5q0 -1 1.5 -7.5t4 -14.5t4 -14.5l1.5 -6.5q2 -10 2 -15
q0 -50 -47 -59q-4 0 -7 -0.5t-7.5 -0.5h-11.5h-19q-3 0 -12 -0.5t-19 -1t-19 -1t-13 -0.5q-2 0 -8.5 0.5t-13.5 1.5q-8 0 -14 0.5t-9 0.5q-2 0 -10.5 -0.5t-10.5 -0.5q-13 0 -21 1.5t-13.5 5.5t-9 10.5t-8.5 17.5q-14 31 -24 40.5t-30 9.5q-4 0 -18 -2t-19 -2q-4 -1 -8 -1
h-8t-13.5 0.5t-20 1.5t-20 1.5t-13.5 0.5q-13 0 -25.5 -4.5t-19.5 -14.5q-1 -2 -3.5 -7.5t-5.5 -11.5t-5.5 -12t-3.5 -8q-11 -18 -22 -21.5t-19 -3.5q-3 0 -10.5 0.5t-15.5 0.5t-15.5 0.5t-10.5 0.5h-10t-15 -0.5t-15.5 -0.5h-10.5t-14.5 0.5t-14.5 0.5q-4 0 -17.5 -1
t-17.5 -1q-3 0 -11 1t-16.5 5t-15.5 12.5t-7 23.5zM385 467q-8 0 -13 -5t-11 -21q-4 -9 -6 -16t-7 -31q-1 -3 -3.5 -11.5t-5 -18.5t-4.5 -18.5t-2 -12.5q0 -19 18 -24q5 -1 9.5 -1h23.5q2 0 11.5 -0.5t12.5 -0.5q27 0 27 21q0 4 -2 12q-2 7 -3 13.5t-3 12.5q-2 8 -3 16
t-3 16q-2 5 -3.5 10t-3.5 10q-3 8 -5 16t-5 16q-2 5 -5 11t-14 6zM433 867q4 0 16.5 1t16.5 1q20 0 31 -6.5t21 -17.5q6 -8 12 -12q5 -6 13 -10q3 -4 6.5 -7t7.5 -6t7.5 -6t8.5 -6q7 -5 13.5 -13t6.5 -15q0 -1 -2 -8t-16 -7h-16q-2 0 -11.5 1t-12.5 1q-2 0 -11.5 -1
t-12.5 -1q-5 0 -16.5 0.5t-16.5 1.5q-3 0 -9.5 2.5t-13.5 5t-13.5 4.5t-7.5 3q-3 2 -5.5 3.5t-4.5 3.5q-5 2 -18.5 6t-19.5 4t-12.5 -2t-12.5 -4q-5 -1 -7.5 -2t-11.5 -5q-5 -2 -9.5 -3t-9.5 -3l-7 -3.5t-6 -3.5q-5 -3 -8.5 -4t-9 -2t-14 -1h-22.5q-2 0 -10 0.5t-10 0.5
q-4 0 -17 -0.5t-17 -0.5q-12 0 -16 4.5t-4 7.5q0 2 2 9t6 10q2 3 5.5 4.5t5.5 3.5q3 3 7 9q1 2 6 6t10 8.5t10 8.5t7 6q4 6 7 8q2 2 5.5 3.5t5.5 3.5q5 3 9 7.5t9 6.5q4 3 12.5 4.5t17.5 2l18 1t14 0.5q3 0 14.5 -1t15.5 -1t16.5 0.5t16.5 0.5t15.5 -1t15.5 -1z" />
    <glyph glyph-name="Atilde" unicode="&#xc3;" horiz-adv-x="771" 
d="M0 42q0 14 3 23.5t11 30.5q5 11 10 32t16 66q3 16 9 31q5 15 10 29t9 29q5 21 8.5 43t9.5 43q5 17 11.5 33t12.5 33q2 5 3.5 11t3.5 12l4 18l4 18q1 4 6 17t10.5 27.5t10 27t5.5 14.5q3 8 5 17l4 18q3 8 6 17l6 18q5 12 10 23.5t17 19.5q16 11 29 12.5t26 1.5h14t22 -1
q11 0 21.5 -0.5t14.5 -0.5h14t18.5 0.5t18 1t13.5 0.5q2 0 14 1t14 1q3 0 12.5 -0.5t20 -1.5t19.5 -1.5t13 -0.5t16.5 0.5t16.5 0.5q11 0 27 -2.5t23 -6.5q6 -4 14.5 -13t13.5 -17q1 -3 4 -10.5t6 -16t5 -17t3 -13.5q1 -8 5 -19l4 -18t4 -17q3 -11 9 -30t12 -35
q4 -11 6.5 -18t4 -14t3 -15.5t3.5 -21.5q1 -10 2.5 -17.5t3.5 -15.5t5 -19t8 -28q3 -12 6 -24.5t7 -24.5q4 -17 9 -30q3 -7 5.5 -13.5t4.5 -13.5q2 -8 5.5 -17t5.5 -17t4 -17l4 -18l4 -14l4 -14q1 -2 4 -10.5t4 -10.5q0 -1 1.5 -7.5t4 -14.5t4 -14.5l1.5 -6.5q2 -10 2 -15
q0 -50 -47 -59q-4 0 -7 -0.5t-7.5 -0.5h-11.5h-19q-3 0 -12 -0.5t-19 -1t-19 -1t-13 -0.5q-2 0 -8.5 0.5t-13.5 1.5q-8 0 -14 0.5t-9 0.5q-2 0 -10.5 -0.5t-10.5 -0.5q-13 0 -21 1.5t-13.5 5.5t-9 10.5t-8.5 17.5q-14 31 -24 40.5t-30 9.5q-4 0 -18 -2t-19 -2q-4 -1 -8 -1
h-8t-13.5 0.5t-20 1.5t-20 1.5t-13.5 0.5q-13 0 -25.5 -4.5t-19.5 -14.5q-1 -2 -3.5 -7.5t-5.5 -11.5t-5.5 -12t-3.5 -8q-11 -18 -22 -21.5t-19 -3.5q-3 0 -10.5 0.5t-15.5 0.5t-15.5 0.5t-10.5 0.5h-10t-15 -0.5t-15.5 -0.5h-10.5t-14.5 0.5t-14.5 0.5q-4 0 -17.5 -1
t-17.5 -1q-3 0 -11 1t-16.5 5t-15.5 12.5t-7 23.5zM385 467q-8 0 -13 -5t-11 -21q-4 -9 -6 -16t-7 -31q-1 -3 -3.5 -11.5t-5 -18.5t-4.5 -18.5t-2 -12.5q0 -19 18 -24q5 -1 9.5 -1h23.5q2 0 11.5 -0.5t12.5 -0.5q27 0 27 21q0 4 -2 12q-2 7 -3 13.5t-3 12.5q-2 8 -3 16
t-3 16q-2 5 -3.5 10t-3.5 10q-3 8 -5 16t-5 16q-2 5 -5 11t-14 6zM290 874q10 0 19.5 -0.5t19.5 -2.5l10 -2l10 -2q4 -1 7.5 -1t7.5 -1q5 -1 10.5 -2t10.5 -3q5 -1 10 -1t10 -1q4 -1 7.5 -2t8.5 -3q2 0 8 -1t13 -2t13.5 -1.5t8.5 -0.5q14 0 22 7q3 3 5.5 6t5.5 5q7 4 16 4
q2 0 8 -1t8 -1t10 0.5t10 0.5q11 0 23 -2.5t12 -17.5q0 -4 -2 -10l-4 -12t-4.5 -10.5t-3.5 -5.5q-2 -3 -4.5 -5.5l-5.5 -5.5q-2 -2 -3.5 -5.5t-3.5 -5.5q-9 -13 -21.5 -19.5t-20.5 -9.5t-12.5 -3.5t-17.5 -1.5q-2 0 -7.5 -0.5t-7.5 -0.5t-8 0.5t-14 1.5l-16 2t-13 3
q-5 1 -13 3l-18 3l-12 3q-5 1 -10 1t-10 1q-7 1 -14 3l-14 4q-5 1 -13 1.5t-14 0.5q-3 0 -7.5 -0.5t-9.5 -4.5q-3 -2 -9 -8q-5 -5 -16 -7q-3 -1 -15 0t-16 1q-2 0 -8.5 -0.5t-8.5 -0.5q-14 0 -19 8.5t-5 14.5q0 8 9 30t32 39q8 7 12 8.5t16 5.5q7 3 11.5 4t8 2t7.5 1h11z
" />
    <glyph glyph-name="Adieresis" unicode="&#xc4;" horiz-adv-x="771" 
d="M0 42q0 14 3 23.5t11 30.5q5 11 10 32t16 66q3 16 9 31q5 15 10 29t9 29q5 21 8.5 43t9.5 43q5 17 11.5 33t12.5 33q2 5 3.5 11t3.5 12l4 18l4 18q1 4 6 17t10.5 27.5t10 27t5.5 14.5q3 8 5 17l4 18q3 8 6 17l6 18q5 12 10 23.5t17 19.5q16 11 29 12.5t26 1.5h14t22 -1
q11 0 21.5 -0.5t14.5 -0.5h14t18.5 0.5t18 1t13.5 0.5q2 0 14 1t14 1q3 0 12.5 -0.5t20 -1.5t19.5 -1.5t13 -0.5t16.5 0.5t16.5 0.5q11 0 27 -2.5t23 -6.5q6 -4 14.5 -13t13.5 -17q1 -3 4 -10.5t6 -16t5 -17t3 -13.5q1 -8 5 -19l4 -18t4 -17q3 -11 9 -30t12 -35
q4 -11 6.5 -18t4 -14t3 -15.5t3.5 -21.5q1 -10 2.5 -17.5t3.5 -15.5t5 -19t8 -28q3 -12 6 -24.5t7 -24.5q4 -17 9 -30q3 -7 5.5 -13.5t4.5 -13.5q2 -8 5.5 -17t5.5 -17t4 -17l4 -18l4 -14l4 -14q1 -2 4 -10.5t4 -10.5q0 -1 1.5 -7.5t4 -14.5t4 -14.5l1.5 -6.5q2 -10 2 -15
q0 -50 -47 -59q-4 0 -7 -0.5t-7.5 -0.5h-11.5h-19q-3 0 -12 -0.5t-19 -1t-19 -1t-13 -0.5q-2 0 -8.5 0.5t-13.5 1.5q-8 0 -14 0.5t-9 0.5q-2 0 -10.5 -0.5t-10.5 -0.5q-13 0 -21 1.5t-13.5 5.5t-9 10.5t-8.5 17.5q-14 31 -24 40.5t-30 9.5q-4 0 -18 -2t-19 -2q-4 -1 -8 -1
h-8t-13.5 0.5t-20 1.5t-20 1.5t-13.5 0.5q-13 0 -25.5 -4.5t-19.5 -14.5q-1 -2 -3.5 -7.5t-5.5 -11.5t-5.5 -12t-3.5 -8q-11 -18 -22 -21.5t-19 -3.5q-3 0 -10.5 0.5t-15.5 0.5t-15.5 0.5t-10.5 0.5h-10t-15 -0.5t-15.5 -0.5h-10.5t-14.5 0.5t-14.5 0.5q-4 0 -17.5 -1
t-17.5 -1q-3 0 -11 1t-16.5 5t-15.5 12.5t-7 23.5zM385 467q-8 0 -13 -5t-11 -21q-4 -9 -6 -16t-7 -31q-1 -3 -3.5 -11.5t-5 -18.5t-4.5 -18.5t-2 -12.5q0 -19 18 -24q5 -1 9.5 -1h23.5q2 0 11.5 -0.5t12.5 -0.5q27 0 27 21q0 4 -2 12q-2 7 -3 13.5t-3 12.5q-2 8 -3 16
t-3 16q-2 5 -3.5 10t-3.5 10q-3 8 -5 16t-5 16q-2 5 -5 11t-14 6zM403 837q0 13 4.5 20t11 10.5t13 4.5t10.5 1q6 0 12 -1t13 -1h27q2 0 12 -0.5t13 -0.5q2 0 7.5 0.5t7.5 0.5t6.5 -0.5t6.5 -0.5t9 1t9 1q10 0 23 -2.5t21 -8.5q8 -8 9.5 -18.5t1.5 -24.5q0 -2 0.5 -11
t0.5 -11q0 -4 -2 -15t-3 -13q-2 -3 -8.5 -9t-27.5 -6h-9.5t-9.5 1q-6 2 -11 2q-2 1 -8.5 0.5t-8.5 -0.5t-8 0.5t-8 0.5q-3 0 -13.5 -1.5t-14.5 -1.5q-2 0 -8.5 0.5t-8.5 0.5q-3 0 -13 -0.5t-14 -0.5q-5 0 -12 0.5t-14 3t-12 8.5t-5 17q0 2 0.5 10.5t0.5 10.5v33v0zM199 870
q2 0 7.5 0.5t7.5 0.5q2 1 12 0t13 -1q2 0 13 0.5t14 0.5t15 -0.5t16 -0.5q7 0 13.5 0.5t12.5 0.5q20 0 27 -4t9 -6q8 -7 9 -14t1 -14q-1 -4 -0.5 -17t0.5 -17q0 -27 -10.5 -34.5t-15.5 -8.5q-2 -1 -16 -1.5t-16 -0.5t-9.5 0.5t-9.5 1.5h-19q-4 0 -17.5 1t-17.5 1h-9t-8 -1
q-8 -2 -11.5 -2h-5.5q-23 0 -38.5 4.5t-15.5 30.5q0 6 0.5 11.5t0.5 11.5v14v8.5t2 8.5q2 9 6.5 17t21.5 10q2 0 9 -0.5t9 -0.5z" />
    <glyph glyph-name="Aring" unicode="&#xc5;" horiz-adv-x="771" 
d="M0 42q0 14 3 23.5t11 30.5q5 11 10 32t16 66q3 16 9 31q5 15 10 29t9 29q5 21 8.5 43t9.5 43q5 17 11.5 33t12.5 33q2 5 3.5 11t3.5 12l4 18l4 18q1 4 6 17t10.5 27.5t10 27t5.5 14.5q3 8 5 17l4 18q3 8 6 17l6 18q5 12 10 23.5t17 19.5q16 11 29 12.5t26 1.5h14t22 -1
q11 0 21.5 -0.5t14.5 -0.5h14t18.5 0.5t18 1t13.5 0.5q2 0 14 1t14 1q3 0 12.5 -0.5t20 -1.5t19.5 -1.5t13 -0.5t16.5 0.5t16.5 0.5q11 0 27 -2.5t23 -6.5q6 -4 14.5 -13t13.5 -17q1 -3 4 -10.5t6 -16t5 -17t3 -13.5q1 -8 5 -19l4 -18t4 -17q3 -11 9 -30t12 -35
q4 -11 6.5 -18t4 -14t3 -15.5t3.5 -21.5q1 -10 2.5 -17.5t3.5 -15.5t5 -19t8 -28q3 -12 6 -24.5t7 -24.5q4 -17 9 -30q3 -7 5.5 -13.5t4.5 -13.5q2 -8 5.5 -17t5.5 -17t4 -17l4 -18l4 -14l4 -14q1 -2 4 -10.5t4 -10.5q0 -1 1.5 -7.5t4 -14.5t4 -14.5l1.5 -6.5q2 -10 2 -15
q0 -50 -47 -59q-4 0 -7 -0.5t-7.5 -0.5h-11.5h-19q-3 0 -12 -0.5t-19 -1t-19 -1t-13 -0.5q-2 0 -8.5 0.5t-13.5 1.5q-8 0 -14 0.5t-9 0.5q-2 0 -10.5 -0.5t-10.5 -0.5q-13 0 -21 1.5t-13.5 5.5t-9 10.5t-8.5 17.5q-14 31 -24 40.5t-30 9.5q-4 0 -18 -2t-19 -2q-4 -1 -8 -1
h-8t-13.5 0.5t-20 1.5t-20 1.5t-13.5 0.5q-13 0 -25.5 -4.5t-19.5 -14.5q-1 -2 -3.5 -7.5t-5.5 -11.5t-5.5 -12t-3.5 -8q-11 -18 -22 -21.5t-19 -3.5q-3 0 -10.5 0.5t-15.5 0.5t-15.5 0.5t-10.5 0.5h-10t-15 -0.5t-15.5 -0.5h-10.5t-14.5 0.5t-14.5 0.5q-4 0 -17.5 -1
t-17.5 -1q-3 0 -11 1t-16.5 5t-15.5 12.5t-7 23.5zM385 467q-8 0 -13 -5t-11 -21q-4 -9 -6 -16t-7 -31q-1 -3 -3.5 -11.5t-5 -18.5t-4.5 -18.5t-2 -12.5q0 -19 18 -24q5 -1 9.5 -1h23.5q2 0 11.5 -0.5t12.5 -0.5q27 0 27 21q0 4 -2 12q-2 7 -3 13.5t-3 12.5q-2 8 -3 16
t-3 16q-2 5 -3.5 10t-3.5 10q-3 8 -5 16t-5 16q-2 5 -5 11t-14 6zM377 907l6 -0.5t13.5 -0.5t14.5 -0.5t9 -0.5q19 -2 38.5 -8.5t35 -18t25.5 -27t10 -36.5q0 -20 -11 -35t-27 -25t-33.5 -15.5t-29.5 -6.5q-1 0 -6 -0.5l-10 -1t-9.5 -1l-4.5 -0.5q-4 0 -17.5 0.5t-18.5 0.5
q-9 0 -26 2.5t-47 17.5q-19 10 -32 29.5t-13 40.5t10.5 34.5t13.5 15.5q0 1 4.5 4t9.5 6t9 6t5 3q1 1 5.5 2.5t10 3.5t10.5 3.5t7 1.5q9 1 18 3l16 2t14 1zM431 815q0 9 -5 15t-12 9.5t-14.5 4.5t-11.5 1q-2 0 -9 -0.5t-15 -3.5t-14 -9t-6 -16q0 -14 13 -19t34 -5q14 0 27 5
t13 18z" />
    <glyph glyph-name="AE" unicode="&#xc6;" horiz-adv-x="1000" 
d="M770 497q-5 0 -19.5 1t-19.5 1q-4 0 -10 -0.5t-11.5 -3t-9.5 -7t-4 -13.5q0 -10 5 -17t22 -10h7.5t15 -0.5t15.5 -0.5h9t7.5 0.5t12 1.5t12 1.5t8.5 0.5t15.5 -1t16.5 -1q3 0 11 0.5t17.5 1t18 1t11.5 0.5q14 0 26.5 -2.5t17.5 -12.5q1 -2 4 -13.5t3 -29.5v-26
q0 -3 0.5 -10.5t1 -16.5t1 -17t0.5 -11q0 -26 -9.5 -33t-18.5 -8q-4 -1 -23 -1q-1 0 -14 -0.5t-28 -1t-28 -1l-13 -0.5q-6 0 -15 -0.5t-11 -0.5q-3 0 -9.5 0.5t-14.5 1t-15 1t-10 0.5q-17 0 -28.5 -5.5t-11.5 -16.5q0 -8 6 -16.5t17 -12.5q5 -2 14.5 -2.5t27.5 -0.5
q9 0 14 1t9.5 1.5t9.5 1.5t10 1h10h28q4 0 17.5 0.5t17.5 0.5q2 0 9.5 -0.5t9.5 -0.5q5 0 10.5 0.5t10.5 0.5q19 0 25.5 -4t10.5 -9q9 -11 13 -24.5t4 -26.5q0 -4 -0.5 -18.5t-0.5 -19.5q0 -2 0.5 -8t0.5 -13t0.5 -13t0.5 -9t-0.5 -8.5t-1 -12.5t-1 -12.5t-0.5 -8.5
q-2 -20 -15 -28t-34 -8q-3 0 -12 0.5t-19.5 1t-19.5 1t-13 0.5t-11.5 -0.5t-17.5 -1.5t-20 -1.5t-19 -1.5h-20q-11 0 -22 0.5t-22 1.5q-38 3 -39 3q-4 0 -15 -0.5t-24 -1.5t-24.5 -1.5t-16.5 -0.5q-4 0 -15.5 0.5t-24 1t-24 1t-16.5 0.5q-2 0 -8 -0.5t-13 -1t-13 -1t-9 -0.5
q-25 0 -30.5 10.5t-7.5 18.5q-2 12 -4 16.5t-9 15.5q-5 6 -8.5 9t-12.5 5q-2 0 -9.5 1t-15.5 1.5t-15.5 1t-9.5 0.5t-9 -0.5t-15 -1t-15 -1t-9 -0.5q-11 -1 -14.5 -1.5t-11.5 -0.5q-9 0 -17.5 -3t-19.5 -22q-4 -7 -5.5 -14.5t-6.5 -13.5t-12 -10t-14.5 -6t-13.5 -3t-7 -1
q-2 0 -10 0.5t-18 0.5t-19 0.5t-12 0.5h-8t-8 -1q-5 -1 -9 -1.5t-8 -0.5q-6 0 -16 2h-15q-2 0 -9.5 0.5t-9.5 0.5q-3 0 -14 -1.5t-14 -1.5q-11 0 -19.5 6.5t-8.5 21.5q0 7 2 14t11 30l4 12l4 12q7 25 18 52q6 16 15.5 40.5t17.5 47.5q3 9 6.5 18t7.5 18q5 13 9 25.5t9 25.5
q1 4 5 13.5t8.5 21t8.5 21.5l6 15q4 10 10 24t9 25l4 12l6.5 19.5t7 20t5.5 13.5q9 24 14.5 39t10 27l9 24t12.5 30q6 15 12.5 28.5t16.5 24.5t23.5 19t25.5 9h4.5t5.5 -1q3 0 6 -0.5t4 -0.5q5 0 9 1h19q3 -1 9 -1h71q4 0 17.5 0.5t18.5 0.5q2 0 5 0.5t5 0.5q6 2 10 2
q1 0 4 -0.5t4 -0.5l7.5 -0.5t16 -1t16 -1t8.5 -0.5h5.5t8.5 1h44q3 0 11 0.5t16 0.5q9 1 17 1h11h10t10 -1q8 -1 11.5 -1h12.5q8 0 15.5 -1t15.5 -1h13q4 0 15 -0.5t15 -0.5q8 0 15.5 0.5t15.5 1.5q12 2 25 2h16h12q2 0 4 -0.5t4 -0.5h4q7 0 11 1h10q1 0 7 -0.5t13.5 -1
t13.5 -1t7 -0.5q9 -3 15 -9.5t9.5 -14.5t5 -16.5t1.5 -14.5q0 -5 -1 -19.5t-1 -19.5q0 -3 0.5 -11t1.5 -17t1.5 -17t0.5 -11q0 -4 -0.5 -14t-4 -20t-10.5 -17.5t-20 -7.5q-3 0 -15 1t-16 1t-16.5 -0.5t-16.5 -0.5q-3 0 -10 0.5t-15.5 1.5t-16 1.5t-10.5 0.5q-4 0 -19 -1.5
t-20 -1.5zM389 302q2 0 9 -1.5t9 -1.5q3 0 5.5 0.5t5.5 1.5q11 3 14.5 5t6.5 9q6 14 6.5 24t-0.5 25q0 3 0.5 15.5t0.5 16.5q0 2 -0.5 12t-0.5 13q0 2 0.5 8.5t0.5 8.5q0 1 -0.5 6t-1.5 11t-2 11t-1 7q-1 4 -4.5 16t-12.5 12q-8 0 -14.5 -10t-7.5 -13q-3 -5 -4.5 -10
t-5.5 -22q0 -2 -3 -12.5t-6.5 -22.5t-6.5 -22.5t-3 -11.5q-2 -4 -3 -7t-3 -7q-2 -5 -3 -8.5t-3 -8.5q-2 -6 -4.5 -12t-2.5 -12q0 -20 23 -20h12z" />
    <glyph glyph-name="Ccedilla" unicode="&#xc7;" horiz-adv-x="542" 
d="M41 190q-8 22 -14.5 51t-8.5 52q0 5 -0.5 11t-0.5 11q-1 6 -2 12.5t-2 12.5q-2 8 -2 14.5v14.5q0 6 1 19t2 27t2.5 27t3.5 19q4 12 9.5 24t10.5 23q4 10 7 19.5t7 19.5q13 29 32 49.5t27 27.5l10 7.5t22.5 16.5t23 17t12.5 9q16 9 33.5 14t46.5 12q19 5 40 9t52 3
q60 0 96 -4t53 -21q6 -6 7 -12t1 -29q0 -3 -0.5 -12.5t-1.5 -20t-1.5 -19.5t-0.5 -13v-10q0 -4 1.5 -16.5t2.5 -26t2 -24.5t1 -12q0 -19 -4 -30t-10 -17t-13.5 -7.5t-14.5 -1.5q-5 0 -19.5 1.5t-19.5 1.5q-9 0 -18.5 -1.5t-18.5 -1.5q-2 0 -9.5 0.5t-9.5 0.5q-29 0 -42 -6
t-20 -11q-3 -2 -8 -6.5t-10.5 -12t-9.5 -19t-4 -26.5q0 -17 7 -36t15 -29q9 -11 21.5 -16.5t25 -8.5t22 -3.5t12.5 -0.5h10q16 2 31.5 5.5t31.5 3.5q20 0 32 -5t18 -14.5t7.5 -22t1.5 -27.5q0 -3 -0.5 -12t-0.5 -19t-0.5 -19t-0.5 -13t1 -14.5t1.5 -22.5t1.5 -23t1 -16
q0 -22 -7.5 -32t-16.5 -16q-12 -8 -19 -10.5t-18 -4.5l-18 -4l-18 -4q-3 -1 -9 -2.5t-12 -5.5t-10.5 -9.5t-4.5 -13.5q0 -4 1 -6q2 -3 5.5 -5t6.5 -5q5 -4 9 -8q9 -7 10 -7q3 -4 10 -17t7 -22q0 -1 -1.5 -14t-5.5 -22q-10 -23 -37 -30t-56 -7q-11 0 -17.5 1t-25.5 6
q-20 5 -30 12t-10 26q0 2 1 9t2 9q0 2 -0.5 9.5t-0.5 9.5q0 15 8 26.5t19 11.5q1 0 5.5 -0.5t9.5 -1t9.5 -1t6.5 -0.5q11 0 12.5 6.5t1.5 10.5q0 15 -4 24.5t-10.5 15t-15.5 8.5t-19 5q-11 2 -23 4t-23 6q-9 2 -17 5l-16 6q-17 6 -39.5 18.5t-50.5 46.5q-7 9 -13 18t-13 18
q-6 8 -12.5 15.5t-12.5 15.5q-11 16 -17 32z" />
    <glyph glyph-name="Egrave" unicode="&#xc8;" horiz-adv-x="604" 
d="M453 447q3 0 10 0.5t15 1t15 1t10 0.5q29 0 40 -7.5t14 -36.5q1 -3 0.5 -15t-0.5 -16q0 -3 0.5 -12t1.5 -19t1.5 -19t0.5 -13q0 -27 -9.5 -33.5t-20.5 -8.5q-3 -1 -12 -0.5t-12 0.5q-2 0 -8 -0.5t-8 -1.5q-1 0 -15.5 -0.5t-31.5 -0.5t-32 -0.5t-16 -0.5q-3 0 -9 0.5
t-13.5 0.5t-13.5 0.5t-9 0.5t-9.5 -0.5t-13 -2.5t-11.5 -6.5t-5 -12.5q0 -12 6.5 -18t15.5 -9t19.5 -3.5t19.5 -0.5q5 0 12.5 0.5t21.5 2.5q7 2 17.5 2h25.5q4 0 18 0.5t19 0.5q14 -1 22.5 -1t22.5 1q19 0 25.5 -3.5t10.5 -8.5q6 -7 12 -17.5t6 -33.5q0 -4 -0.5 -16.5
t-0.5 -16.5q0 -3 0.5 -10.5t0.5 -16.5t0.5 -17t0.5 -11q0 -41 -10 -56t-42 -15q-3 0 -12 0.5t-19.5 1t-19.5 1t-13 0.5q-10 0 -38 -3q-14 -2 -28.5 -2.5t-25.5 -0.5q-5 0 -16 0.5t-24 1.5q-15 1 -28.5 1.5t-27.5 0.5t-31 -1t-39 -2q-3 0 -12 0.5t-20 0.5q-16 2 -30 1.5
t-35 -2.5q-13 -1 -21 -1.5t-13 -0.5q-18 0 -28 4.5t-14.5 12t-5.5 16t-1 16.5q0 3 0.5 9t1 13t1 13t0.5 9q0 6 0.5 22t1 34t1 34t0.5 22q0 3 1 12t1.5 18.5t1 18.5t0.5 13q0 26 -3 52q-2 12 -2 19v29q-1 7 -1 11v11q-1 5 -1 9v14q0 3 -0.5 12t-1 19t-1 19t-0.5 13
q0 15 1.5 30t2.5 31q1 7 1 14v15q0 12 -0.5 24.5t-1.5 24.5q-1 8 -1.5 15t-0.5 15q0 41 19 54t45 13q5 0 20.5 -1.5t20.5 -1.5q13 0 30.5 0.5t30.5 0.5q3 0 11 0.5t17 0.5t17.5 0.5t11.5 0.5h10t10 -1q3 -1 5.5 -1.5t5.5 -0.5q4 0 7 1h6h5.5t8.5 -1q5 0 8.5 -0.5t5.5 -0.5
h4.5t6.5 1h11h5t7 -1q4 0 7 -0.5t5 -0.5h4t10 1q1 0 8.5 1t17 1.5t17 1t8.5 0.5q3 0 13 -0.5t13 -0.5h23q2 0 10.5 -0.5t10.5 -0.5q7 0 15 -0.5t13 -2.5q9 -5 14 -13.5t7 -17.5t2.5 -17t0.5 -12q0 -9 -0.5 -18.5t-0.5 -18.5q0 -3 0.5 -11t1.5 -17t1.5 -17t0.5 -11
q0 -6 -1 -16t-7 -21q-5 -11 -11.5 -14t-16.5 -3q-3 0 -13 0.5t-14 0.5t-18.5 -0.5t-19.5 -0.5q-3 0 -9.5 0.5t-14.5 1.5t-14.5 1.5t-9.5 0.5t-9 -0.5t-12.5 -1t-12.5 -1t-9 -0.5q-4 0 -16.5 1t-16.5 1q-12 0 -25 -3t-13 -20q0 -22 16 -25.5t54 -3.5q5 0 18.5 1.5t18.5 1.5
q2 0 11 -0.5t12 -0.5h21zM363 867q14 0 22 -8t10 -13l3.5 -7l3.5 -7t5.5 -7.5t6.5 -8.5l6 -12q2 -5 5 -9t6 -9q6 -8 6 -13q0 -1 -3 -8.5t-18 -7.5q-5 0 -11 1t-11 1q-3 0 -12 -1.5t-12 -1.5q-14 0 -30.5 2t-30.5 8q-6 4 -10 5q-2 1 -5 1.5t-5 1.5l-4 2l-4 2q-7 2 -19 4
q-14 3 -31.5 10t-31.5 11l-12 3q-8 4 -11 4.5t-8 1.5q-3 1 -9.5 2.5t-13 5t-11.5 8.5t-5 12q0 11 4 19.5t24 8.5q3 0 14 -1t14 -1q8 0 15.5 0.5t15.5 0.5q2 0 11.5 -0.5t12.5 -0.5h19q2 0 12 -1t13 -1t15 1.5t16 1.5q3 0 13.5 -0.5t13.5 -0.5q2 0 10 0.5t11 0.5z" />
    <glyph glyph-name="Eacute" unicode="&#xc9;" horiz-adv-x="604" 
d="M453 447q3 0 10 0.5t15 1t15 1t10 0.5q29 0 40 -7.5t14 -36.5q1 -3 0.5 -15t-0.5 -16q0 -3 0.5 -12t1.5 -19t1.5 -19t0.5 -13q0 -27 -9.5 -33.5t-20.5 -8.5q-3 -1 -12 -0.5t-12 0.5q-2 0 -8 -0.5t-8 -1.5q-1 0 -15.5 -0.5t-31.5 -0.5t-32 -0.5t-16 -0.5q-3 0 -9 0.5
t-13.5 0.5t-13.5 0.5t-9 0.5t-9.5 -0.5t-13 -2.5t-11.5 -6.5t-5 -12.5q0 -12 6.5 -18t15.5 -9t19.5 -3.5t19.5 -0.5q5 0 12.5 0.5t21.5 2.5q7 2 17.5 2h25.5q4 0 18 0.5t19 0.5q14 -1 22.5 -1t22.5 1q19 0 25.5 -3.5t10.5 -8.5q6 -7 12 -17.5t6 -33.5q0 -4 -0.5 -16.5
t-0.5 -16.5q0 -3 0.5 -10.5t0.5 -16.5t0.5 -17t0.5 -11q0 -41 -10 -56t-42 -15q-3 0 -12 0.5t-19.5 1t-19.5 1t-13 0.5q-10 0 -38 -3q-14 -2 -28.5 -2.5t-25.5 -0.5q-5 0 -16 0.5t-24 1.5q-15 1 -28.5 1.5t-27.5 0.5t-31 -1t-39 -2q-3 0 -12 0.5t-20 0.5q-16 2 -30 1.5
t-35 -2.5q-13 -1 -21 -1.5t-13 -0.5q-18 0 -28 4.5t-14.5 12t-5.5 16t-1 16.5q0 3 0.5 9t1 13t1 13t0.5 9q0 6 0.5 22t1 34t1 34t0.5 22q0 3 1 12t1.5 18.5t1 18.5t0.5 13q0 26 -3 52q-2 12 -2 19v29q-1 7 -1 11v11q-1 5 -1 9v14q0 3 -0.5 12t-1 19t-1 19t-0.5 13
q0 15 1.5 30t2.5 31q1 7 1 14v15q0 12 -0.5 24.5t-1.5 24.5q-1 8 -1.5 15t-0.5 15q0 41 19 54t45 13q5 0 20.5 -1.5t20.5 -1.5q13 0 30.5 0.5t30.5 0.5q3 0 11 0.5t17 0.5t17.5 0.5t11.5 0.5h10t10 -1q3 -1 5.5 -1.5t5.5 -0.5q4 0 7 1h6h5.5t8.5 -1q5 0 8.5 -0.5t5.5 -0.5
h4.5t6.5 1h11h5t7 -1q4 0 7 -0.5t5 -0.5h4t10 1q1 0 8.5 1t17 1.5t17 1t8.5 0.5q3 0 13 -0.5t13 -0.5h23q2 0 10.5 -0.5t10.5 -0.5q7 0 15 -0.5t13 -2.5q9 -5 14 -13.5t7 -17.5t2.5 -17t0.5 -12q0 -9 -0.5 -18.5t-0.5 -18.5q0 -3 0.5 -11t1.5 -17t1.5 -17t0.5 -11
q0 -6 -1 -16t-7 -21q-5 -11 -11.5 -14t-16.5 -3q-3 0 -13 0.5t-14 0.5t-18.5 -0.5t-19.5 -0.5q-3 0 -9.5 0.5t-14.5 1.5t-14.5 1.5t-9.5 0.5t-9 -0.5t-12.5 -1t-12.5 -1t-9 -0.5q-4 0 -16.5 1t-16.5 1q-12 0 -25 -3t-13 -20q0 -22 16 -25.5t54 -3.5q5 0 18.5 1.5t18.5 1.5
q2 0 11 -0.5t12 -0.5h21zM168 773q0 2 3 7.5t6.5 12.5t7 12.5t4.5 7.5q2 3 4.5 5.5t4.5 6.5q3 5 5.5 10t5.5 10q11 17 21 19.5t25 1.5q3 -1 12.5 -0.5t12.5 0.5q4 0 18.5 -1t19.5 -1q3 0 11.5 0.5t18 0.5t18 0.5t11.5 0.5q5 0 20 -0.5t20 -0.5q4 0 15.5 0.5t15.5 0.5
q18 0 23 -8t5 -17q0 -14 -13 -20q-3 -2 -11 -4.5t-18 -5.5t-18.5 -5.5t-12.5 -3.5q-8 -3 -15.5 -6.5t-15.5 -5.5q-5 -1 -16 -4t-14 -4q-10 -2 -16 -4q-4 -1 -12 -5q-14 -5 -32.5 -11t-33.5 -6h-9t-13.5 0.5t-14 0.5h-9.5q-2 0 -8 -0.5t-8 -0.5q-10 0 -14 5t-4 11v1z" />
    <glyph glyph-name="Ecircumflex" unicode="&#xca;" horiz-adv-x="604" 
d="M453 447q3 0 10 0.5t15 1t15 1t10 0.5q29 0 40 -7.5t14 -36.5q1 -3 0.5 -15t-0.5 -16q0 -3 0.5 -12t1.5 -19t1.5 -19t0.5 -13q0 -27 -9.5 -33.5t-20.5 -8.5q-3 -1 -12 -0.5t-12 0.5q-2 0 -8 -0.5t-8 -1.5q-1 0 -15.5 -0.5t-31.5 -0.5t-32 -0.5t-16 -0.5q-3 0 -9 0.5
t-13.5 0.5t-13.5 0.5t-9 0.5t-9.5 -0.5t-13 -2.5t-11.5 -6.5t-5 -12.5q0 -12 6.5 -18t15.5 -9t19.5 -3.5t19.5 -0.5q5 0 12.5 0.5t21.5 2.5q7 2 17.5 2h25.5q4 0 18 0.5t19 0.5q14 -1 22.5 -1t22.5 1q19 0 25.5 -3.5t10.5 -8.5q6 -7 12 -17.5t6 -33.5q0 -4 -0.5 -16.5
t-0.5 -16.5q0 -3 0.5 -10.5t0.5 -16.5t0.5 -17t0.5 -11q0 -41 -10 -56t-42 -15q-3 0 -12 0.5t-19.5 1t-19.5 1t-13 0.5q-10 0 -38 -3q-14 -2 -28.5 -2.5t-25.5 -0.5q-5 0 -16 0.5t-24 1.5q-15 1 -28.5 1.5t-27.5 0.5t-31 -1t-39 -2q-3 0 -12 0.5t-20 0.5q-16 2 -30 1.5
t-35 -2.5q-13 -1 -21 -1.5t-13 -0.5q-18 0 -28 4.5t-14.5 12t-5.5 16t-1 16.5q0 3 0.5 9t1 13t1 13t0.5 9q0 6 0.5 22t1 34t1 34t0.5 22q0 3 1 12t1.5 18.5t1 18.5t0.5 13q0 26 -3 52q-2 12 -2 19v29q-1 7 -1 11v11q-1 5 -1 9v14q0 3 -0.5 12t-1 19t-1 19t-0.5 13
q0 15 1.5 30t2.5 31q1 7 1 14v15q0 12 -0.5 24.5t-1.5 24.5q-1 8 -1.5 15t-0.5 15q0 41 19 54t45 13q5 0 20.5 -1.5t20.5 -1.5q13 0 30.5 0.5t30.5 0.5q3 0 11 0.5t17 0.5t17.5 0.5t11.5 0.5h10t10 -1q3 -1 5.5 -1.5t5.5 -0.5q4 0 7 1h6h5.5t8.5 -1q5 0 8.5 -0.5t5.5 -0.5
h4.5t6.5 1h11h5t7 -1q4 0 7 -0.5t5 -0.5h4t10 1q1 0 8.5 1t17 1.5t17 1t8.5 0.5q3 0 13 -0.5t13 -0.5h23q2 0 10.5 -0.5t10.5 -0.5q7 0 15 -0.5t13 -2.5q9 -5 14 -13.5t7 -17.5t2.5 -17t0.5 -12q0 -9 -0.5 -18.5t-0.5 -18.5q0 -3 0.5 -11t1.5 -17t1.5 -17t0.5 -11
q0 -6 -1 -16t-7 -21q-5 -11 -11.5 -14t-16.5 -3q-3 0 -13 0.5t-14 0.5t-18.5 -0.5t-19.5 -0.5q-3 0 -9.5 0.5t-14.5 1.5t-14.5 1.5t-9.5 0.5t-9 -0.5t-12.5 -1t-12.5 -1t-9 -0.5q-4 0 -16.5 1t-16.5 1q-12 0 -25 -3t-13 -20q0 -22 16 -25.5t54 -3.5q5 0 18.5 1.5t18.5 1.5
q2 0 11 -0.5t12 -0.5h21zM350 867q4 0 16.5 1t16.5 1q20 0 31 -6.5t21 -17.5q6 -8 12 -12q5 -6 13 -10q3 -4 6.5 -7t7.5 -6t7.5 -6t8.5 -6q7 -5 13.5 -13t6.5 -15q0 -1 -2 -8t-16 -7h-16q-2 0 -11.5 1t-12.5 1q-2 0 -11.5 -1t-12.5 -1q-5 0 -16.5 0.5t-16.5 1.5
q-3 0 -9.5 2.5t-13.5 5t-13.5 4.5t-7.5 3q-3 2 -5.5 3.5t-4.5 3.5q-5 2 -18.5 6t-19.5 4t-12.5 -2t-12.5 -4q-5 -1 -7.5 -2t-11.5 -5q-5 -2 -9.5 -3t-9.5 -3l-7 -3.5t-6 -3.5q-5 -3 -8.5 -4t-9 -2t-14 -1h-22.5q-2 0 -10 0.5t-10 0.5q-4 0 -17 -0.5t-17 -0.5q-12 0 -16 4.5
t-4 7.5q0 2 2 9t6 10q2 3 5.5 4.5t5.5 3.5q3 3 7 9q1 2 6 6t10 8.5t10 8.5t7 6q4 6 7 8q2 2 5.5 3.5t5.5 3.5q5 3 9 7.5t9 6.5q4 3 12.5 4.5t17.5 2l18 1t14 0.5q3 0 14.5 -1t15.5 -1t16.5 0.5t16.5 0.5t15.5 -1t15.5 -1z" />
    <glyph glyph-name="Edieresis" unicode="&#xcb;" horiz-adv-x="604" 
d="M453 447q3 0 10 0.5t15 1t15 1t10 0.5q29 0 40 -7.5t14 -36.5q1 -3 0.5 -15t-0.5 -16q0 -3 0.5 -12t1.5 -19t1.5 -19t0.5 -13q0 -27 -9.5 -33.5t-20.5 -8.5q-3 -1 -12 -0.5t-12 0.5q-2 0 -8 -0.5t-8 -1.5q-1 0 -15.5 -0.5t-31.5 -0.5t-32 -0.5t-16 -0.5q-3 0 -9 0.5
t-13.5 0.5t-13.5 0.5t-9 0.5t-9.5 -0.5t-13 -2.5t-11.5 -6.5t-5 -12.5q0 -12 6.5 -18t15.5 -9t19.5 -3.5t19.5 -0.5q5 0 12.5 0.5t21.5 2.5q7 2 17.5 2h25.5q4 0 18 0.5t19 0.5q14 -1 22.5 -1t22.5 1q19 0 25.5 -3.5t10.5 -8.5q6 -7 12 -17.5t6 -33.5q0 -4 -0.5 -16.5
t-0.5 -16.5q0 -3 0.5 -10.5t0.5 -16.5t0.5 -17t0.5 -11q0 -41 -10 -56t-42 -15q-3 0 -12 0.5t-19.5 1t-19.5 1t-13 0.5q-10 0 -38 -3q-14 -2 -28.5 -2.5t-25.5 -0.5q-5 0 -16 0.5t-24 1.5q-15 1 -28.5 1.5t-27.5 0.5t-31 -1t-39 -2q-3 0 -12 0.5t-20 0.5q-16 2 -30 1.5
t-35 -2.5q-13 -1 -21 -1.5t-13 -0.5q-18 0 -28 4.5t-14.5 12t-5.5 16t-1 16.5q0 3 0.5 9t1 13t1 13t0.5 9q0 6 0.5 22t1 34t1 34t0.5 22q0 3 1 12t1.5 18.5t1 18.5t0.5 13q0 26 -3 52q-2 12 -2 19v29q-1 7 -1 11v11q-1 5 -1 9v14q0 3 -0.5 12t-1 19t-1 19t-0.5 13
q0 15 1.5 30t2.5 31q1 7 1 14v15q0 12 -0.5 24.5t-1.5 24.5q-1 8 -1.5 15t-0.5 15q0 41 19 54t45 13q5 0 20.5 -1.5t20.5 -1.5q13 0 30.5 0.5t30.5 0.5q3 0 11 0.5t17 0.5t17.5 0.5t11.5 0.5h10t10 -1q3 -1 5.5 -1.5t5.5 -0.5q4 0 7 1h6h5.5t8.5 -1q5 0 8.5 -0.5t5.5 -0.5
h4.5t6.5 1h11h5t7 -1q4 0 7 -0.5t5 -0.5h4t10 1q1 0 8.5 1t17 1.5t17 1t8.5 0.5q3 0 13 -0.5t13 -0.5h23q2 0 10.5 -0.5t10.5 -0.5q7 0 15 -0.5t13 -2.5q9 -5 14 -13.5t7 -17.5t2.5 -17t0.5 -12q0 -9 -0.5 -18.5t-0.5 -18.5q0 -3 0.5 -11t1.5 -17t1.5 -17t0.5 -11
q0 -6 -1 -16t-7 -21q-5 -11 -11.5 -14t-16.5 -3q-3 0 -13 0.5t-14 0.5t-18.5 -0.5t-19.5 -0.5q-3 0 -9.5 0.5t-14.5 1.5t-14.5 1.5t-9.5 0.5t-9 -0.5t-12.5 -1t-12.5 -1t-9 -0.5q-4 0 -16.5 1t-16.5 1q-12 0 -25 -3t-13 -20q0 -22 16 -25.5t54 -3.5q5 0 18.5 1.5t18.5 1.5
q2 0 11 -0.5t12 -0.5h21zM321 837q0 13 4.5 20t11 10.5t13 4.5t10.5 1q6 0 12 -1t13 -1h27q2 0 12 -0.5t13 -0.5q2 0 7.5 0.5t7.5 0.5t6.5 -0.5t6.5 -0.5t9 1t9 1q10 0 23 -2.5t21 -8.5q8 -8 9.5 -18.5t1.5 -24.5q0 -2 0.5 -11t0.5 -11q0 -4 -2 -15t-3 -13q-2 -3 -8.5 -9
t-27.5 -6h-9.5t-9.5 1q-6 2 -11 2q-2 1 -8.5 0.5t-8.5 -0.5t-8 0.5t-8 0.5q-3 0 -13.5 -1.5t-14.5 -1.5q-2 0 -8.5 0.5t-8.5 0.5q-3 0 -13 -0.5t-14 -0.5q-5 0 -12 0.5t-14 3t-12 8.5t-5 17q0 2 0.5 10.5t0.5 10.5v33v0zM117 870q2 0 7.5 0.5t7.5 0.5q2 1 12 0t13 -1
q2 0 13 0.5t14 0.5t15 -0.5t16 -0.5q7 0 13.5 0.5t12.5 0.5q20 0 27 -4t9 -6q8 -7 9 -14t1 -14q-1 -4 -0.5 -17t0.5 -17q0 -27 -10.5 -34.5t-15.5 -8.5q-2 -1 -16 -1.5t-16 -0.5t-9.5 0.5t-9.5 1.5h-19q-4 0 -17.5 1t-17.5 1h-9t-8 -1q-8 -2 -11.5 -2h-5.5q-23 0 -38.5 4.5
t-15.5 30.5q0 6 0.5 11.5t0.5 11.5v14v8.5t2 8.5q2 9 6.5 17t21.5 10q2 0 9 -0.5t9 -0.5z" />
    <glyph glyph-name="Igrave" unicode="&#xcc;" horiz-adv-x="354" 
d="M39 355q0 14 -1 26.5t-1 26.5q0 12 0.5 23.5t0.5 23.5t-0.5 24t-0.5 23q0 3 0.5 11t1 17t1 17.5t0.5 11.5q0 5 -1 19.5t-1.5 30.5t-1.5 28.5t-1 14.5q0 8 2.5 19.5t7.5 19.5q8 13 21 16t21 3q11 0 23 -2t23 -3q4 0 7 -0.5t7 -0.5q5 0 17 0.5t26 2.5q14 1 26.5 1.5
t17.5 0.5q37 0 50.5 -5.5t21.5 -15.5q9 -11 11 -20.5t2 -17.5q0 -5 -1 -18t-1.5 -27.5t-1.5 -28t-1 -18.5q0 -6 1 -21.5t1.5 -33.5t1.5 -34t1 -23q0 -5 -0.5 -9t-0.5 -8q-1 -16 -2.5 -31t-1.5 -30q-1 -4 -1 -14v-85v-13.5t1 -13.5q0 -5 1 -19.5t1 -18.5q0 -2 0.5 -10
t0.5 -10q0 -1 -0.5 -9.5t-1 -19.5t-1 -21.5t-0.5 -13.5q0 -12 1 -24t3 -24q1 -6 2 -15t1 -10q0 -26 -16.5 -37t-44.5 -11q-4 0 -13.5 0.5t-20 1t-20 1t-13.5 0.5q-5 0 -16.5 -0.5t-25 -1t-25.5 -1t-17 -0.5q-14 0 -27 1t-23.5 6t-17 14t-6.5 26q0 2 0.5 8.5t1 13.5t1 13
t0.5 9v101v16t1 16v8.5t1 14.5q1 9 2 21l-0.5 6.5t-1 15t-1 17.5t-0.5 16v33zM238 867q14 0 22 -8t10 -13l3.5 -7l3.5 -7t5.5 -7.5t6.5 -8.5l6 -12q2 -5 5 -9t6 -9q6 -8 6 -13q0 -1 -3 -8.5t-18 -7.5q-5 0 -11 1t-11 1q-3 0 -12 -1.5t-12 -1.5q-14 0 -30.5 2t-30.5 8
q-6 4 -10 5q-2 1 -5 1.5t-5 1.5l-4 2l-4 2q-7 2 -19 4q-14 3 -31.5 10t-31.5 11l-12 3q-8 4 -11 4.5t-8 1.5q-3 1 -9.5 2.5t-13 5t-11.5 8.5t-5 12q0 11 4 19.5t24 8.5q3 0 14 -1t14 -1q8 0 15.5 0.5t15.5 0.5q2 0 11.5 -0.5t12.5 -0.5h19q2 0 12 -1t13 -1t15 1.5t16 1.5
q3 0 13.5 -0.5t13.5 -0.5q2 0 10 0.5t11 0.5z" />
    <glyph glyph-name="Iacute" unicode="&#xcd;" horiz-adv-x="354" 
d="M39 355q0 14 -1 26.5t-1 26.5q0 12 0.5 23.5t0.5 23.5t-0.5 24t-0.5 23q0 3 0.5 11t1 17t1 17.5t0.5 11.5q0 5 -1 19.5t-1.5 30.5t-1.5 28.5t-1 14.5q0 8 2.5 19.5t7.5 19.5q8 13 21 16t21 3q11 0 23 -2t23 -3q4 0 7 -0.5t7 -0.5q5 0 17 0.5t26 2.5q14 1 26.5 1.5
t17.5 0.5q37 0 50.5 -5.5t21.5 -15.5q9 -11 11 -20.5t2 -17.5q0 -5 -1 -18t-1.5 -27.5t-1.5 -28t-1 -18.5q0 -6 1 -21.5t1.5 -33.5t1.5 -34t1 -23q0 -5 -0.5 -9t-0.5 -8q-1 -16 -2.5 -31t-1.5 -30q-1 -4 -1 -14v-85v-13.5t1 -13.5q0 -5 1 -19.5t1 -18.5q0 -2 0.5 -10
t0.5 -10q0 -1 -0.5 -9.5t-1 -19.5t-1 -21.5t-0.5 -13.5q0 -12 1 -24t3 -24q1 -6 2 -15t1 -10q0 -26 -16.5 -37t-44.5 -11q-4 0 -13.5 0.5t-20 1t-20 1t-13.5 0.5q-5 0 -16.5 -0.5t-25 -1t-25.5 -1t-17 -0.5q-14 0 -27 1t-23.5 6t-17 14t-6.5 26q0 2 0.5 8.5t1 13.5t1 13
t0.5 9v101v16t1 16v8.5t1 14.5q1 9 2 21l-0.5 6.5t-1 15t-1 17.5t-0.5 16v33zM43 773q0 2 3 7.5t6.5 12.5t7 12.5t4.5 7.5q2 3 4.5 5.5t4.5 6.5q3 5 5.5 10t5.5 10q11 17 21 19.5t25 1.5q3 -1 12.5 -0.5t12.5 0.5q4 0 18.5 -1t19.5 -1q3 0 11.5 0.5t18 0.5t18 0.5t11.5 0.5
q5 0 20 -0.5t20 -0.5q4 0 15.5 0.5t15.5 0.5q18 0 23 -8t5 -17q0 -14 -13 -20q-3 -2 -11 -4.5t-18 -5.5t-18.5 -5.5t-12.5 -3.5q-8 -3 -15.5 -6.5t-15.5 -5.5q-5 -1 -16 -4t-14 -4q-10 -2 -16 -4q-4 -1 -12 -5q-14 -5 -32.5 -11t-33.5 -6h-9t-13.5 0.5t-14 0.5h-9.5
q-2 0 -8 -0.5t-8 -0.5q-10 0 -14 5t-4 11v1z" />
    <glyph glyph-name="Icircumflex" unicode="&#xce;" horiz-adv-x="354" 
d="M39 355q0 14 -1 26.5t-1 26.5q0 12 0.5 23.5t0.5 23.5t-0.5 24t-0.5 23q0 3 0.5 11t1 17t1 17.5t0.5 11.5q0 5 -1 19.5t-1.5 30.5t-1.5 28.5t-1 14.5q0 8 2.5 19.5t7.5 19.5q8 13 21 16t21 3q11 0 23 -2t23 -3q4 0 7 -0.5t7 -0.5q5 0 17 0.5t26 2.5q14 1 26.5 1.5
t17.5 0.5q37 0 50.5 -5.5t21.5 -15.5q9 -11 11 -20.5t2 -17.5q0 -5 -1 -18t-1.5 -27.5t-1.5 -28t-1 -18.5q0 -6 1 -21.5t1.5 -33.5t1.5 -34t1 -23q0 -5 -0.5 -9t-0.5 -8q-1 -16 -2.5 -31t-1.5 -30q-1 -4 -1 -14v-85v-13.5t1 -13.5q0 -5 1 -19.5t1 -18.5q0 -2 0.5 -10
t0.5 -10q0 -1 -0.5 -9.5t-1 -19.5t-1 -21.5t-0.5 -13.5q0 -12 1 -24t3 -24q1 -6 2 -15t1 -10q0 -26 -16.5 -37t-44.5 -11q-4 0 -13.5 0.5t-20 1t-20 1t-13.5 0.5q-5 0 -16.5 -0.5t-25 -1t-25.5 -1t-17 -0.5q-14 0 -27 1t-23.5 6t-17 14t-6.5 26q0 2 0.5 8.5t1 13.5t1 13
t0.5 9v101v16t1 16v8.5t1 14.5q1 9 2 21l-0.5 6.5t-1 15t-1 17.5t-0.5 16v33zM225 867q4 0 16.5 1t16.5 1q20 0 31 -6.5t21 -17.5q6 -8 12 -12q5 -6 13 -10q3 -4 6.5 -7t7.5 -6t7.5 -6t8.5 -6q7 -5 13.5 -13t6.5 -15q0 -1 -2 -8t-16 -7h-16q-2 0 -11.5 1t-12.5 1
q-2 0 -11.5 -1t-12.5 -1q-5 0 -16.5 0.5t-16.5 1.5q-3 0 -9.5 2.5t-13.5 5t-13.5 4.5t-7.5 3q-3 2 -5.5 3.5t-4.5 3.5q-5 2 -18.5 6t-19.5 4t-12.5 -2t-12.5 -4q-5 -1 -7.5 -2t-11.5 -5q-5 -2 -9.5 -3t-9.5 -3l-7 -3.5t-6 -3.5q-5 -3 -8.5 -4t-9 -2t-14 -1h-22.5
q-2 0 -10 0.5t-10 0.5q-4 0 -17 -0.5t-17 -0.5q-12 0 -16 4.5t-4 7.5q0 2 2 9t6 10q2 3 5.5 4.5t5.5 3.5q3 3 7 9q1 2 6 6t10 8.5t10 8.5t7 6q4 6 7 8q2 2 5.5 3.5t5.5 3.5q5 3 9 7.5t9 6.5q4 3 12.5 4.5t17.5 2l18 1t14 0.5q3 0 14.5 -1t15.5 -1t16.5 0.5t16.5 0.5t15.5 -1
t15.5 -1z" />
    <glyph glyph-name="Idieresis" unicode="&#xcf;" horiz-adv-x="354" 
d="M39 355q0 14 -1 26.5t-1 26.5q0 12 0.5 23.5t0.5 23.5t-0.5 24t-0.5 23q0 3 0.5 11t1 17t1 17.5t0.5 11.5q0 5 -1 19.5t-1.5 30.5t-1.5 28.5t-1 14.5q0 8 2.5 19.5t7.5 19.5q8 13 21 16t21 3q11 0 23 -2t23 -3q4 0 7 -0.5t7 -0.5q5 0 17 0.5t26 2.5q14 1 26.5 1.5
t17.5 0.5q37 0 50.5 -5.5t21.5 -15.5q9 -11 11 -20.5t2 -17.5q0 -5 -1 -18t-1.5 -27.5t-1.5 -28t-1 -18.5q0 -6 1 -21.5t1.5 -33.5t1.5 -34t1 -23q0 -5 -0.5 -9t-0.5 -8q-1 -16 -2.5 -31t-1.5 -30q-1 -4 -1 -14v-85v-13.5t1 -13.5q0 -5 1 -19.5t1 -18.5q0 -2 0.5 -10
t0.5 -10q0 -1 -0.5 -9.5t-1 -19.5t-1 -21.5t-0.5 -13.5q0 -12 1 -24t3 -24q1 -6 2 -15t1 -10q0 -26 -16.5 -37t-44.5 -11q-4 0 -13.5 0.5t-20 1t-20 1t-13.5 0.5q-5 0 -16.5 -0.5t-25 -1t-25.5 -1t-17 -0.5q-14 0 -27 1t-23.5 6t-17 14t-6.5 26q0 2 0.5 8.5t1 13.5t1 13
t0.5 9v101v16t1 16v8.5t1 14.5q1 9 2 21l-0.5 6.5t-1 15t-1 17.5t-0.5 16v33zM196 837q0 13 4.5 20t11 10.5t13 4.5t10.5 1q6 0 12 -1t13 -1h27q2 0 12 -0.5t13 -0.5q2 0 7.5 0.5t7.5 0.5t6.5 -0.5t6.5 -0.5t9 1t9 1q10 0 23 -2.5t21 -8.5q8 -8 9.5 -18.5t1.5 -24.5
q0 -2 0.5 -11t0.5 -11q0 -4 -2 -15t-3 -13q-2 -3 -8.5 -9t-27.5 -6h-9.5t-9.5 1q-6 2 -11 2q-2 1 -8.5 0.5t-8.5 -0.5t-8 0.5t-8 0.5q-3 0 -13.5 -1.5t-14.5 -1.5q-2 0 -8.5 0.5t-8.5 0.5q-3 0 -13 -0.5t-14 -0.5q-5 0 -12 0.5t-14 3t-12 8.5t-5 17q0 2 0.5 10.5t0.5 10.5
v33v0zM-8 870q2 0 7.5 0.5t7.5 0.5q2 1 12 0t13 -1q2 0 13 0.5t14 0.5t15 -0.5t16 -0.5q7 0 13.5 0.5t12.5 0.5q20 0 27 -4t9 -6q8 -7 9 -14t1 -14q-1 -4 -0.5 -17t0.5 -17q0 -27 -10.5 -34.5t-15.5 -8.5q-2 -1 -16 -1.5t-16 -0.5t-9.5 0.5t-9.5 1.5h-19q-4 0 -17.5 1
t-17.5 1h-9t-8 -1q-8 -2 -11.5 -2h-5.5q-23 0 -38.5 4.5t-15.5 30.5q0 6 0.5 11.5t0.5 11.5v14v8.5t2 8.5q2 9 6.5 17t21.5 10q2 0 9 -0.5t9 -0.5z" />
    <glyph glyph-name="Eth" unicode="&#xd0;" horiz-adv-x="750" 
d="M188 0q-4 0 -13.5 -1t-21 -2t-21.5 -1.5t-14 -0.5q-43 0 -60 14q-8 5 -14 16.5t-6 24.5v6t0.5 10t0.5 10v6q1 5 1.5 10t1.5 10q1 11 1.5 20.5t0.5 16.5q0 3 -0.5 9.5t-0.5 14.5t-0.5 15t-0.5 10v8t0.5 13t0.5 13v9v9t-0.5 14.5t-0.5 14.5v10q-1 7 -3 15.5t-7 8.5
q-2 0 -6 -0.5t-6 -0.5q-14 0 -17 6.5t-3 25.5q0 3 0.5 14.5t0.5 15.5t-0.5 17t-0.5 18q0 11 5.5 12.5t18.5 1.5q10 0 12 3.5t2 9.5q0 3 0.5 13t1 21.5t1 22t0.5 14.5t-0.5 15.5t-0.5 15.5q0 2 0.5 8t0.5 8q0 4 -1 17.5t-1 18.5v10t-0.5 15t-0.5 15v10q0 9 1 23.5t9 25.5
q11 18 27.5 21t25.5 3q3 0 10 -0.5t15.5 -1t16 -1t10.5 -0.5q4 0 16 1.5t16 1.5q3 0 9.5 0.5t14 0.5t14 0.5t9.5 0.5q4 0 16.5 -0.5t26.5 -1t27 -1t18 -0.5h30q12 0 42 -1.5t68 -11.5q11 -3 21.5 -7t40.5 -17q9 -5 17.5 -10.5t17.5 -10.5q13 -7 26 -13t26 -14
q15 -8 32 -25.5t27 -31.5q4 -6 7.5 -12.5t8.5 -12.5q5 -7 10.5 -13t10.5 -14q19 -26 28 -63.5t9 -84.5v-9t-0.5 -9.5t-1 -14t-1.5 -21.5q-1 -14 -2 -22.5t-3 -17t-5.5 -19.5t-9.5 -29q-6 -17 -10 -28t-9 -20t-12.5 -18.5t-19.5 -23.5q-19 -21 -29 -31t-25 -20
q-2 -2 -18.5 -10t-37 -18t-40 -18.5t-26.5 -10.5q-15 -5 -31 -7.5t-32 -5.5q-26 -4 -42 -6t-27.5 -3t-21 -1.5t-23.5 -0.5q-5 0 -21 0.5t-34 1.5t-33.5 1.5t-22.5 0.5h-16zM485 344q0 2 0.5 10.5t0.5 11.5q0 23 -8.5 43.5t-20.5 31.5l-4 2.5t-8.5 6t-9 6.5t-6.5 4
q-13 5 -17.5 7t-9.5 3q-3 0 -10.5 0.5t-15.5 1t-15.5 1t-10.5 0.5q-5 1 -9.5 1.5t-9.5 0.5q-11 0 -17.5 -4.5t-9.5 -9.5q-3 -6 -4.5 -19t-1.5 -19q0 -8 2.5 -10t6.5 -2q3 0 15 0.5t16 0.5q3 0 13 -0.5t13 -0.5q2 0 10 0.5t10 0.5q9 0 14.5 -3.5t8 -7.5t3 -7.5t0.5 -4.5
q0 -2 -0.5 -6.5t-0.5 -6.5t1 -6.5t1 -6.5v-9q0 -2 0.5 -9.5t0.5 -10.5q0 -23 -8.5 -27.5t-17.5 -5.5h-9.5t-14 0.5t-14.5 0.5h-10q-2 0 -9.5 0.5t-10.5 0.5q-1 0 -9 -1t-8 -9q0 -2 1 -9.5t1 -9.5q0 -8 0.5 -17.5t2.5 -15.5q2 -7 7 -11t11 -6.5t11 -3t8 -0.5q8 0 13.5 1
t10.5 3q7 2 10.5 2.5t11.5 1.5q9 1 15.5 1.5t12.5 3t13 7t16 13.5q2 2 11.5 10t11.5 11q1 2 7.5 14.5t8.5 25.5v30z" />
    <glyph glyph-name="Ntilde" unicode="&#xd1;" horiz-adv-x="771" 
d="M469 591v16.5t-1 17.5q0 4 -1 17t-1 18q0 6 2 14t11 18q9 11 19.5 14.5t29.5 3.5h9.5t13.5 -0.5t13 -0.5h6l5 -0.5t10.5 -0.5t10.5 -0.5l5 -0.5q15 0 30.5 1.5t30.5 1.5q17 0 32 -3t19 -5q11 -5 17 -13.5t9 -17.5t3.5 -16.5t0.5 -11.5q-1 -11 -1 -20v-23q0 -3 -1 -11.5
t-2 -17.5t-1.5 -17.5t-0.5 -12.5t0.5 -15t0.5 -23t0.5 -23.5t0.5 -15.5v-34.5t-2 -31.5q-2 -26 -2.5 -33.5t-0.5 -14.5q0 -5 1 -19.5t2 -30.5t2 -30.5t1 -20.5v-28t-0.5 -42.5t-0.5 -43v-28.5v-14t1 -14q1 -8 2.5 -16.5t1.5 -17.5q0 -25 -15.5 -35.5t-36.5 -10.5
q-3 0 -9.5 0.5t-13.5 1.5t-13.5 1.5t-9.5 0.5q-4 0 -21.5 -0.5t-33.5 -2.5q-11 -2 -13.5 -2h-7.5q-21 0 -33 1t-19 3.5t-11.5 6.5t-8.5 9q-3 4 -7 7.5t-7 7.5q-10 9 -20.5 21.5t-17.5 22.5q-8 11 -14 21.5t-14 21.5q-2 3 -8.5 10.5t-13 16t-13 16.5t-8.5 12q-2 3 -4 6.5
t-4 6.5q-3 5 -6.5 9t-6.5 8q-3 5 -5 8.5t-6 8.5q-3 5 -7.5 8.5t-9.5 3.5q-14 0 -16 -12t-2 -22q0 -3 0.5 -16t0.5 -18v-15t-0.5 -23t-0.5 -23v-15v-10q0 -4 2 -18t2 -19q0 -1 -0.5 -8t-1.5 -10q-2 -8 -11.5 -16.5t-26.5 -8.5q-4 0 -17 1.5t-18 1.5q-2 0 -8.5 -0.5
t-13.5 -0.5t-13.5 -0.5t-9.5 -0.5t-11 0.5t-17.5 0.5t-18 0.5t-12.5 0.5q-3 0 -11 -0.5t-17 -1t-17.5 -1t-11.5 -0.5q-14 0 -30 10.5t-16 39.5q0 7 0.5 13.5t1.5 13.5v17.5t1 17.5q1 13 2.5 25t2.5 25q1 6 1 12v13q0 4 -0.5 15t-0.5 23.5t-0.5 23.5t-0.5 16v14.5t-0.5 22.5
t-0.5 22.5v15.5q0 7 0.5 26t1 41.5t1.5 44t2 32.5q1 16 2 31.5t1 31.5q0 9 -0.5 15t-1 12.5t-2 15t-3.5 21.5q-3 21 -3 38t5 30t6 15q8 11 18.5 13t32.5 2h19h6q2 -1 5 -1h8h18h23t23 0.5t17 0.5q10 1 19.5 1.5t18.5 0.5q19 0 33 -4t29 -23q1 -1 4.5 -6t8.5 -13.5t11 -18.5
l12 -20q8 -14 16 -25q10 -12 13 -17t10 -18q3 -7 6 -13.5t8 -12.5q6 -7 11 -14q3 -4 5.5 -7.5t4.5 -7.5q11 -15 16.5 -20.5t15.5 -5.5q4 0 9 3.5t5 13.5l-0.5 6t-0.5 13.5t-0.5 14t-0.5 9.5v46zM290 874q10 0 19.5 -0.5t19.5 -2.5l10 -2l10 -2q4 -1 7.5 -1t7.5 -1
q5 -1 10.5 -2t10.5 -3q5 -1 10 -1t10 -1q4 -1 7.5 -2t8.5 -3q2 0 8 -1t13 -2t13.5 -1.5t8.5 -0.5q14 0 22 7q3 3 5.5 6t5.5 5q7 4 16 4q2 0 8 -1t8 -1t10 0.5t10 0.5q11 0 23 -2.5t12 -17.5q0 -4 -2 -10l-4 -12t-4.5 -10.5t-3.5 -5.5q-2 -3 -4.5 -5.5l-5.5 -5.5
q-2 -2 -3.5 -5.5t-3.5 -5.5q-9 -13 -21.5 -19.5t-20.5 -9.5t-12.5 -3.5t-17.5 -1.5q-2 0 -7.5 -0.5t-7.5 -0.5t-8 0.5t-14 1.5l-16 2t-13 3q-5 1 -13 3l-18 3l-12 3q-5 1 -10 1t-10 1q-7 1 -14 3l-14 4q-5 1 -13 1.5t-14 0.5q-3 0 -7.5 -0.5t-9.5 -4.5q-3 -2 -9 -8
q-5 -5 -16 -7q-3 -1 -15 0t-16 1q-2 0 -8.5 -0.5t-8.5 -0.5q-14 0 -19 8.5t-5 14.5q0 8 9 30t32 39q8 7 12 8.5t16 5.5q7 3 11.5 4t8 2t7.5 1h11z" />
    <glyph glyph-name="Ograve" unicode="&#xd2;" horiz-adv-x="812" 
d="M10 342q0 6 0.5 12.5t1.5 12.5q2 11 4.5 21.5t3.5 21.5q2 10 2 20t2 20q1 7 7 22.5t13 31t12.5 27.5t5.5 13q1 1 4 6t7.5 12t8.5 13.5t6 9.5q2 2 7.5 7t12 10.5t12.5 11t8 7.5q11 11 31 28.5t46 29.5q3 1 15.5 6t26.5 10t26 9t14 4q8 2 14.5 3t14.5 3q5 1 11 2t11 2
q2 0 11 0.5t19 1t18 1t10 0.5l15.5 -1t36 -2.5t40.5 -4t29 -5.5q3 -1 12.5 -4.5t21 -8t22 -9t15.5 -6.5q6 -3 11.5 -6.5t11.5 -6.5q9 -5 18.5 -8t17.5 -8q23 -12 32.5 -22t15.5 -18q3 -4 6.5 -7.5t6.5 -7.5q7 -7 11 -12t7.5 -9.5t7 -9.5t8.5 -14q5 -8 9.5 -15.5t9.5 -15.5
t9 -16t6 -13q3 -7 4.5 -14.5t3.5 -15.5q3 -10 6.5 -20t5.5 -20q0 -3 1 -9.5t1.5 -15l1 -17t0.5 -14.5v-8t-1 -9q-1 -8 -2.5 -16.5t-1.5 -16.5v-21v-7t-1 -10q-1 -11 -2 -18t-3 -13t-5.5 -13.5t-8.5 -19.5q-4 -8 -7 -15t-5 -15l-4 -14t-5 -14l-4.5 -8.5t-12.5 -20.5
t-19 -25.5t-25 -23.5q-6 -5 -12.5 -8t-12.5 -8q-5 -3 -9 -6.5t-9 -7.5q-20 -17 -48 -25l-14 -4t-14 -5q-8 -2 -14.5 -5.5t-14.5 -6.5q-7 -2 -13 -3t-13 -3q-10 -2 -16 -3.5t-11.5 -2t-11.5 -1.5t-15 -2q-5 0 -10.5 -1t-11.5 -1h-38q-3 0 -9.5 0.5t-14 1t-14 1t-9.5 0.5h-35
q-14 1 -30.5 3t-29.5 7q-5 2 -11 5t-11 5q-8 3 -15 5t-14 5q-6 2 -11.5 5t-10.5 6q-6 4 -11.5 8t-11.5 9l-18 12q-6 5 -12 9.5t-11 9.5q-12 11 -20.5 21.5t-18.5 22.5q-2 4 -5 7l-6 6q-9 9 -17 18.5t-15 20.5q-2 3 -3.5 6.5t-3 9t-4.5 14t-7 23.5q-4 14 -8 26.5t-6 26.5v27
q0 4 -1 18t-1 19zM400 467q-18 0 -33 -6l-10 -6l-10 -6q-9 -5 -18.5 -8t-17.5 -10q-6 -5 -9 -9.5t-12 -21.5q-8 -16 -12 -25.5t-4 -23.5q0 -8 2.5 -20t8.5 -23q3 -5 7 -9.5t7 -9.5q3 -4 7 -12q3 -4 10 -10t16 -12t19.5 -10t20.5 -4q3 0 13 -0.5t13 -0.5q1 0 7.5 0.5t15 1.5
t15.5 2t8 1q23 5 35 19q5 5 8.5 9.5t8.5 9.5q3 3 9 7q7 7 15.5 24t8.5 36q0 7 -2.5 17.5t-6 20t-6.5 17t-4 9.5q-8 14 -23 23.5t-23 12.5q-4 2 -8 2.5t-8 2.5l-10 4l-10 4q-12 4 -28 4zM467 867q14 0 22 -8t10 -13l3.5 -7l3.5 -7t5.5 -7.5t6.5 -8.5l6 -12q2 -5 5 -9t6 -9
q6 -8 6 -13q0 -1 -3 -8.5t-18 -7.5q-5 0 -11 1t-11 1q-3 0 -12 -1.5t-12 -1.5q-14 0 -30.5 2t-30.5 8q-6 4 -10 5q-2 1 -5 1.5t-5 1.5l-4 2l-4 2q-7 2 -19 4q-14 3 -31.5 10t-31.5 11l-12 3q-8 4 -11 4.5t-8 1.5q-3 1 -9.5 2.5t-13 5t-11.5 8.5t-5 12q0 11 4 19.5t24 8.5
q3 0 14 -1t14 -1q8 0 15.5 0.5t15.5 0.5q2 0 11.5 -0.5t12.5 -0.5h19q2 0 12 -1t13 -1t15 1.5t16 1.5q3 0 13.5 -0.5t13.5 -0.5q2 0 10 0.5t11 0.5z" />
    <glyph glyph-name="Oacute" unicode="&#xd3;" horiz-adv-x="812" 
d="M10 342q0 6 0.5 12.5t1.5 12.5q2 11 4.5 21.5t3.5 21.5q2 10 2 20t2 20q1 7 7 22.5t13 31t12.5 27.5t5.5 13q1 1 4 6t7.5 12t8.5 13.5t6 9.5q2 2 7.5 7t12 10.5t12.5 11t8 7.5q11 11 31 28.5t46 29.5q3 1 15.5 6t26.5 10t26 9t14 4q8 2 14.5 3t14.5 3q5 1 11 2t11 2
q2 0 11 0.5t19 1t18 1t10 0.5l15.5 -1t36 -2.5t40.5 -4t29 -5.5q3 -1 12.5 -4.5t21 -8t22 -9t15.5 -6.5q6 -3 11.5 -6.5t11.5 -6.5q9 -5 18.5 -8t17.5 -8q23 -12 32.5 -22t15.5 -18q3 -4 6.5 -7.5t6.5 -7.5q7 -7 11 -12t7.5 -9.5t7 -9.5t8.5 -14q5 -8 9.5 -15.5t9.5 -15.5
t9 -16t6 -13q3 -7 4.5 -14.5t3.5 -15.5q3 -10 6.5 -20t5.5 -20q0 -3 1 -9.5t1.5 -15l1 -17t0.5 -14.5v-8t-1 -9q-1 -8 -2.5 -16.5t-1.5 -16.5v-21v-7t-1 -10q-1 -11 -2 -18t-3 -13t-5.5 -13.5t-8.5 -19.5q-4 -8 -7 -15t-5 -15l-4 -14t-5 -14l-4.5 -8.5t-12.5 -20.5
t-19 -25.5t-25 -23.5q-6 -5 -12.5 -8t-12.5 -8q-5 -3 -9 -6.5t-9 -7.5q-20 -17 -48 -25l-14 -4t-14 -5q-8 -2 -14.5 -5.5t-14.5 -6.5q-7 -2 -13 -3t-13 -3q-10 -2 -16 -3.5t-11.5 -2t-11.5 -1.5t-15 -2q-5 0 -10.5 -1t-11.5 -1h-38q-3 0 -9.5 0.5t-14 1t-14 1t-9.5 0.5h-35
q-14 1 -30.5 3t-29.5 7q-5 2 -11 5t-11 5q-8 3 -15 5t-14 5q-6 2 -11.5 5t-10.5 6q-6 4 -11.5 8t-11.5 9l-18 12q-6 5 -12 9.5t-11 9.5q-12 11 -20.5 21.5t-18.5 22.5q-2 4 -5 7l-6 6q-9 9 -17 18.5t-15 20.5q-2 3 -3.5 6.5t-3 9t-4.5 14t-7 23.5q-4 14 -8 26.5t-6 26.5v27
q0 4 -1 18t-1 19zM400 467q-18 0 -33 -6l-10 -6l-10 -6q-9 -5 -18.5 -8t-17.5 -10q-6 -5 -9 -9.5t-12 -21.5q-8 -16 -12 -25.5t-4 -23.5q0 -8 2.5 -20t8.5 -23q3 -5 7 -9.5t7 -9.5q3 -4 7 -12q3 -4 10 -10t16 -12t19.5 -10t20.5 -4q3 0 13 -0.5t13 -0.5q1 0 7.5 0.5t15 1.5
t15.5 2t8 1q23 5 35 19q5 5 8.5 9.5t8.5 9.5q3 3 9 7q7 7 15.5 24t8.5 36q0 7 -2.5 17.5t-6 20t-6.5 17t-4 9.5q-8 14 -23 23.5t-23 12.5q-4 2 -8 2.5t-8 2.5l-10 4l-10 4q-12 4 -28 4zM272 773q0 2 3 7.5t6.5 12.5t7 12.5t4.5 7.5q2 3 4.5 5.5t4.5 6.5q3 5 5.5 10t5.5 10
q11 17 21 19.5t25 1.5q3 -1 12.5 -0.5t12.5 0.5q4 0 18.5 -1t19.5 -1q3 0 11.5 0.5t18 0.5t18 0.5t11.5 0.5q5 0 20 -0.5t20 -0.5q4 0 15.5 0.5t15.5 0.5q18 0 23 -8t5 -17q0 -14 -13 -20q-3 -2 -11 -4.5t-18 -5.5t-18.5 -5.5t-12.5 -3.5q-8 -3 -15.5 -6.5t-15.5 -5.5
q-5 -1 -16 -4t-14 -4q-10 -2 -16 -4q-4 -1 -12 -5q-14 -5 -32.5 -11t-33.5 -6h-9t-13.5 0.5t-14 0.5h-9.5q-2 0 -8 -0.5t-8 -0.5q-10 0 -14 5t-4 11v1z" />
    <glyph glyph-name="Ocircumflex" unicode="&#xd4;" horiz-adv-x="812" 
d="M10 342q0 6 0.5 12.5t1.5 12.5q2 11 4.5 21.5t3.5 21.5q2 10 2 20t2 20q1 7 7 22.5t13 31t12.5 27.5t5.5 13q1 1 4 6t7.5 12t8.5 13.5t6 9.5q2 2 7.5 7t12 10.5t12.5 11t8 7.5q11 11 31 28.5t46 29.5q3 1 15.5 6t26.5 10t26 9t14 4q8 2 14.5 3t14.5 3q5 1 11 2t11 2
q2 0 11 0.5t19 1t18 1t10 0.5l15.5 -1t36 -2.5t40.5 -4t29 -5.5q3 -1 12.5 -4.5t21 -8t22 -9t15.5 -6.5q6 -3 11.5 -6.5t11.5 -6.5q9 -5 18.5 -8t17.5 -8q23 -12 32.5 -22t15.5 -18q3 -4 6.5 -7.5t6.5 -7.5q7 -7 11 -12t7.5 -9.5t7 -9.5t8.5 -14q5 -8 9.5 -15.5t9.5 -15.5
t9 -16t6 -13q3 -7 4.5 -14.5t3.5 -15.5q3 -10 6.5 -20t5.5 -20q0 -3 1 -9.5t1.5 -15l1 -17t0.5 -14.5v-8t-1 -9q-1 -8 -2.5 -16.5t-1.5 -16.5v-21v-7t-1 -10q-1 -11 -2 -18t-3 -13t-5.5 -13.5t-8.5 -19.5q-4 -8 -7 -15t-5 -15l-4 -14t-5 -14l-4.5 -8.5t-12.5 -20.5
t-19 -25.5t-25 -23.5q-6 -5 -12.5 -8t-12.5 -8q-5 -3 -9 -6.5t-9 -7.5q-20 -17 -48 -25l-14 -4t-14 -5q-8 -2 -14.5 -5.5t-14.5 -6.5q-7 -2 -13 -3t-13 -3q-10 -2 -16 -3.5t-11.5 -2t-11.5 -1.5t-15 -2q-5 0 -10.5 -1t-11.5 -1h-38q-3 0 -9.5 0.5t-14 1t-14 1t-9.5 0.5h-35
q-14 1 -30.5 3t-29.5 7q-5 2 -11 5t-11 5q-8 3 -15 5t-14 5q-6 2 -11.5 5t-10.5 6q-6 4 -11.5 8t-11.5 9l-18 12q-6 5 -12 9.5t-11 9.5q-12 11 -20.5 21.5t-18.5 22.5q-2 4 -5 7l-6 6q-9 9 -17 18.5t-15 20.5q-2 3 -3.5 6.5t-3 9t-4.5 14t-7 23.5q-4 14 -8 26.5t-6 26.5v27
q0 4 -1 18t-1 19zM400 467q-18 0 -33 -6l-10 -6l-10 -6q-9 -5 -18.5 -8t-17.5 -10q-6 -5 -9 -9.5t-12 -21.5q-8 -16 -12 -25.5t-4 -23.5q0 -8 2.5 -20t8.5 -23q3 -5 7 -9.5t7 -9.5q3 -4 7 -12q3 -4 10 -10t16 -12t19.5 -10t20.5 -4q3 0 13 -0.5t13 -0.5q1 0 7.5 0.5t15 1.5
t15.5 2t8 1q23 5 35 19q5 5 8.5 9.5t8.5 9.5q3 3 9 7q7 7 15.5 24t8.5 36q0 7 -2.5 17.5t-6 20t-6.5 17t-4 9.5q-8 14 -23 23.5t-23 12.5q-4 2 -8 2.5t-8 2.5l-10 4l-10 4q-12 4 -28 4zM454 867q4 0 16.5 1t16.5 1q20 0 31 -6.5t21 -17.5q6 -8 12 -12q5 -6 13 -10
q3 -4 6.5 -7t7.5 -6t7.5 -6t8.5 -6q7 -5 13.5 -13t6.5 -15q0 -1 -2 -8t-16 -7h-16q-2 0 -11.5 1t-12.5 1q-2 0 -11.5 -1t-12.5 -1q-5 0 -16.5 0.5t-16.5 1.5q-3 0 -9.5 2.5t-13.5 5t-13.5 4.5t-7.5 3q-3 2 -5.5 3.5t-4.5 3.5q-5 2 -18.5 6t-19.5 4t-12.5 -2t-12.5 -4
q-5 -1 -7.5 -2t-11.5 -5q-5 -2 -9.5 -3t-9.5 -3l-7 -3.5t-6 -3.5q-5 -3 -8.5 -4t-9 -2t-14 -1h-22.5q-2 0 -10 0.5t-10 0.5q-4 0 -17 -0.5t-17 -0.5q-12 0 -16 4.5t-4 7.5q0 2 2 9t6 10q2 3 5.5 4.5t5.5 3.5q3 3 7 9q1 2 6 6t10 8.5t10 8.5t7 6q4 6 7 8q2 2 5.5 3.5t5.5 3.5
q5 3 9 7.5t9 6.5q4 3 12.5 4.5t17.5 2l18 1t14 0.5q3 0 14.5 -1t15.5 -1t16.5 0.5t16.5 0.5t15.5 -1t15.5 -1z" />
    <glyph glyph-name="Otilde" unicode="&#xd5;" horiz-adv-x="812" 
d="M10 342q0 6 0.5 12.5t1.5 12.5q2 11 4.5 21.5t3.5 21.5q2 10 2 20t2 20q1 7 7 22.5t13 31t12.5 27.5t5.5 13q1 1 4 6t7.5 12t8.5 13.5t6 9.5q2 2 7.5 7t12 10.5t12.5 11t8 7.5q11 11 31 28.5t46 29.5q3 1 15.5 6t26.5 10t26 9t14 4q8 2 14.5 3t14.5 3q5 1 11 2t11 2
q2 0 11 0.5t19 1t18 1t10 0.5l15.5 -1t36 -2.5t40.5 -4t29 -5.5q3 -1 12.5 -4.5t21 -8t22 -9t15.5 -6.5q6 -3 11.5 -6.5t11.5 -6.5q9 -5 18.5 -8t17.5 -8q23 -12 32.5 -22t15.5 -18q3 -4 6.5 -7.5t6.5 -7.5q7 -7 11 -12t7.5 -9.5t7 -9.5t8.5 -14q5 -8 9.5 -15.5t9.5 -15.5
t9 -16t6 -13q3 -7 4.5 -14.5t3.5 -15.5q3 -10 6.5 -20t5.5 -20q0 -3 1 -9.5t1.5 -15l1 -17t0.5 -14.5v-8t-1 -9q-1 -8 -2.5 -16.5t-1.5 -16.5v-21v-7t-1 -10q-1 -11 -2 -18t-3 -13t-5.5 -13.5t-8.5 -19.5q-4 -8 -7 -15t-5 -15l-4 -14t-5 -14l-4.5 -8.5t-12.5 -20.5
t-19 -25.5t-25 -23.5q-6 -5 -12.5 -8t-12.5 -8q-5 -3 -9 -6.5t-9 -7.5q-20 -17 -48 -25l-14 -4t-14 -5q-8 -2 -14.5 -5.5t-14.5 -6.5q-7 -2 -13 -3t-13 -3q-10 -2 -16 -3.5t-11.5 -2t-11.5 -1.5t-15 -2q-5 0 -10.5 -1t-11.5 -1h-38q-3 0 -9.5 0.5t-14 1t-14 1t-9.5 0.5h-35
q-14 1 -30.5 3t-29.5 7q-5 2 -11 5t-11 5q-8 3 -15 5t-14 5q-6 2 -11.5 5t-10.5 6q-6 4 -11.5 8t-11.5 9l-18 12q-6 5 -12 9.5t-11 9.5q-12 11 -20.5 21.5t-18.5 22.5q-2 4 -5 7l-6 6q-9 9 -17 18.5t-15 20.5q-2 3 -3.5 6.5t-3 9t-4.5 14t-7 23.5q-4 14 -8 26.5t-6 26.5v27
q0 4 -1 18t-1 19zM400 467q-18 0 -33 -6l-10 -6l-10 -6q-9 -5 -18.5 -8t-17.5 -10q-6 -5 -9 -9.5t-12 -21.5q-8 -16 -12 -25.5t-4 -23.5q0 -8 2.5 -20t8.5 -23q3 -5 7 -9.5t7 -9.5q3 -4 7 -12q3 -4 10 -10t16 -12t19.5 -10t20.5 -4q3 0 13 -0.5t13 -0.5q1 0 7.5 0.5t15 1.5
t15.5 2t8 1q23 5 35 19q5 5 8.5 9.5t8.5 9.5q3 3 9 7q7 7 15.5 24t8.5 36q0 7 -2.5 17.5t-6 20t-6.5 17t-4 9.5q-8 14 -23 23.5t-23 12.5q-4 2 -8 2.5t-8 2.5l-10 4l-10 4q-12 4 -28 4zM311 874q10 0 19.5 -0.5t19.5 -2.5l10 -2l10 -2q4 -1 7.5 -1t7.5 -1q5 -1 10.5 -2
t10.5 -3q5 -1 10 -1t10 -1q4 -1 7.5 -2t8.5 -3q2 0 8 -1t13 -2t13.5 -1.5t8.5 -0.5q14 0 22 7q3 3 5.5 6t5.5 5q7 4 16 4q2 0 8 -1t8 -1t10 0.5t10 0.5q11 0 23 -2.5t12 -17.5q0 -4 -2 -10l-4 -12t-4.5 -10.5t-3.5 -5.5q-2 -3 -4.5 -5.5l-5.5 -5.5q-2 -2 -3.5 -5.5
t-3.5 -5.5q-9 -13 -21.5 -19.5t-20.5 -9.5t-12.5 -3.5t-17.5 -1.5q-2 0 -7.5 -0.5t-7.5 -0.5t-8 0.5t-14 1.5l-16 2t-13 3q-5 1 -13 3l-18 3l-12 3q-5 1 -10 1t-10 1q-7 1 -14 3l-14 4q-5 1 -13 1.5t-14 0.5q-3 0 -7.5 -0.5t-9.5 -4.5q-3 -2 -9 -8q-5 -5 -16 -7q-3 -1 -15 0
t-16 1q-2 0 -8.5 -0.5t-8.5 -0.5q-14 0 -19 8.5t-5 14.5q0 8 9 30t32 39q8 7 12 8.5t16 5.5q7 3 11.5 4t8 2t7.5 1h11z" />
    </font>
</defs>
</svg>
