<?xml version="1.0" standalone="no"?>
<!DOCTYPE svg PUBLIC "-//W3C//DTD SVG 1.1//EN" "http://www.w3.org/Graphics/SVG/1.1/DTD/svg11.dtd" >
<svg xmlns="http://www.w3.org/2000/svg" xmlns:xlink="http://www.w3.org/1999/xlink" version="1.1">
<metadata>
Created by FontForge 20170731 at Mon Feb  8 02:17:45 1999
 By Aleksey,,,
Copyright (c) 1992 Adobe Systems Incorporated.  All Rights Reserved.Block Berthold is a registered trademark of H. Berthold AG.
</metadata>
<defs>
<font id="BlockBECondensed" horiz-adv-x="458" >
  <font-face 
    font-family="BlockBE"
    font-weight="400"
    font-stretch="normal"
    units-per-em="1000"
    panose-1="0 0 4 0 0 0 0 0 0 0"
    ascent="800"
    descent="-200"
    x-height="547"
    cap-height="708"
    bbox="-62 -171 918 930"
    underline-thickness="50"
    underline-position="-175"
    unicode-range="U+0020-F002"
  />
<missing-glyph horiz-adv-x="500" 
d="M63 0v862h375v-862h-375zM125 63h250v737h-250v-737z" />
    <glyph glyph-name=".notdef" horiz-adv-x="500" 
d="M63 0v862h375v-862h-375zM125 63h250v737h-250v-737z" />
    <glyph glyph-name=".null" horiz-adv-x="0" 
 />
    <glyph glyph-name="nonmarkingreturn" horiz-adv-x="271" 
 />
    <glyph glyph-name="space" unicode=" " horiz-adv-x="271" 
 />
    <glyph glyph-name="exclam" unicode="!" horiz-adv-x="271" 
d="M138 707q9 0 30 1.5t29 1.5q33 0 33 -40q0 -1 -2 -23q-2 -65 -7 -180q0 -7 -8 -97q-2 -14 -6 -43q-5 -48 -5 -69q0 -11 -2 -16q-8 -15 -25 -15q-9 0 -12.5 0.5t-19.5 1.5h-19q-1 0 -9.5 -1t-10.5 -1q-8 1 -13 3q-12 7 -13 24q-1 35 -6 71q-4 28 -10 82l-3 63q-2 18 -5 54
q-6 126 -6 141q0 20 10 32.5t42 10.5q10 -1 38 -1zM50 143q0 37 38 37q44 0 72 -1h13q11 1 13 1q35 0 35 -37q0 -10 1 -33v-33v-39q0 -39 -37 -39h-24q-21 1 -25 1q-7 0 -21.5 -1t-22.5 -1q-26 0 -35 13q-5 8 -6 32v29q1 27 1 30t-1 20t-1 21z" />
    <glyph glyph-name="quotedbl" unicode="&#x22;" horiz-adv-x="375" 
d="M357 669l-53 -261h-31l-55 250q-2 9 -2 23q0 34 26 53q21 15 49 15q25 0 43 -13q25 -17 25 -51q0 -6 -2 -16zM149 669l-53 -261h-31l-55 250q-2 9 -2 23q0 34 26 53q21 15 49 15q25 0 43 -13q25 -17 25 -51q0 -6 -2 -16z" />
    <glyph glyph-name="dollar" unicode="$" horiz-adv-x="417" 
d="M163 719v30q0 35 21 35h16q14 -1 17 -1q1 0 8 1h7q17 0 17 -22v-21v-8q-1 -6 -1 -8q0 -13 14 -13q1 0 6 1h6q102 0 102 -44q0 -27 -3 -51q0 -3 1 -23v-24q0 -44 -40 -44h-4q-9 0 -22 5q-18 7 -22 8q-13 3 -31 3q-46 0 -46 -37q0 -15 10 -30q6 -8 44 -45q11 -10 33 -31
l16 -16q90 -81 90 -171q0 -84 -19 -123q-33 -67 -111 -89q-25 -7 -25 -21q0 -4 1 -27.5t1 -28.5q0 -20 -25 -20h-40q-20 0 -20 22q-1 45 -5 54.5t-22 9.5q-7 0 -22 2q-58 8 -76 14q-29 12 -29 38q0 5 2 35t2 36q0 3 -1 20.5t-1 21.5q0 41 37 41q21 0 34 -10q7 -7 21.5 -18
t52.5 -11q55 0 55 38q0 23 -36 56q-9 8 -23 21q-20 21 -47.5 48t-39.5 42q-21 24 -31 49q-13 32 -13 97q0 48 15 93q5 15 20 39q29 46 86 60q20 2 20 17z" />
    <glyph glyph-name="percent" unicode="%" horiz-adv-x="750" 
d="M16 495q0 62 9 102q7 32 28 60q25 32 56 41q25 7 51 7q42 0 72 -22q41 -30 54 -107q8 -49 8 -132q0 -10 -3 -32l-3 -26q-2 -19 -11 -59q-28 -80 -126 -80q-51 0 -88 32q-17 15 -28 44q-19 51 -19 172zM175 435v102q0 52 -21 52q-5 0 -9 -3q-9 -6 -11 -20q-3 -20 -3 -86
q0 -3 1 -20v-19.5v-15.5q-1 -12 -1 -15q0 -50 22 -50q15 0 19 20q3 13 3 55zM456 237q0 -8 4 53q3 51 13 75q34 85 124 85q53 0 91 -35q20 -23 26 -46q20 -58 20 -166q0 -109 -30 -155q-36 -55 -114 -55q-44 0 -80 26q-22 16 -35 49q-15 39 -17 106t-2 63zM614 159v119
q0 21 -3 38t-17 18q-14 0 -18 -15.5t-4 -66.5v-49q-1 -41 -1 -49q0 -48 21 -48q22 0 22 53zM170 9q0 10 11 28q19 39 45 94q23 55 55 129q11 20 31 61q13 32 40 95q9 20 35 73q26 58 78 173q10 21 12 24q8 11 23 11q1 0 15 -1q30 -2 27 -2q2 0 15 1h15q14 0 15 -11
q0 -2 -12 -30l-27 -51q-21 -49 -51 -118q-16 -33 -47 -99q-14 -36 -45 -107q-8 -16 -24 -49q-62 -128 -96 -214q-6 -16 -31 -16q-3 0 -20.5 1t-21.5 1q-2 0 -14 -1t-14 -1q-14 0 -14 9z" />
    <glyph glyph-name="ampersand" unicode="&#x26;" horiz-adv-x="542" 
d="M379 278q18 21 17 47q0 1 -1 6v7q0 26 27 26h6q3 -1 5 -1q15 -1 39 -2q2 0 14.5 1t14.5 1q26 0 26 -24q0 -45 -16 -100q-11 -38 -34 -73q-17 -26 -17 -33q0 -4 18 -35q41 -71 41 -81q0 -16 -24 -16q-3 0 -28 1.5t-30 1.5h-21q-14 -1 -21 -1q1 0 -20 -1q-8 0 -30 31
q-71 -39 -132 -39q-60 0 -103 29t-68.5 81.5t-25.5 106.5q0 79 35 129q19 28 54 55t35 39q0 6 -9 23q-24 45 -24 93q0 71 37 115q19 22 52.5 37t62.5 15q58 0 91 -19q74 -43 74 -133q0 -65 -29 -116q-19 -33 -52 -66q-13 -16 -13 -21q0 -3 8 -17t41 -67zM261 494
q36 30 36 61t-29 31q-10 0 -19 -10.5t-9 -26.5q0 -34 21 -55zM208 274q-8 -5 -12 -9q-17 -19 -17 -45q0 -29 17 -47t46 -18q10 0 25 4q0 1 -1 3.5t-2 3.5q-7 11 -13 22q-30 59 -35 69q-2 6 -8 17z" />
    <glyph glyph-name="quotesingle" unicode="'" horiz-adv-x="208" 
d="M174 669l-53 -261h-31l-55 250q-2 9 -2 23q0 34 26 53q21 15 49 15q25 0 43 -13q25 -17 25 -51q0 -6 -2 -16z" />
    <glyph glyph-name="parenleft" unicode="(" horiz-adv-x="271" 
d="M9 318v18q0 36 8 96q6 45 15 70.5t32 73.5q20 30 41 61q25 34 67 55q33 17 54 17q22 0 22 -19q0 -1 -1 -9t-1 -10.5t-1 -21.5t-1 -23q0 -27 3 -56q1 -10 1 -19q0 -5 -2 -10.5t-16 -20.5q-27 -30 -39 -106q-8 -50 -8 -90q0 -4 5 -44q0 -3 1 -8v-9q5 -37 10 -78
q10 -59 38 -87q15 -15 15 -24q0 -4 -2 -29t-2 -30q0 -20 2 -50l1 -9t1 -11q0 -18 -17 -18q-37 0 -76 20.5t-57.5 49t-36.5 58.5q-16 25 -20 33q-5 12 -12 38q-5 20 -7 32q-11 66 -14 95t-3 65z" />
    <glyph glyph-name="parenright" unicode=")" horiz-adv-x="271" 
d="M18 689q0 20 20 20q9 0 39 -8q43 -12 77 -44q16 -15 39 -56q6 -15 22 -35q19 -31 29 -95t13 -88.5t3 -62.5q0 -53 -5 -96q-4 -33 -11 -66q-12 -56 -40 -99q-3 -5 -27 -40q-20 -29 -41 -48q-49 -44 -94 -44q-22 0 -22 21q1 15 2 17q2 19 2 44q0 9 -2 51q0 1 -1 12.5
t-1 13.5q0 11 18 31q26 29 40 100q0 1 4 46t4 54q0 12 -4 39q-4 41 -12 97q-11 57 -38 84q-15 15 -15 27q0 4 2 32.5t2 34.5q0 18 -1 40q-2 10 -2 18z" />
    <glyph glyph-name="asterisk" unicode="*" horiz-adv-x="313" 
d="M179 508l7 -45q3 -15 6 -31q0 -14 -15 -20q-7 -3 -30 -3q-28 0 -28 21q0 3 9 81q-14 -8 -37 -25q-31 -23 -42 -23t-20 14q-14 29 -14 34q0 7 6.5 13t77.5 31l-6 3q-10 5 -40 17q-40 16 -40 30q0 8 11.5 27.5t23.5 19.5q8 0 40 -23q13 -9 39 -26q0 10 -2 27q0 4 -2 27
q-2 27 -2 30q0 21 27 21q44 0 44 -23q-5 -34 -11 -81q17 12 60 42q13 9 19 9q14 0 30 -33q5 -8 5 -15q0 -13 -20 -22t-65 -29q6 -4 45 -21q36 -16 36 -28q0 -11 -13 -30.5t-25 -19.5q-8 0 -36 23q-16 9 -38 28z" />
    <glyph glyph-name="comma" unicode="," horiz-adv-x="208" 
d="M88 179q4 0 27 1h27q24 0 35.5 -9.5t11.5 -66.5v-21q-1 -18 -1 -22v-27q0 -34 -27 -81q-7 -14 -21 -31q-7 -7 -59 -7h-17q-18 0 -18 15q0 3 6 13q10 16 10 33q0 20 -13 25q-5 1 -16 5.5t-11 19.5q0 2 1 10v10q0 2 -1 14t-1 15q0 2 1 17v17v17q-1 14 -1 16q0 38 38 38h14
q12 -1 15 -1z" />
    <glyph glyph-name="hyphen" unicode="-" horiz-adv-x="250" 
d="M163 346q3 0 15.5 1.5t14.5 1.5h16q24 0 24 -20v-10q-1 -9 -1 -11v-74q0 -26 -27 -26h-26q-40 4 -68 4h-10q-14 -2 -20 -3t-20 -1h-11q-9 -1 -11 -1q-21 0 -21 26q0 7 1 23v22v22q-1 19 -1 23q0 25 20 25q1 0 27.5 -1.5t32.5 -1.5q3 0 20.5 1.5t21.5 1.5q2 0 12 -1t11 -1
z" />
    <glyph glyph-name="hyphen" unicode="&#x2010;" horiz-adv-x="250" 
d="M163 346q3 0 15.5 1.5t14.5 1.5h16q24 0 24 -20v-10q-1 -9 -1 -11v-74q0 -26 -27 -26h-26q-40 4 -68 4h-10q-14 -2 -20 -3t-20 -1h-11q-9 -1 -11 -1q-21 0 -21 26q0 7 1 23v22v22q-1 19 -1 23q0 25 20 25q1 0 27.5 -1.5t32.5 -1.5q3 0 20.5 1.5t21.5 1.5q2 0 12 -1t11 -1
z" />
    <glyph glyph-name="period" unicode="." horiz-adv-x="208" 
d="M18 140q0 23 17 34q10 7 44 5h72q37 0 37 -33v-35q-1 -29 -1 -35q0 -2 1 -15v-15q0 -42 -29 -45q-9 -1 -57 -1q-39 0 -51 1q-33 3 -33 34q0 2 1 14v14q0 54 -1 47v30z" />
    <glyph glyph-name="slash" unicode="/" horiz-adv-x="354" 
d="M4 22q0 -4 29 117q2 9 24 70q8 37 28 110q11 28 31 85q9 35 31 104q8 28 19 65q5 13 14 39q1 5 10 43q6 28 15.5 39t30.5 11q8 0 24 1h23q39 0 49 -3q15 -4 15 -20q0 1 -8 -35q-13 -34 -32 -100q-3 -16 -10 -48q-16 -46 -36 -111q-4 -19 -15 -56q-9 -22 -24 -66
q-3 -17 -12 -53q-4 -11 -19 -69q-4 -8 -10 -25q-8 -35 -16 -69q-14 -50 -32 -50h-106q-23 0 -23 21z" />
    <glyph glyph-name="zero" unicode="0" horiz-adv-x="500" 
d="M30 376q0 26 5 87q5 66 10 84q25 98 95 142q44 27 113 27q80 0 125 -39q34 -30 51 -69q28 -62 36 -181q2 -29 2 -118q0 -29 -6 -77q-7 -59 -12 -82q-8 -37 -24 -64q-54 -93 -181 -93q-72 0 -126 38q-47 33 -66 105q-13 49 -18 120q0 21 -2 62t-2 58zM287 264v79q0 6 1 45
t1 46q0 106 -41 106q-14 0 -25 -16q-17 -25 -17 -87q0 -6 1 -18v-18q0 -3 -1 -19.5t-1 -19.5q0 -2 1 -15v-16q0 -12 -1 -22t-1 -52q0 -63 17 -83q9 -11 25 -11q14 0 23 12q18 25 18 89z" />
    <glyph glyph-name="one" unicode="1" horiz-adv-x="500" 
d="M212 303v61l3 27v19q-1 15 -1 18q0 2 1 18v18q0 36 -9 36q-5 0 -44 -39q-19 -24 -29 -24q-4 0 -18 7q-28 24 -44 33t-16 23q0 7 7 17q3 4 26 25q10 9 44 46t49 50q10 8 31 30.5t22 22.5q14 12 29 12q1 0 17 -2t47 -2q7 0 20 1.5t19 1.5q18 0 24 -14q3 -5 3 -44
q0 -5 -1 -38t-1 -38t-1 -27t-1 -26q0 -13 1 -47v-26q-1 -23 -1 -26q0 -2 1 -17t1 -18q0 -6 -1 -42t-1 -43q0 -2 1 -17v-18q0 -4 -2 -36q-1 -16 -1 -76q0 -8 2 -57t2 -58q0 -34 -42 -34q-4 0 -30.5 2t-31.5 2q-3 0 -23 -1.5t-24 -1.5q-35 0 -35 32q0 19 4 57.5t4 57.5
q0 6 -1.5 41t-1.5 42q0 12 1 36t1 36z" />
    <glyph glyph-name="two" unicode="2" horiz-adv-x="479" 
d="M261 150h70h18q15 -1 18 -1t25 1t26 1q28 0 28 -24v-20q-1 -18 -1 -21v-54q0 -11 -2 -16q-7 -16 -25 -16q-6 0 -40.5 1.5t-41.5 1.5h-44q-30 -1 -45 -1q-6 0 -42 1h-42q-5 0 -37.5 -1t-38.5 -1h-15q-13 -1 -16 -1q-27 0 -30 30q0 3 1 26v26v25q0 22 28 43q12 9 49.5 46
t47.5 50l21 33q10 14 37 49q56 72 56 164q0 58 -45 58q-20 0 -31 -23.5t-11 -49.5q0 -2 1.5 -17t1.5 -18q0 -29 -32 -31h-19q-17 1 -20 1h-24q-21 -1 -25 -1q-21 0 -27 16q-3 8 -3 33v43q0 86 34 134q29 41 88 57q45 12 83 12q36 0 51 -3q5 0 32 -10q34 -13 52 -26
q38 -29 58 -78q18 -45 18 -86q0 -53 -7 -89q-8 -43 -32 -84q-6 -10 -17.5 -29.5t-36.5 -58.5q-38 -49 -94 -92z" />
    <glyph glyph-name="three" unicode="3" 
d="M152 437h18q27 0 40 6q33 15 33 55q0 48 -50 48q-37 0 -65 -35q-1 -2 -4 -6.5l-5 -7.5q-10 -12 -22 -12q-13 0 -29 22l-28 35q-3 5 -11 15q-5 7 -15 19q-3 6 -3 12q0 17 26 41q16 15 44 39.5t59 35.5q37 13 82 13q31 0 74 -14q55 -18 79 -55q37 -56 37 -113
q0 -75 -44 -120q-16 -17 -16 -27q0 -7 5 -13t17 -18t28 -29q31 -45 31 -114q0 -55 -15 -88q-12 -25 -49 -65q-23 -25 -39 -34q-21 -14 -63 -25q-33 -9 -78 -9q-46 0 -74.5 10.5t-62.5 37.5q-53 42 -53 76q0 14 24 44q35 45 45 54.5t21 9.5q12 0 20 -9.5t15 -18.5
q31 -35 60 -35q32 0 52 21t20 53q0 27 -24 45q-21 15 -50 15q-1 0 -12.5 -1t-13.5 -1q-14 0 -26 18q-1 4 -1 30q0 4 -1 30.5t-1 31.5q0 33 25 33z" />
    <glyph glyph-name="four" unicode="4" horiz-adv-x="479" 
d="M203 151h-34q-4 0 -29 1h-30q-20 0 -37 -1q-34 -2 -33 -2q-20 0 -20 26q0 2 1.5 17t1.5 18t-1 20t-1 20q0 25 13 53q22 44 51 105q5 12 16 38t41 78q8 13 23 40.5t41 70.5q13 17 24 38q16 31 39 31q12 0 25 -1q5 0 14 -1t11 -1t11.5 1t15.5 1q14 1 28 1q22 0 27 -13
q2 -5 2 -38q0 -8 -1 -19q0 -5 -1.5 -20t-1.5 -23q0 -12 1 -45v-46v-26q-1 -22 -1 -26q0 -3 1 -24t1 -25t-1.5 -30t-1.5 -31l3 -45h38q27 0 27 -30q0 -2 -1 -17t-1 -18v-48q0 -16 -3 -21q-5 -9 -15 -9q-1 0 -15 1h-15q-10 0 -14 -8t-4 -42q0 -4 1.5 -29t1.5 -30q0 -24 -5 -30
q-11 -11 -25 -11q-7 0 -11 1q-12 1 -38 1h-42l-19 -1q-4 -1 -12 -1q-29 0 -29 29q0 2 2 17.5t2 18.5v20q1 35 1 38q0 24 -22 27zM231 366v74q0 11 -1 16q0 10 -6 10q-4 0 -21 -36q-14 -28 -17.5 -38.5t-19.5 -39.5q-3 -4 -10 -19q0 -2 -1.5 -6t-2.5 -6q-10 -15 -10 -20
q0 -8 17 -8q3 0 25 -1t26 -1q12 0 15 10q2 4 2 21q0 4 2 22.5t2 21.5z" />
    <glyph glyph-name="five" unicode="5" 
d="M63 617v50q0 17 14.5 28.5t27.5 11.5h8q6 -1 8 -1q16 -1 72 -1q4 0 32 1t33 1h21q18 -1 22 -1q51 0 58 1t13 1q29 0 29 -35v-17q-1 -14 -1 -17q0 -4 1 -27v-27q0 -35 -24 -35q-3 0 -32 1t-35 1h-57q-34 0 -40.5 -5.5t-6.5 -31.5q0 -13 15 -28q2 0 10 1h9q46 0 75 -13
q41 -18 74.5 -70t38.5 -99q1 -10 1 -34q0 -2 1 -13.5t1 -14.5q0 -21 -4 -45q-3 -19 -9 -42q-20 -81 -93 -129q-51 -34 -116 -34q-46 0 -82 11q-61 19 -102 68q-26 31 -26 52q0 11 4 18q2 4 27 26q19 15 35 32q20 22 32 22q13 0 22 -12q3 -5 8.5 -14t15.5 -16q18 -13 44 -13
q28 0 45.5 20t17.5 53q0 49 -30 73q-23 18 -73 18q-19 0 -33 -7.5t-17 -7.5q-13 0 -28 15q-10 8 -10 32v15q0 13 0.5 20t1.5 53.5l1 46.5q0 4 -1 30.5t-1 31.5l2 26q1 13 1 30z" />
    <glyph glyph-name="six" unicode="6" horiz-adv-x="500" 
d="M382 560h-10q-7 0 -17 -1q-13 -1 -17 -1q-38 -2 -65 -19q-33 -21 -46 -60q-6 -19 -5 -38q50 30 91 30q36 0 74 -22q51 -29 71 -83q15 -40 15 -123q0 -74 -18 -120q-17 -42 -44 -69q-39 -39 -88 -49q-37 -8 -63 -8q-53 0 -74 9q-2 0 -39 15q-10 4 -25 14q-50 34 -71 105
q-18 61 -18 169q0 63 6 106q2 11 6 35q11 68 35 113q43 81 139 121q55 23 130 23h19q16 -1 38 -4q38 -2 38 -38q0 -4 -1.5 -30.5t-1.5 -31.5q0 -2 1 -15t1 -16q0 -19 -22 -19q3 0 -39 7zM253 325q-31 0 -35 -41q-2 -17 -2 -66q0 -45 15 -64q10 -13 26 -13q33 0 38 46
q1 14 1.5 34.5t1.5 34.5q0 69 -45 69z" />
    <glyph glyph-name="seven" unicode="7" horiz-adv-x="417" 
d="M40 701q3 0 20 -1.5t21 -1.5t30 1t31 1h60q3 0 27 1h27h28q18 -1 27 -1q4 0 27.5 1t28.5 1h13q1 0 7 1h6q20 0 15 -31v-42q0 -18 -11 -42l-2 -5q-19 -42 -27 -78q-5 -22 -15 -52q-12 -48 -30 -115q-8 -23 -21 -69q-3 -19 -10 -57q-6 -24 -16 -73q-7 -37 -7 -106
q0 -32 -39 -32q-2 0 -19 1h-19q-6 0 -43 -1t-44 -1q-18 0 -27 13t-9 27q0 6 12 57q7 30 19 89q5 24 12 47q6 12 15 36q4 13 11 39q9 30 25 71q6 11 10 29q5 10 13 30q1 6 4 16q5 20 20 47q1 3 3.5 9t3 8.5t2.5 10.5t2 9q0 10 -9.5 12t-54.5 2q-5 0 -35 -1t-36 -1q-2 0 -13 1
h-13q-1 0 -10 -1t-11 -1q-22 0 -22 37q0 2 1 17t1 18v14q-1 9 -1 13v12v8q-1 7 -1 8q0 25 23 25z" />
    <glyph glyph-name="eight" unicode="8" horiz-adv-x="500" 
d="M389 380q3 -4 8 -7.5t16.5 -14t30.5 -29.5q40 -43 40 -126q0 -36 -13 -76q-26 -79 -116 -112q-52 -19 -99 -19q-25 0 -41.5 2t-51.5 11q-7 3 -23 9q-64 21 -102 95q-15 29 -18 51q-3 16 -3 63q0 48 22 78q11 17 32 44q12 8 17 13q3 2 13 12q9 7 14 9q-8 5 -20 13l-12 9
q-21 15 -35 39l-4 7q-16 27 -16 81q0 49 20 82q0 1 11 16q3 7 12 21q24 30 80 47q49 14 100 14q68 0 104 -14q12 -4 30 -12q8 -5 42 -39q11 -11 20 -26q24 -39 24 -88q0 -6 -5 -34q-4 -23 -13 -43q-5 -12 -25 -42q-16 -20 -39 -34zM254 462q16 11 25 23q20 27 20 48
q0 19 -13.5 33.5t-34.5 14.5q-51 0 -51 -49q0 -44 54 -70zM248 297q-51 -37 -51 -91q0 -28 16 -44q10 -15 35 -15q50 0 50 68q0 22 -13 45q-14 27 -37 37z" />
    <glyph glyph-name="nine" unicode="9" horiz-adv-x="500" 
d="M152 1h-19q-3 1 -19 2.5t-19 1.5q-37 2 -37 39q0 4 1.5 28t1.5 29q0 3 -1 19t-1 18q0 17 26 17q2 0 19 -4q12 -3 29 -3q11 0 32 3q15 0 44 6q3 1 20 12q33 21 47 61q6 18 5 37q-46 -30 -93 -30q-21 0 -49 11q-20 8 -27 12q-11 6 -25 18q-28 25 -40 56q-19 46 -19 131
q0 99 41 163q54 84 191 84q37 0 87 -20q82 -33 108 -125q15 -54 15 -161q0 -92 -15 -164q-22 -107 -81 -159q-46 -41 -89 -58q-60 -24 -133 -24zM244 568q-34 0 -38 -47q-3 -62 -3 -68q0 -70 45 -70q32 0 37 42q2 16 2 64q0 23 -4 39q-10 40 -39 40z" />
    <glyph glyph-name="colon" unicode=":" horiz-adv-x="229" 
d="M29 460q0 24 13 30q8 4 35 3h44q40 1 45 1q14 0 22 -10.5t8 -17.5v-17v-10q-1 -6 -1 -9v-66q0 -51 -34 -51q-2 0 -18 1h-18t-23.5 -1t-24.5 -1q-50 0 -50 41q0 1 1 40t1 42v25zM26 110q0 36 4 47q8 21 57 21h75q31 0 34 -28v-53q0 -3 1 -24v-24q0 -23 -5 -31
q-11 -18 -32 -18h-59q-48 0 -57 5q-17 6 -17 29q0 2 1 14v15t-1 23t-1 24z" />
    <glyph glyph-name="semicolon" unicode=";" horiz-adv-x="229" 
d="M153 494q37 0 37 -34q0 -4 1 -31v-33q0 -2 1 -17v-17q0 -47 -37 -47q-8 0 -48.5 -1.5t-44.5 -1.5q-37 0 -37 39v24q-1 24 -1 28q-2 16 -2 54q0 31 31 35q8 1 69 1q2 0 15 1h16zM129 -85h-42q-1 0 -9 -1h-10q-18 0 -18 15q0 2 8 15.5t8 30.5q0 25 -13 25q-6 2 -17 7.5
t-11 16.5q0 2 1 11.5t1 11.5t-1 15t-1 16t1 18v18.5v14.5q-1 13 -1 15q0 35 37 35h20q4 0 30 1h31q31 0 42 -14q8 -10 7 -40v-14q1 -12 1 -14v-14q-1 -12 -1 -15v-30q0 -35 -17 -68q-6 -11 -17 -31q-15 -25 -29 -25z" />
    <glyph glyph-name="question" unicode="?" horiz-adv-x="333" 
d="M45 666q0 24 10 32q8 5 39 11q36 7 64 7q8 0 27.5 -2t28.5 -4q16 -4 29 -11q65 -37 65 -126q0 -35 -6 -62q-7 -33 -22 -60q-10 -18 -30 -55q-31 -59 -31 -142q0 -30 -27 -30q-2 0 -6 1h-7l-9 1t-17 1q-2 0 -14 -1t-14 -1q-27 0 -27 43q0 64 6 98q7 39 29 94q9 22 9 37
q0 17 -11.5 30.5t-28.5 13.5q-7 0 -13 -3q-21 -7 -18 -7q-18 0 -23 15q0 11 -2 25q0 3 1 21v20q0 4 -1 27t-1 27zM72 124q0 30 9.5 43t43.5 14h26q24 -1 28 -1q2 0 10 1h10q45 0 45 -38q0 -5 -1.5 -37.5t-1.5 -38.5q0 -2 1 -12v-12q0 -28 -21 -39q-7 -4 -47 -4q-3 0 -21 1
t-21 1h-11q-9 -1 -11 -1q-37 0 -37 38q0 3 1 17v17q0 3 -1 25t-1 26z" />
    <glyph glyph-name="A" unicode="A" horiz-adv-x="500" 
d="M46 298q5 30 15 89q2 17 7 53q5 25 16 76q5 40 18 118q11 51 23 63t45 12q15 0 46 -2t47 -2q14 0 37 1q28 1 38 1q28 0 38.5 -9t16.5 -37q14 -66 15 -77q5 -38 12 -90q14 -69 32 -165q5 -29 10 -82q6 -65 31 -175q3 -13 3 -30t-9 -29.5t-22 -12.5q-5 0 -33.5 1.5
t-34.5 1.5q-3 0 -25.5 -1.5t-26.5 -1.5q-33 0 -33 36q0 7 -4 44q-4 33 -15 38q-4 2 -64 2q-28 0 -34 -10t-9 -73q-2 -37 -34 -37q-3 0 -23.5 1.5t-24.5 1.5h-30q-26 -1 -31 -1q-22 0 -29 4q-12 8 -12 23q0 -8 23 138q2 12 7 35q6 40 14 96zM219 371q-6 -32 -6 -44
q0 -37 30 -37q42 0 39 34q0 19 -6 76q-3 16 -8 48l-5 37q-3 19 -12 19q-8 0 -12 -25q-2 -16 -9 -41q-3 -23 -11 -67z" />
    <glyph glyph-name="B" unicode="B" horiz-adv-x="521" 
d="M38 194v36v26q-1 22 -1 27q0 6 1.5 43t1.5 44q0 18 -1.5 52.5t-1.5 51.5q0 6 2 44t2 45q0 6 -2 43t-2 44q0 34 12.5 46.5t44.5 12.5q3 0 21.5 -1t21.5 -1q9 0 26 1t25 1q4 0 27 -1t28 -1h37q2 0 18.5 1t19.5 1q21 0 51 -6t45 -15q9 -6 29 -27q12 -12 17 -19q8 -12 13 -29
q1 -3 8 -32t7 -32v-19q-1 -17 -1 -20v-14q0 -20 -13 -46q-16 -33 -44 -55q-16 -12 -16 -15t9 -8q2 -1 13 -9q58 -41 67 -115q4 -31 4 -51q0 -17 -2.5 -28t-12.5 -35q-4 -13 -15 -40q-22 -43 -77 -70q-43 -21 -99 -21h-173q-4 0 -26 -1t-26 -1q-39 0 -39 41q0 2 1.5 15
t1.5 20q1 25 1 36q0 5 -1.5 39.5t-1.5 41.5zM247 571q-38 0 -38 -40q0 -38 5 -50q10 -24 40 -24q55 0 55 58q0 21 -9 34q-15 22 -53 22zM254 293q-30 0 -39 -21q-3 -5 -3 -23v-20q-1 -17 -1 -20q0 -26 4 -34q10 -19 44 -19q20 0 36 14q21 18 21 53t-20 54q-18 16 -42 16z
" />
    <glyph glyph-name="C" unicode="C" horiz-adv-x="375" 
d="M10 371q0 58 14 126q20 98 74 143q37 31 73 50q47 25 126 25q39 0 48 -5q16 -9 16 -32q0 2 -1 -16t-1 -39q0 -5 1 -39v-40q0 -34 -33 -34q-6 0 -14 2q-21 3 -19 3q-7 0 -27.5 -7.5t-27.5 -13.5q-26 -21 -34 -67q-7 -38 -7 -83q0 -79 32 -118q12 -15 37 -28t39 -13
q2 0 13 2t14 2q6 0 12 -4q14 -9 14 -33q0 -3 -1 -24t-1 -25q0 -11 1 -34t1 -34q0 -42 -39 -42q-7 0 -17 1q-13 1 -18 1q-25 0 -60 3q-9 3 -27 8q-29 7 -45 17q-33 20 -70 66q-11 13 -30 44q-24 51 -30 77q-4 19 -8 78q-5 75 -5 83z" />
    <glyph glyph-name="D" unicode="D" horiz-adv-x="521" 
d="M153 705q6 0 44.5 1.5t45.5 1.5q80 0 124 -26q72 -42 105.5 -123.5t33.5 -213.5q0 -56 -14 -114q-15 -63 -42 -108q-46 -77 -113 -104q-41 -16 -107 -16q-4 0 -26.5 1.5t-27.5 1.5t-37.5 -2.5t-38.5 -2.5q-30 0 -42 6q-20 9 -20 40q0 12 2 46q0 2 1.5 24t1.5 27
q0 9 -2 56q-3 70 -3 101q0 5 1 34.5t1 35.5q0 7 -1.5 49.5t-1.5 50.5q0 7 1 47t1 48q0 6 -1.5 41t-1.5 42q0 57 44 57h36q31 -1 37 -1zM247 536q-34 0 -34 -48q0 -2 1 -31q2 -58 2 -73v-35q-1 -29 -1 -35q0 -26 3 -50v-21q-1 -18 -1 -22q0 -23 3 -34q7 -24 32 -24
q41 0 49 58q14 96 14 123q0 19 -4 68q-10 124 -64 124z" />
    <glyph glyph-name="E" unicode="E" horiz-adv-x="437" 
d="M322 707h21q3 0 16 1h16q30 0 30 -31q0 -4 -1.5 -27t-1.5 -28q0 -2 1 -16v-18q0 -37 -36 -40h-17q-2 0 -15 -1t-16 -1t-20.5 1.5t-21.5 1.5q-44 0 -55 -17q-4 -6 -4 -37q0 -49 35 -49q2 0 14.5 1t15.5 1t20 -1t21 -1q2 0 16 1h16q39 0 39 -40q0 -3 -1 -20.5t-1 -21.5
q0 -3 1 -20.5t1 -21.5q0 -11 -3 -18q-10 -23 -40 -23q-5 0 -40 2t-41 2q-36 0 -47 -19q-5 -9 -5 -52q0 -38 25 -45q11 -3 40 -3l50 -5q7 0 21.5 1.5t21.5 1.5q37 0 37 -36q0 -8 -1 -23.5t-1 -23.5q0 -3 1 -21v-22q0 -40 -36 -40q-2 0 -17 1t-18 1h-17q-14 -1 -17 -1
q-10 0 -31 1t-32 1h-18q-15 -1 -18 -1q-2 0 -17 1h-17q-17 0 -50 -1t-50 -1q-18 0 -29.5 11.5t-11.5 27.5v6q1 4 1 6q2 24 2 63v31q-1 27 -1 31t1.5 24t1.5 23v23q-1 20 -1 23q0 6 1 42v44q0 6 -1 47t-1 49q0 18 1 53.5t1 52.5v38q-1 32 -1 38q0 44 6 57q10 20 45 20
q5 0 30 -1q7 0 17 -1t12 -1h52q6 0 41.5 -1t42.5 -1q2 0 18.5 1t19.5 1z" />
    <glyph glyph-name="F" unicode="F" horiz-adv-x="375" 
d="M100 707h17q7 0 48 1h50h26q22 -1 26 -1q6 0 41 1h40q20 0 25 -12q3 -7 3 -28v-101q0 -28 -33 -28q-2 0 -14.5 1t-15.5 1h-14q-11 -1 -14 -1q-2 0 -20 1h-21q-25 0 -29 -19v-25v-16q-1 -13 -1 -16q0 -20 14 -27q6 -4 42 -4h16q13 -1 16 -1q2 0 13 1h13q32 0 32 -30
q0 -2 -1 -14t-1 -15v-20q0 -41 -2 -56q-4 -31 -41 -31q-4 0 -28.5 2t-29.5 2q-40 0 -40 -40v-52q0 -3 1 -25v-25q0 -3 -1 -21.5t-1 -22.5q0 -3 2 -22.5t2 -23.5q0 -39 -36 -39q-4 0 -29 1t-30 1q-4 0 -26.5 -1t-26.5 -1q-36 0 -36 33v11q3 22 3 67q0 10 -1 71.5t-1 73.5
q0 25 1 47q1 32 3 85q0 8 -1.5 55.5t-1.5 56.5q0 7 1 48.5t1 49.5q0 4 -1 27.5t-1 28.5q0 27 13 41q10 11 49 11z" />
    <glyph glyph-name="G" unicode="G" horiz-adv-x="521" 
d="M13 352q0 17 9 89q1 15 6 46q5 27 25 68q16 36 27 50q32 44 83 73q69 40 200 40q5 0 38 -1t39 -1q33 0 33 -33v-13q-1 -11 -1 -14v-70q0 -28 -2 -34q-9 -26 -37 -26q-7 0 -13.5 3t-18 8t-34.5 5q-5 0 -14 1h-15q-83 0 -110 -56q-8 -15 -11 -45q-2 -8 -4 -24
q-8 -48 -8 -68q0 -3 1 -25v-25q0 -19 6 -34t18 -43q23 -59 72 -59q36 0 36 23q0 3 -1 15t-1 14q0 3 1 19t1 19q0 17 -13 27q-9 7 -19 7q-1 0 -8.5 -1.5t-9.5 -1.5q-6 0 -14 6q-11 8 -11 21q0 3 1.5 54.5t1.5 52.5q3 33 44 33q4 0 26.5 -1t26.5 -1q7 0 32 1h30q12 3 28 3
q10 0 19 -4q22 -10 25 -38v-28q-1 -23 -1 -28v-54q0 -4 -1 -32t-1 -33t1 -36.5t1 -37.5v-39q-1 -33 -1 -39v-28q0 -31 -22 -45q-31 -20 -134 -20q-54 1 -62 1q-40 1 -95 22q-39 15 -59 33q-14 12 -38 45q-6 8 -18 25q-25 36 -37 81q-17 64 -17 153z" />
    <glyph glyph-name="H" unicode="H" horiz-adv-x="521" 
d="M38 112v28q0 4 1 28.5t1 29.5q0 8 -2 58t-2 60q0 6 2 47t2 49q0 7 -2 42t-2 88q0 5 1 33.5t1 33.5q0 4 -1.5 31.5t-1.5 32.5q0 32 33 32q9 0 28 -1t28 -1q20 0 30 1q20 2 27 2q36 0 36 -35q0 -4 -2.5 -27.5t-2.5 -27.5t1 -31.5t1 -32.5v-35q-1 -30 -1 -36q0 -24 14 -32
q10 -5 35 -5q37 0 41 28q4 25 4 51q0 4 -1.5 30t-1.5 31q0 7 1 20v19v7q-3 18 -3 43q0 33 36 33q11 0 16 -1q30 -2 44 -2q2 0 10.5 1t13.5 1q12 1 24 1q10 0 24 -6t14 -15q2 -4 2 -25q0 -6 -1 -17.5t-1 -16.5q-2 -54 -2 -69q0 -2 1 -13v-14t-1.5 -25.5t-1.5 -26.5
q0 -6 1 -43t1 -44t-1 -52t-1 -53q0 -30 1 -47q4 -70 4 -59v-18v-31q-1 -26 -1 -31v-16q4 -24 4 -43q0 -41 -34 -41q3 0 -13 1q-26 2 -32 2t-36 -2t-34 -2q-33 0 -33 36q0 13 4 41v14q-1 12 -1 15q0 40 1 61q2 42 2 41q0 49 -25 58q-6 2 -34 2q-32 0 -35 -32q-4 -37 -4 -53
q0 -4 1 -29.5t1 -30.5q0 -4 -1 -30t-1 -31q0 -2 1 -16t1 -17q0 -13 -9.5 -21.5t-20.5 -8.5q-7 0 -11 1q-13 2 -40 2h-15q-11 0 -24 -1q-5 0 -14 -1t-11 -1q-38 0 -38 41q0 5 2.5 36t2.5 37z" />
    <glyph glyph-name="I" unicode="I" horiz-adv-x="250" 
d="M216 342v-49q0 -7 2 -51.5t2 -53.5q0 -5 -1.5 -37.5t-1.5 -38.5t2 -41.5t2 -42.5q0 -26 -31 -26q-3 0 -20.5 1t-21.5 1q-5 0 -34 -1.5t-34 -1.5h-6q-32 0 -37 22q-1 4 -1 65q0 4 1.5 31t1.5 32v73q0 7 -1.5 51t-1.5 52v125q0 7 1.5 52.5t1.5 54.5v68q0 4 -1.5 24.5
t-1.5 23.5q0 20 16 29q5 3 30 3h31q26 -1 31 -1q22 0 36 1t17 1q24 0 24 -37q0 -4 -1.5 -27.5t-1.5 -27.5q-1 -33 -1 -138q0 -5 1 -37v-38q0 -4 -1 -30t-1 -31z" />
    <glyph glyph-name="J" unicode="J" horiz-adv-x="313" 
d="M11 142v11q0 30 25 30q2 0 10.5 -1t9.5 -1q19 0 31 15q10 12 10 44q0 -3 -1 49t-1 136q0 28 1 53q3 75 3 71q0 12 -1 36q0 3 -3 41q-2 34 -2 42q0 24 7.5 33t30.5 8q1 0 30 -1q25 -1 31 -1q4 0 28.5 1t29.5 1q29 0 29 -28q0 -5 -2 -30t-2 -42q0 -29 3 -56v-25
q-1 -22 -1 -26t1 -30v-30q0 -4 -2 -40v-87q0 -4 1 -33t1 -34q0 -6 -1.5 -40t-1.5 -40v-42q0 -33 -17 -60q-20 -32 -61 -53q-27 -14 -91 -14h-13q-8 1 -13 1q-2 0 -15 -1t-16 -1q-38 0 -38 43q0 4 1 30v31q0 32 -1 40z" />
    <glyph glyph-name="K" unicode="K" horiz-adv-x="500" 
d="M40 311v61q0 6 -1.5 46t-1.5 48q0 7 1.5 51.5t1.5 52.5q0 29 -2 62t-2 37q0 38 24 38h34q29 -1 35 -1q4 0 27.5 1t27.5 1q18 0 24 -4q10 -5 10 -25q0 -4 -1.5 -26t-1.5 -26q0 -3 1 -25v-24.5v-19.5q-1 -17 -1 -20q0 -18 5 -18q7 0 10 10q8 19 19 45q8 15 21 46
q6 14 19 43q5 12 8 20q9 26 32 26q10 0 31 -2t31 -2q5 0 36.5 1.5t37.5 1.5q23 0 23 -20q0 -12 -13 -38q-7 -13 -27 -57q-11 -27 -29 -59q-6 -10 -18 -31q-11 -25 -28 -60q-16 -31 -16 -40q0 -8 6 -21q26 -57 34 -81q4 -12 12 -38q16 -36 22 -54q20 -55 32 -83q4 -16 25 -62
q11 -24 11 -37q0 -24 -26 -24h-28q-2 0 -20 1h-20q-5 0 -34 -1t-35 -1q-26 0 -35 36q-5 19 -57 171q-12 35 -19 35t-7 -29v-78q0 -33 2 -57q3 -37 3 -41q0 -16 -3 -25q-7 -13 -35 -13q-3 0 -24 1h-24.5h-21.5q-18 -1 -21 -1t-15 -1t-15 -1q-27 0 -27 24q0 5 2 37.5t2 38.5
q0 5 -1 35.5t-1 36.5q0 5 1 38t1 40v30q-1 20 -1 31z" />
    <glyph glyph-name="L" unicode="L" horiz-adv-x="396" 
d="M38 664q0 45 34 45q3 0 25.5 -1.5t27.5 -1.5q9 0 28 1t28 1q40 0 40 -29v-8q-1 -6 -1 -9q-5 -33 -5 -92q0 -5 1 -34.5t1 -35.5q0 -4 -1 -28.5t-1 -29.5q0 -4 1.5 -27t1.5 -28q0 6 -1 -25t-1 -54q0 -3 1 -24t1 -25v-13q-1 -12 -1 -14q0 -52 44 -57q8 -1 45 -1q2 0 17 1
t18 1q28 0 35 -20q5 -14 5 -71q0 -4 -1 -27t-1 -28q0 -21 -16 -27q-6 -3 -18 -3q-3 0 -20.5 1t-20.5 1q-10 1 -46 0h-127q-4 0 -28.5 -1t-29.5 -1q-39 0 -39 34q0 3 1 18v17q0 13 1 38.5t1 37.5l-1.5 50t-1.5 60q0 26 4 62q1 9 1 23q0 4 -1 32t-1 33q0 4 1 26v25v28
q-1 18 -1 27q0 5 1 37t1 38v39q-1 26 -1 39z" />
    <glyph glyph-name="M" unicode="M" horiz-adv-x="646" 
d="M214 151v-35q0 -31 1 -55l1 -24q0 -36 -34 -36q-3 0 -22 1h-23q-31 0 -42.5 -1t-22.5 -1q-36 0 -36 33q0 5 1.5 28.5t1.5 25.5q1 23 1 52q0 9 -1.5 64.5t-1.5 66.5q0 9 1.5 66.5t1.5 68.5q0 8 -1 60t-1 62q0 4 1 30t1 31q0 10 -2 30t-2 30q-1 5 -1 32q0 29 36 29
q5 0 39 -1t41 -1q2 0 16 1t17 1q28 0 42 -39q10 -28 36 -76q13 -21 35 -64q20 -47 30 -47q6 0 20 29t34 69q7 19 23 57l18 36q8 16 11 21q6 9 14.5 12t33.5 3l25 -1l25 -1q45 0 48 1t7 2h5q23 0 23 -26q0 -8 -2 -35q-4 -53 -4 -69q0 -5 1 -34v-35q0 -12 -1 -85.5t-1 -87.5
q0 -8 1 -53t1 -54q0 -8 -1.5 -57t-1.5 -59q0 -5 2 -35t2 -36q0 -24 -3 -32q-5 -12 -21 -12q-12 0 -17 1q-38 2 -56 2q-9 0 -26 -1t-26 -1q-16 0 -24 6q-13 9 -13 28q0 12 2 26.5t2 32.5v51v12q-1 8 -1 13q0 2 2 19t2 21t-1.5 30t-1.5 31q0 2 1 15v14v9q-1 6 -1 7q0 9 -4 9
t-8.5 -7.5t-13.5 -34.5q-14 -34 -34 -80q-15 -35 -32 -35q-21 0 -30 13q-15 27 -37 65q-5 7 -11 18q-8 18 -16 35q-15 29 -20 29q-4 0 -4 -15q0 -6 -1.5 -42.5t-1.5 -43.5q0 -5 1 -20v-20q0 -16 -2 -37z" />
    <glyph glyph-name="N" unicode="N" horiz-adv-x="542" 
d="M38 172v31v27q-1 22 -1 26q0 37 2 74t2 42q0 -7 -2 39q-1 23 -1 63t1 60.5t1 44.5q0 7 -1.5 49.5t-1.5 50.5q0 28 28 28q4 0 10.5 -1t10 -1.5t38.5 -0.5q5 0 30.5 1.5t27.5 1.5q18 0 25 -14q14 -21 34 -73q2 -4 5 -13q0 -10 19 -44q10 -18 22 -50l9 -18q8 -18 27 -77
q5 -15 9 -15q5 0 5 39v11q-1 7 -1 10q-2 12 -2 18q0 3 1 21t1 22q0 8 -2.5 57.5t-2.5 59.5q0 38 4 46q10 20 37 20h8q6 -1 9 -1q17 -1 59 -1q3 0 16 1h16q10 0 13 -2q14 -7 14 -25v-6q-1 -4 -1 -7q-4 -20 -4 -71q0 -8 1.5 -57.5t1.5 -59.5q0 -22 -1.5 -66t-1.5 -66
q0 -8 2 -59.5t2 -61.5q0 -8 -2.5 -57t-2.5 -58q0 -7 2 -51q0 -2 1.5 -15.5t1.5 -16.5q0 -14 -13 -21q-5 -3 -24 -3q-4 0 -25 1t-25 1q-5 0 -34.5 -1t-34.5 -1q-19 0 -28 33q-5 17 -18 43q-15 30 -18.5 41t-10.5 31q-11 24 -33 74q-3 6 -15 42q-16 47 -20 47t-4 -9
q0 -3 3 -27q5 -40 5 -77q0 -14 -1.5 -43t-1.5 -44q0 -6 2.5 -42t2.5 -43q0 -28 -30 -28q-5 0 -36.5 1t-37.5 1q-12 0 -36 -2q-4 -1 -13 -1q-27 0 -27 32q0 11 3.5 61.5t3.5 51.5q0 19 -2 27z" />
    <glyph glyph-name="O" unicode="O" horiz-adv-x="521" 
d="M26 403q0 127 19.5 184.5t77.5 96.5q26 17 45 23q31 8 95 8q48 0 78 -11q24 -9 60 -35q26 -19 34 -28q54 -61 54 -229v-34q-1 -26 -1 -35q-1 -102 -11 -160q-15 -88 -46 -125q-34 -41 -85 -57q-38 -12 -79 -12q-150 0 -202 91q-19 33 -30 84q-8 38 -8 92q0 5 1 36v37
q0 5 -1 36.5t-1 37.5zM257 545q-49 0 -49 -81q0 -5 1 -35t1 -36q0 -10 -1.5 -70.5t-1.5 -72.5q0 -92 47 -92q44 0 47 58v43q0 5 2 39.5t2 41.5v27q-1 18 -1 27q0 2 1 19v19q0 24 -4 63q-5 50 -44 50z" />
    <glyph glyph-name="P" unicode="P" horiz-adv-x="500" 
d="M297 177h-41q-24 0 -32 -7q-12 -12 -12 -31v-9q1 -6 1 -8q0 -21 2 -62q2 -28 2 -25q0 -33 -32 -33q-5 0 -31.5 1.5t-30.5 1.5q-9 -1 -40 -3q-8 -2 -21 -2q-28 0 -28 39q0 5 1 15t1 14v13q-1 10 -1 12q0 -4 2 24q2 10 2 33q0 6 -1 43.5t-1 45.5q0 6 1 46v47v46
q-1 30 -1 45q0 17 1 51.5t1 52.5q0 9 -2 67.5t-2 69.5q0 19 19 38q11 7 35 7h21q17 -1 21 -1q9 0 25 1t24 1q3 0 20 -1t21 -1q3 0 24.5 1t25.5 1q88 0 142 -40q32 -24 48 -59q9 -20 20 -56q12 -39 12 -81q0 -31 -7 -99q-3 -27 -8 -45q-9 -30 -30 -61q-63 -92 -151 -92z
M216 439v-26q0 -31 16 -47q12 -12 25 -12q22 0 35 19q12 16 12 39v15q-1 12 -1 15t1 16v16q0 35 -18 54q-13 14 -30 14q-37 0 -40 -58v-45z" />
    <glyph glyph-name="Q" unicode="Q" horiz-adv-x="521" 
d="M519 62v-39q0 -1 1 -8v-8q0 -8 -17 -8q-52 0 -104 31q-37 -29 -78 -35q-34 -5 -58 -5q-88 0 -147 46q-26 20 -44 55q-34 66 -39 134q-9 133 -9 123q0 12 3 60q1 44 8 133q9 59 46 111q34 48 97 59q45 8 64 8q69 0 105 -9q50 -13 82 -51q43 -50 53 -134q1 -8 3 -104
q0 -5 2 -43t2 -46q0 -3 -1.5 -22.5t-1.5 -22.5q0 -19 -2 -56q-2 -27 -18 -78q13 -7 27 -7q28 -1 28 -11v-9q-1 -8 -1 -10v-5v-24q-1 -21 -1 -25zM208 312v-61q0 -89 45 -89q8 0 12 1q-25 25 -25 37q0 8 11.5 24.5t23.5 16.5q11 0 26 -24q6 14 6 25q0 7 -1 52t-1 54
q0 19 1.5 56t1.5 56q0 49 -16 71q-17 17 -33 17q-24 0 -38 -25q-16 -29 -16 -126q0 -6 1.5 -42t1.5 -43z" />
    <glyph glyph-name="R" unicode="R" horiz-adv-x="521" 
d="M158 708q9 0 63 1.5t64 1.5q92 0 143 -42q34 -29 58 -89q15 -38 15 -129q0 -76 -30 -134q-19 -36 -46 -59q-15 -13 -15 -21q0 -9 21 -48q25 -46 25 -47q3 -6 10 -26l12 -24q30 -56 30 -68q0 -21 -25 -21q-4 0 -26 1t-26 1q-27 0 -63 -2q-18 -1 -19 -1q-22 0 -30.5 17.5
t-20.5 42.5t-34 74t-33 49q-14 0 -14 -23q0 -3 1 -26.5t1 -28.5v-20q-1 -17 -1 -21q0 -2 1 -19.5t1 -20.5q0 -25 -24 -25h-6q-3 1 -5 1q-22 2 -47 2q-4 0 -34.5 -2t-35.5 -2q-32 0 -32 34q0 7 1 10q4 67 4 97q0 10 -2 68.5t-2 69.5q0 9 1.5 67.5t1.5 69.5q0 6 -1 44t-1 45
t1 48t1 49q0 5 -1 29.5t-1 28.5q0 49 54 49h32q28 -1 34 -1zM257 544q-40 0 -40 -51q0 -4 -1 -33.5t-1 -35.5q0 -18 11 -31q11 -16 31 -16q39 0 48 37q4 17 4 58q0 30 -14 51t-38 21z" />
    <glyph glyph-name="S" unicode="S" horiz-adv-x="417" 
d="M23 503q0 70 17 109q25 58 75 81t122 23q76 0 101 -5q38 -9 38 -38l-1 -31.5t-1 -38.5q0 -2 1 -17v-18q0 -38 -38 -38h-7l-40 11q-15 4 -35 4q-44 0 -44 -36q0 -19 13 -35q9 -12 46 -45q13 -13 37 -35q53 -46 73 -81q27 -45 27 -105q0 -91 -27 -132q-37 -57 -107 -75
q-41 -11 -111 -11q-97 0 -129 23q-17 12 -17 31q0 4 1.5 31t1.5 32q0 3 -1 22t-1 23q0 45 36 45q25 0 39 -12q6 -5 19.5 -15t46.5 -10q59 0 59 37q0 20 -28 49q-21 19 -40.5 38.5t-46.5 44.5q-45 41 -62 77.5t-17 96.5z" />
    <glyph glyph-name="T" unicode="T" horiz-adv-x="396" 
d="M292 385q0 -8 -1 -53.5t-1 -54.5q0 -6 1 -46.5t1 -48.5v-34q-1 -29 -1 -34v-25q4 -32 4 -53q0 -34 -37 -34q-12 0 -18 1q-23 1 -47 1h-29q-21 -1 -23 -1q-14 0 -20 4q-14 9 -14 32q0 6 2.5 45.5t2.5 47.5q0 6 -1.5 41.5t-1.5 42.5t2.5 48.5t2.5 49.5q0 5 -2 39t-2 41
q0 15 1.5 43t1.5 42q0 50 -42 50h-27q-32 0 -32 30v7q0 8 1 29v30v23q-1 20 -1 24q0 34 34 34q10 0 31 -1t31 -1q8 0 55.5 1.5t56.5 1.5q6 0 39.5 -1t40.5 -1q4 0 25 1t25 1q21 0 30 -18q5 -7 5 -36v-27q-1 -23 -1 -27q0 -2 1 -17v-18q0 -34 -31 -34q-1 0 -15 1h-17
q-33 0 -33 -54q0 -6 1.5 -45.5t1.5 -46.5z" />
    <glyph glyph-name="U" unicode="U" horiz-adv-x="521" 
d="M38 642q0 33 3 43q7 21 32 21q4 0 31.5 -1.5t32.5 -1.5q10 0 17 1h16q30 0 39 -6q13 -8 13 -25q0 -7 -1 -11q-3 -36 -3 -80q0 -3 1 -23v-23v-20q-1 -16 -1 -19v-40q0 -6 -1.5 -45.5t-1.5 -47.5q0 -4 1 -30v-31v-37q-1 -24 -1 -37q0 -37 7 -49q12 -21 34 -21q14 0 27 8
q24 15 24 79v23q-1 19 -1 22q0 12 1 38v38q0 9 -2 64t-2 66q0 7 1.5 49.5t1.5 50.5v20q-1 14 -1 20q0 46 9.5 57.5t25.5 11.5q4 0 32 -1.5t34 -1.5q1 0 26 1l25 1q32 0 32 -38q0 -11 -1 -17q-4 -70 -4 -101q0 -13 1 -30q0 -2 1.5 -23.5t1.5 -26.5q0 -16 -2 -48.5t-2 -48.5
q0 -8 1.5 -61.5t1.5 -63.5q0 12 -3 -57q0 -14 -2 -42q-4 -40 -25 -72q-24 -36 -70 -60q-33 -17 -62 -22q-24 -4 -82 -4q-69 0 -132 37q-43 25 -59 65q-14 35 -14 99q0 8 1.5 54t1.5 55q0 11 -2 76.5t-2 77.5q0 6 1.5 45t1.5 46t-1 48t-1 49z" />
    <glyph glyph-name="V" unicode="V" horiz-adv-x="479" 
d="M32 705h34q7 0 46 1h47q25 0 26.5 -29.5t7.5 -85.5q4 -25 10 -96q2 -54 13 -119q4 -41 10 -96q3 -25 11 -25q5 0 7 10q4 48 10 103q2 13 6.5 37.5t7.5 95.5q2 47 12 88q7 60 7 82q0 13 3 19q17 17 24 17q5 0 8 -1l23.5 -1t35.5 -1q3 0 24 1h25q1 0 12 1h12q25 0 25 -23
q0 -16 -4 -33q-3 -12 -9 -34q-11 -50 -11 -90q-2 -10 -5 -29q0 -24 -14 -81q-5 -28 -14 -85l-9 -51q-6 -40 -22 -119q-7 -23 -21 -90q-7 -40 -14 -52q-10 -18 -35 -18h-174q-19 0 -26 13q-3 4 -10 29q-10 37 -28 138q-9 43 -21 103q-8 42 -12 67q-2 14 -6 41q-10 45 -25 136
q-7 52 -15 91q-6 28 -6 48q0 39 26 39q5 0 8 -1z" />
    <glyph glyph-name="W" unicode="W" horiz-adv-x="750" 
d="M227 0h-42q-29 0 -39 14q-6 9 -12.5 43t-14.5 81q-17 61 -45 184q-4 25 -15 74q-7 22 -20 65q-37 193 -37 217q0 22 16 29q5 2 26 2q5 0 32.5 -1.5t32.5 -1.5q1 0 8 1h11q7 1 18 1q12 0 20 -5q16 -10 23 -59q8 -54 19 -102q9 -30 25 -89q4 -15 22 -101q4 -19 9 -19t8 11
l11 46q8 33 20 78q-7 25 -19 76q-12 65 -21 103q-4 18 -4 29q0 32 37 32q4 0 31.5 -1.5t32.5 -1.5l24 1l24 1q24 0 32 -15q6 -10 7 -37q1 -34 7 -67t18 -101q9 -50 12 -90l6 -54q1 -15 8 -17q7 0 10 21q1 8 5 33q6 30 17 90q5 41 18 121q3 13 7 61q1 30 5 40q8 17 30 17
q20 0 31 -1q2 0 33 -3q-1 0 21 1l22 1q52 0 52 -29q0 -8 -2 -17q-11 -47 -25 -114q-9 -61 -18 -103q-2 -11 -25 -91q-19 -69 -28 -117q-1 -10 -6 -29.5t-12 -43.5q-12 -48 -29 -114q-11 -32 -16 -38q-10 -13 -35 -13q-5 0 -35.5 1t-36.5 1q-18 0 -27 -1q-4 -1 -11 -1
q-24 0 -29 33q0 3 -7 29q-8 31 -15 69q-11 60 -23 60q-9 0 -15 -22q-18 -61 -40 -137q-8 -32 -32 -32q-4 0 -27 1t-28 1z" />
    <glyph glyph-name="X" unicode="X" horiz-adv-x="500" 
d="M5 687q0 22 30 22q10 0 30.5 -1.5t30.5 -1.5q11 0 34 1.5t35 1.5q24 0 31 -19q2 -9 7 -25q15 -29 33 -70q5 -14 10 -14q2 0 6 6l10 30q11 26 25 61q9 29 32 29l22 -1l22 -1q6 0 44.5 1.5t46.5 1.5q26 0 26 -17q0 -13 -10 -34q-17 -36 -25 -55q-16 -43 -51 -128
q-10 -20 -28 -60q-18 -31 -18 -44q0 -10 10 -30q21 -47 51 -110q9 -17 27 -68.5t40 -89.5q7 -10 17 -32q3 -15 3 -16q0 -26 -25 -26q-3 0 -15 1q-15 1 -24 1q-33 1 -39 1q-4 0 -30 -1t-31 -1q-14 0 -18.5 6.5t-18.5 39t-33 76.5q-5 13 -12 13q-4 0 -11 -15q-22 -45 -35 -86
q-10 -31 -37 -31q-4 0 -29 1h-30q-37 0 -43 -1h-17q-15 -1 -24 -1q-21 0 -21 23q0 13 13 36q5 10 26 56q12 23 34 69q9 24 29 73q8 18 25 53q18 39 18 43q0 7 -6 19q-32 63 -44 94q-5 13 -15 41q-9 21 -33 70q-12 27 -28.5 63t-16.5 46z" />
    <glyph glyph-name="Y" unicode="Y" horiz-adv-x="479" 
d="M219 0l-34 -1q-35 -1 -35 33v52v14q-1 12 -1 14q0 3 1.5 23.5t1.5 24.5q0 7 -1 21.5t-1 21.5v28q0 8 -2 25q-1 10 -25 85q-16 51 -46 118q-9 20 -29 75q-19 64 -34.5 102.5t-15.5 44.5q0 3 2 9q6 17 27 17q3 0 25.5 -1t26.5 -1q5 0 35.5 1t36.5 1q18 0 27 -11
q12 -14 23 -66l9 -45q9 -33 22 -79q7 -28 10 -28q4 0 9 13q6 41 19 76q9 23 18 71q8 41 12 50q11 20 40 20q10 0 28 -1t27 -1q3 0 21 1h22q19 0 26 -4q15 -9 15 -25q0 -12 -8 -40q-23 -79 -49 -147q-3 -8 -9 -23q-16 -46 -52 -137q-33 -75 -33 -109q0 -6 1 -19v-19
q0 -5 -1.5 -34.5t-1.5 -35.5q0 -5 1 -34.5t1 -35.5q0 -40 -26 -43h-40q-9 0 -43 -1z" />
    <glyph glyph-name="Z" unicode="Z" horiz-adv-x="437" 
d="M120 537h-33h-7q-6 -1 -7 -1q-12 0 -21.5 10t-9.5 20q0 2 1 11v10t1 12v13v21q-1 13 -1 20q0 29 2 34q9 21 47 21h56q49 -1 58 -1q4 0 26 1h27q4 0 29 -1t30 -1h18q4 0 25 1h24q36 0 38 -28t2 -83q0 -19 -30 -83q-4 -11 -12 -31q-11 -26 -43 -81q-29 -51 -41 -81
q-14 -34 -38 -78.5t-24 -59.5q0 -14 15 -14q13 0 32 1q57 3 101 3q40 0 40 -31v-23q-1 -19 -1 -23t1 -27v-27q0 -15 -4 -27q-15 -15 -26 -15q-5 1 -21 2q-22 2 -36 2q-4 0 -28 -1t-29 -1q-9 0 -28 1h-28h-22q-19 -1 -23 -1q-3 0 -26 1h-27h-28q-6 0 -24 -1t-25 -1
q-40 0 -40 42v37q-1 31 -1 36q0 15 15 41q19 32 47 94q10 22 42 84q9 16 25 49q9 21 23 45q38 66 38 91q0 14 -10 18l-20 1h-24q-21 -1 -25 -1z" />
    <glyph glyph-name="bracketleft" unicode="[" horiz-adv-x="271" 
d="M26 646q0 15 2 36q7 25 45 25q11 0 33 -2.5t33 -2.5q6 0 10.5 0.5t36 3t37.5 2.5q35 0 35 -31l-3 -24v-10q-1 -6 -1 -9t1.5 -24t1.5 -25q0 -7 -3 -20q-2 -18 -20 -18q-1 0 -11 1h-11q-20 0 -20 -9q0 -4 1 -6v-8v-34q0 -4 -1.5 -28t-1.5 -29q0 -6 1.5 -42t1.5 -43
q0 -4 -1.5 -30t-1.5 -31q0 -20 2.5 -59t2.5 -59v-21q-1 -18 -1 -22q0 -1 1 -10v-11q0 2 -1 -10q0 -10 10 -10q1 0 9 1h8q34 0 34 -27q0 -2 -1 -13t-1 -13q0 -5 1 -34t1 -34q0 -21 -4 -28q-9 -15 -26 -15q-3 0 -6 0.5t-30 2t-32 1.5q-6 0 -41 -2.5t-42 -2.5h-14l-7 1
q-31 4 -31 32q0 4 2 16q6 36 6 124q0 5 -1 38t-1 39q0 5 1 37t1 38q0 8 -1.5 57t-1.5 59q0 5 1 35v34v24q-1 20 -1 23q0 6 1.5 40.5t1.5 41.5q0 6 -2 42t-2 43z" />
    <glyph glyph-name="bracketright" unicode="]" horiz-adv-x="271" 
d="M16 594v41q-2 16 -2 24q0 23 2 29q10 19 32 19q11 0 32 -2t32 -2q10 0 30.5 2.5t30.5 2.5h36q38 0 38 -30q0 3 -3 -41q-4 -59 -4 -105q0 -6 1 -40.5t1 -41.5q0 -5 -1 -33.5t-1 -33.5q0 -8 1.5 -55.5t1.5 -56.5v-30q-1 -25 -1 -30v-57q0 -6 -1 -42.5t-1 -43.5
q0 -5 2 -39.5t2 -41.5q0 -35 -6 -45q-8 -17 -39 -17l-23 2t-48 2h-6q-8 0 -79 -6q-31 0 -31 28q0 3 2 25t2 26q0 3 -1.5 21t-1.5 22q0 26 5.5 32.5t18.5 6.5h13q8 -1 12 -1q17 0 17 9q0 2 -1 8t-1 7v41q0 4 1.5 27.5t1.5 27.5q0 1 -1 14t-1 15v52q0 4 1 30t1 31q0 6 -2.5 45
t-2.5 47v74q0 2 1 10v9q0 16 -11 14h-22q-28 0 -28 27q0 1 1 11v12z" />
    <glyph glyph-name="underscore" unicode="_" horiz-adv-x="500" 
d="M510 -75v-50h-520v50h520z" />
    <glyph glyph-name="grave" unicode="`" horiz-adv-x="271" 
d="M174 590h-6q-2 0 -13.5 -1t-14.5 -1q-10 0 -24 15q-34 36 -44 46q-34 33 -34 41q0 13 27 13h24q21 -1 25 -1q23 0 33 1q14 2 28 3q19 0 30 -33q5 -15 22 -55q5 -8 5 -15q0 -14 -21 -14q-2 0 -18 1h-19z" />
    <glyph glyph-name="a" unicode="a" horiz-adv-x="437" 
d="M178 354h5q4 0 27 -2t25 -2q20 0 20 20q0 34 -48 36q-1 0 -16.5 1t-18.5 1q-27 0 -58 -12t-38 -12q-29 0 -29 40q0 2 1 19v19t-1 20.5t-1 20.5q0 25 36 33q91 20 140 20q53 0 100 -17q44 -16 63 -39q22 -26 22 -99q0 -5 -1 -33.5t-1 -34.5q0 -4 1 -27t1 -28v-19
q-1 -16 -1 -19q0 -5 1 -34v-34q0 -5 -1.5 -39t-1.5 -40q0 -4 1.5 -30.5t1.5 -31.5q0 -28 -27 -28q-3 0 -24 1h-24t-26 -1.5t-26 -1.5q-10 0 -15 9q-1 2 -2 5.5t-2.5 6t-5.5 2.5q-2 0 -10 -7q-25 -22 -80 -22q-67 0 -108 42q-44 45 -44 116q0 86 17 116q23 40 56 57
q55 28 92 28zM219 234q-44 0 -44 -62q0 -50 38 -50q42 0 42 59q0 53 -36 53z" />
    <glyph glyph-name="b" unicode="b" 
d="M157 0h-48q-3 0 -23 -1h-23q-33 0 -33 30q0 4 1.5 32.5t1.5 34.5t-1.5 46t-1.5 48q0 16 1 46.5t1 45.5q0 7 -1 49t-1 50t1 54.5t1 55.5q0 7 -1.5 48t-1.5 49q0 4 1 26.5t1 26.5v14q-1 12 -1 14q0 17 6 25q9 12 35 12h93q30 0 30 -32q0 -24 -2 -34q0 -5 1 -36v-36
q0 -29 10 -29q1 0 11 5q24 12 58 12q64 0 108 -46q18 -19 34 -62q12 -34 12 -43q1 -12 4 -36q5 -42 5 -63q0 -3 -1.5 -25.5t-1.5 -27.5v-16q0 -93 -43 -165q-46 -77 -120 -77q-32 0 -64 17q-17 9 -19 9q-7 0 -7 -11t-12 -11h-5q-3 1 -5 1zM232 390q-32 0 -38 -65
q-3 -15 -3 -63q0 -95 39 -95q14 0 24 15q16 23 16 89q0 60 -8 89.5t-30 29.5z" />
    <glyph glyph-name="c" unicode="c" horiz-adv-x="313" 
d="M22 226q0 83 3 114q5 54 30 108q22 49 69.5 79.5t109.5 30.5q36 0 47 -4q17 -7 17 -31q0 -3 -1 -25.5t-1 -26.5q0 -2 1 -19v-21v-20q0 -32 -45 -32q-35 0 -49 -33q-10 -23 -10 -99q0 -37 19 -59q15 -19 36 -21q9 0 26 -2q21 -5 21 -25q0 -2 -1 -16.5t-1 -75.5q0 -1 1 -11
v-12q0 -17 -17 -26q-13 -6 -33 -5q-30 1 -77 5q-46 10 -73 35t-48 72q-24 54 -24 120z" />
    <glyph glyph-name="d" unicode="d" 
d="M383 3h-28q-32 0 -40 -1q-16 -2 -17 -2q-6 0 -13 3.5t-7 12t-6 8.5q-2 0 -10 -6q-13 -10 -39 -17q-45 -5 -43 -5q-11 0 -34 7q-30 9 -46 22q-58 48 -72 158q-4 31 -4 123q0 22 4 57q7 58 25.5 100.5t57.5 68.5t78 26q44 0 64 -18q8 -7 12 -7q6 0 6 10q0 2 1 11v11
q0 40 -3 72q-2 21 -2 32q0 34 28 36q5 1 28 1q7 0 20.5 1t20.5 1h11q7 -1 10 -1q33 0 26 2q7 1 14 -4q9 -9 9 -33q0 -8 -2 -24v-27q0 -7 -2 -30q-1 -11 -1 -40q0 -10 1 -29v-30v-23q0 -5 1 -38v-39v-33q-1 -22 -1 -34q0 -3 1 -26v-26q0 -8 -2 -55.5t-2 -56.5q0 -96 2 -116
q1 -4 1 -12q0 -20 -13 -29q-4 -3 -13 -3q-7 0 -21 2zM230 384q-44 0 -44 -102q0 -51 4 -72q8 -42 36 -42q21 0 30 29q2 4 7 27q7 28 7 42q0 6 -1 16t-1 13q0 17 -2 43q-9 46 -36 46z" />
    <glyph glyph-name="e" unicode="e" 
d="M431 59v-17q0 -26 -30 -34q-43 -12 -153 -12q-50 0 -102 16q-19 6 -37 21q-34 29 -44.5 41t-18.5 35q-17 47 -19 97q0 3 -2 28t-2 30q0 -1 2 45q0 32 7 96q9 43 40 80q53 64 162 64q104 0 156.5 -55.5t52.5 -146.5q0 -10 -1 -28t-1 -27v-23q0 -20 -2 -28q-20 -30 -39 -30
q-2 0 -15 1t-16 1q4 0 -22 -2t-50 -2q-10 0 -22 1q-2 0 -18 1.5t-18 1.5q-27 0 -33 -4.5t-6 -19.5q0 -21 6 -29q10 -17 44 -24q25 -5 31 -5h2q58 0 88 15q14 7 27 7q32 0 32 -45q0 -41 1 -49zM281 339v27q0 60 -40 60q-6 0 -14 -2.5t-22 -16.5q-13 -52 -13 -59q0 -28 20 -28
q2 0 17 1h16h9q7 -1 8 -1q19 0 19 19z" />
    <glyph glyph-name="f" unicode="f" horiz-adv-x="271" 
d="M266 453v-19q0 -23 1 -31q2 -16 2 -17q0 -26 -32 -28q-25 -2 -32 -18q-5 -10 -5 -43v-62q0 -6 2 -40.5t2 -41.5v-31q-1 -27 -1 -32q0 -3 1 -24t1 -25q0 -20 -4 -26q-9 -14 -24 -14q-5 0 -33 1t-33 1q-8 0 -22.5 -1t-22.5 -1q-12 0 -19 4q-11 8 -11 43q0 5 1.5 35t1.5 36
v22q-1 14 -1 22v136q0 2 1 11v11q0 33 -13 38q-5 1 -14.5 4.5t-9.5 32.5q0 3 1 22v21.5v23.5q-1 20 -1 24q0 18 4 24t19 6t15 16v5q-1 4 -1 5v10v13q-1 10 -1 12q0 45 7 69q14 36 46.5 50t88.5 14q5 0 29.5 -1.5t28.5 -1.5q32 -3 32 -28q0 -4 -1 -26t-1 -26q0 -2 1 -17
t1 -18q0 -27 -29 -27q-2 0 -8 1h-8q-28 0 -28 -27q0 -26 19 -26q2 0 9 1h9q33 0 33 -26v-18q-1 -15 -1 -18z" />
    <glyph glyph-name="g" unicode="g" 
d="M21 318q0 60 19 119q12 36 39 69q44 51 104 51q40 0 63 -18q13 -10 14 -10q4 0 4 7q2 18 15 18q9 0 27 -1.5t27 -1.5q19 0 39 2q5 1 16 1q27 0 33 -6.5t6 -27.5q0 -4 -1 -27t-1 -28t1 -39t1 -41q0 -8 -2 -54.5t-2 -55.5q0 -19 3 -98q1 -27 1 -64q0 -109 -53 -155
t-165 -46q-108 0 -141 20q-10 6 -11.5 14.5t-1.5 50.5q0 25 2 43q5 23 29 23q10 0 21 -3t29 -10q11 -2 40 -4q38 -2 35 -2q24 0 42 14t18 30q0 15 -14 15q-4 0 -18 -6q-25 -11 -64 -11q-36 0 -67 15q-23 11 -43 38q-24 33 -36 98q-8 44 -8 81zM264 297v40q0 65 -35 65
q-18 0 -31 -17q-15 -20 -15 -64q0 -37 7 -56q10 -28 38 -28q36 0 36 60z" />
    <glyph glyph-name="h" unicode="h" 
d="M31 536v39v30q-1 20 -1 30q0 -3 2 39q2 33 28 33q5 0 30 -1t29 -1t23 1t22 1q17 0 25 -13q4 -7 4 -35q0 -2 1 -16t1 -17q0 -2 -1.5 -17.5t-1.5 -18.5q0 -1 1 -7v-7v-9q-1 -7 -1 -9q0 -20 11 -20q4 0 21 7q37 15 70 15q61 0 97 -49t36 -126v-44q-1 -31 -1 -44q0 -4 -1 -30
t-1 -31q0 -6 2 -42t2 -43q0 -4 -1 -28t-1 -29q0 -3 1 -24t1 -25q0 -44 -27 -44q-3 0 -25.5 1t-27.5 1h-22q-20 -1 -24 -1q-26 0 -35 9.5t-9 35.5q0 3 2 23t2 24q0 3 -1 21t-1 22q0 3 1 23v25t-1 31.5t-1 32.5q0 6 2 37t2 36q0 65 -34 65q-10 0 -16 -4q-15 -8 -16 -38
q-2 -5 -2 -84q0 -4 1 -31.5t1 -33.5t-1 -42.5t-1 -43.5v-41q0 -2 1 -15t1 -16q0 -19 -6.5 -27.5t-29.5 -8.5q-8 0 -24 1h-24q-10 0 -24 -1q-1 0 -12.5 -1t-14.5 -1q-31 0 -31 36q0 4 1 26t1 26v35q-1 29 -1 35q0 5 1 37t1 38t-1.5 46t-1.5 48q0 6 1 40t1 41v21q0 2 1 17
t1 18q0 5 -2 35.5t-2 36.5z" />
    <glyph glyph-name="i" unicode="i" horiz-adv-x="229" 
d="M30 666q0 43 36 43q5 0 33 -1t33 -1q3 0 16 1t15 1q10 0 18 -5q15 -9 15 -27l1 -43q0 -45 -35 -45h-77h-10q-9 -1 -11 -1q-33 0 -33 37v20q-1 17 -1 21zM151 553q27 0 35 -5q12 -8 12 -35q0 -10 -1 -31t-1 -31v-82v-41q-1 -34 -1 -41q0 -9 1.5 -27.5t1.5 -27.5v-16
q-1 -14 -1 -17v-61v-53q-1 -46 -1 -55q0 -20 -11 -26q-6 -3 -30 -3q-3 0 -25 1h-25q-3 0 -21.5 -1t-22.5 -1q-22 0 -28 15q-4 9 -4 35q0 5 1 34.5t1 35.5v39q-1 33 -1 40t1 53v55q0 7 -1 48.5t-1 49.5q0 5 1 30t1 29q0 3 -1 19t-1 18q0 26 3 34q4 12 20.5 15t98.5 3z" />
    <glyph glyph-name="j" unicode="j" horiz-adv-x="250" 
d="M53 679q0 30 31 30h10q7 -1 10 -1h18h23q20 -1 24 -1q1 0 11 1h12q28 0 28 -32v-60q0 -19 -17 -26q-4 -1 -33 -1q-6 0 -41.5 -1t-42.5 -1q-22 0 -29 12q-4 7 -4 29q0 2 1 18v17v9q-1 6 -1 7zM136 551q5 0 28.5 1t27.5 1q30 0 31 -34v-32q-1 -29 -1 -32v-47
q0 -6 -1.5 -41.5t-1.5 -42.5q0 -6 1.5 -41.5t1.5 -42.5q0 -3 -1 -23t-1 -24v-79q0 -96 -14 -130q-26 -64 -123 -64q-41 0 -54 3q-30 7 -30 39q0 9 1 27.5t1 27.5v22q-1 19 -1 22q0 25 28 25t28 36q0 6 -1 41t-1 42t1.5 51.5t1.5 52.5q0 6 -1.5 40t-1.5 40v88q-3 18 -3 44
q0 31 37 31h24q20 -1 24 -1z" />
    <glyph glyph-name="k" unicode="k" horiz-adv-x="437" 
d="M30 119v10q0 7 -1.5 50.5t-1.5 51.5q0 32 3 62v37q0 61 -1 106t-1 68q0 3 2 24q1 11 1 42q0 15 -2 44.5t-2 44.5v26q3 22 20 22h65q2 0 12 1t17 1q25 1 29 1q27 0 27 -31v-4q-1 -3 -1 -4q-3 -57 -3 -51q0 -6 1 -47t1 -49v-26q-1 -23 -1 -27l2 -40q1 -16 9 -16t13.5 14
t12.5 34t16 48q1 8 4 25q6 22 32 22q3 0 19 -1t19 -1q12 0 17 1h48q30 0 30 -25q0 -2 -2 -10q-6 -26 -26 -87q-6 -15 -16 -45q-12 -38 -30 -90q-4 -9 -4 -12q0 -8 15 -40q16 -35 39 -95q14 -36 32 -78q20 -46 20 -58q0 -18 -24 -18q-5 0 -37 1t-38 1h-24q-21 -1 -25 -1
q-35 0 -42 32q-1 6 -9 27q-5 15 -20 57q-1 3 -7 19.5t-7 19.5q-4 21 -11 21q-5 0 -8 -22q0 -13 1 -35v-45q0 -3 1 -22t1 -23q0 -28 -22 -28q-5 0 -35.5 1t-36.5 1q-4 0 -27 -1t-28 -1q-20 0 -20 29q0 11 2 31t2 58z" />
    <glyph glyph-name="l" unicode="l" horiz-adv-x="229" 
d="M126 706q3 0 21 1h21q30 0 30 -30v-11q-4 -28 -4 -61q0 -6 1 -41v-42q0 -2 -1 -18v-17.5v-138.5q0 -8 1.5 -55t1.5 -56v-56v-36q-1 -26 -1 -36q0 -5 1.5 -33t1.5 -34q0 -36 -19 -41q-2 -1 -26 -1q-3 0 -25 1t-26 1q-3 0 -20 -1t-20 -1q-33 0 -33 29q0 6 1 43.5t1 44.5v44
q-1 29 -1 43q0 5 1 35v35q0 21 -3 99v35q1 32 1 35v34q-1 28 -1 34t1.5 45t1.5 47q0 20 -2 40q-1 10 -1 16q0 28 7 37.5t34 9.5h56z" />
    <glyph glyph-name="m" unicode="m" horiz-adv-x="688" 
d="M487 192v33q0 5 1 33.5t1 33.5q0 28 -1 55q-1 39 -30 39q-14 0 -21 -9.5t-8 -39.5t-3 -71q0 -4 1 -28v-29q0 -9 -2 -59.5t-2 -60.5q0 -24 1 -40q2 -32 2 -25q0 -24 -26 -24q-10 0 -14 1q-10 1 -30 1q-5 0 -37.5 -1t-38.5 -1q-23 0 -23 26q0 28 3 79v13q-1 12 -1 14
q0 4 1 24.5t1 23.5v20q-1 17 -1 20v56q-1 41 -1 56q0 55 -32 55q-25 0 -29 -26.5t-4 -68.5q0 -5 2 -38.5t2 -40.5t-1.5 -49.5t-1.5 -50.5q0 -33 1 -58q2 -8 2 -25q0 -29 -33 -29q-2 0 -14 1h-15q-5 0 -37.5 -1t-39.5 -1q-26 0 -26 28q0 4 1 31t1 32t-1.5 37.5t-1.5 38.5
q0 5 1 38.5t1 40.5q0 16 -1.5 48.5t-1.5 48.5q0 7 1.5 50.5t1.5 51.5v31q-1 26 -1 30q0 29 12 38q7 5 27 5h22q14 -1 22 -1q4 0 29.5 2t30.5 2q16 0 23 -11l6 -12t7 -8q-1 0 14 10q4 6 20 14q24 11 51 11q47 0 89 -29q15 -13 23 -13q7 0 23 11q41 29 89 29q49 0 82 -29.5
t43 -77.5q9 -41 9 -81q0 -4 -1.5 -28t-1.5 -29q0 -3 1 -23.5t1 -24.5v-16q-1 -11 -1 -17q0 -2 1 -17t1 -18v-41q0 -9 -2.5 -27t-2.5 -28q0 -3 1.5 -22t1.5 -23q0 -16 -3 -28q0 -24 -20 -24q-3 0 -25.5 1t-26.5 1t-31.5 -1t-32.5 -1q-12 0 -16 2q-15 8 -15 30v12q1 9 1 12
q2 48 2 72q0 4 1 32v32z" />
    <glyph glyph-name="n" unicode="n" 
d="M140 2h-38q-11 0 -26 -1q-2 0 -7 -1h-8q-29 0 -29 35q0 5 1 32t1 32q0 8 -1.5 56.5t-1.5 57.5q0 25 2 65q4 50 4 64v23q-1 21 -1 24q0 2 1 19v19q0 4 -1.5 31.5t-1.5 32.5q0 36 5 45q9 16 30 16l21 -1l21 -1q10 0 29.5 1.5t29.5 1.5q14 0 19 -8q2 -4 5 -12.5t6 -8.5
q7 4 15 9q39 25 82 25q58 0 97 -43q35 -39 35 -117q0 -3 -1 -21t-1 -22t1 -28v-29t-1 -36t-1 -37q0 -4 1 -27v-28q0 -4 -1 -30t-1 -31q0 -3 1 -21.5t1 -22.5q0 -64 -33 -64q-2 0 -22 1.5t-24 1.5t-27 -1.5t-27 -1.5q-16 0 -23 5q-13 13 -13 25q0 6 2.5 44t2.5 45
q0 8 -1.5 53.5t-1.5 54.5q0 27 1 43q4 64 4 54v26q0 41 -32 41q-31 0 -33 -38q-5 -79 -5 -107q0 -4 1 -29t1 -30q0 -14 -1.5 -43.5t-1.5 -44.5q0 -14 2 -50q1 -6 1 -18q0 -32 -23 -32q-1 0 -16.5 1t-17.5 1z" />
    <glyph glyph-name="o" unicode="o" 
d="M23 289q0 43 4 66q9 55 15 73q12 58 58 95q52 41 131 41q87 0 138 -48q28 -26 42 -58q25 -56 25 -181q0 -66 -14 -131q-34 -157 -188 -157q-96 0 -143 44q-60 56 -67 171q-1 17 -1 85zM268 338q0 23 -8 42q-11 25 -30 25q-28 0 -38 -48q-5 -26 -4 -77v-21q-1 -19 -1 -21
q0 -83 39 -83q31 0 38 45q4 26 4 138z" />
    <glyph glyph-name="p" unicode="p" 
d="M197 512q1 0 10 11q25 35 73 35q50 0 86 -30t55 -95q10 -36 13 -49q2 -17 3 -55q1 -64 1 -86q0 -43 -8 -75q0 -14 -19 -65q-16 -42 -52 -74q-42 -38 -91 -38q-30 0 -51 11l-15 6q-12 0 -12 -19q0 -3 1 -24.5t1 -25.5q0 -26 -24 -26h-9h-32q-18 1 -17 1q-3 0 -22 -1h-22
q-36 0 -36 29v26q0 9 1 65.5t1 67.5q0 10 -1.5 68.5t-1.5 69.5q0 6 1.5 36.5t1.5 35.5t-1 34t-1 35v38v42q-1 37 -1 44q0 27 8.5 37.5t20.5 10.5h10q8 -1 10 -1h23q20 -1 23 -1q21 0 31 2q3 0 8 1h7q24 0 24 -18v-6q-1 -3 -1 -6q0 -11 4 -11zM234 381q-19 0 -29 -24
q-11 -27 -11 -101q0 -93 38 -93q22 0 30.5 21t8.5 84q0 39 -4 73q-5 40 -33 40z" />
    <glyph glyph-name="q" unicode="q" 
d="M343 -82h-38q-1 0 -11.5 -1t-12.5 -1q-23 0 -23 24q0 2 1 18t1 19q0 33 -10 33q-3 0 -15 -6q-24 -12 -52 -12q-27 0 -55 13q-18 9 -36 27q-42 43 -51 85q-18 81 -18 146q0 167 54 241q40 55 102 55q52 0 77 -36q8 -12 11 -12q4 0 4 10v7q-1 5 -1 7q0 18 16 18
q20 -1 21 -1q12 -2 46 -2q1 0 11 1h17h29q22 0 22 -24q0 -40 -3 -81q-4 -54 -4 -69q0 -8 1 -55.5t1 -56.5v-37q0 -12 -1 -86t-1 -88q0 -31 2 -58q1 -14 1 -51q0 -28 -24 -28h-30q-26 1 -31 1zM228 386q-19 0 -31 -35q-13 -39 -13 -67q0 -47 7 -71q14 -48 37 -48q28 0 31 41
q4 62 4 90q0 90 -35 90z" />
    <glyph glyph-name="r" unicode="r" horiz-adv-x="313" 
d="M202 504q3 0 13 11q27 43 67 43q28 0 28 -26q0 -2 -1 -12.5t-1 -12.5v-29v-25q-1 -17 -1 -25q0 -3 1 -22t1 -23q0 -36 -25 -36q-2 0 -14 1.5t-15 1.5q-16 0 -30 -11q-25 -20 -25 -56v-94q0 -4 -1 -26t-1 -25q-1 -26 -1 -64q0 -13 1 -19q0 -2 1 -14t1 -14q0 -28 -33 -28
h-30q-25 1 -30 1q-23 0 -32.5 -1.5t-14.5 -1.5q-22 0 -28 17q-1 3 -1 20q0 3 1.5 19.5t1.5 19.5q0 11 -1 37.5t-1 36.5q0 47 0.5 52t1.5 28t1 27q0 8 -1.5 50.5t-1.5 49.5q0 30 1 48.5t1 38.5v31q-1 26 -1 30q0 28 3 34q9 18 28 18q9 0 27.5 -1.5t27.5 -1.5q28 0 42 1
q4 1 13 1q27 0 27 -22q0 -1 -1 -9t-1 -10q0 -8 3 -8z" />
    <glyph glyph-name="s" unicode="s" horiz-adv-x="375" 
d="M334 436l-1 -14q-1 -8 -11 -16.5t-20 -8.5q-4 0 -7 0.5t-31 12.5q-19 8 -30 8q-32 0 -32 -22q0 -9 5.5 -15.5t34.5 -22.5t64 -36q4 -3 18 -20q3 -3 7 -9q35 -39 35 -110q0 -56 -27 -105q-47 -85 -188 -85q-61 0 -108 17q-21 8 -25 17t-4 40v35q-1 30 -1 36q0 41 37 41
q8 0 25 -8q25 -12 58 -12q50 0 50 28q0 15 -18 29q-2 2 -52 35q-17 11 -44 30q-50 46 -50 122q0 40 14 68q22 45 47 64q42 30 126 30q38 0 89 -5q40 -4 40 -35q0 -7 -1.5 -20t-1.5 -20q0 -2 1 -23.5t1 -25.5z" />
    <glyph glyph-name="t" unicode="t" horiz-adv-x="271" 
d="M1 382v83q0 45 16 50q5 1 17 2q4 2 9 7q2 2 2 28q0 7 -1.5 38.5t-1.5 33.5q0 24 17 34q5 3 44 3h57q22 0 30 -3q13 -6 13 -24q0 -5 -1 -38.5t-1 -40.5q0 -25 4 -31.5t23 -8.5q26 -3 26 -38v-92q0 -11 -15 -26q-6 0 -18 -3q-16 -7 -16 -43q0 -105 2 -124q3 -33 24.5 -35
t21.5 -26q0 -5 1 -40v-41q0 -40 -27 -44q-12 -2 -52 -2h-16q-14 -1 -17 -1q-81 0 -97 71q-3 15 -4 96q0 12 -1 43q-1 27 -1 43q0 4 1 30v30q0 25 -3 32q-4 12 -18 13t-18 9v15z" />
    <glyph glyph-name="u" unicode="u" 
d="M67 547h16q12 -2 66 -2q1 0 12 1t13 1q25 0 25 -29q0 -10 -2 -29t-2 -27q0 -4 1.5 -31.5t1.5 -32.5q0 -6 -1 -21q-1 -9 -2 -29q-1 -14 -1 -79q0 -11 1 -33t1 -33q0 -7 -1 -19.5t-1 -19.5q0 -31 27 -31q35 0 35 70v19q-1 16 -1 19q0 5 2 38t2 39q0 5 -1.5 34.5t-1.5 35.5
q0 9 1 26.5t1 25.5q0 6 -2 36.5t-2 35.5q0 22 15 31q6 4 32 4q2 0 17.5 -1t18.5 -1q4 0 29 1h29q31 0 31 -24q0 -4 -1.5 -32t-1.5 -34q0 -4 1 -33.5t1 -35.5q0 -12 -1 -36t-1 -37q0 -3 1 -26v-28q0 -6 -1.5 -42.5t-1.5 -43.5q0 -3 1 -23t1 -24v-22q-1 -18 -1 -22t1 -29
t1 -30q0 -23 -29 -23q-3 0 -26 1t-28 1t-29.5 -1.5t-26.5 -1.5q-10 0 -12.5 6t-5 14.5t-10.5 8.5q-4 0 -19 -10q-38 -25 -95 -24q-73 1 -100 53q-11 22 -11 56q0 3 1.5 21.5t1.5 22.5q0 7 -2 51.5t-2 53.5t2.5 65.5t2.5 67.5q0 21 -2 51q-3 45 -3 69q0 41 36 41z" />
    <glyph glyph-name="v" unicode="v" horiz-adv-x="396" 
d="M-2 531q0 25 31 25q3 0 24.5 -1t25.5 -1q3 0 23 1t24 1q30 0 38 -15q1 -2 6 -67q3 -16 7 -48l3 -36q3 -30 8 -84q1 -11 4 -14l3 6q2 10 13 89t11 81q0 19 1 26q0 3 1 13.5t6 30.5q10 17 31 17q2 0 17 -1t18 -1h56q2 0 10 1h9q26 0 26 -31q0 -10 -4 -24q-6 -22 -12 -55.5
t-14 -80.5q-6 -24 -17 -71q-5 -29 -18 -86l-14 -56q-15 -60 -27 -102q-1 -5 -4 -17q-8 -30 -41 -30q-3 0 -21 1h-22q-3 0 -22.5 -1t-23.5 -1q-30 0 -43 10t-18 39q-7 41 -18 76q-6 20 -9 37q-11 45 -30 135q-3 26 -12 79l-10 48q-16 77 -16 107z" />
    <glyph glyph-name="w" unicode="w" horiz-adv-x="625" 
d="M253 329v7q-34 160 -34 185q0 31 31 31h25q22 -1 26 -1t26 1t26 1q27 0 36 -18q5 -10 5 -36.5t5 -67.5q6 -50 6.5 -67t3.5 -53q2 -17 2 -20q1 -11 5 -12q3 1 4 13q1 7 20 112q19 102 19 103q5 25 12.5 35t26.5 10q4 0 25 -1.5t25 -1.5l24 1l24 1q10 0 14 -2q17 -9 17 -26
q0 -9 -6 -39q-12 -42 -31 -139q-8 -42 -26 -106q-11 -39 -18 -71q-17 -78 -32 -124q-9 -28 -13 -34q-9 -12 -32 -12h-20q-16 1 -20 1q-2 0 -18 -1h-19q-1 0 -10 -1h-11q-17 0 -23 13t-22 85q-11 47 -21 47q-8 0 -14 -17l-20 -80q-4 -12 -6 -23q-6 -26 -29 -26q-1 0 -10 1
t-15 1q-13 1 -27 1q-3 0 -22 -1t-23 -1q-18 0 -25 11q-5 7 -11 29q-2 7 -7 21q-4 18 -13 62q-15 64 -35 153q-3 19 -10 58q-9 51 -21 92q-3 11 -14 62q-3 15 -3 34q0 32 29 33h23q21 -1 24 -1t23.5 1t24.5 1q26 0 34.5 -8.5t13.5 -44.5q3 -25 14 -68q27 -108 34 -164
q0 -10 8 -10q1 0 3 1.5t14 48.5q3 7 8 21z" />
    <glyph glyph-name="x" unicode="x" horiz-adv-x="417" 
d="M18 525q0 28 34 28q10 0 30 -1.5t30 -1.5q23 0 34 2q2 0 6 1h6q15 0 24 -16t23 -75q2 -10 7 -10q3 0 8 12q10 36 22 75q13 13 24 13h13q10 -1 12 -1h15q12 -1 14 -1q4 0 28 1.5t29 1.5q32 0 32 -21q0 -8 -10 -29q-5 -10 -20 -44l-21 -39q-3 -6 -8 -18q-9 -17 -25 -50
q-4 -12 -14.5 -35.5t-10.5 -30.5t13 -34q21 -43 43 -95q3 -7 27 -55q30 -60 30 -84q0 -17 -18 -17q-2 0 -9 1h-8q-72 0 -100 -2q-2 0 -7 -1h-7q-19 0 -27 17q-2 3 -7 22q-2 7 -7 20q-8 20 -11 36q-3 12 -7 12q-2 0 -8 -12q-10 -32 -22 -71q-7 -24 -27 -24h-8q-6 1 -8 1
q-16 1 -52 1q-3 0 -19.5 -1t-20.5 -1h-8q-8 1 -9 1q-23 0 -23 19q0 7 15.5 45t19.5 44q20 48 63 141q16 31 16 40q0 12 -13 38q-9 19 -16 35q-16 39 -40 92q-4 7 -10 22q-3 6 -7 19q-10 27 -10 30z" />
    <glyph glyph-name="y" unicode="y" horiz-adv-x="375" 
d="M221 474l2 40q1 18 4 25q6 13 23 14h16q15 -1 17 -1t12 1h11q19 0 27 -2q2 0 11 1h10q27 0 25 -29q-2 -36 -5 -75q-1 -8 -6 -31q-10 -43 -18 -83q-5 -21 -15 -62q-5 -26 -19 -79q-2 -7 -21 -61l-6 -24q-19 -70 -25 -88q-9 -22 -26 -45q-36 -48 -100 -56q-16 -2 -81 -2
q-24 0 -39 13q-10 9 -12 38v79q0 12 2 16q7 14 30 14q6 0 15.5 -3t10.5 -3q15 0 20 15q1 2 1 16v8q-4 15 -7 32t-18 75q-9 31 -14 55q-8 43 -16 85q-5 30 -15 69q-15 61 -15 98q0 29 26 29q6 0 9 -1q12 -1 36 -1q21 0 39 1q36 2 33 2q23 0 26 -23.5t5 -57.5q7 -52 14 -124
q1 -45 8 -45l3 6q10 67 10 72q2 23 5 54q3 13 7 38z" />
    <glyph glyph-name="z" unicode="z" horiz-adv-x="354" 
d="M28 516q0 32 34 32q2 0 18.5 -1t19.5 -1q4 0 28 1h27h27q23 -1 28 -1q11 0 33 1h32q34 0 45 -1q25 -2 25 -29v-60q0 -15 -10 -31q-11 -22 -32 -65q-6 -15 -19 -45q-22 -47 -46 -92q-17 -31 -17 -45q0 -17 31 -17q42 0 53 2t13 2q23 0 23 -21q0 -4 -3 -15t-3 -66
q0 -17 1.5 -25t1.5 -13q0 -10 -8 -18.5t-20 -8.5q-2 0 -15 1.5t-16 1.5q-17 0 -59 -1.5t-58 -1.5h-36q-24 1 -35 1q-3 0 -21 -1h-22q-37 0 -37 36q0 4 1 27v27q0 20 16 44q13 20 31 67q14 37 29 66q21 37 49 88q5 9 5 17q0 13 -18 16h-12q-10 -1 -12 -1q-5 0 -17 1t-18 1
h-11q-30 0 -29 28l2 39q1 15 1 61z" />
    <glyph glyph-name="braceleft" unicode="{" horiz-adv-x="396" 
d="M130 51v24v29q0 13 -2 30q-1 11 -2 22.5t-3 33.5q-3 14 -13 30q-17 27 -45 30q-35 4 -37 27v20q0 3 -2 22.5t-2 23.5q0 21 9 32q6 7 31 8q14 2 18 4q10 3 16 11q20 26 24 38q8 27 8 77q0 3 -1 15t-1 14q0 6 6 42q1 10 6 30t22 40q13 15 52 39q28 14 64 14q14 0 21 -1h10
q7 -1 10 -1t19.5 1.5t19.5 1.5q34 0 38 -20v-33q0 -2 1 -12v-12q0 -34 -25 -34q-1 0 -9 1t-10 1q-27 0 -53 -26q-13 -16 -13 -41q0 -3 1 -23t1 -24q0 -3 -1 -22t-1 -23q0 -26 -15 -53q-10 -17 -14 -24q-7 -9 -17 -16q-5 -3 -15 -9.5t-34 -15.5q-14 -3 -14 -6t15 -3
q43 -14 60 -29q22 -20 33 -74q0 -8 1 -18v-19v-11q-1 -9 -1 -11t2 -17.5t2 -18.5v-12q-1 -10 -1 -12q0 -13 3 -20q10 -23 33 -29q17 -1 40 -4q20 -3 24.5 -9.5t4.5 -24.5q0 -7 0.5 -9.5l2.5 -12.5t2 -11q0 -31 -14 -42q-9 -7 -34 -7q-3 0 -23.5 2t-24.5 2q-2 0 -17 -1.5
t-18 -1.5q-33 0 -54 16q-3 1 -10 3.5t-11 4.5q-27 15 -39 40q-2 4 -9 15q-15 18 -15 49z" />
    <glyph glyph-name="braceright" unicode="}" horiz-adv-x="396" 
d="M107 125v21q0 46 3 67q3 11 15 33q16 28 32 38q5 3 14 8.5t33 15.5q11 3 14 6l-8 2q-12 1 -30 9q-32 14 -42 26q-8 8 -18.5 37t-10.5 68q0 2 1 11v10q0 3 -2 19t-2 19q0 2 1 10v9q0 23 -7 33q-10 14 -28 21q-18 1 -41 4q-29 5 -29 28q0 15 -3 28q-2 8 -2 12q0 11 4 25
q7 23 35 23q20 0 28 -1q4 0 14.5 -1t15.5 -1q1 0 6 1h8q6 1 15 1q30 0 45 -8q5 -2 13 -7q4 -1 10 -4q28 -11 42 -30q4 -8 13 -23q20 -28 20 -50v-32q0 -45 2 -58q3 -20 3 -40q0 -23 18 -50q15 -23 44 -26q5 0 15 -3q20 -6 20 -27v-9q-1 -7 -1 -8q0 -3 2 -21t2 -22
q0 -14 -3.5 -24t-6.5 -12q-5 -5 -16 -6q-14 -1 -35 -6q-8 -4 -22 -22t-16 -26q-7 -22 -7 -76q0 -1 1 -9.5t1 -10.5q0 -16 -1.5 -25l-4.5 -27q-1 -10 -6 -29q-12 -39 -61 -70q-34 -22 -79 -22h-20q-17 1 -20 1t-20 -1.5t-20 -1.5q-32 0 -36 21v16q1 13 1 16q0 2 -1 12.5
t-1 12.5q0 33 26 33q2 0 10 -1t9 -1q27 0 53 26q12 20 12 42v13q-1 11 -1 13z" />
    <glyph glyph-name="exclamdown" unicode="&#xa1;" horiz-adv-x="271" 
d="M125 709q3 0 20 1t20 1q26 0 35 -4q14 -9 14 -48q0 -5 1 -36v-37q0 -1 1 -11v-12q0 -28 -30 -33q-6 -1 -41 -1q-3 0 -21 1h-19.5h-12.5q-10 -1 -12 -1q-32 0 -36 35v91q0 30 6 40q8 15 39 15h18q15 -1 18 -1zM59 334q10 92 11 120t27 28h23q22 -1 27 -1q2 0 10 1h10
q4 0 5 -1q22 -4 22 -31q0 -20 6 -67l9 -75q1 -21 4 -65l4 -55q6 -74 6 -138q0 -26 -6 -34q-12 -15 -33 -15q-2 0 -16 1h-16h-34q-18 0 -25 -1q-14 -2 -17 -2q-35 0 -35 41q0 3 2 28t2 29l5 118q4 72 9 119z" />
    <glyph glyph-name="cent" unicode="&#xa2;" horiz-adv-x="333" 
d="M225 -81h-23q-25 0 -25 21q0 3 1 21v22q0 12 -14 14q-22 3 -47 17q-33 19 -59 68q-22 41 -29 78q-5 27 -5 137q0 59 18 112q14 42 31 66q37 52 97 70q13 4 13 15v28q0 16 29 16q1 0 11 1h12q15 0 15 -27q0 -23 15 -24q34 -3 34 -33v-20q-1 -18 -1 -21q0 -5 1 -35v-36
q0 -33 -41.5 -33t-54.5 -34q-9 -24 -9 -101q0 -39 26 -63q16 -15 48.5 -15t32.5 -26q0 -1 -1 -11t-1 -12v-47q0 -3 1 -20v-21q0 -19 -13 -27q-9 -7 -32 -7q-10 0 -10 -26q0 -2 1 -13.5t1 -13.5q0 -20 -22 -20z" />
    <glyph glyph-name="sterling" unicode="&#xa3;" horiz-adv-x="479" 
d="M279 489v21q0 31 -6 44q-8 17 -26 17q-11 0 -25 -14q-15 -18 -15 -60q0 -32 13 -92h55q2 0 18.5 1.5t19.5 1.5q20 0 25 -14q3 -9 2 -44v-11q1 -10 1 -11q0 -28 -26 -28q-7 0 -36 1h-39q7 -44 7 -74q0 -29 -9 -65q29 -12 46 -12q19 0 26 21q1 8 5 23q8 16 26 16q4 0 27 -1
t28 -1q3 0 16.5 1t15.5 1q32 0 32 -32q0 -65 -17 -104q-14 -32 -49 -54t-80 -22q-38 0 -72 15q-41 18 -53 18q-14 0 -21 -7q-3 -3 -8 -9t-7 -8q-8 -6 -19 -6q-3 0 -9 1h-9q-12 2 -19 2q-6 0 -37.5 -1.5t-32.5 -1.5q-20 0 -20 17q0 3 2 7q16 63 70 107q11 35 11 70
q0 47 -12 97h-10h-12q-11 -1 -13 -1q-28 0 -28 29q0 4 1 27.5t1 28.5q4 26 23 26h8q7 -1 9 -1q-15 79 -15 112q0 95 57 143t148 48q32 0 62 -7q23 -5 39 -14q31 -16 51 -46q32 -48 32 -125q0 -38 -8.5 -48.5t-33.5 -10.5q-3 0 -21.5 1.5t-22.5 1.5h-39q-27 0 -27 26z" />
    <glyph glyph-name="yen" unicode="&#xa5;" horiz-adv-x="479" 
d="M28 180v23v11q-1 10 -1 12q0 14 16 22q4 1 43 1h17q15 -1 18 -1q1 0 7 1h6q14 3 14 10q0 3 -5 19t-5 18q-5 17 -17 17q-1 0 -12 -1t-13 -1q-1 0 -9 1h-8.5h-10.5q-9 -1 -11 -1q-28 0 -28 19q0 1 1 11v11q0 15 -2 24q-2 6 -2 10q0 18 25 18h12q10 -1 11 -1q23 0 23 8
t-14 37q-22 46 -37 97q-6 19 -18 50q-6 18 -18 50q-6 11 -12 35q-1 27 32 27q4 0 23.5 -1t22.5 -1q4 0 31 1h31q30 0 39 -9q11 -12 24 -66q2 -8 9 -46q2 -4 4.5 -12.5t3.5 -12.5q9 -36 18 -70q3 -11 8 -12q4 0 8 18q2 9 7 27q3 13 18 65q3 10 9 41q8 38 10 46q3 13 9 20
q9 12 42 12h21q18 -1 22 -1q3 0 23 1t24 1q42 0 42 -30q0 -25 -42.5 -146.5t-42.5 -118.5q0 -8 10 -8q2 0 12 1.5t12 1.5q15 0 18.5 -8.5t3.5 -30.5q0 -1 1 -12t1 -13q0 -29 -21 -29q-1 0 -9.5 1t-10.5 1h-12q-8 -1 -11 -1q-2 0 -12.5 1t-12.5 1q-6 0 -11.5 -8t-9.5 -30
q-8 -23 -8 -26q0 -10 10 -10q2 0 10 1h10.5h14.5q12 -1 15 -1q2 0 15 1t16 1q15 0 21.5 -6.5t4.5 -34.5v-9q1 -9 1 -10q0 -28 -22 -28q-11 0 -27 2q-24 3 -18 3q-1 0 -8.5 -1t-9.5 -1q-1 0 -10 1h-10q-13 0 -17 -3.5t-4 -37.5q0 -5 1 -32.5t1 -32.5q0 -29 -4 -39
q-7 -17 -29 -17q-2 0 -17 1h-18t-23.5 -1t-24.5 -1h-26q-36 0 -36 35v48v17q-1 14 -1 16q0 3 1 16t1 15q0 10 -8 12q-18 3 -53 3q-1 0 -10.5 -1.5t-11.5 -1.5q-18 0 -28 4.5t-12 17.5z" />
    <glyph glyph-name="dieresis" unicode="&#xa8;" horiz-adv-x="271" 
d="M-39 681q0 20 20 23h45h16q14 -1 17 -1q2 0 19 1h19q26 0 25 -24q-1 -27 -1 -52.5t-29 -25.5q-2 0 -14 1h-15q-3 0 -24 1h-23h-16q-13 -1 -15 -1q-24 0 -24 21q0 3 1 16t1 15t-1 13t-1 13zM148 685q0 18 16 18q4 0 6 -1h79q5 0 19 1h18q25 0 25 -18v-13q-1 -13 -1 -16
v-29q0 -24 -44 -24q-3 0 -21 1t-22 1h-19q-13 -1 -20 -1q-21 0 -27 3q-9 5 -9 21q0 1 1 13v14.5v13.5q-1 10 -1 16z" />
    <glyph glyph-name="copyright" unicode="&#xa9;" horiz-adv-x="833" 
d="M773 354q0 -149 -103 -253t-254 -104q-143 0 -247 99q-108 103 -108 257q0 151 106 255q104 101 250 101q152 0 254 -104t102 -251zM417 29q137 0 230.5 94.5t93.5 229.5t-93 229.5t-229 94.5q-137 0 -231.5 -95t-94.5 -229q0 -136 95 -230t229 -94zM534 270l87 -80
q-80 -84 -196 -84q-118 0 -186 74q-64 68 -64 173q0 106 67.5 178.5t182.5 72.5q114 0 196 -85l-87 -84q-51 49 -110 49q-62 0 -96 -41q-29 -35 -29 -89q0 -58 34.5 -93.5t92.5 -35.5q60 0 108 45z" />
    <glyph glyph-name="ordfeminine" unicode="&#xaa;" horiz-adv-x="313" 
d="M49 678q0 17 22 22q50 12 87 12q34 0 65 -12q27 -10 37 -23q14 -18 14 -62v-21q-1 -17 -1 -21q0 -2 1 -17v-18v-16v-50q0 -3 -1 -24t-1 -25q0 -2 1 -17.5t1 -18.5q0 -17 -11 -20h-36q-5 0 -32 -2q-8 0 -10 6q0 1 -0.5 3t-2 3.5t-3.5 1.5q2 0 -12 -8q-17 -10 -43 -10
q-34 0 -56 16q-40 29 -40 84q0 47 7 64q4 9 10 16q13 19 29 27q35 18 57 18q3 0 18 -1t17 -1q13 0 13 12q0 15 -10 19.5t-41 4.5q-18 0 -37 -7q-22 -8 -24 -8q-11 0 -15 10q-3 5 -2 37v13q-1 11 -1 13zM156 511q-27 0 -27 -38q0 -32 24 -32q26 0 26 37q0 33 -23 33z" />
    <glyph glyph-name="guillemotleft" unicode="&#xab;" horiz-adv-x="292" 
d="M158 280v25q-1 21 -1 25q0 18 4.5 24.5t22.5 17.5q36 23 53 38q14 12 21 12q12 0 12 -13q0 -1 1 -10v-11.5v-22.5q-1 -19 -1 -23q0 -1 1 -11v-12q0 -13 -2.5 -16.5t-17.5 -13t-15 -12.5t8 -7q3 -3 18 -12q9 -6 9 -31v-78q0 -18 -15 -18q-7 0 -17 7t-42 28
q-28 18 -33.5 25t-5.5 23v66zM25 282q0 2 -1 18t-1 19q0 17 4 23.5t21 17.5q45 30 62 46l5 5q10 9 16 9q15 0 15 -23q-1 -5 0 -15v-24q-1 -21 -1 -25q0 -1 1 -10v-10q0 -16 -13 -22q-26 -13 -26 -19q0 -2 16.5 -11.5t19 -12.5t2.5 -30v-44q0 -26 -2.5 -35t-12.5 -9t-45 26
q-16 12 -33 22q-27 16 -28 31v39q1 35 1 34z" />
    <glyph glyph-name="registered" unicode="&#xae;" horiz-adv-x="833" 
d="M250 586h163q73 0 108 -11q40 -13 62 -48q19 -29 19 -65q0 -69 -80 -105q23 -15 32 -28q12 -18 19 -58q10 -59 15 -80q8 -35 24 -63h-126q-15 30 -25 98.5t-23.5 81t-77.5 12.5v-192h-110v458zM360 502v-95h48q49 0 64 9q20 12 20 40q0 31 -24 41q-12 5 -75 5h-33z
M773 354q0 -149 -103.5 -253t-254.5 -104q-143 0 -246 99q-108 103 -108 257q0 152 106 255q103 101 249 101q152 0 254.5 -104t102.5 -251zM416 29q137 0 231 94.5t94 230.5q0 134 -93.5 228.5t-229.5 94.5t-230.5 -95t-94.5 -229q0 -136 94.5 -230t228.5 -94z" />
    <glyph glyph-name="macron" unicode="&#xaf;" horiz-adv-x="271" 
d="M2 668q0 27 31 27q6 0 41.5 -1.5t42.5 -1.5q9 0 28 2t28 2q2 0 16.5 -1.5t17.5 -1.5q2 0 14 1.5t15 1.5q33 0 33 -24q0 -2 -2 -15.5t-2 -16.5q0 -1 1 -8v-9q0 -23 -30 -23q-3 0 -24 1.5t-25 1.5q-10 0 -19 -3h-14q-11 -1 -12 -1q-3 0 -20.5 1.5t-21.5 1.5q-2 0 -14 -1
t-14 -1h-19h-11q-10 -1 -12 -1q-29 0 -29 23q0 1 1.5 11.5t1.5 12.5q0 4 -1 11.5t-1 10.5z" />
    <glyph glyph-name="macron" unicode="&#x2c9;" horiz-adv-x="271" 
d="M2 668q0 27 31 27q6 0 41.5 -1.5t42.5 -1.5q9 0 28 2t28 2q2 0 16.5 -1.5t17.5 -1.5q2 0 14 1.5t15 1.5q33 0 33 -24q0 -2 -2 -15.5t-2 -16.5q0 -1 1 -8v-9q0 -23 -30 -23q-3 0 -24 1.5t-25 1.5q-10 0 -19 -3h-14q-11 -1 -12 -1q-3 0 -20.5 1.5t-21.5 1.5q-2 0 -14 -1
t-14 -1h-19h-11q-10 -1 -12 -1q-29 0 -29 23q0 1 1.5 11.5t1.5 12.5q0 4 -1 11.5t-1 10.5z" />
    <glyph glyph-name="twosuperior" unicode="&#xb2;" horiz-adv-x="313" 
d="M179 366h34h11q10 -1 11 -1q2 0 14.5 1t15.5 1q22 0 22 -21v-29q-1 -24 -1 -29q0 -23 -27 -23q-5 0 -16 1h-16h-69q-3 0 -24 1h-24q-5 0 -33 -1t-34 -1q-21 0 -21 22v46q0 18 19 32q32 24 58 59q4 6 13 21q32 43 40 59q17 32 17 71q0 34 -24 34q-22 0 -22 -41q0 -2 1 -11
v-12q0 -18 -23 -23q-1 0 -12 1h-12h-14q-13 -1 -15 -1q-15 0 -21 12q-2 4 -2 46q0 76 39 108q32 26 91 26q18 0 32 -2q35 -10 53 -23q48 -35 48 -106q0 -64 -35 -128q-13 -23 -23 -37q-19 -26 -51 -52z" />
    <glyph glyph-name="threesuperior" unicode="&#xb3;" horiz-adv-x="313" 
d="M18 630q0 9 7 17q5 5 39 36t88 31q50 0 82 -28q38 -33 38 -89q0 -48 -28 -77q-9 -9 -9 -13q0 -5 2 -7q8 -7 18 -17q30 -32 30 -87q0 -51 -41 -95q-19 -20 -35 -28q-33 -16 -79 -16q-55 0 -95 39q-24 23 -24 41q0 10 10 23q38 49 49 49q9 0 17 -10q23 -30 41 -30
q41 0 41 43q0 7 -4 15q-13 19 -38 19h-7q-7 -1 -8 -1q-17 0 -20 14q-2 9 -2 58q0 16 7 19.5t25.5 3.5t26.5 7q12 10 12 27q0 26 -27 26q-23 0 -36 -18.5t-23 -18.5q-8 0 -13 5t-20 25l-12 16t-12 21z" />
    <glyph glyph-name="acute" unicode="&#xb4;" horiz-adv-x="271" 
d="M105 590h-7h-19q-17 -1 -20 -1q-20 0 -20 14q0 6 5 15t20 51q13 36 33 36h9q6 -1 10 -1q8 -2 46 -2q7 0 21 1h21q28 0 28 -13q0 -10 -22 -30q-25 -23 -54 -55q-15 -17 -26 -17q-1 0 -12 1t-13 1z" />
    <glyph glyph-name="mu" unicode="&#xb5;" 
d="M184 5v-21q0 -3 1 -19t1 -19q0 -35 -33 -35q-3 0 -26 2t-28 2q-2 0 -17 -1h-17q-33 0 -33 45q0 8 1.5 55.5t1.5 56.5v35q0 9 1 28v27q0 27 -3 54v29q0 46 2 86t2 59q0 26 -4 70q-1 11 -1 31q0 30 4 40q7 15 31 16h29q25 -1 29 -1h50q24 0 24 -34q0 -3 -2 -23.5t-2 -24.5
t1.5 -31.5t1.5 -33.5q0 -4 -1.5 -29t-1.5 -29q-2 -39 -2 -77q0 -3 1 -20t1 -20v-26q0 -29 14 -47q11 -14 21 -14t18 15q9 19 9 50v18q-1 16 -1 19q0 6 2 43t2 44q0 5 -1.5 30t-1.5 29t1 25.5t1 25.5q0 5 -2.5 37.5t-2.5 38.5q0 35 43 35q8 0 24.5 -1t24.5 -1q4 0 27 1h26
q27 0 27 -32q0 -4 -2 -29t-2 -30q0 -4 1.5 -30.5t1.5 -31.5q0 -4 -1.5 -32t-1.5 -33q0 -4 1 -32.5t1 -34.5t-2 -44q-1 -19 -1 -42q0 -4 1 -27.5t1 -28.5v-8q-1 -6 -1 -8q0 -12 1 -37.5t1 -37.5q0 -27 -31 -27q-2 0 -12.5 1t-12.5 1q-19 0 -42 -4q-9 -3 -20 -3
q-10 0 -19 13.5t-14 13.5q-2 0 -18 -12q-19 -15 -30 -15q-12 0 -20 8q-5 4 -14 11q-7 0 -7 -9z" />
    <glyph glyph-name="mu" unicode="&#x3bc;" 
d="M184 5v-21q0 -3 1 -19t1 -19q0 -35 -33 -35q-3 0 -26 2t-28 2q-2 0 -17 -1h-17q-33 0 -33 45q0 8 1.5 55.5t1.5 56.5v35q0 9 1 28v27q0 27 -3 54v29q0 46 2 86t2 59q0 26 -4 70q-1 11 -1 31q0 30 4 40q7 15 31 16h29q25 -1 29 -1h50q24 0 24 -34q0 -3 -2 -23.5t-2 -24.5
t1.5 -31.5t1.5 -33.5q0 -4 -1.5 -29t-1.5 -29q-2 -39 -2 -77q0 -3 1 -20t1 -20v-26q0 -29 14 -47q11 -14 21 -14t18 15q9 19 9 50v18q-1 16 -1 19q0 6 2 43t2 44q0 5 -1.5 30t-1.5 29t1 25.5t1 25.5q0 5 -2.5 37.5t-2.5 38.5q0 35 43 35q8 0 24.5 -1t24.5 -1q4 0 27 1h26
q27 0 27 -32q0 -4 -2 -29t-2 -30q0 -4 1.5 -30.5t1.5 -31.5q0 -4 -1.5 -32t-1.5 -33q0 -4 1 -32.5t1 -34.5t-2 -44q-1 -19 -1 -42q0 -4 1 -27.5t1 -28.5v-8q-1 -6 -1 -8q0 -12 1 -37.5t1 -37.5q0 -27 -31 -27q-2 0 -12.5 1t-12.5 1q-19 0 -42 -4q-9 -3 -20 -3
q-10 0 -19 13.5t-14 13.5q-2 0 -18 -12q-19 -15 -30 -15q-12 0 -20 8q-5 4 -14 11q-7 0 -7 -9z" />
    <glyph glyph-name="periodcentered" unicode="&#xb7;" horiz-adv-x="208" 
d="M18 295q0 40 4 51q9 25 57 22h73q36 0 36 -41v-31q-1 -26 -1 -31q0 -2 1 -15t1 -16q0 -45 -40 -45h-83q-47 0 -47 36v28v21q-1 18 -1 21z" />
    <glyph glyph-name="periodcentered" unicode="&#x2219;" horiz-adv-x="208" 
d="M18 295q0 40 4 51q9 25 57 22h73q36 0 36 -41v-31q-1 -26 -1 -31q0 -2 1 -15t1 -16q0 -45 -40 -45h-83q-47 0 -47 36v28v21q-1 18 -1 21z" />
    <glyph glyph-name="cedilla" unicode="&#xb8;" horiz-adv-x="271" 
d="M120 28l56 -1q-13 -36 -13 -42t9 -10q41 -17 41 -52q0 -31 -24 -61t-76 -30h-21q-18 1 -22 1q-13 0 -13 12q0 -2 5 23q1 21 6 25t24 4q31 0 31 16q0 11 -9 15q-6 1 -17 5q-5 5 -5 14q9 26 20 61q2 6 8 20z" />
    <glyph glyph-name="onesuperior" unicode="&#xb9;" horiz-adv-x="313" 
d="M131 518v38q0 14 -2 18q-3 0 -24 -23q-14 -16 -21 -16q-6 0 -13 5q-11 9 -26 20q-12 7 -12 17t21 29q18 17 42 44q15 14 34 33q21 23 34 23h11q16 -2 26 -2q11 0 17 1q3 1 10 1q19 0 19 -34q0 -7 -1 -44.5t-1 -40.5t1 -21v-22v-34q-1 8 -1 -58q0 -1 1 -11v-12.5v-10.5
q-1 -7 -1.5 -11t-0.5 -44q0 -5 1 -34.5t1 -35.5q0 -28 -28 -28q-3 0 -18.5 1t-18.5 1h-15q-12 -1 -15 -1q-26 0 -26 26l3 33q2 22 2 33q0 4 -1 26.5t-1 26.5q0 8 1 22v22v21q0 3 1 21t1 21z" />
    <glyph glyph-name="ordmasculine" unicode="&#xba;" horiz-adv-x="313" 
d="M28 513v20q0 34 9 80q10 50 39 73q33 26 83 26q68 0 103 -52q23 -35 23 -127q0 -80 -23 -122q-32 -58 -104 -58q-130 0 -130 160zM180 518v54q0 41 -23 41q-18 0 -24 -30q-3 -19 -3 -75q0 -51 24 -51q26 0 26 61z" />
    <glyph glyph-name="guillemotright" unicode="&#xbb;" horiz-adv-x="292" 
d="M21 232q0 18 13 25q22 12 22 17q0 4 -15.5 12.5t-17.5 14t-1 25.5v21q-1 20 -1 22q0 6 1 16v16q0 20 15 20q7 0 19 -9t51 -35q27 -18 28 -38v-33q-1 -33 -1 -39q0 -3 1 -21v-22q0 -22 -8 -30q-31 -22 -73 -53q-11 -11 -20 -11q-11 0 -13 8v18v76zM146 238q0 16 14 23
q24 12 24 18q0 4 -16.5 12t-19.5 14.5t-2 24.5v68q0 24 16 24q5 0 17 -8q25 -17 61 -40q18 -11 22 -16.5t5 -18.5v-74q0 -2 1 -18v-18q0 -15 -4 -21t-24 -19q-3 -1 -26 -18q-26 -18 -35 -27q-14 -13 -19 -13q-17 0 -14 21v86z" />
    <glyph glyph-name="questiondown" unicode="&#xbf;" horiz-adv-x="333" 
d="M93 646v22q0 26 18 35q9 6 77 4h18q15 1 18 1q37 0 37 -42v-16q-1 -14 -1 -17t1 -24.5t1 -25.5q0 -55 -43 -55h-71q-57 0 -57 40q0 5 1 38t1 40zM80 304q36 68 36 157q0 24 25 24q-3 0 12 -1q24 -2 30 -2q2 0 13 1h13q28 0 28 -36q0 -72 -8 -111q-5 -27 -28 -89
q-9 -25 -9 -36q0 -19 13 -31t27 -12q7 0 14 3q14 6 18 7q-1 0 11 -3q13 -6 13 -19v-48q0 -3 1 -23t1 -24q0 6 -2 -23q-1 -14 -2 -17q-2 -6 -9 -11.5t-42 -11t-59 -5.5q-33 0 -52 5q-35 9 -54 27q-44 41 -44 109q0 65 26 119q10 17 28 51z" />
    <glyph glyph-name="Agrave" unicode="&#xc0;" horiz-adv-x="500" 
d="M46 298q5 30 15 89q2 17 7 53q5 25 16 76q5 40 18 118q11 51 23 63t45 12q15 0 46 -2t47 -2q14 0 37 1q28 1 38 1q28 0 38.5 -9t16.5 -37q14 -66 15 -77q5 -38 12 -90q14 -69 32 -165q5 -29 10 -82q6 -65 31 -175q3 -13 3 -30t-9 -29.5t-22 -12.5q-5 0 -33.5 1.5
t-34.5 1.5q-3 0 -25.5 -1.5t-26.5 -1.5q-33 0 -33 36q0 7 -4 44q-4 33 -15 38q-4 2 -64 2q-28 0 -34 -10t-9 -73q-2 -37 -34 -37q-3 0 -23.5 1.5t-24.5 1.5h-30q-26 -1 -31 -1q-22 0 -29 4q-12 8 -12 23q0 -8 23 138q2 12 7 35q6 40 14 96zM219 371q-6 -32 -6 -44
q0 -37 30 -37q42 0 39 34q0 19 -6 76q-3 16 -8 48l-5 37q-3 19 -12 19q-8 0 -12 -25q-2 -16 -9 -41q-3 -23 -11 -67zM193 857q36 0 54 1l25 2q20 0 32 -34q4 -10 12 -31l14 -37q0 -14 -23 -14q-2 0 -19 1h-20q-2 0 -14.5 -1t-15.5 -1q-4 0 -10.5 3t-37.5 39q-12 11 -35 34
q-19 19 -19 26q0 14 26 14q2 0 15 -1t16 -1z" />
    <glyph glyph-name="Aacute" unicode="&#xc1;" horiz-adv-x="500" 
d="M46 298q5 30 15 89q2 17 7 53q5 25 16 76q5 40 18 118q11 51 23 63t45 12q15 0 46 -2t47 -2q14 0 37 1q28 1 38 1q28 0 38.5 -9t16.5 -37q14 -66 15 -77q5 -38 12 -90q14 -69 32 -165q5 -29 10 -82q6 -65 31 -175q3 -13 3 -30t-9 -29.5t-22 -12.5q-5 0 -33.5 1.5
t-34.5 1.5q-3 0 -25.5 -1.5t-26.5 -1.5q-33 0 -33 36q0 7 -4 44q-4 33 -15 38q-4 2 -64 2q-28 0 -34 -10t-9 -73q-2 -37 -34 -37q-3 0 -23.5 1.5t-24.5 1.5h-30q-26 -1 -31 -1q-22 0 -29 4q-12 8 -12 23q0 -8 23 138q2 12 7 35q6 40 14 96zM219 371q-6 -32 -6 -44
q0 -37 30 -37q42 0 39 34q0 19 -6 76q-3 16 -8 48l-5 37q-3 19 -12 19q-8 0 -12 -25q-2 -16 -9 -41q-3 -23 -11 -67zM170 758q0 4 5 15q11 24 19 49q13 38 35 38q7 0 20.5 -1.5t48.5 -1.5h22q12 2 17 2q26 0 26 -14q0 -9 -21 -29t-60 -61q-11 -12 -21 -12q-1 0 -12 1t-13 1
h-23q-19 -1 -23 -1q-20 0 -20 14z" />
    <glyph glyph-name="Acircumflex" unicode="&#xc2;" horiz-adv-x="500" 
d="M46 298q5 30 15 89q2 17 7 53q5 25 16 76q5 40 18 118q11 51 23 63t45 12q15 0 46 -2t47 -2q14 0 37 1q28 1 38 1q28 0 38.5 -9t16.5 -37q14 -66 15 -77q5 -38 12 -90q14 -69 32 -165q5 -29 10 -82q6 -65 31 -175q3 -13 3 -30t-9 -29.5t-22 -12.5q-5 0 -33.5 1.5
t-34.5 1.5q-3 0 -25.5 -1.5t-26.5 -1.5q-33 0 -33 36q0 7 -4 44q-4 33 -15 38q-4 2 -64 2q-28 0 -34 -10t-9 -73q-2 -37 -34 -37q-3 0 -23.5 1.5t-24.5 1.5h-30q-26 -1 -31 -1q-22 0 -29 4q-12 8 -12 23q0 -8 23 138q2 12 7 35q6 40 14 96zM219 371q-6 -32 -6 -44
q0 -37 30 -37q42 0 39 34q0 19 -6 76q-3 16 -8 48l-5 37q-3 19 -12 19q-8 0 -12 -25q-2 -16 -9 -41q-3 -23 -11 -67zM239 859q4 0 27 1t27 1q21 0 30 -6t31 -37q1 -1 28 -31q22 -24 22 -30q-1 -12 -12 -12q-4 0 -28.5 1t-29.5 1h-14q-12 -1 -14 -1q-15 0 -24 8l-16 19
q-13 16 -18 16q-3 0 -16 -17q-18 -24 -35 -24q-3 0 -15 1h-15h-17q-14 -1 -17 -1t-22 -1q-15 -1 -15 12q0 6 8 13.5t22.5 23.5t32.5 38q20 26 44 26h18q15 -1 18 -1z" />
    <glyph glyph-name="Atilde" unicode="&#xc3;" horiz-adv-x="500" 
d="M46 298q5 30 15 89q2 17 7 53q5 25 16 76q5 40 18 118q11 51 23 63t45 12q15 0 46 -2t47 -2q14 0 37 1q28 1 38 1q28 0 38.5 -9t16.5 -37q14 -66 15 -77q5 -38 12 -90q14 -69 32 -165q5 -29 10 -82q6 -65 31 -175q3 -13 3 -30t-9 -29.5t-22 -12.5q-5 0 -33.5 1.5
t-34.5 1.5q-3 0 -25.5 -1.5t-26.5 -1.5q-33 0 -33 36q0 7 -4 44q-4 33 -15 38q-4 2 -64 2q-28 0 -34 -10t-9 -73q-2 -37 -34 -37q-3 0 -23.5 1.5t-24.5 1.5h-30q-26 -1 -31 -1q-22 0 -29 4q-12 8 -12 23q0 -8 23 138q2 12 7 35q6 40 14 96zM219 371q-6 -32 -6 -44
q0 -37 30 -37q42 0 39 34q0 19 -6 76q-3 16 -8 48l-5 37q-3 19 -12 19q-8 0 -12 -25q-2 -16 -9 -41q-3 -23 -11 -67zM402 831v-22q0 -74 -59 -74q-22 0 -70 14q-40 12 -54 17q-6 3 -11 3q-10 0 -10 -11q0 -19 -16 -19h-5q-3 1 -4 1q-9 1 -26 1h-12q-10 -1 -12 -1
q-19 0 -19 23q0 37 3 53q8 42 61 42q38 0 113 -25q12 -4 17 -4q6 0 9 3q0 4 3.5 12.5t13.5 8.5q7 0 10 -1q7 -1 21 -1q2 0 15 1h15q17 0 17 -21z" />
    <glyph glyph-name="Adieresis" unicode="&#xc4;" horiz-adv-x="500" 
d="M46 298q5 30 15 89q2 17 7 53q5 25 16 76q5 40 18 118q11 51 23 63t45 12q15 0 46 -2t47 -2q14 0 37 1q28 1 38 1q28 0 38.5 -9t16.5 -37q14 -66 15 -77q5 -38 12 -90q14 -69 32 -165q5 -29 10 -82q6 -65 31 -175q3 -13 3 -30t-9 -29.5t-22 -12.5q-5 0 -33.5 1.5
t-34.5 1.5q-3 0 -25.5 -1.5t-26.5 -1.5q-33 0 -33 36q0 7 -4 44q-4 33 -15 38q-4 2 -64 2q-28 0 -34 -10t-9 -73q-2 -37 -34 -37q-3 0 -23.5 1.5t-24.5 1.5h-30q-26 -1 -31 -1q-22 0 -29 4q-12 8 -12 23q0 -8 23 138q2 12 7 35q6 40 14 96zM219 371q-6 -32 -6 -44
q0 -37 30 -37q42 0 39 34q0 19 -6 76q-3 16 -8 48l-5 37q-3 19 -12 19q-8 0 -12 -25q-2 -16 -9 -41q-3 -23 -11 -67zM89 829q0 24 30 24q4 0 27.5 -1.5t28.5 -1.5q3 0 23 1h23q29 0 29 -18v-15q-1 -12 -1 -14v-29q0 -25 -35 -25q-5 0 -38.5 1t-39.5 1h-12q-10 -1 -11 -1
q-24 0 -24 22v5q1 3 1 4q1 9 1 19q0 2 -1 13.5t-1 14.5zM276 831q0 19 24 17h15h26q22 -1 26 -1t24 1t23 1q25 0 25 -17v-5q-2 -8 -2 -24q0 -2 1 -15v-15q0 -25 -32 -25q-4 0 -26.5 1.5t-27.5 1.5h-20q-17 -1 -20 -1q-33 0 -36 17q1 -5 1 29v17q-1 15 -1 18z" />
    <glyph glyph-name="Aring" unicode="&#xc5;" horiz-adv-x="500" 
d="M46 298q5 30 15 89q2 17 7 53q5 25 16 76q5 40 18 118q11 51 23 63t45 12q15 0 46 -2t47 -2q14 0 37 1q28 1 38 1q28 0 38.5 -9t16.5 -37q14 -66 15 -77q5 -38 12 -90q14 -69 32 -165q5 -29 10 -82q6 -65 31 -175q3 -13 3 -30t-9 -29.5t-22 -12.5q-5 0 -33.5 1.5
t-34.5 1.5q-3 0 -25.5 -1.5t-26.5 -1.5q-33 0 -33 36q0 7 -4 44q-4 33 -15 38q-4 2 -64 2q-28 0 -34 -10t-9 -73q-2 -37 -34 -37q-3 0 -23.5 1.5t-24.5 1.5h-30q-26 -1 -31 -1q-22 0 -29 4q-12 8 -12 23q0 -8 23 138q2 12 7 35q6 40 14 96zM219 371q-6 -32 -6 -44
q0 -37 30 -37q42 0 39 34q0 19 -6 76q-3 16 -8 48l-5 37q-3 19 -12 19q-8 0 -12 -25q-2 -16 -9 -41q-3 -23 -11 -67zM150 839q0 26 19 53q28 38 82 38q55 0 82 -29q21 -23 21 -64q0 -50 -37 -74q-40 -20 -68 -20q-62 0 -86 44q-13 24 -13 52zM253 870q-34 0 -34 -34
q0 -30 33 -30q32 0 32 33q0 11 -4 18q-8 13 -27 13z" />
    <glyph glyph-name="AE" unicode="&#xc6;" horiz-adv-x="708" 
d="M623 167l19 2q43 0 43 -39v-16q-1 -14 -1 -17t1 -26v-27q0 -35 -23 -39q-9 -2 -49 -3h-52q-50 1 -54 1h-45q-30 -1 -45 -1q-3 0 -24.5 -1t-25.5 -1q-37 0 -38 41q-1 15 -5 28q-8 34 -12 41t-19 7h-15q-10 -1 -15 -1q-2 0 -16 1t-17 1q-17 0 -30 -42q-8 -30 -17 -62
q-6 -13 -25 -13q-3 0 -22 1t-23 1q-1 0 -40.5 -1t-47.5 -1q-20 0 -20 17q7 39 9 41q7 25 19 77q5 35 17 104q10 48 23 115q8 39 14 84q3 25 6 41q9 41 20 98q2 14 5 42q12 90 66 90q5 0 33 -2t33 -2t34 1h33q7 0 52 -2t54 -2q5 0 35 1t36 1h37q24 -1 36 -1q29 0 50 2
q31 3 26 3q28 0 28 -36q0 -3 -1 -23t-1 -24q0 -2 1 -16v-17q0 -34 -23 -42q-5 -2 -27 -2q-7 -1 -31 -3h-37h-21q-17 -1 -21 -1q-2 0 -14 1h-14q-49 0 -49 -33q0 -3 1.5 -14.5t10.5 -33.5q13 -18 47 -18q5 0 31 1.5t30 1.5q3 0 19 -1t19 -1t20 1t21 1q30 0 32 -48
q1 -25 1 -77q0 -38 -36 -38q2 0 -22 1t-49 1q-50 0 -61 -7q-15 -10 -15 -31q0 -15 6 -46q2 -12 6 -18q7 -13 22 -17q31 -1 74 -3q25 -1 21 -1q8 0 12 1zM297 321q0 20 -3 29q-3 29 -13 97q-4 18 -5 33q-5 20 -9 20t-9 -9q-2 -14 -6 -33q-20 -97 -20 -130q0 -39 35 -39
q30 0 30 32z" />
    <glyph glyph-name="Ccedilla" unicode="&#xc7;" horiz-adv-x="375" 
d="M360 675v-16q-2 -16 -2 -46q0 -5 1 -32v-33q0 -39 -33 -39q-2 0 -15.5 2.5t-16.5 2.5q-7 0 -26.5 -8t-25.5 -12q-44 -32 -44 -156q0 -42 12 -76.5t34 -49.5q4 -4 22 -14q24 -13 39 -13q2 0 14 1.5t15 1.5q25 0 25 -34q0 -3 -1.5 -24t-1.5 -25q0 -13 2 -51l1 -19
q0 -42 -45 -42q-4 0 -29 1t-30 1q-9 0 -9 -8q0 -10 7 -13l14 -6q29 -17 29 -47q0 -27 -21 -57q-25 -35 -73 -35q-42 0 -52.5 1t-10.5 12q1 3 3 10q1 13 3.5 27t12.5 16h16q31 0 31 16q0 9 -7 14q-5 1 -14.5 5t-9.5 14q0 6 10 33t10 29t-10 4q-15 5 -29 13q-35 20 -61 53
q-10 10 -23 27q-34 44 -49 115q-11 51 -11 137q0 85 19 164q14 58 49 99q14 17 56 46q13 10 41 27q46 23 114 23q40 0 52 -5q18 -8 18 -34z" />
    <glyph glyph-name="Egrave" unicode="&#xc8;" horiz-adv-x="437" 
d="M322 707h21q3 0 16 1h16q30 0 30 -31q0 -4 -1.5 -27t-1.5 -28q0 -2 1 -16v-18q0 -37 -36 -40h-17q-2 0 -15 -1t-16 -1t-20.5 1.5t-21.5 1.5q-44 0 -55 -17q-4 -6 -4 -37q0 -49 35 -49q2 0 14.5 1t15.5 1t20 -1t21 -1q2 0 16 1h16q39 0 39 -40q0 -3 -1 -20.5t-1 -21.5
q0 -3 1 -20.5t1 -21.5q0 -11 -3 -18q-10 -23 -40 -23q-5 0 -40 2t-41 2q-36 0 -47 -19q-5 -9 -5 -52q0 -38 25 -45q11 -3 40 -3l50 -5q7 0 21.5 1.5t21.5 1.5q37 0 37 -36q0 -8 -1 -23.5t-1 -23.5q0 -3 1 -21v-22q0 -40 -36 -40q-2 0 -17 1t-18 1h-17q-14 -1 -17 -1
q-10 0 -31 1t-32 1h-18q-15 -1 -18 -1q-2 0 -17 1h-17q-17 0 -50 -1t-50 -1q-18 0 -29.5 11.5t-11.5 27.5v6q1 4 1 6q2 24 2 63v31q-1 27 -1 31t1.5 24t1.5 23v23q-1 20 -1 23q0 6 1 42v44q0 6 -1 47t-1 49q0 18 1 53.5t1 52.5v38q-1 32 -1 38q0 44 6 57q10 20 45 20
q5 0 30 -1q7 0 17 -1t12 -1h52q6 0 41.5 -1t42.5 -1q2 0 18.5 1t19.5 1zM162 857q36 0 54 1l25 2q20 0 32 -34q4 -10 12 -31l14 -37q0 -14 -23 -14q-2 0 -19 1h-20q-2 0 -14.5 -1t-15.5 -1q-4 0 -10.5 3t-37.5 39q-12 11 -35 34q-19 19 -19 26q0 14 26 14q2 0 15 -1t16 -1z
" />
    <glyph glyph-name="Eacute" unicode="&#xc9;" horiz-adv-x="437" 
d="M322 707h21q3 0 16 1h16q30 0 30 -31q0 -4 -1.5 -27t-1.5 -28q0 -2 1 -16v-18q0 -37 -36 -40h-17q-2 0 -15 -1t-16 -1t-20.5 1.5t-21.5 1.5q-44 0 -55 -17q-4 -6 -4 -37q0 -49 35 -49q2 0 14.5 1t15.5 1t20 -1t21 -1q2 0 16 1h16q39 0 39 -40q0 -3 -1 -20.5t-1 -21.5
q0 -3 1 -20.5t1 -21.5q0 -11 -3 -18q-10 -23 -40 -23q-5 0 -40 2t-41 2q-36 0 -47 -19q-5 -9 -5 -52q0 -38 25 -45q11 -3 40 -3l50 -5q7 0 21.5 1.5t21.5 1.5q37 0 37 -36q0 -8 -1 -23.5t-1 -23.5q0 -3 1 -21v-22q0 -40 -36 -40q-2 0 -17 1t-18 1h-17q-14 -1 -17 -1
q-10 0 -31 1t-32 1h-18q-15 -1 -18 -1q-2 0 -17 1h-17q-17 0 -50 -1t-50 -1q-18 0 -29.5 11.5t-11.5 27.5v6q1 4 1 6q2 24 2 63v31q-1 27 -1 31t1.5 24t1.5 23v23q-1 20 -1 23q0 6 1 42v44q0 6 -1 47t-1 49q0 18 1 53.5t1 52.5v38q-1 32 -1 38q0 44 6 57q10 20 45 20
q5 0 30 -1q7 0 17 -1t12 -1h52q6 0 41.5 -1t42.5 -1q2 0 18.5 1t19.5 1zM139 758q0 4 5 15q11 24 19 49q13 38 35 38q7 0 20.5 -1.5t48.5 -1.5h22q12 2 17 2q26 0 26 -14q0 -9 -21 -29t-60 -61q-11 -12 -21 -12q-1 0 -12 1t-13 1h-23q-19 -1 -23 -1q-20 0 -20 14z" />
    <glyph glyph-name="Ecircumflex" unicode="&#xca;" horiz-adv-x="437" 
d="M322 707h21q3 0 16 1h16q30 0 30 -31q0 -4 -1.5 -27t-1.5 -28q0 -2 1 -16v-18q0 -37 -36 -40h-17q-2 0 -15 -1t-16 -1t-20.5 1.5t-21.5 1.5q-44 0 -55 -17q-4 -6 -4 -37q0 -49 35 -49q2 0 14.5 1t15.5 1t20 -1t21 -1q2 0 16 1h16q39 0 39 -40q0 -3 -1 -20.5t-1 -21.5
q0 -3 1 -20.5t1 -21.5q0 -11 -3 -18q-10 -23 -40 -23q-5 0 -40 2t-41 2q-36 0 -47 -19q-5 -9 -5 -52q0 -38 25 -45q11 -3 40 -3l50 -5q7 0 21.5 1.5t21.5 1.5q37 0 37 -36q0 -8 -1 -23.5t-1 -23.5q0 -3 1 -21v-22q0 -40 -36 -40q-2 0 -17 1t-18 1h-17q-14 -1 -17 -1
q-10 0 -31 1t-32 1h-18q-15 -1 -18 -1q-2 0 -17 1h-17q-17 0 -50 -1t-50 -1q-18 0 -29.5 11.5t-11.5 27.5v6q1 4 1 6q2 24 2 63v31q-1 27 -1 31t1.5 24t1.5 23v23q-1 20 -1 23q0 6 1 42v44q0 6 -1 47t-1 49q0 18 1 53.5t1 52.5v38q-1 32 -1 38q0 44 6 57q10 20 45 20
q5 0 30 -1q7 0 17 -1t12 -1h52q6 0 41.5 -1t42.5 -1q2 0 18.5 1t19.5 1zM208 859q4 0 27 1t27 1q21 0 30 -6t31 -37q1 -1 28 -31q22 -24 22 -30q-1 -12 -12 -12q-4 0 -28.5 1t-29.5 1h-14q-12 -1 -14 -1q-15 0 -24 8l-16 19q-13 16 -18 16q-3 0 -16 -17q-18 -24 -35 -24
q-3 0 -15 1h-15h-17q-14 -1 -17 -1t-22 -1q-15 -1 -15 12q0 6 8 13.5t22.5 23.5t32.5 38q20 26 44 26h18q15 -1 18 -1z" />
    <glyph glyph-name="Edieresis" unicode="&#xcb;" horiz-adv-x="437" 
d="M322 707h21q3 0 16 1h16q30 0 30 -31q0 -4 -1.5 -27t-1.5 -28q0 -2 1 -16v-18q0 -37 -36 -40h-17q-2 0 -15 -1t-16 -1t-20.5 1.5t-21.5 1.5q-44 0 -55 -17q-4 -6 -4 -37q0 -49 35 -49q2 0 14.5 1t15.5 1t20 -1t21 -1q2 0 16 1h16q39 0 39 -40q0 -3 -1 -20.5t-1 -21.5
q0 -3 1 -20.5t1 -21.5q0 -11 -3 -18q-10 -23 -40 -23q-5 0 -40 2t-41 2q-36 0 -47 -19q-5 -9 -5 -52q0 -38 25 -45q11 -3 40 -3l50 -5q7 0 21.5 1.5t21.5 1.5q37 0 37 -36q0 -8 -1 -23.5t-1 -23.5q0 -3 1 -21v-22q0 -40 -36 -40q-2 0 -17 1t-18 1h-17q-14 -1 -17 -1
q-10 0 -31 1t-32 1h-18q-15 -1 -18 -1q-2 0 -17 1h-17q-17 0 -50 -1t-50 -1q-18 0 -29.5 11.5t-11.5 27.5v6q1 4 1 6q2 24 2 63v31q-1 27 -1 31t1.5 24t1.5 23v23q-1 20 -1 23q0 6 1 42v44q0 6 -1 47t-1 49q0 18 1 53.5t1 52.5v38q-1 32 -1 38q0 44 6 57q10 20 45 20
q5 0 30 -1q7 0 17 -1t12 -1h52q6 0 41.5 -1t42.5 -1q2 0 18.5 1t19.5 1zM42 833q0 24 30 24q4 0 27.5 -1.5t28.5 -1.5q3 0 23 1h23q29 0 29 -18v-15q-1 -12 -1 -14v-29q0 -25 -35 -25q-5 0 -38.5 1t-39.5 1h-12q-10 -1 -11 -1q-24 0 -24 22v5q1 3 1 4q1 9 1 19q0 2 -1 13.5
t-1 14.5zM229 835q0 19 24 17h15h26q22 -1 26 -1t24 1t23 1q25 0 25 -17v-5q-2 -8 -2 -24q0 -2 1 -15v-15q0 -25 -32 -25q-4 0 -26.5 1.5t-27.5 1.5h-20q-17 -1 -20 -1q-33 0 -36 17q1 -5 1 29v17q-1 15 -1 18z" />
    <glyph glyph-name="Igrave" unicode="&#xcc;" horiz-adv-x="250" 
d="M216 342v-49q0 -7 2 -51.5t2 -53.5q0 -5 -1.5 -37.5t-1.5 -38.5t2 -41.5t2 -42.5q0 -26 -31 -26q-3 0 -20.5 1t-21.5 1q-5 0 -34 -1.5t-34 -1.5h-6q-32 0 -37 22q-1 4 -1 65q0 4 1.5 31t1.5 32v73q0 7 -1.5 51t-1.5 52v125q0 7 1.5 52.5t1.5 54.5v68q0 4 -1.5 24.5
t-1.5 23.5q0 20 16 29q5 3 30 3h31q26 -1 31 -1q22 0 36 1t17 1q24 0 24 -37q0 -4 -1.5 -27.5t-1.5 -27.5q-1 -33 -1 -138q0 -5 1 -37v-38q0 -4 -1 -30t-1 -31zM68 857q36 0 54 1l25 2q20 0 32 -34q4 -10 12 -31l14 -37q0 -14 -23 -14q-2 0 -19 1h-20q-2 0 -14.5 -1
t-15.5 -1q-4 0 -10.5 3t-37.5 39q-12 11 -35 34q-19 19 -19 26q0 14 26 14q2 0 15 -1t16 -1z" />
    <glyph glyph-name="Iacute" unicode="&#xcd;" horiz-adv-x="250" 
d="M216 342v-49q0 -7 2 -51.5t2 -53.5q0 -5 -1.5 -37.5t-1.5 -38.5t2 -41.5t2 -42.5q0 -26 -31 -26q-3 0 -20.5 1t-21.5 1q-5 0 -34 -1.5t-34 -1.5h-6q-32 0 -37 22q-1 4 -1 65q0 4 1.5 31t1.5 32v73q0 7 -1.5 51t-1.5 52v125q0 7 1.5 52.5t1.5 54.5v68q0 4 -1.5 24.5
t-1.5 23.5q0 20 16 29q5 3 30 3h31q26 -1 31 -1q22 0 36 1t17 1q24 0 24 -37q0 -4 -1.5 -27.5t-1.5 -27.5q-1 -33 -1 -138q0 -5 1 -37v-38q0 -4 -1 -30t-1 -31zM45 758q0 4 5 15q11 24 19 49q13 38 35 38q7 0 20.5 -1.5t48.5 -1.5h22q12 2 17 2q26 0 26 -14q0 -9 -21 -29
t-60 -61q-11 -12 -21 -12q-1 0 -12 1t-13 1h-23q-19 -1 -23 -1q-20 0 -20 14z" />
    <glyph glyph-name="Icircumflex" unicode="&#xce;" horiz-adv-x="250" 
d="M216 342v-49q0 -7 2 -51.5t2 -53.5q0 -5 -1.5 -37.5t-1.5 -38.5t2 -41.5t2 -42.5q0 -26 -31 -26q-3 0 -20.5 1t-21.5 1q-5 0 -34 -1.5t-34 -1.5h-6q-32 0 -37 22q-1 4 -1 65q0 4 1.5 31t1.5 32v73q0 7 -1.5 51t-1.5 52v125q0 7 1.5 52.5t1.5 54.5v68q0 4 -1.5 24.5
t-1.5 23.5q0 20 16 29q5 3 30 3h31q26 -1 31 -1q22 0 36 1t17 1q24 0 24 -37q0 -4 -1.5 -27.5t-1.5 -27.5q-1 -33 -1 -138q0 -5 1 -37v-38q0 -4 -1 -30t-1 -31zM114 859q4 0 27 1t27 1q21 0 30 -6t31 -37q1 -1 28 -31q22 -24 22 -30q-1 -12 -12 -12q-4 0 -28.5 1t-29.5 1
h-14q-12 -1 -14 -1q-15 0 -24 8l-16 19q-13 16 -18 16q-3 0 -16 -17q-18 -24 -35 -24q-3 0 -15 1h-15h-17q-14 -1 -17 -1t-22 -1q-15 -1 -15 12q0 6 8 13.5t22.5 23.5t32.5 38q20 26 44 26h18q15 -1 18 -1z" />
    <glyph glyph-name="Idieresis" unicode="&#xcf;" horiz-adv-x="250" 
d="M216 342v-49q0 -7 2 -51.5t2 -53.5q0 -5 -1.5 -37.5t-1.5 -38.5t2 -41.5t2 -42.5q0 -26 -31 -26q-3 0 -20.5 1t-21.5 1q-5 0 -34 -1.5t-34 -1.5h-6q-32 0 -37 22q-1 4 -1 65q0 4 1.5 31t1.5 32v73q0 7 -1.5 51t-1.5 52v125q0 7 1.5 52.5t1.5 54.5v68q0 4 -1.5 24.5
t-1.5 23.5q0 20 16 29q5 3 30 3h31q26 -1 31 -1q22 0 36 1t17 1q24 0 24 -37q0 -4 -1.5 -27.5t-1.5 -27.5q-1 -33 -1 -138q0 -5 1 -37v-38q0 -4 -1 -30t-1 -31zM-52 833q0 24 30 24q4 0 27.5 -1.5t28.5 -1.5q3 0 23 1h23q29 0 29 -18v-15q-1 -12 -1 -14v-29q0 -25 -35 -25
q-5 0 -38.5 1t-39.5 1h-12q-10 -1 -11 -1q-24 0 -24 22v5q1 3 1 4q1 9 1 19q0 2 -1 13.5t-1 14.5zM135 835q0 19 24 17h15h26q22 -1 26 -1t24 1t23 1q25 0 25 -17v-5q-2 -8 -2 -24q0 -2 1 -15v-15q0 -25 -32 -25q-4 0 -26.5 1.5t-27.5 1.5h-20q-17 -1 -20 -1q-33 0 -36 17
q1 -5 1 29v17q-1 15 -1 18z" />
    <glyph glyph-name="Eth" unicode="&#xd0;" horiz-adv-x="521" 
d="M37 644q0 40 14 53q11 9 38 9q5 0 32.5 -1t33.5 -1t43 1t44 1q37 0 64 -5q49 -9 80 -33q7 -5 56 -60q21 -24 33 -58q10 -29 19 -93q10 -69 10 -121t-10 -97q-18 -81 -71 -153q-33 -44 -65 -62q-45 -24 -123 -24q-4 0 -32 1.5t-33 1.5q-10 0 -30 -1.5t-30 -1.5h-26
q-51 0 -51 46q0 7 2.5 50t2.5 51q0 13 -1 45.5t-1 44.5v27q-1 22 -1 27q0 1 1 7v6q0 12 -7 12h-4q-2 -1 -4 -1q-12 0 -12 14v27q-1 22 -1 26q0 22 11 22q2 0 5 -1t4 -1q9 0 9 8q0 5 -1 8v14v11q-1 10 -1 11q0 4 2 68t2 58q0 4 -1 31.5t-1 32.5zM265 314h-38q-15 0 -15 -17
q0 -2 1 -7v-7q1 -6 1 -19v-26q-1 -22 -1 -26q0 -31 10.5 -41.5t24.5 -10.5q10 1 17 4q18 9 26 32q3 7 14 76q8 48 8 72q0 67 -9 115q-14 75 -58 75q-34 0 -34 -47q0 -4 1 -23t1 -22q1 -37 3.5 -39t20.5 -3q2 0 14 1t14 1q20 0 20 -16v-29q0 -1 1 -12v-13q0 -18 -22 -18z" />
    <glyph glyph-name="Ntilde" unicode="&#xd1;" horiz-adv-x="542" 
d="M38 172v31v27q-1 22 -1 26q0 37 2 74t2 42q0 -7 -2 39q-1 23 -1 63t1 60.5t1 44.5q0 7 -1.5 49.5t-1.5 50.5q0 28 28 28q4 0 10.5 -1t10 -1.5t38.5 -0.5q5 0 30.5 1.5t27.5 1.5q18 0 25 -14q14 -21 34 -73q2 -4 5 -13q0 -10 19 -44q10 -18 22 -50l9 -18q8 -18 27 -77
q5 -15 9 -15q5 0 5 39v11q-1 7 -1 10q-2 12 -2 18q0 3 1 21t1 22q0 8 -2.5 57.5t-2.5 59.5q0 38 4 46q10 20 37 20h8q6 -1 9 -1q17 -1 59 -1q3 0 16 1h16q10 0 13 -2q14 -7 14 -25v-6q-1 -4 -1 -7q-4 -20 -4 -71q0 -8 1.5 -57.5t1.5 -59.5q0 -22 -1.5 -66t-1.5 -66
q0 -8 2 -59.5t2 -61.5q0 -8 -2.5 -57t-2.5 -58q0 -7 2 -51q0 -2 1.5 -15.5t1.5 -16.5q0 -14 -13 -21q-5 -3 -24 -3q-4 0 -25 1t-25 1q-5 0 -34.5 -1t-34.5 -1q-19 0 -28 33q-5 17 -18 43q-15 30 -18.5 41t-10.5 31q-11 24 -33 74q-3 6 -15 42q-16 47 -20 47t-4 -9
q0 -3 3 -27q5 -40 5 -77q0 -14 -1.5 -43t-1.5 -44q0 -6 2.5 -42t2.5 -43q0 -28 -30 -28q-5 0 -36.5 1t-37.5 1q-12 0 -36 -2q-4 -1 -13 -1q-27 0 -27 32q0 11 3.5 61.5t3.5 51.5q0 19 -2 27zM423 831v-22q0 -74 -59 -74q-22 0 -70 14q-40 12 -54 17q-6 3 -11 3
q-10 0 -10 -11q0 -19 -16 -19h-5q-3 1 -4 1q-9 1 -26 1h-12q-10 -1 -12 -1q-19 0 -19 23q0 37 3 53q8 42 61 42q38 0 113 -25q12 -4 17 -4q6 0 9 3q0 4 3.5 12.5t13.5 8.5q7 0 10 -1q7 -1 21 -1q2 0 15 1h15q17 0 17 -21z" />
    <glyph glyph-name="Ograve" unicode="&#xd2;" horiz-adv-x="521" 
d="M26 403q0 127 19.5 184.5t77.5 96.5q26 17 45 23q31 8 95 8q48 0 78 -11q24 -9 60 -35q26 -19 34 -28q54 -61 54 -229v-34q-1 -26 -1 -35q-1 -102 -11 -160q-15 -88 -46 -125q-34 -41 -85 -57q-38 -12 -79 -12q-150 0 -202 91q-19 33 -30 84q-8 38 -8 92q0 5 1 36v37
q0 5 -1 36.5t-1 37.5zM257 545q-49 0 -49 -81q0 -5 1 -35t1 -36q0 -10 -1.5 -70.5t-1.5 -72.5q0 -92 47 -92q44 0 47 58v43q0 5 2 39.5t2 41.5v27q-1 18 -1 27q0 2 1 19v19q0 24 -4 63q-5 50 -44 50zM203 857q36 0 54 1l25 2q20 0 32 -34q4 -10 12 -31l14 -37q0 -14 -23 -14
q-2 0 -19 1h-20q-2 0 -14.5 -1t-15.5 -1q-4 0 -10.5 3t-37.5 39q-12 11 -35 34q-19 19 -19 26q0 14 26 14q2 0 15 -1t16 -1z" />
    <glyph glyph-name="Oacute" unicode="&#xd3;" horiz-adv-x="521" 
d="M26 403q0 127 19.5 184.5t77.5 96.5q26 17 45 23q31 8 95 8q48 0 78 -11q24 -9 60 -35q26 -19 34 -28q54 -61 54 -229v-34q-1 -26 -1 -35q-1 -102 -11 -160q-15 -88 -46 -125q-34 -41 -85 -57q-38 -12 -79 -12q-150 0 -202 91q-19 33 -30 84q-8 38 -8 92q0 5 1 36v37
q0 5 -1 36.5t-1 37.5zM257 545q-49 0 -49 -81q0 -5 1 -35t1 -36q0 -10 -1.5 -70.5t-1.5 -72.5q0 -92 47 -92q44 0 47 58v43q0 5 2 39.5t2 41.5v27q-1 18 -1 27q0 2 1 19v19q0 24 -4 63q-5 50 -44 50zM180 758q0 4 5 15q11 24 19 49q13 38 35 38q7 0 20.5 -1.5t48.5 -1.5h22
q12 2 17 2q26 0 26 -14q0 -9 -21 -29t-60 -61q-11 -12 -21 -12q-1 0 -12 1t-13 1h-23q-19 -1 -23 -1q-20 0 -20 14z" />
    <glyph glyph-name="Ocircumflex" unicode="&#xd4;" horiz-adv-x="521" 
d="M26 403q0 127 19.5 184.5t77.5 96.5q26 17 45 23q31 8 95 8q48 0 78 -11q24 -9 60 -35q26 -19 34 -28q54 -61 54 -229v-34q-1 -26 -1 -35q-1 -102 -11 -160q-15 -88 -46 -125q-34 -41 -85 -57q-38 -12 -79 -12q-150 0 -202 91q-19 33 -30 84q-8 38 -8 92q0 5 1 36v37
q0 5 -1 36.5t-1 37.5zM257 545q-49 0 -49 -81q0 -5 1 -35t1 -36q0 -10 -1.5 -70.5t-1.5 -72.5q0 -92 47 -92q44 0 47 58v43q0 5 2 39.5t2 41.5v27q-1 18 -1 27q0 2 1 19v19q0 24 -4 63q-5 50 -44 50zM249 859q4 0 27 1t27 1q21 0 30 -6t31 -37q1 -1 28 -31q22 -24 22 -30
q-1 -12 -12 -12q-4 0 -28.5 1t-29.5 1h-14q-12 -1 -14 -1q-15 0 -24 8l-16 19q-13 16 -18 16q-3 0 -16 -17q-18 -24 -35 -24q-3 0 -15 1h-15h-17q-14 -1 -17 -1t-22 -1q-15 -1 -15 12q0 6 8 13.5t22.5 23.5t32.5 38q20 26 44 26h18q15 -1 18 -1z" />
    <glyph glyph-name="Otilde" unicode="&#xd5;" horiz-adv-x="521" 
d="M26 403q0 127 19.5 184.5t77.5 96.5q26 17 45 23q31 8 95 8q48 0 78 -11q24 -9 60 -35q26 -19 34 -28q54 -61 54 -229v-34q-1 -26 -1 -35q-1 -102 -11 -160q-15 -88 -46 -125q-34 -41 -85 -57q-38 -12 -79 -12q-150 0 -202 91q-19 33 -30 84q-8 38 -8 92q0 5 1 36v37
q0 5 -1 36.5t-1 37.5zM257 545q-49 0 -49 -81q0 -5 1 -35t1 -36q0 -10 -1.5 -70.5t-1.5 -72.5q0 -92 47 -92q44 0 47 58v43q0 5 2 39.5t2 41.5v27q-1 18 -1 27q0 2 1 19v19q0 24 -4 63q-5 50 -44 50zM412 831v-22q0 -74 -59 -74q-22 0 -70 14q-40 12 -54 17q-6 3 -11 3
q-10 0 -10 -11q0 -19 -16 -19h-5q-3 1 -4 1q-9 1 -26 1h-12q-10 -1 -12 -1q-19 0 -19 23q0 37 3 53q8 42 61 42q38 0 113 -25q12 -4 17 -4q6 0 9 3q0 4 3.5 12.5t13.5 8.5q7 0 10 -1q7 -1 21 -1q2 0 15 1h15q17 0 17 -21z" />
    <glyph glyph-name="Odieresis" unicode="&#xd6;" horiz-adv-x="521" 
d="M26 403q0 127 19.5 184.5t77.5 96.5q26 17 45 23q31 8 95 8q48 0 78 -11q24 -9 60 -35q26 -19 34 -28q54 -61 54 -229v-34q-1 -26 -1 -35q-1 -102 -11 -160q-15 -88 -46 -125q-34 -41 -85 -57q-38 -12 -79 -12q-150 0 -202 91q-19 33 -30 84q-8 38 -8 92q0 5 1 36v37
q0 5 -1 36.5t-1 37.5zM257 545q-49 0 -49 -81q0 -5 1 -35t1 -36q0 -10 -1.5 -70.5t-1.5 -72.5q0 -92 47 -92q44 0 47 58v43q0 5 2 39.5t2 41.5v27q-1 18 -1 27q0 2 1 19v19q0 24 -4 63q-5 50 -44 50zM81 832q0 24 30 24q4 0 27.5 -1.5t28.5 -1.5q3 0 23 1h23q29 0 29 -18
v-15q-1 -12 -1 -14v-29q0 -25 -35 -25q-5 0 -38.5 1t-39.5 1h-12q-10 -1 -11 -1q-24 0 -24 22v5q1 3 1 4q1 9 1 19q0 2 -1 13.5t-1 14.5zM268 834q0 19 24 17h15h26q22 -1 26 -1t24 1t23 1q25 0 25 -17v-5q-2 -8 -2 -24q0 -2 1 -15v-15q0 -25 -32 -25q-4 0 -26.5 1.5
t-27.5 1.5h-20q-17 -1 -20 -1q-33 0 -36 17q1 -5 1 29v17q-1 15 -1 18z" />
    <glyph glyph-name="Oslash" unicode="&#xd8;" horiz-adv-x="521" 
d="M427 662q2 2 15.5 19t16.5 20q9 7 18 7t26 -14q22 -19 22 -31q0 -9 -7 -23q-7 -8 -20 -25q-9 -13 -19 -34q14 -55 14 -139q0 -29 -2 -77q-3 -60 -3 -77q0 -24 -5 -90q-4 -35 -16 -70q-11 -30 -13 -35q-8 -20 -21 -35q-60 -69 -178 -69q-105 0 -157 50l-18 -27
q-14 -22 -28 -22q-8 0 -27 15q-5 2 -14 8q-13 9 -13 21q0 10 10 24q11 18 26 41q7 10 14 25q-2 3 -4 12q0 2 -8 47.5t-8 102.5q0 10 1 65q1 79 3 106q3 44 12 87q12 58 36 90q15 19 50 42q59 39 119 39q48 0 94 -8q35 -6 84 -45zM210 358l99 139q3 6 3 9q0 17 -14.5 30.5
t-31.5 13.5q-25 0 -39.5 -20.5t-14.5 -82.5q0 2 -1 -46q-1 -25 -1 -43zM312 332q0 4 -2 22q-4 -10 -19 -31q-29 -42 -71 -101q-10 -13 -10 -20q0 -17 11 -31q14 -17 37 -17q38 0 47 43q7 32 7 135z" />
    <glyph glyph-name="Ugrave" unicode="&#xd9;" horiz-adv-x="521" 
d="M38 642q0 33 3 43q7 21 32 21q4 0 31.5 -1.5t32.5 -1.5q10 0 17 1h16q30 0 39 -6q13 -8 13 -25q0 -7 -1 -11q-3 -36 -3 -80q0 -3 1 -23v-23v-20q-1 -16 -1 -19v-40q0 -6 -1.5 -45.5t-1.5 -47.5q0 -4 1 -30v-31v-37q-1 -24 -1 -37q0 -37 7 -49q12 -21 34 -21q14 0 27 8
q24 15 24 79v23q-1 19 -1 22q0 12 1 38v38q0 9 -2 64t-2 66q0 7 1.5 49.5t1.5 50.5v20q-1 14 -1 20q0 46 9.5 57.5t25.5 11.5q4 0 32 -1.5t34 -1.5q1 0 26 1l25 1q32 0 32 -38q0 -11 -1 -17q-4 -70 -4 -101q0 -13 1 -30q0 -2 1.5 -23.5t1.5 -26.5q0 -16 -2 -48.5t-2 -48.5
q0 -8 1.5 -61.5t1.5 -63.5q0 12 -3 -57q0 -14 -2 -42q-4 -40 -25 -72q-24 -36 -70 -60q-33 -17 -62 -22q-24 -4 -82 -4q-69 0 -132 37q-43 25 -59 65q-14 35 -14 99q0 8 1.5 54t1.5 55q0 11 -2 76.5t-2 77.5q0 6 1.5 45t1.5 46t-1 48t-1 49zM203 857q36 0 54 1l25 2
q20 0 32 -34q4 -10 12 -31l14 -37q0 -14 -23 -14q-2 0 -19 1h-20q-2 0 -14.5 -1t-15.5 -1q-4 0 -10.5 3t-37.5 39q-12 11 -35 34q-19 19 -19 26q0 14 26 14q2 0 15 -1t16 -1z" />
    <glyph glyph-name="Uacute" unicode="&#xda;" horiz-adv-x="521" 
d="M38 642q0 33 3 43q7 21 32 21q4 0 31.5 -1.5t32.5 -1.5q10 0 17 1h16q30 0 39 -6q13 -8 13 -25q0 -7 -1 -11q-3 -36 -3 -80q0 -3 1 -23v-23v-20q-1 -16 -1 -19v-40q0 -6 -1.5 -45.5t-1.5 -47.5q0 -4 1 -30v-31v-37q-1 -24 -1 -37q0 -37 7 -49q12 -21 34 -21q14 0 27 8
q24 15 24 79v23q-1 19 -1 22q0 12 1 38v38q0 9 -2 64t-2 66q0 7 1.5 49.5t1.5 50.5v20q-1 14 -1 20q0 46 9.5 57.5t25.5 11.5q4 0 32 -1.5t34 -1.5q1 0 26 1l25 1q32 0 32 -38q0 -11 -1 -17q-4 -70 -4 -101q0 -13 1 -30q0 -2 1.5 -23.5t1.5 -26.5q0 -16 -2 -48.5t-2 -48.5
q0 -8 1.5 -61.5t1.5 -63.5q0 12 -3 -57q0 -14 -2 -42q-4 -40 -25 -72q-24 -36 -70 -60q-33 -17 -62 -22q-24 -4 -82 -4q-69 0 -132 37q-43 25 -59 65q-14 35 -14 99q0 8 1.5 54t1.5 55q0 11 -2 76.5t-2 77.5q0 6 1.5 45t1.5 46t-1 48t-1 49zM180 758q0 4 5 15q11 24 19 49
q13 38 35 38q7 0 20.5 -1.5t48.5 -1.5h22q12 2 17 2q26 0 26 -14q0 -9 -21 -29t-60 -61q-11 -12 -21 -12q-1 0 -12 1t-13 1h-23q-19 -1 -23 -1q-20 0 -20 14z" />
    <glyph glyph-name="Ucircumflex" unicode="&#xdb;" horiz-adv-x="521" 
d="M38 642q0 33 3 43q7 21 32 21q4 0 31.5 -1.5t32.5 -1.5q10 0 17 1h16q30 0 39 -6q13 -8 13 -25q0 -7 -1 -11q-3 -36 -3 -80q0 -3 1 -23v-23v-20q-1 -16 -1 -19v-40q0 -6 -1.5 -45.5t-1.5 -47.5q0 -4 1 -30v-31v-37q-1 -24 -1 -37q0 -37 7 -49q12 -21 34 -21q14 0 27 8
q24 15 24 79v23q-1 19 -1 22q0 12 1 38v38q0 9 -2 64t-2 66q0 7 1.5 49.5t1.5 50.5v20q-1 14 -1 20q0 46 9.5 57.5t25.5 11.5q4 0 32 -1.5t34 -1.5q1 0 26 1l25 1q32 0 32 -38q0 -11 -1 -17q-4 -70 -4 -101q0 -13 1 -30q0 -2 1.5 -23.5t1.5 -26.5q0 -16 -2 -48.5t-2 -48.5
q0 -8 1.5 -61.5t1.5 -63.5q0 12 -3 -57q0 -14 -2 -42q-4 -40 -25 -72q-24 -36 -70 -60q-33 -17 -62 -22q-24 -4 -82 -4q-69 0 -132 37q-43 25 -59 65q-14 35 -14 99q0 8 1.5 54t1.5 55q0 11 -2 76.5t-2 77.5q0 6 1.5 45t1.5 46t-1 48t-1 49zM249 859q4 0 27 1t27 1
q21 0 30 -6t31 -37q1 -1 28 -31q22 -24 22 -30q-1 -12 -12 -12q-4 0 -28.5 1t-29.5 1h-14q-12 -1 -14 -1q-15 0 -24 8l-16 19q-13 16 -18 16q-3 0 -16 -17q-18 -24 -35 -24q-3 0 -15 1h-15h-17q-14 -1 -17 -1t-22 -1q-15 -1 -15 12q0 6 8 13.5t22.5 23.5t32.5 38
q20 26 44 26h18q15 -1 18 -1z" />
    <glyph glyph-name="Udieresis" unicode="&#xdc;" horiz-adv-x="521" 
d="M38 642q0 33 3 43q7 21 32 21q4 0 31.5 -1.5t32.5 -1.5q10 0 17 1h16q30 0 39 -6q13 -8 13 -25q0 -7 -1 -11q-3 -36 -3 -80q0 -3 1 -23v-23v-20q-1 -16 -1 -19v-40q0 -6 -1.5 -45.5t-1.5 -47.5q0 -4 1 -30v-31v-37q-1 -24 -1 -37q0 -37 7 -49q12 -21 34 -21q14 0 27 8
q24 15 24 79v23q-1 19 -1 22q0 12 1 38v38q0 9 -2 64t-2 66q0 7 1.5 49.5t1.5 50.5v20q-1 14 -1 20q0 46 9.5 57.5t25.5 11.5q4 0 32 -1.5t34 -1.5q1 0 26 1l25 1q32 0 32 -38q0 -11 -1 -17q-4 -70 -4 -101q0 -13 1 -30q0 -2 1.5 -23.5t1.5 -26.5q0 -16 -2 -48.5t-2 -48.5
q0 -8 1.5 -61.5t1.5 -63.5q0 12 -3 -57q0 -14 -2 -42q-4 -40 -25 -72q-24 -36 -70 -60q-33 -17 -62 -22q-24 -4 -82 -4q-69 0 -132 37q-43 25 -59 65q-14 35 -14 99q0 8 1.5 54t1.5 55q0 11 -2 76.5t-2 77.5q0 6 1.5 45t1.5 46t-1 48t-1 49zM86 831q0 24 30 24
q4 0 27.5 -1.5t28.5 -1.5q3 0 23 1h23q29 0 29 -18v-15q-1 -12 -1 -14v-29q0 -25 -35 -25q-5 0 -38.5 1t-39.5 1h-12q-10 -1 -11 -1q-24 0 -24 22v5q1 3 1 4q1 9 1 19q0 2 -1 13.5t-1 14.5zM273 833q0 19 24 17h15h26q22 -1 26 -1t24 1t23 1q25 0 25 -17v-5q-2 -8 -2 -24
q0 -2 1 -15v-15q0 -25 -32 -25q-4 0 -26.5 1.5t-27.5 1.5h-20q-17 -1 -20 -1q-33 0 -36 17q1 -5 1 29v17q-1 15 -1 18z" />
    <glyph glyph-name="Yacute" unicode="&#xdd;" horiz-adv-x="479" 
d="M219 0l-34 -1q-35 -1 -35 33v52v14q-1 12 -1 14q0 3 1.5 23.5t1.5 24.5q0 7 -1 21.5t-1 21.5v28q0 8 -2 25q-1 10 -25 85q-16 51 -46 118q-9 20 -29 75q-19 64 -34.5 102.5t-15.5 44.5q0 3 2 9q6 17 27 17q3 0 25.5 -1t26.5 -1q5 0 35.5 1t36.5 1q18 0 27 -11
q12 -14 23 -66l9 -45q9 -33 22 -79q7 -28 10 -28q4 0 9 13q6 41 19 76q9 23 18 71q8 41 12 50q11 20 40 20q10 0 28 -1t27 -1q3 0 21 1h22q19 0 26 -4q15 -9 15 -25q0 -12 -8 -40q-23 -79 -49 -147q-3 -8 -9 -23q-16 -46 -52 -137q-33 -75 -33 -109q0 -6 1 -19v-19
q0 -5 -1.5 -34.5t-1.5 -35.5q0 -5 1 -34.5t1 -35.5q0 -40 -26 -43h-40q-9 0 -43 -1zM159 758q0 4 5 15q11 24 19 49q13 38 35 38q7 0 20.5 -1.5t48.5 -1.5h22q12 2 17 2q26 0 26 -14q0 -9 -21 -29t-60 -61q-11 -12 -21 -12q-1 0 -12 1t-13 1h-23q-19 -1 -23 -1q-20 0 -20 14
z" />
    <glyph glyph-name="Thorn" unicode="&#xde;" horiz-adv-x="500" 
d="M37 304v59q0 5 1 37.5t1 38.5q0 5 -2 73.5t-2 71.5q0 2 1 19v19t-1 22.5t-1 23.5q0 38 27 38q5 0 11 -2q21 -3 61 -3q4 0 27.5 1.5t28.5 1.5q29 0 29 -29q0 -2 -2.5 -15t-2.5 -16q0 -12 11 -12q1 0 6 1h6h41q16 0 38 -3q58 -8 95 -34q41 -29 60 -85q24 -70 24 -114
q0 -57 -10 -117q-7 -40 -29 -76q-60 -97 -153 -104h-50q-40 0 -40 -41q0 -2 1 -15.5t1 -16.5q0 -27 -25 -29q-12 0 -21 3q-21 2 -63 2h-16l-15 -1.5t-12 -0.5q-26 0 -26 27q0 3 1 9v9q1 3 1 40q0 5 -1 37.5t-1 39.5q0 5 1 40t1 42v30q-1 25 -1 29zM255 465q-12 0 -20.5 -6.5
t-12.5 -14.5q-6 -12 -7 -37v-21q1 -18 1 -21v-15q-1 -13 -1 -16q0 -23 11.5 -40t30.5 -17q17 0 32 15t15 41v13q-1 12 -1 14q0 6 1 18t1 18q0 34 -16 53q-14 16 -34 16z" />
    <glyph glyph-name="germandbls" unicode="&#xdf;" 
d="M34 544q0 58 21.5 92.5t75.5 59.5q43 20 91 20q103 0 157 -52q46 -44 46 -115q0 -28 -15.5 -65t-15.5 -53q0 -15 12 -43q49 -113 49 -206q0 -97 -41.5 -141.5t-112.5 -44.5q-45 0 -59 8q-18 14 -18 35q0 -2 1 16t1 61v12q-1 11 -1 13q0 9 6 20.5t14 11.5q3 1 12 1
q24 0 24 41q0 31 -26 83q-7 14 -20 42t-13 55q0 29 13 58q8 16 17 32q9 20 9 35q0 20 -17 32q-6 4 -18 4q-19 0 -28 -23q-5 -12 -5 -85q0 -5 -1 -37t-1 -38q0 -2 1 -16v-16v-45q0 -4 1 -30t1 -31q0 -21 -1 -32v-45v-33q-1 -28 -1 -33q0 -4 1 -27.5t1 -28.5q0 -36 -28 -36
q-3 0 -26.5 1t-28.5 1q-3 0 -25.5 -1t-26.5 -1q-17 0 -25 19q-2 7 -1 26v43q0 5 1.5 37.5t1.5 38.5q0 7 -1 51.5t-1 53t-1 55.5t-1 56q0 2 1 14.5t1 15.5v39q0 2 1 18v19v29q-1 19 -1 29z" />
    <glyph glyph-name="agrave" unicode="&#xe0;" horiz-adv-x="437" 
d="M178 354h5q4 0 27 -2t25 -2q20 0 20 20q0 34 -48 36q-1 0 -16.5 1t-18.5 1q-27 0 -58 -12t-38 -12q-29 0 -29 40q0 2 1 19v19t-1 20.5t-1 20.5q0 25 36 33q91 20 140 20q53 0 100 -17q44 -16 63 -39q22 -26 22 -99q0 -5 -1 -33.5t-1 -34.5q0 -4 1 -27t1 -28v-19
q-1 -16 -1 -19q0 -5 1 -34v-34q0 -5 -1.5 -39t-1.5 -40q0 -4 1.5 -30.5t1.5 -31.5q0 -28 -27 -28q-3 0 -24 1h-24t-26 -1.5t-26 -1.5q-10 0 -15 9q-1 2 -2 5.5t-2.5 6t-5.5 2.5q-2 0 -10 -7q-25 -22 -80 -22q-67 0 -108 42q-44 45 -44 116q0 86 17 116q23 40 56 57
q55 28 92 28zM219 234q-44 0 -44 -62q0 -50 38 -50q42 0 42 59q0 53 -36 53zM241 590h-6q-2 0 -13.5 -1t-14.5 -1q-10 0 -24 15q-34 36 -44 46q-34 33 -34 41q0 13 27 13h24q21 -1 25 -1q23 0 33 1q14 2 28 3q19 0 30 -33q5 -15 22 -55q5 -8 5 -15q0 -14 -21 -14q-2 0 -18 1
h-19z" />
    <glyph glyph-name="aacute" unicode="&#xe1;" horiz-adv-x="437" 
d="M178 354h5q4 0 27 -2t25 -2q20 0 20 20q0 34 -48 36q-1 0 -16.5 1t-18.5 1q-27 0 -58 -12t-38 -12q-29 0 -29 40q0 2 1 19v19t-1 20.5t-1 20.5q0 25 36 33q91 20 140 20q53 0 100 -17q44 -16 63 -39q22 -26 22 -99q0 -5 -1 -33.5t-1 -34.5q0 -4 1 -27t1 -28v-19
q-1 -16 -1 -19q0 -5 1 -34v-34q0 -5 -1.5 -39t-1.5 -40q0 -4 1.5 -30.5t1.5 -31.5q0 -28 -27 -28q-3 0 -24 1h-24t-26 -1.5t-26 -1.5q-10 0 -15 9q-1 2 -2 5.5t-2.5 6t-5.5 2.5q-2 0 -10 -7q-25 -22 -80 -22q-67 0 -108 42q-44 45 -44 116q0 86 17 116q23 40 56 57
q55 28 92 28zM219 234q-44 0 -44 -62q0 -50 38 -50q42 0 42 59q0 53 -36 53zM202 590h-7h-19q-17 -1 -20 -1q-20 0 -20 14q0 6 5 15t20 51q13 36 33 36h9q6 -1 10 -1q8 -2 46 -2q7 0 21 1h21q28 0 28 -13q0 -10 -22 -30q-25 -23 -54 -55q-15 -17 -26 -17q-1 0 -12 1t-13 1z
" />
    <glyph glyph-name="acircumflex" unicode="&#xe2;" horiz-adv-x="437" 
d="M178 354h5q4 0 27 -2t25 -2q20 0 20 20q0 34 -48 36q-1 0 -16.5 1t-18.5 1q-27 0 -58 -12t-38 -12q-29 0 -29 40q0 2 1 19v19t-1 20.5t-1 20.5q0 25 36 33q91 20 140 20q53 0 100 -17q44 -16 63 -39q22 -26 22 -99q0 -5 -1 -33.5t-1 -34.5q0 -4 1 -27t1 -28v-19
q-1 -16 -1 -19q0 -5 1 -34v-34q0 -5 -1.5 -39t-1.5 -40q0 -4 1.5 -30.5t1.5 -31.5q0 -28 -27 -28q-3 0 -24 1h-24t-26 -1.5t-26 -1.5q-10 0 -15 9q-1 2 -2 5.5t-2.5 6t-5.5 2.5q-2 0 -10 -7q-25 -22 -80 -22q-67 0 -108 42q-44 45 -44 116q0 86 17 116q23 40 56 57
q55 28 92 28zM219 234q-44 0 -44 -62q0 -50 38 -50q42 0 42 59q0 53 -36 53zM64 607q0 6 17 21q10 8 42 49q25 31 49 31q3 0 16.5 -1t15.5 -1h20q3 0 22 1t23 1q10 0 16 -3q10 -5 35 -38q15 -20 32 -37q21 -21 21 -27q0 -11 -15 -11q-5 0 -8 1q-39 2 -43 2q-2 0 -16.5 -1
t-17.5 -1q-17 0 -36 24q-15 19 -21 19q-3 0 -16 -17q-18 -24 -35 -24q-1 0 -12 1h-12q-40 0 -51 -1q-3 -1 -9 -1q-17 0 -17 13z" />
    <glyph glyph-name="atilde" unicode="&#xe3;" horiz-adv-x="437" 
d="M178 354h5q4 0 27 -2t25 -2q20 0 20 20q0 34 -48 36q-1 0 -16.5 1t-18.5 1q-27 0 -58 -12t-38 -12q-29 0 -29 40q0 2 1 19v19t-1 20.5t-1 20.5q0 25 36 33q91 20 140 20q53 0 100 -17q44 -16 63 -39q22 -26 22 -99q0 -5 -1 -33.5t-1 -34.5q0 -4 1 -27t1 -28v-19
q-1 -16 -1 -19q0 -5 1 -34v-34q0 -5 -1.5 -39t-1.5 -40q0 -4 1.5 -30.5t1.5 -31.5q0 -28 -27 -28q-3 0 -24 1h-24t-26 -1.5t-26 -1.5q-10 0 -15 9q-1 2 -2 5.5t-2.5 6t-5.5 2.5q-2 0 -10 -7q-25 -22 -80 -22q-67 0 -108 42q-44 45 -44 116q0 86 17 116q23 40 56 57
q55 28 92 28zM219 234q-44 0 -44 -62q0 -50 38 -50q42 0 42 59q0 53 -36 53zM72 618q0 -6 1 16q0 18 9 49q15 24 56 24q18 0 44 -7l82 -22q7 0 12 5q2 4 6 13q5 6 16 5q2 0 13 -1t13 -1q4 0 11 1h11q24 0 24 -24q0 -50 -10 -66q-16 -26 -47 -26q-30 0 -91 21q-35 12 -46 12
q-5 0 -7 -2q-2 -6 -7.5 -15.5t-20.5 -9.5q-6 0 -24 2h-9q-7 -1 -9 -1q-27 0 -27 27z" />
    <glyph glyph-name="adieresis" unicode="&#xe4;" horiz-adv-x="437" 
d="M178 354h5q4 0 27 -2t25 -2q20 0 20 20q0 34 -48 36q-1 0 -16.5 1t-18.5 1q-27 0 -58 -12t-38 -12q-29 0 -29 40q0 2 1 19v19t-1 20.5t-1 20.5q0 25 36 33q91 20 140 20q53 0 100 -17q44 -16 63 -39q22 -26 22 -99q0 -5 -1 -33.5t-1 -34.5q0 -4 1 -27t1 -28v-19
q-1 -16 -1 -19q0 -5 1 -34v-34q0 -5 -1.5 -39t-1.5 -40q0 -4 1.5 -30.5t1.5 -31.5q0 -28 -27 -28q-3 0 -24 1h-24t-26 -1.5t-26 -1.5q-10 0 -15 9q-1 2 -2 5.5t-2.5 6t-5.5 2.5q-2 0 -10 -7q-25 -22 -80 -22q-67 0 -108 42q-44 45 -44 116q0 86 17 116q23 40 56 57
q55 28 92 28zM219 234q-44 0 -44 -62q0 -50 38 -50q42 0 42 59q0 53 -36 53zM42 682q0 20 20 23h45h16q14 -1 17 -1q2 0 19 1h19q26 0 25 -24q-1 -27 -1 -52.5t-29 -25.5q-2 0 -14 1h-15q-3 0 -24 1h-23h-16q-13 -1 -15 -1q-24 0 -24 21q0 3 1 16t1 15t-1 13t-1 13zM229 686
q0 18 16 18q4 0 6 -1h79q5 0 19 1h18q25 0 25 -18v-13q-1 -13 -1 -16v-29q0 -24 -44 -24q-3 0 -21 1t-22 1h-19q-13 -1 -20 -1q-21 0 -27 3q-9 5 -9 21q0 1 1 13v14.5v13.5q-1 10 -1 16z" />
    <glyph glyph-name="aring" unicode="&#xe5;" horiz-adv-x="437" 
d="M178 354h5q4 0 27 -2t25 -2q20 0 20 20q0 34 -48 36q-1 0 -16.5 1t-18.5 1q-27 0 -58 -12t-38 -12q-29 0 -29 40q0 2 1 19v19t-1 20.5t-1 20.5q0 25 36 33q91 20 140 20q53 0 100 -17q44 -16 63 -39q22 -26 22 -99q0 -5 -1 -33.5t-1 -34.5q0 -4 1 -27t1 -28v-19
q-1 -16 -1 -19q0 -5 1 -34v-34q0 -5 -1.5 -39t-1.5 -40q0 -4 1.5 -30.5t1.5 -31.5q0 -28 -27 -28q-3 0 -24 1h-24t-26 -1.5t-26 -1.5q-10 0 -15 9q-1 2 -2 5.5t-2.5 6t-5.5 2.5q-2 0 -10 -7q-25 -22 -80 -22q-67 0 -108 42q-44 45 -44 116q0 86 17 116q23 40 56 57
q55 28 92 28zM219 234q-44 0 -44 -62q0 -50 38 -50q42 0 42 59q0 53 -36 53zM104 686q0 27 21 53q29 36 78 36q37 0 65 -16q39 -22 39 -78q0 -28 -12.5 -48.5t-45.5 -33.5q-26 -11 -46 -11q-30 0 -54 13q-45 24 -45 85zM207 714q-34 0 -34 -35q0 -28 33 -28q31 0 31 34
q0 29 -30 29z" />
    <glyph glyph-name="ae" unicode="&#xe6;" horiz-adv-x="688" 
d="M56 453v11v24l-1 20q0 16 13 24q17 13 74 17t82 4q65 0 119 -28q51 27 127 27q27 0 61 -6q59 -11 90 -45q56 -63 56 -148q0 -5 -2 -36t-2 -37v-25q0 -19 -17 -32t-33 -13q-2 0 -17 1.5t-18 1.5t-24.5 -1t-25.5 -1q-5 0 -35.5 1.5t-36.5 1.5q-45 0 -45 -22q0 -25 23 -42
q8 -6 36 -13q23 -5 28 -5q9 -1 28 -1q16 0 43 8q43 13 47 13q18 0 29 -14q6 -8 6 -47v-12q-1 -8 -1 -13q0 -33 -5 -41t-54 -23q-27 -8 -60 -8q-92 0 -133.5 14t-72.5 43q-70 -55 -141 -55q-65 0 -108 26q-39 24 -55 76q-14 46 -14 81q0 5 5 55q0 32 9 56q7 19 14 31
q14 24 35 38q8 7 34 17q33 13 56 13q21 0 51 -10q27 -9 25 -9q9 0 9 27q0 23 -30 30q-22 5 -56 5q-26 0 -52 -9q-32 -11 -38 -11q-20 0 -23 20v21zM475 429h-6q-5 -1 -6 -1q-12 -2 -16 -4q-7 -3 -13.5 -13t-12.5 -36q-1 -4 -1 -12q0 -2 2 -19q2 -21 24 -21q2 0 10 1h11.5
h10.5q7 -1 11 -1q25 0 25 19v10q-1 8 -1 9q0 2 1 10v9q0 20 -12 34.5t-27 14.5zM253 166v58q0 18 -12.5 29t-26.5 11q-19 0 -30.5 -18t-11.5 -42q0 -2 1 -15t1 -16q0 -10 5 -31q10 -22 39 -22q17 0 21 9q2 5 7 14q1 2 3.5 5.5t2.5 4.5q2 5 1 13z" />
    <glyph glyph-name="ccedilla" unicode="&#xe7;" horiz-adv-x="313" 
d="M254 -6h-27q2 0 -11 1q-5 0 -5 -11q0 -5 7 -9q1 -1 14.5 -6t21 -17t7.5 -30q0 -28 -17 -54q-20 -29 -51 -35q-10 -2 -67 -2q-21 0 -21 12q1 3 3 10.5t2 14.5q1 21 6 24.5t30 3.5t25 16q0 9 -7 14q-6 1 -15 5t-9 14q0 5 4 16q3 8 8 23q3 7 5 16q0 2 -8 3q-16 2 -41 19
q-32 21 -54 66q-31 63 -31 141q0 96 5 128q9 58 35.5 104.5t76.5 72.5q44 23 94 23q38 0 51.5 -6.5t13.5 -30.5q0 -4 -1 -28t-1 -29q0 -7 1 -21v-22q0 -26 -8 -34t-36.5 -8t-42.5 -20q-17 -25 -17 -75v-36q0 -38 20 -61q13 -15 30 -19q10 0 28 -2q26 -4 23 -27v-25
q-1 -21 -1 -25v-19q-1 -16 -1 -19q0 -1 1 -12v-12q0 -32 -40 -32z" />
    <glyph glyph-name="egrave" unicode="&#xe8;" 
d="M431 59v-17q0 -26 -30 -34q-43 -12 -153 -12q-50 0 -102 16q-19 6 -37 21q-34 29 -44.5 41t-18.5 35q-17 47 -19 97q0 3 -2 28t-2 30q0 -1 2 45q0 32 7 96q9 43 40 80q53 64 162 64q104 0 156.5 -55.5t52.5 -146.5q0 -10 -1 -28t-1 -27v-23q0 -20 -2 -28q-20 -30 -39 -30
q-2 0 -15 1t-16 1q4 0 -22 -2t-50 -2q-10 0 -22 1q-2 0 -18 1.5t-18 1.5q-27 0 -33 -4.5t-6 -19.5q0 -21 6 -29q10 -17 44 -24q25 -5 31 -5h2q58 0 88 15q14 7 27 7q32 0 32 -45q0 -41 1 -49zM281 339v27q0 60 -40 60q-6 0 -14 -2.5t-22 -16.5q-13 -52 -13 -59q0 -28 20 -28
q2 0 17 1h16h9q7 -1 8 -1q19 0 19 19zM262 590h-6q-2 0 -13.5 -1t-14.5 -1q-10 0 -24 15q-34 36 -44 46q-34 33 -34 41q0 13 27 13h24q21 -1 25 -1q23 0 33 1q14 2 28 3q19 0 30 -33q5 -15 22 -55q5 -8 5 -15q0 -14 -21 -14q-2 0 -18 1h-19z" />
    <glyph glyph-name="eacute" unicode="&#xe9;" 
d="M431 59v-17q0 -26 -30 -34q-43 -12 -153 -12q-50 0 -102 16q-19 6 -37 21q-34 29 -44.5 41t-18.5 35q-17 47 -19 97q0 3 -2 28t-2 30q0 -1 2 45q0 32 7 96q9 43 40 80q53 64 162 64q104 0 156.5 -55.5t52.5 -146.5q0 -10 -1 -28t-1 -27v-23q0 -20 -2 -28q-20 -30 -39 -30
q-2 0 -15 1t-16 1q4 0 -22 -2t-50 -2q-10 0 -22 1q-2 0 -18 1.5t-18 1.5q-27 0 -33 -4.5t-6 -19.5q0 -21 6 -29q10 -17 44 -24q25 -5 31 -5h2q58 0 88 15q14 7 27 7q32 0 32 -45q0 -41 1 -49zM281 339v27q0 60 -40 60q-6 0 -14 -2.5t-22 -16.5q-13 -52 -13 -59q0 -28 20 -28
q2 0 17 1h16h9q7 -1 8 -1q19 0 19 19zM223 590h-7h-19q-17 -1 -20 -1q-20 0 -20 14q0 6 5 15t20 51q13 36 33 36h9q6 -1 10 -1q8 -2 46 -2q7 0 21 1h21q28 0 28 -13q0 -10 -22 -30q-25 -23 -54 -55q-15 -17 -26 -17q-1 0 -12 1t-13 1z" />
    <glyph glyph-name="ecircumflex" unicode="&#xea;" 
d="M431 59v-17q0 -26 -30 -34q-43 -12 -153 -12q-50 0 -102 16q-19 6 -37 21q-34 29 -44.5 41t-18.5 35q-17 47 -19 97q0 3 -2 28t-2 30q0 -1 2 45q0 32 7 96q9 43 40 80q53 64 162 64q104 0 156.5 -55.5t52.5 -146.5q0 -10 -1 -28t-1 -27v-23q0 -20 -2 -28q-20 -30 -39 -30
q-2 0 -15 1t-16 1q4 0 -22 -2t-50 -2q-10 0 -22 1q-2 0 -18 1.5t-18 1.5q-27 0 -33 -4.5t-6 -19.5q0 -21 6 -29q10 -17 44 -24q25 -5 31 -5h2q58 0 88 15q14 7 27 7q32 0 32 -45q0 -41 1 -49zM281 339v27q0 60 -40 60q-6 0 -14 -2.5t-22 -16.5q-13 -52 -13 -59q0 -28 20 -28
q2 0 17 1h16h9q7 -1 8 -1q19 0 19 19zM85 607q0 6 17 21q10 8 42 49q25 31 49 31q3 0 16.5 -1t15.5 -1h20q3 0 22 1t23 1q10 0 16 -3q10 -5 35 -38q15 -20 32 -37q21 -21 21 -27q0 -11 -15 -11q-5 0 -8 1q-39 2 -43 2q-2 0 -16.5 -1t-17.5 -1q-17 0 -36 24q-15 19 -21 19
q-3 0 -16 -17q-18 -24 -35 -24q-1 0 -12 1h-12q-40 0 -51 -1q-3 -1 -9 -1q-17 0 -17 13z" />
    <glyph glyph-name="edieresis" unicode="&#xeb;" 
d="M431 59v-17q0 -26 -30 -34q-43 -12 -153 -12q-50 0 -102 16q-19 6 -37 21q-34 29 -44.5 41t-18.5 35q-17 47 -19 97q0 3 -2 28t-2 30q0 -1 2 45q0 32 7 96q9 43 40 80q53 64 162 64q104 0 156.5 -55.5t52.5 -146.5q0 -10 -1 -28t-1 -27v-23q0 -20 -2 -28q-20 -30 -39 -30
q-2 0 -15 1t-16 1q4 0 -22 -2t-50 -2q-10 0 -22 1q-2 0 -18 1.5t-18 1.5q-27 0 -33 -4.5t-6 -19.5q0 -21 6 -29q10 -17 44 -24q25 -5 31 -5h2q58 0 88 15q14 7 27 7q32 0 32 -45q0 -41 1 -49zM281 339v27q0 60 -40 60q-6 0 -14 -2.5t-22 -16.5q-13 -52 -13 -59q0 -28 20 -28
q2 0 17 1h16h9q7 -1 8 -1q19 0 19 19zM63 681q0 20 20 23h45h16q14 -1 17 -1q2 0 19 1h19q26 0 25 -24q-1 -27 -1 -52.5t-29 -25.5q-2 0 -14 1h-15q-3 0 -24 1h-23h-16q-13 -1 -15 -1q-24 0 -24 21q0 3 1 16t1 15t-1 13t-1 13zM250 685q0 18 16 18q4 0 6 -1h79q5 0 19 1h18
q25 0 25 -18v-13q-1 -13 -1 -16v-29q0 -24 -44 -24q-3 0 -21 1t-22 1h-19q-13 -1 -20 -1q-21 0 -27 3q-9 5 -9 21q0 1 1 13v14.5v13.5q-1 10 -1 16z" />
    <glyph glyph-name="igrave" unicode="&#xec;" horiz-adv-x="229" 
d="M158 553q21 0 30.5 -7t9.5 -32q0 -11 -1.5 -32t-1.5 -32q0 -6 1 -42v-43v-39q-1 -33 -1 -39q0 -4 1 -27t1 -28v-137q0 -68 -2 -78q-3 -17 -43 -17q-3 0 -23.5 1t-24.5 1q-20 0 -30 -1q-5 -1 -14 -1q-21 0 -28 16q-3 7 -3 44q0 4 1 30.5t1 31.5q0 10 -1 29.5t-1 28.5
q0 4 1 29v29t1 36v37t-1 43t-1 44q0 4 1 32v33v18q-1 15 -1 18q0 40 15 49q7 3 58 3q4 0 27.5 1t28.5 1zM137 590h-6q-2 0 -13.5 -1t-14.5 -1q-10 0 -24 15q-34 36 -44 46q-34 33 -34 41q0 13 27 13h24q21 -1 25 -1q23 0 33 1q14 2 28 3q19 0 30 -33q5 -15 22 -55
q5 -8 5 -15q0 -14 -21 -14q-2 0 -18 1h-19z" />
    <glyph glyph-name="iacute" unicode="&#xed;" horiz-adv-x="229" 
d="M158 553q21 0 30.5 -7t9.5 -32q0 -11 -1.5 -32t-1.5 -32q0 -6 1 -42v-43v-39q-1 -33 -1 -39q0 -4 1 -27t1 -28v-137q0 -68 -2 -78q-3 -17 -43 -17q-3 0 -23.5 1t-24.5 1q-20 0 -30 -1q-5 -1 -14 -1q-21 0 -28 16q-3 7 -3 44q0 4 1 30.5t1 31.5q0 10 -1 29.5t-1 28.5
q0 4 1 29v29t1 36v37t-1 43t-1 44q0 4 1 32v33v18q-1 15 -1 18q0 40 15 49q7 3 58 3q4 0 27.5 1t28.5 1zM98 590h-7h-19q-17 -1 -20 -1q-20 0 -20 14q0 6 5 15t20 51q13 36 33 36h9q6 -1 10 -1q8 -2 46 -2q7 0 21 1h21q28 0 28 -13q0 -10 -22 -30q-25 -23 -54 -55
q-15 -17 -26 -17q-1 0 -12 1t-13 1z" />
    <glyph glyph-name="icircumflex" unicode="&#xee;" horiz-adv-x="229" 
d="M158 553q21 0 30.5 -7t9.5 -32q0 -11 -1.5 -32t-1.5 -32q0 -6 1 -42v-43v-39q-1 -33 -1 -39q0 -4 1 -27t1 -28v-137q0 -68 -2 -78q-3 -17 -43 -17q-3 0 -23.5 1t-24.5 1q-20 0 -30 -1q-5 -1 -14 -1q-21 0 -28 16q-3 7 -3 44q0 4 1 30.5t1 31.5q0 10 -1 29.5t-1 28.5
q0 4 1 29v29t1 36v37t-1 43t-1 44q0 4 1 32v33v18q-1 15 -1 18q0 40 15 49q7 3 58 3q4 0 27.5 1t28.5 1zM-40 607q0 6 17 21q10 8 42 49q25 31 49 31q3 0 16.5 -1t15.5 -1h20q3 0 22 1t23 1q10 0 16 -3q10 -5 35 -38q15 -20 32 -37q21 -21 21 -27q0 -11 -15 -11q-5 0 -8 1
q-39 2 -43 2q-2 0 -16.5 -1t-17.5 -1q-17 0 -36 24q-15 19 -21 19q-3 0 -16 -17q-18 -24 -35 -24q-1 0 -12 1h-12q-40 0 -51 -1q-3 -1 -9 -1q-17 0 -17 13z" />
    <glyph glyph-name="idieresis" unicode="&#xef;" horiz-adv-x="229" 
d="M158 553q21 0 30.5 -7t9.5 -32q0 -11 -1.5 -32t-1.5 -32q0 -6 1 -42v-43v-39q-1 -33 -1 -39q0 -4 1 -27t1 -28v-137q0 -68 -2 -78q-3 -17 -43 -17q-3 0 -23.5 1t-24.5 1q-20 0 -30 -1q-5 -1 -14 -1q-21 0 -28 16q-3 7 -3 44q0 4 1 30.5t1 31.5q0 10 -1 29.5t-1 28.5
q0 4 1 29v29t1 36v37t-1 43t-1 44q0 4 1 32v33v18q-1 15 -1 18q0 40 15 49q7 3 58 3q4 0 27.5 1t28.5 1zM-62 681q0 20 20 23h45h16q14 -1 17 -1q2 0 19 1h19q26 0 25 -24q-1 -27 -1 -52.5t-29 -25.5q-2 0 -14 1h-15q-3 0 -24 1h-23h-16q-13 -1 -15 -1q-24 0 -24 21
q0 3 1 16t1 15t-1 13t-1 13zM125 685q0 18 16 18q4 0 6 -1h79q5 0 19 1h18q25 0 25 -18v-13q-1 -13 -1 -16v-29q0 -24 -44 -24q-3 0 -21 1t-22 1h-19q-13 -1 -20 -1q-21 0 -27 3q-9 5 -9 21q0 1 1 13v14.5v13.5q-1 10 -1 16z" />
    <glyph glyph-name="eth" unicode="&#xf0;" 
d="M226 702q24 0 37 3l17 4q16 0 30 -16q4 -7 14.5 -22.5t25.5 -15.5q3 0 20 1t21 1q13 0 17 -17q10 -31 10 -33q0 -14 -10 -19q-6 -2 -17 -2q-1 0 -5 1h-6q-5 0 -5 -5q0 -1 1 -3v-3l12 -21q2 -4 6 -13q10 -21 19 -51q12 -40 14 -50q3 -15 5 -46q3 -100 3 -119q0 -24 -8 -92
q-10 -82 -49 -132q-50 -63 -142 -63q-125 0 -174 79q-26 43 -34 94q-6 39 -6 126q0 56 6 81q12 59 19 78q24 62 77 90q33 17 65 17q6 0 18 -2.5t18 -2.5t6 5v2q-1 1 -1 2q-9 18 -19 23q-4 3 -12 3q-1 0 -9.5 -1t-10.5 -1q-3 0 -11 1t-12 1q-1 0 -8.5 -1t-9.5 -1
q-16 0 -21 17q-2 4 -4 15q-7 31 -7 23q0 15 17 15q2 0 11 -1t10 -1q19 0 19 4q0 5 -12 17q-9 9 -9 17q0 17 20 18q5 0 32.5 -2t31.5 -2zM186 279v-46q0 -78 39 -78t42 69q1 23 1 95q0 39 -9.5 62.5t-28.5 23.5q-30 0 -39 -45q-5 -25 -5 -81z" />
    <glyph glyph-name="ntilde" unicode="&#xf1;" 
d="M140 2h-38q-11 0 -26 -1q-2 0 -7 -1h-8q-29 0 -29 35q0 5 1 32t1 32q0 8 -1.5 56.5t-1.5 57.5q0 25 2 65q4 50 4 64v23q-1 21 -1 24q0 2 1 19v19q0 4 -1.5 31.5t-1.5 32.5q0 36 5 45q9 16 30 16l21 -1l21 -1q10 0 29.5 1.5t29.5 1.5q14 0 19 -8q2 -4 5 -12.5t6 -8.5
q7 4 15 9q39 25 82 25q58 0 97 -43q35 -39 35 -117q0 -3 -1 -21t-1 -22t1 -28v-29t-1 -36t-1 -37q0 -4 1 -27v-28q0 -4 -1 -30t-1 -31q0 -3 1 -21.5t1 -22.5q0 -64 -33 -64q-2 0 -22 1.5t-24 1.5t-27 -1.5t-27 -1.5q-16 0 -23 5q-13 13 -13 25q0 6 2.5 44t2.5 45
q0 8 -1.5 53.5t-1.5 54.5q0 27 1 43q4 64 4 54v26q0 41 -32 41q-31 0 -33 -38q-5 -79 -5 -107q0 -4 1 -29t1 -30q0 -14 -1.5 -43.5t-1.5 -44.5q0 -14 2 -50q1 -6 1 -18q0 -32 -23 -32q-1 0 -16.5 1t-17.5 1zM83 618q0 -6 1 16q0 18 9 49q15 24 56 24q18 0 44 -7l82 -22
q7 0 12 5q2 4 6 13q5 6 16 5q2 0 13 -1t13 -1q4 0 11 1h11q24 0 24 -24q0 -50 -10 -66q-16 -26 -47 -26q-30 0 -91 21q-35 12 -46 12q-5 0 -7 -2q-2 -6 -7.5 -15.5t-20.5 -9.5q-6 0 -24 2h-9q-7 -1 -9 -1q-27 0 -27 27z" />
    <glyph glyph-name="ograve" unicode="&#xf2;" 
d="M23 289q0 43 4 66q9 55 15 73q12 58 58 95q52 41 131 41q87 0 138 -48q28 -26 42 -58q25 -56 25 -181q0 -66 -14 -131q-34 -157 -188 -157q-96 0 -143 44q-60 56 -67 171q-1 17 -1 85zM268 338q0 23 -8 42q-11 25 -30 25q-28 0 -38 -48q-5 -26 -4 -77v-21q-1 -19 -1 -21
q0 -83 39 -83q31 0 38 45q4 26 4 138zM252 590h-6q-2 0 -13.5 -1t-14.5 -1q-10 0 -24 15q-34 36 -44 46q-34 33 -34 41q0 13 27 13h24q21 -1 25 -1q23 0 33 1q14 2 28 3q19 0 30 -33q5 -15 22 -55q5 -8 5 -15q0 -14 -21 -14q-2 0 -18 1h-19z" />
    <glyph glyph-name="oacute" unicode="&#xf3;" 
d="M23 289q0 43 4 66q9 55 15 73q12 58 58 95q52 41 131 41q87 0 138 -48q28 -26 42 -58q25 -56 25 -181q0 -66 -14 -131q-34 -157 -188 -157q-96 0 -143 44q-60 56 -67 171q-1 17 -1 85zM268 338q0 23 -8 42q-11 25 -30 25q-28 0 -38 -48q-5 -26 -4 -77v-21q-1 -19 -1 -21
q0 -83 39 -83q31 0 38 45q4 26 4 138zM213 590h-7h-19q-17 -1 -20 -1q-20 0 -20 14q0 6 5 15t20 51q13 36 33 36h9q6 -1 10 -1q8 -2 46 -2q7 0 21 1h21q28 0 28 -13q0 -10 -22 -30q-25 -23 -54 -55q-15 -17 -26 -17q-1 0 -12 1t-13 1z" />
    <glyph glyph-name="ocircumflex" unicode="&#xf4;" 
d="M23 289q0 43 4 66q9 55 15 73q12 58 58 95q52 41 131 41q87 0 138 -48q28 -26 42 -58q25 -56 25 -181q0 -66 -14 -131q-34 -157 -188 -157q-96 0 -143 44q-60 56 -67 171q-1 17 -1 85zM268 338q0 23 -8 42q-11 25 -30 25q-28 0 -38 -48q-5 -26 -4 -77v-21q-1 -19 -1 -21
q0 -83 39 -83q31 0 38 45q4 26 4 138zM75 607q0 6 17 21q10 8 42 49q25 31 49 31q3 0 16.5 -1t15.5 -1h20q3 0 22 1t23 1q10 0 16 -3q10 -5 35 -38q15 -20 32 -37q21 -21 21 -27q0 -11 -15 -11q-5 0 -8 1q-39 2 -43 2q-2 0 -16.5 -1t-17.5 -1q-17 0 -36 24q-15 19 -21 19
q-3 0 -16 -17q-18 -24 -35 -24q-1 0 -12 1h-12q-40 0 -51 -1q-3 -1 -9 -1q-17 0 -17 13z" />
    <glyph glyph-name="otilde" unicode="&#xf5;" 
d="M23 289q0 43 4 66q9 55 15 73q12 58 58 95q52 41 131 41q87 0 138 -48q28 -26 42 -58q25 -56 25 -181q0 -66 -14 -131q-34 -157 -188 -157q-96 0 -143 44q-60 56 -67 171q-1 17 -1 85zM268 338q0 23 -8 42q-11 25 -30 25q-28 0 -38 -48q-5 -26 -4 -77v-21q-1 -19 -1 -21
q0 -83 39 -83q31 0 38 45q4 26 4 138zM83 618q0 -6 1 16q0 18 9 49q15 24 56 24q18 0 44 -7l82 -22q7 0 12 5q2 4 6 13q5 6 16 5q2 0 13 -1t13 -1q4 0 11 1h11q24 0 24 -24q0 -50 -10 -66q-16 -26 -47 -26q-30 0 -91 21q-35 12 -46 12q-5 0 -7 -2q-2 -6 -7.5 -15.5
t-20.5 -9.5q-6 0 -24 2h-9q-7 -1 -9 -1q-27 0 -27 27z" />
    <glyph glyph-name="odieresis" unicode="&#xf6;" 
d="M23 289q0 43 4 66q9 55 15 73q12 58 58 95q52 41 131 41q87 0 138 -48q28 -26 42 -58q25 -56 25 -181q0 -66 -14 -131q-34 -157 -188 -157q-96 0 -143 44q-60 56 -67 171q-1 17 -1 85zM268 338q0 23 -8 42q-11 25 -30 25q-28 0 -38 -48q-5 -26 -4 -77v-21q-1 -19 -1 -21
q0 -83 39 -83q31 0 38 45q4 26 4 138zM45 680q0 20 20 23h45h16q14 -1 17 -1q2 0 19 1h19q26 0 25 -24q-1 -27 -1 -52.5t-29 -25.5q-2 0 -14 1h-15q-3 0 -24 1h-23h-16q-13 -1 -15 -1q-24 0 -24 21q0 3 1 16t1 15t-1 13t-1 13zM232 684q0 18 16 18q4 0 6 -1h79q5 0 19 1h18
q25 0 25 -18v-13q-1 -13 -1 -16v-29q0 -24 -44 -24q-3 0 -21 1t-22 1h-19q-13 -1 -20 -1q-21 0 -27 3q-9 5 -9 21q0 1 1 13v14.5v13.5q-1 10 -1 16z" />
    <glyph glyph-name="oslash" unicode="&#xf8;" 
d="M359 532q3 3 12.5 19t21.5 16q10 0 26 -14t16 -25q0 -3 -6.5 -14.5t-23.5 -42.5q11 -23 15 -35q7 -20 11 -46.5t4 -51.5q0 -124 -17 -193q-26 -106 -101 -136q-30 -12 -47 -14.5t-63 -2.5q-58 0 -103 35l-1 -2q-27 -39 -36 -39q-6 0 -34 22q-11 9 -11 19q0 6 12 22l21 30
q-20 39 -26 67q-7 32 -7 91q0 101 10 156q16 81 59 124q49 49 135 49q79 0 133 -34zM185 272q22 34 35 52.5t31 44.5q10 14 10 19q0 7 -9 14.5t-22 7.5q-42 0 -44 -94q-1 -50 -1 -44zM274 282q-27 -40 -64 -95l-12 -20q0 -5 10 -11.5t21 -6.5q38 0 44 78q2 28 2 34
q0 13 -1 21z" />
    <glyph glyph-name="ugrave" unicode="&#xf9;" 
d="M67 547h16q12 -2 66 -2q1 0 12 1t13 1q25 0 25 -29q0 -10 -2 -29t-2 -27q0 -4 1.5 -31.5t1.5 -32.5q0 -6 -1 -21q-1 -9 -2 -29q-1 -14 -1 -79q0 -11 1 -33t1 -33q0 -7 -1 -19.5t-1 -19.5q0 -31 27 -31q35 0 35 70v19q-1 16 -1 19q0 5 2 38t2 39q0 5 -1.5 34.5t-1.5 35.5
q0 9 1 26.5t1 25.5q0 6 -2 36.5t-2 35.5q0 22 15 31q6 4 32 4q2 0 17.5 -1t18.5 -1q4 0 29 1h29q31 0 31 -24q0 -4 -1.5 -32t-1.5 -34q0 -4 1 -33.5t1 -35.5q0 -12 -1 -36t-1 -37q0 -3 1 -26v-28q0 -6 -1.5 -42.5t-1.5 -43.5q0 -3 1 -23t1 -24v-22q-1 -18 -1 -22t1 -29
t1 -30q0 -23 -29 -23q-3 0 -26 1t-28 1t-29.5 -1.5t-26.5 -1.5q-10 0 -12.5 6t-5 14.5t-10.5 8.5q-4 0 -19 -10q-38 -25 -95 -24q-73 1 -100 53q-11 22 -11 56q0 3 1.5 21.5t1.5 22.5q0 7 -2 51.5t-2 53.5t2.5 65.5t2.5 67.5q0 21 -2 51q-3 45 -3 69q0 41 36 41zM252 590h-6
q-2 0 -13.5 -1t-14.5 -1q-10 0 -24 15q-34 36 -44 46q-34 33 -34 41q0 13 27 13h24q21 -1 25 -1q23 0 33 1q14 2 28 3q19 0 30 -33q5 -15 22 -55q5 -8 5 -15q0 -14 -21 -14q-2 0 -18 1h-19z" />
    <glyph glyph-name="uacute" unicode="&#xfa;" 
d="M67 547h16q12 -2 66 -2q1 0 12 1t13 1q25 0 25 -29q0 -10 -2 -29t-2 -27q0 -4 1.5 -31.5t1.5 -32.5q0 -6 -1 -21q-1 -9 -2 -29q-1 -14 -1 -79q0 -11 1 -33t1 -33q0 -7 -1 -19.5t-1 -19.5q0 -31 27 -31q35 0 35 70v19q-1 16 -1 19q0 5 2 38t2 39q0 5 -1.5 34.5t-1.5 35.5
q0 9 1 26.5t1 25.5q0 6 -2 36.5t-2 35.5q0 22 15 31q6 4 32 4q2 0 17.5 -1t18.5 -1q4 0 29 1h29q31 0 31 -24q0 -4 -1.5 -32t-1.5 -34q0 -4 1 -33.5t1 -35.5q0 -12 -1 -36t-1 -37q0 -3 1 -26v-28q0 -6 -1.5 -42.5t-1.5 -43.5q0 -3 1 -23t1 -24v-22q-1 -18 -1 -22t1 -29
t1 -30q0 -23 -29 -23q-3 0 -26 1t-28 1t-29.5 -1.5t-26.5 -1.5q-10 0 -12.5 6t-5 14.5t-10.5 8.5q-4 0 -19 -10q-38 -25 -95 -24q-73 1 -100 53q-11 22 -11 56q0 3 1.5 21.5t1.5 22.5q0 7 -2 51.5t-2 53.5t2.5 65.5t2.5 67.5q0 21 -2 51q-3 45 -3 69q0 41 36 41zM213 590h-7
h-19q-17 -1 -20 -1q-20 0 -20 14q0 6 5 15t20 51q13 36 33 36h9q6 -1 10 -1q8 -2 46 -2q7 0 21 1h21q28 0 28 -13q0 -10 -22 -30q-25 -23 -54 -55q-15 -17 -26 -17q-1 0 -12 1t-13 1z" />
    <glyph glyph-name="ucircumflex" unicode="&#xfb;" 
d="M67 547h16q12 -2 66 -2q1 0 12 1t13 1q25 0 25 -29q0 -10 -2 -29t-2 -27q0 -4 1.5 -31.5t1.5 -32.5q0 -6 -1 -21q-1 -9 -2 -29q-1 -14 -1 -79q0 -11 1 -33t1 -33q0 -7 -1 -19.5t-1 -19.5q0 -31 27 -31q35 0 35 70v19q-1 16 -1 19q0 5 2 38t2 39q0 5 -1.5 34.5t-1.5 35.5
q0 9 1 26.5t1 25.5q0 6 -2 36.5t-2 35.5q0 22 15 31q6 4 32 4q2 0 17.5 -1t18.5 -1q4 0 29 1h29q31 0 31 -24q0 -4 -1.5 -32t-1.5 -34q0 -4 1 -33.5t1 -35.5q0 -12 -1 -36t-1 -37q0 -3 1 -26v-28q0 -6 -1.5 -42.5t-1.5 -43.5q0 -3 1 -23t1 -24v-22q-1 -18 -1 -22t1 -29
t1 -30q0 -23 -29 -23q-3 0 -26 1t-28 1t-29.5 -1.5t-26.5 -1.5q-10 0 -12.5 6t-5 14.5t-10.5 8.5q-4 0 -19 -10q-38 -25 -95 -24q-73 1 -100 53q-11 22 -11 56q0 3 1.5 21.5t1.5 22.5q0 7 -2 51.5t-2 53.5t2.5 65.5t2.5 67.5q0 21 -2 51q-3 45 -3 69q0 41 36 41zM75 607
q0 6 17 21q10 8 42 49q25 31 49 31q3 0 16.5 -1t15.5 -1h20q3 0 22 1t23 1q10 0 16 -3q10 -5 35 -38q15 -20 32 -37q21 -21 21 -27q0 -11 -15 -11q-5 0 -8 1q-39 2 -43 2q-2 0 -16.5 -1t-17.5 -1q-17 0 -36 24q-15 19 -21 19q-3 0 -16 -17q-18 -24 -35 -24q-1 0 -12 1h-12
q-40 0 -51 -1q-3 -1 -9 -1q-17 0 -17 13z" />
    <glyph glyph-name="udieresis" unicode="&#xfc;" 
d="M67 547h16q12 -2 66 -2q1 0 12 1t13 1q25 0 25 -29q0 -10 -2 -29t-2 -27q0 -4 1.5 -31.5t1.5 -32.5q0 -6 -1 -21q-1 -9 -2 -29q-1 -14 -1 -79q0 -11 1 -33t1 -33q0 -7 -1 -19.5t-1 -19.5q0 -31 27 -31q35 0 35 70v19q-1 16 -1 19q0 5 2 38t2 39q0 5 -1.5 34.5t-1.5 35.5
q0 9 1 26.5t1 25.5q0 6 -2 36.5t-2 35.5q0 22 15 31q6 4 32 4q2 0 17.5 -1t18.5 -1q4 0 29 1h29q31 0 31 -24q0 -4 -1.5 -32t-1.5 -34q0 -4 1 -33.5t1 -35.5q0 -12 -1 -36t-1 -37q0 -3 1 -26v-28q0 -6 -1.5 -42.5t-1.5 -43.5q0 -3 1 -23t1 -24v-22q-1 -18 -1 -22t1 -29
t1 -30q0 -23 -29 -23q-3 0 -26 1t-28 1t-29.5 -1.5t-26.5 -1.5q-10 0 -12.5 6t-5 14.5t-10.5 8.5q-4 0 -19 -10q-38 -25 -95 -24q-73 1 -100 53q-11 22 -11 56q0 3 1.5 21.5t1.5 22.5q0 7 -2 51.5t-2 53.5t2.5 65.5t2.5 67.5q0 21 -2 51q-3 45 -3 69q0 41 36 41zM58 680
q0 20 20 23h45h16q14 -1 17 -1q2 0 19 1h19q26 0 25 -24q-1 -27 -1 -52.5t-29 -25.5q-2 0 -14 1h-15q-3 0 -24 1h-23h-16q-13 -1 -15 -1q-24 0 -24 21q0 3 1 16t1 15t-1 13t-1 13zM245 684q0 18 16 18q4 0 6 -1h79q5 0 19 1h18q25 0 25 -18v-13q-1 -13 -1 -16v-29
q0 -24 -44 -24q-3 0 -21 1t-22 1h-19q-13 -1 -20 -1q-21 0 -27 3q-9 5 -9 21q0 1 1 13v14.5v13.5q-1 10 -1 16z" />
    <glyph glyph-name="yacute" unicode="&#xfd;" horiz-adv-x="375" 
d="M221 474l2 40q1 18 4 25q6 13 23 14h16q15 -1 17 -1t12 1h11q19 0 27 -2q2 0 11 1h10q27 0 25 -29q-2 -36 -5 -75q-1 -8 -6 -31q-10 -43 -18 -83q-5 -21 -15 -62q-5 -26 -19 -79q-2 -7 -21 -61l-6 -24q-19 -70 -25 -88q-9 -22 -26 -45q-36 -48 -100 -56q-16 -2 -81 -2
q-24 0 -39 13q-10 9 -12 38v79q0 12 2 16q7 14 30 14q6 0 15.5 -3t10.5 -3q15 0 20 15q1 2 1 16v8q-4 15 -7 32t-18 75q-9 31 -14 55q-8 43 -16 85q-5 30 -15 69q-15 61 -15 98q0 29 26 29q6 0 9 -1q12 -1 36 -1q21 0 39 1q36 2 33 2q23 0 26 -23.5t5 -57.5q7 -52 14 -124
q1 -45 8 -45l3 6q10 67 10 72q2 23 5 54q3 13 7 38zM170 590h-7h-19q-17 -1 -20 -1q-20 0 -20 14q0 6 5 15t20 51q13 36 33 36h9q6 -1 10 -1q8 -2 46 -2q7 0 21 1h21q28 0 28 -13q0 -10 -22 -30q-25 -23 -54 -55q-15 -17 -26 -17q-1 0 -12 1t-13 1z" />
    <glyph glyph-name="thorn" unicode="&#xfe;" 
d="M32 369v59q0 7 -1.5 48t-1.5 49q0 6 1.5 43t1.5 44q0 3 -1 25t-1 26q0 43 35 43q1 0 11 -1t11 -1q11 -1 18 -1q16 0 32 1h16q12 2 18 2q28 0 28 -40q0 -5 -2 -33.5t-2 -34.5v-64q2 -8 5 -8l9 3q5 4 13 11q20 15 56 15t72 -21q18 -10 34 -31q6 -9 13 -19q23 -39 33 -106
q4 -26 4 -137q0 -39 -5 -63q-13 -62 -31.5 -98.5t-52.5 -61.5q-39 -28 -81 -28q-17 0 -37 7q-1 0 -12 4.5t-14 4.5q-10 0 -10 -32q0 -2 1 -18v-18q0 -26 -25 -26q-9 0 -13 1h-17q-16 1 -37 1q-2 0 -17 -1h-18q-35 0 -35 33q0 5 1.5 80t1.5 90q0 19 -1.5 58t-1.5 58
q0 5 1.5 38.5t1.5 40.5v29q-1 19 -1 29zM234 379q-40 0 -40 -119q0 -99 38 -99q14 0 24 13q16 21 16 102q0 48 -6 72q-8 31 -32 31z" />
    <glyph glyph-name="ydieresis" unicode="&#xff;" horiz-adv-x="375" 
d="M221 474l2 40q1 18 4 25q6 13 23 14h16q15 -1 17 -1t12 1h11q19 0 27 -2q2 0 11 1h10q27 0 25 -29q-2 -36 -5 -75q-1 -8 -6 -31q-10 -43 -18 -83q-5 -21 -15 -62q-5 -26 -19 -79q-2 -7 -21 -61l-6 -24q-19 -70 -25 -88q-9 -22 -26 -45q-36 -48 -100 -56q-16 -2 -81 -2
q-24 0 -39 13q-10 9 -12 38v79q0 12 2 16q7 14 30 14q6 0 15.5 -3t10.5 -3q15 0 20 15q1 2 1 16v8q-4 15 -7 32t-18 75q-9 31 -14 55q-8 43 -16 85q-5 30 -15 69q-15 61 -15 98q0 29 26 29q6 0 9 -1q12 -1 36 -1q21 0 39 1q36 2 33 2q23 0 26 -23.5t5 -57.5q7 -52 14 -124
q1 -45 8 -45l3 6q10 67 10 72q2 23 5 54q3 13 7 38zM10 681q0 20 20 23h45h16q14 -1 17 -1q2 0 19 1h19q26 0 25 -24q-1 -27 -1 -52.5t-29 -25.5q-2 0 -14 1h-15q-3 0 -24 1h-23h-16q-13 -1 -15 -1q-24 0 -24 21q0 3 1 16t1 15t-1 13t-1 13zM197 685q0 18 16 18q4 0 6 -1h79
q5 0 19 1h18q25 0 25 -18v-13q-1 -13 -1 -16v-29q0 -24 -44 -24q-3 0 -21 1t-22 1h-19q-13 -1 -20 -1q-21 0 -27 3q-9 5 -9 21q0 1 1 13v14.5v13.5q-1 10 -1 16z" />
    <glyph glyph-name="dotlessi" unicode="&#x131;" horiz-adv-x="229" 
d="M158 553q21 0 30.5 -7t9.5 -32q0 -11 -1.5 -32t-1.5 -32q0 -6 1 -42v-43v-39q-1 -33 -1 -39q0 -4 1 -27t1 -28v-137q0 -68 -2 -78q-3 -17 -43 -17q-3 0 -23.5 1t-24.5 1q-20 0 -30 -1q-5 -1 -14 -1q-21 0 -28 16q-3 7 -3 44q0 4 1 30.5t1 31.5q0 10 -1 29.5t-1 28.5
q0 4 1 29v29t1 36v37t-1 43t-1 44q0 4 1 32v33v18q-1 15 -1 18q0 40 15 49q7 3 58 3q4 0 27.5 1t28.5 1z" />
    <glyph glyph-name="Lslash" unicode="&#x141;" horiz-adv-x="396" 
d="M34 383v125q0 7 1.5 49t1.5 50q0 4 -1 32t-1 34q0 36 37 36q3 0 23.5 -1.5t24.5 -1.5q9 0 26.5 1t26.5 1q46 0 46 -28q0 -1 -1 -11t-1 -15q-4 -52 -4 -73q0 -7 1 -50v-51q0 -5 -1.5 -11.5t-1.5 -7.5q0 -7 7 -7l8 8q21 16 48 37q22 19 31 19q11 0 11 -15q0 -7 -1 -10v-9
q-1 -6 -1 -9t1 -22v-19q0 -19 -14 -30t-34 -25q-12 -12 -39 -31q-11 -8 -13.5 -13.5t-2.5 -26.5q0 -3 1.5 -24.5t1.5 -25.5v-12q-1 -11 -1 -13q0 -51 42 -58q3 -1 27 -1h10q9 -1 10 -1q3 0 17 1t16 1q29 0 37 -20q5 -12 5 -46q0 -5 -1 -37t-1 -38q0 -35 -33 -35
q-4 0 -28 1.5t-29 1.5h-20q-18 -1 -21 -1q-8 0 -57 1h-58q-4 0 -27 -1.5t-27 -1.5q-45 0 -45 41v29q0 16 3 64v15q-1 13 -1 16q1 12 1 11q0 16 -8 16q1 0 -8 -6q-3 -3 -7 -3q-11 0 -11 13v21q0 4 -1 27v26q0 14 24 34q13 11 13 40q0 6 -1 19.5t-1 20.5z" />
    <glyph glyph-name="lslash" unicode="&#x142;" horiz-adv-x="229" 
d="M115 705q3 0 26 1h26q31 0 31 -29q0 -9 -1 -19q-3 -31 -3 -53q0 -5 1 -34.5t1 -35.5q-1 -8 -1 -31q0 -7 2 -7q4 0 14 10q6 3 8 3q11 0 11 -16v-16q-1 -14 -1 -17v-33q0 -17 -23 -34q-12 -9 -12 -47q0 -11 1.5 -79t1.5 -81v-36q-1 -31 -1 -37q0 -5 1.5 -36.5t1.5 -37.5
q0 -28 -7.5 -34.5t-27.5 -6.5h-30q-25 1 -30 1q-3 0 -20 -1h-21q-29 0 -33 22q-1 2 -1 22q0 5 1.5 38t1.5 39t-1 40.5t-1 41.5q0 2 1 13v12.5v9.5q-1 7 -1 10.5t-2 4.5q-1 0 -8.5 -4.5t-9.5 -4.5q-9 0 -9 12q0 1 1 16.5t1 18.5q0 2 -1.5 19t-1.5 20q0 16 21 30q9 6 9 17v93
v51q0 5 1 39t1 41l-2 40q-1 20 -1 19q0 24 5 33.5t23 11.5q11 1 58 1z" />
    <glyph glyph-name="OE" unicode="&#x152;" horiz-adv-x="708" 
d="M269 -8h-10q-104 0 -161 49q-38 32 -52 106q-16 82 -16 216q0 3 2 87q1 61 6 88q7 45 29.5 85.5t69.5 65.5q54 29 127 29q12 0 53 -3q29 -5 69 -10q25 -2 81 -2h62h19q15 -1 18 -1q27 0 61 3q12 1 24 1q16 0 22 -7.5t6 -27.5v-9q-1 -6 -1 -9q-2 -36 -2 -67q0 -41 -30 -41
h-43q-37 -1 -44 -1q-49 0 -60 -8t-11 -47q0 -45 33 -45q1 0 12 1h13.5h15.5q14 -1 16 -1q4 0 12 1h12.5h11.5q7 -1 10 -1q2 0 9 1h9q27 0 27 -35v-88q0 -44 -34 -44q-7 0 -47 2t-48 2q-36 0 -46 -15q-5 -8 -5 -47q0 -37 16 -46q23 -13 87 -13q2 0 18.5 1.5t20.5 2t16 0.5
q21 0 29 -7q13 -12 13 -49q0 -4 -1 -29t-1 -30v-11q0 -28 -16 -38q-8 -4 -42 -4q-75 0 -116 2t-56 2q-63 0 -106 -2q-11 -1 -41 -4q-26 -3 -41 -3zM260 548q-23 0 -37 -18.5t-14 -124.5q0 -110 5 -190q3 -56 47 -56q33 0 43 27q7 18 7 69q0 22 -1 78t-1 77q0 76 -4 97
q-8 41 -45 41z" />
    <glyph glyph-name="oe" unicode="&#x153;" horiz-adv-x="708" 
d="M367 524q68 28 116 28q17 0 52 -6q25 -4 40 -9q26 -9 48 -26q29 -23 48 -62q20 -42 20 -86q0 -6 -1 -39t-1 -40q0 -1 1 -12v-13q0 -19 -12 -34t-30 -15q-2 0 -16 1h-17h-31q-21 -1 -32 -1q-5 0 -36 1.5t-37 1.5q-37 0 -37 -24q0 -22 24.5 -39t77.5 -17q34 0 56 7
q13 5 39 12q3 1 7 1q27 0 31 -25q-1 7 -1 -54q0 -2 1 -15v-16q0 -10 -3.5 -17t-38 -19.5t-102.5 -12.5q-79 0 -127 17q-19 7 -34 15q-1 0 -3.5 -0.5t-4.5 -1.5q-8 -4 -21 -9q-35 -15 -53.5 -17.5t-78.5 -2.5q-77 0 -132 49t-55 151q0 9 1 26v26q0 5 -1 29.5t-1 28.5
q1 30 3 55q1 18 8 60q18 69 68.5 100.5t115.5 31.5t107 -11q20 -5 42 -17zM531 346v30q0 50 -43 50q-21 0 -34 -17q-3 -4 -9.5 -26.5t-6.5 -33.5q0 -28 22 -28q4 0 14 1t13 1q14 1 25 1q21 0 19 22zM191 271v-50v-22q-1 -19 -1 -23q0 -44 37 -44q24 0 37 17q11 14 11 73
q0 4 -2 31t-2 32q0 7 1 20.5t1 18.5q1 20 1 30q0 32 -8 45q-11 18 -32 18q-44 0 -44 -83q0 -3 1 -20.5t1 -20.5v-11q-1 -7 -1 -11z" />
    <glyph glyph-name="Scaron" unicode="&#x160;" horiz-adv-x="417" 
d="M23 503q0 70 17 109q25 58 75 81t122 23q76 0 101 -5q38 -9 38 -38l-1 -31.5t-1 -38.5q0 -2 1 -17v-18q0 -38 -38 -38h-7l-40 11q-15 4 -35 4q-44 0 -44 -36q0 -19 13 -35q9 -12 46 -45q13 -13 37 -35q53 -46 73 -81q27 -45 27 -105q0 -91 -27 -132q-37 -57 -107 -75
q-41 -11 -111 -11q-97 0 -129 23q-17 12 -17 31q0 4 1.5 31t1.5 32q0 3 -1 22t-1 23q0 45 36 45q25 0 39 -12q6 -5 19.5 -15t46.5 -10q59 0 59 37q0 20 -28 49q-21 19 -40.5 38.5t-46.5 44.5q-45 41 -62 77.5t-17 96.5zM55 853q0 11 13 11q17 -1 16 -1q3 0 19.5 -1t20.5 -1
q2 0 15 1t15 1q16 0 29 -15q4 -4 11 -14q9 -15 17 -15q4 0 10 10q23 31 42 31h16q13 -1 15 -1q4 0 26.5 1t26.5 1q16 0 16 -13q0 -5 -13 -17q-8 -8 -48 -55q-23 -27 -51 -27q-3 0 -18 1h-18q-8 0 -23.5 -1t-22.5 -1q-23 0 -32 6t-28.5 32t-41.5 48q-12 12 -12 19z" />
    <glyph glyph-name="scaron" unicode="&#x161;" horiz-adv-x="375" 
d="M334 436l-1 -14q-1 -8 -11 -16.5t-20 -8.5q-4 0 -7 0.5t-31 12.5q-19 8 -30 8q-32 0 -32 -22q0 -9 5.5 -15.5t34.5 -22.5t64 -36q4 -3 18 -20q3 -3 7 -9q35 -39 35 -110q0 -56 -27 -105q-47 -85 -188 -85q-61 0 -108 17q-21 8 -25 17t-4 40v35q-1 30 -1 36q0 41 37 41
q8 0 25 -8q25 -12 58 -12q50 0 50 28q0 15 -18 29q-2 2 -52 35q-17 11 -44 30q-50 46 -50 122q0 40 14 68q22 45 47 64q42 30 126 30q38 0 89 -5q40 -4 40 -35q0 -7 -1.5 -20t-1.5 -20q0 -2 1 -23.5t1 -25.5zM64 708h31q2 0 19 1h19q16 0 39 -29q12 -15 16 -15q5 0 10.5 9
t10.5 14q12 17 25 18h32q4 0 29 1h31q13 0 14 -12q1 -5 -11 -16q-21 -20 -42 -47q-18 -23 -22 -27q-12 -10 -32 -10q-3 0 -18 1h-19t-25 -1t-26 -1q-29 0 -45 21t-52 62q-15 14 -15 21q0 12 16 12q5 0 15 -2z" />
    <glyph glyph-name="Ydieresis" unicode="&#x178;" horiz-adv-x="479" 
d="M219 0l-34 -1q-35 -1 -35 33v52v14q-1 12 -1 14q0 3 1.5 23.5t1.5 24.5q0 7 -1 21.5t-1 21.5v28q0 8 -2 25q-1 10 -25 85q-16 51 -46 118q-9 20 -29 75q-19 64 -34.5 102.5t-15.5 44.5q0 3 2 9q6 17 27 17q3 0 25.5 -1t26.5 -1q5 0 35.5 1t36.5 1q18 0 27 -11
q12 -14 23 -66l9 -45q9 -33 22 -79q7 -28 10 -28q4 0 9 13q6 41 19 76q9 23 18 71q8 41 12 50q11 20 40 20q10 0 28 -1t27 -1q3 0 21 1h22q19 0 26 -4q15 -9 15 -25q0 -12 -8 -40q-23 -79 -49 -147q-3 -8 -9 -23q-16 -46 -52 -137q-33 -75 -33 -109q0 -6 1 -19v-19
q0 -5 -1.5 -34.5t-1.5 -35.5q0 -5 1 -34.5t1 -35.5q0 -40 -26 -43h-40q-9 0 -43 -1zM62 833q0 24 30 24q4 0 27.5 -1.5t28.5 -1.5q3 0 23 1h23q29 0 29 -18v-15q-1 -12 -1 -14v-29q0 -25 -35 -25q-5 0 -38.5 1t-39.5 1h-12q-10 -1 -11 -1q-24 0 -24 22v5q1 3 1 4q1 9 1 19
q0 2 -1 13.5t-1 14.5zM249 835q0 19 24 17h15h26q22 -1 26 -1t24 1t23 1q25 0 25 -17v-5q-2 -8 -2 -24q0 -2 1 -15v-15q0 -25 -32 -25q-4 0 -26.5 1.5t-27.5 1.5h-20q-17 -1 -20 -1q-33 0 -36 17q1 -5 1 29v17q-1 15 -1 18z" />
    <glyph glyph-name="Zcaron" unicode="&#x17d;" horiz-adv-x="437" 
d="M120 537h-33h-7q-6 -1 -7 -1q-12 0 -21.5 10t-9.5 20q0 2 1 11v10t1 12v13v21q-1 13 -1 20q0 29 2 34q9 21 47 21h56q49 -1 58 -1q4 0 26 1h27q4 0 29 -1t30 -1h18q4 0 25 1h24q36 0 38 -28t2 -83q0 -19 -30 -83q-4 -11 -12 -31q-11 -26 -43 -81q-29 -51 -41 -81
q-14 -34 -38 -78.5t-24 -59.5q0 -14 15 -14q13 0 32 1q57 3 101 3q40 0 40 -31v-23q-1 -19 -1 -23t1 -27v-27q0 -15 -4 -27q-15 -15 -26 -15q-5 1 -21 2q-22 2 -36 2q-4 0 -28 -1t-29 -1q-9 0 -28 1h-28h-22q-19 -1 -23 -1q-3 0 -26 1h-27h-28q-6 0 -24 -1t-25 -1
q-40 0 -40 42v37q-1 31 -1 36q0 15 15 41q19 32 47 94q10 22 42 84q9 16 25 49q9 21 23 45q38 66 38 91q0 14 -10 18l-20 1h-24q-21 -1 -25 -1zM76 853q0 11 13 11q17 -1 16 -1q3 0 19.5 -1t20.5 -1q2 0 15 1t15 1q16 0 29 -15q4 -4 11 -14q9 -15 17 -15q4 0 10 10
q23 31 42 31h16q13 -1 15 -1q4 0 26.5 1t26.5 1q16 0 16 -13q0 -5 -13 -17q-8 -8 -48 -55q-23 -27 -51 -27q-3 0 -18 1h-18q-8 0 -23.5 -1t-22.5 -1q-23 0 -32 6t-28.5 32t-41.5 48q-12 12 -12 19z" />
    <glyph glyph-name="zcaron" unicode="&#x17e;" horiz-adv-x="354" 
d="M28 516q0 32 34 32q2 0 18.5 -1t19.5 -1q4 0 28 1h27h27q23 -1 28 -1q11 0 33 1h32q34 0 45 -1q25 -2 25 -29v-60q0 -15 -10 -31q-11 -22 -32 -65q-6 -15 -19 -45q-22 -47 -46 -92q-17 -31 -17 -45q0 -17 31 -17q42 0 53 2t13 2q23 0 23 -21q0 -4 -3 -15t-3 -66
q0 -17 1.5 -25t1.5 -13q0 -10 -8 -18.5t-20 -8.5q-2 0 -15 1.5t-16 1.5q-17 0 -59 -1.5t-58 -1.5h-36q-24 1 -35 1q-3 0 -21 -1h-22q-37 0 -37 36q0 4 1 27v27q0 20 16 44q13 20 31 67q14 37 29 66q21 37 49 88q5 9 5 17q0 13 -18 16h-12q-10 -1 -12 -1q-5 0 -17 1t-18 1
h-11q-30 0 -29 28l2 39q1 15 1 61zM65 708h31q2 0 19 1h19q16 0 39 -29q12 -15 16 -15q5 0 10.5 9t10.5 14q12 17 25 18h32q4 0 29 1h31q13 0 14 -12q1 -5 -11 -16q-21 -20 -42 -47q-18 -23 -22 -27q-12 -10 -32 -10q-3 0 -18 1h-19t-25 -1t-26 -1q-29 0 -45 21t-52 62
q-15 14 -15 21q0 12 16 12q5 0 15 -2z" />
    <glyph glyph-name="florin" unicode="&#x192;" horiz-adv-x="375" 
d="M240 31l-4 -28q-6 -39 -33 -60q-3 -3 -11 -8q-1 -1 -3 -3.5t-3 -3.5q-22 -18 -89 -18q-2 0 -11 1t-16 1q-23 1 -27 1q-1 0 -8 -1h-9q-31 0 -31 34q0 8 2.5 24t2.5 23q1 3 1 11q0 2 -1 12.5t-1 12.5q0 27 28 27h10q8 -1 9 -1q23 0 31 26q5 16 13 126l3 69q0 2 3 32
q3 27 3 33q0 15 -5 20l-14 4.5t-14 22.5q0 4 3.5 28t3.5 28q2 16 2 54q0 12 12 18q6 0 14 3.5t10 24.5q0 3 2 20q1 22 2 46t10 42q29 57 88 57h23q0 -1 1 -1h8q3 0 20.5 2t21.5 2h16q14 -1 16 -1q14 0 23 -7q12 -10 12 -29v-2q0 -7 -3.5 -21l-4.5 -18q0 -7 -1 -20
q0 -29 -5 -37t-21 -10q-30 -4 -36.5 -11t-6.5 -22q0 -18 37 -18q1 0 6 1h5q19 0 19 -20v-1q-1 -7 -5 -19q-8 -36 -8 -77v-18q0 -20 -15 -20h-16q-33 0 -38 -25l-4 -53t-4 -57q0 -2 1 -19v-19q0 -2 -5 -50q0 -8 -2 -25q-3 -26 -6 -59q0 -17 -1 -24z" />
    <glyph glyph-name="circumflex" unicode="&#x2c6;" horiz-adv-x="271" 
d="M-19 607q0 6 17 21q10 8 42 49q25 31 49 31q3 0 16.5 -1t15.5 -1h20q3 0 22 1t23 1q10 0 16 -3q10 -5 35 -38q15 -20 32 -37q21 -21 21 -27q0 -11 -15 -11q-5 0 -8 1q-39 2 -43 2q-2 0 -16.5 -1t-17.5 -1q-17 0 -36 24q-15 19 -21 19q-3 0 -16 -17q-18 -24 -35 -24
q-1 0 -12 1h-12q-40 0 -51 -1q-3 -1 -9 -1q-17 0 -17 13z" />
    <glyph glyph-name="caron" unicode="&#x2c7;" horiz-adv-x="271" 
d="M13 708h31q2 0 19 1h19q16 0 39 -29q12 -15 16 -15q5 0 10.5 9t10.5 14q12 17 25 18h32q4 0 29 1h31q13 0 14 -12q1 -5 -11 -16q-21 -20 -42 -47q-18 -23 -22 -27q-12 -10 -32 -10q-3 0 -18 1h-19t-25 -1t-26 -1q-29 0 -45 21t-52 62q-15 14 -15 21q0 12 16 12q5 0 15 -2
z" />
    <glyph glyph-name="breve" unicode="&#x2d8;" horiz-adv-x="271" 
d="M-6 687q0 22 20 22q1 0 11 -1t12 -1q3 0 17 1t16 1q19 0 23 -13q1 -3 2 -10q7 -26 42 -26q33 0 41 26q4 13 6 16.5t9 5.5h24h6q3 0 18 1h17q20 0 20 -23q0 -40 -29 -63q-35 -27 -120 -27q-88 0 -119 38q-16 20 -16 53z" />
    <glyph glyph-name="dotaccent" unicode="&#x2d9;" horiz-adv-x="271" 
d="M54 682q0 20 16 20h25q21 -1 25 -1q49 0 61 1q2 0 6 1h6q24 0 24 -18v-14q-1 -13 -1 -15v-28q0 -26 -42 -26q-3 0 -22.5 1t-23.5 1h-20q-17 -1 -20 -1q-20 0 -27 4t-7 21q0 1 1 12v14.5v13.5q-1 9 -1 14z" />
    <glyph glyph-name="ring" unicode="&#x2da;" horiz-adv-x="271" 
d="M34 690q0 27 21 53q29 36 78 36q37 0 65 -16q39 -22 39 -78q0 -28 -12.5 -48.5t-45.5 -33.5q-26 -11 -46 -11q-30 0 -54 13q-45 24 -45 85zM137 718q-34 0 -34 -35q0 -28 33 -28q31 0 31 34q0 29 -30 29z" />
    <glyph glyph-name="ogonek" unicode="&#x2db;" horiz-adv-x="271" 
d="M136 12l78 4q-33 -33 -47 -57q-2 -4 -7 -12q-8 -12 -8 -16q0 -13 18 -13q3 0 9.5 1.5t9.5 1.5q12 0 12 -17v-26q0 -1 1 -7v-7q0 -11 -15 -17q-50 -10 -64 -10q-23 0 -41 12q-6 4 -16 21t-10 29q0 34 20 55q11 9 32 29q1 1 3.5 4t4.5 5.5t20 19.5z" />
    <glyph glyph-name="tilde" unicode="&#x2dc;" horiz-adv-x="271" 
d="M-13 618q0 -6 1 16q0 18 9 49q15 24 56 24q18 0 44 -7l82 -22q7 0 12 5q2 4 6 13q5 6 16 5q2 0 13 -1t13 -1q4 0 11 1h11q24 0 24 -24q0 -50 -10 -66q-16 -26 -47 -26q-30 0 -91 21q-35 12 -46 12q-5 0 -7 -2q-2 -6 -7.5 -15.5t-20.5 -9.5q-6 0 -24 2h-9q-7 -1 -9 -1
q-27 0 -27 27z" />
    <glyph glyph-name="hungarumlaut" unicode="&#x2dd;" horiz-adv-x="271" 
d="M275 708q27 0 27 -15q0 -9 -19 -26q-41 -36 -54 -57q-16 -20 -31 -20q-1 0 -10 1h-10h-14q-12 -1 -15 -1q-20 0 -20 12q0 5 3 13q8 21 23 61q10 31 30 31q3 0 25 -1t26 -1q2 0 19 1.5t20 1.5zM37 593h-21q-2 0 -15 -1t-15 -1q-16 0 -16 13q0 6 3 12q0 1 8.5 24t13.5 37
q10 30 32 30q3 0 22.5 -1t23.5 -1t22.5 1t21.5 1q25 0 25 -14q0 -6 -4 -10q-30 -29 -68 -70q-16 -20 -33 -20z" />
    <glyph glyph-name="endash" unicode="&#x2013;" horiz-adv-x="500" 
d="M103 205h-66q-21 0 -21 20q0 4 1 26.5t1 27.5q0 15 -1 25q0 1 -1 9.5t-1 10.5q0 25 27 25q8 0 58 -2t59 -2q28 0 52 3q3 0 25.5 -1t26.5 -1q3 0 16 1h15q4 0 23 -1.5t22 -1.5q4 0 27.5 1.5t27.5 1.5h71q7 0 11 -2q8 -16 8 -20q0 -3 -1 -20t-1 -20q0 -20 0.5 -22t2.5 -32
q0 -27 -25 -27q-4 0 -31 1h-32q-3 0 -22.5 2t-23.5 2q-9 0 -27 -2t-27 -2h-42h-27q-4 0 -30 1.5t-31 1.5q-4 0 -31.5 -1.5t-32.5 -1.5z" />
    <glyph glyph-name="emdash" unicode="&#x2014;" horiz-adv-x="604" 
d="M556 204h-25q-18 0 -36 1q-2 0 -19 2t-20 2q-10 0 -26 -4h-29h-10q-9 -1 -11 -1t-16 1.5t-17 1.5t-21 -1.5t-22 -1.5q-3 0 -21 1t-22 1h-20q-17 -1 -21 -1q-3 0 -25.5 1t-26.5 1q-12 0 -36 -2t-36 -2q-58 0 -67 4q-14 2 -14 22q0 2 1.5 16.5t1.5 17.5q0 5 -1.5 31
t-1.5 27q0 19 15 25q10 3 39 3q38 0 58 -2h39q3 0 26 1.5t27 1.5h17q2 0 15 1h15q14 0 23 -1q20 -2 28 -3q2 0 10 1h10q2 0 14 -1t14 -1q3 0 19 1t18 1t17 -1.5t18 -1.5q4 0 27 1.5t27 1.5h18q15 -1 17 -1t17 1h17q28 0 28 -25q0 -2 -1 -15t-1 -16t1 -21t1 -22
q0 -45 -32 -45z" />
    <glyph glyph-name="quoteleft" unicode="&#x2018;" horiz-adv-x="208" 
d="M22 569q0 25 28 81.5t40 58.5h8q6 -1 7 -1q3 0 19 1h19q21 0 21 -16q0 -4 -9 -26q-12 -29 -12 -40q0 -21 14 -30q5 -2 13 -4q15 -6 15 -31v-22q-1 -19 -1 -23q0 -46 -2 -56q-6 -28 -34 -28q-2 0 -13 1h-14q-4 0 -27 -1t-27 -1q-44 0 -44 35q0 1 1 11v12q0 -1 -1 38.5
t-1 40.5z" />
    <glyph glyph-name="quoteright" unicode="&#x2019;" horiz-adv-x="208" 
d="M57 708h30q4 0 28 1h27q28 0 36 -16q4 -6 4 -44q0 -5 1 -36t1 -37q0 -18 -3 -28q-15 -34 -32 -71q-23 -45 -36 -45q-13 1 -12 1h-19q-16 -1 -20 -1q-20 0 -20 17q0 4 1 7t9 21q11 24 11 39q0 18 -13 28q-6 2 -17 6q-11 11 -11 24v30q0 3 1 22v24v15q0 43 34 43z" />
    <glyph glyph-name="quotesinglbase" unicode="&#x201a;" horiz-adv-x="208" 
d="M88 179q4 0 27.5 1t27.5 1q24 0 35.5 -10.5t11.5 -66.5v-22q-1 -18 -1 -22v-25q0 -38 -38 -101q-8 -13 -17.5 -15.5t-51.5 -2.5q-1 0 -9 -1h-9q-17 0 -17 16q0 2 6 12q10 16 10 33q0 18 -13 26q-5 1 -16.5 5t-11.5 20q0 1 1 10v10.5v13.5q-1 11 -1 13q0 12 1 19v23
q-1 19 -1 23q0 41 40 41h12q11 -1 14 -1z" />
    <glyph glyph-name="quotedblleft" unicode="&#x201c;" horiz-adv-x="375" 
d="M14 514q0 58 2.5 73.5t15 40.5l28.5 57q13 24 27 24q21 0 31 -2q39 0 39 -16q0 -3 -10 -25q-13 -28 -13 -41q0 -18 13 -27q22 -11 26 -22q2 -6 2 -39q0 -59 -4 -77q-6 -26 -45 -26q-10 1 -70 1q-34 0 -40 24q-2 8 -2 55zM199 507q0 74 6 93q1 2 24 52q19 41 24.5 49
t17.5 8h23q47 0 47 -17q0 -8 -11 -26q-12 -30 -12 -41q0 -16 12 -25q10 -5 18.5 -9.5t9.5 -17t1 -51.5q0 -65 -11.5 -76.5t-66.5 -10.5h-19q-18 -1 -21 -1q-29 0 -37 16q-5 12 -5 57z" />
    <glyph glyph-name="quotedblright" unicode="&#x201d;" horiz-adv-x="375" 
d="M200 621q0 54 7.5 71t36.5 17q3 0 22.5 -1t23.5 -1q2 0 15 1h15q34 0 39 -26q2 -10 2 -50q0 -65 -4 -83.5t-25 -57.5q-29 -55 -39 -57q-1 -1 -23 -1q-2 0 -14 1t-14 1q-24 3 -24 16q0 8 9 26q13 26 13 43q0 16 -13 25q-7 2 -24 18q-3 8 -3 58zM16 610q0 58 4 72
q6 22 36 26h79q36 0 40 -32q0 -1 1 -25v-28q0 -57 -6 -78q-3 -9 -32 -71q-15 -32 -17 -34q-8 -7 -38 -7q-49 0 -49 19q0 4 5 13q18 34 18 52q0 16 -11 25q-3 2 -9 4l-9 3q-9 6 -10.5 15.5t-1.5 45.5z" />
    <glyph glyph-name="quotedblbase" unicode="&#x201e;" horiz-adv-x="375" 
d="M198 74q0 30 2 44q0 47 39 47q3 0 19.5 -1t19.5 -1h37q39 0 42 -25q2 -8 2 -44q0 -78 -3 -88q-8 -25 -26 -60q-29 -54 -40 -56h-19q-23 0 -42 3q-13 2 -13 14q0 6 9 25q13 27 13 42q0 17 -12 25q-7 3 -17.5 11.5t-10.5 63.5zM14 67q0 4 1 27v28q0 39 36 42h53h25
q28 0 38 -12q7 -10 7 -70q0 -31 -2 -45q-1 -25 -5 -38q-6 -21 -30 -67q-3 -5 -8 -15q-8 -18 -14 -22.5t-22 -4.5q-22 0 -41.5 2t-19.5 16q0 5 10 25q13 39 13 42q0 17 -14 24q-7 2 -20 10q-7 7 -7 58z" />
    <glyph glyph-name="bullet" unicode="&#x2022;" horiz-adv-x="333" 
d="M169 508q62 0 106 -41q47 -45 47 -115q0 -66 -42.5 -110.5t-109.5 -44.5q-71 0 -116 49q-42 46 -42 106q0 63 45.5 109.5t111.5 46.5z" />
    <glyph glyph-name="ellipsis" unicode="&#x2026;" horiz-adv-x="1000" 
d="M81 107q0 40 4 51q9 25 57 22h73q36 0 36 -41v-31q-1 -26 -1 -31q0 -2 1 -15t1 -16q0 -45 -40 -45h-83q-47 0 -47 36v28v21q-1 18 -1 21zM414 107q0 40 4 51q9 25 57 22h73q36 0 36 -41v-31q-1 -26 -1 -31q0 -2 1 -15t1 -16q0 -45 -40 -45h-83q-47 0 -47 36v28v21
q-1 18 -1 21zM747 107q0 40 4 51q9 25 57 22h73q36 0 36 -41v-31q-1 -26 -1 -31q0 -2 1 -15t1 -16q0 -45 -40 -45h-83q-47 0 -47 36v28v21q-1 18 -1 21z" />
    <glyph glyph-name="guilsinglleft" unicode="&#x2039;" horiz-adv-x="167" 
d="M143 154q0 -23 -15 -23q-7 0 -17 8l-61 40q-18 12 -22 17t-5 18v56v27q-1 22 -1 27q0 15 4 21t24 19q3 1 27.5 18.5t33.5 26.5q13 13 19 13q17 0 14 -21v-86q0 -16 -14 -23q-24 -11 -24 -18q0 -4 17 -13q14 -7 17 -13t3 -25v-69z" />
    <glyph glyph-name="guilsinglright" unicode="&#x203a;" horiz-adv-x="167" 
d="M24 398q0 24 15 24q6 0 17 -8q24 -15 61 -40q25 -17 27 -35v-56q0 -4 1 -27v-27q0 -15 -4 -21t-24 -19q-24 -16 -61 -45q-14 -13 -19 -13q-17 0 -14 21v86q0 16 14 23q24 11 24 18q0 5 -15.5 12.5t-18.5 13.5t-3 25v68z" />
    <glyph glyph-name="trademark" unicode="&#x2122;" horiz-adv-x="688" 
d="M674 706v-332h-82l4 177q1 33 6 68q-4 -17 -14 -54l-56 -191h-75l-59 192q-7 22 -14 51q3 -16 7 -66l4 -177h-81v332h106l76 -240l71 240h107zM187 639v-265h-84v265h-102v67h286v-67h-100z" />
    <glyph glyph-name="fi" unicode="&#xf001;" horiz-adv-x="500" 
d="M38 163v136q0 2 1 11v11q0 33 -13 38q-5 0 -14.5 3.5t-9.5 28.5q0 3 1 24v24.5v23.5q-1 19 -1 23q0 25 9 29q7 1 19 3q7 4 9 10v25v12q-1 11 -1 14q0 50 7 68q14 37 46.5 50.5t88.5 13.5q-2 0 58 -3q32 -2 32 -32q0 -3 -1 -24t-1 -25q0 -2 1.5 -16t1.5 -17q0 -28 -29 -28
q-2 0 -8 1h-8q-29 0 -29 -28q0 -25 20 -25q1 0 9 1h9q33 0 33 -28q0 -7 -1 -27.5t-1 -28.5q0 -18 1.5 -28t1.5 -17q0 -25 -32 -28q-22 -2 -30 -13t-8 -39q0 -54 1 -71q4 -68 4 -81v-32q-1 -28 -1 -33q0 -3 1 -24t1 -25q0 -39 -30 -39q-4 0 -32 1t-33 1q-7 0 -22 -1.5
t-22 -1.5q-25 0 -29 20q-1 7 -1 23q0 5 1.5 36.5t1.5 37.5v23q-1 16 -1 23zM301 666q0 43 39 43q4 0 31.5 -1t32.5 -1q2 0 14.5 1t15.5 1q8 0 19 -6t14 -26q0 -4 1 -22v-21q0 -25 -9.5 -35.5t-61.5 -10.5q-3 0 -20 1h-19h-11q-9 -1 -11 -1q-34 0 -34 47v15q-1 13 -1 16z
M468 199v-61v-54q-1 -46 -1 -55q0 -20 -11 -25q-6 -3 -29 -3q-4 0 -25 1h-25t-22 -1t-23 -1q-22 0 -28 15q-4 9 -4 35q0 5 1 34.5t1 35.5v39q-1 33 -1 40t1 53v55q0 7 -1 48.5t-1 49.5q0 5 1 30t1 29q0 3 -1 20.5t-1 20.5q0 40 23 45q15 3 99 3q27 0 35 -5q12 -8 12 -35
q0 -10 -1 -31t-1 -31v-82v-41q-1 -34 -1 -41q0 -9 1.5 -27.5t1.5 -27.5v-16q-1 -14 -1 -17z" />
    <glyph glyph-name="fl" unicode="&#xf002;" horiz-adv-x="500" 
d="M38 163v136q0 2 1 12v11q0 33 -13 38q-5 0 -14.5 3.5t-9.5 28.5q0 4 1 24v24.5v22.5q-1 20 -1 23q0 25 9 30q3 1 9.5 1t9.5 1q8 4 9 11v24v13q-1 11 -1 13q0 50 7 68q14 37 46.5 50.5t88.5 13.5q-2 0 58 -3q32 -2 32 -32q0 -3 -1 -24t-1 -25q0 -2 1 -16t1 -17
q0 -28 -28 -28q-2 0 -8 1h-8q-29 0 -29 -28q0 -25 20 -25q1 0 9 1h9q32 0 32 -28v-28q-1 -20 -1 -28q0 -18 1.5 -28t1.5 -17q0 -25 -32 -28q-22 -2 -30 -13t-8 -39q0 -55 1 -71q4 -66 4 -81v-32q-1 -27 -1 -33q0 -3 1 -23.5t1 -24.5q0 -40 -30 -40q-4 0 -32 1.5t-33 1.5
t-14 -1t-12 -1q-13 -1 -18 -1q-11 0 -19 4q-11 7 -11 38q0 5 1.5 37t1.5 38v23q-1 15 -1 22zM338 706h58q2 0 20 1h21q32 0 32 -31v-10q-4 -41 -4 -60q0 -5 1 -38v-38q0 -2 -1 -22v-23v-137q0 -8 1.5 -55t1.5 -56v-56v-36q-1 -26 -1 -36q0 -5 1.5 -33.5t1.5 -34.5
q0 -36 -19 -40q-3 -1 -25 -1q-3 0 -25.5 1t-26.5 1q-3 0 -20 -1t-20 -1q-33 0 -33 29q0 6 1 43t1 44v44q-1 29 -1 44q0 5 1 35v35q0 21 -3 99v35q1 32 1 35v34q-1 28 -1 34t1.5 45t1.5 46q0 16 -2 41q-1 12 -1 18q0 39 19 43q7 2 19 2z" />
    <glyph glyph-name="glyph204" horiz-adv-x="271" 
 />
  </font>
</defs>
</svg>
