<?xml version="1.0" standalone="no"?>
<!DOCTYPE svg PUBLIC "-//W3C//DTD SVG 1.1//EN" "http://www.w3.org/Graphics/SVG/1.1/DTD/svg11.dtd" >
<svg xmlns="http://www.w3.org/2000/svg" xmlns:xlink="http://www.w3.org/1999/xlink" version="1.1">
<metadata>
Created by FontForge 20170731 at Mon Feb  8 02:20:03 1999
 By Aleksey,,,
Copyright (c) 1992 Adobe Systems Incorporated.  All Rights Reserved.Block Berthold is a registered trademark of H. Berthold AG.
</metadata>
<defs>
<font id="BlockBEItalic" horiz-adv-x="521" >
  <font-face 
    font-family="BlockBE"
    font-weight="400"
    font-style="italic"
    font-stretch="normal"
    units-per-em="1000"
    panose-1="0 0 4 0 0 0 0 0 0 0"
    ascent="800"
    descent="-200"
    x-height="507"
    cap-height="713"
    bbox="-60 -147 1033 901"
    underline-thickness="50"
    underline-position="-175"
    slope="-11"
    unicode-range="U+0020-F002"
  />
<missing-glyph horiz-adv-x="500" 
d="M63 0v869h375v-869h-375zM125 63h250v744h-250v-744z" />
    <glyph glyph-name=".notdef" horiz-adv-x="500" 
d="M63 0v869h375v-869h-375zM125 63h250v744h-250v-744z" />
    <glyph glyph-name=".null" horiz-adv-x="0" 
 />
    <glyph glyph-name="nonmarkingreturn" horiz-adv-x="375" 
 />
    <glyph glyph-name="space" unicode=" " horiz-adv-x="375" 
 />
    <glyph glyph-name="exclam" unicode="!" horiz-adv-x="250" 
d="M210 708h21q8 -1 25 -3q26 -2 37 -7q18 -10 18 -37q0 -17 -20 -84q-7 -25 -17 -60q-4 -12 -11 -30q-3 -12 -9 -35l-18 -67q-7 -23 -21 -67q-3 -13 -10 -37q-4 -9 -11 -29q-2 -9 -6 -26q-7 -25 -23 -33q-12 -6 -39 -6q-39 0 -39 28q0 3 1 20q3 35 11 101l7 54q2 17 4 50
q6 102 14 152q4 16 9 48q1 13 6 36q7 19 20 25.5t51 6.5zM175 158h8q20 0 20 -24q0 -5 -7 -31q-4 -20 -10 -47l-6 -27.5t-30 -27.5q-3 0 -23.5 1.5t-24.5 1.5q-3 0 -25 -1.5t-26 -1.5q-30 0 -30 24q0 8 11 46q3 19 11 57q8 33 33 33l19 -3q13 -2 38 -2q27 0 42 2z" />
    <glyph glyph-name="quotedbl" unicode="&#x22;" horiz-adv-x="375" 
d="M457 669l-53 -261h-31l-55 250q-2 9 -2 23q0 34 26 53q21 15 49 15q25 0 43 -13q25 -17 25 -51q0 -6 -2 -16zM249 669l-53 -261h-31l-55 250q-2 9 -2 23q0 34 26 53q21 15 49 15q25 0 43 -13q25 -17 25 -51q0 -6 -2 -16z" />
    <glyph glyph-name="dollar" unicode="$" horiz-adv-x="458" 
d="M326 790v13q0 29 34 29h17q15 -1 18 -1h11q25 0 25 -19q0 -9 -5 -27q-6 -25 -7 -28q-6 -12 -6 -40q0 -7 14 -9q25 -4 60 -16q39 -14 39 -33q0 -5 -5 -27q-5 -25 -5 -27q-4 -24 -8 -51.5t-23 -27.5q-5 0 -36 11q-68 24 -102 24q-69 0 -69 -49q0 -20 19 -42q12 -15 21 -21
q17 -14 50 -42q7 -6 56 -60q3 -3 8 -10q43 -66 43 -130q0 -59 -28 -104q-20 -33 -73 -70q-35 -25 -81 -31q-16 -2 -20.5 -8t-7.5 -30q-4 -18 -8 -44q0 -10 -4 -29q-6 -13 -20 -15q6 1 -43 1q-1 0 -9 -1t-10 -1q-21 0 -21 19q0 -7 4 17q2 15 6 36q8 44 8 36q0 12 -19 15
q-133 22 -133 63q0 6 7 25q10 26 14 75q3 37 27 37q17 0 50 -15q13 -6 54 -18q29 -6 48 -6q28 0 42 6q31 14 31 41q0 23 -19 50q-7 10 -45 42q-44 38 -73 71q-51 59 -51 128q0 35 21 83q27 60 70 91q35 25 98 35q16 2 21 5.5t6 16.5q0 9 2 27q1 4 4 18q3 10 3 17z" />
    <glyph glyph-name="percent" unicode="%" horiz-adv-x="833" 
d="M80 405v8q1 7 1 9q1 17 1 26q0 4 4 28q1 9 4 27q1 8 21 76q2 8 10 23q14 27 18 35q10 16 23 29q21 21 50.5 33t57.5 12q47 0 74 -13q14 -7 30 -20q29 -29 37 -79q2 -13 2 -35v-18q0 -11 -4 -35q-9 -53 -19 -93q-6 -25 -23 -60q-7 -15 -27 -45q-47 -56 -127 -56
q-52 0 -90 31q-29 23 -39 72q0 2 -2 23t-2 22zM268 620q-22 0 -32 -17q-12 -20 -16 -34q-3 -9 -8 -36q-1 -3 -2 -9t-2 -9q-2 -8 -5 -23q-1 -8 -3 -20.5t-7 -34.5q0 -1 -1 -22.5t-1 -23.5q0 -41 30 -41q23 0 35 20q17 28 31 106q13 68 13 104q0 40 -32 40zM507 161v21
q0 8 7 59q4 26 24 87q3 4 9.5 21.5t27.5 44.5q11 15 23 23q37 34 87 34q56 0 83 -12q24 -10 45 -37q12 -16 18 -39q7 -30 7 -43q0 -46 -3 -61t-7 -42q0 -3 -12 -55q-5 -24 -23 -63q-13 -28 -25 -43q-32 -38 -75 -52q-15 -5 -46 -7h-15q-13 1 -15 1q-15 4 -37 11
q-23 12 -32 19q-32 27 -39 72q0 8 -2 23.5t-2 19.5q0 6 2 18zM693 360q-7 0 -18.5 -5t-19.5 -23q-3 -6 -10 -19q-2 -7 -5 -22q-1 -5 -4 -16q-1 -2 -3 -16q-2 -8 -5 -23q-6 -27 -10 -56q-2 -14 -2 -44q0 -46 30 -46q21 0 36 22q7 11 17 46q26 95 26 163q0 13 -2 20
q-10 19 -30 19zM606 707h39q-2 0 9 1q7 0 7 -8q0 -5 -17 -34q-14 -23 -30 -64q-2 -5 -5 -14q-4 -5 -9.5 -15.5t-14.5 -27.5q-5 -10 -13 -29q-1 -3 -5 -11l-5 -10q-1 -1 -12 -25q-6 -11 -16 -31q-4 -9 -12.5 -28t-12.5 -28q-2 -4 -6.5 -12.5t-6.5 -13.5t-5 -11l-9 -15
q-5 -12 -12 -26q-2 -5 -6 -13.5t-12 -23.5q-3 -6 -8 -18q-2 -4 -5 -9.5t-7 -14.5q-2 -4 -6.5 -12t-11.5 -23q-5 -8 -13 -23q-2 -4 -5 -12t-9 -19.5t-8 -17.5q-14 -26 -39 -80q-6 -10 -9 -14q-3 -7 -5 -13q-6 -14 -16 -14h-7q-6 1 -7 1q-2 0 -19 -1h-19q-11 0 -12 11l3 6
t8 17l24 45q2 6 7 18q3 5 8 15q2 7 8 21q4 8 13 23q17 37 54 109q6 13 20 38t16 33q1 4 11 20q2 5 6.5 14t12.5 26q3 5 7 13q1 4 4.5 10.5t11.5 22.5q11 27 21 49q7 14 20 45q4 9 12 28q4 6 10 18q2 5 6 14q2 5 7 14q9 21 22 49q4 5 10 16q3 7 9.5 21t15.5 14h7q5 -1 6 -1z
" />
    <glyph glyph-name="ampersand" unicode="&#x26;" horiz-adv-x="625" 
d="M525 335h9q11 -3 33 -10q12 -1 36 -5t24 -27q0 -5 -9 -23q-12 -26 -28 -62q-24 -46 -49 -68q-10 -9 -10 -14q0 -7 22 -29q46 -46 46 -68q0 -24 -33 -24q-3 0 -22 2t-23 2q-13 0 -39 -7q-12 -2 -18 -2q-20 0 -33 22q-6 14 -17 14q-4 0 -13 -5.5t-61.5 -23.5t-102.5 -18
q-41 0 -87 19q-37 14 -56 30q-34 28 -52 73q-15 36 -15 66q0 33 12 66.5t27 53.5q14 15 37 42q15 18 43.5 35t28.5 27q0 5 -8 20q-7 11 -17 34q-9 27 -9 62q0 13 3 25q8 21 18 47q9 18 34 41q13 11 25 21l40 20q7 1 19 5q4 1 14 5q20 5 53 5q52 0 87 -19q18 -12 50 -43
q24 -34 24 -75q0 -13 -3 -31q-7 -40 -28 -71.5t-86 -86.5q-18 -15 -18 -21q0 -8 19 -34q5 -9 16 -25q7 -7 19 -24q8 -13 17 -13q5 0 11 4q15 15 27 43t19 36.5t24 8.5zM326 573q-23 0 -40 -22q-14 -30 -14 -36q0 -2 1 -5v-5q3 -16 13 -31q15 -23 22 -23q5 0 14 9l12 8
q39 26 39 68q0 11 -10 24t-37 13zM233 283q-3 0 -19 -10q-40 -25 -40 -77q0 -29 22 -50q24 -24 62 -24q9 0 45 8q26 6 26 22q0 1 -18 30q-27 44 -34 53q-11 13 -24 32q-9 16 -20 16z" />
    <glyph glyph-name="quotesingle" unicode="'" horiz-adv-x="208" 
d="M264 669l-53 -261h-31l-55 250q-2 9 -2 23q0 34 26 53q21 15 49 15q25 0 43 -13q25 -17 25 -51q0 -6 -2 -16z" />
    <glyph glyph-name="parenleft" unicode="(" horiz-adv-x="292" 
d="M353 713h4q23 0 23 -18q0 -5 -2 -13q-5 -20 -9 -55q-3 -29 -26 -48q-14 -11 -39 -35q-53 -59 -81 -159q-23 -80 -23 -154q0 -111 38 -152q13 -14 13 -26q0 -9 -1 -13l-9 -39q-1 -10 -3 -28q-5 -33 -31 -33q-28 0 -55 23q-40 35 -65 87q-33 70 -33 171q0 94 24 190
q25 102 77 166q25 32 41 48q35 37 76 61q14 8 39 15q44 12 42 12z" />
    <glyph glyph-name="parenright" unicode=")" horiz-adv-x="292" 
d="M12 -60h-4q-23 0 -23 18q0 5 2 13q5 20 9 55q3 29 26 48q14 11 39 35q53 59 81 159q23 80 23 154q0 111 -38 152q-13 14 -13 26q0 9 1 13l9 39q1 10 3 28q5 33 31 33q28 0 55 -23q40 -35 65 -87q33 -70 33 -171q0 -94 -24 -190q-25 -102 -77 -166q-25 -32 -41 -48
q-35 -37 -76 -61q-14 -8 -39 -15q-44 -12 -42 -12z" />
    <glyph glyph-name="asterisk" unicode="*" horiz-adv-x="354" 
d="M373 513h-7q-1 0 -9 -1.5t-10 -1.5q-1 0 -7 1.5t-7 1.5q-6 0 -6 -5q0 -2 12 -18q2 -2 7 -12q2 -3 7 -10q14 -19 14 -25q0 -15 -30 -27q-5 -1 -15 -5q-5 -3 -16 -10q-25 -9 -29 -9q-11 0 -16 16q-1 5 -3 16q0 7 -4 16t-7 25q-1 9 -5 9q-6 0 -10 -8q-1 -1 -11 -15t-11 -16
q-19 -20 -25 -20q-11 0 -25 19q-4 6 -17 20q-28 31 -28 40q0 6 10 14l24 18q28 15 28 19q0 5 -22 10t-30 10q-3 2 -7 5q-16 8 -16 16q2 4 9 16l5 15q1 2 11 16q3 4 9 16q6 19 23 19q9 0 13 -4t12 -9t22 -13q3 -2 8 -7q8 -9 12 -9t4 11v8q-1 6 -1 7q0 2 2.5 14.5t2.5 15.5
q4 28 22 28q1 0 25.5 -4.5t28.5 -5.5q30 -4 30 -28q0 -3 -2 -11q-14 -36 -22 -46q-3 -6 -3 -7q0 -5 4 -5q2 0 10 4.5t11 5t13 2.5l12 6q12 6 24 6q20 0 23 -35q0 -2 9 -57q0 -13 -11 -20q-5 -2 -35 -2z" />
    <glyph glyph-name="comma" unicode="," horiz-adv-x="208" 
d="M28 -101h-8q-18 0 -18 12q4 7 20 34q10 12 14 18q10 10 10 22q0 13 -25 14q-18 1 -18 15q0 3 5 21q4 10 6 29q2 10 5 30q5 35 10 46q7 19 24 19q6 0 17 -2t17 -2q13 0 19 2h10q9 -1 11 -1q1 0 12 1h12q30 0 30 -21q0 -6 -7 -35q-3 -18 -11 -52q-11 -45 -43 -87
q-13 -16 -25 -35q-20 -30 -44 -30q-3 0 -11 1t-12 1z" />
    <glyph glyph-name="hyphen" unicode="-" horiz-adv-x="271" 
d="M29 223q0 5 4 15q5 22 11 51q3 21 11 53q4 9 24 9q3 0 21.5 -3t22.5 -3q3 0 22 1h23.5h23.5q21 -1 25 -1q3 0 23.5 1t24.5 1q28 0 28 -18q0 -8 -4 -19q-12 -33 -19 -86q-3 -19 -19 -17h-107q-4 0 -26 1t-27 1q-2 0 -17.5 -1t-18.5 -1q-26 0 -26 16z" />
    <glyph glyph-name="hyphen" unicode="&#x2010;" horiz-adv-x="271" 
d="M29 223q0 5 4 15q5 22 11 51q3 21 11 53q4 9 24 9q3 0 21.5 -3t22.5 -3q3 0 22 1h23.5h23.5q21 -1 25 -1q3 0 23.5 1t24.5 1q28 0 28 -18q0 -8 -4 -19q-12 -33 -19 -86q-3 -19 -19 -17h-107q-4 0 -26 1t-27 1q-2 0 -17.5 -1t-18.5 -1q-26 0 -26 16z" />
    <glyph glyph-name="period" unicode="." horiz-adv-x="208" 
d="M-2 17q0 6 3 16q2 17 8 52q4 17 9 39q8 39 36 39q10 0 23 -2q7 -1 36 -1h55q20 0 20 -13q0 -5 -3 -22q-2 -6 -6 -20q-2 -7 -5 -22q-3 -8 -7 -26q-1 -7 -2 -21q-5 -37 -29 -37q-9 0 -27.5 2.5t-27.5 2.5q-4 0 -27.5 -2t-28.5 -2q-27 0 -27 17z" />
    <glyph glyph-name="slash" unicode="/" horiz-adv-x="396" 
d="M105 1h-71q-39 0 -39 20q0 10 29 61q16 27 46 83q39 81 78 148q10 17 42 85q2 4 33 65q19 38 53 105l27 48q5 9 14 28q24 44 33 53t26 9q11 0 37 1h37q39 0 39 -16q0 -8 -22 -54q-18 -35 -44 -84q-15 -31 -47 -93q-26 -47 -70 -130q-7 -16 -23 -47q-11 -18 -32 -56
q-7 -16 -21 -45q-4 -8 -13 -23t-13 -23q-1 -1 -14 -27t-16 -33q-7 -21 -27 -60q-9 -11 -14.5 -13t-27.5 -2z" />
    <glyph glyph-name="zero" unicode="0" horiz-adv-x="562" 
d="M58 253v15q0 17 1 23q6 46 13 93q2 14 17 65.5t20 63.5q19 46 27 58q7 9 19 29q6 12 26 38q5 5 15 13q5 6 15 15q5 4 30 20q5 3 26 11.5t23 8.5q27 9 50 9h8q6 -1 7 -1t7 1h8q42 -2 43 -3q23 0 41 -9q5 -1 13 -5q5 -1 12 -4t18 -10l7 -4q19 -11 49 -48q19 -32 25 -53
q11 -39 11 -66v-13q-1 -12 -1 -14t1 -13v-14l-2 -34q-1 -19 -14 -88q-13 -65 -18 -80t-12 -45q-8 -16 -13 -36q-5 -10 -15 -29q-5 -13 -17.5 -37.5t-51.5 -60.5q-31 -29 -66 -43q-5 -2 -13 -4l-21 -6q-4 -2 -9.5 -3.5t-17.5 -1.5q-20 -4 -36 -4q-40 0 -48 2q-11 2 -33 7
q-8 2 -23 8q-35 13 -55 32t-34 41q-29 47 -31 96q0 7 -1 19q0 2 -1 14t-1 15t1 16.5t1 15.5zM414 508q0 27 -9 40.5t-19 17.5q-9 8 -20 8q-16 0 -28 -3q-21 -5 -35 -27l-8 -16q-8 -13 -20 -47q-12 -48 -29 -145q-3 -15 -9.5 -44.5t-6.5 -87.5q0 -25 9 -44q13 -28 43 -28
q34 0 53 25q23 29 35 82q10 40 27 115q17 90 17 154z" />
    <glyph glyph-name="one" unicode="1" horiz-adv-x="542" 
d="M371 707h9q7 0 49 1q57 1 57 -40q0 -13 -5 -31q-10 -37 -27 -112q-2 -13 -7 -40q-5 -21 -16 -63q-6 -35 -16 -84q-8 -28 -20 -87q-2 -17 -7 -49q-5 -19 -14 -55q-10 -40 -18 -103q-3 -24 -8 -32q-8 -12 -30 -12q-3 0 -23.5 1.5t-24.5 1.5q-2 0 -15.5 -1t-17.5 -1.5
t-28 -0.5q-27 0 -27 19q0 -9 25 102l25 112q18 79 30 143q18 94 24.5 114t6.5 25q0 7 -8 7q-3 0 -27 -13l-15 -15q-20 -18 -35 -18q-14 0 -26 20.5t-29 37.5q-22 22 -22 35t18 25q7 3 19 9q15 11 44 29q24 13 27.5 16t10.5 8q31 19 65 39q5 5 17 13q7 3 15 3q12 0 24 -4z
" />
    <glyph glyph-name="two" unicode="2" horiz-adv-x="500" 
d="M75 484q0 28 23 84q13 31 23 45q8 11 41 42q24 23 65 40q55 23 135 23q47 0 92 -14q53 -16 76.5 -45.5t32.5 -60.5q8 -27 8 -66q0 -23 -15 -70q-12 -37 -32 -65q-25 -35 -35.5 -44t-25.5 -22q-6 -8 -20 -21q-4 -3 -13 -10q-11 -11 -27 -23q-6 -7 -19 -20q-11 -8 -25 -19
q-8 -7 -23 -22q-9 -7 -26 -22l-10 -10q-30 -30 -30 -33q0 -7 9 -7l27 1q10 2 14 2.5t15 0.5q12 0 35 -2t35 -2q2 0 18 2t19 2h10q9 -1 10 -1q2 0 10 1h10q17 0 18 -18q0 -3 -8 -26.5t-13 -65.5q-3 -23 -7 -29q-5 -9 -23 -9q-1 0 -60.5 1t-71.5 1q-6 0 -40 -1t-41 -1
q-3 0 -25 1h-25h-26q-17 -1 -26 -1q-3 0 -25 1h-26h-31q-27 -1 -32 -1q-16 0 -16 10q0 2 2 12q6 27 15 73q2 10 7 27q5 13 41 47q6 8 36 42q19 22 23 25t9 8t7 7.5t14 12t14 11.5q12 13 30 29q12 8 27 20q8 8 22 23q10 10 26 23q9 7 27 20q4 3 55 52q41 39 41 84
q0 29 -14 43q-12 18 -49 18q-60 0 -79 -30q-3 -7 -9 -19q-3 -5 -9 -16q-1 -11 -6 -34t-30 -23q-4 0 -29.5 2t-30.5 2h-21q-18 -1 -21 -1q-27 0 -27 16z" />
    <glyph glyph-name="three" unicode="3" 
d="M289 717q3 0 19.5 1.5t20.5 1.5q11 0 30 -3q35 -5 86 -33q11 -6 27 -22q3 -3 9 -10q1 -1 23 -36q13 -20 13 -72q0 -64 -32 -106q-6 -7 -17 -20q-17 -21 -31 -27q-19 -8 -19 -13t12 -13q7 -4 18 -13q4 -4 18 -25q17 -25 20 -35q1 -4 4 -13.5t4 -13.5q5 -20 5 -48
q0 -32 -17 -72q-9 -21 -17 -37q-5 -5 -14 -15l-6 -8q-14 -18 -31 -31q-7 -4 -20 -13q-5 -5 -17 -13q-18 -8 -38 -19q-59 -21 -131 -21q-44 0 -73 5q-18 3 -70 20q-18 7 -43 17q-22 7 -22 28q0 7 7 16q5 5 24 39q10 18 16 32q10 23 27 23q5 0 23 -9q6 -3 20 -9q8 -4 23 -11
q27 -11 49 -12h18q16 1 18 1q52 0 78 37q4 8 13 24q2 3 5 11q3 14 3 38q0 11 -6 24q-10 21 -30 34q-16 10 -26 12t-50 2q-7 0 -21 -3q-9 -2 -15 -2q-20 0 -20 15q0 2 8 47q1 6 5 35q2 17 9 21q4 3 18 3q2 0 17 1h17.5h13.5q11 -1 13 -1q36 0 71 25q7 5 20 26q10 16 10 32
q0 47 -43 60q-12 6 -43 6q-30 0 -85 -25q-11 -5 -18 -5q-13 0 -24 28t-21 44q-13 22 -13 35q0 15 19 25q47 22 83 28q8 1 23 4q29 8 53 8z" />
    <glyph glyph-name="four" unicode="4" horiz-adv-x="542" 
d="M491 179h-24q-14 0 -15 -20.5t-13 -74.5q-5 -27 -10 -59q-6 -28 -25 -28q-2 0 -18 3q-9 2 -40 2q-4 0 -29.5 -1.5t-30.5 -1.5q-31 0 -31 20q0 17 8 35q1 4 4 11q2 19 10 58q7 22 7 39q0 16 -23 16q-4 0 -31.5 -1t-32.5 -1q-7 0 -51.5 1t-53.5 1h-21q-19 -1 -22 -1
q-23 0 -23 15q2 17 4 25.5t2 31.5v14q-1 11 -1 13q0 20 23 45l6 6q23 24 42 51q16 19 38 46q7 9 20 27q11 13 28 30q31 41 41 52q8 7 24 24q5 6 15 19q5 6 25.5 31.5t24.5 29.5q15 17 27 35q16 25 27 30.5t41 5.5q5 0 35 -1.5t36 -1.5q7 0 13 1h12q31 0 31 -23q0 -9 -1 -14
q-8 -39 -19 -93q-3 -20 -10 -58q-5 -18 -13 -54q-2 -19 -8 -56q-5 -28 -18 -76q-3 -11 -3 -21q0 -17 17 -17q12 0 28 3q11 2 15 2q18 0 18 -18q0 -6 -12 -48q-3 -18 -3 -39q0 -17 -14 -17q-2 0 -13 1t-13 1zM347 481q0 8 -7 8q-2 0 -9 -9l-9 -12q-3 -4 -9 -14
q-50 -83 -94 -127q-12 -12 -12 -17q0 -8 5 -9.5t28 -1.5q3 0 18.5 1t17.5 1t10.5 -1t9.5 -1q19 0 19 21q1 13 7 41q3 8 4 22q2 23 12 57q9 31 9 41z" />
    <glyph glyph-name="five" unicode="5" 
d="M447 570q3 0 -47 2q-25 1 -79 1h-19q-1 0 -7 1t-7 1q-12 0 -22 -23q-1 -9 -5 -27q-9 -39 -9 -33q0 -7 15 -7q52 0 92 -15q37 -14 68 -33q25 -16 50 -45q42 -50 42 -114q-1 -23 -2 -38t-6 -44q-1 -10 -8 -22q-10 -19 -11 -21q-4 -13 -15.5 -36.5t-55.5 -62.5
q-22 -19 -45 -31q-10 -5 -39 -16q-16 -5 -48 -13q-36 -6 -64 -6q-38 0 -87 9q-16 7 -36 16q-14 5 -41 16q-12 8 -37 24q-18 10 -18 21q0 7 9 23q7 7 19 26q7 10 23 33q16 28 31 28q10 0 20 -8q15 -13 17 -14q13 -5 32 -13q5 -2 14 -7q13 -8 39 -8q2 0 18.5 1t19.5 1
q15 0 40 15q14 9 30.5 31.5t19.5 43.5q2 4 2 41q0 34 -23 59q-27 29 -79 29q-23 0 -43 -5q-16 -1 -46 -10q-12 -4 -17 -4t-26 9q-29 12 -29 30q0 15 11 51q4 20 14 58q7 26 18 65q5 18 12 46.5t18 60.5q4 9 6 19q1 3 5 17q6 18 33 18h25h43q37 -1 43 -1t41 1h40h37
q31 -1 37 -1q12 0 36 2.5t36 2.5q35 0 35 -21q0 -12 -6 -37q-7 -28 -8 -38q-3 -28 -9.5 -37.5t-26.5 -9.5h-39h-15q-13 -1 -16 -1z" />
    <glyph glyph-name="six" unicode="6" horiz-adv-x="562" 
d="M61 248q0 52 9 112q4 27 19.5 74.5t25.5 67.5q1 2 44 71q15 23 36 46q42 45 108 72q58 24 108 24q60 0 112 -15q28 -8 28 -27q0 -10 -3 -18q-10 -27 -13 -44q-2 -12 -6 -37q-7 -32 -21 -32q-9 0 -20.5 5.5t-35.5 13.5q-19 8 -55 8q-52 0 -84 -37q-40 -46 -40 -80
q0 -7 6 -7q2 0 8 4q39 27 99 27q61 0 114 -36q35 -23 56 -79q15 -39 15 -85q0 -50 -20 -108q-26 -74 -74 -116q-71 -62 -166 -62q-58 0 -106 18q-30 11 -50 24q-36 24 -55 61q-15 29 -25 62q-14 47 -14 93zM329 334q-46 0 -75 -27q-32 -31 -32 -87q0 -38 29 -62
q25 -22 55 -22q48 0 79 31.5t31 78.5q0 31 -17 55q-23 33 -70 33z" />
    <glyph glyph-name="seven" unicode="7" horiz-adv-x="542" 
d="M211 576q-17 0 -65 -2q-15 -3 -29 -3q-16 0 -16 15v2q1 4 5 15q10 26 17 78q4 32 33 32q2 0 14 -1t14 -1q14 -1 35 -1q3 0 22 1.5t23 1.5h11q9 -1 10 -1h11q8 0 20 -2q44 -3 67 -3q1 0 13 1h20h33q35 0 50 -1q30 -2 42 -2h39q3 0 9 1h8q24 0 24 -23q0 -16 -3 -31
q-1 -20 -4 -45q-2 -3 -27 -32q-35 -39 -80 -108q-8 -13 -40 -64q-9 -14 -27 -44q-42 -71 -66 -111q-28 -47 -41 -73q-38 -79 -45 -143q-4 -33 -27 -33q-23 1 -27 2q2 0 -23 2q-2 0 -14 1h-14q-4 0 -13.5 -1t-14.5 -1h-16h-9q-7 -1 -9 -1q-19 0 -19 19q0 11 6 33
q18 63 79 177q47 87 116 187q20 29 60 86l22 32q12 18 12 25q0 12 -12 12h-24q-3 0 -20.5 -1t-21.5 -1t-52 4q-24 2 -56 2z" />
    <glyph glyph-name="eight" unicode="8" horiz-adv-x="562" 
d="M121 531q0 8 4 21.5t5.5 19.5t4.5 19q4 6 10.5 19.5t15.5 32.5q22 29 56 46q12 8 44 18q42 14 74 14q11 0 31 -2h30q7 -1 27 -4q29 -4 83 -19q31 -14 49 -32q1 -1 17 -20l16 -19q17 -26 17 -72q0 -51 -24 -87q-8 -10 -19 -24q-3 -5 -11 -16q-3 -4 -12 -11q-2 -1 -31 -18
q-12 -7 -13 -16q0 -7 15 -15q23 -13 46 -53q28 -50 28 -102q0 -83 -43 -131q-46 -52 -121 -74q-51 -15 -106 -15q-47 0 -82 6q-29 5 -45 10q-32 8 -52 22q-38 25 -54 49q-14 14 -25 45q-2 7 -5 17t-5 17q-6 30 -6 45q0 57 44 116q36 49 81 67q15 6 15 12t-19 25
q-16 16 -21 29q-1 2 -4 12q-3 6 -8 18q-7 42 -7 50zM364 590q-37 0 -52 -12q-2 -1 -12.5 -10.5t-11.5 -11.5q-5 -10 -5 -23q0 -18 18 -40q6 -8 13 -17q20 -20 47 -20q8 0 11 1.5t6.5 4t5.5 3.5t6.5 2.5t6.5 2.5q17 6 40 26q16 17 16 42t-24.5 38.5t-64.5 13.5zM329 306h-1
q-17 0 -53 -19q-30 -16 -42 -34t-12 -33q0 -41 37 -61q42 -14 58 -14q24 0 48 8q51 17 51 63q0 20 -13 38q-6 9 -27 26l-15 9q-26 17 -31 17z" />
    <glyph glyph-name="nine" unicode="9" horiz-adv-x="562" 
d="M72 433q0 52 14 96q9 30 19 47q16 30 47 61q36 36 98 60q56 21 98 21q52 0 102 -14t84 -48q11 -11 26.5 -41t20.5 -47q12 -46 12 -105q0 -49 -15 -114q-12 -52 -30 -100q-10 -27 -41 -79q-24 -42 -33 -53q-35 -45 -118 -90q-50 -27 -115 -35q-25 -3 -90 -3q-36 0 -68 9
q-20 6 -20 23q0 4 8.5 25t17.5 60q5 23 10 29q7 10 26 10q5 0 34 -2.5t35 -2.5q87 0 131 42q35 34 35 48q0 9 -8 9q1 0 -14 -3q-6 -1 -17.5 -5.5t-18.5 -6.5q-16 -4 -35 -4q-46 0 -74.5 12t-62.5 42q-58 51 -58 159zM221 434v-12q4 -30 36 -50q28 -18 55 -18q29 0 52 13
q29 12 47.5 47t18.5 72q0 45 -26.5 68.5t-68.5 23.5q-36 0 -68 -26q-46 -37 -46 -118z" />
    <glyph glyph-name="colon" unicode=":" horiz-adv-x="250" 
d="M88 364q0 2 7 42l3 30q4 16 9 37q8 38 35 38h8q7 -1 12 -1q18 -2 21 -2h42q2 0 15 1h16q20 0 20 -14q0 -10 -4 -27q-6 -22 -7 -26q-1 -7 -7 -25q-1 -3 -4 -28q-5 -41 -29 -41q-8 0 -25.5 2t-26.5 2q-4 0 -29.5 -2t-30.5 -2q-25 0 -25 16zM19 16q0 3 4 21.5t4 22.5
q1 8 3 25q2 7 5 22q1 2 4 17q8 38 35 38q4 0 12.5 -1t11.5 -1q12 -1 20 -1q2 0 17 1h16.5h12.5q10 -1 12 -1h13q20 0 20 -14q0 -13 -3.5 -27t-13.5 -45q-2 -16 -8.5 -45.5t-26.5 -29.5q1 0 -20 3q1 0 -13.5 1t-31.5 1q-3 0 -22 -1.5t-23 -1.5q-28 0 -28 16z" />
    <glyph glyph-name="semicolon" unicode=";" horiz-adv-x="250" 
d="M183 506q9 0 26 2.5t26 2.5q6 1 5 1q28 0 28 -24q0 9 -7 -26q0 -6 -2 -18q-1 -5 -4 -15q0 -4 -2 -13l-3 -9t-3.5 -16t-2.5 -20q-8 -25 -43 -25q-2 0 -14.5 1.5t-15.5 1.5q-4 0 -32.5 -1t-34.5 -1q-12 0 -15 10q-3 6 -3 10q0 2 11 35l10 49q1 7 3 26q3 31 29 31
q3 0 21.5 -1t22.5 -1zM110 156h29q2 0 15 1h15q28 0 28 -22q0 -1 -7 -35q-14 -67 -20 -83q-7 -21 -30 -52q-35 -48 -45.5 -58t-28.5 -10q-1 0 -19 1.5t-20 1.5q-9 3 -9 10q0 4 11 21q10 12 28 39q5 9 5 15q0 5 -4 8.5t-18 4.5q-20 1 -20 16q1 5 2.5 11t2.5 11q7 40 14 85
q8 38 30 38q5 -1 16 -3t25 0z" />
    <glyph glyph-name="question" unicode="?" horiz-adv-x="375" 
d="M155 657q0 41 28 50q2 2 28 6q33 6 66 6q70 0 108 -24q35 -22 44 -51q8 -25 8 -63q0 -70 -48 -135q-7 -9 -22 -28q-9 -14 -26 -41q-11 -14 -32 -43q-4 -9 -13 -27q-25 -47 -25 -76q0 -1 1 -8v-9q0 -30 -30 -30q-2 0 -15 1h-15.5h-12.5q-10 -1 -12 -1q-9 0 -16 5
q-11 8 -11 24q0 25 7 64q8 46 27 95q8 21 26 57q5 9 14.5 30.5t9.5 39.5q0 14 -2 20q-11 20 -53 20q-1 0 -9 -1t-10 -1q-26 0 -26 27q0 5 4.5 28t4.5 25q2 15 2 40zM100 25q0 1 1 3v3q2 7 6 20q8 18 10 54q2 27 7 36q9 16 35 16q12 0 36 -2t36 -2q3 0 17 1h17q22 0 22 -20
q0 -5 -5 -20q-11 -33 -11 -87q-3 -30 -30 -30q-7 0 -22.5 1t-22.5 1q-4 0 -30 -1.5t-31 -1.5q-35 0 -35 29z" />
    <glyph glyph-name="A" unicode="A" horiz-adv-x="646" 
d="M109 335q11 24 34 71q17 37 41 88q14 28 31 71q5 13 28 59q1 2 20 46q10 24 20.5 32.5t33.5 8.5q24 -4 89 -5q6 1 17 1q6 1 16 1h29q1 1 2 1h1h4q34 0 49.5 -10t20.5 -58l6 -62q1 -8 3 -50t8 -73q5 -21 13 -64q1 -13 3 -38q9 -99 17 -142q4 -15 9 -47q0 -37 10 -110
q5 -19 5 -26q0 -30 -40 -30q-7 0 -23 2t-24 2q-2 0 -17 -1t-18 -1q-28 0 -37.5 3t-13.5 15q-1 5 -1 17q-2 6 -4 19l-3 26q-5 41 -32 48q-14 6 -54 6h-17q-14 -1 -17 -1h-27q-23 -1 -27 -1q-2 0 -18 1t-19 1q-27 0 -37 -22q-7 -12 -25 -64q-10 -28 -17 -38q-12 -13 -36 -13
q-3 0 -24 2t-25 2h-12q-8 -1 -12 -1h-27q-32 0 -32 27q0 22 33 89q9 20 26 61q21 46 50 110zM306 387q-7 -14 -21 -44q-9 -20 -9 -30q0 -9 4 -13q12 -12 52 -12q3 0 20.5 1t20.5 1h14q15 0 22 10q8 14 8 33q0 4 -3 30t-3 31q0 -5 -7 65q-1 10 -1 27v20q-2 8 -4 24
q0 11 -1 32q0 15 -10 15q-6 0 -12 -13q-4 -8 -7 -20q-14 -33 -41 -99q-7 -20 -22 -58z" />
    <glyph glyph-name="B" unicode="B" horiz-adv-x="604" 
d="M19 33q0 15 6 37q4 11 11 33q1 2 7 33q6 45 25 133l12 42q3 21 10 63q5 26 14 79q9 31 23 95q1 16 6 46q6 26 9 55q4 40 24 53q14 9 45 9q7 0 21.5 -1t22.5 -1h42q13 0 38.5 -1.5t38.5 -1.5h32q68 0 110 -25q15 -9 30 -20q37 -27 50 -73q8 -28 8 -65q0 -44 -15 -73
q-5 -8 -15 -26q-3 -6 -15 -22q-20 -23 -47 -37q-7 -4 -7 -6q0 -3 10 -7q6 -2 16 -6t35 -29q15 -15 24 -41q10 -29 10 -72q0 -10 -0.5 -12.5t-13.5 -54.5q-4 -16 -16 -34q-18 -27 -37 -40q-13 -10 -39 -28q-35 -21 -78 -27l-45 -3q-8 -1 -25 -3q-28 -3 -77 -3h-20h-29
q-19 1 -28 1q-3 0 -24.5 1t-25.5 1q-13 0 -38 -2.5t-37 -2.5q-48 0 -48 36zM323 569q-15 0 -21 -4q-15 -7 -17 -36q-1 -21 -4 -33q-8 -35 -8 -41q0 -10 4.5 -16.5t15 -8t60.5 -1.5q18 3 17 3q17 3 34 15q10 7 20 25t10 32q0 55 -53 63q-12 2 -58 2zM266 309q-6 0 -21 -15
q-5 -11 -19 -89q-3 -9 -8 -26v-3q0 -19 7 -24q5 -8 46 -8q4 0 25 1h25q11 0 17 1q18 7 39 16q7 3 16 11q25 22 25 57q0 33 -11 48q-14 19 -40 28q-14 3 -66 3h-10q-9 -1 -11 -1q-1 0 -7 1h-7z" />
    <glyph glyph-name="C" unicode="C" horiz-adv-x="562" 
d="M65 310q0 30 8 72q6 30 24 74q20 51 42 80q8 9 18 22q5 7 18 23q7 7 27 22l5.5 5.5t4.5 5.5q9 9 35 27q17 10 37 23q24 16 37 21q18 5 55 16q11 3 35 8q7 1 44 4q25 2 74 2q10 0 78 -7q28 -3 28 -21q0 -3 -8 -22q-10 -23 -18 -85q-5 -40 -26 -40q-5 0 -25 8
q-27 11 -59 11q-7 0 -49 -6t-75 -25q-13 -7 -38 -22q-11 -9 -27 -24q-23 -23 -45.5 -69t-22.5 -121q0 -21 13 -53q23 -57 69 -74q31 -12 75 -12q36 0 84 15q26 8 42 8q20 0 20 -20q0 -12 -7 -31q-5 -10 -15 -36q-10 -31 -15 -64q-3 -24 -29 -27q-22 -3 -40 -3q-5 -1 -16 -3
t-35 -2q-9 1 -27 1q-38 0 -78 10l-15 6q-60 21 -90 43q-68 49 -90 114q-9 34 -18 70q-5 19 -5 76z" />
    <glyph glyph-name="D" unicode="D" horiz-adv-x="688" 
d="M112 482q10 37 19 102q11 81 21 101q12 24 46 24h174q108 0 164 -25q15 -6 36 -16q42 -21 65 -57q11 -9 27 -42q5 -8 10.5 -22.5t14.5 -39.5q13 -35 13 -98q0 -76 -22 -151q-15 -52 -64 -118q-33 -44 -68 -70q-28 -18 -67 -40q-47 -21 -95 -27q-35 -4 -129 -4
q-7 0 -51.5 2t-52.5 2q-7 0 -47 -2.5t-48 -2.5q-39 0 -39 28q0 18 9 46q4 11 19 83q2 12 5 37q6 41 20 91.5t20 98.5q1 9 3 25q3 21 11 53q1 3 6 22zM354 547q-41 0 -52 -13q-15 -17 -21 -64q0 -6 -2 -19q-8 -41 -17 -84q-7 -28 -19 -83q-3 -14 -9 -43q-2 -8 -5 -18
q-1 -5 -3 -17q-4 -26 -4 -22q0 -17 14 -20q22 -5 67 -5q78 0 116.5 22.5t67.5 66.5q10 17 24 52q4 11 8 26q8 40 8 60q0 95 -61 135q-39 26 -112 26z" />
    <glyph glyph-name="E" unicode="E" 
d="M504 129v-6q-5 -15 -13 -47q-1 -16 -7 -49q-4 -27 -29 -27q-4 0 -11 1t-10 1q-11 1 -24 1q-1 0 -11 1t-12 1q-6 0 -43.5 -2t-44.5 -2q-6 0 -43.5 1.5t-44.5 1.5t-24 1h-22.5h-22.5q-18 -1 -21.5 -1t-21.5 -1.5t-22 -1.5q-60 0 -60 39q0 16 14 68q5 19 9 41q8 48 20 95
q21 85 32 141q4 18 20 125l8 51q8 40 20 110q4 28 21 33q58 4 76 4h27q18 -1 27 -1h48q6 0 45 -1.5t46 -1.5q9 0 26 1h25q3 0 26 1.5t27 1.5q37 0 37 -24q0 -5 -9 -45q-1 -4 -4 -36q-2 -23 -9.5 -35t-20.5 -12q-3 0 -21 1h-20h-17q-13 -1 -16 -1l-35 1h-39q-3 0 -24.5 1
t-25.5 1q-33 0 -46 -20q-15 -24 -15 -57q0 -12 6 -21q15 -22 79 -22q3 0 22 1h22h36q4 0 27 1.5t28 1.5q21 0 30 -7t9 -19v-8q-1 -10 -9 -33q-6 -19 -6 -34q0 -8 -3 -24q-24 -24 -32 -24q-10 0 -91 4q-5 0 -36 -2t-37 -2q-3 0 -21.5 1t-22.5 1q-24 0 -37 -20q-8 -13 -14 -52
q-5 -28 -5 -38q0 -30 39 -30q4 0 23 1t22 1q5 0 33 -2t33 -2q40 0 64 2q4 0 24.5 2t23.5 2q28 0 28 -31z" />
    <glyph glyph-name="F" unicode="F" horiz-adv-x="458" 
d="M22 33q0 -3 25 114l3 30q5 41 15 82q3 8 7 26q2 12 6 34q5 19 13 58q2 13 11 59q6 29 15 69q4 20 9 60q7 33 17 79q2 10 6 31q9 33 43 33q12 0 35 -2.5t35 -2.5q6 0 41.5 2t42.5 2q6 0 42 -1t40 -1q16 -2 56 -2q3 0 16.5 1t15 1t8.5 1h9q18 0 18 -17q0 -4 -7 -28t-7 -28
q-1 -16 -5 -48q-6 -36 -35 -36q-42 0 -114 6q-24 2 -38 2q-33 0 -47 -17q-16 -24 -16 -59q0 -22 18 -29q11 -5 43 -6q10 0 42 -2q25 -2 41 -2q2 0 19 1h19q15 0 15 -17q0 -5 -1 -8q-16 -50 -19 -91q-3 -32 -21 -32q-2 0 -17 1.5t-18 1.5h-11q-10 -1 -12 -1q1 0 -36.5 2
t-46.5 2q-21 0 -37 -4q-9 -4 -16 -20q-6 -12 -6 -17q-1 -15 -8 -44l-8 -36q-7 -36 -17 -87q-2 -16 -7.5 -48t-11 -38t-30.5 -6q-6 0 -18 1h-17q-3 0 -21.5 -1.5t-22.5 -1.5q-55 0 -55 34z" />
    <glyph glyph-name="G" unicode="G" horiz-adv-x="688" 
d="M69 286q0 -2 3 43.5t14 82.5q7 25 27 71q5 7 14 20q3 6 9 17q16 28 38 51q13 11 35 31q29 26 36 31q11 8 36 19q89 40 120 48q43 8 96 17q38 3 81 3q18 0 40 -2t52 -5q56 -1 65 -5q17 -7 17 -25q0 -7 -5 -16.5t-12 -40t-19 -71.5q-11 -20 -31 -20q-8 0 -18 5
q-48 17 -130 17q-25 0 -42 -2q-67 -8 -129 -43q-14 -8 -49 -35q-36 -34 -61 -92q-11 -27 -12 -44.5t-1 -48.5q0 -30 6.5 -51t22.5 -42q6 -9 35 -29q11 -8 22 -15t27.5 -10t38.5 -3q41 0 62 7q17 6 24 21q4 9 10 38q2 11 8 33q4 15 4 27q0 19 -28 19q-1 0 -8 -1t-9 -1
q-8 -1 -23 -1q-28 0 -28 21q0 7 1 10t4.5 17t3.5 16q1 22 10 65q6 19 43 19q-5 0 15 -1q80 -4 100 -4q2 0 13.5 1t13.5 1h20q3 0 16 1.5t15 1.5q37 0 37 -27q0 -9 -7 -38q-2 -7 -5 -20.5t-14 -61.5q-1 -6 -5 -17.5t-6 -18.5l-3 -30q0 -3 -12 -47q-17 -63 -19 -96t-15 -47
q-19 -19 -72 -28q-68 -11 -128 -11q-14 0 -57 4q-17 1 -61.5 12t-58.5 16q-26 9 -45 22q-23 16 -43 36q-16 20 -35 45q-3 8 -10 24q-8 10 -17 32q-17 68 -17 105z" />
    <glyph glyph-name="H" unicode="H" horiz-adv-x="667" 
d="M421 294h-56q-5 0 -35 1h-36q-40 0 -55 -20q-9 -12 -13 -47q-1 -4 -6 -37q-5 -28 -16 -84q-2 -11 -6 -32q-1 -12 -4 -38q-5 -36 -28 -36q-4 0 -31 1t-33 1q-2 0 -15.5 -1t-16.5 -1q-51 0 -51 35q0 9 7 34q5 17 31 164q7 40 23 101q6 31 19 92q4 14 10 42q10 60 20 125
q4 16 11 47q0 1 4 25q5 29 17 38q8 5 28 5q24 -1 37 -3q24 -3 26 -3t11 1t16 1q23 1 27 1q19 0 19 -16q0 -8 -8 -40l-3 -10q-1 -2 -6 -32l-6 -21q-2 -12 -8 -35q-16 -59 -16 -64q0 -37 55 -43q3 0 25 1h25q5 0 35.5 -1t36.5 -1q41 0 59 22q14 18 19 63q0 2 10 58q2 11 5 32
q7 25 13 57.5t32 32.5q5 0 34 -2.5t35 -2.5q3 0 25 1t26 1q23 0 23 -20q0 -11 -8 -32q-5 -13 -8 -36q-3 -30 -5 -37q-4 -20 -13 -59q-6 -18 -15 -54q-4 -32 -12 -74q-2 -7 -7 -21q-1 -6 -2 -19.5t-10 -47.5q-6 -22 -17 -65q-8 -32 -13 -71q-2 -17 -8 -53q-4 -15 -10 -46
q-1 -24 -11 -61q-7 -11 -34 -11q-17 0 -23.5 1t-23.5 2h-22q-2 0 -15.5 -1t-16.5 -1q-31 0 -31 26q0 4 2 16q3 16 10 43q3 17 10 50q3 13 9 38q1 6 2 19q1 4 5.5 33t4.5 31q0 18 -9 25q-13 13 -44 13z" />
    <glyph glyph-name="I" unicode="I" horiz-adv-x="250" 
d="M19 26q0 8 6 31q14 54 19.5 87.5t17.5 101.5q11 37 27 112q6 34 16 103q4 11 9.5 34.5t11.5 48.5q3 24 7 57q4 16 10 49q1 9 4 27q8 36 36 36q6 -1 19 -3q23 -3 57 -3q3 0 18 1t17 1q27 0 27 -22q0 -14 -6 -34q-5 -29 -15 -86q-13 -43 -20 -81q-4 -26 -12 -77
q-8 -35 -22 -105q-5 -30 -17 -91q-21 -96 -26 -122q-2 -22 -9 -66q-6 -25 -25 -25q-2 0 -14 1h-15t-12 1h-12q-3 0 -25.5 -1.5t-26.5 -1.5q-45 0 -45 27z" />
    <glyph glyph-name="J" unicode="J" horiz-adv-x="333" 
d="M298 167q-3 -19 -12 -56q-9 -26 -28 -54t-34 -38q-19 -19 -56 -27q-19 -4 -102 -4q-7 0 -16 1t-16 1h-22q-25 0 -25 20q0 7 7.5 41t8.5 39q3 25 6 32q6 11 20 11q5 0 13.5 -3t12 -3.5t9.5 -0.5q25 0 43 16q15 14 24 52q18 80 43 208q1 5 17 83q3 13 9 41q2 15 6 43l19 95
q4 27 10 35q9 12 37 12q4 0 31.5 -1.5t32.5 -1.5q6 0 19.5 1t19.5 1q25 0 25 -26q0 7 -17 -88q-2 -15 -8 -43q-6 -19 -16 -58q-5 -34 -18 -101q-18 -77 -24 -123q-2 -18 -7 -52q-4 -17 -12 -52z" />
    <glyph glyph-name="K" unicode="K" horiz-adv-x="625" 
d="M143 5h-30q-9 0 -27.5 -2.5t-27.5 -2.5q-40 0 -40 29v6q0 9 11 51q13 50 13 52q6 39 20 116q9 32 25 97q2 14 7 41q6 31 11 59q9 34 23 103q2 13 6 40q4 17 9.5 51.5t11.5 45.5q10 19 33 19q9 0 26 -1.5t26 -1.5h11q11 0 20 1h20q32 0 32 -30q-1 -10 -3 -19
q-3 -15 -15 -63q-6 -24 -18 -80q-3 -14 -3 -21q0 -17 13 -17q4 0 9 5q13 13 31 32q9 9 25 21q2 2 17 22q4 5 13 14q4 4 11 13q17 20 26 27q6 6 20 23t36 39q12 16 19 23q12 10 54 10q5 0 37 -2t38 -2l22 1l22 1q25 0 25 -22q0 -15 -25 -41q-8 -10 -25 -28q-7 -7 -18.5 -20.5
t-27.5 -28.5q-10 -9 -19 -20q-21 -24 -58 -62q-8 -6 -31 -32q-8 -11 -24 -30q-2 -2 -15 -14q-23 -21 -23 -30q0 -11 12 -32q9 -15 21 -36q2 -3 5 -10t4 -10q5 -6 12 -17.5t18 -33.5q9 -13 24 -40q4 -9 12 -29q8 -15 20 -35q5 -11 15 -31q4 -7 12 -22q25 -46 25 -62
q0 -22 -26 -22q10 0 -30 2q-80 4 -79 4q-16 0 -20 -1h-5q-4 -1 -6 -1q-11 0 -19 10q-7 15 -16 31l-9 27l-27 45q-5 14 -17 42q-6 13 -12 23q-2 4 -14 23q-8 19 -21 45q-9 13 -26 40q-1 4 -5 10q-9 20 -18 20q-15 0 -23 -36q-2 -8 -7 -24.5t-8 -38.5q-7 -47 -17 -93
q-6 -26 -16 -78q-6 -45 -29 -45q-2 0 -11.5 1.5t-11.5 1.5z" />
    <glyph glyph-name="L" unicode="L" horiz-adv-x="479" 
d="M161 3h-41q-8 0 -24 -2t-24 -2q-51 0 -51 39q0 13 2 22q13 57 30 136q3 24 11 72q5 15 13 45q13 49 20 99q2 12 6.5 32t13.5 59q4 19 11 58q1 14 5 42q3 11 9 35q3 17 7 39q2 8 7.5 19.5t39.5 11.5q6 0 18.5 -1t18.5 -1q5 0 34 2t35 2q25 0 25 -19q0 -1 -9 -39
q-10 -41 -11 -45q-2 -11 -6 -34q-1 -5 -4 -16t-4 -17q-4 -19 -10 -49q-2 -15 -7 -47q-1 -5 -13 -50q-1 -4 -5 -29q-2 -13 -10 -50q-5 -24 -16 -73q-10 -37 -10 -50q0 -37 46 -37q4 0 29 1.5t30 1.5q4 0 27 -2t28 -2q15 0 30 3l32 1q24 0 24 -24q0 -3 -12 -47q-2 -11 -6 -34
q-6 -31 -11 -40q-8 -12 -26 -12q-12 1 -19 1q-15 1 -50 1q-3 0 -21 -1t-22 -1t-32 1t-34 1t-18.5 -1t-19.5 -1q-2 0 -17.5 1t-18.5 1z" />
    <glyph glyph-name="M" unicode="M" horiz-adv-x="729" 
d="M502 324q-12 -14 -44 -60q-3 -5 -24 -30q-7 -9 -26 -37q-15 -22 -32 -22q-15 0 -31 25l-18 42q-8 14 -22 42l-21 45q-5 10 -9 17q-1 3 -3 9.5t-3 9.5q-4 8 -7 13q-3 9 -6 9q-4 0 -6 -6q-2 -2 -5 -24q-1 -5 -2 -16q-2 -7 -6 -23q-1 -8 -2.5 -26t-19.5 -96q-5 -22 -14 -67
q-4 -20 -10 -61q-2 -37 -7 -49q-8 -19 -31 -19q-2 0 -18 1.5t-19 1.5q-13 0 -43 -3q-20 -2 -19 -2q-37 0 -37 30q0 12 6 38q4 12 11 36q4 15 7 37q6 43 15 101q11 35 27 105q5 25 13 74q1 11 5 33q4 14 11 42l6 26t6.5 36.5t3.5 32.5q3 13 9 38q1 10 3 29q8 52 49 52
q4 0 29 -1.5t30 -1.5q4 0 12.5 1t12.5 1q20 0 30 -20q4 -16 9 -26q8 -30 28 -88q4 -9 11 -26q4 -13 13 -40q2 -5 11.5 -20t24.5 -53q4 -11 13 -11q10 0 17 13q17 22 46 56q26 29 37 45q13 21 31 48q9 11 21 26q4 6 12 17t25 33q24 34 32.5 40.5t28.5 6.5q4 0 31 -1t32 -1
q2 0 15 1h15q5 0 15 -2q21 -4 21 -26q0 -7 -7 -29q-3 -17 -10 -50q-2 -24 -4 -36q-7 -26 -19 -77q-2 -5 -4 -17q-3 -22 -8 -51q-9 -52 -24 -97l-14 -91q-5 -20 -15 -62q-2 -16 -8 -48q-6 -28 -8 -47q-3 -30 -6 -42q-9 -31 -31 -31q-10 0 -15 1q-20 2 -31 2q-19 0 -46 -3
q-9 -1 -18 -1q-27 0 -27 27q0 16 6 40q3 7 7 22.5t6.5 44t10.5 63.5q2 7 6 33q7 44 25 130q2 3 4.5 10.5t3.5 15.5q0 5 -6 5q-2 0 -13 -14q-16 -19 -45 -53z" />
    <glyph glyph-name="N" unicode="N" horiz-adv-x="667" 
d="M656 293l-16 -75q-4 -14 -11 -42q-4 -13 -9 -39l-11 -77q-4 -36 -9 -45q-6 -14 -25 -14q-9 0 -26.5 2t-26.5 2q-4 0 -32.5 -2.5t-34.5 -2.5q-29 0 -40 37q-14 48 -26 73q-8 14 -22 51q-4 15 -12 42q-10 23 -30 70q-4 11 -12 31q-20 42 -43 100q-5 22 -10 22q-3 0 -8 -47
q-4 -25 -11 -75q0 -11 -3 -33q-4 -15 -13 -45q-1 -12 -5 -37q-3 -13 -8 -26q-4 -21 -10 -51q-4 -13 -9 -40q-1 -9 -2 -28q-4 -43 -36 -43q1 0 -20 3q-7 1 -30 1q-3 0 -23.5 -2t-24.5 -2q-39 0 -39 30q0 13 7 36q6 17 16 64q14 90 25.5 133t30.5 143q7 39 18 95q4 16 11 47
q1 8 4 24l7 35t7 36q6 37 13 48q10 16 36 16q5 0 37 -2t38 -2l26 1l26 1q19 0 28 -16q5 -13 11 -32q6 -13 18 -40q10 -34 33 -102q6 -15 9 -24q6 -20 15 -48q16 -37 40 -104q11 -46 16 -46q4 0 6 8q3 5 5 38l8 40q0 1 4 35q3 27 22 100q3 29 12 86l9 39q1 7 3 33.5t18 32.5
q8 3 26 3q7 0 18.5 -2t16.5 -2q18 -1 19 -1q2 0 22 2q5 0 13 1h9q29 0 29 -29q0 -8 -5 -38q-12 -45 -16 -74q-1 -11 -5 -35q-6 -17 -14 -51q-2 -21 -8 -64q-8 -27 -20 -83q-2 -14 -6 -40z" />
    <glyph glyph-name="O" unicode="O" horiz-adv-x="771" 
d="M66 312q0 16 5 53q8 57 27 102.5t50 88.5q25 34 64 68q12 11 58 41q39 22 60 30q60 22 128 22q59 0 103 -11q56 -14 100 -41q50 -31 64 -55q19 -16 42 -75q25 -64 25 -131q0 -59 -19 -127q-13 -44 -24 -67q-15 -27 -30 -55q-26 -42 -72 -81q-89 -77 -209 -84
q-36 -2 -51 -2q-26 0 -47 3q-51 2 -102 28q-30 16 -56 37q-13 10 -40 37q-76 93 -76 219zM447 552q-9 -1 -30 -3q-24 -5 -37 -10l-43 -23q-18 -12 -45 -47q-31 -40 -39 -70q-1 -6 -3 -19q-7 -18 -7 -63q0 -39 13.5 -69t23.5 -43q45 -57 120 -57q23 0 35 2q39 7 80 32
q33 20 65 74q37 62 37 120q0 39 -7 66q-11 42 -50 78q-35 32 -113 32z" />
    <glyph glyph-name="P" unicode="P" horiz-adv-x="604" 
d="M70 289q5 18 15 56q2 16 8 47q20 83 52 252q7 47 26 57q12 6 29 6h15q12 -1 15.5 -1t6.5 -1q36 -4 46 -4h50q2 0 18.5 1t19.5 1h11q10 -1 12 -1h28q55 0 105 -19q32 -12 57 -30q31 -22 51 -66.5t20 -85.5q0 -42 -12 -92q-11 -45 -30 -77q-30 -50 -49 -69
q-35 -35 -82 -56.5t-91 -27.5q-34 -5 -115 -5q-42 0 -58 -27q-10 -17 -15 -57q-1 -15 -4 -45q-5 -41 -32 -41q-2 0 -14.5 1t-15.5 1q-5 0 -35.5 -3t-36.5 -3q-41 -2 -41 33v9q6 28 14 68q2 11 3 19q10 48 22 113q2 16 7 47zM362 548q-63 0 -75 -47q-2 -7 -11 -49t-11 -50
q-7 -28 -7 -39q0 -29 22 -37q11 -5 46 -5q7 0 16 1q26 3 51 15q35 17 56 46q28 39 28 83q0 64 -57 76q-26 6 -58 6z" />
    <glyph glyph-name="Q" unicode="Q" horiz-adv-x="771" 
d="M66 297q0 47 6 90q3 11 9 34q1 8 4.5 21t11.5 29q27 59 73 112q58 67 134 100q82 35 155 35q12 0 64 -4q57 -4 117 -37q45 -25 86 -70q69 -76 69 -204q0 -99 -47 -187q-6 -12 -19 -35q-18 -29 -26 -37t-8 -12q1 -10 12 -10q3 0 8 1h7q23 0 23 -25q0 -7 -4 -19
q-9 -28 -14 -52q-7 -37 -40 -37q-34 0 -83 27q-14 8 -25 8q-9 0 -30 -10q-58 -28 -154 -28q-44 0 -88 7q-73 12 -131 62q-41 35 -74 97q-36 67 -36 144zM449 552q-72 0 -147 -80q-27 -29 -43.5 -78t-16.5 -90q0 -48 30 -95q42 -67 120 -67q87 0 87 30q0 5 -4 9q-8 10 -8 21
t6 20l27 27q14 17 25 17q19 0 24 -20q4 -16 14 -16q5 0 15 18q6 10 17 27q6 6 14 28q13 34 13 73q0 56 -22.5 94.5t-44.5 53.5q-41 28 -106 28z" />
    <glyph glyph-name="R" unicode="R" horiz-adv-x="625" 
d="M350 705h58q100 0 158 -36q38 -24 57 -57q26 -46 26 -105q0 -75 -29 -132t-75 -84q-26 -15 -42 -19q-12 -3 -12 -15q0 -18 35 -54q28 -29 55 -37q6 -1 18 -6q22 -7 22 -28q0 -8 -5 -24q-15 -47 -18 -64q-8 -46 -42 -46q-49 0 -140 78q-24 24 -58 56q-21 19 -52 43
q-18 9 -41 9q-34 0 -44 -19q-11 -22 -20 -88q-2 -13 -5 -40q-5 -34 -27 -34q-4 0 -26 2.5t-27 2.5h-3q-2 -1 -4.5 -1t-24.5 -2.5t-26 -2.5q-33 0 -33 29q0 19 2 27t11 51t10 51l6 42q5 39 22 110q8 35 15 81q4 26 16 72q14 50 18 72q3 16 8 49q3 12 8 38q7 53 14 66
q10 19 42 19q7 0 22 -2t23 -2h36h22q18 -1 22 -1q2 0 14 1h14zM373 551q-51 0 -70 -17q-12 -11 -18 -38q-4 -21 -10 -49q-5 -19 -13 -57v-14l-1 -10q0 -17 15 -26t30 -9q29 0 65.5 10t68.5 45q38 42 38 92q0 19 -8 35q-20 38 -97 38z" />
    <glyph glyph-name="S" unicode="S" horiz-adv-x="458" 
d="M85 503q0 48 23 98q37 81 118 109q37 13 92 13q9 0 55 -5q64 -7 94 -16q38 -11 38 -34v-5q-1 -4 -1 -5q-4 -15 -9 -45q-1 -13 -5 -38q-6 -38 -30 -38q-9 0 -40 13q-52 22 -93 22q-29 0 -49 -13q-23 -16 -23 -44q0 -16 8 -28.5t31 -33.5q8 -7 25 -21q29 -25 77 -76
q57 -61 57 -157q0 -25 -6 -51q-13 -37 -28 -58q-35 -50 -79 -71q-30 -15 -75 -23q-32 -6 -83 -6q-39 0 -86 12q-27 6 -66 18q-31 13 -31 33l3 15q10 29 14 58q1 14 5 42q6 25 26 25q11 0 28 -8q24 -11 28 -12q47 -20 96 -20q72 0 72 49q0 34 -55 81q-34 29 -44 39
q-13 14 -35 43q-14 16 -37 53q-1 6 -4 17q-4 8 -8 25q-3 9 -3 43z" />
    <glyph glyph-name="T" unicode="T" horiz-adv-x="458" 
d="M85 575q0 6 1 11t4 17.5t3 16.5q7 50 13 66q10 27 32 27q2 0 14 -1t15 -1h19q23 0 69.5 -1.5t69.5 -1.5q5 0 29 1t28 1q7 0 46 -1t47 -1q3 0 21.5 1t21.5 1q37 0 37 -29q0 -10 -5 -26q-6 -21 -7 -26q-1 -10 -4 -31q-4 -27 -11 -36q-10 -14 -36 -14q-8 0 -12 1l-24 3
q-8 1 -14 1q-33 0 -41.5 -11t-32.5 -134q-14 -82 -47 -245q-7 -30 -18 -91q-1 -16 -6 -48q-6 -24 -25 -24q-3 0 -21.5 1.5t-22.5 1.5t-32.5 -2.5t-34.5 -2.5q-38 0 -38 33q0 8 4 25q5 23 18 65q11 61 11 65q5 33 13 78l17 82q7 36 16 87q4 15 11 45q5 22 7 51q0 25 -47 25
q-11 0 -15 -2q-1 0 -7 1h-7q-2 0 -13 -1.5t-14 -1.5q-32 0 -32 25z" />
    <glyph glyph-name="U" unicode="U" horiz-adv-x="646" 
d="M57 207q0 18 18 116q7 38 12 68q2 12 6 35q10 42 22 100q4 25 10 60q7 29 10 59t10 42q11 20 40 20q10 0 29.5 -1.5t29.5 -1.5l21 1l21 1q27 0 27 -27q0 -5 -2 -17q-7 -25 -12 -53q-2 -13 -7 -40q-2 -10 -16 -73q-14 -72 -35 -171q-13 -53 -13 -80q0 -57 41 -75
q29 -13 76 -13q54 0 92 46q12 15 18 30q8 25 22 93q6 35 19 103l18 81q9 41 23 122q2 11 5 34q5 27 19 35q9 5 40 5h8q6 -1 11 -1q16 -2 19 -2t17 2q5 0 11 1h7q22 0 29 -3q13 -6 13 -24q0 -4 -4 -22q-8 -43 -20 -102q-8 -35 -23 -104q-3 -21 -11.5 -63t-20.5 -99
q-2 -18 -8 -53q-1 -8 -8 -34q-8 -33 -12 -42q-6 -18 -17 -37q-51 -87 -170 -119q-48 -13 -117 -13q-37 0 -79 12q-60 17 -84.5 33.5t-42.5 36.5q-42 48 -42 134z" />
    <glyph glyph-name="V" unicode="V" horiz-adv-x="542" 
d="M107 665q0 45 40 45q-3 0 23 -3q8 -1 27 -1q30 0 47 2t19 2q17 0 22 -13q2 -5 2 -44v-12q-1 -11 -1 -13q0 -10 2 -26q3 -21 3 -27q1 -23 4 -68q2 -13 5 -38q1 -33 3 -77q4 -34 4 -44v-45q-1 -38 -1 -46q0 -28 -2 -37q-1 -3 -1 -9q0 -11 4 -11q2 1 5 6q5 14 12 34
q11 28 32 83q5 16 16 48q8 21 17 40q8 16 23 54q10 30 22 64l3 10q12 35 12 49q0 7 -6 32q-8 33 -8 45q0 43 31 43q6 0 19.5 -1.5t21.5 -1.5q13 0 39.5 1t39.5 1q27 0 38 -37q7 -24 7 -46q0 -65 -75 -222q-20 -42 -28 -62l-21 -39q-6 -16 -20 -46q-3 -5 -10 -16
q-15 -32 -30 -57q-25 -42 -36 -66q-4 -8 -9 -20l-24 -48q-2 -8 -10 -23q-15 -28 -46 -28q-4 0 -29.5 2.5t-30.5 2.5q-3 0 -22.5 -1.5t-23.5 -1.5q-30 0 -30 29q-1 11 -5 42q-3 15 -10 45q-11 53 -14 90q-1 18 -4 52q-2 14 -5.5 43.5t-10.5 90.5q-1 7 -2 22q-3 30 -10 90
q-4 33 -8 69q-2 23 -6 56.5t-4 36.5z" />
    <glyph glyph-name="W" unicode="W" horiz-adv-x="854" 
d="M269 3h-23q-6 0 -23 -1.5t-24 -1.5q-29 0 -30 35q0 11 -2 23q-10 66 -23 157q-1 24 -7 72.5t-15 147.5q-2 45 -7 76q-1 7 -4 20q-1 22 -5.5 66.5t-4.5 42.5q-1 4 -1 10q0 60 41 60q8 0 25 -2.5t26 -2.5q5 0 30 2t28 2q29 0 29 -29v-14q-1 -12 -1 -14q0 -67 3 -89t3 -43
q0 -9 2 -28q2 -14 7 -58q2 -39 6 -92q5 -58 5 -83q0 -31 7 -31l4 8q13 30 30 71q2 5 7 17q7 17 23 51q5 9 16 28q17 38 41 90q16 31 16 49v7q-2 8 -4.5 25.5t-6.5 50.5q-7 40 -7 52q0 30 26 30h6q4 -1 5 -1q17 -3 56 -3q13 0 22 1h23q35 0 35 -35v-13q-1 -12 -1 -14t1 -16.5
t1 -17.5t-1.5 -21t-1.5 -22q0 -18 7 -63q11 -70 11 -117q0 -23 3 -69t3 -69q0 -5 2 -5q4 1 11 17q4 16 17 43.5t16 40.5q2 9 5 15q15 32 35 76q7 19 22 56q9 19 25 58q4 11 4 23q0 4 -1 13t-1 13q0 12 -2 36q-5 45 -5 42q0 30 29 30q10 0 31 -2t31 -2q9 0 28 2.5t28 2.5
q19 0 29 -14q16 -22 16 -64q0 -31 -17 -82q-15 -45 -43 -110q-13 -27 -38 -82q-3 -5 -8 -17q-4 -8 -20 -41q-8 -20 -27 -60q-4 -6 -10 -19t-19 -38t-40 -78q-6 -15 -18 -44q-16 -39 -27 -50q-7 -7 -22 -7q-4 0 -32.5 1t-34.5 1q-3 0 -20.5 -1t-20.5 -1q-26 0 -34 26
q-6 31 -9 55q-1 11 -3 31q-8 30 -10 55q-2 17 -7 46q-2 6 -4 16.5t-9 10.5t-12 -10q-2 -5 -11 -18q-3 -6 -9 -19q-13 -26 -46 -81q-27 -45 -37 -66q-12 -25 -19 -33q-12 -11 -33 -11q-2 0 -18 1h-18z" />
    <glyph glyph-name="X" unicode="X" horiz-adv-x="688" 
d="M643 705h42q44 0 44 -19q0 -12 -14 -33q-30 -35 -65 -77l-39 -39q-8 -10 -22 -31q-7 -9 -21.5 -26t-21.5 -26l-21 -27q-27 -27 -27 -43q0 -12 9 -26q5 -7 13 -21q10 -22 33 -75q17 -33 39 -80l24 -57q20 -42 29 -57q12 -20 12 -32q0 -24 -18 -31q-6 -3 -45 -3
q-5 0 -37 -1t-38 -1q-38 0 -50 29q-9 24 -22 56q-13 25 -37 76q-6 17 -20 49q-13 29 -19 29q-7 0 -13 -10q-3 -5 -9 -13t-12 -14q-9 -9 -45 -59q-9 -13 -31 -37q-8 -9 -31 -39q-34 -45 -47 -55.5t-33 -10.5q-13 0 -19 1q-13 1 -75 1q-21 0 -32 -1q-4 -1 -13 -1q-25 0 -25 18
q0 4 1 6q6 15 27 38q5 7 25 28q25 34 79 99q35 39 50 61q13 19 27 37q19 22 44 51q41 53 41 72q0 10 -6 20q-25 52 -59 125q-13 34 -45 99q-11 22 -11 30q0 24 35 24q8 0 23.5 -2.5t23 -3t16.5 -0.5t27 2t27 2q14 0 24 -8.5t23 -38.5q12 -26 12 -30q2 -7 7 -21.5t9 -21.5
q6 -10 10 -25q9 -32 18 -32q7 0 22 24q26 41 48 69q17 21 40 50q4 6 11 16q19 19 35 19h9q1 0 9.5 -1t16.5 -1q25 -1 38 -1z" />
    <glyph glyph-name="Y" unicode="Y" horiz-adv-x="604" 
d="M251 336v2q0 11 -22 55l-9 24q-13 30 -31 73q-10 29 -33 87q-8 22 -19 52l-11 22q-14 29 -14 37q0 23 31 23q3 0 20 -2q25 -3 44 -3q9 0 27 1.5t27 1.5q27 0 40 -28q3 -5 17 -52q3 -13 11 -38q5 -16 19 -66q5 -11 10.5 -28t8.5 -17t9 14q4 10 11 19.5t25 36.5q7 8 39 55
l21 28q8 12 24.5 35.5t22.5 28.5q10 10 25 10h11q20 -4 65 -4q2 0 17 1h18q46 0 46 -20t-39 -62q-15 -19 -36 -46q-6 -8 -19 -23q-6 -8 -20 -25q-1 -2 -12 -13t-28 -36q-7 -11 -25 -30q-8 -9 -52 -69q-6 -6 -19 -20q-5 -7 -16 -20q-8 -8 -11 -13t-11.5 -44t-19.5 -90
q-7 -46 -16 -84q-3 -11 -11 -65q-5 -33 -10 -40t-26 -7q-3 0 -20.5 1.5t-20.5 1.5q-11 0 -33.5 -1.5t-33.5 -1.5q-35 0 -35 30q0 10 6 29t30 141q28 143 28 139z" />
    <glyph glyph-name="Z" unicode="Z" horiz-adv-x="542" 
d="M104 577q0 1 5 19q2 7 7 48q3 27 5 32q1 9 7 18q8 15 23 15h6q4 -1 7 -1q10 -2 46 -2q5 0 34.5 1.5t35.5 1.5q8 0 24 -1t24 -1q3 0 25 1t26 1h61q27 -3 61 -3q5 0 71 4q2 0 10 1t11 1q8 0 14.5 -7t6.5 -15q0 -4 -4 -14q0 -5 -2 -15q-8 -33 -10 -56q0 -10 -5 -29
q-4 -11 -81 -110q-15 -17 -43 -53q-12 -17 -37 -50q-23 -28 -54 -67l-45 -58q-7 -8 -20 -24q-24 -32 -24 -41q0 -11 19 -11q3 0 25 1h24h19q16 -1 19 -1q2 0 15 1t16 1t20 -1t21 -1q9 0 29 2q13 3 18 3q20 0 20 -21q0 -7 -5 -25q-11 -38 -13 -65q-4 -55 -37 -55q-2 0 -14 1
t-13.5 1t-30 1t-29.5 1q-5 0 -35 -1.5t-36 -1.5q-5 0 -38 1h-39h-52q-37 -1 -52 -1q-27 0 -71 -2t-35 -2q-21 0 -21 20q0 -8 4 20q1 3 8 37q5 24 8 49q2 13 17 28q50 49 88 95q63 80 149 187q28 31 30 34q16 23 38 55q15 20 15 27q0 6 -4.5 9t-24.5 4q-5 0 -36 -1.5
t-37 -1.5q-3 0 -20 1h-21q-42 0 -82 -5q-16 -2 -19 -2q-22 0 -22 23z" />
    <glyph glyph-name="bracketleft" unicode="[" horiz-adv-x="354" 
d="M48 -51q0 12 8 46q2 10 7 30q7 40 18 94l9 39q2 17 8 50q6 25 16.5 77t14.5 77q2 17 7 52q7 25 19 75q18 81 25 148q5 48 14 62q6 11 22 11q-2 0 18 -1q40 -1 95 -2q26 -1 33 -1q9 0 19 1q3 0 10 1t11 1q31 0 31 -25q0 -5 -3 -16q-7 -26 -7 -56q0 -33 -46 -33q-4 0 -26 1
h-26q-14 0 -16 -16q-4 -12 -10 -44q-14 -68 -39 -188q-3 -22 -12 -66q0 -1 -12.5 -58.5t-13.5 -67.5q-2 -21 -5 -50q-3 -9 -3 -19q0 -9 25 -9h53q18 0 18 -19q-1 -11 -3 -19t-7 -23q-8 -22 -8 -41q0 -24 -25 -24q-11 0 -32.5 2.5t-32.5 2.5q-6 0 -35 -2t-33 -2
q-75 -3 -63 -3q-23 0 -23 15z" />
    <glyph glyph-name="bracketright" unicode="]" horiz-adv-x="354" 
d="M156 584h-13q-21 0 -21 26q0 9 11 38q5 14 7 27q0 6 2 18q2 17 23 17l32 -2q24 -4 40 -4q4 0 26.5 1.5t26.5 1.5q35 2 74 2q21 0 21 -17q0 -22 -13 -64q-3 -6 -7 -19q-6 -36 -16 -85q-3 -12 -9 -37q-3 -18 -11 -53t-23 -107q-3 -15 -9 -46q-2 -15 -7 -47q-7 -26 -21 -81
t-29 -151q-4 -26 -6 -36q-5 -16 -11 -23.5t-22 -7.5q-2 0 -14.5 1t-14.5 1q-15 1 -27 1q-6 0 -44 2t-46 2q-3 0 -21 -1t-21 -1h-6q-15 3 -15 17q0 3 2 13q7 29 14 71q1 27 30 27h30q27 -1 32 -1q12 0 16 8q2 3 5 19q7 40 17 94l12 45q12 59 29 141q11 43 29 129q3 27 8 60
q2 5 3 10q0 6 -4.5 8.5t-58.5 2.5z" />
    <glyph glyph-name="underscore" unicode="_" horiz-adv-x="500" 
d="M460 -75v-50h-520v50h520z" />
    <glyph glyph-name="grave" unicode="`" horiz-adv-x="375" 
d="M89 691q0 19 35 19q4 0 27.5 -1t28.5 -1h34q30 0 37 -4.5t12 -26.5q3 -12 10 -33q13 -38 13 -55q0 -23 -25 -24h-34q-2 0 -19 -1t-20 -1q-17 0 -26 14q-2 4 -29 39q-44 57 -44 75z" />
    <glyph glyph-name="a" unicode="a" 
d="M58 240q31 44 93 74q41 19 103 19q28 0 67 -8q15 -3 19 -3q20 0 20 31q0 11 -12 20q-8 6 -28 8q-9 3 -28 6h-5q-4 -1 -11 -1h-37q-24 0 -69 -15q-15 -5 -26 -5q-29 0 -29 32q0 7 15 76q9 30 34 34q42 6 109 6h11q92 0 135 -11t66 -37q30 -35 30 -87q0 -17 -7 -54
q-4 -31 -11 -74q-13 -50 -13.5 -57.5t-7.5 -41.5q-4 -13 -11 -40q-2 -7 -4 -29q-3 -17 -7.5 -51.5t-23.5 -33.5l-64 3q-14 0 -29 -2t-17 -2q-12 0 -15 13v9q0 14 -7 14q-3 -2 -10 -9q-11 -11 -42.5 -23.5t-61.5 -12.5h-20q-16 1 -20 1q-37 4 -71 36q-13 16 -27 32
q-18 33 -18 75q0 32 4 48q4 29 26 60zM273 216q-56 0 -74 -16q-23 -20 -23 -40q0 -12 7.5 -23t19.5 -16q18 -7 31 -7q27 0 51 8q41 15 41 50q0 44 -53 44z" />
    <glyph glyph-name="b" unicode="b" horiz-adv-x="583" 
d="M66 253q8 39 23 116q4 26 15 76.5t24 105.5q1 13 5 37q2 11 6 32q10 56 16 68q9 18 34 18q10 0 29 -2t29 -2q4 0 22.5 1.5t21.5 1.5q19 0 19 -16q0 -5 -5 -24q-2 -7 -5 -22q0 -6 -5 -29q-1 -5 -5 -20q-2 -20 -6 -46q0 -2 -4 -18.5t-4 -19.5q0 -17 21 -17q15 0 35 8
q7 3 21 8q26 8 63 8q19 0 49.5 -12t50.5 -29q37 -32 54.5 -83t17.5 -85q0 -5 -3 -28q-1 -15 -4 -44q-1 -7 -14 -48q-2 -10 -8.5 -29.5t-14 -30t-17.5 -25.5q-22 -33 -33 -44q-18 -14 -43 -35q-3 -2 -7.5 -5.5t-13.5 -8.5l-12.5 -7.5t-39.5 -10t-44 -5.5q-24 0 -44 5
q-16 4 -46 13q-17 6 -33 17q-10 7 -14 7q-7 0 -14 -7l-9 -15q-6 -7 -17 -7q-6 0 -18 2h-15q-1 0 -12 1h-12q-6 0 -19.5 -1.5t-20.5 -1.5q-39 0 -39 30q0 11 10 46q8 25 21 76q2 12 4.5 37.5t4.5 38.5q2 8 5 25zM241 312q-8 -14 -17 -45q-7 -25 -7 -60q0 -17 6 -31
q5 -9 11 -20q13 -17 34 -23q7 0 10.5 -1t9.5 -4h5q2 0 9 1h9q19 0 40 13q10 6 26 20q21 28 27 48q16 56 16 65q0 2 -1 11t-1 10q-1 12 -10 37q-8 15 -32 30q-19 9 -39 9q-1 0 -7.5 -1t-8.5 -1h-6t-6 -1q-13 -1 -39 -20q-12 -9 -29 -37z" />
    <glyph glyph-name="c" unicode="c" horiz-adv-x="396" 
d="M41 171v37q0 18 8 48q20 76 52 124q22 34 62 67q36 30 65 42q55 24 148 24q49 0 49 -25q0 -7 -12 -54q-4 -17 -9 -42q-7 -36 -26 -36q-6 0 -20 5t-25 5q-22 0 -55 -18q-37 -20 -53 -49q-23 -41 -23 -101q0 -58 63 -58q24 0 46 6q21 3 22 3q20 0 20 -22q0 -6 -10 -51
q-4 -19 -11 -58q-5 -31 -51 -31q-63 0 -105 9q-53 11 -81 37q-20 18 -36 55q-18 41 -18 83z" />
    <glyph glyph-name="d" unicode="d" horiz-adv-x="583" 
d="M444 462q3 0 4 6q1 17 3 24l12 48q3 17 10 53q6 17 13 53q0 8 2 23q0 19 17 33q12 10 27 10l18 -3q13 -4 30 -4q2 0 20 2q5 0 12 1h8q31 0 31 -32q0 -14 -10 -50q-3 -9 -8 -29q-2 -15 -8 -45l-23 -96q-5 -29 -16 -86q-9 -32 -24 -98q-1 -5 -5 -32q-3 -21 -15 -84
q-4 -14 -11 -44q-4 -24 -6 -55.5t-6 -41.5q-7 -15 -27 -15q-2 0 -18 1t-19 1q-4 0 -26 -1.5t-26 -1.5q-28 0 -32 7q0 6 -3.5 14t-10.5 8q-3 0 -15 -9q-19 -15 -45 -18q-9 -2 -27 -6.5t-37 -4.5q-2 0 -25 3q-31 4 -42 7q-18 5 -35 18q-32 24 -49 52q-4 6 -11 18q-3 5 -14 44
q-4 10 -9 30q0 9 -1 27q0 4 -1 13t-1 15q0 2 1 11t1 10q1 5 1 16q0 1 5 19q1 9 4 25q6 24 22 60q9 20 30.5 49.5t33.5 39.5q82 71 183 71q44 0 85 -21q9 -7 22 -21q1 -4 6 -12q4 -2 5 -2zM319 374q-17 0 -39.5 -11t-30.5 -21q-10 -16 -23 -35q-8 -18 -17 -55q-1 -5 -4 -41
q0 -28 9 -44q12 -22 25 -32q16 -16 42 -16q31 0 46 6.5t35 26.5q1 2 9 14t9 15t10 32.5t10 33.5q4 16 4 36q0 35 -10 53q-14 26 -40 33l-14.5 2.5t-20.5 2.5z" />
    <glyph glyph-name="e" unicode="e" 
d="M45 206q0 83 48 177q11 22 42 55q39 41 72 54q12 5 50 17q28 9 95 9q34 0 80.5 -14t72 -49.5t25.5 -86.5q0 6 -5 -56q-1 -17 -5 -52t-21 -45q-11 -6 -44 -5h-22q-19 -1 -22 -1q-9 0 -18 1q-13 2 -38 4h-54q-50 5 -70 5q-22 0 -22 -21q0 -44 42 -56q29 -8 75 -8q38 0 97 8
q8 1 21 5q23 7 29 7q19 0 19 -16q0 3 -14 -47q-3 -11 -5 -33q0 -18 -3 -26q-10 -27 -51 -30q-112 -8 -99 -8q-46 0 -55 3q-27 0 -54 6q-72 16 -109 50q-57 52 -57 153zM324 394q-33 0 -55 -13q-26 -15 -26 -42q0 -14 10 -18q6 -3 29 -3q2 0 14 1h14q7 0 21 -1.5t22 -1.5
q42 0 42 38q0 14 -8 23q-16 17 -63 17z" />
    <glyph glyph-name="f" unicode="f" horiz-adv-x="271" 
d="M53 383v1q0 1 6 20q9 31 12 71q1 20 6 27t24.5 7t23.5 27q0 11 7 49q10 49 22 71q18 34 48 49q25 13 67 13q26 0 74 -5q31 -3 31 -27q0 -1 -0.5 -4t-3 -9t-2.5 -9q-1 -6 -2 -18q-2 -8 -7 -25q-1 -9 -4 -27q-5 -23 -20 -23q-3 0 -10 2t-20 2q-12 0 -18 -3q-19 -7 -23 -34
q0 -2 -1 -9.5t-1 -8.5q0 -16 15 -16q1 0 15 2q4 0 9 1h6q23 0 23 -19q0 -8 -1 -13q-4 -13 -11 -38q-3 -11 -6 -33t-5 -26.5t-9 -4.5q-2 0 -5 1h-6q-5 1 -17 1q-4 1 -13 1q-15 0 -19 -15.5t-7 -30.5q-3 -21 -8 -51q-3 -8 -6 -25q-1 -9 -3 -25l-12 -76q-9 -35 -20 -84
q-1 -13 -5.5 -41t-23.5 -28q-1 0 -4 1h-4q-28 4 -40 4q-3 0 -22 -2t-23 -2q-36 0 -36 30q0 5 14 72q8 34 15 69q1 14 6 42q9 35 25 106q5 28 5 38q0 12 -20 12q-16 0 -16 13z" />
    <glyph glyph-name="g" unicode="g" 
d="M472 112q-13 -72 -28 -105q-26 -58 -100 -102q-12 -7 -34 -14q-15 -5 -37 -7q-11 0 -22 -3q-21 -4 -25 -4h-14q-13 1 -15 1q-61 1 -90 10q-14 4 -41 11q-1 0 -29 11q-9 3 -26 10q-26 13 -26 28q0 8 6 23q3 8 9 54q4 29 27 29q11 0 29 -10q10 -4 41 -16q58 -22 101 -22
q26 0 51 10q20 8 34 24q19 21 29 57q1 4 3 11q3 3 3 7t-4 4q-1 0 -7 -6t-33.5 -15.5t-46.5 -9.5q-67 0 -117 27q-35 19 -56 57q-25 46 -25 101q0 89 45 149q28 37 58 56q16 10 76 30q33 7 57 7q8 0 39 -7q13 -3 46 -16q17 -9 22 -9q6 0 10 5q1 6 5.5 16t15.5 10l18 -3
q11 -3 34 -3q7 0 15 1q2 0 20 2.5t22 2.5q28 0 28 -30q0 -13 -7 -46l-12 -51q-2 -12 -16 -97q-11 -59 -33 -178zM272 389q-39 0 -64 -38q-20 -32 -20 -66q0 -45 37 -64q16 -8 38 -8q37 0 57 25q32 39 32 85q0 23 -11 37.5t-27 22.5q-12 6 -42 6z" />
    <glyph glyph-name="h" unicode="h" 
d="M131 4h-22q-4 0 -27.5 -2t-28.5 -2q-33 0 -33 28q0 11 6 34q16 62 24 106q2 18 8 52q6 23 16 70q5 29 16 88q7 24 18 71q3 20 9 59q12 44 29 135q3 34 9 48q10 21 34 21q4 0 26 -2q17 -3 26 -3q3 0 20 1.5t20 1.5q34 0 34 -29q0 -7 -5 -24q-13 -43 -16 -57
q-4 -19 -10 -60q-2 -13 -4 -21q-4 -15 -4 -22q0 -21 12 -21q6 0 19 10q23 12 73 29q10 2 26 2q32 0 62 -17q22 -12 38.5 -45.5t16.5 -67.5q0 -16 -8 -51l-6 -26l-8 -56q-6 -44 -15 -79q-13 -35 -17 -76q-2 -25 -5 -42q-9 -60 -40 -60q-10 0 -20 2t-27 2h-18q-15 -1 -18 -1
q-43 0 -43 26q0 5 6 22q9 25 13.5 62.5t13.5 68.5q3 10 8 29q2 19 9 57q2 6 5 18q6 22 6 36q0 11 -6 21q-12 20 -44 20q-18 0 -26 -4q-16 -8 -26 -18q-22 -17 -35 -75q-1 -11 -4 -31q-1 -9 -5.5 -25t-5.5 -25q-3 -23 -13 -69q-4 -10 -11 -30q-2 -15 -6 -43q-6 -38 -25 -38
q-1 0 -10 1t-11 1z" />
    <glyph glyph-name="i" unicode="i" horiz-adv-x="229" 
d="M176 708h28q3 0 20.5 -1t21.5 -1q3 0 17 1h17q22 0 22 -20q0 8 -15 -55q-3 -16 -10.5 -46t-30.5 -30q-2 0 -18 1h-18h-24q-20 -1 -24 -1q-37 0 -37 24q0 9 7 40q1 4 7 31.5t8 32.5q7 22 29 24zM16 25q0 16 5 33q8 28 9 32q2 16 7 48q1 6 10 53t26 142q3 15 14 54
q6 20 7 33q5 52 11 67q11 25 39 25h9q6 -1 9 -1q18 -3 78 -3q21 0 21 -22q0 -5 -7 -27t-21 -105q-4 -31 -17 -90q-2 -7 -6 -38q-1 -12 -5 -35q-3 -10 -5 -21q-3 -23 -15 -67q-2 -10 -5 -30q0 -12 -3 -36q-7 -37 -31 -37q-1 0 -8 1h-8q-1 0 -23 1t-24 1q-3 0 -19 -1t-18 -1
q-30 0 -30 24z" />
    <glyph glyph-name="j" unicode="j" horiz-adv-x="250" 
d="M131 574q0 3 5 18q3 9 10 37q3 21 10 49.5t39 28.5h17h21q16 -1 24 -1q38 0 33 0q23 -2 23 -16q0 -7 -4.5 -20.5t-11.5 -39.5q-4 -18 -7 -47q-1 -10 -3 -15t-9.5 -9.5t-43.5 -4.5q-5 0 -32 -1t-32 -1q-39 0 -39 22zM-49 -94l10 36q8 28 11 58q1 13 3 19q4 12 12 16
q7 1 20 4q27 5 34 45q3 18 7 41t11 60q2 9 6 28q2 14 5 43q5 25 11 60q1 9 8 37q2 9 6 26q6 26 11 63t11 49q9 20 33 20q2 0 18 -1t19 -1q17 0 44 1q2 0 7 1h8q27 0 27 -30q0 -14 -6 -35q-10 -31 -11 -34q-3 -18 -9 -53q-1 -4 -7 -43q-3 -11 -7 -33q-15 -83 -18 -96
q-4 -20 -12 -59q-2 -8 -5 -22q-4 -34 -17 -101q-22 -79 -71 -103q-37 -18 -125 -18q-34 0 -34 22z" />
    <glyph glyph-name="k" unicode="k" horiz-adv-x="500" 
d="M170 29v-10q-3 -19 -21 -19q-6 0 -14 2l-20.5 1.5t-27.5 1.5q-2 0 -15 -1t-16 -1q-35 0 -35 33q0 7 1 11q4 13 10 38q2 10 8 42q9 41 21 98q3 20 8 49q2 9 7 27q2 12 7 35t12 55q3 19 9 58q7 27 20 79q3 25 10 63q4 20 12 61q6 30 13 40q10 15 31 15q3 0 19 -1t19 -1
t18.5 1t18.5 1q35 0 35 -26q0 -25 -5 -48q-4 -10 -5.5 -15t-8.5 -37q-1 -13 -6 -34q-2 -7 -5 -21q-2 -8 -2 -13q-14 -88 -24 -126q-3 -11 -3 -17q0 -25 26 -25q21 0 35 13q21 19 54 61q6 10 17 30q5 8 18 39q6 14 17 18q7 2 38 2h14q11 -1 14 -1q2 0 17 1h17q30 0 30 -27
q0 -17 -9 -39q-12 -27 -25 -58q-6 -8 -15 -24q-3 -6 -10 -18q-5 -6 -14.5 -18.5t-13.5 -17t-13.5 -13.5t-19.5 -21q-20 -21 -20 -36q0 -1 1 -3v-4q4 -7 11 -23q2 -6 7.5 -19.5t11.5 -31.5q1 -6 5 -16q3 -3 7 -11q10 -15 20 -46q3 -8 9 -25q8 -12 10 -18t2 -12q0 -29 -36 -29
q-7 0 -21.5 2.5t-22.5 2.5q-2 0 -17 -1.5t-18 -1.5q-46 0 -53 16q-3 15 -6 35t-19 51l-24 48q-19 30 -41 30q-16 0 -25 -15q-3 -4 -10 -52q-1 -5 -4 -14q0 -4 -2 -13q-2 -4 -4 -13q-1 -5 -3 -19q-2 -8 -6 -25z" />
    <glyph glyph-name="l" unicode="l" horiz-adv-x="229" 
d="M12 25q0 4 7 30q7 41 24 123q3 11 9 32q1 18 7 53q4 14 10 40q2 16 8 48q4 13 10 39q11 48 14 71q2 13 2 18l15 69q6 35 19 104q10 53 44 53q3 0 19.5 -1.5t20.5 -1.5q-2 0 15 1t19 1q42 0 42 -26q0 -7 -0.5 -11t-5.5 -24q-1 -2 -5 -29q-5 -23 -13 -55q-1 -3 -7 -41
q-4 -16 -11 -49q-2 -10 -5 -32q-6 -25 -14 -60l-6 -39q-7 -25 -17 -77q-1 -16 -6 -46q-5 -14 -12 -44q-1 -12 -5 -36q-1 -6 -9 -37q-1 -6 -12 -70q-5 -29 -30 -29q-7 0 -10 1q-22 3 -39 3q-24 0 -37 -1q-8 -2 -13 -2q-28 0 -28 25z" />
    <glyph glyph-name="m" unicode="m" horiz-adv-x="792" 
d="M519 451q5 0 19 14q32 22 63 34q36 14 62 14q52 0 78 -19q13 -14 26 -29q21 -42 21 -77q0 -25 -10 -78q-2 -18 -8 -53q-3 -12 -9 -37q-12 -52 -27 -125q0 -10 -1 -28q-4 -67 -46 -67q-4 0 -25.5 2t-25.5 2q-2 0 -19 -1t-20 -1q-35 0 -35 21q0 8 4.5 22.5t14.5 46.5
q2 18 8 56q6 20 15 59q2 11 5 32q16 48 16 70q0 16 -4 25q-11 23 -44 23q-40 0 -65 -41q-9 -20 -18 -64q-1 -6 -4 -18t-9 -37q-2 -15 -8 -43q-2 -7 -7 -21q-5 -18 -9 -59q-2 -21 -4.5 -32t-11.5 -29q-10 -14 -34 -14q-3 0 -18 2t-18 2t-23.5 -1.5t-24.5 -1.5q-34 0 -34 20
q0 11 7 33q5 16 13 49q8 49 13 66q7 21 13 57q1 7 11 42q7 26 7 42q0 49 -50 49q-51 0 -74 -70q-9 -28 -21 -93q-10 -57 -23 -108q-11 -44 -13 -63q-3 -25 -26 -25q-3 0 -23 2.5t-24 2.5q-3 0 -21.5 -2t-22.5 -2q-34 0 -34 33q0 8 2 17q8 25 18 58q5 40 20 118q8 27 19 83
q3 33 9 63l12 45q3 14 3 35q0 57 33 57q59 -4 67 -4q2 0 17 1h18q28 0 28 -21q0 -1 -1.5 -7.5t-1.5 -8.5q0 -8 8 -8q7 0 27 13q59 38 114 38q37 0 51 -7q5 -1 18 -11q15 -13 20 -23q9 -20 17 -20z" />
    <glyph glyph-name="n" unicode="n" 
d="M270 462q7 0 29 20q6 6 17 11q46 23 86 23q36 0 72 -22q18 -11 33 -46q12 -27 12 -70q0 -24 -12 -83q-6 -37 -21 -111q-3 -14 -10 -40q-10 -42 -10 -68q0 -36 -12.5 -56t-40.5 -20q-3 0 -22.5 2t-23.5 2q-2 0 -19 -1.5t-20 -1.5q-30 0 -30 25q0 8 8 32q6 18 10 47
q5 36 8 48q6 17 15 52q2 9 5 29q16 88 16 82q0 21 -15.5 33t-34.5 12q-28 0 -52 -17q-16 -11 -32 -60q-4 -16 -10 -47q-2 -9 -4 -22q-4 -17 -9 -41q-4 -20 -13 -63q-9 -30 -14 -61.5t-10 -39.5t-17 -8q1 0 -18 3q-6 1 -21 1q-3 0 -25.5 -2t-26.5 -2q-37 0 -37 31q0 5 18 80
q5 41 22 120q2 5 5 15.5t4 15.5q3 20 8 49q2 16 2 22q4 26 10 51q3 11 9 32q3 29 8 60.5t35 31.5q5 0 29 -1.5t28 -1.5q-1 0 21 1l22 1q25 0 25 -15q0 -2 -2.5 -12.5t-2.5 -12.5q0 -7 8 -7z" />
    <glyph glyph-name="o" unicode="o" horiz-adv-x="583" 
d="M580 255v-8q0 -9 -11 -46q-14 -43 -27 -65q-25 -40 -38 -56q-21 -26 -55 -48t-65 -30q-12 -2 -36 -7q-36 -7 -65 -7q-42 0 -88 14q-32 10 -41 16q-31 16 -51 42l-7 7q-7 7 -27 47q-7 10 -17 38q-3 17 -6 44q-1 2 -1 17q0 43 17 104q5 19 22 46q2 4 14 25q25 45 59 68
q5 3 15 10q7 6 21.5 17t51.5 23q41 14 123 14q14 0 21 -1q38 -6 73 -20q19 -8 47.5 -32t40 -41t24.5 -61q1 -2 2 -7.5t2 -9.5t3 -13t2 -66q0 -8 -3 -14zM327 380q-19 0 -46 -14q-21 -10 -26 -15q-27 -23 -43 -71q-9 -28 -9 -62q0 -32 23.5 -61t69.5 -29q18 0 43 11
q34 14 50 38q13 20 22 51q10 36 10 50q0 16 -2 28q-4 23 -16 40q-24 34 -76 34z" />
    <glyph glyph-name="p" unicode="p" horiz-adv-x="583" 
d="M283 484q9 0 18 9q60 24 110 24q35 0 64 -16q16 -9 25 -15q4 -3 25 -23q5 -5 16 -15q6 -6 18 -30q18 -34 24 -66q1 -9 2 -27q3 -41 3 -33q0 -9 -3 -23q-3 -17 -4 -23q-1 -10 -4 -29q-2 -6 -5 -17t-9 -30l-29 -58q-5 -7 -12 -17q-14 -18 -38 -41q-9 -10 -30 -28
q-14 -10 -47 -22q-43 -16 -75 -16q-43 0 -56 5q-6 2 -18 7q-10 2 -16 4q-15 4 -29.5 15.5t-22.5 11.5q-5 0 -10 -6q-9 -18 -10.5 -29t-6.5 -33l-5 -26q-6 -32 -8 -34q-8 -16 -23 -16q-1 0 -9.5 1t-10.5 1h-16q-13 1 -16 1q-9 0 -31 -2q-8 -2 -14 -2q-12 0 -21 8t-9 19
q9 56 11 64q1 4 10 39q5 33 18 99q6 23 17 69q3 19 11 56q9 42 15 80q8 43 23 128q9 63 38 63h8q7 -1 12 -1q18 -2 21 -2q11 0 33.5 2t33.5 2q16 0 20 -8q1 -2 1.5 -6.5t1.5 -6.5q2 -7 9 -7zM337 376q-1 0 -25 -5q-27 -6 -46 -30t-26 -46q-11 -28 -12 -34q-7 -20 -7 -48
q0 -12 3 -22q4 -14 7 -20q8 -15 22 -26q17 -14 55 -14q13 0 18 2q26 7 46 25t32 46q3 10 10 30.5t7 40.5q0 31 -1 37q-5 29 -25 45q-5 5 -21 13q-12 6 -37 6z" />
    <glyph glyph-name="q" unicode="q" horiz-adv-x="583" 
d="M47 208q0 94 40 163q24 41 33 50q16 24 61 58l24 12q23 13 42 19q34 10 70 10q51 0 103 -35q10 -6 14 -6q8 0 14 11q2 6 7 13t22 7q4 0 20 -2t35 -2l20 1l20 1q37 0 37 -30q0 -7 -3.5 -24.5l-3.5 -17.5q-8 -26 -20 -78q-6 -36 -15 -86q-4 -19 -14 -67.5t-23 -115.5
q-7 -32 -20 -96q-6 -36 -18 -81q-2 -4 -2 -13q-4 -12 -33 -12h-12q-10 1 -11 1q-4 0 -30.5 -1.5t-31.5 -1.5q-29 0 -29 24q0 8 3 26q12 72 12 69q0 14 -8 14q-10 0 -63 -20q-32 -9 -55 -9q-37 0 -74 14q-54 21 -83 78q-26 51 -27 86v10q1 10 1 11q0 2 -1 10.5t-1 9.5z
M332 379q-45 0 -73 -30q-10 -11 -20 -26q-4 -10 -11 -24q-9 -17 -14.5 -45.5t-5.5 -58.5q0 -24 14 -46q9 -15 36 -28q12 -6 31 -6q24 0 41 9q25 13 40 35q3 4 13 30q6 10 8 15q4 16 13 43q1 7 2 22l2 20q0 34 -12 53q-7 16 -24 25q-22 12 -40 12z" />
    <glyph glyph-name="r" unicode="r" horiz-adv-x="333" 
d="M363 516q29 0 29 -18q0 -3 -1 -9.5t-1 -7.5q-8 -27 -18 -64q-3 -23 -5 -45q-5 -29 -21 -38q-3 -2 -41 -6q-12 -1 -39.5 -14t-36.5 -42q-5 -23 -13 -55q-3 -9 -9 -29q-1 -10 -4 -29q-1 -6 -4 -17q-1 -7 -4 -21q-4 -22 -13 -65q-11 -57 -35 -57q-7 0 -21 2.5t-21 2.5
q-3 0 -23 -2.5t-24 -2.5q-35 0 -35 30q0 20 5.5 35t13.5 47q2 8 5 29q9 69 18 100q4 12 10 37q2 7 8 62q0 7 2 19q7 19 17 59q1 16 4 48q6 44 37 44q10 0 29 -1.5t28 -1.5q3 0 21 2q5 0 13 1h9q23 0 23 -18q0 -7 -2 -14q-6 -20 -6 -17v-1q0 -9 4 -9q3 0 17 17q9 10 18 21
q24 24 66 28z" />
    <glyph glyph-name="s" unicode="s" horiz-adv-x="417" 
d="M58 338q0 41 19 82q12 26 35 48q51 48 140 48q42 0 72 -4q7 -1 59 -11q35 -7 35 -28q0 -6 -4 -28q-5 -28 -7 -44q-4 -40 -24 -40q-7 0 -31 11q-48 22 -93 22q-43 0 -43 -29q0 -19 22 -34q14 -10 61 -24q37 -11 55 -24q47 -33 47 -100l-3 -39q-4 -21 -6 -29
q-7 -19 -19 -36q-36 -48 -79 -67q-49 -21 -139 -21q-18 0 -55 1q-16 0 -40 7q-44 12 -44 41q0 15 5 32q2 12 3 31q2 54 29 54q12 0 42 -11q57 -21 82 -21q24 0 42 10t18 28q0 8 -7 17q-6 6 -61 31q-12 4 -35 16t-32 19q-44 33 -44 92z" />
    <glyph glyph-name="t" unicode="t" horiz-adv-x="292" 
d="M75 374h-13q-15 0 -15 15q0 3 5.5 21t6 22.5t2.5 14.5q5 62 24 62q8 -1 9 -1q5 -2 8 -2q10 0 13 7t7 38q7 52 16.5 73.5t26.5 21.5q2 0 27 -1.5t29 -1.5q3 0 20 2t20 2q31 0 31 -23v-7q-1 -9 -12 -43q-13 -41 -13 -51q0 -16 46 -16q19 0 19 -17q-5 -20 -12 -49
q-6 -32 -7 -50q0 -7 -2 -12q-3 -9 -11 -11q-1 0 -11 1h-12q-1 0 -12 1h-12q-17 0 -23 -42q-8 -58 -23 -117q-7 -28 -7 -40q0 -9 4 -16q7 -13 20 -13q6 0 15 4q18 8 21 8q16 0 16 -15q0 -10 -4 -20q-8 -29 -10 -60q-3 -43 -13 -53q-12 -13 -61 -13q-59 0 -81 8q-6 4 -20 10
q-9 3 -27 11q-17 15 -22 33q-4 15 -4 41q0 15 4 35q9 38 20 90q1 8 4 24q2 9 5 25.5t4 23.5q1 3 7 34.5t6 36.5q0 9 -9 9z" />
    <glyph glyph-name="u" unicode="u" 
d="M43 113q0 23 7 61l27 126q4 22 13 64q16 61 20 94q7 50 36 50q4 0 17 -1q34 -2 25 -2q7 0 20 1t20 1q33 0 39 -6.5t6 -17.5q0 -5 -7 -30t-8 -28q-1 -7 -3 -22q-2 -9 -7 -27l-6 -21q0 -2 -3 -18q-2 -7 -4 -21q-1 -10 -4 -30q-2 -7 -6 -23q0 -6 -2 -17q-1 -4 -4 -11
q-12 -40 -12 -65q0 -38 38 -38q34 0 64 40q21 28 29 61q6 26 17 79q5 19 13 58q7 32 16 75q1 11 3 24q6 38 38 38q7 0 21.5 -2t21.5 -2q3 0 17 1.5t16 1.5q42 0 42 -31q0 -7 -9 -37q-2 -7 -4 -20.5t-6 -41.5q-4 -15 -12 -46q-16 -68 -43 -204q-1 -9 -4 -27q-3 -14 -8 -42
q-4 -55 -37 -55q-3 0 -20 1.5t-20 1.5q-4 0 -26.5 -2.5t-26.5 -2.5q-33 0 -33 14q0 2 2 10t2 9q0 9 -10 9q-9 0 -22 -14q-10 -10 -21 -15q-43 -18 -75 -18q-27 0 -56 13t-47 35q-12 15 -14 24q0 1 -3 14q-1 1 -5 13q-2 5 -2 19z" />
    <glyph glyph-name="v" unicode="v" horiz-adv-x="437" 
d="M52 464q0 43 24 43h4q2 -1 3 -1q21 -3 45 -3q5 0 30 1.5t29 1.5q17 0 21.5 -8.5t4.5 -32.5q0 -1 -2 -38t-2 -40q0 -12 3 -51q2 -26 2 -108v-18q-1 -15 -1 -18q0 -5 1 -13v-13q0 -13 7 -15q3 0 5 11q4 19 20 59q16 35 46 105q3 9 8 26q18 52 18 83q0 2 -2 18.5t-2 19.5
q0 32 33 32h8q7 -1 12 -1q16 -2 19 -2q11 0 32.5 2t32.5 2q31 0 31 -42q0 -14 -11 -46q-31 -91 -31 -93q-21 -56 -40 -95q-4 -9 -13 -26q-5 -12 -15 -37q-6 -13 -19 -39l-49 -102q-12 -25 -39 -25q-2 0 -19 1t-20 1h-16q-14 -1 -17 -1q-2 0 -14.5 1t-15.5 1t-14 -2t-30 -2
q-17 0 -23.5 11.5t-10.5 44.5q-1 19 -4 56q-4 18 -5 27q-1 1 -5.5 45.5t-4.5 50.5q-2 19 -2 56q0 3 -1 17t-1 16q0 13 -2 55q0 12 -1 35q0 7 -5 36q-2 12 -2 14z" />
    <glyph glyph-name="w" unicode="w" horiz-adv-x="667" 
d="M330 151v14q0 17 -3 17q-2 0 -14 -36q-9 -29 -21 -59.5t-28 -59.5q-12 -28 -37 -28q-4 0 -26.5 1t-27.5 1q-4 0 -31.5 -1.5t-32.5 -1.5q-20 0 -28 5t-10 24q-2 35 -5 81l-6 42q0 12 -1 36q0 10 -3 34q-2 21 -2 33q0 2 1 14v14q0 3 -1 21.5t-1 22.5v19q0 2 -1 17.5
t-1 18.5v35q-7 56 -7 57q0 35 24 35q6 0 20 -2q22 -3 41 -3q12 0 27 2q9 2 19 3q15 0 22 -10.5t7 -40.5q0 -5 -3 -37t-3 -38q0 -2 3 -53q1 -17 1 -61q0 -40 2 -74q1 -17 1 -25q0 -14 5 -16q3 0 6 13q1 7 6 19q0 1 6 20q4 14 11.5 30.5t21.5 50.5q5 13 14 38q6 11 16 35
q6 15 6 30q0 21 -6 45q-7 28 -7 35q0 39 31 39l25 -3q8 -1 44 -1q7 0 23 1q23 1 16 1q27 0 27 -24v-5q-1 -3 -1 -4q-3 -27 -3 -71q0 -12 5 -67v-27q0 -13 2 -49.5t2 -72.5q0 -15 1 -21t1 -14q0 -3 2 -3q8 0 8 10q2 5 6 16q4 15 13 44q2 7 27 64q17 39 22 65q1 7 4 21
q15 56 15 59q0 7 -2 21.5t-2 21.5q0 38 31 38h8q8 -1 14 -1q18 -2 22 -2q21 0 41 3q13 2 19 2q18 0 25 -16q5 -11 5 -27q0 -3 -7 -42q-8 -19 -22 -57q-15 -47 -36 -107q-27 -58 -58 -126q-4 -11 -13 -32t-27 -61.5t-58 -40.5q-6 0 -43.5 1t-44.5 1q-11 0 -19 -1q-2 0 -15 -2
t-16 -2q-25 0 -25 34q0 5 -1.5 31t-1.5 30q0 5 1 30t1 29z" />
    <glyph glyph-name="x" unicode="x" 
d="M32 1h-28q-29 0 -29 25q0 10 7 21q13 18 39 53q20 29 46 56q5 4 15 15q6 6 21.5 26.5t30.5 35.5q28 27 28 48q0 4 -2 12q-8 19 -20 46q-1 3 -15 27q-13 31 -44 91q-11 18 -11 28q0 25 29 25q10 0 30.5 -3t31.5 -3q2 0 11.5 1t15.5 1q14 1 28 1q22 0 32 -10q7 -7 15 -31
q3 -14 10 -41q9 -32 21 -32q19 0 79 95q12 19 34 19q5 0 38.5 -1t39.5 -1q3 0 16 1h16q27 0 27 -22q0 -29 -49 -74q-25 -23 -48 -57q-9 -12 -25 -36q-4 -7 -14 -21q-17 -21 -17 -27t3 -14q12 -21 28 -52q6 -12 16 -33q3 -8 9 -22q5 -8 13 -22.5t13 -24.5q28 -51 28 -68
q0 -31 -36 -31q-4 0 -26.5 1t-27.5 1q-10 0 -29 -2t-29 -2q-24 0 -30 27q-1 6 -8 24l-9 18q-6 16 -10 24q-10 17 -23 40q-9 17 -16 17t-19.5 -16.5t-19.5 -24.5q-30 -33 -70 -87q-9 -20 -25 -20q-3 0 -21.5 1.5t-22.5 1.5q-3 0 -23 -2t-24 -2z" />
    <glyph glyph-name="y" unicode="y" horiz-adv-x="458" 
d="M50 469v9q0 33 29 33q3 0 18 -2q22 -3 39 -3q3 0 20.5 1.5t20.5 1.5q22 0 30 -16q5 -11 12 -58q1 -10 4 -31q12 -69 12 -68q2 -16 8 -41q3 -11 10 -62q5 -38 11 -38q2 0 4 10q1 7 5 15q3 13 10 39q10 32 31 95q18 55 18 68q0 2 -2 14l-2.5 15t-0.5 11q0 21 5 26
q8 19 32 19h13q8 -1 42 -1q2 0 19 1h19q38 0 38 -46q0 -29 -24 -87q-8 -15 -21 -45q-1 -2 -11 -30q-44 -120 -89 -207q-9 -16 -26 -48q-29 -63 -49 -76q-6 -3 -17 -9q-18 -10 -25 -13q-1 0 -36 -5q-10 -2 -30 -5q-9 0 -16 1h-16q-4 0 -25.5 -1.5t-25.5 -1.5q-8 0 -12 1
q-24 3 -26 3h-17q-30 0 -30 20q0 3 3 18.5t3 18.5q0 15 2 43q5 24 25 24q1 0 29 -4.5t34 -4.5q12 0 25 6q26 12 26 37v6q-10 31 -23 74.5t-25 80.5q-16 49 -29 123q-3 16 -9 49q-4 13 -10 40z" />
    <glyph glyph-name="z" unicode="z" horiz-adv-x="417" 
d="M133 377h-20q-41 0 -41 24q0 6 4 16q9 30 11 58q1 5 1 12q4 23 26 23q6 0 39 -1q9 0 22.5 -1t16.5 -1q2 0 14 1t20 1q29 1 34 1q7 0 51 -2.5t52 -2.5q-6 0 38 2q3 0 18 1.5t16 1.5q29 0 29 -25q0 -9 -11 -40q-5 -15 -8 -29q-3 -17 -6.5 -22t-20.5 -21q-7 -6 -29 -34
q-12 -17 -46 -51l-29 -29q-11 -13 -31 -40q-2 -3 -6 -8.5t-7 -8.5q-8 -9 -25 -28q-9 -11 -19.5 -22.5t-10.5 -12.5v-1q0 -7 8 -5h18q4 0 27.5 1.5t28.5 1.5q4 0 27.5 -2t28.5 -2q1 0 8 1h9q24 0 24 -23q0 -3 -4 -18.5t-4 -17.5l-6 -42q-5 -22 -11 -27t-27 -5q-11 0 -77 1
h-79q-6 0 -43.5 -1.5t-45.5 -1.5q-50 0 -72 2q-26 0 -26 18q0 5 3 35.5t3 35.5q1 22 13 34q19 19 48 50q5 7 15 19q26 30 61 70q6 5 20 20q5 5 41 46q29 32 36 36.5t7 5.5q0 4 -8 7l-18 1q-3 0 -21.5 -1.5t-22.5 -1.5q-7 0 -21.5 1t-21.5 1z" />
    <glyph glyph-name="braceleft" unicode="{" horiz-adv-x="375" 
d="M333 711h53q27 0 27 -35q0 -2 -1 -13.5t-1 -13.5q0 -1 1 -12.5t1 -13.5q0 -18 -41 -18q-23 0 -43 -12t-21 -43q0 -5 -3 -19q-2 -6 -2 -16q0 -4 1.5 -28.5t1.5 -29.5q0 -22 -9 -51q-6 -19 -23 -37q-7 -8 -24 -22q-23 -17 -44 -17q-2 0 -3 1h-4q-5 0 -9 -8q10 1 20 0
q6 -3 19 -8q19 -7 24 -10t11 -11q22 -29 29 -47q10 -25 10 -51q0 -2 1 -16.5t1 -17.5v-21q-1 -18 -1 -22v-16q1 -5 8 -23q5 -9 19 -25q16 -11 43 -11q23 0 29 -3q10 -4 10 -20v-10q-1 -8 -1 -10t1 -13.5t1 -13.5q0 -36 -19 -36h-10q-8 1 -10 1h-26q-44 0 -62 4q-8 3 -24 8
t-48 24q-5 7 -12.5 15t-12.5 13q-13 18 -16 42q0 9 -1 27q0 5 -2 17.5t-2 18.5q0 15 1 18v24q-1 21 -1 26t-2 16.5t-2 17.5q-8 32 -25 43q-7 4 -19 11.5t-30 7.5q-21 0 -21 23q0 2 1 12v12q0 10 -4 34q0 11 9 21q6 7 23 7q25 0 41 16q9 13 19 27.5t10 31.5v66q0 9 1 23t2 24
t5 32q5 40 29 62q29 27 36 31q21 14 55 15q5 0 17 1t19 1z" />
    <glyph glyph-name="braceright" unicode="}" horiz-adv-x="375" 
d="M256 325q-15 0 -38 8q-27 10 -39 27q-20 30 -26.5 47.5t-8.5 49.5q0 4 -1 14t-1 15q0 4 1 28v28q0 11 -1 14q-12 23 -15 28t-13 11q-15 10 -50 10q-30 0 -30 23q0 4 1 11v10q0 2 -1 13t-1 13q0 36 19 36q58 0 90 -3q15 -1 46 -12q23 -8 29.5 -11t12.5 -9.5t11 -13.5
q3 -2 8.5 -7t7.5 -8q7 -10 16 -41q1 -10 1 -31q4 -44 4 -35q0 -1 -1 -8v-9q1 -28 1 -53q0 -10 4 -30q0 -5 6 -19q8 -18 19 -25q3 -2 8 -4.5t12 -7.5q12 -7 31 -7t19 -24v-12q-1 -11 -1 -12q0 -2 1.5 -16.5t1.5 -17.5q0 -10 -7.5 -18.5t-21.5 -8.5q-10 0 -19 -2
q-17 -4 -33 -28q-3 -3 -9 -11q-11 -17 -11 -34v-67q-2 -45 -2 -44q-3 -11 -6.5 -33.5t-7.5 -32.5q-7 -17 -22.5 -31t-34.5 -30q-4 -2 -16 -7q-18 -7 -38 -7q-4 0 -25 -1.5t-25 -1.5q-3 0 -12 1h-20q-1 0 -2 -1h-2h-4q-28 0 -28 35q0 2 1 14t1 14t-1 12.5t-1 12.5q0 12 9 15
q21 2 50 5q34 8 42 31q2 11 5 32q0 2 2 12t2 12q0 4 -1.5 31t-1.5 32q0 49 22 73l12 12q6 8 9 11q10 10 31 19q18 8 27 8h4q1 -1 3 -1q5 0 8 7z" />
    <glyph glyph-name="exclamdown" unicode="&#xa1;" horiz-adv-x="250" 
d="M130 573q0 2 2.5 13.5t7.5 33.5q0 1 6 29q4 14 8 33q5 26 28 26q7 0 20.5 -2t20.5 -2q10 0 30.5 1.5t30.5 1.5q28 0 28 -24q0 -6 -1 -11q-4 -16 -10 -38q-3 -17 -10 -50q-10 -37 -33 -37q-2 0 -8 1t-9 1q-12 3 -47 3q-23 0 -34 -1q-3 -1 -9 -1q-21 0 -21 23zM23 48
q0 30 22 91q4 13 10 38q8 21 21 64q8 33 24 93q7 20 19 59q3 12 10 36q4 9 10 28q2 9 7 27q12 37 55 37q45 0 45 -32q0 -11 -10.5 -103.5t-10.5 -93.5q-3 -56 -15 -168q-3 -15 -8 -45q-3 -24 -12 -58q-7 -12 -17 -15q-15 -6 -55 -6q-46 0 -65 5q-30 8 -30 43z" />
    <glyph glyph-name="cent" unicode="&#xa2;" horiz-adv-x="375" 
d="M182 -104h-26q-22 0 -22 20q0 5 10 40t10 39q0 9 -20 16.5t-35 21.5q-30 28 -42 63q-16 45 -16 94q0 31 12 80q21 81 66 137q21 26 58.5 55t62.5 37q9 3 12 11q7 34 14 70q0 6 1 17q2 27 37 27h19q16 -1 19 -1q29 0 29 -14q0 -7 -5 -23q-15 -47 -15 -57q0 -12 15 -12
q21 0 36 -7q8 -4 8 -13q0 -4 -3 -15q-11 -42 -15 -68q0 -8 -4 -26q-9 -27 -26 -27q-3 1 -13 3q-25 9 -31 9q-30 0 -57 -23q-57 -49 -57 -143q0 -38 20 -52q10 -10 35 -10q12 0 33 4l11 2q7 2 15 3q21 0 21 -22q0 -7 -9 -41t-13 -64q-3 -20 -10 -27q-12 -11 -46 -11
q-11 0 -20 -26q-11 -47 -11 -48q-4 -20 -23 -20h-12q-11 1 -13 1z" />
    <glyph glyph-name="sterling" unicode="&#xa3;" horiz-adv-x="479" 
d="M351 -6h-4q-11 0 -35.5 3t-23.5 3q-8 2 -22 5q-6 0 -18 1q-5 0 -35.5 2.5t-36.5 2.5q-33 0 -37 -1l-57 -6q-45 -5 -51 -5q-23 0 -23 21q0 6 5 20.5t15 64.5q2 11 5 16q4 10 11 11h12q28 0 53 52q27 56 27 123q0 20 -6 24t-27 4t-21 15q0 1 6 30.5t7 35.5q4 36 20 36
q2 0 12.5 -1t12.5 -1q19 0 26 10q4 6 7 28q1 10 5 27q11 50 30 81q32 53 56 74q21 18 66 33q39 13 82 13q42 0 119 -16q32 -7 32 -23q-6 -20 -13 -47q-3 -17 -12 -50q-7 -21 -24 -21q-8 0 -19 6q-35 19 -70 19q-41 0 -62 -32q-7 -12 -15.5 -42t-8.5 -41q0 -19 29 -19h55
q17 0 17 -13q0 -2 -3 -12q-10 -35 -17 -75q0 -16 -16 -16h-7q-16 2 -40 2q-23 0 -30 -5.5t-11 -22.5q-13 -51 -30 -87q-13 -28 -27 -50q-2 -3 -21 -22q-5 -4 -5 -6q0 -6 4 -6q2 0 6 1.5t6 2.5q10 1 26 2q22 0 43 -5t32 -5q40 0 70 10q18 6 24 6q20 0 20 -22q0 -4 -4 -20
q-5 -20 -5 -21q-9 -27 -9 -54v-7q-9 -31 -95 -31z" />
    <glyph glyph-name="yen" unicode="&#xa5;" horiz-adv-x="604" 
d="M187 387h-36q-2 0 -12.5 -1t-12.5 -1q-22 0 -22 17q0 -10 8 34q3 12 4 22q2 18 26 18q2 0 19 -1t20 -1q10 0 11 10q0 2 -4 13t-5 15q-17 35 -36 86q-6 17 -27 65q-9 14 -9 25q0 20 32 24q-4 0 20 -3t44 -3q9 0 27 1.5t27 1.5q21 0 31 -13.5t26 -66.5q4 -13 11 -38
q6 -15 14 -45q1 -7 4 -21q3 -7 8 -19q1 -5 4.5 -15t6.5 -10q1 1 8 10q4 12 34 54q4 5 26 35q6 11 19 31q5 6 14 18q7 9 28 41q25 38 51 38q6 0 21 -2t79 -2h28q26 0 26 -19q0 -15 -11 -30q-20 -20 -43 -52q-12 -17 -21 -27q-4 -5 -14 -16q-16 -25 -49 -67q-7 -7 -7 -11
q0 -5 10 -5q1 0 7.5 -1t7.5 -1q4 0 12 1t12 1q26 0 26 -24q0 -7 -10 -40q-10 -29 -38 -29q-14 0 -20 1q-19 3 -23 3h-16q-10 -1 -16 -1h-15q-22 0 -30.5 -15t-25.5 -40q-7 -9 -7 -14q0 -3 7 -5l24 -2q21 2 22 3q2 0 35 -1h26q23 1 26 1q26 0 26 -23q0 -7 -9 -25
q-3 -11 -12 -32q-8 -14 -26 -14q-3 0 -23.5 2.5t-24.5 2.5q-8 0 -25 -2t-26 -2q-2 0 -16 1t-17 1q-17 0 -20 -14l-27 -138q-1 -11 -3.5 -33t-7.5 -29q-6 -11 -25 -11q-4 0 -27.5 1.5t-28.5 1.5q-4 0 -26.5 -1.5t-26.5 -1.5q-38 0 -38 30q0 3 5 23q8 26 21 84q2 13 7 41t5 35
q0 12 -9 12h-5q-14 -2 -21 -2q-4 0 -26.5 1t-26.5 1q-3 0 -21 -1t-21 -1q-24 0 -24 16q0 2 1.5 8t6 37.5t31.5 31.5q3 0 17.5 -1.5t16.5 -1.5t18 1t19 1q4 0 27 -1t27 -1q13 0 13 10q0 5 -3 11t-10 34q-5 22 -20 22h-13q-12 -1 -14 -1z" />
    <glyph glyph-name="dieresis" unicode="&#xa8;" horiz-adv-x="375" 
d="M84 688q26 0 46 3q13 2 22 2q21 0 21 -20q0 -9 -6 -23q-4 -24 -8 -47q-8 -29 -29 -29q-3 0 -18.5 1t-18.5 1q-4 0 -28.5 -1t-29.5 -1q-30 0 -30 22q0 2 10 40q1 9 5 27q6 27 31 27q2 0 16 -1t17 -1zM350 693q20 0 20 -24q0 2 -11 -48q-1 -9 -5 -25q-6 -21 -29 -21
q-3 0 -25 1t-26 1h-22q-18 -1 -22 -1q-27 0 -27 24q0 3 6 21q7 31 9 33q0 13 5.5 25t28.5 12q4 0 24.5 -1t23.5 -1q5 0 16 1h15q5 2 19 3z" />
    <glyph glyph-name="copyright" unicode="&#xa9;" horiz-adv-x="833" 
d="M820 354q0 -149 -103 -253t-254 -104q-143 0 -247 99q-108 103 -108 257q0 151 106 255q104 101 250 101q152 0 254 -104t102 -251zM464 29q137 0 230.5 94.5t93.5 229.5t-93 229.5t-229 94.5q-137 0 -231.5 -95t-94.5 -229q0 -136 95 -230t229 -94zM581 270l87 -80
q-80 -84 -196 -84q-118 0 -186 74q-64 68 -64 173q0 106 67.5 178.5t182.5 72.5q114 0 196 -85l-87 -84q-51 49 -110 49q-62 0 -96 -41q-29 -35 -29 -89q0 -58 34.5 -93.5t92.5 -35.5q60 0 108 45z" />
    <glyph glyph-name="ordfeminine" unicode="&#xaa;" horiz-adv-x="354" 
d="M260 629h-32q-18 0 -30 -5q-23 -7 -30 -7q-20 0 -20 21q0 7 10 48q4 19 24.5 22.5t73.5 3.5q56 0 85 -7q61 -15 61 -79q0 -3 -4 -25l-1 -8q-3 -19 -7 -46q-9 -35 -13 -62q-2 -8 -6 -25q-1 -1 -4.5 -24t-3.5 -26q-4 -22 -16 -22l-18 1h-22q-8 0 -18 -1q-4 0 -10 -1
q-9 0 -11 6q0 1 -1 8.5t-2 7.5l-5 -5q-25 -23 -67 -23q-36 0 -51 9q-22 14 -35 34t-13 49q0 30 8 48q15 34 49.5 56.5t85.5 22.5q14 0 42 -5q5 -1 11 -2q11 0 11 18q0 6 -6 11q-4 2 -17 4q-26 3 -18 3zM249 524q-33 0 -46 -11t-13 -23q0 -27 35 -27q55 2 55 35q-2 26 -31 26
z" />
    <glyph glyph-name="guillemotleft" unicode="&#xab;" horiz-adv-x="354" 
d="M207 264q0 14 7 38q6 19 11 48q9 50 14 61.5t21 19.5q4 2 12.5 5.5t12.5 5.5l42 24q36 20 45 20q7 0 11.5 -4t4.5 -16q0 -7 -9 -51q-11 -56 -21 -62q-22 -9 -25 -12q-10 -2 -24 -6q-9 -2 -9 -6q0 -1 7.5 -6.5t25.5 -16.5t18 -22q0 -1 -16 -79q-10 -47 -31 -47
q-8 0 -22 12.5t-43 37.5q-32 24 -32 56zM48 273q0 9 7 42q4 14 9 40q9 47 13.5 57.5t21.5 18.5q24 11 58.5 32.5t53.5 21.5q14 0 14 -17q0 -4 -4 -21q-11 -47 -11 -64q-4 -28 -21 -33q-3 -1 -23 -7t-20 -12q0 -4 8 -8q16 -12 23 -15q14 -9 14 -19l-3 -18q-7 -37 -17 -87
q-7 -24 -23 -24q-18 0 -56 44q-7 9 -22 26q-22 24 -22 43z" />
    <glyph glyph-name="registered" unicode="&#xae;" horiz-adv-x="833" 
d="M297 586h163q74 0 109 -11q40 -13 62 -48q19 -29 19 -65q0 -69 -80 -105q23 -15 32 -28q12 -18 19 -58q10 -59 15 -80q8 -35 24 -63h-126q-15 30 -25 98.5t-23.5 81t-78.5 12.5v-192h-110v458zM407 502v-95h48q50 0 65 9q20 12 20 40q0 31 -24 41q-12 5 -76 5h-33z
M820 354q0 -149 -103 -253t-254 -104q-144 0 -247 99q-108 103 -108 257q0 152 106 255q103 101 249 101q152 0 256 -105q101 -103 101 -250zM463 29q138 0 231.5 94.5t93.5 230.5q0 134 -93 228.5t-230 94.5q-136 0 -230.5 -95t-94.5 -229q0 -136 94.5 -230t228.5 -94z" />
    <glyph glyph-name="macron" unicode="&#xaf;" horiz-adv-x="375" 
d="M151 678h46q3 0 23 -1.5t24 -1.5t24.5 2.5t23.5 2.5q27 0 27 -15q0 -2 -5 -22q-4 -6 -5 -11l-3 -15q-2 -18 -7 -23q-9 -9 -36 -9q-3 0 -25 1t-26 1q-9 0 -25.5 -2t-25.5 -2q-2 0 -17.5 1t-18.5 1q-2 0 -18.5 -1t-19.5 -1q-32 0 -32 22q0 4 1 6q2 7 5 22l6 27q10 19 32 19
q2 0 14.5 -1.5t15.5 -1.5q8 0 22 2z" />
    <glyph glyph-name="macron" unicode="&#x2c9;" horiz-adv-x="375" 
d="M151 678h46q3 0 23 -1.5t24 -1.5t24.5 2.5t23.5 2.5q27 0 27 -15q0 -2 -5 -22q-4 -6 -5 -11l-3 -15q-2 -18 -7 -23q-9 -9 -36 -9q-3 0 -25 1t-26 1q-9 0 -25.5 -2t-25.5 -2q-2 0 -17.5 1t-18.5 1q-2 0 -18.5 -1t-19.5 -1q-32 0 -32 22q0 4 1 6q2 7 5 22l6 27q10 19 32 19
q2 0 14.5 -1.5t15.5 -1.5q8 0 22 2z" />
    <glyph glyph-name="twosuperior" unicode="&#xb2;" horiz-adv-x="354" 
d="M148 265h-25h-44q-14 0 -14 8q5 23 11 53q3 21 30 47q5 5 20 22q17 22 39 40q10 9 24 22q1 1 17 13l14 14q2 2 8.5 8t7.5 7q12 8 17 12q14 14 34 32q25 25 25 51q0 18 -6.5 27.5t-30.5 9.5q-37 0 -48 -18l-6 -12q-2 -3 -4 -10t-5 -21.5t-21 -14.5q-2 0 -17.5 1t-18.5 1
h-13q-12 -1 -14 -1q-19 0 -19 13q0 32 24 73q5 8 35 38q42 36 123 36q76 0 106 -38q14 -18 19.5 -37t5.5 -43t-15 -58q-18 -41 -43 -60q-16 -15 -39 -36q-3 -2 -8 -6l-12 -12l-15 -13l-15 -13q-41 -36 -41 -40q0 -2 5 -2q3 0 17 1t16 1q4 0 23 -1t22 -1q1 0 11 1t12 1
q13 -1 12 -1q-2 0 12 1q14 0 14 -12q0 -2 -5 -16.5t-8 -41.5q-3 -23 -14 -25q-1 0 -41 1h-48h-25q-21 -1 -25 -1q-2 0 -16 1h-17h-15q-10 -1 -16 -1z" />
    <glyph glyph-name="threesuperior" unicode="&#xb3;" horiz-adv-x="354" 
d="M243 714q2 0 12.5 1t12.5 1q30 0 51 -10q28 -13 46 -33q7 -11 15 -23q8 -18 8 -46q0 -21 -8 -43q-6 -16 -24 -37q-6 -7 -19 -17q-11 -5 -11 -7t12 -10q7 -5 18 -21t13 -22q8 -25 8 -46q0 -24 -11 -46q-4 -10 -11 -23l-11.5 -13.5t-13.5 -15.5q-24 -16 -30 -22
q-41 -25 -107 -25q-41 0 -69 8q-15 6 -34.5 13.5t-23.5 11t-4 13.5q0 5 5 11q12 15 24 44q9 15 18 15q4 0 28 -11q14 -7 45 -15h11q9 1 11 1q11 0 19 3q23 9 36 34q5 10 5 30q0 6 -4 13q-6 14 -18.5 21.5t-45.5 7.5q-1 0 -10.5 -1.5t-11.5 -1.5q-13 0 -15 11q0 4 4.5 31
t5.5 29q2 8 31 8h24q9 0 26 7t22 13q13 16 13 31q0 21 -17 32q-12 6 -35 7q-17 0 -52 -15q-9 -4 -12 -4q-10 0 -16 18q-2 5 -13 25q-9 16 -9 25q0 13 13 18q19 10 52 18q4 0 14 2q16 5 33 5z" />
    <glyph glyph-name="acute" unicode="&#xb4;" horiz-adv-x="375" 
d="M226 706q3 0 21 1.5t21 1.5q30 0 30 -13q0 -20 -63 -82q-12 -11 -34 -32t-38 -21q-1 0 -12 1h-12h-16q-14 -1 -17 -1q-29 0 -29 19t39 89q13 24 21.5 31.5t28.5 7.5q4 0 29.5 -1t30.5 -1z" />
    <glyph glyph-name="mu" unicode="&#xb5;" 
d="M114 -106h-31q-3 0 -20 -1.5t-21 -1.5q-21 0 -30 6q-14 6 -14 26q0 7 4 23q1 12 12 56q2 8 6 32q2 16 5 29q4 17 12 48q6 22 9 45l6 36q7 35 21 96q5 27 17 80q7 26 17 78q4 33 10 45q8 17 28 17q2 0 16 -2q7 -1 27 -1q12 0 21 1h21q42 0 42 -23q0 -7 -10 -41
q-4 -18 -12 -53q-4 -13 -10 -38q-5 -36 -12 -77q0 -1 -7 -27q-1 -6 -3 -13q-11 -37 -11 -49q0 -20 12 -35.5t26 -15.5q20 0 40 18q27 25 40 49q10 18 24 92q4 14 11 42q4 20 13 62q4 17 11 55q6 54 39 54q3 0 20 -1.5t21 -1.5q6 0 19.5 1t19.5 1q39 0 39 -28v-6
q-1 -6 -9 -37q-1 -3 -6 -35q-6 -25 -17 -74q-5 -24 -15 -71q-19 -84 -23 -106q-2 -18 -9 -53q-3 -12 -7 -41q-4 -53 -38 -53q-2 0 -14.5 1t-15.5 1q-10 0 -19 -1q-2 0 -21.5 -2.5t-23.5 -2.5q-22 0 -22 19q0 1 1 7.5t1 7.5q0 11 -8 11q-5 0 -14 -9q-17 -17 -28 -24
q-20 -13 -36 -13q-5 0 -13 2q-16 8 -18 11.5t-5.5 6.5t-6.5 3q-7 0 -9 -13q-5 -12 -11 -39q0 -9 -1 -27q-1 -10 -6.5 -24t-8.5 -17q-6 -5 -25 -5z" />
    <glyph glyph-name="mu" unicode="&#x3bc;" 
d="M114 -106h-31q-3 0 -20 -1.5t-21 -1.5q-21 0 -30 6q-14 6 -14 26q0 7 4 23q1 12 12 56q2 8 6 32q2 16 5 29q4 17 12 48q6 22 9 45l6 36q7 35 21 96q5 27 17 80q7 26 17 78q4 33 10 45q8 17 28 17q2 0 16 -2q7 -1 27 -1q12 0 21 1h21q42 0 42 -23q0 -7 -10 -41
q-4 -18 -12 -53q-4 -13 -10 -38q-5 -36 -12 -77q0 -1 -7 -27q-1 -6 -3 -13q-11 -37 -11 -49q0 -20 12 -35.5t26 -15.5q20 0 40 18q27 25 40 49q10 18 24 92q4 14 11 42q4 20 13 62q4 17 11 55q6 54 39 54q3 0 20 -1.5t21 -1.5q6 0 19.5 1t19.5 1q39 0 39 -28v-6
q-1 -6 -9 -37q-1 -3 -6 -35q-6 -25 -17 -74q-5 -24 -15 -71q-19 -84 -23 -106q-2 -18 -9 -53q-3 -12 -7 -41q-4 -53 -38 -53q-2 0 -14.5 1t-15.5 1q-10 0 -19 -1q-2 0 -21.5 -2.5t-23.5 -2.5q-22 0 -22 19q0 1 1 7.5t1 7.5q0 11 -8 11q-5 0 -14 -9q-17 -17 -28 -24
q-20 -13 -36 -13q-5 0 -13 2q-16 8 -18 11.5t-5.5 6.5t-6.5 3q-7 0 -9 -13q-5 -12 -11 -39q0 -9 -1 -27q-1 -10 -6.5 -24t-8.5 -17q-6 -5 -25 -5z" />
    <glyph glyph-name="periodcentered" unicode="&#xb7;" horiz-adv-x="208" 
d="M152 357h55q20 0 20 -13q0 -5 -3 -22q-2 -6 -6 -20q-2 -7 -5 -22q-9 -36 -9 -47q-5 -38 -29 -38l-18 3t-37 3q-4 0 -27.5 -2t-28.5 -2q-27 0 -27 17q0 7 3 16q2 17 7 52q2 16 10 39q9 39 36 39q10 0 23 -2q7 -1 36 -1z" />
    <glyph glyph-name="periodcentered" unicode="&#x2219;" horiz-adv-x="208" 
d="M152 357h55q20 0 20 -13q0 -5 -3 -22q-2 -6 -6 -20q-2 -7 -5 -22q-9 -36 -9 -47q-5 -38 -29 -38l-18 3t-37 3q-4 0 -27.5 -2t-28.5 -2q-27 0 -27 17q0 7 3 16q2 17 7 52q2 16 10 39q9 39 36 39q10 0 23 -2q7 -1 36 -1z" />
    <glyph glyph-name="cedilla" unicode="&#xb8;" horiz-adv-x="375" 
d="M202 -5h14q1 0 10 1t11 1q16 0 16 -8q0 -6 -9 -19q-4 -4 -4 -10q0 7 8 -33q0 -1 1 -3v-3q0 -37 -34 -57q-15 -9 -40 -9q-35 0 -44 7t-9 19q0 2 5 27q4 37 25 37q1 0 10.5 -1.5t11.5 -1.5q12 0 19.5 7.5t7.5 14.5q0 -3 -7 18v3q0 8 8 10z" />
    <glyph glyph-name="onesuperior" unicode="&#xb9;" horiz-adv-x="354" 
d="M300 707h30q38 0 38 -25q0 -6 -15 -64q-2 -8 -5 -26q-2 -13 -5 -25.5t-10 -38.5q-4 -22 -10 -52l-12 -54q-4 -22 -13 -65q-6 -24 -9 -43q-5 -35 -8.5 -42t-19.5 -7q-2 0 -15 1h-16h-17q-13 -1 -18 -1q-20 0 -20 13q0 8 7 34q12 43 24 99q15 73 34 159q4 14 4 16q0 3 -3 3
q-8 0 -16 -8q-2 -1 -5 -4l-5 -5q-12 -12 -22 -12t-18.5 14.5t-17.5 21.5q-14 16 -14 23q0 11 12 17l12 6q15 12 28.5 19.5t22.5 13.5q19 11 40 24q15 10 20 10q2 0 11.5 -1t10.5 -1z" />
    <glyph glyph-name="ordmasculine" unicode="&#xba;" horiz-adv-x="375" 
d="M99 509v10q0 44 14 76q2 4 18.5 34t37.5 44q12 6 23 17q46 23 100 23q19 0 24 -1q36 -8 46 -13q24 -9 50 -39q10 -12 21 -45q6 -21 6 -61q0 -2 -1 -4.5t-1 -4.5v-4q0 -6 -7 -29q-9 -28 -17 -42q-16 -25 -24 -35q-32 -37 -76 -49q-2 -1 -22 -4q-29 -5 -41 -5q-29 0 -59 10
t-42 22q-19 16 -26 29q-3 6 -9 19q-5 9 -11 24q0 7 -1 12t-3 16zM277 622q-22 0 -44 -18q-17 -14 -27 -43q-5 -15 -5 -38q0 -16 13.5 -35.5t42.5 -19.5q37 0 57 30t20 62q0 62 -57 62z" />
    <glyph glyph-name="guillemotright" unicode="&#xbb;" horiz-adv-x="354" 
d="M67 358q0 5 4 23q5 26 12 63q8 42 29 42q10 0 73 -55q26 -23 26 -47q0 -14 -11 -56q-5 -19 -9 -45q-6 -39 -11.5 -51t-24.5 -20q-24 -10 -48 -24q-52 -30 -61 -30q-16 0 -16 16q0 9 9 55t13 53q9 15 40 22q21 8 21 12q0 5 -6 8.5t-17 8.5q-23 12 -23 25zM227 354
q0 1 1.5 9.5t1.5 9.5q6 36 16 86q6 26 23 26q8 0 24.5 -14t27.5 -26q37 -42 43.5 -51.5t6.5 -20.5q0 -5 -8 -41q-3 -13 -8 -39q-9 -51 -14 -61.5t-28 -20.5q-15 -7 -48 -27q-41 -25 -58 -25q-14 0 -14 17q0 2 11 54q2 11 5.5 33t12 28.5t29.5 11.5q18 5 18 10q0 6 -7 9
q-3 2 -10 6q-3 3 -10.5 7.5t-11 8.5t-3.5 10z" />
    <glyph glyph-name="questiondown" unicode="&#xbf;" horiz-adv-x="375" 
d="M175 571q0 7 4 18q6 31 18 90q7 30 28 30h6q22 -2 46 -2h12q5 0 20.5 1t21.5 1q29 0 29 -23q0 -6 -4 -19t-11 -40q-1 -16 -5 -48q-1 -3 -5 -14q-11 -17 -32 -17q-1 0 -14 1q-70 5 -67 5q-1 0 -13 -1t-14 -1q-20 0 -20 19zM213 522q2 0 18 -1t19 -1q2 0 10 1h9
q31 0 31 -34q0 -46 -17 -103q-11 -38 -53 -124q-16 -33 -16 -54q0 -23 13 -30q8 -4 30 -4q2 0 16.5 1t17.5 1q26 0 26 -25q0 -3 -3 -15q-11 -42 -11 -65q0 -2 1 -13.5t1 -14.5q0 -36 -45 -42q-80 -10 -72 -10h-36q-18 0 -48 10l-18 6q-65 28 -65 119q0 46 33 109q6 11 20 31
q8 14 24 41q6 8 17 22q2 3 19 25q9 12 29 49q22 42 22 73v11q-1 9 -1 11q0 26 29 26z" />
    <glyph glyph-name="Agrave" unicode="&#xc0;" horiz-adv-x="646" 
d="M109 335q11 24 34 71q17 37 41 88q14 28 31 71q5 13 28 59q1 2 20 46q10 24 20.5 32.5t33.5 8.5q24 -4 89 -5q6 1 17 1q6 1 16 1h29q1 1 2 1h1h4q34 0 49.5 -10t20.5 -58l6 -62q1 -8 3 -50t8 -73q5 -21 13 -64q1 -13 3 -38q9 -99 17 -142q4 -15 9 -47q0 -37 10 -110
q5 -19 5 -26q0 -30 -40 -30q-7 0 -23 2t-24 2q-2 0 -17 -1t-18 -1q-28 0 -37.5 3t-13.5 15q-1 5 -1 17q-2 6 -4 19l-3 26q-5 41 -32 48q-14 6 -54 6h-17q-14 -1 -17 -1h-27q-23 -1 -27 -1q-2 0 -18 1t-19 1q-27 0 -37 -22q-7 -12 -25 -64q-10 -28 -17 -38q-12 -13 -36 -13
q-3 0 -24 2t-25 2h-12q-8 -1 -12 -1h-27q-32 0 -32 27q0 22 33 89q9 20 26 61q21 46 50 110zM306 387q-7 -14 -21 -44q-9 -20 -9 -30q0 -9 4 -13q12 -12 52 -12q3 0 20.5 1t20.5 1h14q15 0 22 10q8 14 8 33q0 4 -3 30t-3 31q0 -5 -7 65q-1 10 -1 27v20q-2 8 -4 24
q0 11 -1 32q0 15 -10 15q-6 0 -12 -13q-4 -8 -7 -20q-14 -33 -41 -99q-7 -20 -22 -58zM295 879q0 22 38 22q3 0 21 -1.5t21 -1.5q14 -1 33 -1q3 0 20 1t20 1q23 0 32 -31q1 -4 13.5 -40t12.5 -44q0 -19 -28 -23h-64q-25 0 -45 25l-3 3q-4 5 -20 23l-30 34q-21 21 -21 33z
" />
    <glyph glyph-name="Aacute" unicode="&#xc1;" horiz-adv-x="646" 
d="M109 335q11 24 34 71q17 37 41 88q14 28 31 71q5 13 28 59q1 2 20 46q10 24 20.5 32.5t33.5 8.5q24 -4 89 -5q6 1 17 1q6 1 16 1h29q1 1 2 1h1h4q34 0 49.5 -10t20.5 -58l6 -62q1 -8 3 -50t8 -73q5 -21 13 -64q1 -13 3 -38q9 -99 17 -142q4 -15 9 -47q0 -37 10 -110
q5 -19 5 -26q0 -30 -40 -30q-7 0 -23 2t-24 2q-2 0 -17 -1t-18 -1q-28 0 -37.5 3t-13.5 15q-1 5 -1 17q-2 6 -4 19l-3 26q-5 41 -32 48q-14 6 -54 6h-17q-14 -1 -17 -1h-27q-23 -1 -27 -1q-2 0 -18 1t-19 1q-27 0 -37 -22q-7 -12 -25 -64q-10 -28 -17 -38q-12 -13 -36 -13
q-3 0 -24 2t-25 2h-12q-8 -1 -12 -1h-27q-32 0 -32 27q0 22 33 89q9 20 26 61q21 46 50 110zM306 387q-7 -14 -21 -44q-9 -20 -9 -30q0 -9 4 -13q12 -12 52 -12q3 0 20.5 1t20.5 1h14q15 0 22 10q8 14 8 33q0 4 -3 30t-3 31q0 -5 -7 65q-1 10 -1 27v20q-2 8 -4 24
q0 11 -1 32q0 15 -10 15q-6 0 -12 -13q-4 -8 -7 -20q-14 -33 -41 -99q-7 -20 -22 -58zM360 775q0 3 2 10q3 11 21 42q6 13 20 38q11 19 17.5 25t24.5 7h63q4 0 29.5 1t30.5 1q21 0 21 -17q0 -16 -18 -37q-25 -24 -59 -57q-26 -27 -47 -27h-22q-3 0 -24 -1t-25 -1
q-34 0 -34 16z" />
    <glyph glyph-name="Acircumflex" unicode="&#xc2;" horiz-adv-x="646" 
d="M109 335q11 24 34 71q17 37 41 88q14 28 31 71q5 13 28 59q1 2 20 46q10 24 20.5 32.5t33.5 8.5q24 -4 89 -5q6 1 17 1q6 1 16 1h29q1 1 2 1h1h4q34 0 49.5 -10t20.5 -58l6 -62q1 -8 3 -50t8 -73q5 -21 13 -64q1 -13 3 -38q9 -99 17 -142q4 -15 9 -47q0 -37 10 -110
q5 -19 5 -26q0 -30 -40 -30q-7 0 -23 2t-24 2q-2 0 -17 -1t-18 -1q-28 0 -37.5 3t-13.5 15q-1 5 -1 17q-2 6 -4 19l-3 26q-5 41 -32 48q-14 6 -54 6h-17q-14 -1 -17 -1h-27q-23 -1 -27 -1q-2 0 -18 1t-19 1q-27 0 -37 -22q-7 -12 -25 -64q-10 -28 -17 -38q-12 -13 -36 -13
q-3 0 -24 2t-25 2h-12q-8 -1 -12 -1h-27q-32 0 -32 27q0 22 33 89q9 20 26 61q21 46 50 110zM306 387q-7 -14 -21 -44q-9 -20 -9 -30q0 -9 4 -13q12 -12 52 -12q3 0 20.5 1t20.5 1h14q15 0 22 10q8 14 8 33q0 4 -3 30t-3 31q0 -5 -7 65q-1 10 -1 27v20q-2 8 -4 24
q0 11 -1 32q0 15 -10 15q-6 0 -12 -13q-4 -8 -7 -20q-14 -33 -41 -99q-7 -20 -22 -58zM267 776q0 14 35 50q13 13 49 52q16 19 40 19h34q29 -1 35 -1q7 0 19 1h19h10q14 0 20 -5q2 -2 20 -58q4 -9 11 -28l3 -18q0 -23 -33 -23q-4 0 -13 1h-13q-2 0 -19 -2t-20 -2
q-20 0 -24 17t-10 17q-3 0 -33 -20q-9 -10 -18 -12q-13 -3 -89 -3q-23 0 -23 15z" />
    <glyph glyph-name="Atilde" unicode="&#xc3;" horiz-adv-x="646" 
d="M109 335q11 24 34 71q17 37 41 88q14 28 31 71q5 13 28 59q1 2 20 46q10 24 20.5 32.5t33.5 8.5q24 -4 89 -5q6 1 17 1q6 1 16 1h29q1 1 2 1h1h4q34 0 49.5 -10t20.5 -58l6 -62q1 -8 3 -50t8 -73q5 -21 13 -64q1 -13 3 -38q9 -99 17 -142q4 -15 9 -47q0 -37 10 -110
q5 -19 5 -26q0 -30 -40 -30q-7 0 -23 2t-24 2q-2 0 -17 -1t-18 -1q-28 0 -37.5 3t-13.5 15q-1 5 -1 17q-2 6 -4 19l-3 26q-5 41 -32 48q-14 6 -54 6h-17q-14 -1 -17 -1h-27q-23 -1 -27 -1q-2 0 -18 1t-19 1q-27 0 -37 -22q-7 -12 -25 -64q-10 -28 -17 -38q-12 -13 -36 -13
q-3 0 -24 2t-25 2h-12q-8 -1 -12 -1h-27q-32 0 -32 27q0 22 33 89q9 20 26 61q21 46 50 110zM306 387q-7 -14 -21 -44q-9 -20 -9 -30q0 -9 4 -13q12 -12 52 -12q3 0 20.5 1t20.5 1h14q15 0 22 10q8 14 8 33q0 4 -3 30t-3 31q0 -5 -7 65q-1 10 -1 27v20q-2 8 -4 24
q0 11 -1 32q0 15 -10 15q-6 0 -12 -13q-4 -8 -7 -20q-14 -33 -41 -99q-7 -20 -22 -58zM212 781q0 9 3 18q7 21 26 63q23 38 76 38q43 0 137 -23q20 -5 31 -5q20 0 27.5 13t26.5 13h24q21 -1 25 -1t22.5 1t19.5 1q12 0 12 -13q0 -18 -14 -50q-33 -75 -111 -75q-44 0 -82 12
q-15 6 -46 15q-15 3 -21 3q-8 0 -16 -3l-13 -13q-6 -5 -15 -5q-1 0 -11.5 1t-12.5 1l-23 -2q-11 -1 -51 -1q-14 0 -14 12z" />
    <glyph glyph-name="Adieresis" unicode="&#xc4;" horiz-adv-x="646" 
d="M109 335q11 24 34 71q17 37 41 88q14 28 31 71q5 13 28 59q1 2 20 46q10 24 20.5 32.5t33.5 8.5q24 -4 89 -5q6 1 17 1q6 1 16 1h29q1 1 2 1h1h4q34 0 49.5 -10t20.5 -58l6 -62q1 -8 3 -50t8 -73q5 -21 13 -64q1 -13 3 -38q9 -99 17 -142q4 -15 9 -47q0 -37 10 -110
q5 -19 5 -26q0 -30 -40 -30q-7 0 -23 2t-24 2q-2 0 -17 -1t-18 -1q-28 0 -37.5 3t-13.5 15q-1 5 -1 17q-2 6 -4 19l-3 26q-5 41 -32 48q-14 6 -54 6h-17q-14 -1 -17 -1h-27q-23 -1 -27 -1q-2 0 -18 1t-19 1q-27 0 -37 -22q-7 -12 -25 -64q-10 -28 -17 -38q-12 -13 -36 -13
q-3 0 -24 2t-25 2h-12q-8 -1 -12 -1h-27q-32 0 -32 27q0 22 33 89q9 20 26 61q21 46 50 110zM306 387q-7 -14 -21 -44q-9 -20 -9 -30q0 -9 4 -13q12 -12 52 -12q3 0 20.5 1t20.5 1h14q15 0 22 10q8 14 8 33q0 4 -3 30t-3 31q0 -5 -7 65q-1 10 -1 27v20q-2 8 -4 24
q0 11 -1 32q0 15 -10 15q-6 0 -12 -13q-4 -8 -7 -20q-14 -33 -41 -99q-7 -20 -22 -58zM230 773q0 7 7 21q7 22 9 48q2 31 26 31q55 -3 61 -3q4 0 27 1t28 1q29 0 29 -21v-5q-1 -3 -1 -5q-4 -10 -11 -30q-1 -9 -5 -28q-2 -27 -32 -27q-4 0 -27 1t-27 1t-29 -1t-30 -1
q-25 0 -25 17zM446 777q0 4 4.5 16.5t8.5 41.5q5 39 32 39q-8 0 24 -4q6 -2 19 -2q23 0 48 4q12 2 17 2q32 0 32 -25q0 -4 -6 -27q-4 -11 -8 -38q0 -7 -1 -10q-6 -17 -32 -17q-4 0 -28 1t-29 1q-4 0 -27 -1.5t-28 -1.5q-26 0 -26 21z" />
    <glyph glyph-name="Aring" unicode="&#xc5;" horiz-adv-x="646" 
d="M109 335q11 24 34 71q17 37 41 88q14 28 31 71q5 13 28 59q1 2 20 46q10 24 20.5 32.5t33.5 8.5q24 -4 89 -5q6 1 17 1q6 1 16 1h29q1 1 2 1h1h4q34 0 49.5 -10t20.5 -58l6 -62q1 -8 3 -50t8 -73q5 -21 13 -64q1 -13 3 -38q9 -99 17 -142q4 -15 9 -47q0 -37 10 -110
q5 -19 5 -26q0 -30 -40 -30q-7 0 -23 2t-24 2q-2 0 -17 -1t-18 -1q-28 0 -37.5 3t-13.5 15q-1 5 -1 17q-2 6 -4 19l-3 26q-5 41 -32 48q-14 6 -54 6h-17q-14 -1 -17 -1h-27q-23 -1 -27 -1q-2 0 -18 1t-19 1q-27 0 -37 -22q-7 -12 -25 -64q-10 -28 -17 -38q-12 -13 -36 -13
q-3 0 -24 2t-25 2h-12q-8 -1 -12 -1h-27q-32 0 -32 27q0 22 33 89q9 20 26 61q21 46 50 110zM306 387q-7 -14 -21 -44q-9 -20 -9 -30q0 -9 4 -13q12 -12 52 -12q3 0 20.5 1t20.5 1h14q15 0 22 10q8 14 8 33q0 4 -3 30t-3 31q0 -5 -7 65q-1 10 -1 27v20q-2 8 -4 24
q0 11 -1 32q0 15 -10 15q-6 0 -12 -13q-4 -8 -7 -20q-14 -33 -41 -99q-7 -20 -22 -58zM302 803q0 52 47 78q34 19 77 19q66 0 98 -23q29 -21 29 -56q0 -46 -38 -72q-32 -22 -95 -22q-54 0 -82 19q-36 25 -36 57zM427 844q-17 0 -33 -8q-21 -10 -21 -24q0 -16 23 -26
q16 -7 30 -7q19 0 36.5 10.5t17.5 24.5q0 30 -53 30z" />
    <glyph glyph-name="AE" unicode="&#xc6;" horiz-adv-x="896" 
d="M880 130v-6q-4 -16 -13 -48q-2 -8 -3 -22.5t-3 -22.5q-5 -31 -31 -31q-4 0 -19 2t-55 2q-6 0 -40 -2t-41 -2t-48.5 1.5t-49.5 1.5h-8q-7 -1 -9 -1t-17 1h-17l-47 -1q-26 -2 -35 -2q-59 0 -59 41q0 8 5 29q6 25 6 31q0 18 -12 24l-18 3.5t-22 3.5h-8q-5 -1 -8 -1
q-7 0 -10 1q-15 1 -45.5 2t-61.5 2q-10 0 -14 -9q-12 -26 -27.5 -51t-30.5 -57q-10 -20 -31 -20q-4 0 -25.5 2t-25.5 2q-2 0 -14 -1t-15 -1q-1 0 -12 1h-14q-24 0 -24 24q0 9 2 17q16 32 39 77l27 48q6 11 17 32l24 41q5 8 14 24q6 7 15 23q2 6 6 16q3 5 11 15q3 4 7.5 11.5
t6.5 11.5q11 23 36 69q22 38 27 46q10 14 28 43q5 11 16 34t35 61q17 30 41 72t59 42q7 0 48 -7q12 -2 41 -2q33 0 48 1q75 5 89 5q13 0 37 -1t36 -1q2 0 18 1h18q13 0 40 -1.5t41 -1.5q45 0 85 3q13 1 24 1q31 0 31 -25q0 -10 -4 -26q-6 -19 -7 -25q0 -14 -4 -43
q-7 -33 -28 -33q-2 0 -19 1t-20 1q-2 0 -19 -1t-21 -1t-32 1h-34q-4 0 -27.5 1t-27.5 1q-51 0 -61 -47q-5 -23 -5 -30q0 -24 31 -36q11 -4 71 -4q3 0 21 1h21h34q3 0 24.5 1.5t25.5 1.5q38 0 38 -25q0 -4 -1 -6q-1 -11 -7.5 -35t-6.5 -35.5t-5 -30.5q-8 -17 -38 -17
q-6 0 -41 2t-42 2q-5 0 -38 -2.5t-39 -2.5q-3 0 -22 1t-23 1q-26 0 -39 -22q-7 -12 -13 -47q-5 -29 -5 -39q0 -33 40 -33q2 0 18.5 1t19.5 1q6 0 44 -1.5t45 -1.5q16 0 54 2q2 0 47 4q30 3 30 -30zM468 558q-13 0 -23 -6q-5 -3 -26 -32l-15 -27t-18 -28q-7 -15 -21 -44
l-11 -20q-9 -17 -17 -33q-23 -48 -30 -57t-7 -13q0 -7 5 -10q12 -6 98 -6h9q7 -1 9 -1q10 0 16.5 11.5t29.5 144.5q19 111 19 105q0 16 -18 16z" />
    <glyph glyph-name="Ccedilla" unicode="&#xc7;" horiz-adv-x="562" 
d="M346 -23v-2q2 -7 6 -22q2 -5 2 -17q0 -31 -21.5 -47t-51.5 -16l-37 2q-17 6 -17 23q0 8 5 28q2 37 24 37q2 0 12 -1.5t11 -1.5q27 0 27 23q0 16 -36 25q-21 5 -43 15q-62 27 -97 78q-30 42 -37 68q-10 19 -18 62q-7 39 -7 107q0 34 19 92q29 89 101 159q51 50 119 83
q55 27 106 36q39 6 112 6q49 0 86 -8q23 -2 23 -20q0 -6 -7 -20.5t-11 -39.5q-3 -15 -8 -47q-4 -40 -27 -40q-6 0 -21 7q-26 12 -60 12q-14 0 -32 -3q-44 -7 -60.5 -13.5t-49.5 -26.5q-45 -28 -77 -76q-38 -58 -38 -129q0 -44 13 -75q22 -52 68 -70q30 -12 75 -12
q36 0 83 14q30 9 44 9q19 0 19 -18q0 -8 -7 -29q-7 -16 -19 -51q-4 -12 -10 -46q-5 -26 -18 -32q-19 -9 -130 -9q-15 0 -15 -14z" />
    <glyph glyph-name="Egrave" unicode="&#xc8;" 
d="M504 129v-6q-5 -15 -13 -47q-1 -16 -7 -49q-4 -27 -29 -27q-4 0 -11 1t-10 1q-11 1 -24 1q-1 0 -11 1t-12 1q-6 0 -43.5 -2t-44.5 -2q-6 0 -43.5 1.5t-44.5 1.5t-24 1h-22.5h-22.5q-18 -1 -21.5 -1t-21.5 -1.5t-22 -1.5q-60 0 -60 39q0 16 14 68q5 19 9 41q8 48 20 95
q21 85 32 141q4 18 20 125l8 51q8 40 20 110q4 28 21 33q58 4 76 4h27q18 -1 27 -1h48q6 0 45 -1.5t46 -1.5q9 0 26 1h25q3 0 26 1.5t27 1.5q37 0 37 -24q0 -5 -9 -45q-1 -4 -4 -36q-2 -23 -9.5 -35t-20.5 -12q-3 0 -21 1h-20h-17q-13 -1 -16 -1l-35 1h-39q-3 0 -24.5 1
t-25.5 1q-33 0 -46 -20q-15 -24 -15 -57q0 -12 6 -21q15 -22 79 -22q3 0 22 1h22h36q4 0 27 1.5t28 1.5q21 0 30 -7t9 -19v-8q-1 -10 -9 -33q-6 -19 -6 -34q0 -8 -3 -24q-24 -24 -32 -24q-10 0 -91 4q-5 0 -36 -2t-37 -2q-3 0 -21.5 1t-22.5 1q-24 0 -37 -20q-8 -13 -14 -52
q-5 -28 -5 -38q0 -30 39 -30q4 0 23 1t22 1q5 0 33 -2t33 -2q40 0 64 2q4 0 24.5 2t23.5 2q28 0 28 -31zM237 879q0 22 38 22q3 0 21 -1.5t21 -1.5q14 -1 33 -1q3 0 20 1t20 1q23 0 32 -31q1 -4 13.5 -40t12.5 -44q0 -19 -28 -23h-64q-25 0 -45 25l-3 3q-4 5 -20 23l-30 34
q-21 21 -21 33z" />
    <glyph glyph-name="Eacute" unicode="&#xc9;" 
d="M504 129v-6q-5 -15 -13 -47q-1 -16 -7 -49q-4 -27 -29 -27q-4 0 -11 1t-10 1q-11 1 -24 1q-1 0 -11 1t-12 1q-6 0 -43.5 -2t-44.5 -2q-6 0 -43.5 1.5t-44.5 1.5t-24 1h-22.5h-22.5q-18 -1 -21.5 -1t-21.5 -1.5t-22 -1.5q-60 0 -60 39q0 16 14 68q5 19 9 41q8 48 20 95
q21 85 32 141q4 18 20 125l8 51q8 40 20 110q4 28 21 33q58 4 76 4h27q18 -1 27 -1h48q6 0 45 -1.5t46 -1.5q9 0 26 1h25q3 0 26 1.5t27 1.5q37 0 37 -24q0 -5 -9 -45q-1 -4 -4 -36q-2 -23 -9.5 -35t-20.5 -12q-3 0 -21 1h-20h-17q-13 -1 -16 -1l-35 1h-39q-3 0 -24.5 1
t-25.5 1q-33 0 -46 -20q-15 -24 -15 -57q0 -12 6 -21q15 -22 79 -22q3 0 22 1h22h36q4 0 27 1.5t28 1.5q21 0 30 -7t9 -19v-8q-1 -10 -9 -33q-6 -19 -6 -34q0 -8 -3 -24q-24 -24 -32 -24q-10 0 -91 4q-5 0 -36 -2t-37 -2q-3 0 -21.5 1t-22.5 1q-24 0 -37 -20q-8 -13 -14 -52
q-5 -28 -5 -38q0 -30 39 -30q4 0 23 1t22 1q5 0 33 -2t33 -2q40 0 64 2q4 0 24.5 2t23.5 2q28 0 28 -31zM302 775q0 3 2 10q3 11 21 42q6 13 20 38q11 19 17.5 25t24.5 7h63q4 0 29.5 1t30.5 1q21 0 21 -17q0 -16 -18 -37q-25 -24 -59 -57q-26 -27 -47 -27h-22q-3 0 -24 -1
t-25 -1q-34 0 -34 16z" />
    <glyph glyph-name="Ecircumflex" unicode="&#xca;" 
d="M504 129v-6q-5 -15 -13 -47q-1 -16 -7 -49q-4 -27 -29 -27q-4 0 -11 1t-10 1q-11 1 -24 1q-1 0 -11 1t-12 1q-6 0 -43.5 -2t-44.5 -2q-6 0 -43.5 1.5t-44.5 1.5t-24 1h-22.5h-22.5q-18 -1 -21.5 -1t-21.5 -1.5t-22 -1.5q-60 0 -60 39q0 16 14 68q5 19 9 41q8 48 20 95
q21 85 32 141q4 18 20 125l8 51q8 40 20 110q4 28 21 33q58 4 76 4h27q18 -1 27 -1h48q6 0 45 -1.5t46 -1.5q9 0 26 1h25q3 0 26 1.5t27 1.5q37 0 37 -24q0 -5 -9 -45q-1 -4 -4 -36q-2 -23 -9.5 -35t-20.5 -12q-3 0 -21 1h-20h-17q-13 -1 -16 -1l-35 1h-39q-3 0 -24.5 1
t-25.5 1q-33 0 -46 -20q-15 -24 -15 -57q0 -12 6 -21q15 -22 79 -22q3 0 22 1h22h36q4 0 27 1.5t28 1.5q21 0 30 -7t9 -19v-8q-1 -10 -9 -33q-6 -19 -6 -34q0 -8 -3 -24q-24 -24 -32 -24q-10 0 -91 4q-5 0 -36 -2t-37 -2q-3 0 -21.5 1t-22.5 1q-24 0 -37 -20q-8 -13 -14 -52
q-5 -28 -5 -38q0 -30 39 -30q4 0 23 1t22 1q5 0 33 -2t33 -2q40 0 64 2q4 0 24.5 2t23.5 2q28 0 28 -31zM220 776q0 14 35 50q13 13 49 52q16 19 40 19h34q29 -1 35 -1q7 0 19 1h19h10q14 0 20 -5q2 -2 20 -58q4 -9 11 -28l3 -18q0 -23 -33 -23q-4 0 -13 1h-13q-2 0 -19 -2
t-20 -2q-20 0 -24 17t-10 17q-3 0 -33 -20q-9 -10 -18 -12q-13 -3 -89 -3q-23 0 -23 15z" />
    <glyph glyph-name="Edieresis" unicode="&#xcb;" 
d="M504 129v-6q-5 -15 -13 -47q-1 -16 -7 -49q-4 -27 -29 -27q-4 0 -11 1t-10 1q-11 1 -24 1q-1 0 -11 1t-12 1q-6 0 -43.5 -2t-44.5 -2q-6 0 -43.5 1.5t-44.5 1.5t-24 1h-22.5h-22.5q-18 -1 -21.5 -1t-21.5 -1.5t-22 -1.5q-60 0 -60 39q0 16 14 68q5 19 9 41q8 48 20 95
q21 85 32 141q4 18 20 125l8 51q8 40 20 110q4 28 21 33q58 4 76 4h27q18 -1 27 -1h48q6 0 45 -1.5t46 -1.5q9 0 26 1h25q3 0 26 1.5t27 1.5q37 0 37 -24q0 -5 -9 -45q-1 -4 -4 -36q-2 -23 -9.5 -35t-20.5 -12q-3 0 -21 1h-20h-17q-13 -1 -16 -1l-35 1h-39q-3 0 -24.5 1
t-25.5 1q-33 0 -46 -20q-15 -24 -15 -57q0 -12 6 -21q15 -22 79 -22q3 0 22 1h22h36q4 0 27 1.5t28 1.5q21 0 30 -7t9 -19v-8q-1 -10 -9 -33q-6 -19 -6 -34q0 -8 -3 -24q-24 -24 -32 -24q-10 0 -91 4q-5 0 -36 -2t-37 -2q-3 0 -21.5 1t-22.5 1q-24 0 -37 -20q-8 -13 -14 -52
q-5 -28 -5 -38q0 -30 39 -30q4 0 23 1t22 1q5 0 33 -2t33 -2q40 0 64 2q4 0 24.5 2t23.5 2q28 0 28 -31zM180 774q0 7 7 21q7 22 9 48q2 31 26 31q55 -3 61 -3q4 0 27 1t28 1q29 0 29 -21v-5q-1 -3 -1 -5q-4 -10 -11 -30q-1 -9 -5 -28q-2 -27 -32 -27q-4 0 -27 1t-27 1
t-29 -1t-30 -1q-25 0 -25 17zM396 778q0 4 4.5 16.5t8.5 41.5q5 39 32 39q-8 0 24 -4q6 -2 19 -2q23 0 48 4q12 2 17 2q32 0 32 -25q0 -4 -6 -27q-4 -11 -8 -38q0 -7 -1 -10q-6 -17 -32 -17q-4 0 -28 1t-29 1q-4 0 -27 -1.5t-28 -1.5q-26 0 -26 21z" />
    <glyph glyph-name="Igrave" unicode="&#xcc;" horiz-adv-x="250" 
d="M19 26q0 8 6 31q14 54 19.5 87.5t17.5 101.5q11 37 27 112q6 34 16 103q4 11 9.5 34.5t11.5 48.5q3 24 7 57q4 16 10 49q1 9 4 27q8 36 36 36q6 -1 19 -3q23 -3 57 -3q3 0 18 1t17 1q27 0 27 -22q0 -14 -6 -34q-5 -29 -15 -86q-13 -43 -20 -81q-4 -26 -12 -77
q-8 -35 -22 -105q-5 -30 -17 -91q-21 -96 -26 -122q-2 -22 -9 -66q-6 -25 -25 -25q-2 0 -14 1h-15t-12 1h-12q-3 0 -25.5 -1.5t-26.5 -1.5q-45 0 -45 27zM123 879q0 22 38 22q3 0 21 -1.5t21 -1.5q14 -1 33 -1q3 0 20 1t20 1q23 0 32 -31q1 -4 13.5 -40t12.5 -44
q0 -19 -28 -23h-64q-25 0 -45 25l-3 3q-4 5 -20 23l-30 34q-21 21 -21 33z" />
    <glyph glyph-name="Iacute" unicode="&#xcd;" horiz-adv-x="250" 
d="M19 26q0 8 6 31q14 54 19.5 87.5t17.5 101.5q11 37 27 112q6 34 16 103q4 11 9.5 34.5t11.5 48.5q3 24 7 57q4 16 10 49q1 9 4 27q8 36 36 36q6 -1 19 -3q23 -3 57 -3q3 0 18 1t17 1q27 0 27 -22q0 -14 -6 -34q-5 -29 -15 -86q-13 -43 -20 -81q-4 -26 -12 -77
q-8 -35 -22 -105q-5 -30 -17 -91q-21 -96 -26 -122q-2 -22 -9 -66q-6 -25 -25 -25q-2 0 -14 1h-15t-12 1h-12q-3 0 -25.5 -1.5t-26.5 -1.5q-45 0 -45 27zM188 775q0 3 2 10q3 11 21 42q6 13 20 38q11 19 17.5 25t24.5 7h63q4 0 29.5 1t30.5 1q21 0 21 -17q0 -16 -18 -37
q-25 -24 -59 -57q-26 -27 -47 -27h-22q-3 0 -24 -1t-25 -1q-34 0 -34 16z" />
    <glyph glyph-name="Icircumflex" unicode="&#xce;" horiz-adv-x="250" 
d="M19 26q0 8 6 31q14 54 19.5 87.5t17.5 101.5q11 37 27 112q6 34 16 103q4 11 9.5 34.5t11.5 48.5q3 24 7 57q4 16 10 49q1 9 4 27q8 36 36 36q6 -1 19 -3q23 -3 57 -3q3 0 18 1t17 1q27 0 27 -22q0 -14 -6 -34q-5 -29 -15 -86q-13 -43 -20 -81q-4 -26 -12 -77
q-8 -35 -22 -105q-5 -30 -17 -91q-21 -96 -26 -122q-2 -22 -9 -66q-6 -25 -25 -25q-2 0 -14 1h-15t-12 1h-12q-3 0 -25.5 -1.5t-26.5 -1.5q-45 0 -45 27zM95 776q0 14 35 50q13 13 49 52q16 19 40 19h34q29 -1 35 -1q7 0 19 1h19h10q14 0 20 -5q2 -2 20 -58q4 -9 11 -28
l3 -18q0 -23 -33 -23q-4 0 -13 1h-13q-2 0 -19 -2t-20 -2q-20 0 -24 17t-10 17q-3 0 -33 -20q-9 -10 -18 -12q-13 -3 -89 -3q-23 0 -23 15z" />
    <glyph glyph-name="Idieresis" unicode="&#xcf;" horiz-adv-x="250" 
d="M19 26q0 8 6 31q14 54 19.5 87.5t17.5 101.5q11 37 27 112q6 34 16 103q4 11 9.5 34.5t11.5 48.5q3 24 7 57q4 16 10 49q1 9 4 27q8 36 36 36q6 -1 19 -3q23 -3 57 -3q3 0 18 1t17 1q27 0 27 -22q0 -14 -6 -34q-5 -29 -15 -86q-13 -43 -20 -81q-4 -26 -12 -77
q-8 -35 -22 -105q-5 -30 -17 -91q-21 -96 -26 -122q-2 -22 -9 -66q-6 -25 -25 -25q-2 0 -14 1h-15t-12 1h-12q-3 0 -25.5 -1.5t-26.5 -1.5q-45 0 -45 27zM66 774q0 7 7 21q7 22 9 48q2 31 26 31q55 -3 61 -3q4 0 27 1t28 1q29 0 29 -21v-5q-1 -3 -1 -5q-4 -10 -11 -30
q-1 -9 -5 -28q-2 -27 -32 -27q-4 0 -27 1t-27 1t-29 -1t-30 -1q-25 0 -25 17zM282 778q0 4 4.5 16.5t8.5 41.5q5 39 32 39q-8 0 24 -4q6 -2 19 -2q23 0 48 4q12 2 17 2q32 0 32 -25q0 -4 -6 -27q-4 -11 -8 -38q0 -7 -1 -10q-6 -17 -32 -17q-4 0 -28 1t-29 1q-4 0 -27 -1.5
t-28 -1.5q-26 0 -26 21z" />
    <glyph glyph-name="Eth" unicode="&#xd0;" horiz-adv-x="688" 
d="M32 324v4l8 40q3 13 5 27.5t11 19.5q6 3 23 3q13 0 18 6q4 15 9 36q7 26 19 88q5 34 12 81q11 53 20 64q12 15 53 14h74q67 1 76 1q49 0 114 -10q45 -7 79 -23q57 -26 86 -70q9 -13 25 -38q8 -14 18 -44q19 -56 19 -114q0 -63 -12 -115q-16 -71 -49 -119
q-53 -77 -94 -105q-46 -31 -76 -44q-63 -27 -206 -27q-17 0 -51.5 2t-51.5 2h-9q-6 0 -40 -2q-29 -2 -55 -3q-39 0 -39 30q0 12 11 52q9 32 18 86q2 17 8 49q10 50 16 69q3 9 3 14q0 13 -15 13h-6q-4 -1 -6 -1q-15 0 -15 14zM526 390q0 89 -58 128q-41 28 -123 28
q-34 0 -42 -11q-13 -12 -22 -57q-2 -16 -4 -27t-2 -17q0 -13 15 -14h9q8 1 9 1q3 0 21.5 -1t22.5 -1q3 0 19.5 1.5t19.5 1.5q31 0 31 -24q0 -3 -5 -23t-6 -23q-4 -21 -9 -28q-8 -10 -27 -10q-3 0 -19.5 1t-19.5 1h-19q-13 -1 -20 -1q-2 0 -14 1h-14q-22 0 -24 -20
q0 -2 -12 -55.5t-12 -56.5q0 -14 13 -19q20 -5 65 -5q19 0 31 1q62 5 92 22.5t59 60.5q45 67 45 146z" />
    <glyph glyph-name="Ntilde" unicode="&#xd1;" horiz-adv-x="667" 
d="M656 293l-16 -75q-4 -14 -11 -42q-4 -13 -9 -39l-11 -77q-4 -36 -9 -45q-6 -14 -25 -14q-9 0 -26.5 2t-26.5 2q-4 0 -32.5 -2.5t-34.5 -2.5q-29 0 -40 37q-14 48 -26 73q-8 14 -22 51q-4 15 -12 42q-10 23 -30 70q-4 11 -12 31q-20 42 -43 100q-5 22 -10 22q-3 0 -8 -47
q-4 -25 -11 -75q0 -11 -3 -33q-4 -15 -13 -45q-1 -12 -5 -37q-3 -13 -8 -26q-4 -21 -10 -51q-4 -13 -9 -40q-1 -9 -2 -28q-4 -43 -36 -43q1 0 -20 3q-7 1 -30 1q-3 0 -23.5 -2t-24.5 -2q-39 0 -39 30q0 13 7 36q6 17 16 64q14 90 25.5 133t30.5 143q7 39 18 95q4 16 11 47
q1 8 4 24l7 35t7 36q6 37 13 48q10 16 36 16q5 0 37 -2t38 -2l26 1l26 1q19 0 28 -16q5 -13 11 -32q6 -13 18 -40q10 -34 33 -102q6 -15 9 -24q6 -20 15 -48q16 -37 40 -104q11 -46 16 -46q4 0 6 8q3 5 5 38l8 40q0 1 4 35q3 27 22 100q3 29 12 86l9 39q1 7 3 33.5t18 32.5
q8 3 26 3q7 0 18.5 -2t16.5 -2q18 -1 19 -1q2 0 22 2q5 0 13 1h9q29 0 29 -29q0 -8 -5 -38q-12 -45 -16 -74q-1 -11 -5 -35q-6 -17 -14 -51q-2 -21 -8 -64q-8 -27 -20 -83q-2 -14 -6 -40zM248 781q0 9 3 18q7 21 26 63q23 38 76 38q43 0 137 -23q20 -5 31 -5q20 0 27.5 13
t26.5 13h24q21 -1 25 -1t22.5 1t19.5 1q12 0 12 -13q0 -18 -14 -50q-33 -75 -111 -75q-44 0 -82 12q-15 6 -46 15q-15 3 -21 3q-8 0 -16 -3l-13 -13q-6 -5 -15 -5q-1 0 -11.5 1t-12.5 1l-23 -2q-11 -1 -51 -1q-14 0 -14 12z" />
    <glyph glyph-name="Ograve" unicode="&#xd2;" horiz-adv-x="771" 
d="M66 312q0 16 5 53q8 57 27 102.5t50 88.5q25 34 64 68q12 11 58 41q39 22 60 30q60 22 128 22q59 0 103 -11q56 -14 100 -41q50 -31 64 -55q19 -16 42 -75q25 -64 25 -131q0 -59 -19 -127q-13 -44 -24 -67q-15 -27 -30 -55q-26 -42 -72 -81q-89 -77 -209 -84
q-36 -2 -51 -2q-26 0 -47 3q-51 2 -102 28q-30 16 -56 37q-13 10 -40 37q-76 93 -76 219zM447 552q-9 -1 -30 -3q-24 -5 -37 -10l-43 -23q-18 -12 -45 -47q-31 -40 -39 -70q-1 -6 -3 -19q-7 -18 -7 -63q0 -39 13.5 -69t23.5 -43q45 -57 120 -57q23 0 35 2q39 7 80 32
q33 20 65 74q37 62 37 120q0 39 -7 66q-11 42 -50 78q-35 32 -113 32zM373 879q0 22 38 22q3 0 21 -1.5t21 -1.5q14 -1 33 -1q3 0 20 1t20 1q23 0 32 -31q1 -4 13.5 -40t12.5 -44q0 -19 -28 -23h-64q-25 0 -45 25l-3 3q-4 5 -20 23l-30 34q-21 21 -21 33z" />
    <glyph glyph-name="Oacute" unicode="&#xd3;" horiz-adv-x="771" 
d="M66 312q0 16 5 53q8 57 27 102.5t50 88.5q25 34 64 68q12 11 58 41q39 22 60 30q60 22 128 22q59 0 103 -11q56 -14 100 -41q50 -31 64 -55q19 -16 42 -75q25 -64 25 -131q0 -59 -19 -127q-13 -44 -24 -67q-15 -27 -30 -55q-26 -42 -72 -81q-89 -77 -209 -84
q-36 -2 -51 -2q-26 0 -47 3q-51 2 -102 28q-30 16 -56 37q-13 10 -40 37q-76 93 -76 219zM447 552q-9 -1 -30 -3q-24 -5 -37 -10l-43 -23q-18 -12 -45 -47q-31 -40 -39 -70q-1 -6 -3 -19q-7 -18 -7 -63q0 -39 13.5 -69t23.5 -43q45 -57 120 -57q23 0 35 2q39 7 80 32
q33 20 65 74q37 62 37 120q0 39 -7 66q-11 42 -50 78q-35 32 -113 32zM438 775q0 3 2 10q3 11 21 42q6 13 20 38q11 19 17.5 25t24.5 7h63q4 0 29.5 1t30.5 1q21 0 21 -17q0 -16 -18 -37q-25 -24 -59 -57q-26 -27 -47 -27h-22q-3 0 -24 -1t-25 -1q-34 0 -34 16z" />
    <glyph glyph-name="Ocircumflex" unicode="&#xd4;" horiz-adv-x="771" 
d="M66 312q0 16 5 53q8 57 27 102.5t50 88.5q25 34 64 68q12 11 58 41q39 22 60 30q60 22 128 22q59 0 103 -11q56 -14 100 -41q50 -31 64 -55q19 -16 42 -75q25 -64 25 -131q0 -59 -19 -127q-13 -44 -24 -67q-15 -27 -30 -55q-26 -42 -72 -81q-89 -77 -209 -84
q-36 -2 -51 -2q-26 0 -47 3q-51 2 -102 28q-30 16 -56 37q-13 10 -40 37q-76 93 -76 219zM447 552q-9 -1 -30 -3q-24 -5 -37 -10l-43 -23q-18 -12 -45 -47q-31 -40 -39 -70q-1 -6 -3 -19q-7 -18 -7 -63q0 -39 13.5 -69t23.5 -43q45 -57 120 -57q23 0 35 2q39 7 80 32
q33 20 65 74q37 62 37 120q0 39 -7 66q-11 42 -50 78q-35 32 -113 32zM345 776q0 14 35 50q13 13 49 52q16 19 40 19h34q29 -1 35 -1q7 0 19 1h19h10q14 0 20 -5q2 -2 20 -58q4 -9 11 -28l3 -18q0 -23 -33 -23q-4 0 -13 1h-13q-2 0 -19 -2t-20 -2q-20 0 -24 17t-10 17
q-3 0 -33 -20q-9 -10 -18 -12q-13 -3 -89 -3q-23 0 -23 15z" />
    <glyph glyph-name="Otilde" unicode="&#xd5;" horiz-adv-x="771" 
d="M66 312q0 16 5 53q8 57 27 102.5t50 88.5q25 34 64 68q12 11 58 41q39 22 60 30q60 22 128 22q59 0 103 -11q56 -14 100 -41q50 -31 64 -55q19 -16 42 -75q25 -64 25 -131q0 -59 -19 -127q-13 -44 -24 -67q-15 -27 -30 -55q-26 -42 -72 -81q-89 -77 -209 -84
q-36 -2 -51 -2q-26 0 -47 3q-51 2 -102 28q-30 16 -56 37q-13 10 -40 37q-76 93 -76 219zM447 552q-9 -1 -30 -3q-24 -5 -37 -10l-43 -23q-18 -12 -45 -47q-31 -40 -39 -70q-1 -6 -3 -19q-7 -18 -7 -63q0 -39 13.5 -69t23.5 -43q45 -57 120 -57q23 0 35 2q39 7 80 32
q33 20 65 74q37 62 37 120q0 39 -7 66q-11 42 -50 78q-35 32 -113 32zM290 781q0 9 3 18q7 21 26 63q23 38 76 38q43 0 137 -23q20 -5 31 -5q20 0 27.5 13t26.5 13h24q21 -1 25 -1t22.5 1t19.5 1q12 0 12 -13q0 -18 -14 -50q-33 -75 -111 -75q-44 0 -82 12q-15 6 -46 15
q-15 3 -21 3q-8 0 -16 -3l-13 -13q-6 -5 -15 -5q-1 0 -11.5 1t-12.5 1l-23 -2q-11 -1 -51 -1q-14 0 -14 12z" />
    <glyph glyph-name="Odieresis" unicode="&#xd6;" horiz-adv-x="771" 
d="M66 312q0 16 5 53q8 57 27 102.5t50 88.5q25 34 64 68q12 11 58 41q39 22 60 30q60 22 128 22q59 0 103 -11q56 -14 100 -41q50 -31 64 -55q19 -16 42 -75q25 -64 25 -131q0 -59 -19 -127q-13 -44 -24 -67q-15 -27 -30 -55q-26 -42 -72 -81q-89 -77 -209 -84
q-36 -2 -51 -2q-26 0 -47 3q-51 2 -102 28q-30 16 -56 37q-13 10 -40 37q-76 93 -76 219zM447 552q-9 -1 -30 -3q-24 -5 -37 -10l-43 -23q-18 -12 -45 -47q-31 -40 -39 -70q-1 -6 -3 -19q-7 -18 -7 -63q0 -39 13.5 -69t23.5 -43q45 -57 120 -57q23 0 35 2q39 7 80 32
q33 20 65 74q37 62 37 120q0 39 -7 66q-11 42 -50 78q-35 32 -113 32zM311 773q0 7 7 21q7 22 9 48q2 31 26 31q55 -3 61 -3q4 0 27 1t28 1q29 0 29 -21v-5q-1 -3 -1 -5q-4 -10 -11 -30q-1 -9 -5 -28q-2 -27 -32 -27q-4 0 -27 1t-27 1t-29 -1t-30 -1q-25 0 -25 17zM527 777
q0 4 4.5 16.5t8.5 41.5q5 39 32 39q-8 0 24 -4q6 -2 19 -2q23 0 48 4q12 2 17 2q32 0 32 -25q0 -4 -6 -27q-4 -11 -8 -38q0 -7 -1 -10q-6 -17 -32 -17q-4 0 -28 1t-29 1q-4 0 -27 -1.5t-28 -1.5q-26 0 -26 21z" />
    <glyph glyph-name="Oslash" unicode="&#xd8;" horiz-adv-x="771" 
d="M455 718h3q13 0 50 -7q20 0 39 -4l50 -14q8 0 17 9q15 22 35 52q15 22 26 22q8 0 33 -19q6 -3 16 -11q11 -11 11 -20q0 -7 -20 -30q-8 -10 -12 -17q-2 -3 -7 -11q-11 -15 -11 -19q0 -9 10 -17.5t27 -26.5q24 -31 35 -53q11 -30 24 -65q10 -38 10 -87q0 -17 -4 -52
q-5 -45 -23 -99q-9 -28 -29 -65q-17 -33 -39 -59q-42 -52 -90 -81q-92 -57 -224 -57q-21 0 -47 5q-10 1 -41 10q-15 4 -36 10q-10 5 -15 5q-4 0 -9.5 -8.5t-8.5 -11.5t-13 -21q-17 -29 -31 -29q-8 0 -17 9q-4 3 -14 11q-25 16 -25 29q0 6 15 25q5 8 18 26q12 15 12 20
q0 3 -9 11q-19 16 -34 43q-3 7 -14 23q-4 8 -13 22q-3 5 -9 17q-6 18 -14 41q-2 9 -4 25q-2 9 -6 26v14q0 3 -1.5 17.5t-1.5 16.5q0 10 5 43q3 21 12 60q23 71 64 130q19 27 41 48q14 11 33.5 27.5t50.5 35.5q50 30 122 45q28 6 63 6zM458 556q-26 0 -68.5 -13.5
t-60.5 -26.5q-22 -15 -50 -52.5t-38 -75.5q-7 -30 -7 -85q0 -23 15 -60q13 -33 19 -33q5 0 17 16q7 12 20 29q14 21 33 50q7 8 20 27l15 21q5 7 14 21q4 5 13 15q14 21 33 48q19 23 40 51l15 24q5 8 14.5 17.5t9.5 12.5q0 14 -54 14zM619 378q0 20 -12 80q-13 36 -23 36
q-5 0 -16 -18q-8 -10 -22 -31q-3 -5 -10 -15q-5 -5 -12 -15q-3 -7 -11 -20q-11 -15 -22 -31q-6 -6 -17 -20l-15 -21q-15 -21 -41 -58q-11 -17 -34 -51q-11 -13 -26 -33.5t-15 -21.5q0 -6 17 -9q36 -6 45 -6q25 0 62 10q20 5 30 10q17 8 34 24q9 10 22 23q1 0 18 20
q21 24 38 82q10 34 10 65z" />
    <glyph glyph-name="Ugrave" unicode="&#xd9;" horiz-adv-x="646" 
d="M57 207q0 18 18 116q7 38 12 68q2 12 6 35q10 42 22 100q4 25 10 60q7 29 10 59t10 42q11 20 40 20q10 0 29.5 -1.5t29.5 -1.5l21 1l21 1q27 0 27 -27q0 -5 -2 -17q-7 -25 -12 -53q-2 -13 -7 -40q-2 -10 -16 -73q-14 -72 -35 -171q-13 -53 -13 -80q0 -57 41 -75
q29 -13 76 -13q54 0 92 46q12 15 18 30q8 25 22 93q6 35 19 103l18 81q9 41 23 122q2 11 5 34q5 27 19 35q9 5 40 5h8q6 -1 11 -1q16 -2 19 -2t17 2q5 0 11 1h7q22 0 29 -3q13 -6 13 -24q0 -4 -4 -22q-8 -43 -20 -102q-8 -35 -23 -104q-3 -21 -11.5 -63t-20.5 -99
q-2 -18 -8 -53q-1 -8 -8 -34q-8 -33 -12 -42q-6 -18 -17 -37q-51 -87 -170 -119q-48 -13 -117 -13q-37 0 -79 12q-60 17 -84.5 33.5t-42.5 36.5q-42 48 -42 134zM310 879q0 22 38 22q3 0 21 -1.5t21 -1.5q14 -1 33 -1q3 0 20 1t20 1q23 0 32 -31q1 -4 13.5 -40t12.5 -44
q0 -19 -28 -23h-64q-25 0 -45 25l-3 3q-4 5 -20 23l-30 34q-21 21 -21 33z" />
    <glyph glyph-name="Uacute" unicode="&#xda;" horiz-adv-x="646" 
d="M57 207q0 18 18 116q7 38 12 68q2 12 6 35q10 42 22 100q4 25 10 60q7 29 10 59t10 42q11 20 40 20q10 0 29.5 -1.5t29.5 -1.5l21 1l21 1q27 0 27 -27q0 -5 -2 -17q-7 -25 -12 -53q-2 -13 -7 -40q-2 -10 -16 -73q-14 -72 -35 -171q-13 -53 -13 -80q0 -57 41 -75
q29 -13 76 -13q54 0 92 46q12 15 18 30q8 25 22 93q6 35 19 103l18 81q9 41 23 122q2 11 5 34q5 27 19 35q9 5 40 5h8q6 -1 11 -1q16 -2 19 -2t17 2q5 0 11 1h7q22 0 29 -3q13 -6 13 -24q0 -4 -4 -22q-8 -43 -20 -102q-8 -35 -23 -104q-3 -21 -11.5 -63t-20.5 -99
q-2 -18 -8 -53q-1 -8 -8 -34q-8 -33 -12 -42q-6 -18 -17 -37q-51 -87 -170 -119q-48 -13 -117 -13q-37 0 -79 12q-60 17 -84.5 33.5t-42.5 36.5q-42 48 -42 134zM375 775q0 3 2 10q3 11 21 42q6 13 20 38q11 19 17.5 25t24.5 7h63q4 0 29.5 1t30.5 1q21 0 21 -17
q0 -16 -18 -37q-25 -24 -59 -57q-26 -27 -47 -27h-22q-3 0 -24 -1t-25 -1q-34 0 -34 16z" />
    <glyph glyph-name="Ucircumflex" unicode="&#xdb;" horiz-adv-x="646" 
d="M57 207q0 18 18 116q7 38 12 68q2 12 6 35q10 42 22 100q4 25 10 60q7 29 10 59t10 42q11 20 40 20q10 0 29.5 -1.5t29.5 -1.5l21 1l21 1q27 0 27 -27q0 -5 -2 -17q-7 -25 -12 -53q-2 -13 -7 -40q-2 -10 -16 -73q-14 -72 -35 -171q-13 -53 -13 -80q0 -57 41 -75
q29 -13 76 -13q54 0 92 46q12 15 18 30q8 25 22 93q6 35 19 103l18 81q9 41 23 122q2 11 5 34q5 27 19 35q9 5 40 5h8q6 -1 11 -1q16 -2 19 -2t17 2q5 0 11 1h7q22 0 29 -3q13 -6 13 -24q0 -4 -4 -22q-8 -43 -20 -102q-8 -35 -23 -104q-3 -21 -11.5 -63t-20.5 -99
q-2 -18 -8 -53q-1 -8 -8 -34q-8 -33 -12 -42q-6 -18 -17 -37q-51 -87 -170 -119q-48 -13 -117 -13q-37 0 -79 12q-60 17 -84.5 33.5t-42.5 36.5q-42 48 -42 134zM293 776q0 14 35 50q13 13 49 52q16 19 40 19h34q29 -1 35 -1q7 0 19 1h19h10q14 0 20 -5q2 -2 20 -58
q4 -9 11 -28l3 -18q0 -23 -33 -23q-4 0 -13 1h-13q-2 0 -19 -2t-20 -2q-20 0 -24 17t-10 17q-3 0 -33 -20q-9 -10 -18 -12q-13 -3 -89 -3q-23 0 -23 15z" />
    <glyph glyph-name="Udieresis" unicode="&#xdc;" horiz-adv-x="646" 
d="M57 207q0 18 18 116q7 38 12 68q2 12 6 35q10 42 22 100q4 25 10 60q7 29 10 59t10 42q11 20 40 20q10 0 29.5 -1.5t29.5 -1.5l21 1l21 1q27 0 27 -27q0 -5 -2 -17q-7 -25 -12 -53q-2 -13 -7 -40q-2 -10 -16 -73q-14 -72 -35 -171q-13 -53 -13 -80q0 -57 41 -75
q29 -13 76 -13q54 0 92 46q12 15 18 30q8 25 22 93q6 35 19 103l18 81q9 41 23 122q2 11 5 34q5 27 19 35q9 5 40 5h8q6 -1 11 -1q16 -2 19 -2t17 2q5 0 11 1h7q22 0 29 -3q13 -6 13 -24q0 -4 -4 -22q-8 -43 -20 -102q-8 -35 -23 -104q-3 -21 -11.5 -63t-20.5 -99
q-2 -18 -8 -53q-1 -8 -8 -34q-8 -33 -12 -42q-6 -18 -17 -37q-51 -87 -170 -119q-48 -13 -117 -13q-37 0 -79 12q-60 17 -84.5 33.5t-42.5 36.5q-42 48 -42 134zM256 772q0 7 7 21q7 22 9 48q2 31 26 31q55 -3 61 -3q4 0 27 1t28 1q29 0 29 -21v-5q-1 -3 -1 -5
q-4 -10 -11 -30q-1 -9 -5 -28q-2 -27 -32 -27q-4 0 -27 1t-27 1t-29 -1t-30 -1q-25 0 -25 17zM472 776q0 4 4.5 16.5t8.5 41.5q5 39 32 39q-8 0 24 -4q6 -2 19 -2q23 0 48 4q12 2 17 2q32 0 32 -25q0 -4 -6 -27q-4 -11 -8 -38q0 -7 -1 -10q-6 -17 -32 -17q-4 0 -28 1t-29 1
q-4 0 -27 -1.5t-28 -1.5q-26 0 -26 21z" />
    <glyph glyph-name="Yacute" unicode="&#xdd;" horiz-adv-x="604" 
d="M251 336v2q0 11 -22 55l-9 24q-13 30 -31 73q-10 29 -33 87q-8 22 -19 52l-11 22q-14 29 -14 37q0 23 31 23q3 0 20 -2q25 -3 44 -3q9 0 27 1.5t27 1.5q27 0 40 -28q3 -5 17 -52q3 -13 11 -38q5 -16 19 -66q5 -11 10.5 -28t8.5 -17t9 14q4 10 11 19.5t25 36.5q7 8 39 55
l21 28q8 12 24.5 35.5t22.5 28.5q10 10 25 10h11q20 -4 65 -4q2 0 17 1h18q46 0 46 -20t-39 -62q-15 -19 -36 -46q-6 -8 -19 -23q-6 -8 -20 -25q-1 -2 -12 -13t-28 -36q-7 -11 -25 -30q-8 -9 -52 -69q-6 -6 -19 -20q-5 -7 -16 -20q-8 -8 -11 -13t-11.5 -44t-19.5 -90
q-7 -46 -16 -84q-3 -11 -11 -65q-5 -33 -10 -40t-26 -7q-4 0 -20 2h-13q-7 1 -8 1q-11 0 -33.5 -1.5t-33.5 -1.5q-35 0 -35 30q0 10 6 29t30 141q28 143 28 139zM355 775q0 3 2 10q3 11 21 42q6 13 20 38q11 19 17.5 25t24.5 7h63q4 0 29.5 1t30.5 1q21 0 21 -17
q0 -16 -18 -37q-25 -24 -59 -57q-26 -27 -47 -27h-22q-3 0 -24 -1t-25 -1q-34 0 -34 16z" />
    <glyph glyph-name="Thorn" unicode="&#xde;" horiz-adv-x="604" 
d="M23 33q0 9 2 22q6 24 15 72q2 9 12 59q9 46 9 47q2 18 8 55q6 19 15 57q5 30 17 90q18 75 39 179q8 55 15 70q10 21 38 22h18q17 -1 19 -1q9 0 21 -2q17 -3 36 -3q2 0 11 1h10q24 0 24 -16q0 -4 -4 -16q-4 -7 -12 -23.5t-8 -25.5q0 -15 17 -15q2 0 14 1h13q64 0 99 -7
q57 -11 100 -37q33 -20 56 -65t23 -83q0 -83 -37 -143q-7 -12 -20 -33q-16 -23 -43 -45q-35 -29 -92.5 -51t-172.5 -22q-17 0 -32 -6q-24 -10 -32 -35q-1 -14 -4 -43q-6 -32 -31 -32q-2 0 -16.5 1t-17.5 1q-5 0 -33 -3t-33 -3q-43 0 -43 33zM346 452q-31 0 -53 -12
q-16 -9 -23 -31q-1 -4 -8 -39q-1 -6 -8 -30q-6 -17 -6 -29q0 -23 10 -32q14 -12 55 -12q20 0 43 8q32 11 52 26q42 31 42 83q0 68 -104 68z" />
    <glyph glyph-name="germandbls" unicode="&#xdf;" 
d="M65 -2h-17q-10 0 -14 2q-16 6 -16 26q0 8 12 60q15 62 15 64l46 239q8 41 15 70q33 137 61 173q33 43 102 67q51 18 90 18q27 0 54 -5q41 -8 70 -31q9 -6 26 -28q17 -29 17 -56q0 -47 -29 -75q-8 -7 -23 -24q-7 -11 -7 -25t18 -55q13 -29 28 -68q13 -33 13 -96
q0 -76 -33 -134q-18 -32 -59 -72q-35 -35 -73 -48q-34 -12 -83 -12q-28 0 -46 4q-27 6 -27 22q0 7 5.5 24.5t6.5 22.5q2 14 4 31q0 30 20 30l12 -3q8 -3 16 -3q28 0 49 21q7 7 23 30q11 15 18 51q7 30 7 47q0 18 -15 65q-4 16 -13 46q-6 20 -18 46t-12 38q0 26 28 51
q44 39 44 60q0 34 -36 34q-47 0 -61 -51q-1 -5 -3 -14q-1 -4 -3 -11.5t-7 -22.5q-3 -4 -4.5 -9t-3.5 -14.5t-4 -14.5q-6 -37 -8 -42q-18 -104 -28 -144q-5 -19 -14 -57q-3 -24 -11 -72l-12 -48l-13 -68q-3 -23 -8 -30q-7 -10 -27 -10q-7 0 -20.5 1t-20.5 1q-2 0 -15 -1h-16z
" />
    <glyph glyph-name="agrave" unicode="&#xe0;" 
d="M58 240q31 44 93 74q41 19 103 19q28 0 67 -8q15 -3 19 -3q20 0 20 31q0 11 -12 20q-8 6 -28 8q-9 3 -28 6h-5q-4 -1 -11 -1h-37q-24 0 -69 -15q-15 -5 -26 -5q-29 0 -29 32q0 7 15 76q9 30 34 34q42 6 109 6h11q92 0 135 -11t66 -37q30 -35 30 -87q0 -17 -7 -54
q-4 -31 -11 -74q-13 -50 -13.5 -57.5t-7.5 -41.5q-4 -13 -11 -40q-2 -7 -4 -29q-3 -17 -7.5 -51.5t-23.5 -33.5l-64 3q-14 0 -29 -2t-17 -2q-12 0 -15 13v9q0 14 -7 14q-3 -2 -10 -9q-11 -11 -42.5 -23.5t-61.5 -12.5h-20q-16 1 -20 1q-37 4 -71 36q-13 16 -27 32
q-18 33 -18 75q0 32 4 48q4 29 26 60zM273 216q-56 0 -74 -16q-23 -20 -23 -40q0 -12 7.5 -23t19.5 -16q18 -7 31 -7q27 0 51 8q41 15 41 50q0 44 -53 44zM228 691q0 19 35 19q4 0 27.5 -1t28.5 -1h34q30 0 37 -4.5t12 -26.5q3 -12 10 -33q13 -38 13 -55q0 -23 -25 -24h-34
q-2 0 -19 -1t-20 -1q-17 0 -26 14q-2 4 -29 39q-44 57 -44 75z" />
    <glyph glyph-name="aacute" unicode="&#xe1;" 
d="M58 240q31 44 93 74q41 19 103 19q28 0 67 -8q15 -3 19 -3q20 0 20 31q0 11 -12 20q-8 6 -28 8q-9 3 -28 6h-5q-4 -1 -11 -1h-37q-24 0 -69 -15q-15 -5 -26 -5q-29 0 -29 32q0 7 15 76q9 30 34 34q42 6 109 6h11q92 0 135 -11t66 -37q30 -35 30 -87q0 -17 -7 -54
q-4 -31 -11 -74q-13 -50 -13.5 -57.5t-7.5 -41.5q-4 -13 -11 -40q-2 -7 -4 -29q-3 -17 -7.5 -51.5t-23.5 -33.5l-64 3q-14 0 -29 -2t-17 -2q-12 0 -15 13v9q0 14 -7 14q-3 -2 -10 -9q-11 -11 -42.5 -23.5t-61.5 -12.5h-20q-16 1 -20 1q-37 4 -71 36q-13 16 -27 32
q-18 33 -18 75q0 32 4 48q4 29 26 60zM273 216q-56 0 -74 -16q-23 -20 -23 -40q0 -12 7.5 -23t19.5 -16q18 -7 31 -7q27 0 51 8q41 15 41 50q0 44 -53 44zM438 706q3 0 21 1.5t21 1.5q30 0 30 -13q0 -20 -63 -82q-12 -11 -34 -32t-38 -21q-1 0 -12 1h-12h-16q-14 -1 -17 -1
q-29 0 -29 19t39 89q13 24 21.5 31.5t28.5 7.5q4 0 29.5 -1t30.5 -1z" />
    <glyph glyph-name="acircumflex" unicode="&#xe2;" 
d="M58 240q31 44 93 74q41 19 103 19q28 0 67 -8q15 -3 19 -3q20 0 20 31q0 11 -12 20q-8 6 -28 8q-9 3 -28 6h-5q-4 -1 -11 -1h-37q-24 0 -69 -15q-15 -5 -26 -5q-29 0 -29 32q0 7 15 76q9 30 34 34q42 6 109 6h11q92 0 135 -11t66 -37q30 -35 30 -87q0 -17 -7 -54
q-4 -31 -11 -74q-13 -50 -13.5 -57.5t-7.5 -41.5q-4 -13 -11 -40q-2 -7 -4 -29q-3 -17 -7.5 -51.5t-23.5 -33.5l-64 3q-14 0 -29 -2t-17 -2q-12 0 -15 13v9q0 14 -7 14q-3 -2 -10 -9q-11 -11 -42.5 -23.5t-61.5 -12.5h-20q-16 1 -20 1q-37 4 -71 36q-13 16 -27 32
q-18 33 -18 75q0 32 4 48q4 29 26 60zM273 216q-56 0 -74 -16q-23 -20 -23 -40q0 -12 7.5 -23t19.5 -16q18 -7 31 -7q27 0 51 8q41 15 41 50q0 44 -53 44zM452 566h-18q-39 0 -48 -1q-1 0 -4 -1h-5q-13 0 -16 10q-1 1 0 10q0 16 -10 16q-9 0 -17 -7l-24 -21q-10 -7 -33 -7
h-61q-27 0 -27 13q0 11 23 32q12 11 47 47q52 54 67 54q3 0 23.5 -1t24.5 -1q3 0 20 1t20 1q16 0 22 -14q13 -38 32 -90q5 -17 5 -21q0 -20 -21 -20z" />
    <glyph glyph-name="atilde" unicode="&#xe3;" 
d="M58 240q31 44 93 74q41 19 103 19q28 0 67 -8q15 -3 19 -3q20 0 20 31q0 11 -12 20q-8 6 -28 8q-9 3 -28 6h-5q-4 -1 -11 -1h-37q-24 0 -69 -15q-15 -5 -26 -5q-29 0 -29 32q0 7 15 76q9 30 34 34q42 6 109 6h11q92 0 135 -11t66 -37q30 -35 30 -87q0 -17 -7 -54
q-4 -31 -11 -74q-13 -50 -13.5 -57.5t-7.5 -41.5q-4 -13 -11 -40q-2 -7 -4 -29q-3 -17 -7.5 -51.5t-23.5 -33.5l-64 3q-14 0 -29 -2t-17 -2q-12 0 -15 13v9q0 14 -7 14q-3 -2 -10 -9q-11 -11 -42.5 -23.5t-61.5 -12.5h-20q-16 1 -20 1q-37 4 -71 36q-13 16 -27 32
q-18 33 -18 75q0 32 4 48q4 29 26 60zM273 216q-56 0 -74 -16q-23 -20 -23 -40q0 -12 7.5 -23t19.5 -16q18 -7 31 -7q27 0 51 8q41 15 41 50q0 44 -53 44zM206 581h-21l-15 -3q-16 0 -16 14q0 12 13 47q5 14 18 33q27 41 75 41q21 0 46 -7q92 -26 94 -26q20 0 27 15.5
t17 15.5q4 0 7 -1h16q14 -1 21 -1q34 1 35 1q6 2 16 2q12 0 12 -14q0 -28 -22 -68q-31 -59 -85 -59q-47 0 -109 20q-28 9 -35 9q-11 0 -16.5 -5.5l-10 -10t-12.5 -4.5q-4 0 -27 1h-28z" />
    <glyph glyph-name="adieresis" unicode="&#xe4;" 
d="M58 240q31 44 93 74q41 19 103 19q28 0 67 -8q15 -3 19 -3q20 0 20 31q0 11 -12 20q-8 6 -28 8q-9 3 -28 6h-5q-4 -1 -11 -1h-37q-24 0 -69 -15q-15 -5 -26 -5q-29 0 -29 32q0 7 15 76q9 30 34 34q42 6 109 6h11q92 0 135 -11t66 -37q30 -35 30 -87q0 -17 -7 -54
q-4 -31 -11 -74q-13 -50 -13.5 -57.5t-7.5 -41.5q-4 -13 -11 -40q-2 -7 -4 -29q-3 -17 -7.5 -51.5t-23.5 -33.5l-64 3q-14 0 -29 -2t-17 -2q-12 0 -15 13v9q0 14 -7 14q-3 -2 -10 -9q-11 -11 -42.5 -23.5t-61.5 -12.5h-20q-16 1 -20 1q-37 4 -71 36q-13 16 -27 32
q-18 33 -18 75q0 32 4 48q4 29 26 60zM273 216q-56 0 -74 -16q-23 -20 -23 -40q0 -12 7.5 -23t19.5 -16q18 -7 31 -7q27 0 51 8q41 15 41 50q0 44 -53 44zM267 685q26 0 46 3q13 2 22 2q21 0 21 -20q0 -9 -6 -23q-4 -24 -8 -47q-8 -29 -29 -29q-3 0 -18.5 1t-18.5 1
q-4 0 -28.5 -1t-29.5 -1q-30 0 -30 22q0 2 10 40q1 9 5 27q6 27 31 27q2 0 16 -1t17 -1zM533 690q20 0 20 -24q0 2 -11 -48q-1 -9 -5 -25q-6 -21 -29 -21q-3 0 -25 1t-26 1h-22q-18 -1 -22 -1q-27 0 -27 24q0 3 6 21q7 31 9 33q0 13 5.5 25t28.5 12q4 0 24.5 -1t23.5 -1
q5 0 16 1h15q5 2 19 3z" />
    <glyph glyph-name="aring" unicode="&#xe5;" 
d="M58 240q31 44 93 74q41 19 103 19q28 0 67 -8q15 -3 19 -3q20 0 20 31q0 11 -12 20q-8 6 -28 8q-9 3 -28 6h-5q-4 -1 -11 -1h-37q-24 0 -69 -15q-15 -5 -26 -5q-29 0 -29 32q0 7 15 76q9 30 34 34q42 6 109 6h11q92 0 135 -11t66 -37q30 -35 30 -87q0 -17 -7 -54
q-4 -31 -11 -74q-13 -50 -13.5 -57.5t-7.5 -41.5q-4 -13 -11 -40q-2 -7 -4 -29q-3 -17 -7.5 -51.5t-23.5 -33.5l-64 3q-14 0 -29 -2t-17 -2q-12 0 -15 13v9q0 14 -7 14q-3 -2 -10 -9q-11 -11 -42.5 -23.5t-61.5 -12.5h-20q-16 1 -20 1q-37 4 -71 36q-13 16 -27 32
q-18 33 -18 75q0 32 4 48q4 29 26 60zM273 216q-56 0 -74 -16q-23 -20 -23 -40q0 -12 7.5 -23t19.5 -16q18 -7 31 -7q27 0 51 8q41 15 41 50q0 44 -53 44zM244 617q0 47 41 72q36 22 81 22q50 0 74 -9q55 -20 55 -69q0 -23 -12 -45q-28 -49 -119 -49q-57 0 -85 19
q-35 24 -35 59zM370 656q-17 0 -33 -7q-22 -10 -22 -23q0 -16 17 -25.5t34 -9.5q22 0 39 10t17 23q0 16 -19 25q-15 7 -33 7z" />
    <glyph glyph-name="ae" unicode="&#xe6;" horiz-adv-x="792" 
d="M675 207h-14q-13 2 -20.5 2.5t-35.5 0.5q-3 0 -20.5 -1t-20.5 -1q-4 0 -27.5 2t-28.5 2q-26 0 -26 -15q0 -60 85 -63q2 0 18 -1.5t19 -1.5q36 0 92 7l24 6l11 3q9 3 16 3q18 0 18 -16q0 1 -14 -47q-5 -18 -6 -30q-2 -24 -5 -33q-7 -18 -27 -23q-7 -2 -57.5 -6t-57.5 -4
q-113 0 -191 34q-21 9 -29 9q-7 0 -17.5 -4t-26.5 -14q-22 -11 -73 -20q-44 -8 -67 -8q-46 0 -79 12q-16 6 -33 21q-29 27 -42 60q-9 24 -9 43q0 30 5 52q6 27 28 62q25 41 70.5 64.5t94.5 23.5h14q12 -1 14 -1t16 1t17 1q2 0 18.5 -1.5t20.5 -1.5q33 0 33 31
q0 15 -20.5 23.5t-59.5 8.5q-49 0 -83 -9q-30 -8 -44 -8q-30 0 -30 31q0 3 7 32q1 14 6.5 41.5t29.5 34.5q29 9 104 9q40 0 102 -6q7 -3 23 -7q10 -2 29 -7q2 -1 18 -10q10 -6 20 -6q9 0 34 9q8 4 23 9q4 1 13 1q4 1 26 7t26 6h14q11 -1 14 -1q5 0 14 1h14q5 0 40 -6
q60 -10 92 -48t32 -96q0 6 -6 -48q0 -9 -1 -26q-4 -83 -41 -83q-2 0 -16 1t-17 1t-24.5 -1t-25.5 -1zM597 393q-26 0 -46 -9l-8.5 -5.5t-10.5 -7.5q-15 -12 -15 -34q0 -20 32 -20q3 0 22 2t23 2h15q12 -1 14 -1q27 0 35 4q12 7 12 30q0 15 -8 22q-19 17 -65 17zM248 117h10
q5 0 13.5 2t30 11t26.5 21q5 9 5 36q0 25 -26 25h-11q-9 -1 -11 -1h-18q-27 0 -47 -10t-25 -14q-13 -11 -13 -33q0 -18 13.5 -29t30.5 -11q1 0 10.5 1.5t11.5 1.5z" />
    <glyph glyph-name="ccedilla" unicode="&#xe7;" horiz-adv-x="396" 
d="M40 213q0 35 23 95q21 55 50 93q15 20 51 49q54 44 101 54t104 10q55 0 55 -24q0 2 -13 -58q-4 -22 -9 -45q-9 -29 -26 -29q-7 0 -20 4.5t-22 4.5q-28 0 -59.5 -19t-46.5 -40q-27 -40 -27 -111q0 -56 69 -56q10 0 28 4q22 5 33 5q22 0 22 -23q0 1 -3 -20q-6 -25 -18 -84
q-3 -19 -12 -26q-12 -9 -43 -9q-6 0 -17 1q-1 0 -10.5 1t-11.5 1q-8 0 -8 -11v-5q9 -31 9 -42q0 -27 -21 -43t-53 -16h-11q-9 1 -11 1q-27 0 -30 23q0 4 5 29q2 36 24 36q2 0 11 -1.5t11 -1.5q27 0 27 25q0 6 -12 9q-5 5 -46 16q-17 5 -36 21q-25 22 -42 63q-15 53 -15 77
v42z" />
    <glyph glyph-name="egrave" unicode="&#xe8;" 
d="M45 206q0 83 48 177q11 22 42 55q39 41 72 54q12 5 50 17q28 9 95 9q34 0 80.5 -14t72 -49.5t25.5 -86.5q0 6 -5 -56q-1 -17 -5 -52t-21 -45q-11 -6 -44 -5h-22q-19 -1 -22 -1q-9 0 -18 1q-13 2 -38 4h-54q-50 5 -70 5q-22 0 -22 -21q0 -44 42 -56q29 -8 75 -8q38 0 97 8
q8 1 21 5q23 7 29 7q19 0 19 -16q0 3 -14 -47q-3 -11 -5 -33q0 -18 -3 -26q-10 -27 -51 -30q-112 -8 -99 -8q-46 0 -55 3q-27 0 -54 6q-72 16 -109 50q-57 52 -57 153zM324 394q-33 0 -55 -13q-26 -15 -26 -42q0 -14 10 -18q6 -3 29 -3q2 0 14 1h14q7 0 21 -1.5t22 -1.5
q42 0 42 38q0 14 -8 23q-16 17 -63 17zM239 691q0 19 35 19q4 0 27.5 -1t28.5 -1h34q30 0 37 -4.5t12 -26.5q3 -12 10 -33q13 -38 13 -55q0 -23 -25 -24h-34q-2 0 -19 -1t-20 -1q-17 0 -26 14q-2 4 -29 39q-44 57 -44 75z" />
    <glyph glyph-name="eacute" unicode="&#xe9;" 
d="M45 206q0 83 48 177q11 22 42 55q39 41 72 54q12 5 50 17q28 9 95 9q34 0 80.5 -14t72 -49.5t25.5 -86.5q0 6 -5 -56q-1 -17 -5 -52t-21 -45q-11 -6 -44 -5h-22q-19 -1 -22 -1q-9 0 -18 1q-13 2 -38 4h-54q-50 5 -70 5q-22 0 -22 -21q0 -44 42 -56q29 -8 75 -8q38 0 97 8
q8 1 21 5q23 7 29 7q19 0 19 -16q0 3 -14 -47q-3 -11 -5 -33q0 -18 -3 -26q-10 -27 -51 -30q-112 -8 -99 -8q-46 0 -55 3q-27 0 -54 6q-72 16 -109 50q-57 52 -57 153zM324 394q-33 0 -55 -13q-26 -15 -26 -42q0 -14 10 -18q6 -3 29 -3q2 0 14 1h14q7 0 21 -1.5t22 -1.5
q42 0 42 38q0 14 -8 23q-16 17 -63 17zM449 706q3 0 21 1.5t21 1.5q30 0 30 -13q0 -20 -63 -82q-12 -11 -34 -32t-38 -21q-1 0 -12 1h-12h-16q-14 -1 -17 -1q-29 0 -29 19t39 89q13 24 21.5 31.5t28.5 7.5q4 0 29.5 -1t30.5 -1z" />
    <glyph glyph-name="ecircumflex" unicode="&#xea;" 
d="M45 206q0 83 48 177q11 22 42 55q39 41 72 54q12 5 50 17q28 9 95 9q34 0 80.5 -14t72 -49.5t25.5 -86.5q0 6 -5 -56q-1 -17 -5 -52t-21 -45q-11 -6 -44 -5h-22q-19 -1 -22 -1q-9 0 -18 1q-13 2 -38 4h-54q-50 5 -70 5q-22 0 -22 -21q0 -44 42 -56q29 -8 75 -8q38 0 97 8
q8 1 21 5q23 7 29 7q19 0 19 -16q0 3 -14 -47q-3 -11 -5 -33q0 -18 -3 -26q-10 -27 -51 -30q-112 -8 -99 -8q-46 0 -55 3q-27 0 -54 6q-72 16 -109 50q-57 52 -57 153zM324 394q-33 0 -55 -13q-26 -15 -26 -42q0 -14 10 -18q6 -3 29 -3q2 0 14 1h14q7 0 21 -1.5t22 -1.5
q42 0 42 38q0 14 -8 23q-16 17 -63 17zM463 566h-18q-39 0 -48 -1q-1 0 -4 -1h-5q-13 0 -16 10q-1 1 0 10q0 16 -10 16q-9 0 -17 -7l-24 -21q-10 -7 -33 -7h-61q-27 0 -27 13q0 11 23 32q12 11 47 47q52 54 67 54q3 0 23.5 -1t24.5 -1q3 0 20 1t20 1q16 0 22 -14
q13 -38 32 -90q5 -17 5 -21q0 -20 -21 -20z" />
    <glyph glyph-name="edieresis" unicode="&#xeb;" 
d="M45 206q0 83 48 177q11 22 42 55q39 41 72 54q12 5 50 17q28 9 95 9q34 0 80.5 -14t72 -49.5t25.5 -86.5q0 6 -5 -56q-1 -17 -5 -52t-21 -45q-11 -6 -44 -5h-22q-19 -1 -22 -1q-9 0 -18 1q-13 2 -38 4h-54q-50 5 -70 5q-22 0 -22 -21q0 -44 42 -56q29 -8 75 -8q38 0 97 8
q8 1 21 5q23 7 29 7q19 0 19 -16q0 3 -14 -47q-3 -11 -5 -33q0 -18 -3 -26q-10 -27 -51 -30q-112 -8 -99 -8q-46 0 -55 3q-27 0 -54 6q-72 16 -109 50q-57 52 -57 153zM324 394q-33 0 -55 -13q-26 -15 -26 -42q0 -14 10 -18q6 -3 29 -3q2 0 14 1h14q7 0 21 -1.5t22 -1.5
q42 0 42 38q0 14 -8 23q-16 17 -63 17zM259 688q26 0 46 3q13 2 22 2q21 0 21 -20q0 -9 -6 -23q-4 -24 -8 -47q-8 -29 -29 -29q-3 0 -18.5 1t-18.5 1q-4 0 -28.5 -1t-29.5 -1q-30 0 -30 22q0 2 10 40q1 9 5 27q6 27 31 27q2 0 16 -1t17 -1zM525 693q20 0 20 -24q0 2 -11 -48
q-1 -9 -5 -25q-6 -21 -29 -21q-3 0 -25 1t-26 1h-22q-18 -1 -22 -1q-27 0 -27 24q0 3 6 21q7 31 9 33q0 13 5.5 25t28.5 12q4 0 24.5 -1t23.5 -1q5 0 16 1h15q5 2 19 3z" />
    <glyph glyph-name="igrave" unicode="&#xec;" horiz-adv-x="229" 
d="M15 25q0 12 6 32q7 27 8 33q3 14 8 48q9 42 20 100q5 40 21 119q3 10 8 30q7 24 11 67q6 58 46 58q6 0 18 -2q26 -2 37 -2h40q22 0 22 -23q0 -10 -5 -26q-12 -40 -20 -94q-3 -15 -6.5 -36t-11.5 -63q-6 -21 -8 -41q-3 -27 -10 -57q-2 -13 -7.5 -37.5t-11.5 -56.5
q-4 -44 -5 -46q-7 -28 -29 -28q-4 0 -28.5 1t-29.5 1h-21q-18 -1 -22 -1q-30 0 -30 24zM83 691q0 19 35 19q4 0 27.5 -1t28.5 -1h34q30 0 37 -4.5t12 -26.5q3 -12 10 -33q13 -38 13 -55q0 -23 -25 -24h-34q-2 0 -19 -1t-20 -1q-17 0 -26 14q-2 4 -29 39q-44 57 -44 75z" />
    <glyph glyph-name="iacute" unicode="&#xed;" horiz-adv-x="229" 
d="M15 25q0 12 6 32q7 27 8 33q3 14 8 48q9 42 20 100q5 40 21 119q3 10 8 30q7 24 11 67q6 58 46 58q6 0 18 -2q26 -2 37 -2h40q22 0 22 -23q0 -10 -5 -26q-12 -40 -20 -94q-3 -15 -6.5 -36t-11.5 -63q-6 -21 -8 -41q-3 -27 -10 -57q-2 -13 -7.5 -37.5t-11.5 -56.5
q-4 -44 -5 -46q-7 -28 -29 -28q-4 0 -28.5 1t-29.5 1h-21q-18 -1 -22 -1q-30 0 -30 24zM293 706q3 0 21 1.5t21 1.5q30 0 30 -13q0 -20 -63 -82q-12 -11 -34 -32t-38 -21q-1 0 -12 1h-12h-16q-14 -1 -17 -1q-29 0 -29 19t39 89q13 24 21.5 31.5t28.5 7.5q4 0 29.5 -1
t30.5 -1z" />
    <glyph glyph-name="icircumflex" unicode="&#xee;" horiz-adv-x="229" 
d="M15 25q0 12 6 32q7 27 8 33q3 14 8 48q9 42 20 100q5 40 21 119q3 10 8 30q7 24 11 67q6 58 46 58q6 0 18 -2q26 -2 37 -2h40q22 0 22 -23q0 -10 -5 -26q-12 -40 -20 -94q-3 -15 -6.5 -36t-11.5 -63q-6 -21 -8 -41q-3 -27 -10 -57q-2 -13 -7.5 -37.5t-11.5 -56.5
q-4 -44 -5 -46q-7 -28 -29 -28q-4 0 -28.5 1t-29.5 1h-21q-18 -1 -22 -1q-30 0 -30 24zM307 566h-18q-39 0 -48 -1q-1 0 -4 -1h-5q-13 0 -16 10q-1 1 0 10q0 16 -10 16q-9 0 -17 -7l-24 -21q-10 -7 -33 -7h-61q-27 0 -27 13q0 11 23 32q12 11 47 47q52 54 67 54q3 0 23.5 -1
t24.5 -1q3 0 20 1t20 1q16 0 22 -14q13 -38 32 -90q5 -17 5 -21q0 -20 -21 -20z" />
    <glyph glyph-name="idieresis" unicode="&#xef;" horiz-adv-x="229" 
d="M15 25q0 12 6 32q7 27 8 33q3 14 8 48q9 42 20 100q5 40 21 119q3 10 8 30q7 24 11 67q6 58 46 58q6 0 18 -2q26 -2 37 -2h40q22 0 22 -23q0 -10 -5 -26q-12 -40 -20 -94q-3 -15 -6.5 -36t-11.5 -63q-6 -21 -8 -41q-3 -27 -10 -57q-2 -13 -7.5 -37.5t-11.5 -56.5
q-4 -44 -5 -46q-7 -28 -29 -28q-4 0 -28.5 1t-29.5 1h-21q-18 -1 -22 -1q-30 0 -30 24zM114 688q26 0 46 3q13 2 22 2q21 0 21 -20q0 -9 -6 -23q-4 -24 -8 -47q-8 -29 -29 -29q-3 0 -18.5 1t-18.5 1q-4 0 -28.5 -1t-29.5 -1q-30 0 -30 22q0 2 10 40q1 9 5 27q6 27 31 27
q2 0 16 -1t17 -1zM380 693q20 0 20 -24q0 2 -11 -48q-1 -9 -5 -25q-6 -21 -29 -21q-3 0 -25 1t-26 1h-22q-18 -1 -22 -1q-27 0 -27 24q0 3 6 21q7 31 9 33q0 13 5.5 25t28.5 12q4 0 24.5 -1t23.5 -1q5 0 16 1h15q5 2 19 3z" />
    <glyph glyph-name="eth" unicode="&#xf0;" horiz-adv-x="583" 
d="M580 308v-11q0 -1 -1 -11t-1 -12q0 -1 1 -8v-8q0 -15 -9 -44q-3 -7 -7 -19q-1 -5 -3 -14q-7 -28 -21 -46q-5 -6 -15 -19q-4 -7 -14 -23t-59 -58q-40 -27 -75 -34q-22 -5 -56 -10q-13 -2 -41 -2q-54 0 -116 25q-22 9 -40 24q-6 7 -19 20q-20 19 -29 39l-6 15l-12 21
q-4 10 -8 40q0 4 -2.5 14t-2.5 15q-1 2 -1 6q0 26 9 75q7 40 16 56q4 7 13 20l9 18t25 40q16 23 42 41q5 3 14 9.5l27 19.5q30 17 67 23q6 0 19 1q1 0 9 1t10 1q16 0 37 -6q3 -1 8 -2.5t11 -3.5q2 0 6.5 -2.5t7.5 -2.5q9 0 9 6q0 -5 -8 19q-10 10 -13 19q-9 14 -22 14h-9
q-7 -1 -10 -1q-1 0 -11 1t-12 1q-3 0 -24 -2t-25 -2q-11 0 -18 5q-13 8 -23 33q-8 21 -8 33q0 20 17 20q2 0 13.5 -2t13.5 -2t18 1h18q1 0 11.5 -1t12.5 -1q10 0 10 8q0 -2 -3 7q-4 6 -12 17.5t-8 19.5q0 10 10 14t22 4q4 0 23 -2t22 -2q4 0 30.5 1.5t31.5 1.5q22 0 36 -26
q17 -33 26 -39q36 -3 37 -3t11 1t12 1q14 0 19 -11q1 -4 3 -13q12 -46 12 -45q0 -17 -15 -17q-1 0 -10 1h-11q-14 0 -14 -9q0 -5 7 -20q2 -5 14 -42q5 -12 12 -36q1 -12 4 -35q4 -14 9 -43q1 -18 1 -40q0 -16 -2 -22zM326 380q-19 0 -47 -14q-16 -8 -25 -16q-16 -13 -28 -37
q-14 -28 -14 -29q-10 -27 -10 -65q0 -35 24.5 -63t71.5 -28q37 0 71 29q29 24 41 70q10 36 10 50q0 28 -6 44q0 1 -5 11.5t-6 11.5q-36 36 -77 36z" />
    <glyph glyph-name="ntilde" unicode="&#xf1;" 
d="M270 462q7 0 29 20q6 6 17 11q46 23 86 23q36 0 72 -22q18 -11 33 -46q12 -27 12 -70q0 -24 -12 -83q-6 -37 -21 -111q-3 -14 -10 -40q-10 -42 -10 -68q0 -36 -12.5 -56t-40.5 -20q-3 0 -22.5 2t-23.5 2q-2 0 -19 -1.5t-20 -1.5q-30 0 -30 25q0 8 8 32q6 18 10 47
q5 36 8 48q6 17 15 52q2 9 5 29q16 88 16 82q0 21 -15.5 33t-34.5 12q-28 0 -52 -17q-16 -11 -32 -60q-4 -16 -10 -47q-2 -9 -4 -22q-4 -17 -9 -41q-4 -20 -13 -63q-9 -30 -14 -61.5t-10 -39.5t-17 -8q1 0 -18 3q-6 1 -21 1q-3 0 -25.5 -2t-26.5 -2q-37 0 -37 31q0 5 18 80
q5 41 22 120q2 5 5 15.5t4 15.5q3 20 8 49q2 16 2 22q4 26 10 51q3 11 9 32q3 29 8 60.5t35 31.5q5 0 29 -1.5t28 -1.5q-1 0 21 1l22 1q25 0 25 -15q0 -2 -2.5 -12.5t-2.5 -12.5q0 -7 8 -7zM206 581h-21l-15 -3q-16 0 -16 14q0 12 13 47q5 14 18 33q27 41 75 41q21 0 46 -7
q92 -26 94 -26q20 0 27 15.5t17 15.5q4 0 7 -1h16q14 -1 21 -1q34 1 35 1q6 2 16 2q12 0 12 -14q0 -28 -22 -68q-31 -59 -85 -59q-47 0 -109 20q-28 9 -35 9q-11 0 -16.5 -5.5l-10 -10t-12.5 -4.5q-4 0 -27 1h-28z" />
    <glyph glyph-name="ograve" unicode="&#xf2;" horiz-adv-x="583" 
d="M580 255v-8q0 -9 -11 -46q-14 -43 -27 -65q-25 -40 -38 -56q-21 -26 -55 -48t-65 -30q-12 -2 -36 -7q-36 -7 -65 -7q-42 0 -88 14q-32 10 -41 16q-31 16 -51 42l-7 7q-7 7 -27 47q-7 10 -17 38q-3 17 -6 44q-1 2 -1 17q0 43 17 104q5 19 22 46q2 4 14 25q25 45 59 68
q5 3 15 10q7 6 21.5 17t51.5 23q41 14 123 14q14 0 21 -1q38 -6 73 -20q19 -8 47.5 -32t40 -41t24.5 -61q1 -2 2 -7.5t2 -9.5t3 -13t2 -66q0 -8 -3 -14zM327 380q-19 0 -46 -14q-21 -10 -26 -15q-27 -23 -43 -71q-9 -28 -9 -62q0 -32 23.5 -61t69.5 -29q18 0 43 11
q34 14 50 38q13 20 22 51q10 36 10 50q0 16 -2 28q-4 23 -16 40q-24 34 -76 34zM260 691q0 19 35 19q4 0 27.5 -1t28.5 -1h34q30 0 37 -4.5t12 -26.5q3 -12 10 -33q13 -38 13 -55q0 -23 -25 -24h-34q-2 0 -19 -1t-20 -1q-17 0 -26 14q-2 4 -29 39q-44 57 -44 75z" />
    <glyph glyph-name="oacute" unicode="&#xf3;" horiz-adv-x="583" 
d="M580 255v-8q0 -9 -11 -46q-14 -43 -27 -65q-25 -40 -38 -56q-21 -26 -55 -48t-65 -30q-12 -2 -36 -7q-36 -7 -65 -7q-42 0 -88 14q-32 10 -41 16q-31 16 -51 42l-7 7q-7 7 -27 47q-7 10 -17 38q-3 17 -6 44q-1 2 -1 17q0 43 17 104q5 19 22 46q2 4 14 25q25 45 59 68
q5 3 15 10q7 6 21.5 17t51.5 23q41 14 123 14q14 0 21 -1q38 -6 73 -20q19 -8 47.5 -32t40 -41t24.5 -61q1 -2 2 -7.5t2 -9.5t3 -13t2 -66q0 -8 -3 -14zM327 380q-19 0 -46 -14q-21 -10 -26 -15q-27 -23 -43 -71q-9 -28 -9 -62q0 -32 23.5 -61t69.5 -29q18 0 43 11
q34 14 50 38q13 20 22 51q10 36 10 50q0 16 -2 28q-4 23 -16 40q-24 34 -76 34zM470 706q3 0 21 1.5t21 1.5q30 0 30 -13q0 -20 -63 -82q-12 -11 -34 -32t-38 -21q-1 0 -12 1h-12h-16q-14 -1 -17 -1q-29 0 -29 19t39 89q13 24 21.5 31.5t28.5 7.5q4 0 29.5 -1t30.5 -1z" />
    <glyph glyph-name="ocircumflex" unicode="&#xf4;" horiz-adv-x="583" 
d="M580 255v-8q0 -9 -11 -46q-14 -43 -27 -65q-25 -40 -38 -56q-21 -26 -55 -48t-65 -30q-12 -2 -36 -7q-36 -7 -65 -7q-42 0 -88 14q-32 10 -41 16q-31 16 -51 42l-7 7q-7 7 -27 47q-7 10 -17 38q-3 17 -6 44q-1 2 -1 17q0 43 17 104q5 19 22 46q2 4 14 25q25 45 59 68
q5 3 15 10q7 6 21.5 17t51.5 23q41 14 123 14q14 0 21 -1q38 -6 73 -20q19 -8 47.5 -32t40 -41t24.5 -61q1 -2 2 -7.5t2 -9.5t3 -13t2 -66q0 -8 -3 -14zM327 380q-19 0 -46 -14q-21 -10 -26 -15q-27 -23 -43 -71q-9 -28 -9 -62q0 -32 23.5 -61t69.5 -29q18 0 43 11
q34 14 50 38q13 20 22 51q10 36 10 50q0 16 -2 28q-4 23 -16 40q-24 34 -76 34zM484 566h-18q-39 0 -48 -1q-1 0 -4 -1h-5q-13 0 -16 10q-1 1 0 10q0 16 -10 16q-9 0 -17 -7l-24 -21q-10 -7 -33 -7h-61q-27 0 -27 13q0 11 23 32q12 11 47 47q52 54 67 54q3 0 23.5 -1
t24.5 -1q3 0 20 1t20 1q16 0 22 -14q13 -38 32 -90q5 -17 5 -21q0 -20 -21 -20z" />
    <glyph glyph-name="otilde" unicode="&#xf5;" horiz-adv-x="583" 
d="M580 255v-8q0 -9 -11 -46q-14 -43 -27 -65q-25 -40 -38 -56q-21 -26 -55 -48t-65 -30q-12 -2 -36 -7q-36 -7 -65 -7q-42 0 -88 14q-32 10 -41 16q-31 16 -51 42l-7 7q-7 7 -27 47q-7 10 -17 38q-3 17 -6 44q-1 2 -1 17q0 43 17 104q5 19 22 46q2 4 14 25q25 45 59 68
q5 3 15 10q7 6 21.5 17t51.5 23q41 14 123 14q14 0 21 -1q38 -6 73 -20q19 -8 47.5 -32t40 -41t24.5 -61q1 -2 2 -7.5t2 -9.5t3 -13t2 -66q0 -8 -3 -14zM327 380q-19 0 -46 -14q-21 -10 -26 -15q-27 -23 -43 -71q-9 -28 -9 -62q0 -32 23.5 -61t69.5 -29q18 0 43 11
q34 14 50 38q13 20 22 51q10 36 10 50q0 16 -2 28q-4 23 -16 40q-24 34 -76 34zM238 581h-21l-15 -3q-16 0 -16 14q0 12 13 47q5 14 18 33q27 41 75 41q21 0 46 -7q92 -26 94 -26q20 0 27 15.5t17 15.5q4 0 7 -1h16q14 -1 21 -1q34 1 35 1q6 2 16 2q12 0 12 -14
q0 -28 -22 -68q-31 -59 -85 -59q-47 0 -109 20q-28 9 -35 9q-11 0 -16.5 -5.5l-10 -10t-12.5 -4.5q-4 0 -27 1h-28z" />
    <glyph glyph-name="odieresis" unicode="&#xf6;" horiz-adv-x="583" 
d="M580 255v-8q0 -9 -11 -46q-14 -43 -27 -65q-25 -40 -38 -56q-21 -26 -55 -48t-65 -30q-12 -2 -36 -7q-36 -7 -65 -7q-42 0 -88 14q-32 10 -41 16q-31 16 -51 42l-7 7q-7 7 -27 47q-7 10 -17 38q-3 17 -6 44q-1 2 -1 17q0 43 17 104q5 19 22 46q2 4 14 25q25 45 59 68
q5 3 15 10q7 6 21.5 17t51.5 23q41 14 123 14q14 0 21 -1q38 -6 73 -20q19 -8 47.5 -32t40 -41t24.5 -61q1 -2 2 -7.5t2 -9.5t3 -13t2 -66q0 -8 -3 -14zM327 380q-19 0 -46 -14q-21 -10 -26 -15q-27 -23 -43 -71q-9 -28 -9 -62q0 -32 23.5 -61t69.5 -29q18 0 43 11
q34 14 50 38q13 20 22 51q10 36 10 50q0 16 -2 28q-4 23 -16 40q-24 34 -76 34zM304 688q26 0 46 3q13 2 22 2q21 0 21 -20q0 -9 -6 -23q-4 -24 -8 -47q-8 -29 -29 -29q-3 0 -18.5 1t-18.5 1q-4 0 -28.5 -1t-29.5 -1q-30 0 -30 22q0 2 10 40q1 9 5 27q6 27 31 27q2 0 16 -1
t17 -1zM570 693q20 0 20 -24q0 2 -11 -48q-1 -9 -5 -25q-6 -21 -29 -21q-3 0 -25 1t-26 1h-22q-18 -1 -22 -1q-27 0 -27 24q0 3 6 21q7 31 9 33q0 13 5.5 25t28.5 12q4 0 24.5 -1t23.5 -1q5 0 16 1h15q5 2 19 3z" />
    <glyph glyph-name="oslash" unicode="&#xf8;" horiz-adv-x="583" 
d="M455 499q5 0 15 12q7 11 18.5 25t18.5 14q6 0 12 -3.5t16 -11.5q6 -3 15 -10t9 -15q0 -6 -12 -22q-11 -12 -16 -16q-7 -9 -7 -13q0 -2 2 -6q12 -12 13 -14q21 -27 35 -64q15 -40 15 -72q0 -40 -13 -86q-14 -49 -25 -70q-8 -14 -37 -49q-16 -20 -51 -54q-76 -56 -194 -56
q-46 0 -85 13q-6 2 -9 2q-11 0 -22 -22q-22 -35 -33 -35q-5 0 -10.5 3.5t-15 9t-19.5 10.5t-10 15q0 7 16 22q28 27 28 41q0 4 -6 9q-22 19 -27 28q-16 27 -25 58q-6 21 -6 47q0 2 1 14t1 14v10q-1 9 -1 10q0 5 2 17q5 28 27 79q20 46 48 74q18 18 21 22q25 28 79 54
q24 12 70 24q43 11 57 11q-2 0 25 -3q22 0 31 -2.5t26 -6.5q5 -1 14.5 -4t8.5 -3zM334 379q-37 0 -76 -29t-53 -75q-9 -30 -9 -65q0 -37 11 -37q7 0 10.5 6t35.5 49t34 45q7 10 21 28q4 5 11 14q4 5 10.5 14.5t21.5 29.5q7 7 7 12q0 8 -24 8zM431 267q0 54 -13 54l-6.5 -8
t-10.5 -13q-20 -23 -52 -65q-15 -23 -59 -75q-18 -27 -18 -34q0 -6 17 -6q19 0 45 8.5t44 27.5q53 56 53 111z" />
    <glyph glyph-name="ugrave" unicode="&#xf9;" 
d="M43 113q0 23 7 61l27 126q4 22 13 64q16 61 20 94q7 50 36 50q4 0 17 -1q34 -2 25 -2q7 0 20 1t20 1q33 0 39 -6.5t6 -17.5q0 -5 -7 -30t-8 -28q-1 -7 -3 -22q-2 -9 -7 -27l-6 -21q0 -2 -3 -18q-2 -7 -4 -21q-1 -10 -4 -30q-2 -7 -6 -23q0 -6 -2 -17q-1 -4 -4 -11
q-12 -40 -12 -65q0 -38 38 -38q34 0 64 40q21 28 29 61q6 26 17 79q5 19 13 58q7 32 16 75q1 11 3 24q6 38 38 38q7 0 21.5 -2t21.5 -2q3 0 17 1.5t16 1.5q42 0 42 -31q0 -7 -9 -37q-2 -7 -4 -20.5t-6 -41.5q-4 -15 -12 -46q-16 -68 -43 -204q-1 -9 -4 -27q-3 -14 -8 -42
q-4 -55 -37 -55q-3 0 -20 1.5t-20 1.5q-4 0 -26.5 -2.5t-26.5 -2.5q-33 0 -33 14q0 2 2 10t2 9q0 9 -10 9q-9 0 -22 -14q-10 -10 -21 -15q-43 -18 -75 -18q-27 0 -56 13t-47 35q-12 15 -14 24q0 1 -3 14q-1 1 -5 13q-2 5 -2 19zM228 691q0 19 35 19q4 0 27.5 -1t28.5 -1h34
q30 0 37 -4.5t12 -26.5q3 -12 10 -33q13 -38 13 -55q0 -23 -25 -24h-34q-2 0 -19 -1t-20 -1q-17 0 -26 14q-2 4 -29 39q-44 57 -44 75z" />
    <glyph glyph-name="uacute" unicode="&#xfa;" 
d="M43 113q0 23 7 61l27 126q4 22 13 64q16 61 20 94q7 50 36 50q4 0 17 -1q34 -2 25 -2q7 0 20 1t20 1q33 0 39 -6.5t6 -17.5q0 -5 -7 -30t-8 -28q-1 -7 -3 -22q-2 -9 -7 -27l-6 -21q0 -2 -3 -18q-2 -7 -4 -21q-1 -10 -4 -30q-2 -7 -6 -23q0 -6 -2 -17q-1 -4 -4 -11
q-12 -40 -12 -65q0 -38 38 -38q34 0 64 40q21 28 29 61q6 26 17 79q5 19 13 58q7 32 16 75q1 11 3 24q6 38 38 38q7 0 21.5 -2t21.5 -2q3 0 17 1.5t16 1.5q42 0 42 -31q0 -7 -9 -37q-2 -7 -4 -20.5t-6 -41.5q-4 -15 -12 -46q-16 -68 -43 -204q-1 -9 -4 -27q-3 -14 -8 -42
q-4 -55 -37 -55q-3 0 -20 1.5t-20 1.5q-4 0 -26.5 -2.5t-26.5 -2.5q-33 0 -33 14q0 2 2 10t2 9q0 9 -10 9q-9 0 -22 -14q-10 -10 -21 -15q-43 -18 -75 -18q-27 0 -56 13t-47 35q-12 15 -14 24q0 1 -3 14q-1 1 -5 13q-2 5 -2 19zM438 706q3 0 21 1.5t21 1.5q30 0 30 -13
q0 -20 -63 -82q-12 -11 -34 -32t-38 -21q-1 0 -12 1h-12h-16q-14 -1 -17 -1q-29 0 -29 19t39 89q13 24 21.5 31.5t28.5 7.5q4 0 29.5 -1t30.5 -1z" />
    <glyph glyph-name="ucircumflex" unicode="&#xfb;" 
d="M43 113q0 23 7 61l27 126q4 22 13 64q16 61 20 94q7 50 36 50q4 0 17 -1q34 -2 25 -2q7 0 20 1t20 1q33 0 39 -6.5t6 -17.5q0 -5 -7 -30t-8 -28q-1 -7 -3 -22q-2 -9 -7 -27l-6 -21q0 -2 -3 -18q-2 -7 -4 -21q-1 -10 -4 -30q-2 -7 -6 -23q0 -6 -2 -17q-1 -4 -4 -11
q-12 -40 -12 -65q0 -38 38 -38q34 0 64 40q21 28 29 61q6 26 17 79q5 19 13 58q7 32 16 75q1 11 3 24q6 38 38 38q7 0 21.5 -2t21.5 -2q3 0 17 1.5t16 1.5q42 0 42 -31q0 -7 -9 -37q-2 -7 -4 -20.5t-6 -41.5q-4 -15 -12 -46q-16 -68 -43 -204q-1 -9 -4 -27q-3 -14 -8 -42
q-4 -55 -37 -55q-3 0 -20 1.5t-20 1.5q-4 0 -26.5 -2.5t-26.5 -2.5q-33 0 -33 14q0 2 2 10t2 9q0 9 -10 9q-9 0 -22 -14q-10 -10 -21 -15q-43 -18 -75 -18q-27 0 -56 13t-47 35q-12 15 -14 24q0 1 -3 14q-1 1 -5 13q-2 5 -2 19zM452 566h-18q-39 0 -48 -1q-1 0 -4 -1h-5
q-13 0 -16 10q-1 1 0 10q0 16 -10 16q-9 0 -17 -7l-24 -21q-10 -7 -33 -7h-61q-27 0 -27 13q0 11 23 32q12 11 47 47q52 54 67 54q3 0 23.5 -1t24.5 -1q3 0 20 1t20 1q16 0 22 -14q13 -38 32 -90q5 -17 5 -21q0 -20 -21 -20z" />
    <glyph glyph-name="udieresis" unicode="&#xfc;" 
d="M43 113q0 23 7 61l27 126q4 22 13 64q16 61 20 94q7 50 36 50q4 0 17 -1q34 -2 25 -2q7 0 20 1t20 1q33 0 39 -6.5t6 -17.5q0 -5 -7 -30t-8 -28q-1 -7 -3 -22q-2 -9 -7 -27l-6 -21q0 -2 -3 -18q-2 -7 -4 -21q-1 -10 -4 -30q-2 -7 -6 -23q0 -6 -2 -17q-1 -4 -4 -11
q-12 -40 -12 -65q0 -38 38 -38q34 0 64 40q21 28 29 61q6 26 17 79q5 19 13 58q7 32 16 75q1 11 3 24q6 38 38 38q7 0 21.5 -2t21.5 -2q3 0 17 1.5t16 1.5q42 0 42 -31q0 -7 -9 -37q-2 -7 -4 -20.5t-6 -41.5q-4 -15 -12 -46q-16 -68 -43 -204q-1 -9 -4 -27q-3 -14 -8 -42
q-4 -55 -37 -55q-3 0 -20 1.5t-20 1.5q-4 0 -26.5 -2.5t-26.5 -2.5q-33 0 -33 14q0 2 2 10t2 9q0 9 -10 9q-9 0 -22 -14q-10 -10 -21 -15q-43 -18 -75 -18q-27 0 -56 13t-47 35q-12 15 -14 24q0 1 -3 14q-1 1 -5 13q-2 5 -2 19zM263 687q26 0 46 3q13 2 22 2q21 0 21 -20
q0 -9 -6 -23q-4 -24 -8 -47q-8 -29 -29 -29q-3 0 -18.5 1t-18.5 1q-4 0 -28.5 -1t-29.5 -1q-30 0 -30 22q0 2 10 40q1 9 5 27q6 27 31 27q2 0 16 -1t17 -1zM529 692q20 0 20 -24q0 2 -11 -48q-1 -9 -5 -25q-6 -21 -29 -21q-3 0 -25 1t-26 1h-22q-18 -1 -22 -1q-27 0 -27 24
q0 3 6 21q7 31 9 33q0 13 5.5 25t28.5 12q4 0 24.5 -1t23.5 -1q5 0 16 1h15q5 2 19 3z" />
    <glyph glyph-name="yacute" unicode="&#xfd;" horiz-adv-x="458" 
d="M50 469v9q0 33 29 33q3 0 18 -2q22 -3 39 -3q3 0 20.5 1.5t20.5 1.5q22 0 30 -16q5 -11 12 -58q1 -10 4 -31q12 -69 12 -68q2 -16 8 -41q3 -11 10 -62q5 -38 11 -38q2 0 4 10q1 7 5 15q3 13 10 39q10 32 31 95q18 55 18 68q0 2 -2 14l-2.5 15t-0.5 11q0 21 5 26
q8 19 32 19h13q8 -1 42 -1q2 0 19 1h19q38 0 38 -46q0 -29 -24 -87q-8 -15 -21 -45q-1 -2 -11 -30q-44 -120 -89 -207q-9 -16 -26 -48q-29 -63 -49 -76q-6 -3 -17 -9q-18 -10 -25 -13q-1 0 -36 -5q-10 -2 -30 -5q-9 0 -16 1h-16q-4 0 -25.5 -1.5t-25.5 -1.5q-8 0 -12 1
q-24 3 -26 3h-17q-30 0 -30 20q0 3 3 18.5t3 18.5q0 15 2 43q5 24 25 24q1 0 29 -4.5t34 -4.5q12 0 25 6q26 12 26 37v6q-10 31 -23 74.5t-25 80.5q-16 49 -29 123q-3 16 -9 49q-4 13 -10 40zM377 706q3 0 21 1.5t21 1.5q30 0 30 -13q0 -20 -63 -82q-12 -11 -34 -32t-38 -21
q-1 0 -12 1h-12h-16q-14 -1 -17 -1q-29 0 -29 19t39 89q13 24 21.5 31.5t28.5 7.5q4 0 29.5 -1t30.5 -1z" />
    <glyph glyph-name="thorn" unicode="&#xfe;" horiz-adv-x="583" 
d="M500 70q0 -1 -17 -16q-9 -8 -26 -24q-23 -19 -60 -29q-46 -13 -68 -13q-42 0 -64 8q-10 3 -27 9q-12 4 -17 8l-8 5q-20 13 -25 13q-6 0 -9 -6q-12 -21 -21 -84q0 -8 -5 -26q0 -4 -3 -10q-8 -18 -25 -18q-12 2 -21 2.5t-28 0.5q-11 0 -31 -2q-10 -2 -16 -2q-29 0 -29 28
q0 -4 6 39q3 21 11 49q7 41 23 121q9 38 27 116q5 24 13 72q12 64 25 133q3 11 8 33q11 52 31 155q3 20 16 56q9 16 30 16q3 0 20 -1.5t20 -1.5q5 0 16.5 1t16.5 1q45 0 45 -26q0 8 -9 -48q-1 -11 -5 -31q-6 -30 -21 -89q-2 -7 -2 -11q0 -13 9 -13q6 0 16 5q14 6 16 7
q45 20 97 20q11 0 33 -6q12 -3 28 -8q21 -10 39 -24q33 -33 34 -35q17 -22 28 -51q9 -25 12 -45q0 -7 1 -22q0 -2 1.5 -15.5t1.5 -16.5q0 6 -6 -44q-1 -11 -4 -31q-2 -8 -7 -22q-2 -10 -8 -28q-12 -34 -30 -60q-13 -17 -32 -39zM336 375q-5 0 -23 -5q-12 -3 -38 -19
q-17 -16 -22.5 -28t-15.5 -37q-3 -6 -8 -19q-9 -29 -9 -54q0 -27 13 -46q8 -10 25 -25q19 -11 50 -11q16 0 38 10q18 9 24 16q20 17 33 47q11 24 15 43q2 9 2 53q0 23 -17 47q-10 14 -29 22q-9 4 -38 6z" />
    <glyph glyph-name="ydieresis" unicode="&#xff;" horiz-adv-x="458" 
d="M50 469v9q0 33 29 33q3 0 18 -2q22 -3 39 -3q3 0 20.5 1.5t20.5 1.5q22 0 30 -16q5 -11 12 -58q1 -10 4 -31q12 -69 12 -68q2 -16 8 -41q3 -11 10 -62q5 -38 11 -38q2 0 4 10q1 7 5 15q3 13 10 39q10 32 31 95q18 55 18 68q0 2 -2 14l-2.5 15t-0.5 11q0 21 5 26
q8 19 32 19h13q8 -1 42 -1q2 0 19 1h19q38 0 38 -46q0 -29 -24 -87q-8 -15 -21 -45q-1 -2 -11 -30q-44 -120 -89 -207q-9 -16 -26 -48q-29 -63 -49 -76q-6 -3 -17 -9q-18 -10 -25 -13q-1 0 -36 -5q-10 -2 -30 -5q-9 0 -16 1h-16q-4 0 -25.5 -1.5t-25.5 -1.5q-8 0 -12 1
q-24 3 -26 3h-17q-30 0 -30 20q0 3 3 18.5t3 18.5q0 15 2 43q5 24 25 24q1 0 29 -4.5t34 -4.5q12 0 25 6q26 12 26 37v6q-10 31 -23 74.5t-25 80.5q-16 49 -29 123q-3 16 -9 49q-4 13 -10 40zM198 688q26 0 46 3q13 2 22 2q21 0 21 -20q0 -9 -6 -23q-4 -24 -8 -47
q-8 -29 -29 -29q-3 0 -18.5 1t-18.5 1q-4 0 -28.5 -1t-29.5 -1q-30 0 -30 22q0 2 10 40q1 9 5 27q6 27 31 27q2 0 16 -1t17 -1zM464 693q20 0 20 -24q0 2 -11 -48q-1 -9 -5 -25q-6 -21 -29 -21q-3 0 -25 1t-26 1h-22q-18 -1 -22 -1q-27 0 -27 24q0 3 6 21q7 31 9 33
q0 13 5.5 25t28.5 12q4 0 24.5 -1t23.5 -1q5 0 16 1h15q5 2 19 3z" />
    <glyph glyph-name="dotlessi" unicode="&#x131;" horiz-adv-x="229" 
d="M15 25q0 12 6 32q7 27 8 33q3 14 8 48q9 42 20 100q5 40 21 119q3 10 8 30q7 24 11 67q6 58 46 58q6 0 18 -2q26 -2 37 -2h40q22 0 22 -23q0 -10 -5 -26q-12 -40 -20 -94q-3 -15 -6.5 -36t-11.5 -63q-6 -21 -8 -41q-3 -27 -10 -57q-2 -13 -7.5 -37.5t-11.5 -56.5
q-4 -44 -5 -46q-7 -28 -29 -28q-4 0 -28.5 1t-29.5 1h-21q-18 -1 -22 -1q-30 0 -30 24z" />
    <glyph glyph-name="Lslash" unicode="&#x141;" horiz-adv-x="479" 
d="M112 490q1 4 4.5 23t3.5 22q5 18 7 32.5t7 45.5l6 24q1 9 4 27l6 21q2 11 8 16q11 8 42 8h26h2q0 -1 1 -1h10q20 0 36 1q32 2 24 2q2 0 11 -2q17 -4 17 -18l-6.5 -21t-13.5 -58l-8 -40q-3 -16 -8 -34q-8 -30 -8 -41q0 -9 7 -9q-1 0 22 8q13 5 43 19q19 9 28 9
q20 0 20 -22q0 -6 -8 -35q-2 -13 -8 -41q-3 -8 -16 -22l-33 -12q-6 -4 -19 -11t-33 -12q-9 -2 -27 -14q-6 -5 -8 -17q-1 -3 -4.5 -19.5t-4.5 -19.5q-9 -46 -17 -76q-5 -18 -5 -33q0 -33 42 -33q3 0 20.5 1t21.5 1h23q7 0 26 -2q10 -1 30 -1h11q3 0 9 1t10.5 1t13.5 1h14
q26 0 26 -24q0 -4 -6.5 -25t-6.5 -22q0 -21 -11 -58q-8 -28 -33 -28q-3 0 -25.5 1t-26.5 1t-30 -1t-31 -1q-10 0 -30 1t-31 1h-20q-18 -1 -21 -1t-19 1t-19 1q-15 0 -44 -2t-44 -2q-50 0 -50 41q0 17 10 55q16 63 22 97q3 27 9 64q3 10 3 9q0 11 -8 11q-1 0 -6 -4t-10 -4
q-15 0 -15 16q0 9 5 23t8 32q6 32 9.5 39.5t19 14t22 10.5t9 14.5t4.5 26.5q2 11 11 44z" />
    <glyph glyph-name="lslash" unicode="&#x142;" horiz-adv-x="229" 
d="M23 285q0 8 8 36q3 10 7 31t6 26t10 10l15 6q21 9 28 47q4 24 9 58q4 14 11 44q2 14 5 42q5 23 14 68q6 29 15 40t32 11q7 0 21 -1.5t20 -1.5q1 0 6 1h8q6 1 15 1q44 0 44 -27q0 -7 -4 -22q-4 -23 -10 -55q-3 -10 -9 -32q-1 -6 -3 -18.5t-3 -19.5q-1 -2 -11 -46
q0 -8 7 -8l10 5q5 3 10 3q15 0 15 -17q0 -4 -11 -37l-6 -36q-5 -22 -17 -28q-7 -2 -20.5 -6.5t-15.5 -22.5q-2 -14 -4 -21q-5 -17 -12 -52l-6 -42q-4 -16 -12 -49q-1 -11 -5 -34q-7 -29 -18 -88q-4 -29 -8 -37q-6 -14 -22 -14q-11 0 -21 1q-30 3 -37 3q-3 0 -22 -1.5
t-23 -1.5q-28 0 -28 26q0 2 1 4v4q3 10 8 30q0 1 7 38q2 9 6 28q2 15 8 42t16 83q0 7 1 10t2 5.5t1 3.5q-1 2 -3 2q-1 0 -10 -3t-11 -3q-14 0 -14 15z" />
    <glyph glyph-name="OE" unicode="&#x152;" horiz-adv-x="979" 
d="M426 -11h-79q-42 0 -95 19q-31 11 -42 18q-23 14 -53 40q-17 14 -40 49q-19 28 -25 43l-12 36q-3 7 -9 22q-11 29 -11 91q0 19 8 64q13 72 29 107q36 76 109 145q59 55 144 80q55 16 100 16q25 0 74 -5q23 -4 69 -9q7 0 20 -1q4 0 24 1.5t23 1.5q7 0 43.5 -2t42.5 -2
q5 0 35 1t36 1h26q23 -1 27 -1q5 0 29.5 1.5t28.5 1.5q11 0 38.5 -1t37.5 -1q29 -4 29 -28q0 -2 -6 -26q-1 -2 -6 -23l-3 -34q-7 -41 -42 -41l-18 2q-9 1 -34 1h-66q-7 0 -43 1.5t-41 1.5q-1 0 -9 1t-10 1q-11 0 -16.5 -7.5t-10.5 -34.5q-1 -9 -7 -32q0 2 -1 -22
q0 -22 37 -23q3 0 9 -1q-1 0 23 -3q3 -1 9 -1q4 0 28 1t29 1q4 0 28 -1t29 -1q3 0 21 1.5t21 1.5q33 0 33 -28q0 -8 -7 -27.5t-8 -42.5q-2 -48 -34 -48q-7 0 -53.5 1.5t-55.5 1.5q-4 0 -28.5 -2t-29.5 -2q-3 0 -23.5 1.5t-24.5 1.5q-29 0 -40 -17q-7 -10 -13 -45
q-5 -29 -5 -36q0 -24 4 -31q5 -10 22 -10q4 0 16 -2t21 -2q7 0 19 1h19q3 0 20.5 -1t21.5 -1q66 2 67 3q36 3 35 3q54 0 54 -29q0 -4 -5 -24t-5 -23q-2 -16 -7 -48q-9 -37 -37 -37q-2 0 -13.5 1t-13.5 1q-6 2 -54 2h-16q-11 -1 -17 -1q-3 0 -10 1h-10.5h-19.5q-16 -1 -19 -1
t-21 1h-21h-93q4 0 -119 -7q-7 0 -26.5 -2.5t-30.5 -2.5zM564 503q0 28 -44 43q-33 11 -70 11q-71 0 -115 -37q-10 -8 -28 -23q-20 -18 -39.5 -58t-24.5 -69q-6 -33 -6 -67q0 -45 25 -88q21 -37 46.5 -54t85.5 -17q24 0 48 8q41 14 55 32q9 12 10 33q1 15 4.5 29.5
t12.5 46.5q2 11 5 34q4 18 12 53q10 42 19 99q4 21 4 24z" />
    <glyph glyph-name="oe" unicode="&#x153;" horiz-adv-x="833" 
d="M305 -8h-15q-3 0 -19 -2q-5 0 -12 -1h-8q-2 0 -28 4.5t-27 4.5q-35 8 -64 30q-34 26 -43 42q-4 4 -18 30t-17 35q-10 32 -10 58q0 7 2 21v9q-1 8 -1 9q0 21 3 32q0 2 5 19t5 20q4 11 13.5 35.5t23 46.5t52.5 61q20 20 47.5 34.5t58.5 24.5q72 12 83 12q16 0 76 -15
q6 -1 24 -10q34 -22 48 -22q10 0 19 5q14 10 51 27q52 17 88 17t84 -10q22 -5 38 -14q73 -42 73 -134q0 -9 -2 -27t-2 -27q0 -2 1 -11v-11q0 -26 -7.5 -46t-20.5 -25q-8 -4 -30 -4q-5 0 -34 -1t-35 -1q-25 0 -46 3h-29q-6 0 -46 1.5t-47 1.5q-22 0 -22 -22q0 -20 15 -36
q21 -23 81 -23q2 0 19 -1t20 -1q5 0 39.5 3.5t39.5 5t18 7.5q19 7 33 7q21 0 21 -16q0 -11 -15 -51q-3 -14 -3 -41q0 -34 -34 -44q-57 -16 -98 -13q-47 2 -136 10q-44 6 -71 20q-19 10 -31 10q-7 0 -12 -1l-20 -12q-11 -7 -28 -11q-3 -1 -50 -13zM641 401q1 0 -34 -5
q-22 -7 -42.5 -24t-20.5 -34q0 -19 27 -20q43 -2 99 -2q13 0 22 10t9 23q0 34 -28 46q-14 6 -32 6zM309 366q-13 0 -19 -3q-20 -7 -37 -19q-21 -15 -32 -39q-2 -5 -8 -17q-15 -23 -15 -67q0 -30 10 -47q13 -22 32 -31.5t41 -9.5q31 0 50 13t34 33q9 13 19.5 43.5t10.5 53.5
q0 33 -11 53q-20 37 -75 37z" />
    <glyph glyph-name="Scaron" unicode="&#x160;" horiz-adv-x="458" 
d="M85 503q0 48 23 98q37 81 118 109q37 13 92 13q9 0 55 -5q64 -7 94 -16q38 -11 38 -34v-5q-1 -4 -1 -5q-4 -15 -9 -45q-1 -13 -5 -38q-6 -38 -30 -38q-9 0 -40 13q-52 22 -93 22q-29 0 -49 -13q-23 -16 -23 -44q0 -16 8 -28.5t31 -33.5q8 -7 25 -21q29 -25 77 -76
q57 -61 57 -157q0 -25 -6 -51q-13 -37 -28 -58q-35 -50 -79 -71q-30 -15 -75 -23q-32 -6 -83 -6q-39 0 -86 12q-27 6 -66 18q-31 13 -31 33l3 15q10 29 14 58q1 14 5 42q6 25 26 25q11 0 28 -8q24 -11 28 -12q47 -20 96 -20q72 0 72 49q0 34 -55 81q-34 29 -44 39
q-13 14 -35 43q-14 16 -37 53q-1 6 -4 17q-4 8 -8 25q-3 9 -3 43zM359 864q8 0 17 9t28 21q3 1 34 3q20 1 62 1q20 0 20 -14q0 -5 -6.5 -17.5t-31.5 -36.5q-30 -29 -45 -47q-18 -21 -39 -21q-4 0 -16 1h-17q-3 0 -23 1h-23.5h-19.5q-17 -1 -20 -1q-20 0 -26 16q-3 7 -12 42
q-4 14 -8 23q-8 17 -8 27q0 24 28 24q2 0 13.5 -1t13.5 -1q4 0 22.5 2t21.5 2q15 0 20 -8q1 -6 6 -18q4 -7 9 -7z" />
    <glyph glyph-name="scaron" unicode="&#x161;" horiz-adv-x="417" 
d="M58 338q0 41 19 82q12 26 35 48q51 48 140 48q42 0 72 -4q7 -1 59 -11q35 -7 35 -28q0 -6 -4 -28q-5 -28 -7 -44q-4 -40 -24 -40q-7 0 -31 11q-48 22 -93 22q-43 0 -43 -29q0 -19 22 -34q14 -10 61 -24q37 -11 55 -24q47 -33 47 -100l-3 -39q-4 -21 -6 -29
q-7 -19 -19 -36q-36 -48 -79 -67q-49 -21 -139 -21q-18 0 -55 1q-16 0 -40 7q-44 12 -44 41q0 15 5 32q2 12 3 31q2 54 29 54q12 0 42 -11q57 -21 82 -21q24 0 42 10t18 28q0 8 -7 17q-6 6 -61 31q-12 4 -35 16t-32 19q-44 33 -44 92zM170 688q0 21 23 21h12q10 -1 12 -1
q3 0 26 1h27q12 0 12 -22q0 -13 11 -13q8 0 27 16q7 8 24 18q5 1 82 1q28 0 28 -15q0 -10 -31 -37l-79 -79q-16 -15 -31 -15q-2 0 -19.5 1t-20.5 1t-20.5 -1t-21.5 -1q-15 0 -19.5 5t-10.5 22q-10 28 -16 51q-15 38 -15 47z" />
    <glyph glyph-name="Ydieresis" unicode="&#x178;" horiz-adv-x="604" 
d="M251 336v2q0 11 -22 55l-9 24q-13 30 -31 73q-10 29 -33 87q-8 22 -19 52l-11 22q-14 29 -14 37q0 23 31 23q3 0 20 -2q25 -3 44 -3q9 0 27 1.5t27 1.5q27 0 40 -28q3 -5 17 -52q3 -13 11 -38q5 -16 19 -66q5 -11 10.5 -28t8.5 -17t9 14q4 10 11 19.5t25 36.5q7 8 39 55
l21 28q8 12 24.5 35.5t22.5 28.5q10 10 25 10h11q20 -4 65 -4q2 0 17 1h18q46 0 46 -20t-39 -62q-15 -19 -36 -46q-6 -8 -19 -23q-6 -8 -20 -25q-1 -2 -12 -13t-28 -36q-7 -11 -25 -30q-8 -9 -52 -69q-6 -6 -19 -20q-5 -7 -16 -20q-8 -8 -11 -13t-11.5 -44t-19.5 -90
q-7 -46 -16 -84q-3 -11 -11 -65q-5 -33 -10 -40t-26 -7q-4 0 -20 2h-13q-7 1 -8 1q-11 0 -33.5 -1.5t-33.5 -1.5q-35 0 -35 30q0 10 6 29t30 141q28 143 28 139zM233 774q0 7 7 21q7 22 9 48q2 31 26 31q55 -3 61 -3q4 0 27 1t28 1q29 0 29 -21v-5q-1 -3 -1 -5
q-4 -10 -11 -30q-1 -9 -5 -28q-2 -27 -32 -27q-4 0 -27 1t-27 1t-29 -1t-30 -1q-25 0 -25 17zM449 778q0 4 4.5 16.5t8.5 41.5q5 39 32 39q-8 0 24 -4q6 -2 19 -2q23 0 48 4q12 2 17 2q32 0 32 -25q0 -4 -6 -27q-4 -11 -8 -38q0 -7 -1 -10q-6 -17 -32 -17q-4 0 -28 1t-29 1
q-4 0 -27 -1.5t-28 -1.5q-26 0 -26 21z" />
    <glyph glyph-name="Zcaron" unicode="&#x17d;" horiz-adv-x="542" 
d="M104 577q0 1 5 19q2 7 7 48q3 27 5 32q1 9 7 18q8 15 23 15h6q4 -1 7 -1q10 -2 46 -2q5 0 34.5 1.5t35.5 1.5q8 0 24 -1t24 -1q3 0 25 1t26 1h61q27 -3 61 -3q5 0 71 4q2 0 10 1t11 1q8 0 14.5 -7t6.5 -15q0 -4 -4 -14q0 -5 -2 -15q-8 -33 -10 -56q0 -10 -5 -29
q-4 -11 -81 -110q-15 -17 -43 -53q-12 -17 -37 -50q-23 -28 -54 -67l-45 -58q-7 -8 -20 -24q-24 -32 -24 -41q0 -11 19 -11q3 0 25 1h24h19q16 -1 19 -1q2 0 15 1t16 1t20 -1t21 -1q9 0 29 2q13 3 18 3q20 0 20 -21q0 -7 -5 -25q-11 -38 -13 -65q-4 -55 -37 -55q-2 0 -14 1
t-13.5 1t-30 1t-29.5 1q-5 0 -35 -1.5t-36 -1.5q-5 0 -38 1h-39h-52q-37 -1 -52 -1q-27 0 -71 -2t-35 -2q-21 0 -21 20q0 -8 4 20q1 3 8 37q5 24 8 49q2 13 17 28q50 49 88 95q63 80 149 187q28 31 30 34q16 23 38 55q15 20 15 27q0 6 -4.5 9t-24.5 4q-5 0 -36 -1.5
t-37 -1.5q-3 0 -20 1h-21q-42 0 -82 -5q-16 -2 -19 -2q-22 0 -22 23zM390 864q8 0 17 9t28 21q3 1 34 3q20 1 62 1q20 0 20 -14q0 -5 -6.5 -17.5t-31.5 -36.5q-30 -29 -45 -47q-18 -21 -39 -21q-4 0 -16 1h-17q-3 0 -23 1h-23.5h-19.5q-17 -1 -20 -1q-20 0 -26 16
q-3 7 -12 42q-4 14 -8 23q-8 17 -8 27q0 24 28 24q2 0 13.5 -1t13.5 -1q4 0 22.5 2t21.5 2q15 0 20 -8q1 -6 6 -18q4 -7 9 -7z" />
    <glyph glyph-name="zcaron" unicode="&#x17e;" horiz-adv-x="417" 
d="M133 377h-20q-41 0 -41 24q0 6 4 16q9 30 11 58q1 5 1 12q4 23 26 23q6 0 39 -1q9 0 22.5 -1t16.5 -1q2 0 14 1t20 1q29 1 34 1q7 0 51 -2.5t52 -2.5q-6 0 38 2q3 0 18 1.5t16 1.5q29 0 29 -25q0 -9 -11 -40q-5 -15 -8 -29q-3 -17 -6.5 -22t-20.5 -21q-7 -6 -29 -34
q-12 -17 -46 -51l-29 -29q-11 -13 -31 -40q-2 -3 -6 -8.5t-7 -8.5q-8 -9 -25 -28q-9 -11 -19.5 -22.5t-10.5 -12.5v-1q0 -7 8 -5h18q4 0 27.5 1.5t28.5 1.5q4 0 27.5 -2t28.5 -2q1 0 8 1h9q24 0 24 -23q0 -3 -4 -18.5t-4 -17.5l-6 -42q-5 -22 -11 -27t-27 -5q-11 0 -77 1
h-79q-6 0 -43.5 -1.5t-45.5 -1.5q-50 0 -72 2q-26 0 -26 18q0 5 3 35.5t3 35.5q1 22 13 34q19 19 48 50q5 7 15 19q26 30 61 70q6 5 20 20q5 5 41 46q29 32 36 36.5t7 5.5q0 4 -8 7l-18 1q-3 0 -21.5 -1.5t-22.5 -1.5q-7 0 -21.5 1t-21.5 1zM175 688q0 21 23 21h12
q10 -1 12 -1q3 0 26 1h27q12 0 12 -22q0 -13 11 -13q8 0 27 16q7 8 24 18q5 1 82 1q28 0 28 -15q0 -10 -31 -37l-79 -79q-16 -15 -31 -15q-2 0 -19.5 1t-20.5 1t-20.5 -1t-21.5 -1q-15 0 -19.5 5t-10.5 22q-10 28 -16 51q-15 38 -15 47z" />
    <glyph glyph-name="florin" unicode="&#x192;" horiz-adv-x="313" 
d="M136 508h10q17 0 22 14q2 17 5 39q7 33 7 38q12 75 65 104q25 14 67 14h32q6 0 40.5 -4t34.5 -28q0 -5 -5 -22q-1 -6 -2 -18q-3 -8 -7 -23q-1 -9 -4 -28q-4 -24 -20 -24q-5 0 -15 2t-15 2q-25 0 -35 -19q-8 -15 -8 -35q0 -16 16 -16q2 0 14 2q4 0 9 1h5q25 0 25 -18
q0 -16 -7.5 -35t-13.5 -58q-4 -23 -13 -23q-4 0 -21 1.5t-19 1.5q-12 0 -17 -8q-6 -12 -12 -56q0 -8 -2 -23l-9 -30q-3 -26 -12 -77q-2 -17 -8 -52q-7 -25 -17 -78q0 -9 -3 -25q-4 -11 -12 -41q-5 -17 -12 -32q-16 -34 -48 -52q-18 -18 -82 -18q-41 0 -69 5t-28 26
q0 -7 6 23q0 6 1 18q1 5 6 22q2 9 5 27q6 26 20 26q4 0 11.5 -2t20.5 -2q29 0 38 56q4 22 7 38t8 31q2 21 10 62q5 16 13 49q17 89 17 94q0 12 -20 12q-16 0 -16 12q0 6 4 18q10 32 13 66q3 43 20 43z" />
    <glyph glyph-name="circumflex" unicode="&#x2c6;" horiz-adv-x="375" 
d="M308 566h-18q-39 0 -48 -1q-1 0 -4 -1h-5q-13 0 -16 10q-1 1 0 10q0 16 -10 16q-9 0 -17 -7l-24 -21q-10 -7 -33 -7h-61q-27 0 -27 13q0 11 23 32q12 11 47 47q52 54 67 54q3 0 23.5 -1t24.5 -1q3 0 20 1t20 1q16 0 22 -14q13 -38 32 -90q5 -17 5 -21q0 -20 -21 -20z" />
    <glyph glyph-name="caron" unicode="&#x2c7;" horiz-adv-x="375" 
d="M45 688q0 21 23 21h12q10 -1 12 -1q3 0 26 1h27q12 0 12 -22q0 -13 11 -13q8 0 27 16q7 8 24 18q5 1 82 1q28 0 28 -15q0 -10 -31 -37l-79 -79q-16 -15 -31 -15q-2 0 -19.5 1t-20.5 1t-20.5 -1t-21.5 -1q-15 0 -19.5 5t-10.5 22q-10 28 -16 51q-15 38 -15 47z" />
    <glyph glyph-name="breve" unicode="&#x2d8;" horiz-adv-x="375" 
d="M66 687q4 0 47 4q9 0 11 -11q6 -39 43 -39q29 0 41 12q11 7 28 25q6 10 17 10q2 0 14.5 -1t15.5 -1h14q11 -1 13 -1q5 0 15 2q2 0 4 1h4q10 0 10 -8q0 -2 -8 -13q-3 -3 -14 -18q-19 -26 -47 -47q-53 -40 -113 -40q-27 0 -50 8q-42 15 -61 45t-19 56q0 16 11 16h24z" />
    <glyph glyph-name="dotaccent" unicode="&#x2d9;" horiz-adv-x="375" 
d="M251 693q20 0 20 -24q0 2 -11 -48q-1 -9 -5 -25q-6 -21 -29 -21q-3 0 -25 1t-26 1h-22q-18 -1 -22 -1q-27 0 -27 24q0 3 6 21q7 31 9 33q0 13 5.5 25t28.5 12q4 0 24.5 -1t23.5 -1q5 0 15 1h15q6 2 20 3z" />
    <glyph glyph-name="ring" unicode="&#x2da;" horiz-adv-x="375" 
d="M62 617q0 47 41 72q36 22 81 22q50 0 74 -9q55 -20 55 -69q0 -23 -12 -45q-28 -49 -119 -49q-57 0 -85 19q-35 24 -35 59zM188 656q-17 0 -33 -7q-22 -10 -22 -23q0 -16 17 -25.5t34 -9.5q22 0 39 10t17 23q0 16 -19 25q-15 7 -33 7z" />
    <glyph glyph-name="ogonek" unicode="&#x2db;" horiz-adv-x="375" 
d="M97 -90q0 14 8 28q5 6 14 19q3 7 11 19q3 3 9 11q11 7 31 24q11 10 14 22t15 12h6q4 -1 6 -1q8 -2 36 -2q2 0 9 1h8q5 0 9.5 -7t4.5 -10q0 -7 -16 -17q-2 -1 -5.5 -3t-5.5 -3q-9 -7 -21 -17q-21 -17 -21 -24q0 -13 17 -14h19q18 0 18 -18q0 4 -8 -38q-7 -35 -35 -38h-30
q-1 0 -11 -1h-11q-24 0 -46 14q-25 16 -25 43z" />
    <glyph glyph-name="tilde" unicode="&#x2dc;" horiz-adv-x="375" 
d="M41 581h-21l-15 -3q-16 0 -16 14q0 12 13 47q5 14 18 33q27 41 75 41q21 0 46 -7q92 -26 94 -26q20 0 27 15.5t17 15.5q4 0 7 -1h16q14 -1 21 -1q34 1 35 1q6 2 16 2q12 0 12 -14q0 -28 -22 -68q-31 -59 -85 -59q-47 0 -109 20q-28 9 -35 9q-11 0 -16.5 -5.5l-10 -10
t-12.5 -4.5q-4 0 -27 1h-28z" />
    <glyph glyph-name="hungarumlaut" unicode="&#x2dd;" horiz-adv-x="375" 
d="M266 562h-24h-16q-14 -1 -17 -1q-29 0 -29 20q0 18 39 89q13 23 21.5 30.5t28.5 7.5q4 0 29.5 -1t30.5 -1q3 0 21 1.5t21 1.5q30 0 30 -13q0 -19 -63 -82q-12 -11 -33.5 -31.5t-38.5 -20.5zM60 562h-24h-16q-14 -1 -17 -1q-29 0 -29 20q0 18 39 89q13 23 21.5 30.5
t28.5 7.5q4 0 29.5 -1t30.5 -1q3 0 21 1.5t21 1.5q30 0 30 -13q0 -19 -63 -82q-12 -11 -33.5 -31.5t-38.5 -20.5z" />
    <glyph glyph-name="endash" unicode="&#x2013;" 
d="M161 208q-5 0 -35 1t-36 1q-2 0 -17 -1t-18 -1q-25 0 -25 15q0 -4 6 24q5 19 8 37q2 13 7 39q4 20 8 24.5t21 4.5q2 0 28 -4q13 -2 83 -2q6 0 43 -1t44 -1q20 0 71 1.5t70 1.5q3 0 21.5 -1t22.5 -1t28 1.5t29 1.5q25 0 25 -19q0 -6 -5 -23.5t-13 -52.5q-3 -9 -3.5 -15.5
t-3 -18t-11.5 -11.5h-348z" />
    <glyph glyph-name="emdash" unicode="&#x2014;" horiz-adv-x="604" 
d="M30 222q0 1 5.5 24t8 36.5t7.5 39.5q4 20 8 24t21 4q9 0 28 -3q13 -2 83 -2q6 0 42 -1t43 -1q126 0 196 2q35 1 30 1q4 0 22.5 -1t21.5 -1q4 0 28 1.5t29 1.5q25 0 25 -19q0 -6 -6 -24l-12 -52q-1 -5 -2.5 -16t-3.5 -18q-3 -11 -23 -11h-109q-8 0 -59 1h-61h-104
q-86 -1 -87 -1q-5 0 -35 1t-36 1q-2 0 -17 -1t-18 -1q-25 0 -25 15z" />
    <glyph glyph-name="quoteleft" unicode="&#x2018;" horiz-adv-x="208" 
d="M92 471q0 8 6 31q3 13 8 39q3 14 8 35q8 28 64 106q20 28 43 28h15q12 -1 15 -1q19 0 19 -12q0 -4 -17 -30q-6 -6 -16 -20.5t-10 -23.5q0 -13 25 -14q17 -2 17 -15q0 -5 -5 -20q-5 -29 -11 -69q-9 -57 -34 -57q-3 0 -15 2t-14 2q-5 0 -36 -1t-37 -1q-25 0 -25 21z" />
    <glyph glyph-name="quoteright" unicode="&#x2019;" horiz-adv-x="208" 
d="M131 662q10 48 32 48q3 0 9 -1t9.5 -1.5t11.5 -0.5q12 0 35.5 1t35.5 1q27 0 27 -20q0 -18 -16 -81q-11 -43 -20.5 -60.5t-55.5 -77.5q-11 -15 -19.5 -17.5t-38.5 -2.5q-29 0 -29 11q0 5 14 26q8 10 22 30q8 12 8 19q0 13 -21.5 14t-21.5 15q0 3 4.5 18t4.5 16
q1 6 5 33.5t4 29.5z" />
    <glyph glyph-name="quotesinglbase" unicode="&#x201a;" horiz-adv-x="208" 
d="M28 -100h-8q-18 0 -18 12q4 7 20 34q10 12 14 18q10 10 10 22q0 13 -25 14q-18 1 -18 15q0 3 5 21q4 10 6 29q2 10 5 30q5 35 10 46q7 19 24 19q6 0 17 -2t17 -2q13 0 19 2h10q9 -1 11 -1q1 0 12 1h12q30 0 30 -21q0 -6 -7 -35q-3 -18 -11 -52q-11 -45 -43 -87
q-13 -16 -25 -35q-20 -30 -44 -30q-3 0 -11 1t-12 1z" />
    <glyph glyph-name="quotedblleft" unicode="&#x201c;" horiz-adv-x="375" 
d="M102 508q0 25 6 46q4 29 20 69q6 14 38 57l4 5q19 25 50 25q38 0 38 -15q0 -5 -15.5 -23.5t-15.5 -28.5q3 -4 12 -13q6 0 17.5 -3t11.5 -13q0 -3 -3.5 -18t-3.5 -16l-9 -54q-4 -28 -8 -38q-8 -18 -28 -18q-3 0 -19 2t-19 2q-2 0 -12.5 -1t-12.5 -1q-32 0 -39 3
q-12 7 -12 33zM325 473h-14q-1 0 -9.5 -1t-10.5 -1q-19 0 -19 28v9q0 5 5 29.5t5 27.5q3 21 11 44q12 32 36 63q28 36 53 36q42 0 42 -14q0 -6 -13.5 -24.5t-13.5 -28.5q0 -13 15 -13q3 0 7 1t6 1q15 0 15 -16q0 -6 -6 -20l-6 -30q-3 -10 -6 -30q-3 -39 -12 -52.5t-35 -13.5
q-2 0 -7 1h-8q-22 5 -25 5h-5q-4 -1 -5 -1z" />
    <glyph glyph-name="quotedblright" unicode="&#x201d;" horiz-adv-x="375" 
d="M114 566q0 4 4 21q2 9 11 71q4 25 13 38.5t35 13.5q6 0 16.5 -2t15.5 -2q1 0 8 1h8.5h8.5q8 -1 9 -1t8 1h7q21 0 21 -29q0 -17 -11 -69q-8 -38 -13 -50q-7 -16 -25 -40q-6 -8 -18 -23.5t-20 -19.5q-11 -6 -37 -6q-25 0 -25 16q0 7 8 19q14 20 14 31q0 14 -21 14
q-17 0 -17 16zM283 566q0 1 6.5 38.5t7.5 44.5q1 11 5 31q9 29 36 29q3 0 18 -2t17 -2q1 0 5 1h7q5 1 12 1h26q24 0 24 -34q0 -17 -3 -32q-12 -58 -16 -68.5t-15 -29.5q-31 -54 -42.5 -64t-41.5 -10q-34 0 -34 15q0 13 16 29q11 11 11 21q0 11 -11 14q-7 0 -20 3q-8 4 -8 15
z" />
    <glyph glyph-name="quotedblbase" unicode="&#x201e;" horiz-adv-x="375" 
d="M2 14q0 -5 7 24t11 63.5t13 46.5t37 12q1 0 12 -2q24 -4 21 -4q1 0 6 1h6.5h7.5q7 -1 8 -1t9.5 1t10.5 1q19 0 19 -27v-3q0 8 -9 -57q-2 -13 -11 -48q-5 -16 -23 -48q-27 -37 -39 -45.5t-31 -8.5q-38 0 -38 17q0 7 13 22.5t13 27.5q0 13 -16 13q-2 0 -6 -1h-7
q-14 0 -14 16zM174 15q1 5 2.5 11.5t2.5 11.5q6 32 11 64q2 17 4 27q6 29 31 29q2 0 18 -2t19 -2q2 0 15 1t16 1q15 0 27 -3q20 0 20 -26q0 -11 -3 -34q-3 -26 -13 -58q-14 -49 -59 -101q-14 -16 -46 -16q-35 0 -35 15q0 4 8 14q23 28 23 38q0 9 -11 12q-7 0 -18.5 4
t-11.5 14z" />
    <glyph glyph-name="bullet" unicode="&#x2022;" horiz-adv-x="333" 
d="M211 508q62 0 106 -41q47 -45 47 -115q0 -66 -42.5 -110.5t-109.5 -44.5q-71 0 -116 49q-42 46 -42 106q0 63 45.5 109.5t111.5 46.5z" />
    <glyph glyph-name="ellipsis" unicode="&#x2026;" horiz-adv-x="1000" 
d="M61 17q0 3 4 17t4 26q1 8 4 25t8 39q8 39 36 39q10 0 23 -2q7 -1 36 -1h55q20 0 20 -13q0 -5 -3 -22q-2 -6 -6 -20q-2 -7 -5 -22q-9 -36 -9 -47q-5 -37 -30 -37q-5 0 -17 2q-18 3 -37 3q-4 0 -27.5 -2t-28.5 -2q-27 0 -27 17zM394 17q0 3 4 17t4 26q1 8 4 25t8 39
q8 39 36 39q10 0 23 -2q7 -1 36 -1h55q20 0 20 -13q0 -5 -3 -22q-2 -6 -6 -20q-2 -7 -5 -22q-9 -36 -9 -47q-5 -37 -30 -37q-5 0 -17 2q-18 3 -37 3q-4 0 -27.5 -2t-28.5 -2q-27 0 -27 17zM727 17q0 3 4 17t4 26q1 8 4 25t8 39q8 39 36 39q10 0 23 -2q7 -1 36 -1h55
q20 0 20 -13q0 -5 -3 -22q-2 -6 -6 -20q-2 -7 -5 -22q-9 -36 -9 -47q-5 -37 -30 -37q-5 0 -17 2q-18 3 -37 3q-4 0 -27.5 -2t-28.5 -2q-27 0 -27 17z" />
    <glyph glyph-name="guilsinglleft" unicode="&#x2039;" horiz-adv-x="187" 
d="M45 265q0 12 7 39t11 47q9 50 13.5 61.5t21.5 19.5q8 3 25 11l42 24q35 20 45 20q6 0 10 -3q6 -6 6 -17q0 -7 -9 -51q-12 -57 -23 -62t-24 -12q-9 -2 -24 -6q-8 -3 -8 -6q0 -2 6.5 -6t11 -7t13.5 -10q6 -2 15 -9q5 -7 5 -13q0 -1 -7.5 -38t-8.5 -41q-11 -47 -31 -47
q-7 0 -22.5 12.5t-26.5 23.5q-5 5 -17 14q-31 23 -31 56z" />
    <glyph glyph-name="guilsinglright" unicode="&#x203a;" horiz-adv-x="187" 
d="M62 354q0 1 1.5 9.5t1.5 9.5q6 36 16 86q6 26 23 26q9 0 25 -14q10 -8 27 -26q36 -41 42.5 -50.5t6.5 -21.5q0 -9 -7 -41q-3 -13 -8 -39q-9 -51 -14 -61.5t-28 -20.5q-15 -7 -48 -27q-41 -25 -58 -25q-14 0 -14 17q0 2 11 54q2 11 5 32q3 18 4.5 21.5t6.5 7.5q9 7 31 12
q18 5 18 10q0 6 -5.5 8.5t-10 6t-11.5 8.5q-4 2 -9.5 7t-5.5 11z" />
    <glyph glyph-name="trademark" unicode="&#x2122;" horiz-adv-x="688" 
d="M759 706v-332h-82l4 177q1 33 6 68q-4 -17 -14 -54l-56 -191h-75l-59 192q-7 22 -14 51q3 -16 7 -66l4 -177h-81v332h106l76 -240l71 240h107zM272 639v-265h-84v265h-102v67h286v-67h-100z" />
    <glyph glyph-name="fi" unicode="&#xf001;" horiz-adv-x="500" 
d="M53 383v1q0 1 6 20q9 31 12 71q1 19 6.5 26.5t24.5 7.5t23 27q0 11 7 49q10 49 22 71q18 34 48 49q25 13 67 13q28 0 74 -5q31 -3 31 -27q0 -1 -0.5 -4t-3 -9t-2.5 -9q-1 -6 -2 -18q-2 -8 -7 -25q-1 -9 -4 -27q-5 -23 -20 -23q-3 0 -10 2t-20 2q-12 0 -17 -3
q-20 -7 -24 -34q0 -2 -1 -9.5t-1 -8.5q0 -16 15 -16q1 0 15 2q4 0 9 1h6q24 0 24 -19q0 -6 -2 -13q-4 -13 -11 -38q-3 -11 -6 -33t-5 -26.5t-9 -4.5q-2 0 -5 1h-6q-5 1 -17 1q-4 1 -13 1q-15 0 -19 -15.5t-7 -30.5q-3 -21 -8 -51q-3 -8 -6 -25q-1 -3 -3 -25q-1 -6 -6 -33
q-2 -14 -6 -43q-9 -35 -20 -84q-1 -13 -5.5 -41t-23.5 -28q-1 0 -4 1h-4q-28 4 -40 4q-3 0 -22 -2t-23 -2q-36 0 -36 30q0 5 14 72q8 34 15 69q1 14 6 42q9 35 25 106q6 18 6 38q0 12 -21 12q-16 0 -16 13zM447 708h27q3 0 21 -1t22 -1q3 0 17 1h17q22 0 22 -20q0 8 -15 -55
q-3 -16 -11 -46t-30 -30q-2 0 -18 1h-19h-23q-20 -1 -24 -1q-37 0 -37 24q0 9 7 40q6 27 15 64q8 22 29 24zM286 24q0 13 6 33q8 29 9 33q0 1 7 47q4 18 11 54q8 48 25 142q4 23 13 53q6 20 7 33q5 52 12 68q10 25 38 25q1 0 18 -2t78 -2q21 0 21 -23q0 -9 -6 -28
q-3 -8 -21 -104q-3 -20 -10 -61q-6 -22 -14 -67q-1 -11 -4 -34q-5 -30 -20 -89q-2 -22 -8 -66q-6 -37 -31 -37q-1 0 -7.5 1t-8 1t-23.5 1h-24q-3 0 -19 -1t-19 -1q-30 0 -30 24z" />
    <glyph glyph-name="fl" unicode="&#xf002;" horiz-adv-x="500" 
d="M53 383v1q0 1 6 20q9 31 12 71q1 19 6.5 26.5t24.5 7.5t23 27q0 11 7 49q10 49 22 71q18 34 48 49q25 13 67 13q28 0 74 -5q31 -3 31 -27q0 -1 -0.5 -4t-3 -9t-2.5 -9q-1 -6 -2 -18q-2 -8 -7 -25q-1 -9 -4 -27q-5 -23 -20 -23q-3 0 -10 2t-20 2q-12 0 -17 -3
q-20 -7 -24 -34q0 -2 -1 -9.5t-1 -8.5q0 -16 15 -16q1 0 15 2q4 0 9 1h6q24 0 24 -19q0 -6 -2 -13q-4 -13 -11 -38q-3 -11 -6 -33t-5 -26.5t-9 -4.5q-2 0 -5 1h-6q-5 1 -17 1q-4 1 -13 1q-15 0 -19 -15.5t-7 -30.5q-3 -21 -8 -51q-3 -8 -6 -25q-1 -3 -3 -25q-1 -6 -6 -33
q-2 -14 -6 -43q-9 -35 -20 -84q-1 -13 -5.5 -41t-23.5 -28q-1 0 -4 1h-4q-28 4 -40 4q-3 0 -22 -2t-23 -2q-36 0 -36 30q0 5 14 72q8 34 15 69q1 14 6 42q9 35 25 106q6 18 6 38q0 12 -21 12q-16 0 -16 13zM283 25q0 4 7 30q2 12 6 35q4 15 10 44q2 14 8 43q3 11 8 32
q2 18 7 54q4 13 11 40q2 16 7 47q4 13 11 40q11 52 13.5 70.5t9.5 53.5q3 11 8 34q5 33 19 105q10 52 44 52q3 0 19.5 -1.5t19.5 -1.5q6 0 17.5 1t17.5 1q42 0 42 -26l-6 -34l-5 -30q-5 -23 -13 -55q-2 -14 -7 -41q-4 -17 -11 -50q-2 -10 -5 -31q-6 -26 -14 -60l-6 -39
q-7 -25 -17 -77q-2 -15 -7 -46q-4 -14 -11 -44q-2 -12 -5 -36q-1 -6 -9 -38q-5 -19 -12 -69q-4 -30 -30 -30q-7 0 -10 1q-29 4 -39 4q-13 0 -37 -2q-4 -1 -14 -1q-27 0 -27 25z" />
    <glyph glyph-name="glyph204" horiz-adv-x="375" 
 />
  </font>
</defs>
</svg>
